<?xml version="1.0" encoding="utf-8"?>
<!-- Generator: Adobe Illustrator 24.0.2, SVG Export Plug-In . SVG Version: 6.00 Build 0)  -->
<svg version="1.1" id="Layer_1" xmlns="http://www.w3.org/2000/svg" xmlns:xlink="http://www.w3.org/1999/xlink" x="0px" y="0px"
	 width="100px" height="100px" viewBox="0 0 100 100" style="enable-background:new 0 0 100 100;" xml:space="preserve">
<style type="text/css">
	.st0{fill-rule:evenodd;clip-rule:evenodd;}
	.st1{fill:url(#SVGID_1_);}
	.st2{fill:none;stroke:#000000;stroke-width:0.75;stroke-miterlimit:10;}
	.st3{fill-rule:evenodd;clip-rule:evenodd;fill:#4A0800;stroke:#000000;stroke-width:0.75;stroke-miterlimit:10;}
	.st4{fill-rule:evenodd;clip-rule:evenodd;fill:url(#SVGID_2_);}
	.st5{fill-rule:evenodd;clip-rule:evenodd;fill:#FF1C00;stroke:#000000;stroke-width:0.5;stroke-miterlimit:10;}
	.st6{fill-rule:evenodd;clip-rule:evenodd;fill:none;stroke:#FF7C4D;stroke-miterlimit:10;}
	.st7{clip-path:url(#SVGID_4_);}
	.st8{fill:#FF7C4D;}
	.st9{fill-rule:evenodd;clip-rule:evenodd;fill:#FCEE21;}
</style>
<rect x="85" y="44" class="st0" width="5" height="5"/>
<rect x="85" y="52" class="st0" width="5" height="5"/>
<g>
	<linearGradient id="SVGID_1_" gradientUnits="userSpaceOnUse" x1="50.5" y1="50.5" x2="86.5" y2="50.5">
		<stop  offset="0" style="stop-color:#848484"/>
		<stop  offset="0.4254" style="stop-color:#828282"/>
		<stop  offset="0.5786" style="stop-color:#7B7B7B"/>
		<stop  offset="0.6878" style="stop-color:#707070"/>
		<stop  offset="0.7761" style="stop-color:#5F5F5F"/>
		<stop  offset="0.8518" style="stop-color:#494949"/>
		<stop  offset="0.9187" style="stop-color:#2D2D2D"/>
		<stop  offset="0.9778" style="stop-color:#0E0E0E"/>
		<stop  offset="1" style="stop-color:#000000"/>
	</linearGradient>
	<rect x="50.5" y="42.7" class="st1" width="36" height="15.7"/>
	<path d="M86,43.2v14.7H51V43.2H86 M87,42.2H50v16.7h37V42.2L87,42.2z"/>
</g>
<g>
	<line class="st2" x1="50.5" y1="50.5" x2="87" y2="50.5"/>
</g>
<g>
	<line class="st2" x1="65.7" y1="43.1" x2="50.9" y2="57.9"/>
</g>
<g>
	<line class="st2" x1="75.5" y1="42.5" x2="59.5" y2="58.5"/>
</g>
<g>
	<line class="st2" x1="84.7" y1="42.7" x2="69.2" y2="58.2"/>
</g>
<g>
	<line class="st2" x1="56.8" y1="42.8" x2="50.3" y2="49.3"/>
</g>
<g>
	<line class="st2" x1="65.9" y1="42.9" x2="50.9" y2="57.9"/>
</g>
<g>
	<line class="st2" x1="86.1" y1="50.5" x2="78.3" y2="58.3"/>
</g>
<path class="st3" d="M64.4,67.4H34.6c-2.3,0-4.1-1.8-4.1-4.1V37.7c0-2.3,1.8-4.1,4.1-4.1h29.9c2.3,0,4.1,1.8,4.1,4.1v25.7
	C68.5,65.6,66.7,67.4,64.4,67.4z"/>
<radialGradient id="SVGID_2_" cx="49.75" cy="50.5" r="11.25" gradientUnits="userSpaceOnUse">
	<stop  offset="0" style="stop-color:#FF1E1E"/>
	<stop  offset="1" style="stop-color:#FF0000;stop-opacity:0"/>
</radialGradient>
<circle class="st4" cx="49.8" cy="50.5" r="11.3"/>
<circle class="st5" cx="49.5" cy="50.5" r="9"/>
<g>
	<defs>
		<path id="SVGID_3_" d="M65.9,67H35.1c-2.3,0-4.1-1.8-4.1-4.1V38.1c0-2.3,1.8-4.1,4.1-4.1h30.9c2.3,0,4.1,1.8,4.1,4.1v24.9
			C70,65.2,68.2,67,65.9,67z"/>
	</defs>
	<clipPath id="SVGID_4_">
		<use xlink:href="#SVGID_3_"  style="overflow:visible;"/>
	</clipPath>
	<g class="st7">
		<polygon class="st8" points="31.4,33.6 30.6,34.4 37.5,41.2 37.5,67.4 38.5,67.4 38.5,40.8 		"/>
		<polygon class="st8" points="27.4,36.6 34,43.2 34,69 37,69 37,42 29.6,34.5 		"/>
	</g>
</g>
<polygon class="st9" points="54,66 57,66 58.2,62 55,62 "/>
<polygon class="st9" points="58,66 61,66 62.2,62 59,62 "/>
<polygon class="st9" points="62,66 65,66 66.2,62 63,62 "/>
</svg>
