<svg xmlns="http://www.w3.org/2000/svg" xmlns:xlink="http://www.w3.org/1999/xlink" viewBox="0 0 130 100"><defs><style>.cls-1,.cls-11,.cls-12,.cls-13,.cls-14,.cls-15,.cls-16,.cls-17,.cls-18,.cls-2,.cls-3,.cls-4,.cls-5,.cls-6,.cls-7,.cls-8{stroke:#000;}.cls-1,.cls-10,.cls-11,.cls-12,.cls-13,.cls-14,.cls-15,.cls-16,.cls-17,.cls-18,.cls-2,.cls-3,.cls-4,.cls-5,.cls-6,.cls-7,.cls-8,.cls-9{stroke-miterlimit:10;}.cls-1{fill:url(#Безымянный_градиент_18);}.cls-2{fill:url(#Безымянный_градиент_18-2);}.cls-3{fill:url(#Безымянный_градиент_19);}.cls-4{fill:url(#Безымянный_градиент_19-2);}.cls-5{fill:url(#Безымянный_градиент_170);}.cls-6{fill:url(#Безымянный_градиент_20);}.cls-7{fill:#31c8c5;}.cls-8{fill:#984c24;}.cls-9{stroke:#f9f912;}.cls-10{stroke:#31c8c5;}.cls-11{fill:url(#Безымянный_градиент_20-2);}.cls-12{fill:url(#Безымянный_градиент_18-3);}.cls-13{fill:url(#Безымянный_градиент_18-4);}.cls-14{fill:url(#Безымянный_градиент_25);}.cls-15{fill:url(#Безымянный_градиент_25-2);}.cls-16{fill:url(#Безымянный_градиент_25-3);}.cls-17{fill:url(#Безымянный_градиент_25-4);}.cls-18{fill:url(#Безымянный_градиент_25-5);}</style><linearGradient id="Безымянный_градиент_18" x1="37.8" y1="68.65" x2="65.82" y2="68.65" gradientTransform="translate(9.33 -6.13) rotate(7.45)" gradientUnits="userSpaceOnUse"><stop offset="0" stop-color="#984c24"/><stop offset="0.18" stop-color="#944a23"/><stop offset="0.34" stop-color="#894521"/><stop offset="0.49" stop-color="#773b1c"/><stop offset="0.64" stop-color="#5d2e16"/><stop offset="0.79" stop-color="#3b1e0e"/><stop offset="0.94" stop-color="#120904"/><stop offset="0.99"/></linearGradient><linearGradient id="Безымянный_градиент_18-2" x1="37.66" y1="82.58" x2="46.92" y2="82.58" gradientTransform="matrix(0.91, -0.42, 0.42, 0.91, -30.85, 21.87)" xlink:href="#Безымянный_градиент_18"/><linearGradient id="Безымянный_градиент_19" x1="-33.83" y1="215.76" x2="-39.21" y2="188.48" gradientTransform="matrix(0.8, 0.12, -0.16, 0.94, 120.38, -163.91)" gradientUnits="userSpaceOnUse"><stop offset="0" stop-color="#984c24"/><stop offset="0.37" stop-color="#964b24"/><stop offset="0.52" stop-color="#8f4722"/><stop offset="0.63" stop-color="#83411f"/><stop offset="0.73" stop-color="#71381b"/><stop offset="0.81" stop-color="#5a2d15"/><stop offset="0.88" stop-color="#3e1f0f"/><stop offset="0.95" stop-color="#1d0f07"/><stop offset="0.99"/></linearGradient><linearGradient id="Безымянный_градиент_19-2" x1="80.32" y1="140.09" x2="74.43" y2="110.24" gradientTransform="matrix(0.98, 0.13, -0.17, 1.13, 14.82, -132.94)" xlink:href="#Безымянный_градиент_19"/><linearGradient id="Безымянный_градиент_170" x1="10.98" y1="27.78" x2="124.93" y2="67.94" gradientUnits="userSpaceOnUse"><stop offset="0"/><stop offset="0.03" stop-color="#060606"/><stop offset="0.08" stop-color="#171717"/><stop offset="0.13" stop-color="#333"/><stop offset="0.19" stop-color="#595959"/><stop offset="0.24" stop-color="gray"/><stop offset="0.42" stop-color="#323232"/><stop offset="0.54"/><stop offset="0.73" stop-color="#5b5b5b"/><stop offset="0.8" stop-color="gray"/><stop offset="0.87" stop-color="#585858"/><stop offset="0.99"/></linearGradient><linearGradient id="Безымянный_градиент_20" x1="99.26" y1="86.52" x2="99.26" y2="62.99" gradientUnits="userSpaceOnUse"><stop offset="0" stop-color="#984c24"/><stop offset="0.31" stop-color="#964b23"/><stop offset="0.46" stop-color="#8e4722"/><stop offset="0.59" stop-color="#81401e"/><stop offset="0.69" stop-color="#6e371a"/><stop offset="0.79" stop-color="#552a14"/><stop offset="0.88" stop-color="#371b0d"/><stop offset="0.96" stop-color="#130a05"/><stop offset="0.99"/></linearGradient><linearGradient id="Безымянный_градиент_20-2" x1="115.74" y1="108.88" x2="115.74" y2="70.49" gradientTransform="translate(-2.8 -7.17) rotate(-1.56)" xlink:href="#Безымянный_градиент_20"/><linearGradient id="Безымянный_градиент_18-3" x1="15.77" y1="82.02" x2="25.03" y2="82.02" gradientTransform="translate(23.16 -5.49) rotate(15.28)" xlink:href="#Безымянный_градиент_18"/><linearGradient id="Безымянный_градиент_18-4" x1="27.86" y1="69.29" x2="55.1" y2="69.29" gradientTransform="translate(5.64 -3.08) rotate(4.56)" xlink:href="#Безымянный_градиент_18"/><linearGradient id="Безымянный_градиент_25" x1="13.38" y1="6.58" x2="42.43" y2="6.58" gradientTransform="translate(-5.92 44.28) rotate(-5.63)" gradientUnits="userSpaceOnUse"><stop offset="0" stop-color="#984c24"/><stop offset="0.15" stop-color="#944a23"/><stop offset="0.31" stop-color="#874320"/><stop offset="0.48" stop-color="#71391b"/><stop offset="0.65" stop-color="#532914"/><stop offset="0.83" stop-color="#2d160b"/><stop offset="0.99"/></linearGradient><linearGradient id="Безымянный_градиент_25-2" x1="8.62" y1="53.43" x2="8.62" y2="44.32" gradientTransform="translate(-2.06 -9.77) rotate(-2.21)" xlink:href="#Безымянный_градиент_25"/><linearGradient id="Безымянный_градиент_25-3" x1="23.19" y1="52.15" x2="23.19" y2="39" gradientTransform="translate(-2.06 -9.77) rotate(-2.21)" xlink:href="#Безымянный_градиент_25"/><linearGradient id="Безымянный_градиент_25-4" x1="15.81" y1="52.85" x2="15.81" y2="40.67" gradientTransform="translate(-2.06 -9.77) rotate(-2.21)" xlink:href="#Безымянный_градиент_25"/><linearGradient id="Безымянный_градиент_25-5" x1="29.68" y1="49.36" x2="29.68" y2="39.11" gradientTransform="translate(-2.06 -9.77) rotate(-2.21)" xlink:href="#Безымянный_градиент_25"/></defs><title>3</title><g id="Слой_12" data-name="Слой 12"><path class="cls-1" d="M64.05,69.44S42.73,62,38.39,63.17a16.3,16.3,0,0,1,1.3,5.29c9.64-.95,25.06,7.86,25.54,5.53A6.29,6.29,0,0,0,64.05,69.44Z"/><path class="cls-2" d="M37.05,64.08c-.43,2.9,1.64,14.17,6.48,27.8,1.12,3.13,1.52,4,3,4.05,2.91.17-2.78-7.86.16-7.79,1.66,0-6.49-22.39-6.33-22.31.08-1.83-.17-4.27-2.09-4.29A19.74,19.74,0,0,0,37.05,64.08Z"/><path class="cls-3" d="M31.62,12.83S23.88,8.92,44,11.37c19.67,2.41,41.51,12.81,43.17,15.69,3.41,5.9.14,6.23-3.38,4.19-5.18-3-9-7.68-7.28-5.36s-.73,3.69-7-1.7c-4.9-4.24-7.88-6-6.73-3.34C64.14,24,57.31,20,54,16.4c-2.58-2.76-8.88,3-13.51-2.13C36.87,10.34,33.38,15.81,31.62,12.83Z"/><path class="cls-4" d="M35.42,6.65s-9.49-4.56,15-1.95c23.95,2.56,51,17.61,53.09,21,4.28,7,.31,7.47-4,5.08-6.36-3.51-12.7-13.9-11.92-10.31s1.56,5.68-6.14-.69c-6.06-5-8.68-7.68-7.21-4.52,1.71,3.7-6.39-.52-10.53-4.75-3.2-3.27-11.74,3.7-17.49-2.32C41.74,3.57,37.63,10.2,35.42,6.65Z"/><path class="cls-5" d="M118.91,83c1.25-21-2.78-30.35-13.88-36.47C94.68,40.81,88.28,45.47,83.8,43.3c-4.89-2.37-8.82-6.18-13.25-4.51-7.72,2.92-8.76,2.33-11.27-.75-7.42-9.13-8.52-4-14.09-7.78-5.31-3.62-.8-3.62-5.17-10.38C34,9.82,45,12.93,47.2,11.57,52.64,8.28,45.78.05,41.55,2.35,34,6.45,35.08,3.51,33,2.06,28-1.45,20.05,5,22.47,7.5c6.08,6.41-13-.18-7.53,12.34,1.84,4.22,8.26.66,10.12-.83s3.6-4.37,3.93-1.66c.28,2.31-3.59,4.77,3.29,13.87.23.3,3.32,12.58,5.85,17.3,1.7,3.15,4.37,4.32,7,8.69,3.13,5.14,2.31,13.7,5.28,19.42C54,83.5,62.77,77,65.1,80c5.78,7.19,4,5.34,13.16,7.06,4.43.84,5.52,3.42,12.5,6.28,8.6,3.53,24,2.56,32.94-.56,6-2.1,2.54-2.62-.84-4.4C120.8,87.23,118.75,85.67,118.91,83Z"/><path class="cls-6" d="M110.44,65.18s-1.76-.91-1.29-2.1C106.94,61.57,96.51,81,95.33,80c-.85-.71-1.62-4.14-2.24-8.51-.54-3.81-5,1.79-5,1.79a11.5,11.5,0,0,0,1.09,4.84c.66,1.14,1.62-1.76,1.68-1.12,0,.25,3.66,10.41,5.8,9.46C103.09,83.62,110.38,65.24,110.44,65.18Z"/><path class="cls-7" d="M59.5,42.67c-1.39,2.84-1.83,9.5-1.26,18.52.48,7.64,4.92,15.23,6.2,18,1.63,3.5,0-11.22-.19-11.71-2.83-9.55-5.39-17.42-2.5-22.11C66.33,37.92,60.38,40.87,59.5,42.67Z"/><path class="cls-7" d="M43.14,29.37c-2.64,1.6-3,12.78-2,17.85a25.83,25.83,0,0,0,4,10c1.77,2.59,0-10.89-.52-14.34-.89-5.35-1.18-5.82,1-9.19C48,30,44.19,28.73,43.14,29.37Z"/><path class="cls-7" d="M81.88,43.68c-3.25,2.5-6.08,10.4-5.92,18.76.16,8.94,3,20.93,4.79,24.13,2.35,4.08.49-15.09.28-15.66-4.09-11.14-2.53-14.7,1.59-19.73C87.4,45.35,85.74,40.71,81.88,43.68Z"/><path class="cls-7" d="M29.92,28s-1.91-7.12,2.41-9.7,6.53-3.71,6.61-6.41S38.45,1.65,36.55,4c-.65.79,1.7,6.84-1.93,9.72s-5.19,2.81-6.26,5.14C27,21.73,29.92,28,29.92,28Z"/><path class="cls-8" d="M46.25,11.63c1.18-.39,1.66-3.12.68-5.48-1-2.52-2.64-5.11-5.16-4.37A4.76,4.76,0,0,0,40.53,9.3C42.62,11.75,43.93,12.41,46.25,11.63Z"/><path class="cls-9" d="M44.93,5.56c.76,1.53,1.49,3.78-.19,4.16C44,9.89,42.85,9,42.09,7.51s-.82-3-.11-3.3A2.4,2.4,0,0,1,44.93,5.56Z"/><path class="cls-8" d="M32.7,12.88C30,14,26.13,12.14,25.08,9.08s-1.18-5.9.72-6.55,4.3-2.66,7.29,2.59C34.68,7.92,36,11.5,32.7,12.88Z"/><path class="cls-9" d="M30.94,6.91c-1.13-1.65-1.65-3.11-2.55-3-1.64.28-1.35,2.23-.86,4.16s1.71,2.74,2.66,2.85C32.14,11.19,32.52,9.22,30.94,6.91Z"/><path class="cls-8" d="M16.51,12.1c1.5,0,5.15,1.57,5.3,3.68.17,2.34.93,4.69-2.23,5-1.5.17-4.28-.59-5.1-4.48C14.05,14.31,15,12.09,16.51,12.1Z"/><path class="cls-9" d="M19.6,15.26c.95,1.06.93,3.07.45,3.56-1.17,1.18-2.51-.37-3.21-1.57s-.69-2.57-.13-2.95S18.64,14.21,19.6,15.26Z"/><path class="cls-10" d="M39.16,42.57c.27-7.47-1.32-14.2-4.36-15.63-3.84-1.8-3,7.66-1.36,14.93a10.14,10.14,0,0,1,0,3c1.76-.29,3.5-.26,5.47-.48C38.87,44,39.14,42.93,39.16,42.57Z"/><path class="cls-11" d="M119.35,90.76c-8,1.54-9.21-28.27-9.31-28.32-1.76-.86-5.22-5-5,1.55-.18,5.7,5.08,31.81,13.94,34.32,1.66.47,6.8-1,6.8-1S124.73,89.73,119.35,90.76Z"/><path class="cls-12" d="M26.69,64.32c-2.2,1.93-7.91,11.87-13,25.4-1.17,3.1-1.4,4-.31,5,2.1,2,3-7.8,5.16-5.84C19.75,90,28,67.64,28.1,67.8c1.25-1.33,2.63-3.36,1.18-4.61A18,18,0,0,0,26.69,64.32Z"/><path class="cls-13" d="M53.41,68.68s-21-4.59-25.29-3.2c.73,1.07.39,1.5.55,2.81,9.59-1.44,25.79,7.23,26.15,4.88A6.31,6.31,0,0,0,53.41,68.68Z"/><path class="cls-14" d="M16.2,49.55c-1.7.37-12.35-.47-6,3.85,5.43,3.67,10.3,2.9,13.48,2.23,21-4.43,10.46-16.55,10.46-16.55S30,46.51,16.2,49.55Z"/><path class="cls-10" d="M31.85,40.83c1.45,7.79-18.48,12.65-21.43,12-3.47-.76,5.47,6.65,10.66,5.45A32.28,32.28,0,0,0,34.59,51.5c6.93-6.34,5.22-8.09,3.53-12.16C36.4,40.21,31.71,35.74,31.85,40.83Z"/><path class="cls-15" d="M4.47,36.51c-1.54,8.75,1.31,8.27,4.94,3.58s3.32-5.77,3.32-5.77S5.05,33.2,4.47,36.51Z"/><path class="cls-16" d="M27.7,28.73c-6.12,5.79-3.17,18.19-8.24,10.1s1.7-10.16,1.7-10.16S29,27.49,27.7,28.73Z"/><path class="cls-17" d="M19.45,30.93c-2.32,5.78-4.59,17.3-7.5,8.15-2-6.27,1.35-8.17,1.35-8.17S20.15,29.2,19.45,30.93Z"/><path class="cls-18" d="M29.76,37.92c1.79-6.4,8.42-10.72-1.17-9.65-5.71.64-3.36,6.84-3.36,6.84S29.19,40,29.76,37.92Z"/><path class="cls-10" d="M34.44,26.46c-2.62.59-.09-4.78-10.21-2.64A35.41,35.41,0,0,0,3.16,36.46c-2,2.39,8.33,1.84,12.37-.49,7-4,17.24-2,19.16-3.88C35.65,31.18,35.67,26.19,34.44,26.46Z"/></g></svg>