<svg xmlns="http://www.w3.org/2000/svg" xmlns:xlink="http://www.w3.org/1999/xlink" viewBox="0 0 130 100"><defs><style>.cls-1,.cls-11,.cls-12,.cls-13,.cls-14,.cls-15,.cls-16,.cls-17,.cls-18,.cls-2,.cls-3,.cls-4,.cls-5,.cls-6,.cls-7,.cls-8{stroke:#000;}.cls-1,.cls-10,.cls-11,.cls-12,.cls-13,.cls-14,.cls-15,.cls-16,.cls-17,.cls-18,.cls-2,.cls-3,.cls-4,.cls-5,.cls-6,.cls-7,.cls-8,.cls-9{stroke-miterlimit:10;}.cls-1{fill:url(#Безымянный_градиент_18);}.cls-2{fill:url(#Безымянный_градиент_18-2);}.cls-3{fill:url(#Безымянный_градиент_19);}.cls-4{fill:url(#Безымянный_градиент_19-2);}.cls-5{fill:url(#Безымянный_градиент_170);}.cls-6{fill:url(#Безымянный_градиент_20);}.cls-7{fill:#31c8c5;}.cls-8{fill:#984c24;}.cls-9{stroke:#f9f912;}.cls-10{stroke:#31c8c5;}.cls-11{fill:url(#Безымянный_градиент_20-2);}.cls-12{fill:url(#Безымянный_градиент_18-3);}.cls-13{fill:url(#Безымянный_градиент_18-4);}.cls-14{fill:url(#Безымянный_градиент_25);}.cls-15{fill:url(#Безымянный_градиент_25-2);}.cls-16{fill:url(#Безымянный_градиент_25-3);}.cls-17{fill:url(#Безымянный_градиент_25-4);}.cls-18{fill:url(#Безымянный_градиент_25-5);}</style><linearGradient id="Безымянный_градиент_18" x1="39.45" y1="68.7" x2="67.48" y2="68.7" gradientUnits="userSpaceOnUse"><stop offset="0" stop-color="#984c24"/><stop offset="0.18" stop-color="#944a23"/><stop offset="0.34" stop-color="#894521"/><stop offset="0.49" stop-color="#773b1c"/><stop offset="0.64" stop-color="#5d2e16"/><stop offset="0.79" stop-color="#3b1e0e"/><stop offset="0.94" stop-color="#120904"/><stop offset="0.99"/></linearGradient><linearGradient id="Безымянный_градиент_18-2" x1="50.28" y1="155.81" x2="59.54" y2="155.81" gradientTransform="translate(35.14 -85.61) rotate(19.84)" xlink:href="#Безымянный_градиент_18"/><linearGradient id="Безымянный_градиент_19" x1="2.57" y1="89.08" x2="-2.81" y2="61.8" gradientTransform="matrix(0.81, 0.03, -0.05, 0.95, 63.53, -54.46)" gradientUnits="userSpaceOnUse"><stop offset="0" stop-color="#984c24"/><stop offset="0.37" stop-color="#964b24"/><stop offset="0.52" stop-color="#8f4722"/><stop offset="0.63" stop-color="#83411f"/><stop offset="0.73" stop-color="#71381b"/><stop offset="0.81" stop-color="#5a2d15"/><stop offset="0.88" stop-color="#3e1f0f"/><stop offset="0.95" stop-color="#1d0f07"/><stop offset="0.99"/></linearGradient><linearGradient id="Безымянный_градиент_19-2" x1="72.7" y1="55.34" x2="66.81" y2="25.49" gradientTransform="matrix(0.99, -0.02, 0, 1.14, -0.32, -31.26)" xlink:href="#Безымянный_градиент_19"/><linearGradient id="Безымянный_градиент_170" x1="11.27" y1="29.04" x2="125.99" y2="69.49" gradientUnits="userSpaceOnUse"><stop offset="0"/><stop offset="0.03" stop-color="#060606"/><stop offset="0.08" stop-color="#171717"/><stop offset="0.13" stop-color="#333"/><stop offset="0.19" stop-color="#595959"/><stop offset="0.24" stop-color="gray"/><stop offset="0.42" stop-color="#323232"/><stop offset="0.54"/><stop offset="0.73" stop-color="#5b5b5b"/><stop offset="0.8" stop-color="gray"/><stop offset="0.87" stop-color="#585858"/><stop offset="0.99"/></linearGradient><linearGradient id="Безымянный_градиент_20" x1="100.92" y1="86.58" x2="100.92" y2="63.05" gradientUnits="userSpaceOnUse"><stop offset="0" stop-color="#984c24"/><stop offset="0.31" stop-color="#964b23"/><stop offset="0.46" stop-color="#8e4722"/><stop offset="0.59" stop-color="#81401e"/><stop offset="0.69" stop-color="#6e371a"/><stop offset="0.79" stop-color="#552a14"/><stop offset="0.88" stop-color="#371b0d"/><stop offset="0.96" stop-color="#130a05"/><stop offset="0.99"/></linearGradient><linearGradient id="Безымянный_градиент_20-2" x1="121.11" y1="139.96" x2="121.11" y2="101.56" gradientTransform="translate(13.15 -59.05) rotate(8.64)" xlink:href="#Безымянный_градиент_20"/><linearGradient id="Безымянный_градиент_18-3" x1="30.62" y1="68.19" x2="57.86" y2="68.19" gradientTransform="translate(7.6 -4.37) rotate(6.18)" xlink:href="#Безымянный_градиент_18"/><linearGradient id="Безымянный_градиент_18-4" x1="70.6" y1="-8.98" x2="79.86" y2="-8.98" gradientTransform="translate(-23.75 126) rotate(-31.87)" xlink:href="#Безымянный_градиент_18"/><linearGradient id="Безымянный_градиент_25" x1="22.53" y1="-12.14" x2="51.58" y2="-12.14" gradientTransform="matrix(0.95, -0.31, 0.31, 0.95, -6.68, 72.68)" gradientUnits="userSpaceOnUse"><stop offset="0" stop-color="#984c24"/><stop offset="0.15" stop-color="#944a23"/><stop offset="0.31" stop-color="#874320"/><stop offset="0.48" stop-color="#71391b"/><stop offset="0.65" stop-color="#532914"/><stop offset="0.83" stop-color="#2d160b"/><stop offset="0.99"/></linearGradient><linearGradient id="Безымянный_градиент_25-2" x1="16.68" y1="84.68" x2="16.68" y2="75.57" gradientTransform="translate(11.54 -51.1) rotate(13.41)" xlink:href="#Безымянный_градиент_25"/><linearGradient id="Безымянный_градиент_25-3" x1="31.25" y1="83.39" x2="31.25" y2="70.25" gradientTransform="translate(11.54 -51.1) rotate(13.41)" xlink:href="#Безымянный_градиент_25"/><linearGradient id="Безымянный_градиент_25-4" x1="23.87" y1="84.1" x2="23.87" y2="71.92" gradientTransform="translate(11.54 -51.1) rotate(13.41)" xlink:href="#Безымянный_градиент_25"/><linearGradient id="Безымянный_градиент_25-5" x1="37.74" y1="80.61" x2="37.74" y2="70.36" gradientTransform="translate(11.54 -51.1) rotate(13.41)" xlink:href="#Безымянный_градиент_25"/></defs><title>3</title><g id="Слой_14" data-name="Слой 14"><path class="cls-1" d="M65.7,67.9S43.6,63.29,39.45,65a16.27,16.27,0,0,1,2,5.07c9.44-2.19,25.88,4.55,26.05,2.17A6.33,6.33,0,0,0,65.7,67.9Z"/><path class="cls-2" d="M40.54,65.38c-2.34,1.75-8.83,11.2-15,24.28-1.42,3-1.72,3.88-.72,5,1.94,2.17,3.57-7.54,5.61-5.42C31.58,90.44,41.61,68.8,41.67,69c1.35-1.23,2.89-3.15,1.54-4.51A18.19,18.19,0,0,0,40.54,65.38Z"/><path class="cls-3" d="M30.8,11.55S22.68,8.5,42.93,8.77C62.75,9,85.58,17,87.55,19.71c4,5.49.8,6.17-2.92,4.52-5.47-2.42-9.72-6.67-7.81-4.54s-.32,3.75-7.11-.94c-5.33-3.68-8.49-5.1-7-2.59,1.67,2.94-5.55-.28-9.25-3.47-2.86-2.46-8.51,3.89-13.67-.66C35.75,8.51,32.87,14.33,30.8,11.55Z"/><path class="cls-4" d="M33.23,7.15S23.17,4.06,47.75,3c24.07-1.07,53.07,9.74,55.66,12.81,5.28,6.3,1.42,7.33-3.21,5.62C93.39,18.88,85.55,9.57,86.86,13s2.41,5.37-6.17.24C74,9.2,71,7,72.88,9.86c2.25,3.4-6.39.44-11.12-3.11-3.65-2.75-11,5.42-17.64.34C39,3.15,36,10.32,33.23,7.15Z"/><path class="cls-5" d="M120.57,83c4-21.08,5.38-29-13.88-36.47-11.31-4.4-20.18,1.66-21.24-3.21-.74-3.41-4.88-8-13.24-4.51-7.62,3.2-10.83,3.2-11.27-.76-1.29-11.37-8.52-4-14.1-7.77-5.3-3.62-.8-3.62-5.17-10.38-6-10.07,4.94-7,7.19-8.31C54.29,8.33,47.43.1,43.2,2.41c-7.51,4.09-6.46,1.16-8.53-.29-5-3.51-13,2.89-10.54,5.44,6.07,6.41-13-3.18-7.54,9.34,1.85,4.22,8.27.66,10.12-.83s3.61-1.37,3.94,1.34c.27,2.31-3.6,4.77,3.28,13.87.23.3,3.32,12.58,5.86,17.3,1.69,3.15,4.37,4.32,7,8.68C50,62.41,49.9,70.63,52.1,76.68,55.92,87.2,66.74,76.27,66.76,80c0,8.79,7.54,9.34,13.15,7.06,4.18-1.7,3.53,6.42,7.44,7.91,7.85,3,29.09.93,38-2.19,6-2.1,2.54-2.62-.84-4.41C122.45,87.29,120.07,85.69,120.57,83Z"/><path class="cls-6" d="M112.1,65.24s-1.76-.91-1.29-2.1C108.6,61.63,98.17,81.05,97,80.06c-.84-.71-1.61-4.15-2.23-8.51-.54-3.81-5,1.79-5,1.79a11.59,11.59,0,0,0,1.08,4.84c.66,1.13,1.62-1.76,1.69-1.12,0,.25,3.66,10.4,5.8,9.46C104.75,83.68,112,65.3,112.1,65.24Z"/><path class="cls-7" d="M61.15,42.72c-1.39,2.85-1.82,9.5-1.26,18.53.48,7.64,4.92,15.23,6.2,18,1.63,3.5,0-11.21-.18-11.7C63.07,58,60.52,50.1,63.4,45.41,68,38,62,40.92,61.15,42.72Z"/><path class="cls-7" d="M44.79,29.42c-2.64,1.6-3,12.78-2,17.86a25.88,25.88,0,0,0,4,10c1.77,2.6.06-10.88-.51-14.33-.89-5.36-1.18-5.82,1-9.19C49.61,30.08,45.84,28.79,44.79,29.42Z"/><path class="cls-7" d="M83.53,43.74c-3.24,2.5-6.07,10.4-5.92,18.76.16,8.94,3,20.93,4.8,24.13,2.35,4.08.48-15.09.28-15.66-4.09-11.14-2.53-14.71,1.59-19.73C89.06,45.41,87.4,40.77,83.53,43.74Z"/><path class="cls-7" d="M31.58,28.07S29.67,21,34,18.36s6.54-3.7,6.62-6.41S40.11,1.71,38.2,4c-.64.79,1.71,6.84-1.92,9.72s-5.2,2.8-6.26,5.13C28.68,21.79,31.58,28.07,31.58,28.07Z"/><path class="cls-8" d="M47.91,11.69c1.17-.39,1.66-3.12.68-5.48-1.05-2.53-2.65-5.11-5.16-4.37a4.75,4.75,0,0,0-1.24,7.51C44.27,11.81,45.58,12.47,47.91,11.69Z"/><path class="cls-9" d="M46.58,5.62c.77,1.53,1.49,3.78-.18,4.16-.75.17-1.89-.69-2.66-2.21s-.81-3-.11-3.31A2.41,2.41,0,0,1,46.58,5.62Z"/><path class="cls-8" d="M34.36,12.94c-2.74,1.14-6.57-.74-7.62-3.8s-1.19-5.9.72-6.56,4.3-2.66,7.28,2.6C36.34,8,37.67,11.55,34.36,12.94Z"/><path class="cls-9" d="M32.59,7C31.47,5.32,31,3.86,30.05,4c-1.65.28-1.35,2.23-.86,4.16S30.9,10.9,31.85,11C33.8,11.25,34.17,9.28,32.59,7Z"/><path class="cls-8" d="M18.16,10.16c1.51,0,5.16,1.57,5.31,3.68.17,2.34.92,4.69-2.23,5.05-1.5.17-4.28-.59-5.1-4.49C15.71,12.36,16.66,10.14,18.16,10.16Z"/><path class="cls-9" d="M21.25,13.32c1,1.06.94,3.07.46,3.56-1.17,1.18-2.51-.37-3.22-1.57s-.69-2.57-.12-3S20.3,12.27,21.25,13.32Z"/><path class="cls-10" d="M40.81,42.63c.27-7.48-1.32-14.21-4.36-15.63-3.83-1.8-3,7.66-1.35,14.93a10.14,10.14,0,0,1,0,3c1.76-.29,3.5-.26,5.46-.48C40.53,44.09,40.8,43,40.81,42.63Z"/><path class="cls-11" d="M116.68,90.5c-8.15.09-4.06-29.46-4.15-29.53-1.59-1.16-4.26-5.84-5.22.64-1.19,5.57-.63,32.2,7.64,36.24,1.55.76,6.88.19,6.88.19S122.15,90.43,116.68,90.5Z"/><path class="cls-12" d="M56.18,67.92S35.3,62.73,31,64c.69,1.09.34,1.51.47,2.82,9.62-1.16,25.57,8,26,5.62A6.31,6.31,0,0,0,56.18,67.92Z"/><path class="cls-13" d="M28.35,64.64c-.08,2.93,3.31,13.88,9.76,26.83,1.47,3,2,3.75,3.48,3.66,2.9-.18-3.71-7.47-.78-7.76,1.65-.16-9.12-21.44-9-21.39-.13-1.82-.68-4.22-2.59-4A18.69,18.69,0,0,0,28.35,64.64Z"/><path class="cls-14" d="M19,52.51c-1.59.73-12.18,2.17-5,5,6.09,2.44,10.69.65,13.65-.68,19.6-8.8,6.71-18.39,6.71-18.39S31.88,46.6,19,52.51Z"/><path class="cls-10" d="M32.45,40.67C35.53,48,17.08,57,14.06,57c-3.55,0,6.76,5.34,11.57,3.07A32.42,32.42,0,0,0,37.4,50.51c5.42-7.66,3.38-9,.87-12.63C36.77,39.1,31.24,35.72,32.45,40.67Z"/><path class="cls-15" d="M6,27.49c-3.84,8-1,8.33,3.8,4.78s4.75-4.66,4.75-4.66S7.41,24.47,6,27.49Z"/><path class="cls-16" d="M30.43,26.26c-7.45,3.92-8,16.66-10.65,7.5s4.37-9.32,4.37-9.32S32,25.42,30.43,26.26Z"/><path class="cls-17" d="M21.89,26.16C18.1,31.1,12.81,41.58,12.48,32c-.23-6.57,3.5-7.5,3.5-7.5S23,24.67,21.89,26.16Z"/><path class="cls-18" d="M29.94,35.66c3.45-5.68,11-8.06,1.47-9.61-5.67-.92-5.07,5.68-5.07,5.68S28.84,37.48,29.94,35.66Z"/><path class="cls-10" d="M37.53,25.89c-2.68-.14,1.2-4.63-9.12-5.29a35.52,35.52,0,0,0-23.7,6.49c-2.53,1.78,7.53,4,12.05,2.86,7.82-2,17.16,2.67,19.5,1.42C37.42,30.75,38.79,26,37.53,25.89Z"/></g></svg>