<svg xmlns="http://www.w3.org/2000/svg" xmlns:xlink="http://www.w3.org/1999/xlink" viewBox="0 0 130 100"><defs><style>.cls-1,.cls-11,.cls-12,.cls-13,.cls-14,.cls-15,.cls-16,.cls-17,.cls-18,.cls-2,.cls-3,.cls-4,.cls-5,.cls-6,.cls-7,.cls-8{stroke:#000;}.cls-1,.cls-10,.cls-11,.cls-12,.cls-13,.cls-14,.cls-15,.cls-16,.cls-17,.cls-18,.cls-2,.cls-3,.cls-4,.cls-5,.cls-6,.cls-7,.cls-8,.cls-9{stroke-miterlimit:10;}.cls-1{fill:url(#Безымянный_градиент_18);}.cls-2{fill:url(#Безымянный_градиент_18-2);}.cls-3{fill:url(#Безымянный_градиент_19);}.cls-4{fill:url(#Безымянный_градиент_19-2);}.cls-5{fill:url(#Безымянный_градиент_170);}.cls-6{fill:url(#Безымянный_градиент_20);}.cls-7{fill:#31c8c5;}.cls-8{fill:#984c24;}.cls-9{stroke:#f9f912;}.cls-10{stroke:#31c8c5;}.cls-11{fill:url(#Безымянный_градиент_18-3);}.cls-12{fill:url(#Безымянный_градиент_20-2);}.cls-13{fill:url(#Безымянный_градиент_18-4);}.cls-14{fill:url(#Безымянный_градиент_25);}.cls-15{fill:url(#Безымянный_градиент_25-2);}.cls-16{fill:url(#Безымянный_градиент_25-3);}.cls-17{fill:url(#Безымянный_градиент_25-4);}.cls-18{fill:url(#Безымянный_градиент_25-5);}</style><linearGradient id="Безымянный_градиент_18" x1="37.93" y1="68.65" x2="65.96" y2="68.65" gradientUnits="userSpaceOnUse"><stop offset="0" stop-color="#984c24"/><stop offset="0.18" stop-color="#944a23"/><stop offset="0.34" stop-color="#894521"/><stop offset="0.49" stop-color="#773b1c"/><stop offset="0.64" stop-color="#5d2e16"/><stop offset="0.79" stop-color="#3b1e0e"/><stop offset="0.94" stop-color="#120904"/><stop offset="0.99"/></linearGradient><linearGradient id="Безымянный_градиент_18-2" x1="26.7" y1="84.91" x2="35.96" y2="84.91" gradientTransform="translate(49.33 -7.75) rotate(32.34)" xlink:href="#Безымянный_градиент_18"/><linearGradient id="Безымянный_градиент_19" x1="31.77" y1="90.56" x2="26.39" y2="63.28" gradientTransform="matrix(0.81, -0.03, 0.01, 0.95, 33.35, -58.26)" gradientUnits="userSpaceOnUse"><stop offset="0" stop-color="#984c24"/><stop offset="0.37" stop-color="#964b24"/><stop offset="0.52" stop-color="#8f4722"/><stop offset="0.63" stop-color="#83411f"/><stop offset="0.73" stop-color="#71381b"/><stop offset="0.81" stop-color="#5a2d15"/><stop offset="0.88" stop-color="#3e1f0f"/><stop offset="0.95" stop-color="#1d0f07"/><stop offset="0.99"/></linearGradient><linearGradient id="Безымянный_градиент_19-2" x1="72.24" y1="66.55" x2="66.35" y2="36.7" gradientTransform="matrix(0.98, -0.12, 0.11, 1.13, -6.45, -40.21)" xlink:href="#Безымянный_градиент_19"/><linearGradient id="Безымянный_градиент_170" x1="9.59" y1="29.44" x2="124.31" y2="69.89" gradientUnits="userSpaceOnUse"><stop offset="0"/><stop offset="0.03" stop-color="#060606"/><stop offset="0.08" stop-color="#171717"/><stop offset="0.13" stop-color="#333"/><stop offset="0.19" stop-color="#595959"/><stop offset="0.24" stop-color="gray"/><stop offset="0.42" stop-color="#323232"/><stop offset="0.54"/><stop offset="0.73" stop-color="#5b5b5b"/><stop offset="0.8" stop-color="gray"/><stop offset="0.87" stop-color="#585858"/><stop offset="0.99"/></linearGradient><linearGradient id="Безымянный_градиент_20" x1="99.4" y1="86.52" x2="99.4" y2="62.99" gradientUnits="userSpaceOnUse"><stop offset="0" stop-color="#984c24"/><stop offset="0.31" stop-color="#964b23"/><stop offset="0.46" stop-color="#8e4722"/><stop offset="0.59" stop-color="#81401e"/><stop offset="0.69" stop-color="#6e371a"/><stop offset="0.79" stop-color="#552a14"/><stop offset="0.88" stop-color="#371b0d"/><stop offset="0.96" stop-color="#130a05"/><stop offset="0.99"/></linearGradient><linearGradient id="Безымянный_градиент_18-3" x1="30.22" y1="68.19" x2="57.46" y2="68.19" xlink:href="#Безымянный_градиент_18"/><linearGradient id="Безымянный_градиент_20-2" x1="112.21" y1="99.21" x2="112.21" y2="60.82" gradientTransform="translate(29.77 -31.96) rotate(17.76)" xlink:href="#Безымянный_градиент_20"/><linearGradient id="Безымянный_градиент_18-4" x1="31.36" y1="88.01" x2="40.63" y2="88.01" gradientTransform="translate(-50.6 44.17) rotate(-46.08)" xlink:href="#Безымянный_градиент_18"/><linearGradient id="Безымянный_градиент_25" x1="6.03" y1="51.82" x2="35.08" y2="51.82" gradientTransform="translate(-17.82 16) rotate(-27.29)" gradientUnits="userSpaceOnUse"><stop offset="0" stop-color="#984c24"/><stop offset="0.15" stop-color="#944a23"/><stop offset="0.31" stop-color="#874320"/><stop offset="0.48" stop-color="#71391b"/><stop offset="0.65" stop-color="#532914"/><stop offset="0.83" stop-color="#2d160b"/><stop offset="0.99"/></linearGradient><linearGradient id="Безымянный_градиент_25-2" x1="6.85" y1="38.1" x2="6.85" y2="29" gradientTransform="translate(12.78 -4.63) rotate(20.37)" xlink:href="#Безымянный_градиент_25"/><linearGradient id="Безымянный_градиент_25-3" x1="21.42" y1="36.82" x2="21.42" y2="23.67" gradientTransform="translate(12.78 -4.63) rotate(20.37)" xlink:href="#Безымянный_градиент_25"/><linearGradient id="Безымянный_градиент_25-4" x1="14.04" y1="37.52" x2="14.04" y2="25.34" gradientTransform="translate(12.78 -4.63) rotate(20.37)" xlink:href="#Безымянный_градиент_25"/><linearGradient id="Безымянный_градиент_25-5" x1="27.91" y1="34.03" x2="27.91" y2="23.78" gradientTransform="translate(12.78 -4.63) rotate(20.37)" xlink:href="#Безымянный_градиент_25"/></defs><title>3</title><g id="Слой_15" data-name="Слой 15"><path class="cls-1" d="M64.19,67.85S42.08,63.24,37.93,65a16,16,0,0,1,2,5.08c9.44-2.2,25.88,4.54,26.05,2.16A6.31,6.31,0,0,0,64.19,67.85Z"/><path class="cls-2" d="M39.94,68.3c-2.68,1.2-11.06,9-19.91,20.46-2,2.63-2.51,3.42-1.78,4.73,1.42,2.54,5.11-6.59,6.65-4.07.86,1.41,15.33-17.55,15.36-17.37,1.58-.92,3.5-2.45,2.48-4.07A18.71,18.71,0,0,0,39.94,68.3Z"/><path class="cls-3" d="M29,10.5S20.7,8,40.92,6.88C60.7,5.76,84,12.13,86.19,14.67c4.4,5.2,1.23,6.11-2.59,4.72-5.63-2-10.17-6-8.11-4s-.06,3.76-7.16-.44c-5.58-3.31-8.82-4.5-7.22-2.1,1.88,2.82-5.55.11-9.47-2.81-3-2.26-8.22,4.47-13.67.29C33.74,7.11,31.27,13.12,29,10.5Z"/><path class="cls-4" d="M31.48,7.54S21.17,5.45,45.53,2c23.85-3.4,53.76,4.56,56.63,7.37,5.87,5.75,2.13,7.16-2.65,5.9-7-1.84-15.72-10.35-14.08-7.07s2.91,5.12-6.12.84C72.21,5.66,69,3.7,71.21,6.41c2.57,3.17-6.32,1.06-11.37-2-3.9-2.38-10.48,6.46-17.52,2C36.86,3,34.5,10.44,31.48,7.54Z"/><path class="cls-5" d="M119.05,83c11-24.74.68-31.7-13.88-36.47C93.64,42.74,84,48.29,83.93,43.3c-.12-6.37-4.25-8.87-13.24-4.51C63.26,42.39,59.16,42,59.42,38c.62-9.51-8.52-4-14.1-7.78-5.3-3.62-.79-3.62-5.16-10.38-6-10.06,4.94-6.95,7.18-8.31C52.78,8.28,45.92.05,41.68,2.35c-7.51,4.1-6.46,1.16-8.53-.29-5-3.51-13,2.89-10.54,5.44,6.07,6.41-13-3.18-7.54,9.34,1.85,4.22,8.27.66,10.13-.83s3.6-1.37,3.93,1.34c.28,2.31-3.59,4.77,3.29,13.87.22.3,3.31,12.58,5.85,17.3,1.7,3.15,4.37,4.32,7,8.69,3.14,5.14,3.4,13.26,5.28,19.42C55.12,91.44,66,76.29,65.24,80,63.05,90.72,72.78,89.29,78.4,87c4.18-1.7-2.55,5.64,4.42,7.87,11.76,3.76,32.1,1,41-2.15,6-2.1,2.54-2.62-.84-4.4C120.93,87.23,118,85.44,119.05,83Z"/><path class="cls-6" d="M110.58,65.18s-1.76-.91-1.29-2.1C107.08,61.57,96.65,81,95.47,80c-.85-.71-1.62-4.14-2.24-8.51-.54-3.81-5,1.79-5,1.79a11.59,11.59,0,0,0,1.08,4.84C90,79.26,90.92,76.36,91,77c0,.25,3.66,10.41,5.8,9.46C103.23,83.62,110.52,65.24,110.58,65.18Z"/><path class="cls-7" d="M59.64,42.67c-1.39,2.84-1.83,9.5-1.27,18.52.48,7.64,4.93,15.23,6.21,18,1.63,3.5,0-11.22-.19-11.71C61.56,57.91,59,50,61.89,45.35,66.47,37.92,60.51,40.87,59.64,42.67Z"/><path class="cls-7" d="M43.27,29.37c-2.64,1.6-3,12.78-2,17.85a26,26,0,0,0,4,10c1.77,2.59.06-10.89-.51-14.34-.89-5.35-1.18-5.82,1-9.19C48.09,30,44.32,28.73,43.27,29.37Z"/><path class="cls-7" d="M82,43.68c-3.25,2.5-6.08,10.4-5.93,18.76.17,8.94,3,20.93,4.8,24.13,2.35,4.08.49-15.09.28-15.66-4.09-11.14-2.53-14.7,1.59-19.73C87.54,45.35,85.88,40.71,82,43.68Z"/><path class="cls-7" d="M30.06,28s-1.91-7.12,2.4-9.7S39,14.6,39.08,11.9,38.59,1.65,36.69,4c-.65.79,1.7,6.84-1.93,9.72s-5.19,2.81-6.26,5.14C27.16,21.73,30.06,28,30.06,28Z"/><path class="cls-8" d="M46.39,11.63c1.17-.39,1.66-3.12.68-5.48C46,3.63,44.42,1,41.91,1.78A4.76,4.76,0,0,0,40.67,9.3C42.76,11.75,44.06,12.41,46.39,11.63Z"/><path class="cls-9" d="M45.07,5.56c.76,1.53,1.48,3.78-.19,4.16C44.13,9.89,43,9,42.23,7.51s-.82-3-.11-3.3A2.4,2.4,0,0,1,45.07,5.56Z"/><path class="cls-8" d="M32.84,12.88c-2.74,1.14-6.57-.74-7.62-3.8s-1.18-5.9.72-6.55,4.3-2.66,7.29,2.59C34.82,7.92,36.15,11.5,32.84,12.88Z"/><path class="cls-9" d="M31.07,6.91C30,5.26,29.43,3.8,28.53,4c-1.65.28-1.35,2.23-.86,4.16s1.71,2.74,2.66,2.85C32.28,11.19,32.65,9.22,31.07,6.91Z"/><path class="cls-8" d="M16.64,10.1c1.51,0,5.16,1.57,5.31,3.68.17,2.34.92,4.69-2.23,5-1.5.17-4.28-.59-5.1-4.48C14.19,12.31,15.14,10.09,16.64,10.1Z"/><path class="cls-9" d="M19.73,13.26c1,1.06.94,3.07.46,3.56C19,18,17.68,16.45,17,15.25s-.7-2.57-.13-2.95S18.78,12.21,19.73,13.26Z"/><path class="cls-10" d="M39.3,42.57c.27-7.47-1.32-14.2-4.37-15.63C31.1,25.14,32,34.6,33.58,41.87a10.14,10.14,0,0,1,0,3c1.76-.29,3.5-.26,5.47-.48C39,44,39.28,42.93,39.3,42.57Z"/><path class="cls-11" d="M55.69,66.63s-21.32-2.91-25.47-1.18c.81,1,.51,1.47.77,2.75C40.43,66,57.28,73.37,57.45,71A6.34,6.34,0,0,0,55.69,66.63Z"/><path class="cls-12" d="M112.24,90.59c-8.06-1.2.66-29.73.58-29.81-1.38-1.39-3.27-6.43-5.26-.2-2,5.32-5.72,31.7,1.8,37,1.42,1,6.77,1.27,6.77,1.27S117.65,91.4,112.24,90.59Z"/><path class="cls-13" d="M27.49,67.44c.64,2.86,6.62,12.64,16,23.61,2.17,2.52,2.85,3.15,4.27,2.69,2.78-.88-5.42-6.32-2.65-7.32C46.71,85.85,31,67.87,31.22,67.88c-.58-1.74-1.69-3.92-3.49-3.25A20,20,0,0,0,27.49,67.44Z"/><path class="cls-14" d="M18.9,56.31c-1.44,1-11.66,4.13-4.13,5.79,6.4,1.41,10.64-1.11,13.35-2.91C46,47.31,31.74,40,31.74,40S30.63,48.38,18.9,56.31Z"/><path class="cls-10" d="M30.22,42.43C34.45,49.14,17.71,61,14.74,61.5c-3.51.58,7.54,4.17,11.92,1.13A32.3,32.3,0,0,0,36.71,51.34c4.09-8.45,1.87-9.45-1.21-12.61C34.22,40.18,28.22,37.75,30.22,42.43Z"/><path class="cls-15" d="M4.72,25.62c-4.78,7.49-2,8.15,3.2,5.2s5.28-4.05,5.28-4.05S6.53,22.79,4.72,25.62Z"/><path class="cls-16" d="M29.17,27.36c-7.88,3-9.92,15.58-11.49,6.16s5.47-8.72,5.47-8.72S30.85,26.72,29.17,27.36Z"/><path class="cls-17" d="M20.7,26.23c-4.36,4.44-10.88,14.2-10,4.64.57-6.55,4.38-7,4.38-7S22,24.89,20.7,26.23Z"/><path class="cls-18" d="M27.54,36.63c4.11-5.21,11.89-6.66,2.63-9.35-5.53-1.61-5.73,5-5.73,5S26.22,38.31,27.54,36.63Z"/><path class="cls-10" d="M36.26,27.85c-2.65-.46,1.75-4.45-8.42-6.35A35.48,35.48,0,0,0,3.53,25.07c-2.73,1.46,7,4.9,11.62,4.3,8-1,16.71,4.73,19.18,3.77C35.56,32.67,37.5,28.07,36.26,27.85Z"/></g></svg>