<svg xmlns="http://www.w3.org/2000/svg" xmlns:xlink="http://www.w3.org/1999/xlink" viewBox="0 0 130 100"><defs><style>.cls-1,.cls-11,.cls-12,.cls-13,.cls-14,.cls-15,.cls-16,.cls-17,.cls-18,.cls-2,.cls-3,.cls-4,.cls-5,.cls-6,.cls-7,.cls-8{stroke:#000;}.cls-1,.cls-10,.cls-11,.cls-12,.cls-13,.cls-14,.cls-15,.cls-16,.cls-17,.cls-18,.cls-2,.cls-3,.cls-4,.cls-5,.cls-6,.cls-7,.cls-8,.cls-9{stroke-miterlimit:10;}.cls-1{fill:url(#Безымянный_градиент_18);}.cls-2{fill:url(#Безымянный_градиент_18-2);}.cls-3{fill:url(#Безымянный_градиент_19);}.cls-4{fill:url(#Безымянный_градиент_19-2);}.cls-5{fill:url(#Безымянный_градиент_170);}.cls-6{fill:url(#Безымянный_градиент_20);}.cls-7{fill:#31c8c5;}.cls-8{fill:#984c24;}.cls-9{stroke:#f9f912;}.cls-10{stroke:#31c8c5;}.cls-11{fill:url(#Безымянный_градиент_20-2);}.cls-12{fill:url(#Безымянный_градиент_18-3);}.cls-13{fill:url(#Безымянный_градиент_18-4);}.cls-14{fill:url(#Безымянный_градиент_25);}.cls-15{fill:url(#Безымянный_градиент_25-2);}.cls-16{fill:url(#Безымянный_градиент_25-3);}.cls-17{fill:url(#Безымянный_градиент_25-4);}.cls-18{fill:url(#Безымянный_градиент_25-5);}</style><linearGradient id="Безымянный_градиент_18" x1="38.6" y1="68.57" x2="66.63" y2="68.57" gradientTransform="translate(15.85 -9.89) rotate(12.81)" gradientUnits="userSpaceOnUse"><stop offset="0" stop-color="#984c24"/><stop offset="0.18" stop-color="#944a23"/><stop offset="0.34" stop-color="#894521"/><stop offset="0.49" stop-color="#773b1c"/><stop offset="0.64" stop-color="#5d2e16"/><stop offset="0.79" stop-color="#3b1e0e"/><stop offset="0.94" stop-color="#120904"/><stop offset="0.99"/></linearGradient><linearGradient id="Безымянный_градиент_18-2" x1="33.67" y1="78.26" x2="42.94" y2="78.26" gradientTransform="translate(-9.66 5.02) rotate(-7.04)" xlink:href="#Безымянный_градиент_18"/><linearGradient id="Безымянный_градиент_19" x1="-7.24" y1="183.41" x2="-12.62" y2="156.13" gradientTransform="matrix(0.81, 0.08, -0.11, 0.94, 86.77, -140.08)" gradientUnits="userSpaceOnUse"><stop offset="0" stop-color="#984c24"/><stop offset="0.37" stop-color="#964b24"/><stop offset="0.52" stop-color="#8f4722"/><stop offset="0.63" stop-color="#83411f"/><stop offset="0.73" stop-color="#71381b"/><stop offset="0.81" stop-color="#5a2d15"/><stop offset="0.88" stop-color="#3e1f0f"/><stop offset="0.95" stop-color="#1d0f07"/><stop offset="0.99"/></linearGradient><linearGradient id="Безымянный_градиент_19-2" x1="80.51" y1="123.08" x2="74.63" y2="93.23" gradientTransform="matrix(0.98, 0.08, -0.12, 1.13, 5.86, -112.96)" xlink:href="#Безымянный_градиент_19"/><linearGradient id="Безымянный_градиент_170" x1="10.96" y1="28.22" x2="124.91" y2="68.39" gradientUnits="userSpaceOnUse"><stop offset="0"/><stop offset="0.03" stop-color="#060606"/><stop offset="0.08" stop-color="#171717"/><stop offset="0.13" stop-color="#333"/><stop offset="0.19" stop-color="#595959"/><stop offset="0.24" stop-color="gray"/><stop offset="0.42" stop-color="#323232"/><stop offset="0.54"/><stop offset="0.73" stop-color="#5b5b5b"/><stop offset="0.8" stop-color="gray"/><stop offset="0.87" stop-color="#585858"/><stop offset="0.99"/></linearGradient><linearGradient id="Безымянный_градиент_20" x1="99.4" y1="86.52" x2="99.4" y2="62.99" gradientUnits="userSpaceOnUse"><stop offset="0" stop-color="#984c24"/><stop offset="0.31" stop-color="#964b23"/><stop offset="0.46" stop-color="#8e4722"/><stop offset="0.59" stop-color="#81401e"/><stop offset="0.69" stop-color="#6e371a"/><stop offset="0.79" stop-color="#552a14"/><stop offset="0.88" stop-color="#371b0d"/><stop offset="0.96" stop-color="#130a05"/><stop offset="0.99"/></linearGradient><linearGradient id="Безымянный_градиент_20-2" x1="115.5" y1="98.79" x2="115.5" y2="60.4" gradientTransform="translate(6.24 -8.68) rotate(4.28)" xlink:href="#Безымянный_градиент_20"/><linearGradient id="Безымянный_градиент_18-3" x1="29.28" y1="68.19" x2="56.52" y2="68.19" gradientTransform="translate(18.1 -8.46) rotate(14.25)" xlink:href="#Безымянный_градиент_18"/><linearGradient id="Безымянный_градиент_18-4" x1="23.35" y1="78.71" x2="32.61" y2="78.71" gradientTransform="translate(-9.33 3.66) rotate(-6.7)" xlink:href="#Безымянный_градиент_18"/><linearGradient id="Безымянный_градиент_25" x1="6.08" y1="51.03" x2="35.13" y2="51.03" gradientTransform="matrix(0.98, -0.19, 0.19, 0.98, -7.76, 5.24)" gradientUnits="userSpaceOnUse"><stop offset="0" stop-color="#984c24"/><stop offset="0.15" stop-color="#944a23"/><stop offset="0.31" stop-color="#874320"/><stop offset="0.48" stop-color="#71391b"/><stop offset="0.65" stop-color="#532914"/><stop offset="0.83" stop-color="#2d160b"/><stop offset="0.99"/></linearGradient><linearGradient id="Безымянный_градиент_25-2" x1="8.35" y1="42.87" x2="8.35" y2="33.77" gradientTransform="translate(2.66 -1.4) rotate(4.48)" xlink:href="#Безымянный_градиент_25"/><linearGradient id="Безымянный_градиент_25-3" x1="22.92" y1="41.59" x2="22.92" y2="28.44" gradientTransform="translate(2.66 -1.4) rotate(4.48)" xlink:href="#Безымянный_градиент_25"/><linearGradient id="Безымянный_градиент_25-4" x1="15.54" y1="42.29" x2="15.54" y2="30.11" gradientTransform="translate(2.66 -1.4) rotate(4.48)" xlink:href="#Безымянный_градиент_25"/><linearGradient id="Безымянный_градиент_25-5" x1="29.41" y1="38.8" x2="29.41" y2="28.55" gradientTransform="translate(2.66 -1.4) rotate(4.48)" xlink:href="#Безымянный_градиент_25"/></defs><title>3</title><g id="Слой_13" data-name="Слой 13"><path class="cls-1" d="M64.06,70.58s-20.53-9.4-25-8.64a16.49,16.49,0,0,1,.8,5.39c9.69,0,24.22,10.17,24.91,7.89A6.3,6.3,0,0,0,64.06,70.58Z"/><path class="cls-2" d="M37.44,62.31c-1.3,2.63-2.82,14-2.41,28.45.1,3.32.23,4.23,1.62,4.78,2.72,1.06-.22-8.33,2.56-7.36,1.56.54.72-23.3.85-23.18.65-1.71,1.16-4.11-.66-4.71A19.47,19.47,0,0,0,37.44,62.31Z"/><path class="cls-3" d="M31.3,12.09s-7.9-3.55,12.29-2c19.76,1.51,42,10.91,43.84,13.71,3.68,5.74.42,6.21-3.19,4.33-5.31-2.76-9.28-7.26-7.51-5s-.56,3.73-7-1.38c-5.09-4-8.15-5.62-6.88-3,1.49,3-5.52-.63-9-4.05C51.1,12,45.06,18,40.2,13.13,36.44,9.36,33.2,15,31.3,12.09Z"/><path class="cls-4" d="M35.06,6.24S25.38,2.13,49.94,3.6C74,5,101.7,18.83,104,22.16c4.6,6.81.66,7.44-3.77,5.25-6.51-3.21-13.33-13.29-12.39-9.74s1.83,5.6-6.16-.41c-6.28-4.71-9-7.27-7.42-4.18,1.88,3.62-6.4-.22-10.73-4.25C60.13,5.71,51.92,13.06,45.9,7.32,41.24,2.87,37.44,9.68,35.06,6.24Z"/><path class="cls-5" d="M119.05,83c2.39-30.48-.08-32.51-13-37.11-11.37-4-17.59-.41-22.08-2.58-4.88-2.37-4.41-8-13.24-4.51C63,41.82,61,41.67,59.42,38c-4.89-10.94-8.52-4-14.1-7.78-5.3-3.62-.79-3.62-5.16-10.38-6-10.06,4.94-6.95,7.18-8.31C52.78,8.28,45.92.05,41.68,2.35c-7.51,4.1-6.46,1.16-8.53-.29-5-3.51-13,2.89-10.54,5.44,6.07,6.41-13-.18-7.54,12.34,1.85,4.22,8.27.66,10.13-.83s3.6-4.37,3.93-1.66c.28,2.31-3.59,4.77,3.29,13.87.22.3,3.31,12.58,5.85,17.3,1.7,3.15,4.37,4.32,7,8.69,3.14,5.14,2.32,13.7,5.28,19.42C54.16,83.5,64,76.43,65.24,80c3.11,8.79,5.7,7.71,13.16,7.06,4.49-.38,4.4,4.71,11.87,6.87,7.84,2.27,24.65,2,33.57-1.15,6-2.1,2.54-2.62-.84-4.4C120.93,87.23,118.84,85.67,119.05,83Z"/><path class="cls-6" d="M110.58,65.18s-1.76-.91-1.29-2.1C107.08,61.57,96.65,81,95.47,80c-.85-.71-1.62-4.14-2.24-8.51-.54-3.81-5,1.79-5,1.79a11.59,11.59,0,0,0,1.08,4.84C90,79.26,90.92,76.36,91,77c0,.25,3.66,10.41,5.8,9.46C103.23,83.62,110.52,65.24,110.58,65.18Z"/><path class="cls-7" d="M59.64,42.67c-1.39,2.84-1.83,9.5-1.27,18.52.48,7.64,4.93,15.23,6.21,18,1.63,3.5,0-11.22-.19-11.71C61.56,57.91,59,50,61.89,45.35,66.47,37.92,60.51,40.87,59.64,42.67Z"/><path class="cls-7" d="M43.27,29.37c-2.64,1.6-3,12.78-2,17.85a26,26,0,0,0,4,10c1.77,2.59.06-10.89-.51-14.34-.89-5.35-1.18-5.82,1-9.19C48.09,30,44.32,28.73,43.27,29.37Z"/><path class="cls-7" d="M82,43.68c-3.25,2.5-6.08,10.4-5.93,18.76.17,8.94,3,20.93,4.8,24.13,2.35,4.08.49-15.09.28-15.66-4.09-11.14-2.53-14.7,1.59-19.73C87.54,45.35,85.88,40.71,82,43.68Z"/><path class="cls-7" d="M30.06,28s-1.91-7.12,2.4-9.7S39,14.6,39.08,11.9,38.59,1.65,36.69,4c-.65.79,1.7,6.84-1.93,9.72s-5.19,2.81-6.26,5.14C27.16,21.73,30.06,28,30.06,28Z"/><path class="cls-8" d="M46.39,11.63c1.17-.39,1.66-3.12.68-5.48C46,3.63,44.42,1,41.91,1.78A4.76,4.76,0,0,0,40.67,9.3C42.76,11.75,44.06,12.41,46.39,11.63Z"/><path class="cls-9" d="M45.07,5.56c.76,1.53,1.48,3.78-.19,4.16C44.13,9.89,43,9,42.23,7.51s-.82-3-.11-3.3A2.4,2.4,0,0,1,45.07,5.56Z"/><path class="cls-8" d="M32.84,12.88c-2.74,1.14-6.57-.74-7.62-3.8s-1.18-5.9.72-6.55,4.3-2.66,7.29,2.59C34.82,7.92,36.15,11.5,32.84,12.88Z"/><path class="cls-9" d="M31.07,6.91C30,5.26,29.43,3.8,28.53,4c-1.65.28-1.35,2.23-.86,4.16s1.71,2.74,2.66,2.85C32.28,11.19,32.65,9.22,31.07,6.91Z"/><path class="cls-8" d="M16.64,12.1c1.51,0,5.16,1.57,5.31,3.68.17,2.34.92,4.69-2.23,5-1.5.17-4.28-.59-5.1-4.48C14.19,14.31,15.14,12.09,16.64,12.1Z"/><path class="cls-9" d="M19.73,15.26c1,1.06.94,3.07.46,3.56C19,20,17.68,18.45,17,17.25s-.7-2.57-.13-2.95S18.78,14.21,19.73,15.26Z"/><path class="cls-10" d="M39.3,42.57c.27-7.47-1.32-14.2-4.37-15.63C31.1,25.14,32,34.6,33.58,41.87a10.14,10.14,0,0,1,0,3c1.76-.29,3.5-.26,5.47-.48C39,44,39.28,42.93,39.3,42.57Z"/><path class="cls-11" d="M118.31,91.11c-8.12.72-6.29-29.06-6.38-29.12-1.67-1-4.69-5.5-5.16,1-.76,5.65,1.82,32.16,10.37,35.56,1.61.64,6.88-.34,6.88-.34S123.76,90.63,118.31,91.11Z"/><path class="cls-12" d="M54.77,69.6s-20-8.07-24.39-7.42c.54,1.18.13,1.55.07,2.86,9.69.2,24.2,11.48,25,9.22A6.29,6.29,0,0,0,54.77,69.6Z"/><path class="cls-13" d="M27.22,62.9c-1.32,2.61-2.9,14-2.58,28.43.07,3.31.2,4.23,1.59,4.79,2.71,1.07-.17-8.34,2.6-7.35,1.56.55.87-23.29,1-23.17.65-1.7,1.17-4.1-.64-4.72A18.64,18.64,0,0,0,27.22,62.9Z"/><path class="cls-14" d="M16.13,53.41c-1.66.54-12.35.71-5.58,4.4,5.75,3.15,10.53,1.91,13.63.94C44.68,52.35,33,41.29,33,41.29S29.61,49.07,16.13,53.41Z"/><path class="cls-10" d="M30.88,43.25c2.19,7.62-17.2,14.34-20.2,14-3.52-.42,6.08,6.11,11.13,4.42a32.17,32.17,0,0,0,12.81-8c6.29-7,4.43-8.55,2.36-12.44C35.35,42.2,30.26,38.19,30.88,43.25Z"/><path class="cls-15" d="M4.3,34.77c-2.54,8.51.35,8.37,4.5,4.13s4-5.34,4-5.34S5.27,31.56,4.3,34.77Z"/><path class="cls-16" d="M28.29,29.75c-6.75,5-5.27,17.7-9.36,9.07s2.87-9.89,2.87-9.89S29.74,28.67,28.29,29.75Z"/><path class="cls-17" d="M19.84,31c-3,5.47-6.58,16.64-8.4,7.22-1.25-6.46,2.3-8,2.3-8S20.74,29.33,19.84,31Z"/><path class="cls-18" d="M29.27,39.12c2.52-6.15,9.61-9.67,0-9.72-5.75,0-4.14,6.4-4.14,6.4S28.46,41.09,29.27,39.12Z"/><path class="cls-10" d="M35.25,28.29c-2.67.28.46-4.77-9.84-3.82A35.48,35.48,0,0,0,3,34.57c-2.23,2.15,8.06,2.8,12.35,1,7.41-3.19,17.36,0,19.48-1.62C35.89,33.11,36.5,28.15,35.25,28.29Z"/></g></svg>