<svg xmlns="http://www.w3.org/2000/svg" xmlns:xlink="http://www.w3.org/1999/xlink" viewBox="0 0 95 115"><defs><style>.cls-1,.cls-5{stroke:#31c8c5;}.cls-1,.cls-11,.cls-2,.cls-3,.cls-4,.cls-5,.cls-6,.cls-7,.cls-8,.cls-9{stroke-miterlimit:10;}.cls-11,.cls-2,.cls-3,.cls-4,.cls-6,.cls-8,.cls-9{stroke:#000;}.cls-2{fill:url(#Безымянный_градиент_5);}.cls-3{fill:#31c8c5;}.cls-10,.cls-4,.cls-7{fill:#984c24;}.cls-5{fill:url(#Безымянный_градиент_21);}.cls-6{fill:url(#Безымянный_градиент_8);}.cls-7{stroke:gray;}.cls-8{fill:url(#Безымянный_градиент_12);}.cls-9{fill:url(#Безымянный_градиент_28);}.cls-11{fill:#f9f912;stroke-width:2px;}</style><linearGradient id="Безымянный_градиент_5" x1="-361.38" y1="207.86" x2="-314.05" y2="207.86" gradientTransform="matrix(-0.28, -1.03, 0.99, -0.21, -257.07, -274.72)" gradientUnits="userSpaceOnUse"><stop offset="0"/><stop offset="0.03" stop-color="#090909"/><stop offset="0.14" stop-color="#2a2a2a"/><stop offset="0.27" stop-color="#454545"/><stop offset="0.4" stop-color="#5a5a5a"/><stop offset="0.56" stop-color="#696969"/><stop offset="0.73" stop-color="#727272"/><stop offset="1" stop-color="#757575"/></linearGradient><radialGradient id="Безымянный_градиент_21" cx="74.19" cy="81.27" fy="89.27982037414247" r="51.19" gradientTransform="translate(-12.44 62.41) scale(0.92 0.21)" gradientUnits="userSpaceOnUse"><stop offset="0" stop-color="#757575"/><stop offset="0.31" stop-color="#4d4d4d"/><stop offset="0.77" stop-color="#161616"/><stop offset="1"/></radialGradient><radialGradient id="Безымянный_градиент_8" cx="78.42" cy="56.4" r="33" gradientTransform="matrix(0.19, -0.95, 1.25, 0.28, -25.78, 113.77)" gradientUnits="userSpaceOnUse"><stop offset="0"/><stop offset="0.15" stop-color="#090909"/><stop offset="0.4" stop-color="#222"/><stop offset="0.71" stop-color="#4a4a4a"/><stop offset="1" stop-color="#757575"/></radialGradient><linearGradient id="Безымянный_градиент_12" x1="-316.27" y1="245.93" x2="-276.35" y2="245.93" gradientTransform="matrix(-1, -0.37, 0.41, -0.93, -358.97, 172.27)" xlink:href="#Безымянный_градиент_5"/><radialGradient id="Безымянный_градиент_28" cx="82.8" cy="69.46" r="15.93" gradientTransform="translate(-12.04 -44.6) rotate(-2.32) scale(0.92)" gradientUnits="userSpaceOnUse"><stop offset="0" stop-color="#757575"/><stop offset="0.15" stop-color="#6d6d6d"/><stop offset="0.39" stop-color="#565656"/><stop offset="0.68" stop-color="#303030"/><stop offset="1"/></radialGradient></defs><title>враги2 атака</title><g id="Слой_18" data-name="Слой 18"><path class="cls-1" d="M77.71,74.46c4.55-.75,17.47-2.18,16.22,8.41-.47,4,.65,18.18-.2,19.89-6.44.9-.5-21.16-4.66-21.63C70.15,79,70.7,75.61,77.71,74.46Z"/><path class="cls-1" d="M34.24,80.46c-4.86-2.29-19.4-10.23-20.71.49-.48,4-2.24,20.83-1.74,22.78,8.57,1.23,1.84-25.29,7.59-22.81C26.85,84.14,41.73,84,34.24,80.46Z"/><path class="cls-1" d="M68.63,78.41c6.06-.64,22.62-.67,19.92,9.92-1,4,1.57,24.46.29,26.16-7.9-1.73-1-28.38-6.51-28C54.53,88.21,59.3,79.39,68.63,78.41Z"/><path class="cls-1" d="M34.87,81.16C31.46,82.52,22,79,22,89.5c0,3.93-2.73,23.36-2.25,25.06,7.41,1.17,3.89-27.45,6-26.79C40.51,92.32,49.31,75.41,34.87,81.16Z"/><path class="cls-2" d="M36.93,49.9c1,3.27,11,1.86,14.59,2.8,6.36,1.66,9.4-1,10.21-4.11-10.1-2.92-19.26.31-20-3C35.81,17.83,28.18,7.24,27,7.76,22.57,9.63,33.69,39.05,36.93,49.9Z"/><path class="cls-3" d="M18.87,10.51s-8.42,6.09-9.3,8.85-.82,1.14,5.27-1.52,9.2-.41,11.66-2.63,3.86-3.82.32-4.13S18.87,10.51,18.87,10.51Z"/><path class="cls-4" d="M28.82,9S25.44,1.66,13.61,3.9,1.54,11.08,1.54,11.08s13.12-3.52,17.61-.29C23.32,13.79,32.14,16.68,28.82,9Z"/><path class="cls-5" d="M23.64,78c0,5.93,14.06,13.36,31.69,13.36S87.49,83.92,87.49,78,73.19,67.25,55.56,67.25,23.64,72.06,23.64,78Z"/><path class="cls-6" d="M32.8,70.5s1.72-6.27,10.41-14.69c4.78-4.63,5.4-7,12.65-13.29,5.84-5.1-3.45-2.5,1.22-10.64,3.07-5.35,8.93-6.33,17.48-6.24,5.53.05-4.73,10.84-3,14.89,1.44,3.41,5.76,6.79,5,12.21-1.07,7.77,15.15,14.42,4.48,20C60.73,83.37,34.48,76.94,32.8,70.5Z"/><path class="cls-7" d="M84.67,69.73c-4.82,1.78-18.93,8.67-29.11,8.67-11.18,0-18.39-7.26-22.76-9.33-2.43.89-5,1.55-5,2.67C27.81,75.06,40.22,82,55.52,82s27.71-6.85,30.77-8.16S87.14,70.65,84.67,69.73Z"/><path class="cls-4" d="M77,54.37c-1.31-1.26-10.57,6.78-17.29,6.78-7.4,0-12.85-5.38-15.74-7.46-1.43-.35-3.88,3.75-1.48,5.82s4.44,4.77,14.55,4.77,18.74-4.37,21-6.76C79.44,56.08,78.17,55.5,77,54.37Z"/><path class="cls-7" d="M71.61,38.93c-.28-.72-2,1.51-5.67,2.24-3.45.69-7.51-.9-8.89-1.72a12.83,12.83,0,0,0-3.39,1.65c-3.42,2.17,5.25,3.55,7.68,3.57,2.6,0,10.66-.55,12-2.94C73.72,41.06,71.86,39.59,71.61,38.93Z"/><path class="cls-4" d="M75.64,30.41c-.27-2-1.37,0-6.5.93a14.83,14.83,0,0,1-10.07-1.51c-2.42-.22-4,1.51-1.77,2.69a42.75,42.75,0,0,0,8.23,1.75c2.81.19,7-.38,9.25-1.74A2.41,2.41,0,0,0,75.64,30.41Z"/><path class="cls-8" d="M45.2,71.75C49,73.1,60,56.31,61.26,52.79c2.08-6,1-5.47-1.62-5C55.92,47,46.27,66.51,43.71,64.44,28.32,52,28.62,44.68,19.71,44.06,11.79,43.52,40.29,70,45.2,71.75Z"/><path class="cls-3" d="M17.78,46.55S8.6,51.41,7.34,54s-1,1,5.43-.78,7.8.13,10.81-.37c3.27-.53,5.46-3.85,2-4.65S17.78,46.55,17.78,46.55Z"/><path class="cls-4" d="M25.33,44.42S19.8,36.8,9.73,40.87c-9.81,4-8.28,7-8.28,7s10.32-3.4,15.43-.59C21.62,49.91,30.65,51.9,25.33,44.42Z"/><path class="cls-9" d="M51.64,17.4C51.34,10,56.28,1.91,64.44,1.58s16.41,6.77,16.71,14.2-7.46,15.35-17.44,14.6C55.57,29.77,51.94,24.83,51.64,17.4Z"/><path class="cls-10" d="M59.47,1A15.17,15.17,0,0,1,66.2,6.49a13.76,13.76,0,0,1,2.47,8.86,14.4,14.4,0,0,1-1.13,4.57,16.49,16.49,0,0,1-2.42,3.85A18.55,18.55,0,0,1,58.19,29,77.87,77.87,0,0,0,62.52,22,23.81,23.81,0,0,0,64,18.56a14.86,14.86,0,0,0,.69-3.5A15.23,15.23,0,0,0,63.45,8,36.47,36.47,0,0,0,59.47,1Z"/><path class="cls-11" d="M50.88,14.87c-.27,7.18,3.77,13.33,5.52,13.37,3,.06,6.7-5.86,7-13s-3-14.07-5.29-13.35C54.35,3,51.15,7.68,50.88,14.87Z"/><path d="M56,23.63a13.89,13.89,0,0,1-1.67-4.69,19.77,19.77,0,0,1,.55-9.13,13.9,13.9,0,0,1,2.25-4.44,13.7,13.7,0,0,1,1.68,4.69A19.19,19.19,0,0,1,59,14.65a19.71,19.71,0,0,1-.82,4.53A13.91,13.91,0,0,1,56,23.63Z"/><path class="cls-3" d="M72,28.8c8-6.77,3.26-7,3.26-7s3.68-3.63,3.69-4.55c0-1.22-3.61-2.06-3.61-2.06S79.7,12.27,79,11c-.54-.94-6.15-1-6.15-1s3-1.71,2.42-3.52c-.42-1.43-6.4-1-7.67-1.13,0,0,2.11-1.34-.3-2.2-2.78-1-8-2.06-7.62-2.12C67.49-.25,85.56,3.55,87,13.19,87.54,16.42,85.26,23.28,72,28.8Z"/><path class="cls-4" d="M82.65,6.41s7.47,4.65,3.46,11c-3.82,6.05.49-.36-1.74-5.35C82,6.72,80.67,5.46,82.65,6.41Z"/></g></svg>