<svg xmlns="http://www.w3.org/2000/svg" xmlns:xlink="http://www.w3.org/1999/xlink" viewBox="0 0 95 115"><defs><style>.cls-1,.cls-5{stroke:#31c8c5;}.cls-1,.cls-11,.cls-2,.cls-3,.cls-4,.cls-5,.cls-6,.cls-7,.cls-8,.cls-9{stroke-miterlimit:10;}.cls-11,.cls-2,.cls-3,.cls-4,.cls-6,.cls-8,.cls-9{stroke:#000;}.cls-2{fill:url(#Безымянный_градиент_5);}.cls-3{fill:#31c8c5;}.cls-10,.cls-4,.cls-7{fill:#984c24;}.cls-5{fill:url(#Безымянный_градиент_21);}.cls-6{fill:url(#Безымянный_градиент_8);}.cls-7{stroke:gray;}.cls-8{fill:url(#Безымянный_градиент_12);}.cls-9{fill:url(#Безымянный_градиент_28);}.cls-11{fill:#f9f912;stroke-width:2px;}</style><linearGradient id="Безымянный_градиент_5" x1="-623.35" y1="416.64" x2="-576.02" y2="416.64" gradientTransform="matrix(-0.28, -1.03, 0.99, -0.21, -537.62, -500.81)" gradientUnits="userSpaceOnUse"><stop offset="0"/><stop offset="0.03" stop-color="#090909"/><stop offset="0.14" stop-color="#2a2a2a"/><stop offset="0.27" stop-color="#454545"/><stop offset="0.4" stop-color="#5a5a5a"/><stop offset="0.56" stop-color="#696969"/><stop offset="0.73" stop-color="#727272"/><stop offset="1" stop-color="#757575"/></linearGradient><radialGradient id="Безымянный_градиент_21" cx="93.81" cy="81.7" fy="89.71143851226651" r="51.19" gradientTransform="translate(-30.71 62.71) scale(0.92 0.21)" gradientUnits="userSpaceOnUse"><stop offset="0" stop-color="#757575"/><stop offset="0.31" stop-color="#4d4d4d"/><stop offset="0.77" stop-color="#161616"/><stop offset="1"/></radialGradient><radialGradient id="Безымянный_градиент_8" cx="98.05" cy="56.8" r="33" gradientTransform="matrix(0.19, -0.95, 1.25, 0.28, -30.26, 132.64)" gradientUnits="userSpaceOnUse"><stop offset="0"/><stop offset="0.15" stop-color="#090909"/><stop offset="0.4" stop-color="#222"/><stop offset="0.71" stop-color="#4a4a4a"/><stop offset="1" stop-color="#757575"/></radialGradient><linearGradient id="Безымянный_градиент_12" x1="-723.73" y1="320.68" x2="-683.82" y2="320.68" gradientTransform="matrix(-1, -0.37, 0.41, -0.93, -797.89, 90.95)" xlink:href="#Безымянный_градиент_5"/><radialGradient id="Безымянный_градиент_28" cx="102.21" cy="79.55" r="15.93" gradientTransform="translate(-30.48 -52.73) rotate(-2.32) scale(0.92)" gradientUnits="userSpaceOnUse"><stop offset="0" stop-color="#757575"/><stop offset="0.15" stop-color="#6d6d6d"/><stop offset="0.39" stop-color="#565656"/><stop offset="0.68" stop-color="#303030"/><stop offset="1"/></radialGradient></defs><title>враги2 атака</title><g id="Слой_20" data-name="Слой 20"><path class="cls-1" d="M77.88,74.46c4.55-.75,17.47-2.18,16.21,8.41-.47,4,.65,18.18-.19,19.89-6.45.9-.51-21.16-4.67-21.63C70.32,79,70.87,75.61,77.88,74.46Z"/><path class="cls-1" d="M34.41,80.46C29.54,78.17,15,70.23,13.7,81c-.49,4-2.24,20.83-1.74,22.78,8.56,1.23,1.83-25.29,7.58-22.81C27,84.14,41.9,84,34.41,80.46Z"/><path class="cls-1" d="M68.8,78.41c6-.64,22.61-.67,19.91,9.92-1,4,1.58,24.46.3,26.16-7.91-1.73-1-28.38-6.51-28C54.7,88.21,59.47,79.39,68.8,78.41Z"/><path class="cls-1" d="M35,81.16C31.63,82.52,22.17,79,22.2,89.5c0,3.93-2.73,23.36-2.24,25.06,7.41,1.17,3.88-27.45,6-26.79C40.68,92.32,49.47,75.41,35,81.16Z"/><path class="cls-2" d="M36.65,50.3c1,3.26,11,1.86,14.59,2.8,6.36,1.65,9.4-1,10.21-4.11-10.1-2.93-19.26.31-20-3C35.53,18.22,27.9,7.63,26.68,8.16,22.29,10,33.41,39.44,36.65,50.3Z"/><path class="cls-3" d="M18.59,10.9s-8.41,6.1-9.3,8.85-.82,1.14,5.27-1.52,9.2-.4,11.66-2.62,3.86-3.82.32-4.13S18.59,10.9,18.59,10.9Z"/><path class="cls-4" d="M28.54,9.4S25.16,2.06,13.33,4.3,1.26,11.47,1.26,11.47,14.38,8,18.87,11.19C23,14.18,31.87,17.08,28.54,9.4Z"/><path class="cls-5" d="M23.36,78.38c0,5.93,14.06,13.37,31.69,13.37s32.16-7.44,32.16-13.37S72.91,67.65,55.28,67.65,23.36,72.46,23.36,78.38Z"/><path class="cls-6" d="M32.52,70.89s1.72-6.26,10.41-14.69c4.78-4.62,5.4-7,12.65-13.28,5.85-5.1-3.45-2.5,1.23-10.64C59.88,26.93,65.73,26,74.28,26c5.53,0-4.73,10.85-3,14.89,1.44,3.41,5.77,6.79,5,12.21-1.06,7.77,15.15,14.43,4.48,20C60.45,83.76,34.2,77.33,32.52,70.89Z"/><path class="cls-7" d="M84.39,70.13C79.57,71.9,65.46,78.8,55.28,78.8c-11.18,0-18.39-7.26-22.76-9.34-2.43.9-5,1.56-5,2.67,0,3.33,12.4,10.3,27.7,10.3S83,75.57,86,74.27,86.86,71.05,84.39,70.13Z"/><path class="cls-4" d="M76.73,54.77c-1.31-1.26-10.57,6.77-17.29,6.77-7.4,0-12.85-5.37-15.74-7.45-1.43-.35-3.88,3.74-1.48,5.82s4.44,4.76,14.55,4.76,18.74-4.36,21-6.76C79.16,56.48,77.89,55.89,76.73,54.77Z"/><path class="cls-7" d="M71.33,39.32c-.28-.71-2,1.51-5.67,2.25-3.45.69-7.51-.91-8.89-1.73a13.31,13.31,0,0,0-3.39,1.65c-3.42,2.18,5.25,3.56,7.68,3.57,2.6,0,10.66-.54,12-2.93C73.44,41.45,71.58,40,71.33,39.32Z"/><path class="cls-4" d="M75.36,30.81c-.26-2-1.37,0-6.5.93a14.78,14.78,0,0,1-10.07-1.52c-2.42-.21-4,1.52-1.77,2.7a43.52,43.52,0,0,0,8.23,1.75c2.81.18,7-.39,9.26-1.74A2.43,2.43,0,0,0,75.36,30.81Z"/><path class="cls-8" d="M44.92,72.15C48.7,73.5,59.76,56.71,61,53.18c2.08-6,1-5.46-1.62-5C55.64,47.35,46,66.9,43.43,64.83,28,52.41,28.34,45.07,19.43,44.46,11.51,43.91,40,70.39,44.92,72.15Z"/><path class="cls-3" d="M17.5,46.94S8.32,51.81,7.06,54.41s-1,1,5.43-.77,7.8.12,10.81-.37c3.27-.54,5.46-3.86,2-4.66S17.5,46.94,17.5,46.94Z"/><path class="cls-4" d="M25.05,44.82s-5.53-7.63-15.6-3.55c-9.81,4-8.27,7-8.27,7s10.31-3.39,15.42-.58C21.34,50.3,30.38,52.29,25.05,44.82Z"/><path class="cls-9" d="M51.36,17.8C51.06,10.37,56,2.3,64.16,2s16.41,6.78,16.71,14.2S73.41,31.52,63.44,30.78C55.29,30.17,51.66,25.22,51.36,17.8Z"/><path class="cls-10" d="M59.19,1.37a15.24,15.24,0,0,1,6.73,5.51,13.77,13.77,0,0,1,2.47,8.87,14.08,14.08,0,0,1-1.13,4.56,16.56,16.56,0,0,1-2.42,3.86,18.65,18.65,0,0,1-6.93,5.18,79.33,79.33,0,0,0,4.33-6.94A24,24,0,0,0,63.72,19a15.86,15.86,0,0,0,.69-3.49,15.26,15.26,0,0,0-1.24-7.07A36.47,36.47,0,0,0,59.19,1.37Z"/><path class="cls-11" d="M50.61,15.26c-.27,7.19,3.76,13.34,5.51,13.38,3,.06,6.71-5.86,7-13S60,1.52,57.8,2.24C54.07,3.44,50.87,8.08,50.61,15.26Z"/><path d="M55.67,24A13.84,13.84,0,0,1,54,19.34a19.6,19.6,0,0,1,.56-9.13A13.71,13.71,0,0,1,56.8,5.76a13.78,13.78,0,0,1,1.68,4.69,19.3,19.3,0,0,1,.25,4.6,19.81,19.81,0,0,1-.82,4.53A13.77,13.77,0,0,1,55.67,24Z"/><path class="cls-3" d="M71.67,29.2c8-6.77,3.26-7,3.26-7s3.69-3.62,3.69-4.54c0-1.22-3.6-2.06-3.6-2.06s4.4-2.91,3.68-4.2c-.53-.94-6.15-1-6.15-1s3-1.71,2.42-3.53c-.42-1.42-6.4-1-7.67-1.12,0,0,2.11-1.34-.3-2.2-2.78-1-8-2.06-7.62-2.12C67.21.14,85.28,4,86.76,13.58,87.26,16.82,85,23.68,71.67,29.2Z"/><path class="cls-4" d="M82.37,6.81s7.47,4.64,3.46,11c-3.82,6.06.49-.35-1.74-5.35C81.71,7.12,80.39,5.86,82.37,6.81Z"/></g></svg>