<svg xmlns="http://www.w3.org/2000/svg" xmlns:xlink="http://www.w3.org/1999/xlink" viewBox="0 0 95 115"><defs><style>.cls-1,.cls-5{stroke:#31c8c5;}.cls-1,.cls-11,.cls-2,.cls-3,.cls-4,.cls-5,.cls-6,.cls-7,.cls-8,.cls-9{stroke-miterlimit:10;}.cls-11,.cls-2,.cls-3,.cls-4,.cls-6,.cls-8,.cls-9{stroke:#000;}.cls-2{fill:url(#Безымянный_градиент_5);}.cls-3{fill:#31c8c5;}.cls-10,.cls-4,.cls-7{fill:#984c24;}.cls-5{fill:url(#Безымянный_градиент_21);}.cls-6{fill:url(#Безымянный_градиент_8);}.cls-7{stroke:gray;}.cls-8{fill:url(#Безымянный_градиент_12);}.cls-9{fill:url(#Безымянный_градиент_28);}.cls-11{fill:#f9f912;stroke-width:2px;}</style><linearGradient id="Безымянный_градиент_5" x1="-492.16" y1="313.69" x2="-445.82" y2="313.69" gradientTransform="matrix(-0.28, -1.03, 0.99, -0.21, -398.28, -388.52)" gradientUnits="userSpaceOnUse"><stop offset="0"/><stop offset="0.03" stop-color="#090909"/><stop offset="0.14" stop-color="#2a2a2a"/><stop offset="0.27" stop-color="#454545"/><stop offset="0.4" stop-color="#5a5a5a"/><stop offset="0.56" stop-color="#696969"/><stop offset="0.73" stop-color="#727272"/><stop offset="1" stop-color="#757575"/></linearGradient><radialGradient id="Безымянный_градиент_21" cx="86.99" cy="81.83" fy="89.84261682603541" r="51.19" gradientTransform="translate(-21.64 62.81) scale(0.92 0.21)" gradientUnits="userSpaceOnUse"><stop offset="0" stop-color="#757575"/><stop offset="0.31" stop-color="#4d4d4d"/><stop offset="0.77" stop-color="#161616"/><stop offset="1"/></radialGradient><radialGradient id="Безымянный_градиент_8" cx="91.2" cy="56.93" r="33.01" gradientTransform="matrix(0.19, -0.95, 1.25, 0.28, -26.33, 126.24)" gradientUnits="userSpaceOnUse"><stop offset="0"/><stop offset="0.15" stop-color="#090909"/><stop offset="0.4" stop-color="#222"/><stop offset="0.71" stop-color="#4a4a4a"/><stop offset="1" stop-color="#757575"/></radialGradient><linearGradient id="Безымянный_градиент_12" x1="-525.04" y1="287.67" x2="-485.24" y2="287.67" gradientTransform="matrix(-1, -0.37, 0.41, -0.93, -579.89, 131.34)" xlink:href="#Безымянный_градиент_5"/><radialGradient id="Безымянный_градиент_28" cx="96.15" cy="59.45" r="15.93" gradientTransform="translate(-20.91 -35.3) rotate(-1.78) scale(0.92)" gradientUnits="userSpaceOnUse"><stop offset="0" stop-color="#757575"/><stop offset="0.15" stop-color="#6d6d6d"/><stop offset="0.39" stop-color="#565656"/><stop offset="0.68" stop-color="#303030"/><stop offset="1"/></radialGradient></defs><title>враги2 атака</title><g id="Слой_17" data-name="Слой 17"><path class="cls-1" d="M80.41,74.59c4.57.61,17.34,3,13,12.79-1.61,3.65-4.7,17.57-6,19-6.42-1,5.71-20.39,1.87-22.06C71.85,76.71,73.37,73.64,80.41,74.59Z"/><path class="cls-1" d="M30.24,78.45c-5.32-.8-21.53-4.21-19.69,6.42.68,4,3.85,20.59,4.89,22.32,8.56-1.28-5.53-24.74.7-24C24.22,84.1,38.43,79.66,30.24,78.45Z"/><path class="cls-1" d="M67.9,77.06c6.08.39,22.42,3,18,12.57-1.64,3.56-4.45,23.33-6,24.72-7.52-2.91,5.62-26.93.16-27.49C52.39,84,58.54,76.47,67.9,77.06Z"/><path class="cls-1" d="M31.57,78.72c-3,2-13,.6-10.79,10.86.84,3.84,2.25,23.41,3.08,25,7.49-.42-2-27.65.25-27.46C39.43,88.44,44.47,70.06,31.57,78.72Z"/><path class="cls-2" d="M42.26,45.19c1.54,3,9,4.86,12.59,5.8,6.35,1.65,9.4-1,10.21-4.11C55,44,48.44,44,47.08,40.87c-12.22-28.16-22.8-32.73-24-32.21C18.66,10.53,36.63,34.12,42.26,45.19Z"/><path class="cls-3" d="M16.09,11.33s-8.42,6.09-9.3,8.85S6,21.32,12.06,18.66s9.2-.41,11.66-2.63,3.86-3.82.32-4.13S16.09,11.33,16.09,11.33Z"/><path class="cls-4" d="M27.16,11.58S26.65,3.51,14.81,1.34,1,3.69,1,3.69,14.47,5.13,17.5,9.76C20.31,14.06,27.51,19.94,27.16,11.58Z"/><path class="cls-5" d="M26.18,78.5c0,5.93,14,13.37,31.68,13.37S90,84.43,90,78.5,75.73,67.77,58.1,67.77,26.18,72.58,26.18,78.5Z"/><path class="cls-6" d="M35.33,71S34,65.23,45.75,56.32c5.3-4,5.4-7,12.65-13.28,5.84-5.1-3.45-2.5,1.22-10.64,3.07-5.35,8.92-6.33,17.47-6.25,5.53.05-4.73,10.85-3,14.89,1.43,3.41,5.76,6.79,5,12.21C78,61,94.23,67.68,83.55,73.27,63.27,83.88,37,77.45,35.33,71Z"/><path class="cls-7" d="M87.21,70.25c-9.89-.32-18.94,8.67-29.11,8.67-11.19,0-18.39-7.26-22.77-9.34-2.42.9-5,1.56-5,2.67,0,3.33,12.41,10.3,27.71,10.3s27.71-6.86,30.77-8.16S89.68,71.17,87.21,70.25Z"/><path class="cls-4" d="M78.87,54.71c-1.31-1.26-10.57,6.77-17.29,6.77-7.4,0-11.42-5-14.32-7.09C45.84,54,41,58.78,43.35,60.85s5.45,3.77,15.56,3.77c17.73,0,18.74-4.37,21-6.76C81.3,56.42,80,55.84,78.87,54.71Z"/><path class="cls-7" d="M74.14,39.44c-.27-.71-2,1.51-5.67,2.25C65,42.38,61,40.78,59.59,40a13.15,13.15,0,0,0-3.39,1.65c-3.42,2.18,5.29,3.11,7.68,3.57,7.07,1.39,10.65-.54,12-2.93C76.26,41.57,74.4,40.11,74.14,39.44Z"/><path class="cls-4" d="M78.18,30.93c-.27-2-1.37,0-6.51.93A14.84,14.84,0,0,1,61.6,30.35c-2.41-.22-4,1.51-1.76,2.69a43.58,43.58,0,0,0,8.22,1.75c2.82.18,7-.39,9.26-1.74A2.43,2.43,0,0,0,78.18,30.93Z"/><path class="cls-8" d="M49.35,66.71c2.78.09,14.17-12.51,16.41-15.49,3.49-4.67.95-4.47-1.62-4C60.42,46.39,50.45,61,47.5,59.49,30.35,51,28.29,42.55,23.91,43.44,17.88,44.66,39.15,66.37,49.35,66.71Z"/><path class="cls-3" d="M16.79,45.8s-7.93,6.72-8.6,9.53-.72,1.2,5.14-1.92S21,51.86,23.82,50.73c3.07-1.22,4.5-4.93.94-5S16.79,45.8,16.79,45.8Z"/><path class="cls-4" d="M26.35,42.14s-4-8.53-14.63-6.46C1.33,37.69,2.26,41,2.26,41S13,39.62,17.51,43.36C21.67,46.82,30.15,50.5,26.35,42.14Z"/><path class="cls-9" d="M54.14,17.75C53.91,10.32,58.92,2.3,67.08,2S83.43,9,83.66,16.4s-7.6,15.28-17.57,14.44C58,30.16,54.37,25.18,54.14,17.75Z"/><path class="cls-10" d="M62.12,1.4A15.13,15.13,0,0,1,68.8,7a13.79,13.79,0,0,1,2.39,8.89A14.41,14.41,0,0,1,70,20.41a16.26,16.26,0,0,1-2.45,3.83,18.53,18.53,0,0,1-7,5.12A76.28,76.28,0,0,0,65,22.46,22.93,22.93,0,0,0,66.48,19a15.4,15.4,0,0,0,.73-3.49A15.38,15.38,0,0,0,66,8.45,36.28,36.28,0,0,0,62.12,1.4Z"/><path class="cls-11" d="M53.41,15.2c-.34,7.19,3.64,13.38,5.39,13.43,3,.09,6.76-5.8,7.09-13S63,1.56,60.73,2.25C57,3.42,53.74,8,53.41,15.2Z"/><path d="M58.42,23.54a14,14,0,0,1-1.63-4.68,19.73,19.73,0,0,1-.21-4.59,18.79,18.79,0,0,1,.86-4.52,13.78,13.78,0,0,1,2.28-4.41A14,14,0,0,1,61.36,10a19.19,19.19,0,0,1,.2,4.59,19.63,19.63,0,0,1-.86,4.51A13.78,13.78,0,0,1,58.42,23.54Z"/><path class="cls-3" d="M74.34,29.34c8.11-6.7,3.33-7,3.33-7s3.72-3.59,3.73-4.51c0-1.22-3.59-2.09-3.59-2.09s4.43-2.87,3.72-4.16c-.52-.95-6.13-1.1-6.13-1.1s3-1.68,2.45-3.5c-.41-1.42-6.39-1-7.66-1.19,0,0,2.13-1.32-.28-2.2-2.77-1-8-2.14-7.59-2.2C70.15.24,88.19,4.22,89.58,13.86,90.05,17.1,87.71,23.94,74.34,29.34Z"/><path class="cls-4" d="M85.21,6.94s7.31,6,3.06,12.21c-4,5.9.79-1.43-1.24-6.51C84.85,7.2,83.27,5.91,85.21,6.94Z"/></g></svg>