<svg xmlns="http://www.w3.org/2000/svg" xmlns:xlink="http://www.w3.org/1999/xlink" viewBox="0 0 95 115"><defs><style>.cls-1,.cls-5{stroke:#31c8c5;}.cls-1,.cls-10,.cls-11,.cls-2,.cls-3,.cls-4,.cls-5,.cls-6,.cls-7,.cls-8{stroke-miterlimit:10;}.cls-10,.cls-11,.cls-2,.cls-3,.cls-4,.cls-6,.cls-8{stroke:#000;}.cls-2{fill:url(#Безымянный_градиент_5);}.cls-3{fill:#31c8c5;}.cls-4,.cls-7,.cls-9{fill:#984c24;}.cls-5{fill:url(#Безымянный_градиент_21);}.cls-6{fill:url(#Безымянный_градиент_8);}.cls-7{stroke:gray;}.cls-8{fill:url(#Безымянный_градиент_28);}.cls-10{fill:#f9f912;stroke-width:2px;}.cls-11{fill:url(#Безымянный_градиент_12);}</style><linearGradient id="Безымянный_градиент_5" x1="-228.56" y1="102.67" x2="-182.38" y2="102.67" gradientTransform="matrix(-0.28, -1.03, 0.99, -0.21, -115.48, -160.62)" gradientUnits="userSpaceOnUse"><stop offset="0"/><stop offset="0.03" stop-color="#090909"/><stop offset="0.14" stop-color="#2a2a2a"/><stop offset="0.27" stop-color="#454545"/><stop offset="0.4" stop-color="#5a5a5a"/><stop offset="0.56" stop-color="#696969"/><stop offset="0.73" stop-color="#727272"/><stop offset="1" stop-color="#757575"/></linearGradient><radialGradient id="Безымянный_градиент_21" cx="62.6" cy="80.61" fy="88.61906420371237" r="51.19" gradientTransform="translate(-3.22 61.94) scale(0.92 0.21)" gradientUnits="userSpaceOnUse"><stop offset="0" stop-color="#757575"/><stop offset="0.31" stop-color="#4d4d4d"/><stop offset="0.77" stop-color="#161616"/><stop offset="1"/></radialGradient><radialGradient id="Безымянный_градиент_8" cx="66.79" cy="55.77" r="33.03" gradientTransform="matrix(0.19, -0.95, 1.25, 0.28, -24.25, 102.32)" gradientUnits="userSpaceOnUse"><stop offset="0"/><stop offset="0.15" stop-color="#090909"/><stop offset="0.4" stop-color="#222"/><stop offset="0.71" stop-color="#4a4a4a"/><stop offset="1" stop-color="#757575"/></radialGradient><radialGradient id="Безымянный_градиент_28" cx="75.06" cy="22.85" r="15.93" gradientTransform="translate(-4.89 3.11) rotate(-6.98) scale(0.92)" gradientUnits="userSpaceOnUse"><stop offset="0" stop-color="#757575"/><stop offset="0.15" stop-color="#6d6d6d"/><stop offset="0.39" stop-color="#565656"/><stop offset="0.68" stop-color="#303030"/><stop offset="1"/></radialGradient><linearGradient id="Безымянный_градиент_12" x1="-110.89" y1="209.2" x2="-71.41" y2="209.2" gradientTransform="matrix(-1, -0.37, 0.41, -0.93, -137.46, 213.3)" xlink:href="#Безымянный_градиент_5"/></defs><title>враги2 атака</title><g id="Слой_5" data-name="Слой 5"><path class="cls-1" d="M73.9,77.64c4.4-1.38,17-4.62,17.24,6,.1,4,3.22,17.9,2.63,19.72-6.25,1.8-3.5-20.89-7.69-20.76C67.06,83.21,67.12,79.78,73.9,77.64Z"/><path class="cls-1" d="M34.25,84.43c-4.44-3-17.53-13.18-20.52-2.81-1.12,3.87-5.53,20.2-5.35,22.21,8.26,2.58,5.84-24.67,11.12-21.31C26.37,86.89,41.09,89.11,34.25,84.43Z"/><path class="cls-1" d="M63.67,82.94c5.78-1.92,21.94-5.51,21.58,5.41-.14,4.09,4.94,24.39,4.06,26.32-8.09,0-5.06-27.17-10.53-26.81C50.21,89.72,54.77,85.89,63.67,82.94Z"/><path class="cls-1" d="M35.69,83c-3.55.92-12.5-3.75-13.78,6.68-.47,3.89-5.61,22.83-5.34,24.58,7.21,2.08,7.27-26.76,9.31-25.83C39.9,94.77,50.73,79.08,35.69,83Z"/><path class="cls-2" d="M36.49,49.15c0,3.41,11,1.87,14.59,2.8,6.35,1.66,9.4-1,10.21-4.1-10.61-8.17-19.5.35-20-3C38.52,25,33,8.66,29.71,7.74,24.06,6.18,36.34,39.69,36.49,49.15Z"/><path class="cls-3" d="M22.75,12s-7.12,7.57-7.46,10.44-.59,1.28,4.88-2.48,9-2.14,11-4.78,3.07-4.48-.46-4.12S22.75,12,22.75,12Z"/><path class="cls-4" d="M31.37,8.26S28,.91,16.16,3.16,4.09,10.33,4.09,10.33,17.21,6.81,21.7,10C25.87,13,34.7,15.93,31.37,8.26Z"/><path class="cls-5" d="M22.24,77.38c0,5.93,14.05,13.37,31.69,13.37s32.15-7.44,32.15-13.37S71.79,66.65,54.16,66.65,22.24,71.45,22.24,77.38Z"/><path class="cls-6" d="M31.39,69.89S29.71,62.46,41.81,55.2c5.7-3.42,5.4-7,12.65-13.28,5.84-5.1-3.45-2.51,1.22-10.64C58.75,25.93,64.61,25,73.16,25c5.53,0-4.74,10.85-3,14.89,1.43,3.41,5.76,6.79,5,12.21-1.07,7.77,15.15,14.43,4.47,20C59.33,82.76,33.08,76.33,31.39,69.89Z"/><path class="cls-7" d="M83.27,69.13C78.45,70.9,64.34,77.8,54.16,77.8c-11.19,0-14.58-6.19-22.77-9.34-2.42.9-5,1.56-5,2.67,0,3.33,12.41,10.3,27.71,10.3s27.71-6.86,30.77-8.16S85.74,70.05,83.27,69.13Z"/><path class="cls-4" d="M75.6,53.77C74.3,52.51,65,60.54,58.31,60.54c-7.39,0-11.42-5-14.31-7.1-1.42-.35-6.1,1.38-3.7,3.45s5.24,6.78,15.35,6.78,18.74-4.36,21-6.76C78,55.48,76.77,54.89,75.6,53.77Z"/><path class="cls-7" d="M70.2,38.32c-.27-.71-2,1.51-5.67,2.25-3.45.69-7.5-.91-8.88-1.73a13.15,13.15,0,0,0-3.39,1.65c-3.42,2.18,5.24,3.56,7.68,3.57,2.6,0,10.66-.55,12-2.93C72.32,40.45,70.46,39,70.2,38.32Z"/><path class="cls-4" d="M74.24,29.81c-.27-2-1.37,0-6.51.93a14.79,14.79,0,0,1-10.07-1.52c-2.41-.21-4,1.52-1.76,2.7a43.58,43.58,0,0,0,8.22,1.75c2.82.18,7-.39,9.26-1.74A2.41,2.41,0,0,0,74.24,29.81Z"/><path class="cls-8" d="M51.39,18.19c-.9-7.38,3.37-15.82,11.47-16.81S79.77,6.79,80.67,14.17s-6.19,15.9-16.19,16C56.32,30.2,52.29,25.56,51.39,18.19Z"/><path class="cls-9" d="M57.86,1.18a15.17,15.17,0,0,1,7.16,5,13.82,13.82,0,0,1,3.18,8.63,14.47,14.47,0,0,1-.76,4.64,16.62,16.62,0,0,1-2.09,4,18.64,18.64,0,0,1-6.49,5.73,80.27,80.27,0,0,0,3.75-7.27,24.11,24.11,0,0,0,1.19-3.57,15.26,15.26,0,0,0,.4-3.54,15.23,15.23,0,0,0-1.8-6.94A36.49,36.49,0,0,0,57.86,1.18Z"/><path class="cls-10" d="M50.43,15.72c.32,7.18,4.84,13,6.59,12.88,3-.18,6.2-6.38,5.89-13.56S58.72,1.26,56.55,2.16C52.93,3.66,50.12,8.54,50.43,15.72Z"/><path d="M56.19,23.93a13.73,13.73,0,0,1-2-4.51,20.18,20.18,0,0,1-.63-4.54A19.18,19.18,0,0,1,54,10.32a13.36,13.36,0,0,1,1.88-4.58,13.53,13.53,0,0,1,2,4.51,18.59,18.59,0,0,1,.62,4.54,19.18,19.18,0,0,1-.45,4.56A14,14,0,0,1,56.19,23.93Z"/><path class="cls-3" d="M72.56,27.9c7.47-7.4,2.68-7.26,2.68-7.26s3.38-3.91,3.31-4.83c-.1-1.21-3.76-1.76-3.76-1.76s4.15-3.26,3.33-4.48C77.51,8.68,71.9,9,71.9,9S74.71,7.09,74,5.33c-.53-1.38-6.46-.47-7.73-.5,0,0,2-1.5-.48-2.16-2.85-.76-8.15-1.41-7.77-1.5,7.7-1.87,26,.46,28.28,9.94C87.09,14.29,85.38,21.31,72.56,27.9Z"/><path class="cls-4" d="M82.45,5.59s7.35,4.83,3.18,11.1c-4,5.95.51-.35-1.6-5.4C81.78,5.88,80.5,4.59,82.45,5.59Z"/><path class="cls-11" d="M50.75,71c3.78,1.36,6.77-9.39,8-12.92,2.08-6,3.12-8.66,1.06-11.13-9.37-1.13-8.45,19.88-11,17.81-15.39-12.43-19.06-20.86-28-21.47C12.89,42.74,45.85,69.25,50.75,71Z"/><path class="cls-3" d="M17.55,46.79S10.18,54.11,9.74,57s-.63,1.25,5-2.32,7.5-2.15,10.24-3.5c3-1.46,4.09-5.27.55-5S17.55,46.79,17.55,46.79Z"/><path class="cls-4" d="M26.16,43.16s-4.47-8.28-15-5.57C.92,40.22,2,43.45,2,43.45s10.67-2,15.36,1.45C21.76,48.11,30.45,51.28,26.16,43.16Z"/></g></svg>