<svg xmlns="http://www.w3.org/2000/svg" xmlns:xlink="http://www.w3.org/1999/xlink" viewBox="0 0 130 120"><defs><style>.cls-1{fill:gray;}.cls-11,.cls-12,.cls-2,.cls-3,.cls-4,.cls-5,.cls-6,.cls-7,.cls-8{stroke:#000;}.cls-10,.cls-11,.cls-12,.cls-2,.cls-3,.cls-4,.cls-5,.cls-6,.cls-7,.cls-8,.cls-9{stroke-miterlimit:10;}.cls-2{fill:url(#Безымянный_градиент_183);}.cls-3{fill:url(#Безымянный_градиент_15);}.cls-4{fill:url(#Безымянный_градиент_147);}.cls-5{fill:url(#Безымянный_градиент_148);}.cls-6{fill:url(#Безымянный_градиент_133);}.cls-7{fill:#b60000;}.cls-12,.cls-7{stroke-width:2px;}.cls-8{fill:#31c8c5;}.cls-10,.cls-9{stroke:#31c8c5;}.cls-9{fill:url(#Безымянный_градиент_169);}.cls-10{fill:url(#Безымянный_градиент_119);}.cls-11{fill:url(#Безымянный_градиент_127);}.cls-12{fill:#f9f912;}</style><linearGradient id="Безымянный_градиент_183" x1="106.15" y1="95.15" x2="134.37" y2="123.77" gradientTransform="translate(4.37 -16.92) rotate(2.8)" gradientUnits="userSpaceOnUse"><stop offset="0.01" stop-color="#4d4d4d"/><stop offset="0.08" stop-color="#4a4a4a"/><stop offset="0.14" stop-color="#404040"/><stop offset="0.2" stop-color="#2f2f2f"/><stop offset="0.25" stop-color="#171717"/><stop offset="0.29"/><stop offset="0.31" stop-color="#1b0d06"/><stop offset="0.34" stop-color="#3c1e0e"/><stop offset="0.37" stop-color="#592c15"/><stop offset="0.41" stop-color="#70381b"/><stop offset="0.45" stop-color="#82411f"/><stop offset="0.5" stop-color="#8f4722"/><stop offset="0.57" stop-color="#964b24"/><stop offset="0.72" stop-color="#984c24"/><stop offset="1" stop-color="#f9f912"/></linearGradient><linearGradient id="Безымянный_градиент_15" x1="67.39" y1="102.54" x2="55.44" y2="70.47" gradientUnits="userSpaceOnUse"><stop offset="0"/><stop offset="0.15" stop-color="#0c0c0c"/><stop offset="0.43" stop-color="#2d2d2d"/><stop offset="0.8" stop-color="#616161"/><stop offset="1" stop-color="gray"/></linearGradient><linearGradient id="Безымянный_градиент_147" x1="79.27" y1="114.49" x2="79.27" y2="78.81" gradientUnits="userSpaceOnUse"><stop offset="0.14"/><stop offset="0.24" stop-color="#151515"/><stop offset="0.43" stop-color="#4b4b4b"/><stop offset="0.6" stop-color="gray"/><stop offset="1" stop-color="#984c24"/></linearGradient><linearGradient id="Безымянный_градиент_148" x1="35.34" y1="111.6" x2="35.34" y2="78.57" gradientUnits="userSpaceOnUse"><stop offset="0.09"/><stop offset="0.2" stop-color="#151515"/><stop offset="0.41" stop-color="#4b4b4b"/><stop offset="0.6" stop-color="gray"/><stop offset="1" stop-color="#984c24"/></linearGradient><radialGradient id="Безымянный_градиент_133" cx="58.43" cy="63.35" r="68.49" gradientTransform="matrix(0.29, 0.94, -0.79, 0.23, 91.53, -5.04)" gradientUnits="userSpaceOnUse"><stop offset="0" stop-color="#984c24"/><stop offset="0.12" stop-color="#934a23"/><stop offset="0.25" stop-color="#864320"/><stop offset="0.38" stop-color="#70381a"/><stop offset="0.52" stop-color="#512813"/><stop offset="0.67" stop-color="#29140a"/><stop offset="0.79"/><stop offset="0.86" stop-color="#212121"/><stop offset="0.95" stop-color="#414141"/><stop offset="0.99" stop-color="#4d4d4d"/></radialGradient><linearGradient id="Безымянный_градиент_169" x1="112" y1="65.84" x2="72.75" y2="28.67" gradientUnits="userSpaceOnUse"><stop offset="0" stop-color="gray"/><stop offset="0.16" stop-color="#7c7c7c"/><stop offset="0.34" stop-color="#6f6f6f"/><stop offset="0.53" stop-color="#595959"/><stop offset="0.72" stop-color="#3b3b3b"/><stop offset="0.91" stop-color="#141414"/><stop offset="0.99"/></linearGradient><linearGradient id="Безымянный_градиент_119" x1="7.4" y1="48.58" x2="40.42" y2="48.58" gradientUnits="userSpaceOnUse"><stop offset="0" stop-color="gray"/><stop offset="0.17" stop-color="#7c7c7c"/><stop offset="0.35" stop-color="#707070"/><stop offset="0.53" stop-color="#5b5b5b"/><stop offset="0.71" stop-color="#3e3e3e"/><stop offset="0.89" stop-color="#191919"/><stop offset="0.99"/></linearGradient><radialGradient id="Безымянный_градиент_127" cx="62.01" cy="20.97" r="40.09" gradientTransform="matrix(1, 0, 0, 0.36, -0.02, 12.78)" gradientUnits="userSpaceOnUse"><stop offset="0.28" stop-color="#984c24"/><stop offset="0.39" stop-color="#864320"/><stop offset="0.62" stop-color="#582c15"/><stop offset="0.94" stop-color="#0e0703"/><stop offset="0.99"/></radialGradient></defs><title>враги2 атака</title><g id="Слой_10" data-name="Слой 10"><path class="cls-1" d="M56.58,70.16a11.17,11.17,0,0,1-3.82-3.38A4.07,4.07,0,0,1,52,63.89a4,4,0,0,1,1.59-2.51,11.1,11.1,0,0,1,4.7-2,11.09,11.09,0,0,1,3.84,3.38,4,4,0,0,1,.73,2.89,4.06,4.06,0,0,1-1.6,2.51A11.29,11.29,0,0,1,56.58,70.16Z"/></g><g id="Слой_9" data-name="Слой 9"><path class="cls-2" d="M91,68.81c2.77-29,13.5-7.36,17.14,4.87,6.54,21.95,18.84,30.11,21.21,35.48C130.66,112.21,94.8,114.81,91,68.81Z"/><path class="cls-3" d="M86.93,109.14C84.13,95.31,68,82.9,62.93,80.89c-2-.8-12.75.77-20.18,2.2,3.1,2.61,5,5.31,7.53,8.75C67.93,91.05,75,112.59,81,112.72,84.72,112.8,87.75,113.22,86.93,109.14Z"/><path class="cls-4" d="M98.93,116.37c-4.64-1.51-12.17-23.92-26.73-21.6C60.79,96.59,62.93,119.63,51,118.6c-2-1.82-.19-16.18,1.06-19.91,1.81-5.42,11.23-13.4,15.06-15.6,1.41-.82,11.6-7.33,20.46-.12,3.51,2.86,19.94,17.1,20.92,31.15C108.76,118.27,101.26,117.13,98.93,116.37Z"/><path class="cls-5" d="M44.77,89.27c-4.83-2.92-16-7.51-21.13,11.07-1,3.76-1.64,13.72,1,15.18,5.64,1.77,10.7-24.73,20-22.63C50.57,94.22,47.15,90.71,44.77,89.27Z"/><path class="cls-6" d="M104,60.31C91.54,40.43,89.68,29.23,65.7,29.23c-24.67,0-35.11,14.63-38.4,28.3-4.23,17.58,8.87,47.3,34.44,33.52,6-3.23,13.42-3.47,19.32,1.87,5,4.53,15,10,25,7.11C119.63,96,105.71,63,104,60.31Z"/><path class="cls-7" d="M57.4,42.5C46.15,42.56,37,57.81,37,60.91,37,64.83,44.54,77,55.79,77s24.87-9.81,23.86-13.74C78,56.7,68.66,42.45,57.4,42.5Z"/><path class="cls-1" d="M72.48,62.72A21.4,21.4,0,0,1,65,66.06a28.37,28.37,0,0,1-7.46.79,27.87,27.87,0,0,1-7.4-1.14A21.19,21.19,0,0,1,42.75,62a21.25,21.25,0,0,1,7.52-3.35,27.87,27.87,0,0,1,7.45-.78A28.3,28.3,0,0,1,65.13,59,21.6,21.6,0,0,1,72.48,62.72Z"/><path class="cls-8" d="M43.48,71.87s6.36-9.94,7-8c.5,1.47-.2,8.37-.52,11C49.78,76.52,43.48,71.87,43.48,71.87Z"/><path class="cls-8" d="M54.67,42.79c-.84,1.82,2.66,12.58,4.39,12.38s2.85-12.34,2.85-12.34S55.21,41.62,54.67,42.79Z"/><path class="cls-8" d="M61.75,43.18c-.44,1.22-.44,9.08.83,12.38.76,2,6-8.91,6-8.91S62.19,42,61.75,43.18Z"/><path class="cls-8" d="M53.89,42.94c1.39,1.25,1.15,12.84.65,13.41-1.29,1.5-7-10.34-7-10.34S53,42.14,53.89,42.94Z"/><path class="cls-8" d="M66.13,74c.47-2.58-1.94-10.24-.39-11.16s5.38,9.45,5.38,9.45S65.85,75.61,66.13,74Z"/><path class="cls-8" d="M46.94,46.28c1.55-.91.4,5.69.4,5.69L44.52,50.7l.09,4.24-2.42-1.32a15.45,15.45,0,0,1-.66,2.93c-.23.1-1.83-1.07-1.83-1.07S41.58,49.43,46.94,46.28Z"/><path class="cls-8" d="M68.76,47c-1.55-.93-.44,5.68-.44,5.68l2.83-1.24.78,3.76,2.12-1.26a25.71,25.71,0,0,0,.43,4,9.23,9.23,0,0,0,1.92-.34S74.1,50.14,68.76,47Z"/><path class="cls-8" d="M50.65,75.46c3.17,1.94,9.25,2.12,14-.3,1.39-.7-2.12-3.13-2.12-3.13l-1.08,2.53-2-1.87L58,75.17s-1.78-3.4-2-3.27-2,3-2,3a16.6,16.6,0,0,0-1.24-2.35C52.65,72.56,49.89,75,50.65,75.46Z"/><path class="cls-8" d="M71.62,72.33a4.82,4.82,0,0,1,.23-2.56c1.13-1.7,6.86-3.66,6.86-3.66Z"/><path class="cls-8" d="M43.48,71.87s.47-2.26-.27-2.65c-1.63-.86-6-5.15-6-5.15Z"/><path class="cls-9" d="M89,33c-.63,5.32,25.76,3,10.46,21.17C92.19,62.82,81,65.89,81.87,72.33c1.25,2.92,19.9,2.09,31.8-21.64,9.36-18.68-13.41-32-25.26-30.6C84.28,20.57,89.3,30.58,89,33Z"/><path class="cls-8" d="M89.28,62.57c-5.44,3.17-12.17,9.21-12.77,12.74,0,1.45,11.81-1.07,19.15-4.59C93.52,67.44,92.55,64.65,89.28,62.57Z"/><path class="cls-10" d="M40.38,35.21c1,1.95-15.55-9.23-21.65,20.35-2.9,14-1.18,12.11-9.37,21.32-3,2-2.66-13.38,1.76-31.68C14.52,31.09,27,20.15,38.55,20.09,41.81,20.08,35.49,25.73,40.38,35.21Z"/><path class="cls-8" d="M7.55,64.75c-2,7.09-1.42,19.62.09,19.7,4.18-2.72,6.57-10.34,8.19-14.89C14.28,66.18,10.93,65.44,7.55,64.75Z"/><path class="cls-11" d="M37.07,28.06C36.35,14.73,49.63,2.18,63.19,2.18S89.91,17.73,89.91,30.71s-14.73,0-28.29,0S37.81,41.94,37.07,28.06Z"/><path class="cls-12" d="M62.73,3.55c-8,0-15.58,5.43-15.57,6.74,0,2.83,7.27,4.39,15.31,4.36S77,12.41,76.28,10.76C75.08,8,70.77,3.53,62.73,3.55Z"/><path d="M52.69,9a14.54,14.54,0,0,1,4.67-1.92A20.58,20.58,0,0,1,62,6.59a20,20,0,0,1,4.65.57,14.08,14.08,0,0,1,4.64,2,14.35,14.35,0,0,1-4.67,1.93,20,20,0,0,1-4.66.49A20.56,20.56,0,0,1,57.33,11,14.26,14.26,0,0,1,52.69,9Z"/><path class="cls-12" d="M49.88,16.76C43.66,18.48,38.75,26.14,39,27.61c.53,3.17,6.41,3.42,12.63,1.7s10.87-5.57,10-7.28A10,10,0,0,0,49.88,16.76Z"/><path d="M43.05,25a11.56,11.56,0,0,1,3.23-2.45,16.5,16.5,0,0,1,7.23-1.87,11.58,11.58,0,0,1,4,.59,11.52,11.52,0,0,1-3.22,2.46,16.68,16.68,0,0,1-3.51,1.34,16.53,16.53,0,0,1-3.73.52A11.62,11.62,0,0,1,43.05,25Z"/><path class="cls-12" d="M77.67,16.49C71.47,15.43,65,21,64.8,22.63c-.34,3.47,5,6.37,11.23,7.43s11.48-.77,11.14-2.9C86.61,23.61,83.86,17.55,77.67,16.49Z"/><path d="M69.22,21.81A11.36,11.36,0,0,1,73.1,21a15.74,15.74,0,0,1,7.16,1.36,10.9,10.9,0,0,1,3.29,2.23,10.86,10.86,0,0,1-3.88.86A15.58,15.58,0,0,1,72.51,24,11.17,11.17,0,0,1,69.22,21.81Z"/><path class="cls-1" d="M57.1,69.84a10,10,0,0,1-3.59-3.07,3.78,3.78,0,0,1,.59-5.24,10.16,10.16,0,0,1,4.2-2.17,10.12,10.12,0,0,1,3.61,3.07,4,4,0,0,1,.76,2.74,4,4,0,0,1-1.38,2.5A10.18,10.18,0,0,1,57.1,69.84Z"/></g></svg>