<svg xmlns="http://www.w3.org/2000/svg" xmlns:xlink="http://www.w3.org/1999/xlink" viewBox="0 0 130 120"><defs><style>.cls-1,.cls-11,.cls-12,.cls-2,.cls-3,.cls-4,.cls-5,.cls-6,.cls-8{stroke:#000;}.cls-1,.cls-10,.cls-11,.cls-12,.cls-2,.cls-3,.cls-4,.cls-5,.cls-6,.cls-8,.cls-9{stroke-miterlimit:10;}.cls-1{fill:url(#Безымянный_градиент_183);}.cls-2{fill:url(#Безымянный_градиент_15);}.cls-3{fill:url(#Безымянный_градиент_147);}.cls-4{fill:url(#Безымянный_градиент_148);}.cls-5{fill:url(#Безымянный_градиент_133);}.cls-6{fill:#b60000;}.cls-12,.cls-6{stroke-width:2px;}.cls-7{fill:gray;}.cls-8{fill:#31c8c5;}.cls-10,.cls-9{stroke:#31c8c5;}.cls-9{fill:url(#Безымянный_градиент_169);}.cls-10{fill:url(#Безымянный_градиент_119);}.cls-11{fill:url(#Безымянный_градиент_127);}.cls-12{fill:#f9f912;}</style><linearGradient id="Безымянный_градиент_183" x1="105.15" y1="64.69" x2="133.37" y2="93.31" gradientTransform="translate(-11.61 36.12) rotate(-7.64)" gradientUnits="userSpaceOnUse"><stop offset="0.01" stop-color="#4d4d4d"/><stop offset="0.08" stop-color="#4a4a4a"/><stop offset="0.14" stop-color="#404040"/><stop offset="0.2" stop-color="#2f2f2f"/><stop offset="0.25" stop-color="#171717"/><stop offset="0.29"/><stop offset="0.31" stop-color="#1b0d06"/><stop offset="0.34" stop-color="#3c1e0e"/><stop offset="0.37" stop-color="#592c15"/><stop offset="0.41" stop-color="#70381b"/><stop offset="0.45" stop-color="#82411f"/><stop offset="0.5" stop-color="#8f4722"/><stop offset="0.57" stop-color="#964b24"/><stop offset="0.72" stop-color="#984c24"/><stop offset="1" stop-color="#f9f912"/></linearGradient><linearGradient id="Безымянный_градиент_15" x1="65.16" y1="105.03" x2="53.01" y2="72.43" gradientUnits="userSpaceOnUse"><stop offset="0"/><stop offset="0.15" stop-color="#0c0c0c"/><stop offset="0.43" stop-color="#2d2d2d"/><stop offset="0.8" stop-color="#616161"/><stop offset="1" stop-color="gray"/></linearGradient><linearGradient id="Безымянный_градиент_147" x1="75.27" y1="114.64" x2="75.27" y2="81.27" gradientUnits="userSpaceOnUse"><stop offset="0.14"/><stop offset="0.24" stop-color="#151515"/><stop offset="0.43" stop-color="#4b4b4b"/><stop offset="0.6" stop-color="gray"/><stop offset="1" stop-color="#984c24"/></linearGradient><linearGradient id="Безымянный_градиент_148" x1="29.46" y1="114.09" x2="29.46" y2="81.71" gradientUnits="userSpaceOnUse"><stop offset="0.09"/><stop offset="0.2" stop-color="#151515"/><stop offset="0.41" stop-color="#4b4b4b"/><stop offset="0.6" stop-color="gray"/><stop offset="1" stop-color="#984c24"/></linearGradient><radialGradient id="Безымянный_градиент_133" cx="53.99" cy="64.6" r="68.38" gradientTransform="matrix(0.29, 0.94, -0.79, 0.23, 89.34, 0.04)" gradientUnits="userSpaceOnUse"><stop offset="0" stop-color="#984c24"/><stop offset="0.12" stop-color="#934a23"/><stop offset="0.25" stop-color="#864320"/><stop offset="0.38" stop-color="#70381a"/><stop offset="0.52" stop-color="#512813"/><stop offset="0.67" stop-color="#29140a"/><stop offset="0.79"/><stop offset="0.86" stop-color="#212121"/><stop offset="0.95" stop-color="#414141"/><stop offset="0.99" stop-color="#4d4d4d"/></radialGradient><linearGradient id="Безымянный_градиент_169" x1="108.48" y1="69.47" x2="66.53" y2="29.74" gradientUnits="userSpaceOnUse"><stop offset="0" stop-color="gray"/><stop offset="0.16" stop-color="#7c7c7c"/><stop offset="0.34" stop-color="#6f6f6f"/><stop offset="0.53" stop-color="#595959"/><stop offset="0.72" stop-color="#3b3b3b"/><stop offset="0.91" stop-color="#141414"/><stop offset="0.99"/></linearGradient><linearGradient id="Безымянный_градиент_119" x1="5.25" y1="52.25" x2="36.7" y2="52.25" gradientUnits="userSpaceOnUse"><stop offset="0" stop-color="gray"/><stop offset="0.17" stop-color="#7c7c7c"/><stop offset="0.35" stop-color="#707070"/><stop offset="0.53" stop-color="#5b5b5b"/><stop offset="0.71" stop-color="#3e3e3e"/><stop offset="0.89" stop-color="#191919"/><stop offset="0.99"/></linearGradient><radialGradient id="Безымянный_градиент_127" cx="56.58" cy="23.01" r="40.09" gradientTransform="matrix(1, 0, 0, 0.36, -0.02, 13.92)" gradientUnits="userSpaceOnUse"><stop offset="0.28" stop-color="#984c24"/><stop offset="0.39" stop-color="#864320"/><stop offset="0.62" stop-color="#582c15"/><stop offset="0.94" stop-color="#0e0703"/><stop offset="0.99"/></radialGradient></defs><title>враги2 атака</title><g id="Слой_10" data-name="Слой 10"><path class="cls-1" d="M84,74.68C81.5,45.63,96,65,101.78,76.36c10.41,20.41,24,26.2,27.29,31.06C130.94,110.17,96.14,119.23,84,74.68Z"/><path class="cls-2" d="M85.68,111.54c-2.8-13.83-20.91-26.24-26-28.25-2-.8-12.76.77-20.18,2.2,3.09,2.61,5,5.31,7.53,8.75,17.64-.79,26.71,20.75,32.72,20.88C83.47,115.2,86.51,115.62,85.68,111.54Z"/><path class="cls-3" d="M99.69,117.77C95,116.26,83.52,94.85,69,97.17c-11.41,1.82-15.15,22-27.11,20.91-2.05-1.82,2.3-13.13,3.54-16.85C47.21,95.8,60,87.69,63.85,85.49c1.4-.82,11.59-7.33,20.46-.12,3.51,2.86,23.94,16.1,24.92,30.15C109.52,119.67,102,118.53,99.69,117.77Z"/><path class="cls-4" d="M41.53,91.67c-4.83-2.92-12.11-5.34-23.26,10.5C16,105.36,10.93,118,17.4,117.92c5.65,1.77,14.71-24.73,24-22.63C47.32,96.62,43.9,93.11,41.53,91.67Z"/><path class="cls-5" d="M99.58,61.34C87.1,41.47,86.12,30.62,62.14,30.62c-24.67,0-36,14.28-39.28,28-4.22,17.57,8.88,47.3,34.45,33.51,6-3.22,13.42-3.47,19.31,1.88,5,4.52,15,10.05,25,7.11C115.19,97.06,101.27,64.05,99.58,61.34Z"/><path class="cls-6" d="M52.93,43.54C41.13,43.59,31.5,58.84,31.5,62c0,3.92,7.93,16.12,19.73,16.06s26.08-9.81,25-13.74C74.5,57.73,64.73,43.48,52.93,43.54Z"/><path class="cls-7" d="M67.28,63.73a19.27,19.27,0,0,1-7,3.36,24.44,24.44,0,0,1-6.91.8,24.07,24.07,0,0,1-6.87-1.12,19,19,0,0,1-6.8-3.71,19.19,19.19,0,0,1,7-3.37,24.14,24.14,0,0,1,6.92-.79A24.45,24.45,0,0,1,60.47,60,19.4,19.4,0,0,1,67.28,63.73Z"/><path class="cls-8" d="M38.77,72.9s6.48-9.94,7.14-8c.51,1.47-.2,8.37-.53,11.06C45.19,77.56,38.77,72.9,38.77,72.9Z"/><path class="cls-8" d="M50.17,43.82c-.86,1.82,2.7,12.58,4.47,12.39s2.9-12.35,2.9-12.35S50.72,42.66,50.17,43.82Z"/><path class="cls-8" d="M57.38,44.22c-.45,1.21-.45,9.07.85,12.38.77,1.95,6.11-8.92,6.11-8.92S57.83,43,57.38,44.22Z"/><path class="cls-8" d="M49.37,44c1.42,1.25,1.17,12.84.67,13.42-1.32,1.5-7.14-10.34-7.14-10.34S48.47,43.17,49.37,44Z"/><path class="cls-8" d="M61.85,75.07c.47-2.58-2-10.24-.4-11.16s5.47,9.45,5.47,9.45S61.56,76.65,61.85,75.07Z"/><path class="cls-8" d="M32.41,59.69s4.42-9.22,9.88-12.37c1.58-.91.41,5.68.41,5.68l-2.87-1.26L39.92,56l-2.47-1.31a14.93,14.93,0,0,1-.67,2.93c-.23.1-1.86-1.07-1.86-1.07a28,28,0,0,1,.16,3.38A15.06,15.06,0,0,1,32.41,59.69Z"/><path class="cls-8" d="M75,61.37S70,51.17,64.52,48c-1.58-.93-.45,5.68-.45,5.68L67,52.42l.79,3.77,2.17-1.26a24.47,24.47,0,0,0,.44,4,9.66,9.66,0,0,0,2-.34s.52,2.64.64,2.79A9.7,9.7,0,0,0,75,61.37Z"/><path class="cls-8" d="M45.29,76.29c3.61,2.12,10.6,2.18,16.17-.68,1.61-.83-2.36-3.51-2.36-3.51L57.79,75l-2.3-2.09-1.74,2.87s-2-3.83-2.18-3.68-2.36,3.46-2.36,3.46a19.09,19.09,0,0,0-1.37-2.65C47.66,72.93,44.43,75.78,45.29,76.29Z"/><path class="cls-8" d="M67.43,73.36s-.51-3.56,0-4.31c1.16-1.7,7.22-1.91,7.22-1.91Z"/><path class="cls-8" d="M38.77,72.9s1.41-4.08.66-4.46c-1.67-.86-7-3.34-7-3.34Z"/><path class="cls-9" d="M83,35.3c4.83,4.67,22.67,6,11.35,19.06-7.55,8.71-13.85,17.74-15,23.82.5,2.7,22.93-4.41,31.27-26.81,7.3-19.58-16.41-31.22-28.26-29.85C78.21,22,81.18,33.6,83,35.3Z"/><path class="cls-8" d="M85.08,65.85C81.87,70.42,75.75,78,75.14,81.41c.26,1.43,11.47-3,18.14-7.64C90.63,70.88,88.65,67.37,85.08,65.85Z"/><path class="cls-10" d="M36.66,35.54c1,2-22.07,5.2-20.3,23.2C17.53,70.66,23.28,75,19,82,17.83,84.5,6.12,74.25,5.27,53.76c-.6-14.5,16.29-31.58,27.85-31.63C36.38,22.11,31.78,26.07,36.66,35.54Z"/><path class="cls-8" d="M10.09,72.86c2.42,7,10,16.94,11.29,16.15,1.88-4.61-.48-12.24-1.73-16.91C16.44,70.2,13.27,71.5,10.09,72.86Z"/><path class="cls-11" d="M31.63,29.71C30.92,16.58,44.19,4.22,57.75,4.22s26.72,15.31,26.72,28.1-14.73,0-28.29,0S32.38,43.39,31.63,29.71Z"/><path class="cls-12" d="M57.3,5.57c-8,0-15.59,5.35-15.57,6.64C41.76,15,49,16.53,57,16.5s14.53-2.2,13.81-3.84C69.65,9.94,65.33,5.54,57.3,5.57Z"/><path d="M47.25,11A14.06,14.06,0,0,1,51.93,9a20.15,20.15,0,0,1,9.31.07,13.93,13.93,0,0,1,4.64,2A14.35,14.35,0,0,1,61.21,13a20,20,0,0,1-4.66.49,20,20,0,0,1-4.66-.58A14.63,14.63,0,0,1,47.25,11Z"/><path class="cls-12" d="M44.45,18.58c-6.23,1.69-11.13,9.24-10.89,10.69.52,3.12,6.4,3.36,12.63,1.67s10.87-5.48,10-7.17A10,10,0,0,0,44.45,18.58Z"/><path d="M37.62,26.71a11.52,11.52,0,0,1,3.23-2.44,16.47,16.47,0,0,1,3.51-1.34,15.88,15.88,0,0,1,3.72-.5,11.37,11.37,0,0,1,4,.6,11.37,11.37,0,0,1-3.23,2.45,16.11,16.11,0,0,1-3.51,1.33,16.51,16.51,0,0,1-3.73.5A11.79,11.79,0,0,1,37.62,26.71Z"/><path class="cls-12" d="M72.23,18.31c-6.19-1-12.71,4.47-12.86,6.05-.34,3.42,5,6.27,11.22,7.32s11.48-.76,11.15-2.85C81.18,25.33,78.43,19.36,72.23,18.31Z"/><path d="M63.79,23.56a11.1,11.1,0,0,1,3.87-.87A15.38,15.38,0,0,1,74.82,24a10.86,10.86,0,0,1,3.3,2.21,10.9,10.9,0,0,1-3.87.88,15.57,15.57,0,0,1-7.17-1.35A11.33,11.33,0,0,1,63.79,23.56Z"/></g></svg>