<svg xmlns="http://www.w3.org/2000/svg" xmlns:xlink="http://www.w3.org/1999/xlink" viewBox="0 0 130 120"><defs><style>.cls-1,.cls-11,.cls-12,.cls-2,.cls-3,.cls-4,.cls-5,.cls-6,.cls-8{stroke:#000;}.cls-1,.cls-10,.cls-11,.cls-12,.cls-2,.cls-3,.cls-4,.cls-5,.cls-6,.cls-8,.cls-9{stroke-miterlimit:10;}.cls-1{fill:url(#Безымянный_градиент_183);}.cls-2{fill:url(#Безымянный_градиент_15);}.cls-3{fill:url(#Безымянный_градиент_147);}.cls-4{fill:url(#Безымянный_градиент_148);}.cls-5{fill:url(#Безымянный_градиент_133);}.cls-6{fill:#b60000;}.cls-12,.cls-6{stroke-width:2px;}.cls-7{fill:gray;}.cls-8{fill:#31c8c5;}.cls-10,.cls-9{stroke:#31c8c5;}.cls-9{fill:url(#Безымянный_градиент_119);}.cls-10{fill:url(#Безымянный_градиент_169);}.cls-11{fill:url(#Безымянный_градиент_127);}.cls-12{fill:#f9f912;}</style><linearGradient id="Безымянный_градиент_183" x1="106.19" y1="108.09" x2="135.14" y2="137.45" gradientTransform="translate(22.04 -40.39) rotate(10.65)" gradientUnits="userSpaceOnUse"><stop offset="0.01" stop-color="#4d4d4d"/><stop offset="0.08" stop-color="#4a4a4a"/><stop offset="0.14" stop-color="#404040"/><stop offset="0.2" stop-color="#2f2f2f"/><stop offset="0.25" stop-color="#171717"/><stop offset="0.29"/><stop offset="0.31" stop-color="#1b0d06"/><stop offset="0.34" stop-color="#3c1e0e"/><stop offset="0.37" stop-color="#592c15"/><stop offset="0.41" stop-color="#70381b"/><stop offset="0.45" stop-color="#82411f"/><stop offset="0.5" stop-color="#8f4722"/><stop offset="0.57" stop-color="#964b24"/><stop offset="0.72" stop-color="#984c24"/><stop offset="1" stop-color="#f9f912"/></linearGradient><linearGradient id="Безымянный_градиент_15" x1="68.58" y1="102.9" x2="56.63" y2="70.83" gradientUnits="userSpaceOnUse"><stop offset="0"/><stop offset="0.15" stop-color="#0c0c0c"/><stop offset="0.43" stop-color="#2d2d2d"/><stop offset="0.8" stop-color="#616161"/><stop offset="1" stop-color="gray"/></linearGradient><linearGradient id="Безымянный_градиент_147" x1="80.46" y1="114.86" x2="80.46" y2="79.18" gradientUnits="userSpaceOnUse"><stop offset="0.14"/><stop offset="0.24" stop-color="#151515"/><stop offset="0.43" stop-color="#4b4b4b"/><stop offset="0.6" stop-color="gray"/><stop offset="1" stop-color="#984c24"/></linearGradient><linearGradient id="Безымянный_градиент_148" x1="36.53" y1="111.97" x2="36.53" y2="78.94" gradientUnits="userSpaceOnUse"><stop offset="0.09"/><stop offset="0.2" stop-color="#151515"/><stop offset="0.41" stop-color="#4b4b4b"/><stop offset="0.6" stop-color="gray"/><stop offset="1" stop-color="#984c24"/></linearGradient><radialGradient id="Безымянный_градиент_133" cx="60.2" cy="61.78" r="67.43" gradientTransform="matrix(0.29, 0.94, -0.79, 0.23, 91.56, -7.87)" gradientUnits="userSpaceOnUse"><stop offset="0" stop-color="#984c24"/><stop offset="0.12" stop-color="#934a23"/><stop offset="0.25" stop-color="#864320"/><stop offset="0.38" stop-color="#70381a"/><stop offset="0.52" stop-color="#512813"/><stop offset="0.67" stop-color="#29140a"/><stop offset="0.79"/><stop offset="0.86" stop-color="#212121"/><stop offset="0.95" stop-color="#414141"/><stop offset="0.99" stop-color="#4d4d4d"/></radialGradient><linearGradient id="Безымянный_градиент_119" x1="5.94" y1="47.8" x2="43.01" y2="47.8" gradientUnits="userSpaceOnUse"><stop offset="0" stop-color="gray"/><stop offset="0.17" stop-color="#7c7c7c"/><stop offset="0.35" stop-color="#707070"/><stop offset="0.53" stop-color="#5b5b5b"/><stop offset="0.71" stop-color="#3e3e3e"/><stop offset="0.89" stop-color="#191919"/><stop offset="0.99"/></linearGradient><linearGradient id="Безымянный_градиент_169" x1="120.13" y1="65.39" x2="76.08" y2="23.67" gradientUnits="userSpaceOnUse"><stop offset="0" stop-color="gray"/><stop offset="0.16" stop-color="#7c7c7c"/><stop offset="0.34" stop-color="#6f6f6f"/><stop offset="0.53" stop-color="#595959"/><stop offset="0.72" stop-color="#3b3b3b"/><stop offset="0.91" stop-color="#141414"/><stop offset="0.99"/></linearGradient><radialGradient id="Безымянный_градиент_127" cx="62.01" cy="21.66" r="40.09" gradientTransform="matrix(1, 0, 0, 0.37, -0.02, 11.33)" gradientUnits="userSpaceOnUse"><stop offset="0.28" stop-color="#984c24"/><stop offset="0.39" stop-color="#864320"/><stop offset="0.62" stop-color="#582c15"/><stop offset="0.94" stop-color="#0e0703"/><stop offset="0.99"/></radialGradient></defs><title>враги2 атака</title><g id="Слой_12" data-name="Слой 12"><path class="cls-1" d="M93.09,68.64c6.72-28.37,14.38-5.45,16.32,7.17,3.48,22.64,17.55,32.4,19.16,38.05C129.48,117.06,90.6,114.74,93.09,68.64Z"/><path class="cls-2" d="M88.12,109.51c-2.8-13.83-18.91-26.25-24-28.26-2-.79-12.75.78-20.18,2.21,3.1,2.61,5,5.31,7.53,8.74,17.65-.78,24.71,20.76,30.72,20.89C85.91,113.17,88.94,113.58,88.12,109.51Z"/><path class="cls-3" d="M100.12,116.73C95.48,115.22,88,92.82,73.39,95.14,62,97,64.12,120,52.16,119c-2-1.82-.19-16.18,1.06-19.9,1.81-5.43,11.23-13.4,15.06-15.6,1.41-.82,11.6-7.33,20.46-.12,3.51,2.86,19.94,17.09,20.92,31.15C110,118.63,102.45,117.49,100.12,116.73Z"/><path class="cls-4" d="M46,89.64C41.13,86.71,30,82.13,24.83,100.71c-1,3.75-1.64,13.71,1,15.17,5.64,1.78,10.7-24.72,20-22.63C51.76,94.59,48.34,91.08,46,89.64Z"/><path class="cls-5" d="M106.59,57.9C94.11,38,91.29,30.15,67.31,30.15c-24.67,0-35.29,12.5-38.58,26.17C24.5,73.9,37.6,103.62,63.17,89.84c6-3.23,13.42-3.47,19.32,1.87,5,4.53,15.86,6.61,25.81,3.67C121.89,91.37,108.28,60.61,106.59,57.9Z"/><path class="cls-6" d="M59.44,41.5c-10.42,0-18.9,15.27-18.89,18.37,0,3.92,7,16.14,17.45,16.1s23-9.76,22.08-13.69C78.52,55.73,69.87,41.47,59.44,41.5Z"/><path class="cls-7" d="M75.74,61.75a21.64,21.64,0,0,1-8,4.12,26.85,26.85,0,0,1-15.71-.37A21.25,21.25,0,0,1,44.32,61a21.4,21.4,0,0,1,8-4.14,26.08,26.08,0,0,1,7.88-1A26.43,26.43,0,0,1,68,57.24,21.65,21.65,0,0,1,75.74,61.75Z"/><path class="cls-8" d="M44.72,68.86s5.83-8.93,6.62-7c.59,1.47-.24,8.37-.63,11C50.48,74.52,44.72,68.86,44.72,68.86Z"/><path class="cls-8" d="M55.94,41.79c-1,1.82,3.19,12.58,5.26,12.38s3.22-12,3.22-12S56.59,40.62,55.94,41.79Z"/><path class="cls-8" d="M64.34,42.44c-.53,1.22-.45,8.82,1.09,12.12.9,2,6.7-7.45,6.7-7.45S64.87,41.22,64.34,42.44Z"/><path class="cls-8" d="M55.18,42.11c1.66,1.25,1.21,12.67.61,13.24-1.55,1.5-7.66-9.1-7.66-9.1S54.11,41.31,55.18,42.11Z"/><path class="cls-8" d="M69.35,72.73c.55-2.58-2-9.93-.14-10.85s6,7.6,6,7.6S69,74.31,69.35,72.73Z"/><path class="cls-8" d="M47.87,46.56c1.29-1.12.39,5.07.39,5.07L45.52,50.5l.08,3.77L43.24,53.1S43.77,50.12,47.87,46.56Z"/><path class="cls-8" d="M72.64,47.49c-1.38-1.27-1.08,3.87-1.08,3.87l3.25-.47.27,3.29,2.21.37S76.66,51.18,72.64,47.49Z"/><path class="cls-8" d="M52.62,74.36C56.05,76,61.75,76,66.58,74c1.4-.59-1.76-2.47-1.76-2.47l-1,2.15-2.25-1.62-1.36,2.12A21.4,21.4,0,0,0,58,71.35c-.18.11-1.88,2.55-1.88,2.55a16.81,16.81,0,0,0-1.44-2C54.52,71.89,51.8,74,52.62,74.36Z"/><path class="cls-9" d="M42.32,34.44c0,2.19-16.6-6.06-21.58,15.34C19,57.44,15.46,74.3,6.29,73.05c-1.07-7.94.28-4.06,4.85-26.82C14,32,29.63,22.54,41.2,22.48,44.45,22.47,42.32,32.16,42.32,34.44Z"/><path class="cls-8" d="M6.91,63.45A54.1,54.1,0,0,0,1.47,79c-.29,1.93,1.54.7,3.27-.3,3.17-1.82,7.68-6.12,8.92-9.24C13.6,66.33,9.33,65.11,6.91,63.45Z"/><path class="cls-10" d="M88.23,33.25c-.63,5.32,25.06-5.05,24,12.62-.31,5.06-15.57,7.78-27.18,19.95,22,0,43-9.78,38.78-25.69C119.32,23.08,99.48,19,87.63,20.33,83.51,20.81,88.52,30.81,88.23,33.25Z"/><path class="cls-8" d="M96,56.75c-5.17,1.73-13.45,6-15.56,7.91-.2,1.31,9.42,2.57,16.79.67C95.78,62,98.77,59.18,96,56.75Z"/><path class="cls-11" d="M37.07,27.32C36.35,13.6,49.63.68,63.19.68S89.91,16.68,89.91,30s-14.73,0-28.29,0S37.81,41.61,37.07,27.32Z"/><path class="cls-12" d="M62.73,2.09c-8,0-15.58,6.67-15.57,8.28,0,3.47,7.27,5.39,15.31,5.36S77,13,76.28,10.94A14.1,14.1,0,0,0,62.73,2.09Z"/><path d="M52.69,8.8a14.29,14.29,0,0,1,4.67-1.91A20.38,20.38,0,0,1,66.68,7a14.37,14.37,0,0,1,4.63,2,14.32,14.32,0,0,1-4.67,1.92,20,20,0,0,1-4.67.48,20,20,0,0,1-4.65-.59A14.3,14.3,0,0,1,52.69,8.8Z"/><path class="cls-12" d="M49.88,16.39C43.66,17.94,38.75,24.88,39,26.21c.53,2.87,6.41,3.09,12.63,1.54s10.87-5,10-6.6A10.35,10.35,0,0,0,49.88,16.39Z"/><path d="M43.05,23.86a11.42,11.42,0,0,1,3.26-2.37,16.23,16.23,0,0,1,7.24-1.7,11.3,11.3,0,0,1,4,.69,11.52,11.52,0,0,1-3.26,2.38A16.21,16.21,0,0,1,47,24.54,11.57,11.57,0,0,1,43.05,23.86Z"/><path class="cls-12" d="M77.67,16.14c-6.2-1-12.71,4.11-12.87,5.56-.34,3.14,5,5.77,11.23,6.73s11.48-.7,11.14-2.63C86.61,22.59,83.86,17.1,77.67,16.14Z"/><path d="M69.22,21A11.09,11.09,0,0,1,73.07,20a15.9,15.9,0,0,1,7.17,1.23,10.86,10.86,0,0,1,3.31,2.17,10.82,10.82,0,0,1-3.85.93,15.37,15.37,0,0,1-7.16-1.24A11.17,11.17,0,0,1,69.22,21Z"/><path class="cls-7" d="M57.89,76a13.54,13.54,0,0,1-4.15-5.16A7.16,7.16,0,0,1,55.4,62.5a13.51,13.51,0,0,1,5.86-3.14,13.52,13.52,0,0,1,4.17,5.17A7.36,7.36,0,0,1,66,69a7.58,7.58,0,0,1-2.22,3.88A13.54,13.54,0,0,1,57.89,76Z"/></g></svg>