<svg xmlns="http://www.w3.org/2000/svg" xmlns:xlink="http://www.w3.org/1999/xlink" viewBox="0 0 130 120"><defs><style>.cls-1,.cls-11,.cls-12,.cls-2,.cls-3,.cls-4,.cls-5,.cls-6,.cls-8{stroke:#000;}.cls-1,.cls-10,.cls-11,.cls-12,.cls-2,.cls-3,.cls-4,.cls-5,.cls-6,.cls-8,.cls-9{stroke-miterlimit:10;}.cls-1{fill:url(#Безымянный_градиент_15);}.cls-2{fill:url(#Безымянный_градиент_147);}.cls-3{fill:url(#Безымянный_градиент_183);}.cls-4{fill:url(#Безымянный_градиент_148);}.cls-5{fill:url(#Безымянный_градиент_133);}.cls-6{fill:#b60000;}.cls-12,.cls-6{stroke-width:2px;}.cls-7{fill:gray;}.cls-8{fill:#31c8c5;}.cls-10,.cls-9{stroke:#31c8c5;}.cls-9{fill:url(#Безымянный_градиент_119);}.cls-10{fill:url(#Безымянный_градиент_169);}.cls-11{fill:url(#Безымянный_градиент_127);}.cls-12{fill:#f9f912;}</style><linearGradient id="Безымянный_градиент_15" x1="73.9" y1="101.93" x2="62.46" y2="71.24" gradientUnits="userSpaceOnUse"><stop offset="0"/><stop offset="0.15" stop-color="#0c0c0c"/><stop offset="0.43" stop-color="#2d2d2d"/><stop offset="0.8" stop-color="#616161"/><stop offset="1" stop-color="gray"/></linearGradient><linearGradient id="Безымянный_градиент_147" x1="79.83" y1="113.5" x2="79.83" y2="79.21" gradientUnits="userSpaceOnUse"><stop offset="0.14"/><stop offset="0.24" stop-color="#151515"/><stop offset="0.43" stop-color="#4b4b4b"/><stop offset="0.6" stop-color="gray"/><stop offset="1" stop-color="#984c24"/></linearGradient><linearGradient id="Безымянный_градиент_183" x1="108.35" y1="118.62" x2="136.57" y2="147.24" gradientTransform="matrix(0.99, 0.16, -0.16, 0.99, 20.06, -48.48)" gradientUnits="userSpaceOnUse"><stop offset="0.01" stop-color="#4d4d4d"/><stop offset="0.08" stop-color="#4a4a4a"/><stop offset="0.14" stop-color="#404040"/><stop offset="0.2" stop-color="#2f2f2f"/><stop offset="0.25" stop-color="#171717"/><stop offset="0.29"/><stop offset="0.31" stop-color="#1b0d06"/><stop offset="0.34" stop-color="#3c1e0e"/><stop offset="0.37" stop-color="#592c15"/><stop offset="0.41" stop-color="#70381b"/><stop offset="0.45" stop-color="#82411f"/><stop offset="0.5" stop-color="#8f4722"/><stop offset="0.57" stop-color="#964b24"/><stop offset="0.72" stop-color="#984c24"/><stop offset="1" stop-color="#f9f912"/></linearGradient><linearGradient id="Безымянный_градиент_148" x1="42.03" y1="115.46" x2="42.03" y2="83.12" gradientTransform="translate(-32.18 16.06) rotate(-19.55)" gradientUnits="userSpaceOnUse"><stop offset="0.09"/><stop offset="0.2" stop-color="#151515"/><stop offset="0.41" stop-color="#4b4b4b"/><stop offset="0.6" stop-color="gray"/><stop offset="1" stop-color="#984c24"/></linearGradient><radialGradient id="Безымянный_градиент_133" cx="63.09" cy="60.88" r="68.55" gradientTransform="matrix(0.29, 0.94, -0.79, 0.23, 92.92, -11.25)" gradientUnits="userSpaceOnUse"><stop offset="0" stop-color="#984c24"/><stop offset="0.12" stop-color="#934a23"/><stop offset="0.25" stop-color="#864320"/><stop offset="0.38" stop-color="#70381a"/><stop offset="0.52" stop-color="#512813"/><stop offset="0.67" stop-color="#29140a"/><stop offset="0.79"/><stop offset="0.86" stop-color="#212121"/><stop offset="0.95" stop-color="#414141"/><stop offset="0.99" stop-color="#4d4d4d"/></radialGradient><linearGradient id="Безымянный_градиент_119" x1="2.48" y1="43.19" x2="47.62" y2="43.19" gradientUnits="userSpaceOnUse"><stop offset="0" stop-color="gray"/><stop offset="0.17" stop-color="#7c7c7c"/><stop offset="0.35" stop-color="#707070"/><stop offset="0.53" stop-color="#5b5b5b"/><stop offset="0.71" stop-color="#3e3e3e"/><stop offset="0.89" stop-color="#191919"/><stop offset="0.99"/></linearGradient><linearGradient id="Безымянный_градиент_169" x1="118.31" y1="65.75" x2="75.84" y2="25.52" gradientUnits="userSpaceOnUse"><stop offset="0" stop-color="gray"/><stop offset="0.16" stop-color="#7c7c7c"/><stop offset="0.34" stop-color="#6f6f6f"/><stop offset="0.53" stop-color="#595959"/><stop offset="0.72" stop-color="#3b3b3b"/><stop offset="0.91" stop-color="#141414"/><stop offset="0.99"/></linearGradient><radialGradient id="Безымянный_градиент_127" cx="69.01" cy="19.97" r="40.09" gradientTransform="matrix(1, 0, 0, 0.38, -0.02, 12.65)" gradientUnits="userSpaceOnUse"><stop offset="0.28" stop-color="#984c24"/><stop offset="0.39" stop-color="#864320"/><stop offset="0.62" stop-color="#582c15"/><stop offset="0.94" stop-color="#0e0703"/><stop offset="0.99"/></radialGradient></defs><title>враги2 атака</title><g id="Слой_13" data-name="Слой 13"><path class="cls-1" d="M89.12,109.51c.13-13.68.13-26.21-19-28.26C68,81,57.37,82,49.94,83.46c3.1,2.61,5,5.31,7.53,8.74C87.4,90.33,77.18,113,83.19,113.09,86.91,113.17,89.07,113.67,89.12,109.51Z"/><path class="cls-2" d="M94.12,116.73c-4.64-1.51,0-21.52-14.73-21.59-23.56-.13-8.27,23.31-20.23,22.28-3.59-.89-3.4-14.8-2.9-18.69.79-6.16,14.19-13.07,18-15.27,1.41-.82,11.6-7.33,20.46-.12,3.51,2.86,7.94,17.09,8.92,31.15C104,118.63,96.45,117.49,94.12,116.73Z"/><path class="cls-3" d="M95.45,69.58C101.33,41,109.67,63.71,112,76.27c4.14,22.52,15.5,32,17.27,37.55C130.26,117,94.32,115.73,95.45,69.58Z"/><path class="cls-4" d="M47.47,87.17C41.94,86,29.92,85.43,31.26,104.66c.27,3.89,3.75,12.19,6.73,12.68,8.54,1.66-4-25.06,10.56-26.73C54.59,89.92,50.19,87.73,47.47,87.17Z"/><path class="cls-5" d="M112.35,65.11c-9.1-16.45-14.11-36.88-38.08-36.88-24.68,0-39.68,14.63-43,28.3-4.23,17.58,8.87,47.3,34.44,33.52,6-3.23,13.42-3.47,19.32,1.87,5,4.53,15.86,6.61,25.81,3.67C124.46,91.58,113.9,67.91,112.35,65.11Z"/><path class="cls-6" d="M61.56,41.5C52.3,41.55,45,54.8,45,60c0,5.74,6,16,15.21,16s20.52-6.7,18.87-14.17C77.5,54.53,70.82,41.45,61.56,41.5Z"/><path class="cls-7" d="M78,60.75a21.06,21.06,0,0,1-8.16,5.3,22.12,22.12,0,0,1-8.06,1.31,21.89,21.89,0,0,1-8-1.68A21.07,21.07,0,0,1,45.88,60,21,21,0,0,1,54,54.66a21.71,21.71,0,0,1,8.06-1.29,22.13,22.13,0,0,1,8,1.7A21.07,21.07,0,0,1,78,60.75Z"/><path class="cls-8" d="M48.31,69.28s6.51-8.35,7.09-6.42C55.84,64.33,54,71.34,53.76,74,53.59,75.64,48.31,69.28,48.31,69.28Z"/><path class="cls-8" d="M59.09,41.79c-.74,1.82,2.35,12.58,3.88,12.38S65.5,41.83,65.5,41.83,59.57,40.62,59.09,41.79Z"/><path class="cls-8" d="M65.36,42.18c-.4,1.22-.4,9.08.74,12.38.66,2,5.31-8.91,5.31-8.91S65.75,41,65.36,42.18Z"/><path class="cls-8" d="M58.4,41.94c1.23,1.25,1,12.84.58,13.41C57.84,56.85,52.78,45,52.78,45S57.62,41.14,58.4,41.94Z"/><path class="cls-8" d="M69.24,73c.41-2.58-1.73-10.24-.35-11.16s6,8.28,6,8.28S69,74.61,69.24,73Z"/><path class="cls-8" d="M52,45.67c.81-1.06,0,4.34,0,4.34l-1.93-1S49,49.56,52,45.67Z"/><path class="cls-8" d="M71.93,46.31c-.81-1-.29,4.28-.29,4.28l1.89-.94S74.92,49.78,71.93,46.31Z"/><path class="cls-8" d="M56.64,75.24c2.24,1.55,6.48,1.76,9.77-.08,1-.53-1.53-2.47-1.53-2.47l-.71,2-1.45-1.48-1,1.92a19.49,19.49,0,0,0-1.42-2.58C60.2,72.6,59,74.83,59,74.83a14.28,14.28,0,0,0-.9-1.85C58,73,56.11,74.87,56.64,75.24Z"/><path class="cls-9" d="M47.58,34.94c1,2-15.39-8.12-22.32,8.24-3.06,7.23.34,20.27-22.78,21.33,8.39-7.45,13.85-8.08,13.18-24.89-.58-14.5,18.49-17.69,30.06-17.74C49,21.86,42.69,25.46,47.58,34.94Z"/><path class="cls-8" d="M12.21,55.06C7.71,57.57,1.84,61.25.76,64.51c-.61,1.85,4.87,1.09,6.83.7a25,25,0,0,0,9.53-3.85C17.6,58.3,12.36,58.23,12.21,55.06Z"/><path class="cls-10" d="M88.38,34.4C88,42,114,25,111.8,45.53,111,52.77,88.65,50.4,77,61.35c20.48,5.49,51.16-4.16,47-20.07-4.49-17-24.32-21.17-36.17-19.8C83.65,22,88.52,32,88.38,34.4Z"/><path class="cls-8" d="M88.58,54.18c-5.37,1-15.07,4.1-17.44,5.74-.38,1.26,12.6,4.2,20.17,3.38C90.31,59.81,90.93,57,88.58,54.18Z"/><path class="cls-11" d="M44.07,28.21c-.72-13.92,12.56-27,26.12-27S96.91,17.42,96.91,31s-14.73,0-28.29,0S44.81,42.71,44.07,28.21Z"/><path class="cls-12" d="M69.73,2.62c-8,0-15.58,5.67-15.57,7,0,2.94,7.27,4.58,15.31,4.55S84,11.87,83.28,10.14C82.08,7.25,77.77,2.59,69.73,2.62Z"/><path d="M59.69,8.32A14.1,14.1,0,0,1,64.36,6.4,20.58,20.58,0,0,1,69,5.9a20,20,0,0,1,4.65.57,14.08,14.08,0,0,1,4.64,2,14.1,14.1,0,0,1-4.67,1.92,20,20,0,0,1-4.66.5,20.56,20.56,0,0,1-4.65-.58A14.26,14.26,0,0,1,59.69,8.32Z"/><path class="cls-12" d="M56.88,17.17C50.66,18.94,45.75,26.83,46,28.35c.53,3.26,6.41,3.51,12.63,1.74s10.87-5.73,10-7.5A9.94,9.94,0,0,0,56.88,17.17Z"/><path d="M50.05,25.67a11.65,11.65,0,0,1,3.22-2.48,17.09,17.09,0,0,1,3.5-1.38,16,16,0,0,1,3.73-.54,11.36,11.36,0,0,1,4,.55,11.25,11.25,0,0,1-3.21,2.48,15.9,15.9,0,0,1-3.51,1.38,16.54,16.54,0,0,1-3.73.54A11.59,11.59,0,0,1,50.05,25.67Z"/><path class="cls-12" d="M84.67,16.9c-6.2-1.17-12.71,5-12.87,6.75-.34,3.81,5,7,11.23,8.17S94.51,31,94.17,28.63C93.61,24.73,90.86,18.06,84.67,16.9Z"/><path d="M76.22,22.75A11.14,11.14,0,0,1,80.13,22a16,16,0,0,1,3.67.32,15.41,15.41,0,0,1,3.49,1.17,10.9,10.9,0,0,1,3.26,2.29,10.89,10.89,0,0,1-3.9.79A15.39,15.39,0,0,1,83,26.21,16,16,0,0,1,79.48,25,11.41,11.41,0,0,1,76.22,22.75Z"/><path class="cls-7" d="M63.94,58.38a16.26,16.26,0,0,1,4.23,6.86,12.4,12.4,0,0,1,.33,6.07,12.27,12.27,0,0,1-2.62,5.49,16.23,16.23,0,0,1-6.56,4.7,16.3,16.3,0,0,1-4.24-6.86,12.27,12.27,0,0,1-.31-6.07,12.53,12.53,0,0,1,2.63-5.48A16.46,16.46,0,0,1,63.94,58.38Z"/></g></svg>