<svg xmlns="http://www.w3.org/2000/svg" xmlns:xlink="http://www.w3.org/1999/xlink" viewBox="0 0 130 120"><defs><style>.cls-1,.cls-11,.cls-12,.cls-2,.cls-3,.cls-4,.cls-5,.cls-6,.cls-8{stroke:#000;}.cls-1,.cls-10,.cls-11,.cls-12,.cls-2,.cls-3,.cls-4,.cls-5,.cls-6,.cls-8,.cls-9{stroke-miterlimit:10;}.cls-1{fill:url(#Безымянный_градиент_15);}.cls-2{fill:url(#Безымянный_градиент_147);}.cls-3{fill:url(#Безымянный_градиент_183);}.cls-4{fill:url(#Безымянный_градиент_148);}.cls-5{fill:url(#Безымянный_градиент_133);}.cls-6{fill:#b60000;}.cls-12,.cls-6{stroke-width:2px;}.cls-7{fill:gray;}.cls-8{fill:#31c8c5;}.cls-10,.cls-9{stroke:#31c8c5;}.cls-9{fill:url(#Безымянный_градиент_169);}.cls-10{fill:url(#Безымянный_градиент_119);}.cls-11{fill:url(#Безымянный_градиент_127);}.cls-12{fill:#f9f912;}</style><linearGradient id="Безымянный_градиент_15" x1="62.58" y1="102.9" x2="50.63" y2="70.83" gradientUnits="userSpaceOnUse"><stop offset="0"/><stop offset="0.15" stop-color="#0c0c0c"/><stop offset="0.43" stop-color="#2d2d2d"/><stop offset="0.8" stop-color="#616161"/><stop offset="1" stop-color="gray"/></linearGradient><linearGradient id="Безымянный_градиент_147" x1="74.46" y1="114.86" x2="74.46" y2="79.18" gradientUnits="userSpaceOnUse"><stop offset="0.14"/><stop offset="0.24" stop-color="#151515"/><stop offset="0.43" stop-color="#4b4b4b"/><stop offset="0.6" stop-color="gray"/><stop offset="1" stop-color="#984c24"/></linearGradient><linearGradient id="Безымянный_градиент_183" x1="103.76" y1="75.71" x2="131.98" y2="104.33" gradientTransform="translate(-6.35 15.03) rotate(-4.02)" gradientUnits="userSpaceOnUse"><stop offset="0.01" stop-color="#4d4d4d"/><stop offset="0.08" stop-color="#4a4a4a"/><stop offset="0.14" stop-color="#404040"/><stop offset="0.2" stop-color="#2f2f2f"/><stop offset="0.25" stop-color="#171717"/><stop offset="0.29"/><stop offset="0.31" stop-color="#1b0d06"/><stop offset="0.34" stop-color="#3c1e0e"/><stop offset="0.37" stop-color="#592c15"/><stop offset="0.41" stop-color="#70381b"/><stop offset="0.45" stop-color="#82411f"/><stop offset="0.5" stop-color="#8f4722"/><stop offset="0.57" stop-color="#964b24"/><stop offset="0.72" stop-color="#984c24"/><stop offset="1" stop-color="#f9f912"/></linearGradient><linearGradient id="Безымянный_градиент_148" x1="30.53" y1="111.97" x2="30.53" y2="78.94" gradientUnits="userSpaceOnUse"><stop offset="0.09"/><stop offset="0.2" stop-color="#151515"/><stop offset="0.41" stop-color="#4b4b4b"/><stop offset="0.6" stop-color="gray"/><stop offset="1" stop-color="#984c24"/></linearGradient><radialGradient id="Безымянный_градиент_133" cx="52.66" cy="62.93" r="67.93" gradientTransform="matrix(0.29, 0.94, -0.79, 0.23, 87.07, 0.03)" gradientUnits="userSpaceOnUse"><stop offset="0" stop-color="#984c24"/><stop offset="0.12" stop-color="#934a23"/><stop offset="0.25" stop-color="#864320"/><stop offset="0.38" stop-color="#70381a"/><stop offset="0.52" stop-color="#512813"/><stop offset="0.67" stop-color="#29140a"/><stop offset="0.79"/><stop offset="0.86" stop-color="#212121"/><stop offset="0.95" stop-color="#414141"/><stop offset="0.99" stop-color="#4d4d4d"/></radialGradient><linearGradient id="Безымянный_градиент_169" x1="109.25" y1="70.51" x2="63.21" y2="26.91" gradientUnits="userSpaceOnUse"><stop offset="0" stop-color="gray"/><stop offset="0.16" stop-color="#7c7c7c"/><stop offset="0.34" stop-color="#6f6f6f"/><stop offset="0.53" stop-color="#595959"/><stop offset="0.72" stop-color="#3b3b3b"/><stop offset="0.91" stop-color="#141414"/><stop offset="0.99"/></linearGradient><linearGradient id="Безымянный_градиент_119" x1="0.63" y1="47.52" x2="30.41" y2="47.52" gradientUnits="userSpaceOnUse"><stop offset="0" stop-color="gray"/><stop offset="0.17" stop-color="#7c7c7c"/><stop offset="0.35" stop-color="#707070"/><stop offset="0.53" stop-color="#5b5b5b"/><stop offset="0.71" stop-color="#3e3e3e"/><stop offset="0.89" stop-color="#191919"/><stop offset="0.99"/></linearGradient><radialGradient id="Безымянный_градиент_127" cx="52.01" cy="20.97" r="40.09" gradientTransform="matrix(1, 0, 0, 0.38, -0.02, 13.22)" gradientUnits="userSpaceOnUse"><stop offset="0.28" stop-color="#984c24"/><stop offset="0.39" stop-color="#864320"/><stop offset="0.62" stop-color="#582c15"/><stop offset="0.94" stop-color="#0e0703"/><stop offset="0.99"/></radialGradient></defs><title>враги2 атака</title><g id="Слой_3" data-name="Слой 3"><path class="cls-1" d="M82.12,109.51c-2.8-13.83-18.91-26.25-24-28.26-2-.79-12.75.78-20.18,2.21,3.1,2.61,5,5.31,7.53,8.74,17.65-.78,24.71,20.76,30.72,20.89C79.91,113.17,82.94,113.58,82.12,109.51Z"/><path class="cls-2" d="M94.12,116.73C89.48,115.22,82,92.82,67.39,95.14,56,97,58.12,120,46.16,119c-2-1.82-.19-16.18,1.06-19.9,1.81-5.43,11.23-13.4,15.06-15.6,1.41-.82,11.6-7.33,20.46-.12,3.51,2.86,19.94,17.09,20.92,31.15C104,118.63,96.45,117.49,94.12,116.73Z"/><path class="cls-3" d="M86.07,70.65c-.69-29.15,12.53-8.91,17.6,2.8,9.1,21,22.28,27.66,25.27,32.72C130.63,109,95.33,115.87,86.07,70.65Z"/><path class="cls-4" d="M40,89.64C35.13,86.71,24,82.13,18.83,100.71c-1,3.75-1.64,13.71,1,15.17,5.64,1.78,10.7-24.72,20-22.63C45.76,94.59,42.34,91.08,40,89.64Z"/><path class="cls-5" d="M98,61.31C85.54,41.43,77.24,30.23,53.27,30.23c-24.68,0-28.68,14.63-32,28.3-4.23,17.58,8.87,47.3,34.44,33.52,6-3.23,13.42-3.47,19.32,1.87,5,4.53,15.86,6.61,25.81,3.67C114.46,93.58,99.71,64,98,61.31Z"/><path class="cls-6" d="M51.19,43.5C37.31,43.56,26,58.81,26,61.91,26,65.84,35.31,78,49.2,78s30.67-9.81,29.43-13.74C76.56,57.69,65.07,43.44,51.19,43.5Z"/><path class="cls-7" d="M41.27,62.52a14.26,14.26,0,0,1,5.17-2.61,17.76,17.76,0,0,1,10.21.24,14,14,0,0,1,5,2.87,14,14,0,0,1-5.17,2.63,17,17,0,0,1-5.12.62,17.27,17.27,0,0,1-5.08-.88A14,14,0,0,1,41.27,62.52Z"/><path class="cls-8" d="M34.53,72.87s7.63-9.94,8.41-8c.6,1.47-.24,8.37-.62,11C42.08,77.52,34.53,72.87,34.53,72.87Z"/><path class="cls-8" d="M47.94,43.79c-1,1.82,3.19,12.58,5.26,12.38s3.42-12.34,3.42-12.34S48.59,42.62,47.94,43.79Z"/><path class="cls-8" d="M56.42,44.18c-.53,1.22-.53,9.08,1,12.38.9,2,7.19-8.91,7.19-8.91S57,43,56.42,44.18Z"/><path class="cls-8" d="M47,43.94c1.66,1.25,1.38,12.84.78,13.41C46.24,58.85,39.4,47,39.4,47S46,43.14,47,43.94Z"/><path class="cls-8" d="M61.68,75c.56-2.58-2.34-10.24-.47-11.16s6.44,9.45,6.44,9.45S61.34,76.61,61.68,75Z"/><path class="cls-8" d="M27.05,59.66s5.21-9.23,11.63-12.38c1.86-.91.48,5.69.48,5.69L35.78,51.7l.11,4.24L33,54.62s-.52,2.84-.79,2.93A9.51,9.51,0,0,1,30,56.48a24.3,24.3,0,0,1,.19,3.39A22.2,22.2,0,0,1,27.05,59.66Z"/><path class="cls-8" d="M77.19,61.33S71.22,51.14,64.82,48C63,47,64.3,53.63,64.3,53.63l3.39-1.24.93,3.76,2.54-1.26s.25,3.88.52,4a13,13,0,0,0,2.3-.34,28.18,28.18,0,0,0,.76,2.78A13.45,13.45,0,0,0,77.19,61.33Z"/><path class="cls-8" d="M42.2,76.25c4.25,2.13,12.48,2.19,19-.68,1.89-.83-2.78-3.51-2.78-3.51L56.91,75,54.2,72.88l-2,2.86s-2.32-3.82-2.57-3.68-2.78,3.46-2.78,3.46a16.83,16.83,0,0,0-1.61-2.64C45,72.9,41.2,75.75,42.2,76.25Z"/><path class="cls-8" d="M68.25,73.33s-.6-3.56,0-4.32c1.36-1.7,8.49-1.9,8.49-1.9Z"/><path class="cls-8" d="M34.53,72.87s1.67-4.08.78-4.47c-2-.85-8.26-3.33-8.26-3.33Z"/><path class="cls-9" d="M79,33c-.64,5.32,19.12,3.05,13.1,19.24-4.61,12.39-7.69,21.76-7.34,28,.5,2.7,15.7-5.29,21.09-29.88C110.34,30,90.26,18.72,78.41,20.09,74.28,20.57,79.3,30.58,79,33Z"/><path class="cls-8" d="M86.76,67.06c-1.27,5.44-4.09,14.8-3.4,18.15.78,1.23,9.53-7,14-13.88C93.79,69.65,90.63,67.13,86.76,67.06Z"/><path class="cls-10" d="M30.37,35.21c1,1.95-19.86,7.22-15.74,21.37,2.8,9.65,7.32,9.93,8.84,17.79C22.3,76.86,2.59,71.68.7,51.72-.66,37.28,17,20.15,28.55,20.09,31.81,20.08,25.49,25.73,30.37,35.21Z"/><path class="cls-8" d="M10.7,70.28C16.53,74.77,28.34,79,29,77.62c-.95-4.89-7.1-10-10.7-13.2C14.56,64.58,12.62,67.41,10.7,70.28Z"/><path class="cls-11" d="M27.07,29.21c-.72-13.92,12.56-27,26.12-27S79.91,18.42,79.91,32s-14.73,0-28.29,0S27.81,43.71,27.07,29.21Z"/><path class="cls-12" d="M52.73,3.62c-8,0-15.58,6.77-15.57,8.4,0,3.52,7.27,5.47,15.31,5.43S67,14.66,66.28,12.6A14.1,14.1,0,0,0,52.73,3.62Z"/><path d="M42.69,10.42a14.29,14.29,0,0,1,4.67-1.91A20.59,20.59,0,0,1,52,8a20,20,0,0,1,4.65.58,14.15,14.15,0,0,1,4.63,2,14.29,14.29,0,0,1-4.67,1.91A20,20,0,0,1,52,13a20.57,20.57,0,0,1-4.65-.59A14.33,14.33,0,0,1,42.69,10.42Z"/><path class="cls-12" d="M39.88,18.12c-6.22,1.58-11.13,8.62-10.89,10,.53,2.91,6.41,3.14,12.63,1.56s10.87-5.11,10-6.69A10.3,10.3,0,0,0,39.88,18.12Z"/><path d="M33.05,25.7a11.66,11.66,0,0,1,3.26-2.38,16.25,16.25,0,0,1,7.23-1.72,11.34,11.34,0,0,1,4,.68,11.29,11.29,0,0,1-3.25,2.38A16.06,16.06,0,0,1,37,26.37,11.32,11.32,0,0,1,33.05,25.7Z"/><path class="cls-12" d="M67.67,17.87C61.47,16.9,55,22,54.8,23.52c-.34,3.18,5,5.84,11.23,6.82s11.48-.71,11.14-2.66C76.61,24.42,73.86,18.85,67.67,17.87Z"/><path d="M59.22,22.76a11.09,11.09,0,0,1,3.85-.91,15.35,15.35,0,0,1,3.66.2,15.19,15.19,0,0,1,3.51,1,11.09,11.09,0,0,1,3.31,2.18,10.85,10.85,0,0,1-3.85.92A15.38,15.38,0,0,1,66,26a15.83,15.83,0,0,1-3.5-1.06A10.78,10.78,0,0,1,59.22,22.76Z"/></g></svg>