<svg id="Слой_1" data-name="Слой 1" xmlns="http://www.w3.org/2000/svg" viewBox="0 0 70.91 91.24"><defs><style>.cls-1{fill:#c83201;}.cls-2{fill:#f96904;}.cls-3{fill:#712b27;}.cls-4{fill:#d9652e;}.cls-5{fill:#d33e02;}.cls-6{fill:#f9e5db;}.cls-7{fill:#762417;}.cls-8{fill:#fd6d04;}.cls-9{fill:#e14c01;}.cls-10{fill:#ee5d05;}.cls-11{fill:#fed1b1;}.cls-12{fill:#ca3401;}.cls-13{fill:#feb37c;}.cls-14{fill:#fea462;}.cls-15{fill:#fe8b37;}</style></defs><title>00</title><path class="cls-1" d="M34.05,14.18l1.17-.64c1.25.77,2.26-.15,3.28-.55,2.77-1.07,5.44-2.41,8.23-3.43,5.14-1.87,9.92-4.7,15.28-6l.54,1.21c-2.61,4.38-5.72,8.41-8.63,12.59-.83,1.19-2.22,2.21-1.72,4,.06.54-.28.84-.66,1.13-5.35.66-9.78,3.74-14.66,5.61l-.56-.61c1-1.18.11-2.47-.12-3.52-.57-2.65-.45-5.59-2.54-7.75.12-.61.24-1.22.37-1.82Z"/><path class="cls-2" d="M.76,64.92a3.62,3.62,0,0,1,1.17-2.35c1.22-.17,1.75-1.12,2.34-2C6.75,56.66,9.21,52.78,11.75,49c3.52-5.32,6.38-11.05,10.36-16.07a7.63,7.63,0,0,1-1,3c-3.29,5.75-2.48,7.26,4,7.48-.22.38-.42.79-.68,1.16-3.92,5.61-7.88,11.2-11.77,16.85-.44.64-1.8,1.29-.48,2.37v1.58q-.56,0-1.11.06L10,65C8.74,63.1,6.11,63,2.71,64.85l1.67.38c0,.9.58,1.12,1.35,1.31,3.88.93,3.88,1,3.78,5.13C7.88,71.58,7.63,72.75,7.42,74,6.86,77.21,5.69,80.13,3,82.23Q1.86,73.57.76,64.92Z"/><path class="cls-3" d="M66.67,3.17C68,13,69.24,22.78,70.81,32.55c.59,3.71-1.64,6-3.36,8.5-4.83,7-9.92,13.89-14.91,20.82C47.45,69,42.42,76.09,37.2,83.08c-1.34,1.78-3.77,1.86-5.85,2.37-8.28,2-16.61,3.85-25,5.2,0-.32-.05-.63-.07-1,6.68-1.48,13.37-2.92,20-4.44,4.9-1.11,10.43-1.13,12.75-7l.55-.63,0,0a1.25,1.25,0,0,0,.59-1.11l0,0,.56-.58,0,0a1.94,1.94,0,0,0,1.12-1.65l0,0a1.83,1.83,0,0,0,1.12-1.65l0,0c1.75-2,3.51-3.92,4.34-6.5,4.93-5.39,8.86-11.54,13.08-17.46l.48-.57a.69.69,0,0,0,.12-.39,91.05,91.05,0,0,1,6.43-8.25c2.56-2.65,2.52-5.55,2-8.74-1.07-6.73-2.1-13.47-3.15-20.21a15.37,15.37,0,0,0-.26-3.2C65.88,6,64.81,4.3,66.67,3.17Z"/><path class="cls-3" d="M22.11,32.88c-4,5-6.84,10.75-10.36,16.07-2.54,3.83-5,7.71-7.48,11.58-.59.92-1.12,1.87-2.34,2-.08-.21-.28-.52-.2-.63,9.08-13.2,17.07-27.12,26-40.42,1.26-1.87,2.5-3.75,3.89-5.52.61-.77,1.07-1.95,2.42-1.82l0,.21a120.36,120.36,0,0,0-7.67,11.93,15.49,15.49,0,0,0-2.6,3.86A6.3,6.3,0,0,0,22.11,32.88Z"/><path class="cls-3" d="M62,3.54c-5.36,1.32-10.14,4.15-15.28,6-2.79,1-5.46,2.36-8.23,3.43-1,.4-2,1.32-3.28.55C43.29,9,52.08,6.11,60.54,2.46l.72-.23.86-.32.67-.09c.53-.57,1.28-.39,1.94-.54.27.19,1.07.28.28.76C64.06,2.62,63,3.05,62,3.54Z"/><path class="cls-3" d="M.76,64.92Q1.86,73.57,3,82.23l.18,1.46,0,1C3,86,4.19,86.82,4.19,88l-1,1.78c-1.61-3.47-1.64-7.29-2.11-11C.49,74.26-.15,69.62.37,65a.27.27,0,0,1,.18-.18C.61,64.77.69,64.87.76,64.92Z"/><path class="cls-4" d="M62,3.54c1-.49,2.05-.92,3-1.5.79-.48,0-.57-.28-.76,2.11-.87,2,.51,1.94,1.89-1.86,1.13-.79,2.87-.75,4.3a15.37,15.37,0,0,1,.26,3.2l-1,.5c.07-2-1.32-2.08-2.75-2.15L62,8c.41-.76.83-1.52,1.22-2.29s0-1-.67-.94Z"/><path class="cls-4" d="M3.19,89.82l1-1.78c.81.07,1-.6,1.42-1.09,0,.26.11.52.17.78.9.48-2.12,1.89.47,2,0,.32,0,.63.07,1C5.28,90.36,3.66,92.24,3.19,89.82Z"/><path class="cls-4" d="M62.79,1.82l-.67.09C62.33,1.75,62.46,1.07,62.79,1.82Z"/><path class="cls-4" d="M61.26,2.23l-.72.23Z"/><path class="cls-5" d="M26.36,26.32A120.36,120.36,0,0,1,34,14.39c-.13.6-.25,1.21-.37,1.82-.07,2.82.81,5.48,1.4,8.19.23,1.08-.13,2.46,1.26,3.08l.56.61c0,.39,0,.79-.05,1.18a1.63,1.63,0,0,1-1.14,1c-1.34.16-1.72,1.43-2.54,2.19-1.68.35-3.11-.32-4.7-.8-2.95-.88-1.23-2.76-1.45-4.25C26.94,27,26.58,26.69,26.36,26.32Z"/><path class="cls-6" d="M51.54,22.48c.38-.29.72-.59.66-1.13,1.66-1,2.07-3.14,3.67-4.21l.87.91c-1.75,3.32-3.4,6.67-1.82,10.57,0,.76-.39,1.56.26,2.25,0,1,1.18,2.13-.44,2.85q-1.2-3.46-2.39-6.92c.35-.42,0-.64-.25-.88h0a2.7,2.7,0,0,0-.7-2.17C51.45,23.32,51.49,22.9,51.54,22.48Z"/><path class="cls-3" d="M55.87,17.14c-1.6,1.07-2,3.18-3.67,4.21-.5-1.8.89-2.82,1.72-4,2.91-4.18,6-8.21,8.63-12.59.68,0,1,.25.67.94S62.41,7.22,62,8c-.29.5-.8.91-.65,1.59l0,0c-1.19.62-1.66,1.81-2.28,2.89A22.38,22.38,0,0,0,55.87,17.14Z"/><path class="cls-7" d="M51.54,22.48c0,.42-.09.84-.14,1.26l-.4.53c-1.6-.53-3,.27-4.34.85l-9.83,4.15c0-.39,0-.79.05-1.18C41.76,26.22,46.19,23.14,51.54,22.48Z"/><path class="cls-7" d="M36.32,27.48c-1.39-.62-1-2-1.26-3.08-.59-2.71-1.47-5.37-1.4-8.19,2.09,2.16,2,5.1,2.54,7.75C36.43,25,37.36,26.3,36.32,27.48Z"/><path class="cls-8" d="M36.83,29.27l9.83-4.15c1.39-.58,2.74-1.38,4.34-.85,0,.54.09,1.08.14,1.63.71,3.44,1.34,6.94,3,10.06,1.05,2,.48,3.25-.79,4.79-7.36,8.94-14.81,17.81-21.82,27A17.12,17.12,0,0,1,23.1,74c-3,1-6,2.06-8.9,3.21-1.42.56-1.91.41-1.89-1.23,0-3.53-.06-7.07-.1-10.61,0-.52,0-1,0-1.58C16.86,57.34,21.6,51,26.14,44.44c3.25-4.67,7-9,9.55-14.16A1.63,1.63,0,0,0,36.83,29.27ZM31.89,53a2.37,2.37,0,0,0,2.35-1.43l1-.57c1.91-.32,4.56-1.38,4.44-2.74-.21-2.25,1.47-2.56,2.18-3.78,2.89-.73,5.42-2.32,8.15-3.43.5-.2.95-.6.75-1.25-.15-.47-.61-.85-1-.63-2.62,1.42-5.93,1.43-8,4-1.4.35-2.88.53-3.91,1.74l-5.36,2.26V45.5l1-.49c4.73-2.31,9.46-4.6,14.16-6.95.64-.31,1.83-.48,1.31-1.63-.39-.86-1.26-.63-1.89-.2-1.41,1-2.79.28-4.18,0,.21-.81,1.94-.87,1.2-2.06s-1.76-.58-2.66-.14c-1.71.82-3.39,1.71-5.11,2.52-2,.92-2,2.07-.52,3.48a2.33,2.33,0,0,0-1.7,1l-3.32,2.06c-1.46.41-2.88.86-2.47,2.88a9.79,9.79,0,0,1-1.84,1.41c-1.88.86-1.81,1.84-.38,3.06-.41.49-.81,1-1.22,1.49a1.09,1.09,0,0,0-1.11.49c-1.25.47-2.27,1-.81,2.4a1.53,1.53,0,0,1,.29,1.5l-5.48,4c-.53.38-1.15.86-.72,1.53s1.29.56,1.89.07c2.45-2,5.37-3.26,7.55-5.57l0,0a3.21,3.21,0,0,0,2.67-1.64l0,0a3,3,0,0,0,2.66-1.63Zm-3.7,6.57c-3.78,1.55-7.1,3.91-10.49,6.14-.63.42-1.28,1-.69,1.74s1.31.36,1.95-.06l9.22-6c.41-.17.93-.23,1.21-.52.76-.82,2.41-.66,2.44-2.19a1,1,0,0,0-.56-.82C29.79,57.58,29.14,58.85,28.19,59.59Z"/><path class="cls-7" d="M12.21,65.36c0,3.54.15,7.08.1,10.61,0,1.64.47,1.79,1.89,1.23C17.13,76.05,20.12,75,23.1,74a17.12,17.12,0,0,0,8.44-6.23c7-9.2,14.46-18.07,21.82-27,1.27-1.54,1.84-2.83.79-4.79-1.67-3.12-2.3-6.62-3-10.06h1l.25.88q1.18,3.45,2.39,6.92c.5,1.51.4,3.3,2,4.35l.27.6c-.76.14-1,.72-1.23,1.35A32.1,32.1,0,0,0,51.5,45.5a101.64,101.64,0,0,0-8.73,10.9c-1.88,1.35-3,3.39-4.42,5.1-3.22,3.78-5.86,8.36-9.77,11.17-4.94,3.54-11.06,5.21-17.24,6l-.26-3.39c0-3.28,0-6.55,0-9.82Z"/><path class="cls-9" d="M11.08,75.25c.09,1.13.17,2.26.26,3.39-.05.27-.09.55-.14.83-1-.15-1.13.69-1.5,1.25C8.32,82.78,7,84.87,5.61,87,5.24,87.44,5,88.11,4.19,88c0-1.22-1.24-2.06-1-3.34.51-.35.49-.69,0-1L3,82.23c2.72-2.1,3.89-5,4.45-8.27.21-1.21.46-2.38,2.09-2.29C10.08,72.84,8.92,74.78,11.08,75.25Z"/><path class="cls-10" d="M22.11,32.88a6.3,6.3,0,0,1,1.65-2.7c.25,1.43-.65,2.57-.91,3.86s-.75,3.45,1.51,3.05c1.8-.32,3.34.25,5,.28a44.14,44.14,0,0,1-4.23,6c-6.5-.22-7.31-1.73-4-7.48A7.63,7.63,0,0,0,22.11,32.88Z"/><path class="cls-7" d="M25.13,43.4a44.14,44.14,0,0,0,4.23-6c1.26-1.63,2.52-3.27,3.79-4.9.82-.76,1.2-2,2.54-2.19-2.56,5.14-6.3,9.49-9.55,14.16C21.6,51,16.86,57.34,12.2,63.78c-1.32-1.08,0-1.73.48-2.37,3.89-5.65,7.85-11.24,11.77-16.85C24.71,44.19,24.91,43.78,25.13,43.4Z"/><path class="cls-11" d="M11.08,75.25c-2.16-.47-1-2.41-1.57-3.58.1-4.17.1-4.2-3.78-5.13-.77-.19-1.35-.41-1.36-1.31L10,65l1.13.46C11.09,68.7,11.09,72,11.08,75.25Z"/><path class="cls-7" d="M10,65l-5.6.27-1.66-.38C6.11,63,8.74,63.1,10,65Z"/><path class="cls-12" d="M11.2,79.47c.05-.28.09-.56.14-.83,6.18-.76,12.3-2.43,17.24-6,3.91-2.81,6.55-7.39,9.77-11.17,1.46-1.71,2.54-3.75,4.42-5.1,1,.27,3.09-.53,2.65,1.19-.81,3.1.33,5.81.72,8.68-.86,2.29-3.25,3.81-3.27,6.52l0,0c-1.11,0-1.15.83-1.12,1.65l0,0c-1.1.06-1.15.83-1.12,1.65l0,0-.56.58,0,0a1.11,1.11,0,0,0-.59,1.11l0,0-.55.63c-2.32,5.85-7.85,5.87-12.75,7-6.67,1.52-13.36,3-20,4.44-2.59-.08.43-1.49-.47-2A12.87,12.87,0,0,0,11.2,79.47Zm18.91-5.39c-.74,0-1,.46-.74.9,1.41,2.4,2.87,4.77,4.36,7.12a1,1,0,0,0,.93.28c.54-.26.3-.72.05-1.12-1.27-2.07-2.53-4.15-3.81-6.22A9,9,0,0,0,30.11,74.08Z"/><path class="cls-2" d="M56.7,38.07c-1.56-1-1.46-2.84-2-4.35,1.62-.72.46-1.88.44-2.85,3.49-.1,5.88-2.09,7.93-4.64a3.09,3.09,0,0,0,1-2.15c-.26-3.41.92-6.75.54-10.17a4.6,4.6,0,0,1,.56-2.74l1-.5c1,6.74,2.08,13.48,3.15,20.21.51,3.19.55,6.09-2,8.74-2.41,2.49-4.31,5.48-6.44,8.24a7.24,7.24,0,0,1,1.22-4C63.14,42,64,40,62.47,38l5.11-1c-3.5-1.07-6.7-.09-9.91.89Z"/><path class="cls-10" d="M56.7,38.07l1-.17c1.58,1.12,3.2.12,4.8.08,1.55,2.06.67,4-.37,5.87a7.24,7.24,0,0,0-1.22,4,.62.62,0,0,1-.11.4l-.48.57c-4.22,5.92-8.15,12.07-13.08,17.46,0-.2,0-.39,0-.59a3.21,3.21,0,0,1,.67-2.29c3.23-4,5.09-8.85,8.26-12.9,1.86-2.38.85-4.75-2-5.26a9.94,9.94,0,0,0-2.63.25A32.1,32.1,0,0,1,55.74,40c1,0,1.28-.48,1.23-1.35Z"/><path class="cls-4" d="M47.2,65.7c0,.2,0,.39,0,.59-.83,2.58-2.59,4.54-4.34,6.5,0-2.71,2.41-4.23,3.27-6.52Z"/><path class="cls-4" d="M40.67,76.05c0-.82,0-1.59,1.12-1.65A1.94,1.94,0,0,1,40.67,76.05Z"/><path class="cls-4" d="M41.77,74.42c0-.82,0-1.6,1.12-1.65A1.83,1.83,0,0,1,41.77,74.42Z"/><path class="cls-4" d="M39.57,77.68a1.11,1.11,0,0,1,.59-1.11A1.25,1.25,0,0,1,39.57,77.68Z"/><path class="cls-2" d="M60.29,48.83l.48-.57Z"/><path class="cls-4" d="M40.13,76.6l.56-.58Z"/><path class="cls-4" d="M39,78.28l.55-.63Z"/><path class="cls-9" d="M33.15,32.47c-1.27,1.63-2.53,3.27-3.79,4.9-1.66,0-3.2-.6-5-.28-2.26.4-1.76-1.79-1.51-3.05s1.16-2.43.91-3.86a15.49,15.49,0,0,1,2.6-3.86c.22.37.58.71.64,1.1.22,1.49-1.5,3.37,1.45,4.25C30,32.15,31.47,32.82,33.15,32.47Z"/><path class="cls-2" d="M3.15,83.69c.51.32.53.66,0,1C3.16,84.36,3.16,84,3.15,83.69Z"/><path class="cls-9" d="M65.19,11.17a4.6,4.6,0,0,0-.56,2.74c-1.37.14-1.21,1.42-1.55,2.25-1.1,2.72-1.74,5.72-4,7.75-1.59,1.41-1.9,3.9-4.12,4.71-1.58-3.9.07-7.25,1.82-10.57a9.31,9.31,0,0,0,2.7-4.43,5.52,5.52,0,0,0,1.93-4.09l0,0L62.44,9C63.87,9.09,65.26,9.2,65.19,11.17Z"/><path class="cls-13" d="M62.44,9l-1.09.55c-.15-.68.36-1.09.65-1.59C62.15,8.33,62.3,8.67,62.44,9Z"/><path class="cls-7" d="M11.2,79.47a12.87,12.87,0,0,1-5.42,8.26c-.06-.26-.12-.52-.17-.78C7,84.87,8.32,82.78,9.7,80.72,10.07,80.16,10.24,79.32,11.2,79.47Z"/><path class="cls-10" d="M54.92,28.62c2.22-.81,2.53-3.3,4.12-4.71,2.3-2,2.94-5,4-7.75.34-.83.18-2.11,1.55-2.25.38,3.42-.8,6.76-.54,10.17a3.09,3.09,0,0,1-1,2.15c-2,2.55-4.44,4.54-7.93,4.64C54.53,30.18,54.88,29.38,54.92,28.62Z"/><path class="cls-11" d="M59.44,13.62a9.31,9.31,0,0,1-2.7,4.43l-.87-.91a22.38,22.38,0,0,1,3.22-4.72C59.21,12.82,59.32,13.22,59.44,13.62Z"/><path class="cls-3" d="M52.1,25.91h-1c0-.55-.09-1.09-.14-1.63l.4-.53A2.7,2.7,0,0,1,52.1,25.91Z"/><path class="cls-3" d="M52.35,26.8l-.25-.88C52.35,26.16,52.7,26.38,52.35,26.8Z"/><path class="cls-13" d="M59.44,13.62c-.12-.4-.23-.8-.35-1.2.62-1.08,1.09-2.27,2.28-2.89A5.52,5.52,0,0,1,59.44,13.62Z"/><path class="cls-13" d="M42.85,36.27c1.39.24,2.77.91,4.18,0,.63-.43,1.5-.66,1.89.2.52,1.15-.67,1.32-1.31,1.63-4.7,2.35-9.43,4.64-14.16,6.95l-1,.49L32,44.91l9.45-5.44c-2.72-.12-4.71,1.92-7.36,1.64a2.33,2.33,0,0,1,1.7-1l3.3-1.52c.64-.27,1.71.05,1.63-1.2h0c.93,0,1.87,0,2.21-1.1Z"/><path class="cls-13" d="M37.85,44.9c1-1.21,2.51-1.39,3.91-1.74l.12,1.34c-.71,1.22-2.39,1.53-2.18,3.78.12,1.36-2.53,2.42-4.44,2.74-.25-1.63-1.16-.8-1.9-.5-1.37.55-2.53,1.64-4.14,1.54.1-1.15,1.11-1.21,1.87-1.64,2.33-1.31,4.62-2.7,6.91-4.08C38.94,45.78,39.28,45.24,37.85,44.9Z"/><path class="cls-11" d="M37.85,44.9c1.43.34,1.09.88.15,1.44-2.29,1.38-4.58,2.77-6.91,4.08-.76.43-1.77.49-1.87,1.64h0a4.79,4.79,0,0,0-2.78.59c-.81.46-1.32.17-1.63-.63.41-.5.81-1,1.22-1.49,2.56-.32,4.43-2,6.44-3.36Z"/><path class="cls-14" d="M28.18,61.36l-9.22,6c-.64.42-1.41.75-1.95.06s.06-1.32.69-1.74c3.39-2.23,6.71-4.59,10.49-6.14C28.19,60.18,28.18,60.77,28.18,61.36Z"/><path class="cls-14" d="M39.06,38.55l-3.3,1.52c-1.49-1.41-1.45-2.56.52-3.48,1.72-.81,3.4-1.7,5.11-2.52.9-.44,2-1,2.66.14s-1,1.25-1.2,2.06h0c-1-.09-1.81.07-2.21,1.1h0C40,37.53,38.61,36.79,39.06,38.55Z"/><path class="cls-15" d="M32.49,47.16c-2,1.39-3.88,3-6.44,3.36-1.43-1.22-1.5-2.2.38-3.06a9.79,9.79,0,0,0,1.84-1.41c1,0,2,0,2.59-1.08L32,44.91l.51.59C32.49,46.05,32.49,46.61,32.49,47.16Z"/><path class="cls-13" d="M26.44,56.38C24.26,58.69,21.34,60,18.89,62c-.6.49-1.4.7-1.89-.07s.19-1.15.72-1.53l5.48-4,1.14-.53C24.88,56.71,25.73,56.27,26.44,56.38Z"/><path class="cls-15" d="M41.88,44.5l-.12-1.34c2.06-2.54,5.37-2.55,8-4,.42-.22.88.16,1,.63.2.65-.25,1-.75,1.25C47.3,42.18,44.77,43.77,41.88,44.5Z"/><path class="cls-11" d="M32,44.91,30.86,45l-.12-1.8,3.32-2.06c2.65.28,4.64-1.76,7.36-1.64Z"/><path class="cls-11" d="M26.44,56.38c-.71-.11-1.56.33-2.1-.51l1.07-1.1c1.37-.76,3-1.13,3.83-2.72h0c1.61.1,2.77-1,4.14-1.54.74-.3,1.65-1.13,1.9.5l-1,.57A2.1,2.1,0,0,0,31.89,53l-.05,0c-1.14.14-2.27.27-2.66,1.63l0,0c-1.14.13-2.31.22-2.67,1.64Z"/><path class="cls-15" d="M28.18,61.36c0-.59,0-1.18,0-1.77.95-.74,1.6-2,3.08-1.76a1,1,0,0,1,.56.82c0,1.53-1.68,1.37-2.44,2.19C29.11,61.13,28.59,61.19,28.18,61.36Z"/><path class="cls-13" d="M29.24,52.05c-.79,1.59-2.46,2-3.83,2.72-.27-1-1.72-1.07-1.69-2.27A1.09,1.09,0,0,1,24.83,52c.31.8.82,1.09,1.63.63A4.79,4.79,0,0,1,29.24,52.05Z"/><path class="cls-14" d="M23.72,52.5c0,1.2,1.42,1.29,1.69,2.27l-1.07,1.1-1.14.53a1.53,1.53,0,0,0-.29-1.5C21.45,53.51,22.47,53,23.72,52.5Z"/><path class="cls-13" d="M30.74,43.17l.12,1.8c-.55,1.12-1.57,1.1-2.59,1.08C27.86,44,29.28,43.58,30.74,43.17Z"/><path class="cls-13" d="M29.18,54.69c.39-1.36,1.52-1.49,2.66-1.63A3,3,0,0,1,29.18,54.69Z"/><path class="cls-13" d="M26.47,56.36c.36-1.42,1.53-1.51,2.67-1.64A3.21,3.21,0,0,1,26.47,56.36Z"/><path class="cls-13" d="M31.89,53a2.1,2.1,0,0,1,2.35-1.43A2.37,2.37,0,0,1,31.89,53Z"/><path class="cls-9" d="M47.2,65.7l-1.06.57c-.39-2.87-1.53-5.58-.72-8.68.44-1.72-1.66-.92-2.65-1.19A101.64,101.64,0,0,1,51.5,45.5a9.94,9.94,0,0,1,2.63-.25c2.85.51,3.86,2.88,2,5.26-3.17,4.05-5,8.91-8.26,12.9A3.21,3.21,0,0,0,47.2,65.7Z"/><path class="cls-2" d="M57,38.67c.05.87-.26,1.4-1.23,1.35C56,39.39,56.21,38.81,57,38.67Z"/><path class="cls-7" d="M30.11,74.08a9,9,0,0,1,.79,1c1.28,2.07,2.54,4.15,3.81,6.22.25.4.49.86-.05,1.12a1,1,0,0,1-.93-.28c-1.49-2.35-2.95-4.72-4.36-7.12C29.12,74.54,29.37,74.11,30.11,74.08Z"/><path class="cls-7" d="M62.47,38c-1.6,0-3.22,1-4.8-.08,3.21-1,6.41-2,9.91-.89Z"/><path class="cls-8" d="M39.06,38.55c-.45-1.76.92-1,1.63-1.2C40.77,38.6,39.7,38.28,39.06,38.55Z"/><path class="cls-8" d="M40.66,37.36c.4-1,1.24-1.19,2.21-1.1C42.53,37.41,41.59,37.38,40.66,37.36Z"/></svg>