<svg xmlns="http://www.w3.org/2000/svg" xmlns:xlink="http://www.w3.org/1999/xlink" viewBox="0 0 160 160"><defs><style>.cls-1,.cls-10,.cls-11,.cls-12,.cls-13,.cls-15,.cls-16,.cls-17,.cls-18,.cls-19,.cls-2,.cls-3,.cls-4,.cls-5,.cls-6,.cls-7,.cls-8,.cls-9{stroke:#000;stroke-miterlimit:10;}.cls-1{fill:url(#Безымянный_градиент_59);}.cls-2{fill:url(#Безымянный_градиент_56);}.cls-3{fill:url(#Безымянный_градиент_18);}.cls-4{fill:url(#Безымянный_градиент_58);}.cls-5{fill:url(#Безымянный_градиент_55);}.cls-6{fill:url(#Безымянный_градиент_18-2);}.cls-7{fill:url(#Безымянный_градиент_24);}.cls-8{fill:url(#Безымянный_градиент_53);}.cls-9{fill:url(#Безымянный_градиент_53-2);}.cls-10{fill:url(#Безымянный_градиент_127);}.cls-11{fill:url(#Безымянный_градиент_53-3);}.cls-12{fill:url(#Безымянный_градиент_8);}.cls-13{fill:#f9f912;}.cls-13,.cls-17{stroke-width:2px;}.cls-14{fill:gray;}.cls-15{fill:url(#Безымянный_градиент_49);}.cls-16{fill:url(#Безымянный_градиент_49-2);}.cls-17{fill:#b60000;}.cls-18{fill:#31c8c5;}.cls-19{fill:url(#Безымянный_градиент_24-2);}</style><linearGradient id="Безымянный_градиент_59" x1="76.41" y1="101.32" x2="107.86" y2="91.98" gradientTransform="translate(-10.27 28.79) rotate(-6.9)" gradientUnits="userSpaceOnUse"><stop offset="0" stop-color="gray"/><stop offset="0.14" stop-color="#777"/><stop offset="0.37" stop-color="#5e5e5e"/><stop offset="0.67" stop-color="#353535"/><stop offset="0.99"/></linearGradient><linearGradient id="Безымянный_градиент_56" x1="91.14" y1="159.58" x2="91.14" y2="148.16" gradientTransform="matrix(0.98, -0.2, 0.2, 0.98, -21.64, 20.51)" gradientUnits="userSpaceOnUse"><stop offset="0"/><stop offset="0.03" stop-color="#040e0e"/><stop offset="0.16" stop-color="#0f3f3e"/><stop offset="0.3" stop-color="#1a6968"/><stop offset="0.43" stop-color="#228b89"/><stop offset="0.57" stop-color="#29a6a4"/><stop offset="0.71" stop-color="#2db9b6"/><stop offset="0.85" stop-color="#30c4c1"/><stop offset="1" stop-color="#31c8c5"/></linearGradient><radialGradient id="Безымянный_градиент_18" cx="89.58" cy="125.46" r="8.47" gradientTransform="matrix(0.98, -0.2, 0.2, 0.98, -21.64, 20.51)" gradientUnits="userSpaceOnUse"><stop offset="0"/><stop offset="0.18" stop-color="#311508"/><stop offset="0.37" stop-color="#5d280e"/><stop offset="0.55" stop-color="#803714"/><stop offset="0.72" stop-color="#994218"/><stop offset="0.87" stop-color="#a8491a"/><stop offset="1" stop-color="#ad4b1b"/></radialGradient><linearGradient id="Безымянный_градиент_58" x1="18.91" y1="111.74" x2="67.54" y2="111.74" gradientTransform="translate(28.65 -7.19) rotate(14.15)" gradientUnits="userSpaceOnUse"><stop offset="0" stop-color="gray"/><stop offset="0.15" stop-color="#757575"/><stop offset="0.4" stop-color="#585858"/><stop offset="0.74" stop-color="#282828"/><stop offset="0.99"/></linearGradient><linearGradient id="Безымянный_градиент_55" x1="36.99" y1="156.49" x2="36.99" y2="144.89" gradientTransform="translate(28.65 -7.19) rotate(14.15)" xlink:href="#Безымянный_градиент_56"/><radialGradient id="Безымянный_градиент_18-2" cx="41" cy="121.87" r="6.86" gradientTransform="translate(28.65 -7.19) rotate(14.15)" xlink:href="#Безымянный_градиент_18"/><linearGradient id="Безымянный_градиент_24" x1="-291.76" y1="103.59" x2="-256.25" y2="139.59" gradientTransform="matrix(-0.98, -0.39, 1.07, -0.97, -377.5, 120.49)" gradientUnits="userSpaceOnUse"><stop offset="0" stop-color="#984c24"/><stop offset="0.04" stop-color="#80401e"/><stop offset="0.14" stop-color="#532914"/><stop offset="0.22" stop-color="#2f170b"/><stop offset="0.31" stop-color="#150b05"/><stop offset="0.38" stop-color="#050301"/><stop offset="0.44"/><stop offset="0.79" stop-color="#343434"/><stop offset="0.99" stop-color="#4d4d4d"/></linearGradient><linearGradient id="Безымянный_градиент_53" x1="112.97" y1="60.26" x2="113.02" y2="60.23" gradientUnits="userSpaceOnUse"><stop offset="0"/><stop offset="0.08" stop-color="#071b1a"/><stop offset="0.25" stop-color="#134f4e"/><stop offset="0.42" stop-color="#1e7a79"/><stop offset="0.58" stop-color="#269c9a"/><stop offset="0.74" stop-color="#2cb4b2"/><stop offset="0.88" stop-color="#30c3c0"/><stop offset="1" stop-color="#31c8c5"/></linearGradient><linearGradient id="Безымянный_градиент_53-2" x1="125.83" y1="78.26" x2="138.67" y2="71.91" gradientTransform="translate(-13.41 23.28) rotate(-10.53)" xlink:href="#Безымянный_градиент_53"/><radialGradient id="Безымянный_градиент_127" cx="128.09" cy="80.94" r="45.06" gradientTransform="translate(-13.41 23.28) rotate(-10.53)" gradientUnits="userSpaceOnUse"><stop offset="0.28" stop-color="#984c24"/><stop offset="0.39" stop-color="#864320"/><stop offset="0.62" stop-color="#582c15"/><stop offset="0.94" stop-color="#0e0703"/><stop offset="0.99"/></radialGradient><linearGradient id="Безымянный_градиент_53-3" x1="79.38" y1="20.55" x2="96.3" y2="12.18" gradientTransform="translate(-4.36 7.39) rotate(-5.77)" xlink:href="#Безымянный_градиент_53"/><radialGradient id="Безымянный_градиент_8" cx="60.88" cy="44.25" r="39.45" gradientTransform="translate(-4.36 7.39) rotate(-5.77)" xlink:href="#Безымянный_градиент_127"/><linearGradient id="Безымянный_градиент_49" x1="59.18" y1="25.3" x2="87.94" y2="25.3" gradientTransform="matrix(0.93, -0.16, 0.03, 0.93, -12.19, 0.05)" gradientUnits="userSpaceOnUse"><stop offset="0" stop-color="#31c8c5"/><stop offset="0.2" stop-color="#29a6a3"/><stop offset="0.62" stop-color="#14504f"/><stop offset="1"/></linearGradient><linearGradient id="Безымянный_градиент_49-2" x1="55.18" y1="11.79" x2="83.94" y2="11.79" gradientTransform="translate(-4.36 7.39) rotate(-5.77)" xlink:href="#Безымянный_градиент_49"/><linearGradient id="Безымянный_градиент_24-2" x1="-348.64" y1="114.73" x2="-304.78" y2="133.85" gradientTransform="matrix(-1, -0.32, 1.01, -1.04, -375.54, 132.93)" xlink:href="#Безымянный_градиент_24"/></defs><title>босс1</title><g id="Слой_4" data-name="Слой 4"><path class="cls-1" d="M62.38,80.31s15.06,24.58,16.72,46.43c1.29,16.85-4.24,27.5,5.17,30.29,13.47,4,34.89-6.36,31.62-14.49-4.42-11-5.91-20.58-14.23-34.54-10.46-17.54-11-38.34-19.91-33.22S62.38,80.31,62.38,80.31Z"/><path class="cls-2" d="M115.6,145.87c-3.7,8.92-19.25,15.26-33.26,10-3.09-1.17-.1-5.21,2-5.08,1.28.08,5.34,3.52,5.34,3.52s1.68-6.59,3.33-6.75c1.39-.13,5,5.17,5,5.17a10,10,0,0,1,2.54-6.58c1.5-1.51,6.81,2.88,6.81,2.88s-.27-4,2.73-5.66C112.34,142.15,116.49,143.72,115.6,145.87Z"/><path class="cls-3" d="M85.53,127c1.51,5.62,5.75,8.59,6.86,8.3,1.39-.37,7.14-5.09,5.63-10.71s-8-10.06-9.29-9.19C86.62,116.81,84,121.36,85.53,127Z"/><path class="cls-4" d="M75.71,82.41S59,98.92,58.13,119.69c-.29,7.41-5,17.82-9.58,28.68-5.71,13.52-37.14,1.79-37.18-8.39S26.9,123.87,34.7,109.61C41.59,97,59.35,67.51,67.05,72.68S75.71,82.41,75.71,82.41Z"/><path class="cls-5" d="M11.31,140.4c3.13,9.14,21.29,16.53,32.61,12.74,3.13-1,.38-5.88-1.74-5.88-1.29,0-5.55,3.18-5.55,3.18s-1.27-6.69-2.91-6.95c-1.38-.22-5.33,4.84-5.33,4.84a10,10,0,0,0-2.12-6.73c-1.4-1.6-7,2.45-7,2.45s.53-4-2.37-5.82C14.8,136.89,10.56,138.2,11.31,140.4Z"/><path class="cls-6" d="M43.48,124.89c-3.68,4.5-8.77,5.46-9.65,4.75-1.13-.91-4.42-7.58-.73-12.08s11.45-5.88,12.24-4.56C46.67,115.18,47.17,120.39,43.48,124.89Z"/><path class="cls-7" d="M20.85,125.58c-32.51,27.8-16.48,5.3-7.75-8,5.21-8,16.79-49,17.67-56.39,1.48-12.38,13.05-5.83,12.52-1.3C42.05,70.32,46.85,89.54,20.85,125.58Z"/><path class="cls-8" d="M112.9,60.23l.16.06C113,60.2,112.92,60.18,112.9,60.23Z"/><path class="cls-9" d="M150.73,114.67c-2.62-1.4-10-9.29-10-9.29s9.67,3.28,9.13,1.05c-.65-2.64-6.46-7.09-12.4-11-3.76-2.49,7.71,2.67,5.71-1.3-3.3-6.59-19.63-18.83-19.08-20.17,1.06-2.54,6.58,2.45,6.59.58,0-5.47-9.56-16.79-10.94-17.66l-.16,0s.06,0,.16,0a20.3,20.3,0,0,1,8.06,3.32c3.28,2.22-1.65-8.81-8.79-15.58-9.59-9.11,1.52-3.66.8-5.83-1.87-5.69-16.94-12.57-18.27-14.33a21.53,21.53,0,0,0-5.92-.89c4.59,4.72,7.64,11.68,12.29,24.3,5,13.56,7.49,26.94,10.94,30.59s7.73,12.29,16.38,35.41c5,13.42,19.13,16.47,19.13,16.47s6.71-4.64,5.15-12.36C159,115.14,153.48,116.15,150.73,114.67Z"/><path class="cls-10" d="M97.94,23.91s13.46,14,17.52,31.52c3.33,14.46,1.18,18.6,11.23,26.3s5.19,22.93,15.81,31.13c8.66,6.69,28.53,10.4,1.21,24.09-6.35,3.18-14.64.34-17.94-11.24-9.43-33.19-9.18-15.67-17.89-42.18A209.44,209.44,0,0,1,97.94,23.91Z"/><path class="cls-11" d="M109.49,23.73c-6.26-9.11-20.34-11.87-20.34-11.87s-1.48-.53,8.9-1.58c5.26-.53-18.79-4.74-24.43-4.6-1.36.29-1.9.39-.92.1a3.78,3.78,0,0,1,.92-.1c2.38-.51,7.29-1.62,11-2.27C93.41,1.86,60.48-3,53.76,12.2c0,0-1.16,7.6.75,7.39S65,11.07,65,11.07l6.52,1.57S82.38,13.71,84.42,14c2.72.39,10.46,7,10.77,7.36,1.9,0,1.59.17,3.55.81C98.48,21.77,110.7,25.48,109.49,23.73Z"/><path class="cls-12" d="M31.49,53.34c-3.74-37,16.3-44.42,32.15-46,19.73-2,40.27,14.41,39.21,38.81C101.91,67.54,91.93,90,72.2,92,35.77,95.64,33.85,76.73,31.49,53.34Z"/><path class="cls-13" d="M62.51,37.94c.48,8.48-4.13,16.78-5.76,16.87C53.23,55,47.51,47.87,47,39.4S52.58,23.34,54.69,24C58.2,25,62,29.47,62.51,37.94Z"/><path d="M55.36,49a13.42,13.42,0,0,1-3.08-4.72,16.07,16.07,0,0,1-1.1-4.85,15.82,15.82,0,0,1,.4-5,13.3,13.3,0,0,1,2.4-5.1,13.32,13.32,0,0,1,3.09,4.72,15.7,15.7,0,0,1,1.09,4.85,16.1,16.1,0,0,1-.41,5A13.41,13.41,0,0,1,55.36,49Z"/><path class="cls-13" d="M33.07,46.33c-3.1-6.3-.87-14.28.39-14.77,2.72-1,7,4,10.14,10.31s3.52,12.22,1.65,12.3A13.61,13.61,0,0,1,33.07,46.33Z"/><path d="M34.39,36.38A11.73,11.73,0,0,1,38,39.11a15.67,15.67,0,0,1,2.34,3.39,15.2,15.2,0,0,1,1.37,3.87,11.5,11.5,0,0,1,.11,4.52,11.71,11.71,0,0,1-3.61-2.73,16,16,0,0,1-3.7-7.26A11.71,11.71,0,0,1,34.39,36.38Z"/><path class="cls-13" d="M79.72,43.43c2.68-6.48,0-14.3-1.27-14.71-2.74-.89-7.37,1.42-10,7.91S66.34,52.06,68.19,52A13.47,13.47,0,0,0,79.72,43.43Z"/><path d="M76.88,32.76a11.65,11.65,0,0,1,.2,4.51,15.56,15.56,0,0,1-3.21,7.48,11.47,11.47,0,0,1-3.41,3,11.44,11.44,0,0,1-.2-4.51,15.47,15.47,0,0,1,3.22-7.47A11.72,11.72,0,0,1,76.88,32.76Z"/><path class="cls-14" d="M94.57,25.49a15.66,15.66,0,0,0-2.15-4.06,9.94,9.94,0,0,0-3.68-3,7.29,7.29,0,0,0-2.47-.65,5.44,5.44,0,0,0-2.52.43,7.17,7.17,0,0,0-3.55,3.28l.15.11a34.32,34.32,0,0,1,4-1.49,7.18,7.18,0,0,1,3.82-.14,8.63,8.63,0,0,1,3.49,2.21,16.85,16.85,0,0,1,2.74,3.44Z"/><path class="cls-15" d="M48.33,19.49C41.09,29,39.93-2.52,70.7,5.93,70.7,5.93,58.49,6.11,48.33,19.49Z"/><path class="cls-16" d="M56.82,19.42C49.71,29.06,46.21-4.66,79.93,6.55,79.93,6.55,66.8,5.87,56.82,19.42Z"/><path class="cls-14" d="M97.75,35.29a15.66,15.66,0,0,0-2.15-4.06,10,10,0,0,0-3.68-3,7.35,7.35,0,0,0-2.47-.65,5.44,5.44,0,0,0-2.52.43,7.17,7.17,0,0,0-3.55,3.28l.15.11a33.68,33.68,0,0,1,4-1.49,7.18,7.18,0,0,1,3.82-.14A8.63,8.63,0,0,1,94.88,32a16.85,16.85,0,0,1,2.74,3.44Z"/><path class="cls-14" d="M101.45,45.86a15.6,15.6,0,0,0-2.15-4,9.75,9.75,0,0,0-3.68-3,7.54,7.54,0,0,0-2.47-.66,5.58,5.58,0,0,0-2.52.44,7.22,7.22,0,0,0-3.55,3.28l.15.11a34.32,34.32,0,0,1,4-1.49,7,7,0,0,1,3.82-.14,8.71,8.71,0,0,1,3.49,2.2A17.13,17.13,0,0,1,101.32,46Z"/><path class="cls-14" d="M35.18,71a16,16,0,0,1,1.22-4.6,9.47,9.47,0,0,1,3.05-3.81,7.67,7.67,0,0,1,2.39-1.11,6.09,6.09,0,0,1,2.72,0A8.41,8.41,0,0,1,49,64.24l-.13.15a35.51,35.51,0,0,0-4.54-.84,7.31,7.31,0,0,0-4,.52A8.22,8.22,0,0,0,37.32,67a16.23,16.23,0,0,0-2,4.06Z"/><path class="cls-14" d="M36.64,77.91a15.47,15.47,0,0,1,1.3-4.4,9.92,9.92,0,0,1,3-3.71,7.65,7.65,0,0,1,2.29-1.13,5.5,5.5,0,0,1,2.55-.08,7.21,7.21,0,0,1,4.14,2.5l-.13.14a33.8,33.8,0,0,0-4.25-.65,7.08,7.08,0,0,0-3.77.63,8.5,8.5,0,0,0-3,2.86,17.39,17.39,0,0,0-2,3.91Z"/><path class="cls-14" d="M80.12,61.5a17.23,17.23,0,0,0-5.57-2.29,13.44,13.44,0,0,0-5.85-.07,7.89,7.89,0,0,0-1.4.39,6.09,6.09,0,0,0-1.33.54c-.43.21-.87.4-1.3.6s-.84.48-1.27.7c-.22.11-.44.21-.65.33l-.62.4c-.42.26-.83.53-1.27.78-.83.56-1.64,1.17-2.58,1.69l-.15-.13a17.16,17.16,0,0,1,1.8-2.62c.37-.39.76-.75,1.15-1.13l.6-.55c.21-.16.44-.31.66-.46.46-.3.92-.59,1.39-.87s1-.41,1.53-.59a7.9,7.9,0,0,1,1.59-.41,9.8,9.8,0,0,1,1.61-.25,14.62,14.62,0,0,1,6.35.69,16.66,16.66,0,0,1,5.44,3.09Z"/><path class="cls-14" d="M80.17,69a16.8,16.8,0,0,0-5-2.65,14,14,0,0,0-5.41-.83,10,10,0,0,0-1.35.14,7.49,7.49,0,0,0-1.33.28c-.43.12-.86.22-1.3.32s-.86.27-1.29.39l-.66.17-.64.24c-.44.15-.87.32-1.32.45-.88.33-1.74.72-2.72,1l-.11-.17a15.53,15.53,0,0,1,2.15-2.06,13.75,13.75,0,0,1,2.61-1.49c.48-.19.95-.38,1.43-.53s1-.19,1.51-.26a7.76,7.76,0,0,1,1.52-.09,8.56,8.56,0,0,1,1.52,0,15.39,15.39,0,0,1,5.77,1.49,16.11,16.11,0,0,1,4.72,3.44Z"/><path class="cls-17" d="M57.07,91c-11.7-.76-19.33-6.67-19.23-8.53.14-2.34,7-12.92,18.74-12.16s23.2,9.88,22,12.16C76.64,86.26,68.78,91.75,57.07,91Z"/><path class="cls-18" d="M42.15,86.64c6.56,5.42,23.71,6.8,29.88,1.78,1.71-1.39-4.87-2.84-5.13-2.8-1,.16-2.73,3-2.73,3s-4.1-4-5.38-3.85c-1.08.16-2.72,4-2.72,4s-1.24-3.42-2.33-4.31-5.81,3-5.81,3-.38-2.42-2-3.11C45.64,84.29,40.58,85.34,42.15,86.64Z"/><path class="cls-18" d="M47.46,72.81c8.19-7.32,22,2.1,22,2.1s-4.32,4.15-5.54,3.73c-1-.35-2.39-5.37-2.39-5.37s-2.93,3.8-4.17,4.47S53.3,73,53.3,73s-.9,4.35-2.64,4.73C50.36,77.81,46.88,73.33,47.46,72.81Z"/><path class="cls-18" d="M43.14,74s-6.72,4-7.21,15.8c-.5,12.07,4.4,12.81,4.4,12.81a133.9,133.9,0,0,1,0-13.5c.43-4.14,6.6-12.33,6.6-12.33S49.73,70.26,43.14,74Z"/><path class="cls-18" d="M73.15,76.4s8.27,5.89,3.54,17-7.12,11.51-7.12,11.51,2.48-9,3-13.16-3.71-13.49-3.71-13.49S66.75,72.75,73.15,76.4Z"/><path class="cls-19" d="M75.75,133.32c-30.68,29.79-16.1,6.33-8.24-7.54,4.7-8.28,13.66-50,14.07-57.39.7-12.45,12.66-6.65,12.41-2.09C93.42,76.83,99.42,95.71,75.75,133.32Z"/></g></svg>