<svg xmlns="http://www.w3.org/2000/svg" xmlns:xlink="http://www.w3.org/1999/xlink" viewBox="0 0 160 160"><defs><style>.cls-1,.cls-10,.cls-11,.cls-12,.cls-13,.cls-15,.cls-16,.cls-17,.cls-18,.cls-19,.cls-2,.cls-3,.cls-4,.cls-5,.cls-6,.cls-7,.cls-8,.cls-9{stroke:#000;stroke-miterlimit:10;}.cls-1{fill:url(#Безымянный_градиент_53);}.cls-2{fill:url(#Безымянный_градиент_127);}.cls-3{fill:url(#Безымянный_градиент_58);}.cls-4{fill:url(#Безымянный_градиент_55);}.cls-5{fill:url(#Безымянный_градиент_18);}.cls-6{fill:url(#Безымянный_градиент_59);}.cls-7{fill:url(#Безымянный_градиент_56);}.cls-8{fill:url(#Безымянный_градиент_18-2);}.cls-9{fill:url(#Безымянный_градиент_24);}.cls-10{fill:url(#Безымянный_градиент_53-2);}.cls-11{fill:url(#Безымянный_градиент_53-3);}.cls-12{fill:url(#Безымянный_градиент_8);}.cls-13{fill:#f9f912;}.cls-13,.cls-17{stroke-width:2px;}.cls-14{fill:gray;}.cls-15{fill:url(#Безымянный_градиент_49);}.cls-16{fill:url(#Безымянный_градиент_49-2);}.cls-17{fill:#b60000;}.cls-18{fill:#31c8c5;}.cls-19{fill:url(#Безымянный_градиент_24-2);}</style><linearGradient id="Безымянный_градиент_53" x1="124.9" y1="168.89" x2="137.74" y2="162.54" gradientTransform="matrix(0.99, 0.13, -0.13, 1.02, 28.62, -101.25)" gradientUnits="userSpaceOnUse"><stop offset="0"/><stop offset="0.08" stop-color="#071b1a"/><stop offset="0.25" stop-color="#134f4e"/><stop offset="0.42" stop-color="#1e7a79"/><stop offset="0.58" stop-color="#269c9a"/><stop offset="0.74" stop-color="#2cb4b2"/><stop offset="0.88" stop-color="#30c3c0"/><stop offset="1" stop-color="#31c8c5"/></linearGradient><radialGradient id="Безымянный_градиент_127" cx="127.16" cy="171.58" r="45.06" gradientTransform="matrix(0.99, 0.13, -0.13, 1.02, 28.62, -101.25)" gradientUnits="userSpaceOnUse"><stop offset="0.28" stop-color="#984c24"/><stop offset="0.39" stop-color="#864320"/><stop offset="0.62" stop-color="#582c15"/><stop offset="0.94" stop-color="#0e0703"/><stop offset="0.99"/></radialGradient><linearGradient id="Безымянный_градиент_58" x1="9.18" y1="44.49" x2="57.81" y2="44.49" gradientTransform="matrix(0.87, -0.5, 0.5, 0.87, 23.41, 89.15)" gradientUnits="userSpaceOnUse"><stop offset="0" stop-color="gray"/><stop offset="0.15" stop-color="#757575"/><stop offset="0.4" stop-color="#585858"/><stop offset="0.74" stop-color="#282828"/><stop offset="0.99"/></linearGradient><linearGradient id="Безымянный_градиент_55" x1="27.27" y1="89.23" x2="27.27" y2="77.64" gradientTransform="matrix(0.87, -0.5, 0.5, 0.87, 23.41, 89.15)" gradientUnits="userSpaceOnUse"><stop offset="0"/><stop offset="0.03" stop-color="#040e0e"/><stop offset="0.16" stop-color="#0f3f3e"/><stop offset="0.3" stop-color="#1a6968"/><stop offset="0.43" stop-color="#228b89"/><stop offset="0.57" stop-color="#29a6a4"/><stop offset="0.71" stop-color="#2db9b6"/><stop offset="0.85" stop-color="#30c4c1"/><stop offset="1" stop-color="#31c8c5"/></linearGradient><radialGradient id="Безымянный_градиент_18" cx="31.85" cy="54.88" r="6.86" gradientTransform="matrix(0.76, -0.49, 0.45, 0.87, 29.36, 88.66)" gradientUnits="userSpaceOnUse"><stop offset="0"/><stop offset="0.18" stop-color="#311508"/><stop offset="0.37" stop-color="#5d280e"/><stop offset="0.55" stop-color="#803714"/><stop offset="0.72" stop-color="#994218"/><stop offset="0.87" stop-color="#a8491a"/><stop offset="1" stop-color="#ad4b1b"/></radialGradient><linearGradient id="Безымянный_градиент_59" x1="78.08" y1="123.53" x2="109.65" y2="114.16" gradientTransform="matrix(0.94, 0.34, -0.34, 0.94, 56.54, -30.92)" gradientUnits="userSpaceOnUse"><stop offset="0" stop-color="gray"/><stop offset="0.14" stop-color="#777"/><stop offset="0.37" stop-color="#5e5e5e"/><stop offset="0.67" stop-color="#353535"/><stop offset="0.99"/></linearGradient><linearGradient id="Безымянный_градиент_56" x1="88.81" y1="243.02" x2="88.81" y2="231.6" gradientTransform="matrix(0.97, 0.26, -0.26, 0.97, 67.62, -99.85)" xlink:href="#Безымянный_градиент_55"/><radialGradient id="Безымянный_градиент_18-2" cx="86.8" cy="208.93" r="8.47" gradientTransform="matrix(1.06, 0.28, -0.26, 0.97, 61.5, -101.09)" xlink:href="#Безымянный_градиент_18"/><linearGradient id="Безымянный_градиент_24" x1="-1473.01" y1="321.95" x2="-1437.51" y2="357.96" gradientTransform="matrix(-0.85, -0.63, 1.28, -0.66, -1639.41, -576.73)" gradientUnits="userSpaceOnUse"><stop offset="0" stop-color="#984c24"/><stop offset="0.04" stop-color="#80401e"/><stop offset="0.14" stop-color="#532914"/><stop offset="0.22" stop-color="#2f170b"/><stop offset="0.31" stop-color="#150b05"/><stop offset="0.38" stop-color="#050301"/><stop offset="0.44"/><stop offset="0.79" stop-color="#343434"/><stop offset="0.99" stop-color="#4d4d4d"/></linearGradient><linearGradient id="Безымянный_градиент_53-2" x1="134.44" y1="60.44" x2="134.49" y2="60.42" gradientTransform="matrix(1, 0, 0, 1, 0, 0)" xlink:href="#Безымянный_градиент_53"/><linearGradient id="Безымянный_градиент_53-3" x1="101.17" y1="21.86" x2="118.09" y2="13.49" gradientTransform="translate(3.03 -7.13) rotate(3.75)" xlink:href="#Безымянный_градиент_53"/><radialGradient id="Безымянный_градиент_8" cx="82.67" cy="45.56" r="39.45" gradientTransform="translate(3.03 -7.13) rotate(3.75)" xlink:href="#Безымянный_градиент_127"/><linearGradient id="Безымянный_градиент_49" x1="125.42" y1="77.66" x2="154.19" y2="77.66" gradientTransform="matrix(0.96, 0.09, -0.04, 0.97, -46.51, -78.78)" gradientUnits="userSpaceOnUse"><stop offset="0" stop-color="#31c8c5"/><stop offset="0.2" stop-color="#29a6a3"/><stop offset="0.62" stop-color="#14504f"/><stop offset="1"/></linearGradient><linearGradient id="Безымянный_градиент_49-2" x1="76.97" y1="13.11" x2="105.74" y2="13.11" gradientTransform="translate(3.03 -7.13) rotate(3.75)" xlink:href="#Безымянный_градиент_49"/><linearGradient id="Безымянный_градиент_24-2" x1="-1569.44" y1="296" x2="-1525.58" y2="315.12" gradientTransform="matrix(-0.92, -0.52, 1.19, -0.82, -1697.82, -441.47)" xlink:href="#Безымянный_градиент_24"/></defs><title>босс1</title><g id="Слой_6" data-name="Слой 6"><path class="cls-1" d="M143.45,131.77c-2-2.19-6.61-12.21-6.61-12.21s8.18,6.23,8.35,3.88c.21-2.79-3.93-9-8.36-14.67-2.8-3.61,6.5,5,5.84.51-1.1-7.48-12.82-24.57-11.88-25.7,1.79-2.16,5.49,4.45,6.08,2.62C138.6,80.85,133,66.78,132,65.5l-.15-.08s.08,0,.15.08a20.15,20.15,0,0,1,6.64,5.76c2.43,3.19,1.16-9.14-3.52-18-6.3-11.92,2.58-3.1,2.57-5.46,0-6.15-12.21-17.59-12.93-19.73a20.8,20.8,0,0,0-5.35-2.72c2.9,6,3.64,13.82,4.14,27.62.54,14.84-1.25,28.72.9,33.37s3.53,14.44,4.58,39.78c.6,14.71,13.07,22.11,13.07,22.11s7.82-2.46,8.74-10.5C151.13,134.8,145.61,134.08,143.45,131.77Z"/><path class="cls-2" d="M121.46,26.43s8.46,17.86,6.86,36.33C127,78,123.67,81.35,130.83,92s-2.19,24.07,5.36,35.41c6.16,9.25,23.9,19.09-6.34,24-7,1.14-14-4.24-13.56-16.6,1.35-35.44-3.86-18.21-3.91-46.89A221,221,0,0,1,121.46,26.43Z"/><path class="cls-3" d="M77.57,67.36s-.56,23.52,13.29,39c5,5.53,8.81,16.29,13.06,27.28,5.3,13.69-25.44,27.12-32.55,19.83s0-22.38-4.35-38c-3.81-13.85-11.57-47.4-2.44-49S77.57,67.36,77.57,67.36Z"/><path class="cls-4" d="M71.62,153.82c8.6,4.39,26.79-2.92,32.29-13.52,1.52-2.93-3.81-4.49-5.34-3-.92.89-1.78,6.15-1.78,6.15s-5.56-3.93-6.92-3c-1.14.8-.46,7.18-.46,7.18a10,10,0,0,0-6.21-3.36c-2.11-.17-3.31,6.61-3.31,6.61s-2.4-3.24-5.75-2.53C71.69,148.87,69.55,152.76,71.62,153.82Z"/><path class="cls-5" d="M84,120.3c.48,5.8-2.14,10-3.14,10.09-1.28.11-7.52-2.45-8-8.25S76.39,110,77.71,110.4C79.91,111.08,83.47,114.5,84,120.3Z"/><path class="cls-6" d="M95.77,78.84s-1,21.19-9.25,41.46c-6.4,15.65-16.11,22.7-9,29.41,10.26,9.6,34,9.93,34.76,1.2,1-11.8,4.26-21.08,2.75-37.26-3.45-36.72,6.12-49.25-2.32-44.37C103.9,74.4,95.77,78.84,95.77,78.84Z"/><path class="cls-7" d="M110.58,153.75c-7.3,6.33-24,5-34.21-6-2.24-2.43,2.25-4.71,4.08-3.64,1.12.65,3.2,5.54,3.2,5.54s4.46-5.14,6-4.54c1.3.5,2.17,6.87,2.17,6.87a10,10,0,0,1,5.22-4.75c2-.68,4.8,5.62,4.8,5.62s1.55-3.72,5-3.83C109.33,149,112.34,152.23,110.58,153.75Z"/><path class="cls-8" d="M92.16,123.4C91,129.1,93.78,133.71,95,134c1.56.33,9.46-1.19,10.63-6.89s-3.16-12.69-4.82-12.51C98,114.87,93.33,117.7,92.16,123.4Z"/><path class="cls-9" d="M28.72,125c-38.57,18.48-17.28.88-5.41-9.77,7.09-6.35,28.85-43,31.6-49.93,4.62-11.59,14.12-2.27,12.43,2C63.44,77.09,63.13,96.89,28.72,125Z"/><path class="cls-10" d="M134.37,60.42l.16,0C134.44,60.39,134.39,60.36,134.37,60.42Z"/><path class="cls-11" d="M134.27,30.56c-4.67-10-18.1-15.07-18.1-15.07s-1.37-.77,9-.09c5.28.35-17.74-7.79-23.32-8.58-1.39.06-1.94.07-.93-.06a4.22,4.22,0,0,1,.93.06c2.43-.11,7.45-.39,11.19-.42C122,6.33,90.36-4,81.22,10c0,0-2.41,7.3-.49,7.41S92.46,10.7,92.46,10.7l6.16,2.64s10.57,2.85,12.53,3.48c2.62.84,9.16,8.61,9.4,9,1.87.35,1.54.44,3.37,1.39C123.73,26.8,135.17,32.49,134.27,30.56Z"/><path class="cls-12" d="M52.44,46.86C54.88,9.72,75.87,5.74,91.77,6.79,111.55,8.08,129.1,27.67,124,51.55c-4.46,21-18,41.49-37.81,40.17C49.66,89.28,50.91,70.31,52.44,46.86Z"/><path class="cls-13" d="M85.59,36.8c-.94,8.44-6.86,15.86-8.48,15.68-3.5-.39-8-8.37-7-16.81s8.12-14.91,10.1-14C83.47,23.33,86.52,28.36,85.59,36.8Z"/><path d="M76.7,46.52a13.68,13.68,0,0,1-2.26-5.16,16.07,16.07,0,0,1-.28-5,15.76,15.76,0,0,1,1.22-4.82,13.21,13.21,0,0,1,3.21-4.63,13.33,13.33,0,0,1,2.27,5.16,15.72,15.72,0,0,1,.27,5,16.06,16.06,0,0,1-1.23,4.83A13.31,13.31,0,0,1,76.7,46.52Z"/><path class="cls-13" d="M55.16,40.2c-2-6.73,1.5-14.22,2.83-14.5,2.85-.59,6.27,5.11,8.3,11.84S67.73,50.18,65.88,50A13.61,13.61,0,0,1,55.16,40.2Z"/><path d="M58.1,30.6a11.82,11.82,0,0,1,3.1,3.3,15.53,15.53,0,0,1,1.74,3.72,15.09,15.09,0,0,1,.72,4.05A11.52,11.52,0,0,1,63,46.14a11.66,11.66,0,0,1-3.1-3.29,15.12,15.12,0,0,1-1.73-3.72,15.64,15.64,0,0,1-.72-4.05A11.94,11.94,0,0,1,58.1,30.6Z"/><path class="cls-13" d="M101.65,45.06c3.72-6,2.36-14.11,1.18-14.72-2.56-1.33-7.51.19-11.22,6.14S87,51.36,88.86,51.62A13.45,13.45,0,0,0,101.65,45.06Z"/><path d="M100.62,34.07a11.81,11.81,0,0,1-.56,4.48,15.79,15.79,0,0,1-1.75,3.71,15.45,15.45,0,0,1-2.65,3.14,11.56,11.56,0,0,1-3.86,2.35,11.62,11.62,0,0,1,.55-4.48,15.43,15.43,0,0,1,1.76-3.71,15.13,15.13,0,0,1,2.66-3.13A11.58,11.58,0,0,1,100.62,34.07Z"/><path class="cls-14" d="M119.27,29.82a15.6,15.6,0,0,0-1.46-4.35,9.77,9.77,0,0,0-3.12-3.6,7.68,7.68,0,0,0-2.33-1.06,5.54,5.54,0,0,0-2.56,0,7.19,7.19,0,0,0-4,2.64l.13.14a32,32,0,0,1,4.22-.8,7.07,7.07,0,0,1,3.8.49A8.54,8.54,0,0,1,117,26.05a16.89,16.89,0,0,1,2.14,3.85Z"/><path class="cls-15" d="M75.24,14.57c-8,7.91-6.9-25,23.72-8C99,6.58,86.54,3.47,75.24,14.57Z"/><path class="cls-16" d="M83,17.59C74.43,25.93,76.55-7.91,108,8.72,108,8.72,95.12,5.88,83,17.59Z"/><path class="cls-14" d="M120.78,40a15.6,15.6,0,0,0-1.46-4.35,9.85,9.85,0,0,0-3.12-3.6A7.68,7.68,0,0,0,113.87,31a5.54,5.54,0,0,0-2.56,0,7.19,7.19,0,0,0-4,2.64l.13.14a31.86,31.86,0,0,1,4.23-.8,7,7,0,0,1,3.79.49,8.66,8.66,0,0,1,3.08,2.75,17.24,17.24,0,0,1,2.13,3.85Z"/><path class="cls-14" d="M122.68,51.06a15.87,15.87,0,0,0-1.45-4.36,10,10,0,0,0-3.13-3.6,7.66,7.66,0,0,0-2.33-1.05,5.54,5.54,0,0,0-2.56,0,7.24,7.24,0,0,0-4,2.64l.13.14a33.55,33.55,0,0,1,4.23-.8,7.23,7.23,0,0,1,3.79.49,8.69,8.69,0,0,1,3.08,2.76,17,17,0,0,1,2.13,3.84Z"/><path class="cls-14" d="M53.17,64.84a15.59,15.59,0,0,1,2-4.33,9.39,9.39,0,0,1,3.63-3.25,7.39,7.39,0,0,1,2.54-.7A5.94,5.94,0,0,1,64,57a8.39,8.39,0,0,1,4,3.49l-.16.12a35.61,35.61,0,0,0-4.33-1.58,7.35,7.35,0,0,0-4-.14,8.16,8.16,0,0,0-3.5,2.36A16.61,16.61,0,0,0,53.32,65Z"/><path class="cls-14" d="M55.79,74.6A15.37,15.37,0,0,1,55.58,70a9.92,9.92,0,0,1,1.63-4.48A7.55,7.55,0,0,1,59,63.71a5.63,5.63,0,0,1,2.39-.91,7.23,7.23,0,0,1,4.72,1L66,64a33.83,33.83,0,0,0-4.23.78,6.93,6.93,0,0,0-3.36,1.82,8.65,8.65,0,0,0-1.89,3.67,16.84,16.84,0,0,0-.6,4.35Z"/><path class="cls-14" d="M99.05,62.94a17.25,17.25,0,0,0-5.12-3.17,13.33,13.33,0,0,0-5.75-1,7.82,7.82,0,0,0-1.44.15,6.83,6.83,0,0,0-1.41.31c-.46.14-.92.26-1.38.38s-.91.34-1.37.49c-.23.07-.47.13-.69.21l-.68.3c-.45.18-.91.38-1.38.55-.91.42-1.81.89-2.83,1.25l-.12-.16a17.69,17.69,0,0,1,2.21-2.29c.43-.32.88-.62,1.32-.92l.68-.44c.24-.13.49-.24.73-.35.5-.22,1-.43,1.51-.62s1.08-.24,1.61-.34a8.19,8.19,0,0,1,1.64-.13,8.88,8.88,0,0,1,1.63,0,14.68,14.68,0,0,1,6.15,1.73,16.73,16.73,0,0,1,4.84,4Z"/><path class="cls-14" d="M97.86,70.38a16.72,16.72,0,0,0-4.44-3.44,14,14,0,0,0-5.21-1.71,8.67,8.67,0,0,0-1.35-.09,7.62,7.62,0,0,0-1.35,0c-.45,0-.89.09-1.34.1s-.89.13-1.34.18l-.68.06-.67.13c-.46.07-.91.16-1.38.22-.91.18-1.83.42-2.84.53l-.08-.18a14.26,14.26,0,0,1,2.46-1.68,12.8,12.8,0,0,1,2.83-1c.49-.11,1-.21,1.49-.29s1,0,1.53,0a8.63,8.63,0,0,1,1.52.17,9.32,9.32,0,0,1,1.49.28,15.2,15.2,0,0,1,5.44,2.43A15.7,15.7,0,0,1,98,70.26Z"/><path class="cls-17" d="M78.54,91.18c-11.71-.77-19.34-6.68-19.23-8.53.13-2.35,7-12.93,18.73-12.16s23.21,9.88,22,12.16C98.1,86.45,90.25,91.94,78.54,91.18Z"/><path class="cls-18" d="M63.62,86.83c6.56,5.41,23.71,6.79,29.88,1.77,1.71-1.39-4.87-2.84-5.13-2.8-1,.17-2.73,3-2.73,3s-4.11-4-5.39-3.86c-1.07.16-2.71,4-2.71,4s-1.25-3.41-2.34-4.31-5.8,3-5.8,3-.38-2.42-2-3.12C67.1,84.47,62,85.52,63.62,86.83Z"/><path class="cls-18" d="M68.93,73c8.18-7.32,22,2.11,22,2.11s-4.31,4.15-5.53,3.73c-1-.36-2.4-5.37-2.4-5.37s-2.92,3.79-4.16,4.47-4.08-4.73-4.08-4.73-.89,4.34-2.63,4.73C71.83,78,68.35,73.51,68.93,73Z"/><path class="cls-18" d="M63.25,75.23s-5.5,5.54-3,17.1c2.54,11.82,7.47,11.3,7.47,11.3a134.3,134.3,0,0,1-3.38-13.07C63.7,86.45,67.62,77,67.62,77S68.7,69.94,63.25,75.23Z"/><path class="cls-18" d="M95.67,78.65s4.94,8.88-4.12,16.88-11.38,7.33-11.38,7.33a134.4,134.4,0,0,0,8.35-10.6C90.75,88.75,91,78.49,91,78.49S91.46,72.61,95.67,78.65Z"/><path class="cls-19" d="M84.65,130.35c-36,23.1-17,3-6.58-9,6.25-7.18,23.32-46.28,25.19-53.45,3.16-12.07,13.73-4,12.58.42C113.19,78.49,115.32,98.19,84.65,130.35Z"/></g></svg>