<svg xmlns="http://www.w3.org/2000/svg" xmlns:xlink="http://www.w3.org/1999/xlink" viewBox="0 0 160 160"><defs><style>.cls-1,.cls-10,.cls-11,.cls-12,.cls-13,.cls-15,.cls-16,.cls-17,.cls-18,.cls-19,.cls-2,.cls-3,.cls-4,.cls-5,.cls-6,.cls-7,.cls-8,.cls-9{stroke:#000;stroke-miterlimit:10;}.cls-1{fill:url(#Безымянный_градиент_59);}.cls-2{fill:url(#Безымянный_градиент_56);}.cls-3{fill:url(#Безымянный_градиент_18);}.cls-4{fill:url(#Безымянный_градиент_58);}.cls-5{fill:url(#Безымянный_градиент_55);}.cls-6{fill:url(#Безымянный_градиент_18-2);}.cls-7{fill:url(#Безымянный_градиент_24);}.cls-8{fill:url(#Безымянный_градиент_53);}.cls-9{fill:url(#Безымянный_градиент_53-2);}.cls-10{fill:url(#Безымянный_градиент_127);}.cls-11{fill:url(#Безымянный_градиент_53-3);}.cls-12{fill:url(#Безымянный_градиент_8);}.cls-13{fill:#f9f912;}.cls-13,.cls-17{stroke-width:2px;}.cls-14{fill:gray;}.cls-15{fill:url(#Безымянный_градиент_49);}.cls-16{fill:url(#Безымянный_градиент_49-2);}.cls-17{fill:#b60000;}.cls-18{fill:#31c8c5;}.cls-19{fill:url(#Безымянный_градиент_24-2);}</style><linearGradient id="Безымянный_градиент_59" x1="78.78" y1="122.37" x2="110.23" y2="113.03" gradientTransform="translate(-1.89 -0.42) rotate(-1.98)" gradientUnits="userSpaceOnUse"><stop offset="0" stop-color="gray"/><stop offset="0.14" stop-color="#777"/><stop offset="0.37" stop-color="#5e5e5e"/><stop offset="0.67" stop-color="#353535"/><stop offset="0.99"/></linearGradient><linearGradient id="Безымянный_градиент_56" x1="91.1" y1="195.41" x2="91.1" y2="183.99" gradientTransform="translate(-13.64 -24.26) rotate(-6.84)" gradientUnits="userSpaceOnUse"><stop offset="0"/><stop offset="0.03" stop-color="#040e0e"/><stop offset="0.16" stop-color="#0f3f3e"/><stop offset="0.3" stop-color="#1a6968"/><stop offset="0.43" stop-color="#228b89"/><stop offset="0.57" stop-color="#29a6a4"/><stop offset="0.71" stop-color="#2db9b6"/><stop offset="0.85" stop-color="#30c4c1"/><stop offset="1" stop-color="#31c8c5"/></linearGradient><radialGradient id="Безымянный_градиент_18" cx="89.05" cy="161.31" r="8.47" gradientTransform="matrix(1.13, -0.14, 0.11, 0.99, -23.55, -22.47)" gradientUnits="userSpaceOnUse"><stop offset="0"/><stop offset="0.18" stop-color="#311508"/><stop offset="0.37" stop-color="#5d280e"/><stop offset="0.55" stop-color="#803714"/><stop offset="0.72" stop-color="#994218"/><stop offset="0.87" stop-color="#a8491a"/><stop offset="1" stop-color="#ad4b1b"/></radialGradient><linearGradient id="Безымянный_градиент_58" x1="19.47" y1="68.84" x2="68.09" y2="68.84" gradientTransform="matrix(1, 0.03, -0.03, 1, 6.88, 41.72)" gradientUnits="userSpaceOnUse"><stop offset="0" stop-color="gray"/><stop offset="0.15" stop-color="#757575"/><stop offset="0.4" stop-color="#585858"/><stop offset="0.74" stop-color="#282828"/><stop offset="0.99"/></linearGradient><linearGradient id="Безымянный_градиент_55" x1="37.55" y1="113.59" x2="37.55" y2="102" gradientTransform="matrix(1, 0.03, -0.03, 1, 6.88, 41.72)" xlink:href="#Безымянный_градиент_56"/><radialGradient id="Безымянный_градиент_18-2" cx="41.21" cy="78.8" r="6.86" gradientTransform="matrix(1.1, 0.08, 0.02, 1.02, -0.25, 38.13)" xlink:href="#Безымянный_градиент_18"/><linearGradient id="Безымянный_градиент_24" x1="-591.14" y1="154.09" x2="-555.64" y2="190.1" gradientTransform="matrix(-0.97, -0.42, 1.11, -0.93, -717.78, 26.49)" gradientUnits="userSpaceOnUse"><stop offset="0" stop-color="#984c24"/><stop offset="0.04" stop-color="#80401e"/><stop offset="0.14" stop-color="#532914"/><stop offset="0.22" stop-color="#2f170b"/><stop offset="0.31" stop-color="#150b05"/><stop offset="0.38" stop-color="#050301"/><stop offset="0.44"/><stop offset="0.79" stop-color="#343434"/><stop offset="0.99" stop-color="#4d4d4d"/></linearGradient><linearGradient id="Безымянный_градиент_53" x1="118.83" y1="60.16" x2="118.88" y2="60.13" gradientUnits="userSpaceOnUse"><stop offset="0"/><stop offset="0.08" stop-color="#071b1a"/><stop offset="0.25" stop-color="#134f4e"/><stop offset="0.42" stop-color="#1e7a79"/><stop offset="0.58" stop-color="#269c9a"/><stop offset="0.74" stop-color="#2cb4b2"/><stop offset="0.88" stop-color="#30c3c0"/><stop offset="1" stop-color="#31c8c5"/></linearGradient><linearGradient id="Безымянный_градиент_53-2" x1="122.19" y1="105.83" x2="135.03" y2="99.48" gradientTransform="matrix(0.99, -0.13, 0.14, 1.01, -11.69, -11.53)" xlink:href="#Безымянный_градиент_53"/><radialGradient id="Безымянный_градиент_127" cx="124.46" cy="108.52" r="45.06" gradientTransform="matrix(0.99, -0.13, 0.14, 1.01, -11.69, -11.53)" gradientUnits="userSpaceOnUse"><stop offset="0.28" stop-color="#984c24"/><stop offset="0.39" stop-color="#864320"/><stop offset="0.62" stop-color="#582c15"/><stop offset="0.94" stop-color="#0e0703"/><stop offset="0.99"/></radialGradient><linearGradient id="Безымянный_градиент_53-3" x1="85.24" y1="20.44" x2="102.16" y2="12.08" gradientTransform="translate(-4.1 7.56) rotate(-5.45)" xlink:href="#Безымянный_градиент_53"/><radialGradient id="Безымянный_градиент_8" cx="66.74" cy="44.15" r="39.45" gradientTransform="translate(-4.1 7.56) rotate(-5.45)" xlink:href="#Безымянный_градиент_127"/><linearGradient id="Безымянный_градиент_49" x1="76.07" y1="37.86" x2="104.83" y2="37.86" gradientTransform="matrix(0.88, -0.09, 0.08, 0.88, -17.8, -14.24)" gradientUnits="userSpaceOnUse"><stop offset="0" stop-color="#31c8c5"/><stop offset="0.2" stop-color="#29a6a3"/><stop offset="0.62" stop-color="#14504f"/><stop offset="1"/></linearGradient><linearGradient id="Безымянный_градиент_49-2" x1="61.04" y1="11.69" x2="89.81" y2="11.69" gradientTransform="matrix(0.97, -0.06, 0.12, 0.97, -1.57, 4.9)" xlink:href="#Безымянный_градиент_49"/><linearGradient id="Безымянный_градиент_24-2" x1="-655.74" y1="156.8" x2="-611.88" y2="175.92" gradientTransform="matrix(-0.98, -0.39, 1.07, -0.97, -718.25, 24.26)" xlink:href="#Безымянный_градиент_24"/></defs><title>босс1</title><g id="Слой_7" data-name="Слой 7"><path class="cls-1" d="M69.17,78.09s12.9,25.79,12.68,47.7c-.16,16.9-6.58,27,2.55,30.62,13.08,5.13,35.31-3.34,32.74-11.73-3.45-11.31-4.11-21-11.21-35.63-8.92-18.37-7.72-39.14-17-34.8S69.17,78.09,69.17,78.09Z"/><path class="cls-2" d="M116.57,148c-4.45,8.57-20.49,13.55-34,7.09-3-1.43.35-5.2,2.44-4.89,1.28.19,5,4,5,4s2.24-6.42,3.9-6.44c1.39,0,4.56,5.58,4.56,5.58A10,10,0,0,1,101.6,147c1.62-1.37,6.54,3.45,6.54,3.45s.07-4,3.2-5.4C113.64,144,117.64,145.91,116.57,148Z"/><path class="cls-3" d="M88.24,126.58c1,5.72,5.46,9,6.75,8.73,1.63-.28,8.72-4.67,7.7-10.4s-7.86-10.58-9.4-9.78A11.05,11.05,0,0,0,88.24,126.58Z"/><path class="cls-4" d="M74.11,76s-12.73,19.78-9,40.22c1.34,7.3-1,18.49-3.07,30.09-2.6,14.44-35.84,9.89-38.11,0s11.62-19.13,16.1-34.75C44,97.68,54.88,65,63.52,68.36S74.11,76,74.11,76Z"/><path class="cls-5" d="M24,146.65c5.06,8.23,24.4,11.47,34.61,5.29,2.83-1.71-.91-5.82-3-5.36-1.26.28-4.73,4.32-4.73,4.32s-2.69-6.25-4.35-6.14c-1.39.08-4.14,5.89-4.14,5.89a10,10,0,0,0-3.55-6.1c-1.71-1.25-6.27,3.91-6.27,3.91s-.36-4-3.59-5.15C26.63,142.47,22.78,144.67,24,146.65Z"/><path class="cls-6" d="M53.46,125.21c-2.61,5.2-7.75,7.06-8.9,6.49-1.46-.73-6.93-6.91-4.32-12.11s10.48-7.94,11.71-6.75C54,114.82,56.06,120,53.46,125.21Z"/><path class="cls-7" d="M25.6,125.46c-33.51,26.58-16.66,4.69-7.45-8.32,5.51-7.77,18.59-48.38,19.74-55.7,1.94-12.32,13.27-5.35,12.56-.84C48.82,71,52.91,90.4,25.6,125.46Z"/><path class="cls-8" d="M118.77,60.13l.16,0C118.84,60.1,118.78,60.08,118.77,60.13Z"/><path class="cls-9" d="M148.31,118.81c-2.55-1.57-9.55-10-9.55-10s9.51,3.86,9.07,1.56c-.52-2.73-6.12-7.58-11.88-11.91-3.64-2.74,7.58,3.13,5.77-1-3-6.89-18.75-20.25-18.14-21.58,1.17-2.54,6.45,2.85,6.55.94.28-5.58-8.78-17.64-10.11-18.6l-.17,0s.07,0,.17,0a20.42,20.42,0,0,1,7.9,3.81c3.18,2.44-1.25-9.07-8.07-16.36-9.17-9.8,1.69-3.65,1.07-5.91-1.61-5.9-16.35-13.71-17.61-15.58a20.73,20.73,0,0,0-5.86-1.22c4.36,5.06,7.09,12.32,11.16,25.44,4.37,14.1,6.24,27.89,9.52,31.79s7.16,12.95,14.74,37c4.41,14,18.36,17.82,18.36,17.82s6.92-4.38,5.72-12.34C156.51,119.72,151,120.46,148.31,118.81Z"/><path class="cls-10" d="M99.74,23.42s12.8,14.95,16.05,33.09c2.67,14.92.33,19,10,27.42s4.13,23.67,14.36,32.6c8.35,7.28,28,12.11.1,24.64-6.49,2.91-14.65-.43-17.4-12.42-7.9-34.36-8.46-16.47-16-44A218.66,218.66,0,0,1,99.74,23.42Z"/><path class="cls-11" d="M115.49,23.88c-6.22-9.14-20.28-12-20.28-12s-1.47-.54,8.9-1.53c5.27-.5-18.76-4.85-24.4-4.74-1.36.28-1.9.38-.92.09a4.7,4.7,0,0,1,.92-.09c2.39-.5,7.3-1.57,11-2.2,8.82-1.5-24.08-6.6-30.88,8.61,0,0-1.2,7.59.71,7.4S71,11,71,11l6.51,1.61S88.43,13.71,90.47,14c2.71.41,10.41,7,10.72,7.42,1.9,0,1.59.19,3.55.84C104.48,21.87,116.68,25.65,115.49,23.88Z"/><path class="cls-12" d="M37.32,53.05C33.78,16,53.87,8.73,69.73,7.21c19.74-1.88,40.18,14.65,39,39-1,21.41-11.16,43.84-30.9,45.7C41.35,95.38,39.55,76.45,37.32,53.05Z"/><path class="cls-13" d="M68.3,36.84c.43,8.48-4.21,16.75-5.83,16.83-3.5.17-9.17-7-9.6-15.47s5.61-16,7.71-15.38C64.07,23.87,67.87,28.36,68.3,36.84Z"/><path d="M61.12,47.85a13.38,13.38,0,0,1-3.06-4.73A16.14,16.14,0,0,1,57,38.26a15.82,15.82,0,0,1,.43-5,13.22,13.22,0,0,1,2.42-5.08A13.28,13.28,0,0,1,62.91,33a16.45,16.45,0,0,1,.62,9.81A13.37,13.37,0,0,1,61.12,47.85Z"/><path class="cls-13" d="M39,47.05c-3.07-6.32-.79-14.29.47-14.77,2.72-1,7,4,10.09,10.36S53,54.89,51.17,55A13.6,13.6,0,0,1,39,47.05Z"/><path d="M40.4,37.1A11.63,11.63,0,0,1,44,39.86a15.93,15.93,0,0,1,2.32,3.39,15.65,15.65,0,0,1,1.35,3.88,11.58,11.58,0,0,1,.08,4.53,11.8,11.8,0,0,1-3.59-2.76,15.35,15.35,0,0,1-2.31-3.4,15.78,15.78,0,0,1-1.35-3.88A11.93,11.93,0,0,1,40.4,37.1Z"/><path class="cls-13" d="M84.7,44.51c2.72-6.47.08-14.31-1.19-14.72-2.74-.9-7.38,1.38-10.1,7.85S71.28,53.06,73.12,53A13.49,13.49,0,0,0,84.7,44.51Z"/><path d="M81.92,33.82a11.65,11.65,0,0,1,.17,4.52A15.68,15.68,0,0,1,81,42.28a15.34,15.34,0,0,1-2.12,3.52,11.67,11.67,0,0,1-3.43,2.94,11.65,11.65,0,0,1-.17-4.52,14.91,14.91,0,0,1,1.14-3.94,15.27,15.27,0,0,1,2.12-3.51A11.76,11.76,0,0,1,81.92,33.82Z"/><path class="cls-14" d="M100.65,26.55a15.59,15.59,0,0,0-2.13-4.06,10,10,0,0,0-3.66-3.06,7.54,7.54,0,0,0-2.47-.66,5.46,5.46,0,0,0-2.52.42,7.2,7.2,0,0,0-3.57,3.25l.15.12a32.66,32.66,0,0,1,4-1.47A7.08,7.08,0,0,1,94.32,21,8.75,8.75,0,0,1,97.8,23.2a17,17,0,0,1,2.71,3.45Z"/><path class="cls-15" d="M56.29,17.25C49.92,25.76,47.22-4,76.79,5.86,76.79,5.86,65.24,5.29,56.29,17.25Z"/><path class="cls-16" d="M63.85,18.2C57.17,27.31,53-5.5,86,6.54,86,6.54,73.23,5.43,63.85,18.2Z"/><path class="cls-14" d="M103.77,36.37a15.3,15.3,0,0,0-2.13-4.06A9.86,9.86,0,0,0,98,29.25a7.81,7.81,0,0,0-2.47-.67A5.73,5.73,0,0,0,93,29a7.26,7.26,0,0,0-3.57,3.26l.15.11a34.3,34.3,0,0,1,4.05-1.46,7.08,7.08,0,0,1,3.82-.12A8.57,8.57,0,0,1,100.92,33a17.17,17.17,0,0,1,2.72,3.45Z"/><path class="cls-14" d="M107.41,47a15.51,15.51,0,0,0-2.13-4.07,9.83,9.83,0,0,0-3.66-3,7.56,7.56,0,0,0-2.46-.67,5.61,5.61,0,0,0-2.53.42,7.26,7.26,0,0,0-3.57,3.26l.16.11a33.52,33.52,0,0,1,4-1.46,7.08,7.08,0,0,1,3.82-.12,8.66,8.66,0,0,1,3.48,2.22,16.88,16.88,0,0,1,2.72,3.46Z"/><path class="cls-14" d="M40.07,69.15A15.42,15.42,0,0,1,42.37,65a9.48,9.48,0,0,1,3.88-3,7.79,7.79,0,0,1,2.59-.5,6.14,6.14,0,0,1,2.63.67A8.44,8.44,0,0,1,55.14,66l-.16.11a37.72,37.72,0,0,0-4.2-1.92,7.23,7.23,0,0,0-4-.46,8.16,8.16,0,0,0-3.68,2.08,16.3,16.3,0,0,0-2.9,3.45Z"/><path class="cls-14" d="M42.33,77.65a15.35,15.35,0,0,1,1.32-4.39,9.76,9.76,0,0,1,3-3.69A7.51,7.51,0,0,1,49,68.45a5.54,5.54,0,0,1,2.56-.07,7.26,7.26,0,0,1,4.12,2.53l-.13.14a34,34,0,0,0-4.24-.68,7,7,0,0,0-3.78.61,8.68,8.68,0,0,0-3,2.84,17.22,17.22,0,0,0-2,3.91Z"/><path class="cls-14" d="M85.91,60.33a17.24,17.24,0,0,0-5.77-1.73,13.31,13.31,0,0,0-5.83.5,8.54,8.54,0,0,0-1.35.52,7,7,0,0,0-1.27.67c-.41.26-.83.49-1.24.73s-.78.56-1.19.82c-.2.13-.42.25-.62.39l-.57.46c-.39.3-.78.61-1.19.9-.77.64-1.52,1.33-2.4,1.94l-.17-.12a18.09,18.09,0,0,1,1.54-2.79c.33-.42.69-.82,1-1.23l.55-.6c.19-.19.41-.35.61-.53.42-.34.85-.68,1.3-1s1-.5,1.46-.74A8.61,8.61,0,0,1,72.34,58a9.66,9.66,0,0,1,1.58-.41,14.65,14.65,0,0,1,6.39.07A16.52,16.52,0,0,1,86,60.16Z"/><path class="cls-14" d="M85.91,69A16.84,16.84,0,0,0,81,66.33a14,14,0,0,0-5.41-.86,7.73,7.73,0,0,0-1.35.14,6.56,6.56,0,0,0-1.32.26c-.44.12-.87.22-1.31.31s-.86.27-1.29.39l-.67.17L69,67c-.44.14-.87.3-1.32.43a27.94,27.94,0,0,1-2.72,1l-.11-.16a14.47,14.47,0,0,1,2.16-2,14,14,0,0,1,2.62-1.48c.48-.18,1-.36,1.43-.52s1-.18,1.51-.25a8.67,8.67,0,0,1,1.53-.08,10.85,10.85,0,0,1,1.51,0,15.53,15.53,0,0,1,5.76,1.53,16.21,16.21,0,0,1,4.7,3.47Z"/><path class="cls-17" d="M62.94,90.89c-11.71-.76-19.34-6.68-19.24-8.53.14-2.34,7-12.92,18.74-12.16s23.2,9.88,22,12.16C82.5,86.16,74.64,91.65,62.94,90.89Z"/><path class="cls-18" d="M48,86.54c6.56,5.41,23.72,6.8,29.88,1.78,1.71-1.39-4.87-2.85-5.12-2.8-1,.16-2.74,3-2.74,3s-4.1-4-5.38-3.85c-1.08.15-2.71,4-2.71,4s-1.25-3.42-2.34-4.31-5.81,3-5.81,3-.37-2.42-2-3.12C51.5,84.19,46.44,85.24,48,86.54Z"/><path class="cls-18" d="M53.32,72.71c8.19-7.33,22,2.1,22,2.1S71,79,69.79,78.54c-1-.35-2.39-5.37-2.39-5.37s-2.93,3.8-4.17,4.47-4.07-4.73-4.07-4.73-.9,4.35-2.64,4.73C56.23,77.71,52.74,73.22,53.32,72.71Z"/><path class="cls-18" d="M49,73.92s-6.72,4-7.21,15.8c-.5,12.07,4.4,12.81,4.4,12.81a133.9,133.9,0,0,1,0-13.5c.43-4.14,6.6-12.33,6.6-12.33S55.59,70.16,49,73.92Z"/><path class="cls-18" d="M79,76.3s8.28,5.89,3.54,17-7.12,11.52-7.12,11.52,2.48-9,3-13.16S74.7,78.17,74.7,78.17,72.61,72.65,79,76.3Z"/><path class="cls-19" d="M78.52,133.28C45.92,161,62,138.52,70.8,125.21c5.23-7.95,16.94-49,17.85-56.33,1.52-12.38,13.07-5.79,12.52-1.26C99.9,78.08,104.63,97.32,78.52,133.28Z"/></g></svg>