<svg xmlns="http://www.w3.org/2000/svg" xmlns:xlink="http://www.w3.org/1999/xlink" viewBox="0 0 160 160"><defs><style>.cls-1,.cls-10,.cls-11,.cls-12,.cls-13,.cls-15,.cls-16,.cls-17,.cls-18,.cls-19,.cls-2,.cls-3,.cls-4,.cls-5,.cls-6,.cls-7,.cls-8,.cls-9{stroke:#000;stroke-miterlimit:10;}.cls-1{fill:url(#Безымянный_градиент_59);}.cls-2{fill:url(#Безымянный_градиент_56);}.cls-3{fill:url(#Безымянный_градиент_18);}.cls-4{fill:url(#Безымянный_градиент_58);}.cls-5{fill:url(#Безымянный_градиент_55);}.cls-6{fill:url(#Безымянный_градиент_18-2);}.cls-7{fill:url(#Безымянный_градиент_24);}.cls-8{fill:url(#Безымянный_градиент_53);}.cls-9{fill:url(#Безымянный_градиент_53-2);}.cls-10{fill:url(#Безымянный_градиент_127);}.cls-11{fill:url(#Безымянный_градиент_53-3);}.cls-12{fill:url(#Безымянный_градиент_8);}.cls-13{fill:#f9f912;}.cls-13,.cls-17{stroke-width:2px;}.cls-14{fill:gray;}.cls-15{fill:url(#Безымянный_градиент_49);}.cls-16{fill:url(#Безымянный_градиент_49-2);}.cls-17{fill:#b60000;}.cls-18{fill:#31c8c5;}.cls-19{fill:url(#Безымянный_градиент_24-2);}</style><linearGradient id="Безымянный_градиент_59" x1="80.51" y1="119.64" x2="113.15" y2="109.96" gradientTransform="translate(9.61 -9.29) rotate(3.47)" gradientUnits="userSpaceOnUse"><stop offset="0" stop-color="gray"/><stop offset="0.14" stop-color="#777"/><stop offset="0.37" stop-color="#5e5e5e"/><stop offset="0.67" stop-color="#353535"/><stop offset="0.99"/></linearGradient><linearGradient id="Безымянный_градиент_56" x1="92.69" y1="211.07" x2="92.69" y2="199.65" gradientTransform="translate(0.45 -49) rotate(-1.39)" gradientUnits="userSpaceOnUse"><stop offset="0"/><stop offset="0.03" stop-color="#040e0e"/><stop offset="0.16" stop-color="#0f3f3e"/><stop offset="0.3" stop-color="#1a6968"/><stop offset="0.43" stop-color="#228b89"/><stop offset="0.57" stop-color="#29a6a4"/><stop offset="0.71" stop-color="#2db9b6"/><stop offset="0.85" stop-color="#30c4c1"/><stop offset="1" stop-color="#31c8c5"/></linearGradient><radialGradient id="Безымянный_градиент_18" cx="91.12" cy="176.95" r="8.47" gradientTransform="translate(0.45 -49) rotate(-1.39)" gradientUnits="userSpaceOnUse"><stop offset="0"/><stop offset="0.18" stop-color="#311508"/><stop offset="0.37" stop-color="#5d280e"/><stop offset="0.55" stop-color="#803714"/><stop offset="0.72" stop-color="#994218"/><stop offset="0.87" stop-color="#a8491a"/><stop offset="1" stop-color="#ad4b1b"/></radialGradient><linearGradient id="Безымянный_градиент_58" x1="24.05" y1="54.91" x2="72.68" y2="54.91" gradientTransform="translate(0.13 62.24) rotate(-6.01)" gradientUnits="userSpaceOnUse"><stop offset="0" stop-color="gray"/><stop offset="0.15" stop-color="#757575"/><stop offset="0.4" stop-color="#585858"/><stop offset="0.74" stop-color="#282828"/><stop offset="0.99"/></linearGradient><linearGradient id="Безымянный_градиент_55" x1="42.13" y1="99.66" x2="42.13" y2="88.06" gradientTransform="translate(0.13 62.24) rotate(-6.01)" xlink:href="#Безымянный_градиент_56"/><radialGradient id="Безымянный_градиент_18-2" cx="46.02" cy="64.98" r="6.86" gradientTransform="matrix(1.15, -0.05, 0.18, 1.02, -10.22, 58.62)" xlink:href="#Безымянный_градиент_18"/><linearGradient id="Безымянный_градиент_24" x1="-888.64" y1="209.85" x2="-853.14" y2="245.85" gradientTransform="matrix(-0.95, -0.47, 1.15, -0.88, -1054.21, -98.27)" gradientUnits="userSpaceOnUse"><stop offset="0" stop-color="#984c24"/><stop offset="0.04" stop-color="#80401e"/><stop offset="0.14" stop-color="#532914"/><stop offset="0.22" stop-color="#2f170b"/><stop offset="0.31" stop-color="#150b05"/><stop offset="0.38" stop-color="#050301"/><stop offset="0.44"/><stop offset="0.79" stop-color="#343434"/><stop offset="0.99" stop-color="#4d4d4d"/></linearGradient><linearGradient id="Безымянный_градиент_53" x1="123.97" y1="60.26" x2="124.02" y2="60.23" gradientUnits="userSpaceOnUse"><stop offset="0"/><stop offset="0.08" stop-color="#071b1a"/><stop offset="0.25" stop-color="#134f4e"/><stop offset="0.42" stop-color="#1e7a79"/><stop offset="0.58" stop-color="#269c9a"/><stop offset="0.74" stop-color="#2cb4b2"/><stop offset="0.88" stop-color="#30c3c0"/><stop offset="1" stop-color="#31c8c5"/></linearGradient><linearGradient id="Безымянный_градиент_53-2" x1="124.31" y1="126.54" x2="137.16" y2="120.19" gradientTransform="matrix(1, -0.04, 0.04, 1.04, -1.61, -45.68)" xlink:href="#Безымянный_градиент_53"/><radialGradient id="Безымянный_градиент_127" cx="126.58" cy="129.22" r="45.06" gradientTransform="matrix(1, -0.04, 0.04, 1.04, -1.61, -45.68)" gradientUnits="userSpaceOnUse"><stop offset="0.28" stop-color="#984c24"/><stop offset="0.39" stop-color="#864320"/><stop offset="0.62" stop-color="#582c15"/><stop offset="0.94" stop-color="#0e0703"/><stop offset="0.99"/></radialGradient><linearGradient id="Безымянный_градиент_53-3" x1="90.38" y1="20.55" x2="107.3" y2="12.18" gradientTransform="matrix(1, -0.04, 0.04, 1, -1.85, 3.4)" xlink:href="#Безымянный_градиент_53"/><radialGradient id="Безымянный_градиент_8" cx="71.88" cy="44.25" r="39.45" gradientTransform="matrix(1, -0.04, 0.04, 1, -1.85, 3.4)" xlink:href="#Безымянный_градиент_127"/><linearGradient id="Безымянный_градиент_49" x1="92.35" y1="50.76" x2="121.11" y2="50.76" gradientTransform="matrix(0.96, -0.02, 0.05, 0.97, -35.03, -36.04)" gradientUnits="userSpaceOnUse"><stop offset="0" stop-color="#31c8c5"/><stop offset="0.2" stop-color="#29a6a3"/><stop offset="0.62" stop-color="#14504f"/><stop offset="1"/></linearGradient><linearGradient id="Безымянный_градиент_49-2" x1="66.18" y1="11.79" x2="94.94" y2="11.79" gradientTransform="matrix(0.98, 0.04, 0.12, 1, -0.68, -4.27)" xlink:href="#Безымянный_градиент_49"/><linearGradient id="Безымянный_градиент_24-2" x1="-957" y1="209.2" x2="-913.13" y2="228.32" gradientTransform="matrix(-0.97, -0.41, 1.1, -0.94, -1060.65, -74.32)" xlink:href="#Безымянный_градиент_24"/></defs><title>босс1</title><g id="Слой_1" data-name="Слой 1"><path class="cls-1" d="M75.13,76.39s10.39,26.89,8.1,48.68c-1.77,16.81-9.13,26.29-.37,30.73,12.53,6.35,35.46,0,33.7-8.57-2.36-11.59-2.1-21.3-7.77-36.53-7.14-19.14-3.3-49.44-12.93-46S75.13,76.39,75.13,76.39Z"/><path class="cls-2" d="M115.68,150.46C110.44,158.57,94,162,81.17,154.29c-2.83-1.71.84-5.14,2.9-4.63,1.25.3,4.62,4.42,4.62,4.42s2.84-6.18,4.5-6c1.39.12,4,6,4,6a10,10,0,0,1,3.69-6c1.74-1.21,6.17,4.06,6.17,4.06s.46-4,3.71-5.07C113.14,146.21,117,148.5,115.68,150.46Z"/><path class="cls-3" d="M89.51,126.46c.47,5.8,4.11,9.48,5.25,9.39,1.44-.11,7.94-3.72,7.47-9.52S96.15,115,94.74,115.62C92.41,116.66,89,120.66,89.51,126.46Z"/><path class="cls-4" d="M74.35,73.08s-10,21.27-3.65,41.05c2.28,7.06,1.45,18.46.89,30.23-.71,14.66-34.25,14.48-37.8,4.94s9-20.48,11.44-36.55c2.12-14.21,8.62-48,17.63-45.82S74.35,73.08,74.35,73.08Z"/><path class="cls-5" d="M33.88,149.71c6.09,7.5,25.68,8.18,35,.73,2.58-2.07-1.66-5.66-3.66-4.93-1.21.44-4.12,4.9-4.12,4.9s-3.49-5.84-5.11-5.52c-1.37.27-3.34,6.38-3.34,6.38a10,10,0,0,0-4.31-5.59c-1.87-1-5.71,4.7-5.71,4.7s-.88-3.93-4.23-4.64C36,145.22,32.41,147.9,33.88,149.71Z"/><path class="cls-6" d="M60.85,124.8c-1.9,5.5-6.9,8-8.17,7.53-1.61-.55-8.13-6.07-6.22-11.57s9.58-9.16,11-8.12A11.08,11.08,0,0,1,60.85,124.8Z"/><path class="cls-7" d="M29.33,125.48c-34.73,25-16.86,3.89-7-8.67,5.86-7.5,20.85-47.44,22.34-54.7,2.52-12.22,13.5-4.72,12.59-.25C55.09,72.19,58.26,91.74,29.33,125.48Z"/><path class="cls-8" d="M123.9,60.23l.16.06C124,60.2,123.92,60.18,123.9,60.23Z"/><path class="cls-9" d="M147.75,124.17c-2.38-1.85-8.53-11.12-8.53-11.12s9.09,4.88,8.88,2.5c-.25-2.82-5.35-8.3-10.65-13.28-3.36-3.14,7.23,3.94,5.84-.45-2.32-7.3-16.68-22.44-15.94-23.73,1.41-2.45,6.15,3.54,6.43,1.62.83-5.63-7-18.77-8.24-19.88l-.17,0c0-.06.08,0,.17,0A20.17,20.17,0,0,1,133,64.49c2.92,2.79-.35-9.33-6.43-17.41-8.16-10.87,2-3.53,1.64-5.88-1-6.15-14.92-15.56-16-17.59a21,21,0,0,0-5.72-1.83c3.85,5.57,5.85,13.21,8.61,26.93,3,14.74,3.48,28.91,6.37,33.2s5.85,13.85,11,39c3,14.61,16.52,19.94,16.52,19.94s7.32-3.75,6.91-11.94C155.82,125.93,150.26,126.12,147.75,124.17Z"/><path class="cls-10" d="M108.76,22.52S120,39,121.49,57.7c1.2,15.4-1.53,19.34,7.29,28.82s1.78,24.42,11.1,34.52c7.59,8.22,26.7,15.12-2.33,25-6.74,2.29-14.53-1.92-16.1-14.35C117,96,114.65,114.12,109.9,85.46A227,227,0,0,1,108.76,22.52Z"/><path class="cls-11" d="M121.82,26.07C116.11,16.61,102.22,13,102.22,13s-1.44-.62,9-1c5.29-.22-18.47-5.87-24.1-6.06-1.38.21-1.93.27-.93,0a3.57,3.57,0,0,1,.93,0c2.41-.37,7.37-1.18,11.08-1.61,8.9-1-23.68-7.89-31.29,6.93,0,0-1.62,7.52.3,7.42s10.95-7.88,10.95-7.88l6.41,2s10.81,1.72,12.83,2.14c2.69.56,10,7.59,10.31,8,1.89.15,1.57.27,3.49,1C110.94,23.46,122.92,27.9,121.82,26.07Z"/><path class="cls-12" d="M42.18,51C40.66,13.78,61.11,7.6,77,7c19.81-.81,39.33,16.8,36.81,41.09C111.63,69.36,100.32,91.21,80.5,92,43.92,93.45,43.14,74.45,42.18,51Z"/><path class="cls-13" d="M74,36.45c0,8.49-5.13,16.5-6.77,16.49-3.52,0-8.8-7.47-8.77-16S65,21.28,67.05,22C70.5,23.28,74.06,28,74,36.45Z"/><path d="M66.23,47.06a13.5,13.5,0,0,1-2.8-4.89,16.5,16.5,0,0,1-.81-4.91,16.19,16.19,0,0,1,.7-4.93A13.27,13.27,0,0,1,66,27.39a13.06,13.06,0,0,1,2.8,4.89,15.53,15.53,0,0,1,.8,4.91,16.13,16.13,0,0,1-.7,4.92A13.56,13.56,0,0,1,66.23,47.06Z"/><path class="cls-13" d="M44.18,44.06c-2.73-6.48,0-14.3,1.27-14.72,2.77-.89,6.78,4.42,9.5,10.89s2.79,12.42.92,12.38A13.6,13.6,0,0,1,44.18,44.06Z"/><path d="M46.08,34.2a11.68,11.68,0,0,1,3.43,2.95,15.74,15.74,0,0,1,2.13,3.52,15.29,15.29,0,0,1,1.14,3.94,11.65,11.65,0,0,1-.17,4.52,11.64,11.64,0,0,1-3.43-2.94,15.34,15.34,0,0,1-2.12-3.52,15.9,15.9,0,0,1-1.14-4A11.83,11.83,0,0,1,46.08,34.2Z"/><path class="cls-13" d="M90.92,44c3.06-6.31.85-14.28-.39-14.77-2.69-1-7.45,1-10.51,7.3s-3,15.28-1.13,15.35A13.48,13.48,0,0,0,90.92,44Z"/><path d="M88.72,33.14a11.74,11.74,0,0,1-.07,4.52,15.85,15.85,0,0,1-1.35,3.87,15.66,15.66,0,0,1-2.3,3.4,11.62,11.62,0,0,1-3.59,2.75,11.74,11.74,0,0,1,.07-4.52,15.67,15.67,0,0,1,3.66-7.26A11.87,11.87,0,0,1,88.72,33.14Z"/><path class="cls-14" d="M106.9,28.93A15.75,15.75,0,0,0,105,24.76a9.89,9.89,0,0,0-3.49-3.25,7.72,7.72,0,0,0-2.43-.8,5.64,5.64,0,0,0-2.54.28,7.23,7.23,0,0,0-3.74,3.06l.15.12a34.7,34.7,0,0,1,4.11-1.24,7.12,7.12,0,0,1,3.83.09,8.72,8.72,0,0,1,3.35,2.41,16.8,16.8,0,0,1,2.53,3.6Z"/><path class="cls-15" d="M61.33,16.71C54.07,25.49,52.14-7.27,84.16,6,84.16,6,71.53,4.38,61.33,16.71Z"/><path class="cls-16" d="M70.79,16.62C64,25.14,59.78-8.64,93.33,7.15A24.45,24.45,0,0,0,70.79,16.62Z"/><path class="cls-14" d="M109.48,38.91a15.64,15.64,0,0,0-1.9-4.18,9.89,9.89,0,0,0-3.49-3.25,7.72,7.72,0,0,0-2.43-.8,5.61,5.61,0,0,0-2.54.29A7.22,7.22,0,0,0,95.38,34l.14.13a33.12,33.12,0,0,1,4.12-1.25,7.08,7.08,0,0,1,3.82.09,8.57,8.57,0,0,1,3.35,2.41,16.69,16.69,0,0,1,2.53,3.6Z"/><path class="cls-14" d="M112.55,49.69a15.66,15.66,0,0,0-1.91-4.18,9.89,9.89,0,0,0-3.49-3.25,7.72,7.72,0,0,0-2.43-.8,5.61,5.61,0,0,0-2.54.29,7.26,7.26,0,0,0-3.74,3l.15.13a33,33,0,0,1,4.11-1.25,7.08,7.08,0,0,1,3.82.09,8.68,8.68,0,0,1,3.36,2.41,17.16,17.16,0,0,1,2.53,3.6Z"/><path class="cls-14" d="M44.89,70.77a15.42,15.42,0,0,1,1.5-4.52,9.4,9.4,0,0,1,3.27-3.61,7.27,7.27,0,0,1,2.45-1,5.81,5.81,0,0,1,2.71.17,8.36,8.36,0,0,1,4.3,3L59,65a35.73,35.73,0,0,0-4.48-1.11,7.36,7.36,0,0,0-4,.28,8.28,8.28,0,0,0-3.23,2.72,16.59,16.59,0,0,0-2.22,3.94Z"/><path class="cls-14" d="M45.85,75.8a15.35,15.35,0,0,1,1.56-4.31A10,10,0,0,1,50.62,68,7.54,7.54,0,0,1,53,67a5.54,5.54,0,0,1,2.56.07,7.22,7.22,0,0,1,4,2.74l-.14.14a31.71,31.71,0,0,0-4.2-.9,7,7,0,0,0-3.8.39,8.77,8.77,0,0,0-3.15,2.68A16.74,16.74,0,0,0,46,75.88Z"/><path class="cls-14" d="M90.32,64a17.45,17.45,0,0,0-5.43-2.61A13.45,13.45,0,0,0,79.06,61a7.63,7.63,0,0,0-1.42.3,6.41,6.41,0,0,0-1.36.46c-.45.19-.9.35-1.34.53s-.87.42-1.31.62c-.22.1-.45.18-.67.29l-.64.36c-.43.23-.86.48-1.32.7-.85.51-1.7,1.07-2.67,1.54l-.14-.14a18.06,18.06,0,0,1,2-2.52c.39-.36.81-.7,1.22-1l.63-.51c.22-.15.46-.28.69-.43.47-.27.95-.53,1.43-.78s1-.34,1.57-.5a8.65,8.65,0,0,1,1.61-.31,9.77,9.77,0,0,1,1.62-.16,14.63,14.63,0,0,1,6.3,1.08,16.7,16.7,0,0,1,5.24,3.41Z"/><path class="cls-14" d="M89.84,69.53a17,17,0,0,0-4.79-3,14.28,14.28,0,0,0-5.36-1.14,14,14,0,0,0-2.69.25c-.44.09-.88.18-1.32.24s-.87.23-1.31.32l-.67.13-.66.2c-.44.12-.88.26-1.34.36a28.27,28.27,0,0,1-2.77.83l-.1-.17a15,15,0,0,1,2.27-1.93,13.86,13.86,0,0,1,2.7-1.34c.48-.15,1-.31,1.46-.44s1-.12,1.52-.17a9.64,9.64,0,0,1,1.52,0,11,11,0,0,1,1.52.12,15.69,15.69,0,0,1,5.67,1.84A16.36,16.36,0,0,1,90,69.4Z"/><path class="cls-17" d="M68,91c-11.7-1-19.23-7-19.09-8.85.17-2.34,7.24-12.8,18.93-11.85s23,10.27,21.82,12.53C87.65,86.58,79.71,91.94,68,91Z"/><path class="cls-18" d="M53.17,86.39c6.47,5.52,23.59,7.19,29.84,2.27,1.74-1.36-4.82-2.92-5.08-2.88-1,.15-2.78,3-2.78,3s-4-4.11-5.32-3.94c-1.08.13-2.78,4-2.78,4s-1.19-3.44-2.26-4.35-5.86,3-5.86,3-.33-2.43-2-3.15C56.69,84.09,51.61,85.06,53.17,86.39Z"/><path class="cls-18" d="M58.7,72.65c8.31-7.19,22,2.47,22,2.47s-4.38,4.07-5.6,3.63c-1-.36-2.3-5.4-2.3-5.4s-3,3.74-4.24,4.4-4-4.8-4-4.8-1,4.33-2.72,4.69C61.53,77.7,58.12,73.16,58.7,72.65Z"/><path class="cls-18" d="M53.29,74.31s-6.16,4.82-5.13,16.6c1.05,12,6,12.14,6,12.14a132.73,132.73,0,0,1-1.73-13.39c-.11-4.16,5-13.08,5-13.08S59.35,69.74,53.29,74.31Z"/><path class="cls-18" d="M86.27,78.83s6.65,7.67-.56,17.36-9.62,9.53-9.62,9.53,4.53-8.21,6-12.1-.45-14-.45-14S80.89,73.78,86.27,78.83Z"/><path class="cls-19" d="M82.85,131.82c-33.33,26.81-16.62,4.8-7.5-8.27,5.45-7.81,18.25-48.5,19.35-55.83,1.86-12.34,13.23-5.44,12.56-.93C105.7,77.22,109.92,96.58,82.85,131.82Z"/></g></svg>