<svg xmlns="http://www.w3.org/2000/svg" xmlns:xlink="http://www.w3.org/1999/xlink" viewBox="0 0 160 160"><defs><style>.cls-1,.cls-10,.cls-11,.cls-12,.cls-13,.cls-15,.cls-16,.cls-17,.cls-18,.cls-19,.cls-2,.cls-3,.cls-4,.cls-5,.cls-6,.cls-7,.cls-8,.cls-9{stroke:#000;stroke-miterlimit:10;}.cls-1{fill:url(#Безымянный_градиент_53);}.cls-2{fill:url(#Безымянный_градиент_127);}.cls-3{fill:url(#Безымянный_градиент_58);}.cls-4{fill:url(#Безымянный_градиент_55);}.cls-5{fill:url(#Безымянный_градиент_18);}.cls-6{fill:url(#Безымянный_градиент_59);}.cls-7{fill:url(#Безымянный_градиент_56);}.cls-8{fill:url(#Безымянный_градиент_18-2);}.cls-9{fill:url(#Безымянный_градиент_24);}.cls-10{fill:url(#Безымянный_градиент_53-2);}.cls-11{fill:url(#Безымянный_градиент_53-3);}.cls-12{fill:url(#Безымянный_градиент_8);}.cls-13{fill:#f9f912;}.cls-13,.cls-17{stroke-width:2px;}.cls-14{fill:gray;}.cls-15{fill:url(#Безымянный_градиент_49);}.cls-16{fill:url(#Безымянный_градиент_49-2);}.cls-17{fill:#b60000;}.cls-18{fill:#31c8c5;}.cls-19{fill:url(#Безымянный_градиент_24-2);}</style><linearGradient id="Безымянный_градиент_53" x1="124.95" y1="177.76" x2="137.8" y2="171.41" gradientTransform="matrix(1, 0.08, -0.08, 1.02, 19.67, -106.78)" gradientUnits="userSpaceOnUse"><stop offset="0"/><stop offset="0.08" stop-color="#071b1a"/><stop offset="0.25" stop-color="#134f4e"/><stop offset="0.42" stop-color="#1e7a79"/><stop offset="0.58" stop-color="#269c9a"/><stop offset="0.74" stop-color="#2cb4b2"/><stop offset="0.88" stop-color="#30c3c0"/><stop offset="1" stop-color="#31c8c5"/></linearGradient><radialGradient id="Безымянный_градиент_127" cx="127.22" cy="180.45" r="45.06" gradientTransform="matrix(1, 0.08, -0.08, 1.02, 19.67, -106.78)" gradientUnits="userSpaceOnUse"><stop offset="0.28" stop-color="#984c24"/><stop offset="0.39" stop-color="#864320"/><stop offset="0.62" stop-color="#582c15"/><stop offset="0.94" stop-color="#0e0703"/><stop offset="0.99"/></radialGradient><linearGradient id="Безымянный_градиент_58" x1="25.73" y1="-43.69" x2="74.36" y2="-43.69" gradientTransform="matrix(0.94, -0.35, 0.35, 0.94, 36.33, 169.64)" gradientUnits="userSpaceOnUse"><stop offset="0" stop-color="gray"/><stop offset="0.15" stop-color="#757575"/><stop offset="0.4" stop-color="#585858"/><stop offset="0.74" stop-color="#282828"/><stop offset="0.99"/></linearGradient><linearGradient id="Безымянный_градиент_55" x1="43.81" y1="1.06" x2="43.81" y2="-10.54" gradientTransform="matrix(0.94, -0.35, 0.35, 0.94, 36.33, 169.64)" gradientUnits="userSpaceOnUse"><stop offset="0"/><stop offset="0.03" stop-color="#040e0e"/><stop offset="0.16" stop-color="#0f3f3e"/><stop offset="0.3" stop-color="#1a6968"/><stop offset="0.43" stop-color="#228b89"/><stop offset="0.57" stop-color="#29a6a4"/><stop offset="0.71" stop-color="#2db9b6"/><stop offset="0.85" stop-color="#30c4c1"/><stop offset="1" stop-color="#31c8c5"/></linearGradient><radialGradient id="Безымянный_градиент_18" cx="47.83" cy="-33.56" r="6.86" gradientTransform="matrix(0.94, -0.35, 0.35, 0.94, 36.33, 169.64)" gradientUnits="userSpaceOnUse"><stop offset="0"/><stop offset="0.18" stop-color="#311508"/><stop offset="0.37" stop-color="#5d280e"/><stop offset="0.55" stop-color="#803714"/><stop offset="0.72" stop-color="#994218"/><stop offset="0.87" stop-color="#a8491a"/><stop offset="1" stop-color="#ad4b1b"/></radialGradient><linearGradient id="Безымянный_градиент_59" x1="85.7" y1="179.05" x2="118.08" y2="169.44" gradientTransform="translate(34.55 -79.42) rotate(10.17)" gradientUnits="userSpaceOnUse"><stop offset="0" stop-color="gray"/><stop offset="0.14" stop-color="#777"/><stop offset="0.37" stop-color="#5e5e5e"/><stop offset="0.67" stop-color="#353535"/><stop offset="0.99"/></linearGradient><linearGradient id="Безымянный_градиент_56" x1="92.21" y1="285.2" x2="92.21" y2="273.78" gradientTransform="translate(32.09 -134.66) rotate(5.31)" xlink:href="#Безымянный_градиент_55"/><radialGradient id="Безымянный_градиент_18-2" cx="90.47" cy="251.08" r="8.47" gradientTransform="matrix(1.19, 0.1, -0.1, 1, 18.65, -135.11)" xlink:href="#Безымянный_градиент_18"/><linearGradient id="Безымянный_градиент_24" x1="-1207.62" y1="244.86" x2="-1172.12" y2="280.87" gradientTransform="matrix(-0.91, -0.53, 1.2, -0.8, -1372.09, -307.45)" gradientUnits="userSpaceOnUse"><stop offset="0" stop-color="#984c24"/><stop offset="0.04" stop-color="#80401e"/><stop offset="0.14" stop-color="#532914"/><stop offset="0.22" stop-color="#2f170b"/><stop offset="0.31" stop-color="#150b05"/><stop offset="0.38" stop-color="#050301"/><stop offset="0.44"/><stop offset="0.79" stop-color="#343434"/><stop offset="0.99" stop-color="#4d4d4d"/></linearGradient><linearGradient id="Безымянный_градиент_53-2" x1="130.44" y1="60.44" x2="130.49" y2="60.42" gradientTransform="matrix(1, 0, 0, 1, 0, 0)" xlink:href="#Безымянный_градиент_53"/><linearGradient id="Безымянный_градиент_53-3" x1="97.12" y1="21.8" x2="114.04" y2="13.43" gradientTransform="translate(1.51 -4.23) rotate(2.05)" xlink:href="#Безымянный_градиент_53"/><radialGradient id="Безымянный_градиент_8" cx="78.62" cy="45.5" r="39.45" gradientTransform="translate(1.51 -4.23) rotate(2.05)" xlink:href="#Безымянный_градиент_127"/><linearGradient id="Безымянный_градиент_49" x1="110.41" y1="65.01" x2="139.17" y2="65.01" gradientTransform="matrix(0.99, 0.03, -0.04, 0.99, -41.62, -57.5)" gradientUnits="userSpaceOnUse"><stop offset="0" stop-color="#31c8c5"/><stop offset="0.2" stop-color="#29a6a3"/><stop offset="0.62" stop-color="#14504f"/><stop offset="1"/></linearGradient><linearGradient id="Безымянный_градиент_49-2" x1="72.92" y1="13.04" x2="101.68" y2="13.04" gradientTransform="matrix(1.03, 0.07, 0, 1.04, -1.61, -8.09)" xlink:href="#Безымянный_градиент_49"/><linearGradient id="Безымянный_градиент_24-2" x1="-1282.43" y1="236.44" x2="-1238.56" y2="255.56" gradientTransform="matrix(-0.96, -0.45, 1.13, -0.9, -1393.42, -236.5)" xlink:href="#Безымянный_градиент_24"/></defs><title>босс1</title><g id="Слой_3" data-name="Слой 3"><path class="cls-1" d="M145.47,127.85c-2.16-2.08-7.22-11.8-7.22-11.8s8.48,5.78,8.54,3.44c.07-2.78-4.38-8.7-9.09-14.15-3-3.44,6.74,4.66,5.85.22-1.47-7.37-14-23.74-13.16-24.92,1.68-2.23,5.71,4.15,6.21,2.3,1.45-5.39-4.85-19.08-5.95-20.3l-.16-.06c0-.06.08,0,.16.06a20.37,20.37,0,0,1,6.92,5.4c2.58,3,.7-9.13-4.43-17.7-6.89-11.51,2.42-3.2,2.3-5.54-.33-6.1-13.08-16.85-13.91-18.95a20.93,20.93,0,0,0-5.48-2.42c3.2,5.86,4.33,13.53,5.52,27.2,1.29,14.7.2,28.56,2.59,33.07s4.25,14.16,6.58,39.25c1.35,14.57,14.17,21.29,14.17,21.29s7.69-2.82,8.2-10.85C153.29,130.47,147.74,130,145.47,127.85Z"/><path class="cls-2" d="M118.18,24.4s9.35,17.3,8.69,35.71c-.55,15.14-3.71,18.67,4,28.9s-1,24,7.14,34.89c6.62,8.87,24.83,17.76-5.12,24.09-7,1.46-14.23-3.52-14.38-15.82-.45-35.23-4.78-17.87-6.28-46.33A218.28,218.28,0,0,1,118.18,24.4Z"/><path class="cls-3" d="M77.89,68.6s-4.38,23.11,6.76,40.66c4,6.26,6,17.5,8.44,29,3,14.37-29.52,22.6-35.35,14.26s3.6-22.1,1.9-38.25C58.14,100,56,65.65,65.23,65.53S77.89,68.6,77.89,68.6Z"/><path class="cls-4" d="M57.93,152.93c7.77,5.73,26.91,1.48,34.06-8.07,2-2.65-3-5.06-4.77-3.86-1.06.74-2.76,5.78-2.76,5.78s-4.84-4.78-6.34-4.06c-1.26.6-1.63,7-1.63,7a10,10,0,0,0-5.58-4.33c-2.06-.52-4.34,6-4.34,6s-1.84-3.59-5.26-3.44C58.8,148.06,56.06,151.55,57.93,152.93Z"/><path class="cls-5" d="M75.56,121.87c-.47,5.8-4.1,9.48-5.24,9.4-1.44-.11-7.94-3.72-7.47-9.52s6.07-11.34,7.47-10.72C72.66,112.08,76,116.07,75.56,121.87Z"/><path class="cls-6" d="M88.91,79.21s2.56,21.06-2.26,42.43c-3.72,16.49-12.13,25-4,30.47,11.7,7.77,35.21,4.17,34.47-4.57-1-11.79-2.56-21-3.46-37.19-2-35.49-1.21-51.58-8.73-45.37C97.09,71.5,88.91,79.21,88.91,79.21Z"/><path class="cls-7" d="M115.92,150.64c-6.16,7.44-22.88,8.94-34.72-.22-2.62-2,1.43-5,3.41-4.26,1.21.45,4.08,4.93,4.08,4.93s3.54-5.81,5.17-5.47c1.37.28,3.28,6.41,3.28,6.41a10,10,0,0,1,4.36-5.55c1.87-1,5.66,4.76,5.66,4.76s.92-3.93,4.28-4.61C113.89,146.13,117.4,148.85,115.92,150.64Z"/><path class="cls-8" d="M92.73,123.75c-.21,5.82,3.62,9.92,5,10,1.73.07,9.94-2.71,10.15-8.53s-5.73-12-7.48-11.55A11.09,11.09,0,0,0,92.73,123.75Z"/><path class="cls-9" d="M28,127.64c-36.3,22.62-17.08,2.77-6.46-9.11,6.35-7.1,23.93-46,25.9-53.12,3.32-12,13.78-3.81,12.58.58C57.19,76.16,59.06,95.89,28,127.64Z"/><path class="cls-10" d="M130.37,60.42l.16,0C130.44,60.39,130.39,60.36,130.37,60.42Z"/><path class="cls-11" d="M129.77,29.34c-5-9.88-18.54-14.53-18.54-14.53s-1.39-.72,9-.35c5.28.19-18-7.26-23.58-7.89-1.38.11-1.93.13-.92,0a3.65,3.65,0,0,1,.92,0c2.43-.18,7.44-.61,11.18-.75,9-.34-23-9.68-31.73,4.51,0,0-2.19,7.37-.27,7.43s11.52-7,11.52-7l6.25,2.44s10.64,2.54,12.62,3.11c2.64.77,9.41,8.34,9.67,8.76,1.87.3,1.55.39,3.4,1.29C119.12,25.9,130.72,31.24,129.77,29.34Z"/><path class="cls-12" d="M48.46,48.06C49.79,10.87,70.65,6.27,86.58,6.84c19.81.71,37.93,19.76,33.55,43.79-3.84,21.09-16.79,42-36.6,41.27C46.94,90.55,47.62,71.55,48.46,48.06Z"/><path class="cls-13" d="M81.29,38c-.68,8.46-6.38,16-8,15.92-3.51-.29-8.2-8.13-7.52-16.59s7.67-15.15,9.68-14.25C78.78,24.62,82,29.56,81.29,38Z"/><path d="M72.7,48a13.3,13.3,0,0,1-2.41-5.09A16.09,16.09,0,0,1,69.86,38a15.78,15.78,0,0,1,1.07-4.86A13.42,13.42,0,0,1,74,28.37a13.32,13.32,0,0,1,2.42,5.09,15.81,15.81,0,0,1,.42,5,16.1,16.1,0,0,1-1.08,4.86A13.49,13.49,0,0,1,72.7,48Z"/><path class="cls-13" d="M51,40.33c-2.22-6.67,1.08-14.27,2.39-14.58,2.84-.68,6.43,4.92,8.65,11.59s1.82,12.59,0,12.41A13.6,13.6,0,0,1,51,40.33Z"/><path d="M53.64,30.65a11.67,11.67,0,0,1,3.19,3.2,15.62,15.62,0,0,1,1.85,3.67,15.38,15.38,0,0,1,.84,4A11.6,11.6,0,0,1,59,46a11.54,11.54,0,0,1-3.19-3.2A14.89,14.89,0,0,1,54,39.16a15.79,15.79,0,0,1-.83-4A11.77,11.77,0,0,1,53.64,30.65Z"/><path class="cls-13" d="M97.59,42.8c3.54-6,2-14.17.74-14.75-2.59-1.24-7.5.42-11,6.47s-4.14,15-2.3,15.22A13.45,13.45,0,0,0,97.59,42.8Z"/><path d="M96.23,31.85a11.64,11.64,0,0,1-.42,4.5,15.64,15.64,0,0,1-1.64,3.76,15.31,15.31,0,0,1-2.56,3.21,11.75,11.75,0,0,1-3.78,2.47,11.45,11.45,0,0,1,.42-4.5,15.26,15.26,0,0,1,1.64-3.76,15.91,15.91,0,0,1,2.56-3.21A11.75,11.75,0,0,1,96.23,31.85Z"/><path class="cls-14" d="M114.75,30.05a15.74,15.74,0,0,0-1.59-4.31,9.88,9.88,0,0,0-3.23-3.51,7.71,7.71,0,0,0-2.35-1,5.54,5.54,0,0,0-2.56.09,7.19,7.19,0,0,0-4,2.76l.13.13a35.32,35.32,0,0,1,4.2-.92,7.18,7.18,0,0,1,3.81.38,8.62,8.62,0,0,1,3.15,2.66,17,17,0,0,1,2.25,3.78Z"/><path class="cls-15" d="M69.2,16.14c-8.36,8.57-7-25,24.56-9.72C93.76,6.42,81,4.1,69.2,16.14Z"/><path class="cls-16" d="M77.83,17.48c-8.29,8.66-8.27-26.58,25-9.19C102.81,8.29,89.47,5.31,77.83,17.48Z"/><path class="cls-14" d="M116.56,40.19A15.4,15.4,0,0,0,115,35.88a10,10,0,0,0-3.23-3.5,7.79,7.79,0,0,0-2.36-1,5.54,5.54,0,0,0-2.56.09,7.19,7.19,0,0,0-4,2.76l.14.14a33.1,33.1,0,0,1,4.2-.93,7.15,7.15,0,0,1,3.8.38,8.65,8.65,0,0,1,3.16,2.66,17,17,0,0,1,2.24,3.78Z"/><path class="cls-14" d="M118.79,51.17a15.77,15.77,0,0,0-1.58-4.3A10,10,0,0,0,114,43.36a7.89,7.89,0,0,0-2.36-1,5.82,5.82,0,0,0-2.56.09,7.21,7.21,0,0,0-4,2.77l.13.13a32.13,32.13,0,0,1,4.2-.92,7.07,7.07,0,0,1,3.81.37,8.65,8.65,0,0,1,3.16,2.66,17,17,0,0,1,2.24,3.78Z"/><path class="cls-14" d="M49.72,66a15.87,15.87,0,0,1,1.83-4.39,9.49,9.49,0,0,1,3.54-3.35,7.55,7.55,0,0,1,2.52-.78,6.07,6.07,0,0,1,2.69.38,8.43,8.43,0,0,1,4.06,3.38l-.15.12a36.22,36.22,0,0,0-4.38-1.45,7.32,7.32,0,0,0-4,0,8.18,8.18,0,0,0-3.43,2.46,16.72,16.72,0,0,0-2.51,3.75Z"/><path class="cls-14" d="M50.85,74.06A15.46,15.46,0,0,1,52,69.63,9.92,9.92,0,0,1,55,65.85a7.77,7.77,0,0,1,2.26-1.19,5.68,5.68,0,0,1,2.56-.14A7.25,7.25,0,0,1,64,66.93l-.13.14a33.76,33.76,0,0,0-4.26-.55,7.11,7.11,0,0,0-3.76.72,8.65,8.65,0,0,0-2.91,2.92,17.25,17.25,0,0,0-1.9,4Z"/><path class="cls-14" d="M95.53,62.76a17.11,17.11,0,0,0-5.22-3,13.37,13.37,0,0,0-5.78-.87,7.68,7.68,0,0,0-1.43.19,6.68,6.68,0,0,0-1.4.35c-.45.16-.91.29-1.37.43s-.9.35-1.35.52c-.23.08-.47.14-.69.23l-.67.32c-.45.2-.89.41-1.37.59-.89.45-1.78.94-2.78,1.33l-.13-.15a17.6,17.6,0,0,1,2.14-2.35c.42-.34.86-.64,1.29-1l.67-.45c.23-.14.48-.25.72-.38.49-.23,1-.46,1.49-.66s1.07-.27,1.6-.38a8.07,8.07,0,0,1,1.63-.19,9.88,9.88,0,0,1,1.63,0,14.64,14.64,0,0,1,6.2,1.55,16.69,16.69,0,0,1,5,3.8Z"/><path class="cls-14" d="M93.83,71.79a16.72,16.72,0,0,0-4-4,14.08,14.08,0,0,0-4.93-2.38,8.45,8.45,0,0,0-1.33-.26A6.69,6.69,0,0,0,82.27,65c-.45,0-.9,0-1.34-.08s-.9,0-1.35,0l-.69,0-.68,0c-.46,0-.92,0-1.39,0-.93.06-1.87.18-2.88.15l-.07-.19a14.46,14.46,0,0,1,2.67-1.33A12.78,12.78,0,0,1,79.48,63c.5,0,1-.08,1.52-.09s1,.12,1.51.19a8.54,8.54,0,0,1,1.49.37,10.53,10.53,0,0,1,1.44.47A15.57,15.57,0,0,1,90.51,67,15.91,15.91,0,0,1,94,71.7Z"/><path class="cls-17" d="M74.54,91.18c-11.71-.77-19.34-6.68-19.23-8.53.13-2.35,7-12.93,18.73-12.16s23.21,9.88,22,12.16C94.1,86.45,86.25,91.94,74.54,91.18Z"/><path class="cls-18" d="M59.62,86.83c6.56,5.41,23.71,6.79,29.88,1.77,1.71-1.39-4.87-2.84-5.13-2.8-1,.17-2.73,3-2.73,3s-4.11-4-5.39-3.86c-1.07.16-2.71,4-2.71,4s-1.25-3.41-2.34-4.31-5.8,3-5.8,3-.38-2.42-2-3.12C63.1,84.47,58,85.52,59.62,86.83Z"/><path class="cls-18" d="M64.93,73c8.18-7.32,22,2.11,22,2.11s-4.31,4.15-5.53,3.73c-1-.36-2.4-5.37-2.4-5.37s-2.92,3.79-4.16,4.47-4.08-4.73-4.08-4.73-.89,4.34-2.63,4.73C67.83,78,64.35,73.51,64.93,73Z"/><path class="cls-18" d="M58.89,74.64s-6,5.07-4.43,16.8C56,103.42,61,103.31,61,103.31A133.46,133.46,0,0,1,58.68,90c-.28-4.15,4.41-13.28,4.41-13.28S64.75,69.82,58.89,74.64Z"/><path class="cls-18" d="M91.67,78.65s4.94,8.88-4.12,16.88-11.38,7.33-11.38,7.33a134.4,134.4,0,0,0,8.35-10.6C86.75,88.75,87,78.49,87,78.49S87.46,72.61,91.67,78.65Z"/><path class="cls-19" d="M84,130.5c-34.23,25.63-16.78,4.22-7.21-8.53,5.72-7.61,19.93-47.84,21.28-55.12,2.28-12.27,13.41-5,12.58-.49C108.71,76.73,112.26,96.22,84,130.5Z"/></g></svg>