<?xml version="1.0" encoding="utf-8"?>
<!-- Generator: Adobe Illustrator 24.0.2, SVG Export Plug-In . SVG Version: 6.00 Build 0)  -->
<svg version="1.1" xmlns="http://www.w3.org/2000/svg" xmlns:xlink="http://www.w3.org/1999/xlink" x="0px" y="0px"
	 viewBox="0 0 90 150" style="enable-background:new 0 0 90 150;" xml:space="preserve">
<style type="text/css">
	.st0{fill:#202E35;stroke:#000000;stroke-width:0.75;stroke-miterlimit:10;}
	.st1{fill:#147C87;stroke:#000000;stroke-miterlimit:10;}
	.st2{clip-path:url(#SVGID_1_);fill:#FFC400;}
	.st3{clip-path:url(#SVGID_4_);fill:#FFC400;}
	.st4{clip-path:url(#SVGID_6_);fill:#FFC400;}
	.st5{fill:#0AFFCE;stroke:#000000;stroke-width:0.5;stroke-miterlimit:10;}
	.st6{fill:none;stroke:#000000;stroke-width:0.25;stroke-miterlimit:10;}
	.st7{fill:#147C87;stroke:#000000;stroke-width:0.75;stroke-miterlimit:10;}
</style>
<g id="back_x5F_leg">
	<path class="st0" d="M14,81.9c-1.2,2.7,3,22,6.9,23.6s6.9,1.1,7.1-1.5s-1.8-21.6-3.4-23.5C22.9,78.4,15,79.6,14,81.9z"/>
	<path class="st1" d="M19.1,134.2l-6.4-2.3c-0.7-0.3-1.1-1.1-0.9-1.8l5.4-19.7c0.3-0.7,1.1-1.1,1.8-0.9l9.4,3.4
		c0.7,0.3,1.1,1.1,0.9,1.8l-8.5,18.6C20.6,134.1,19.8,134.5,19.1,134.2z"/>
	<path class="st1" d="M19.4,112.3l9.4,1.1c0.9,0,1.7-0.7,1.7-1.6l0.3-8.6c0-0.9-0.7-1.7-1.6-1.7l-9.6,2.9c-0.9,0-1.7,0.7-1.7,1.6
		l-0.2,4.6C17.7,111.5,18.4,112.2,19.4,112.3z"/>
	<g>
		<defs>
			<path id="SVGID_3_" d="M19.6,112l8.9,1.1c0.9,0,1.6-0.7,1.7-1.5l0.3-8.2c0-0.9-0.7-1.6-1.5-1.6l-9,2.7c-0.9,0-1.6,0.7-1.7,1.5
				l-0.2,4.4C18.1,111.3,18.7,112,19.6,112z"/>
		</defs>
		<clipPath id="SVGID_1_">
			<use xlink:href="#SVGID_3_"  style="overflow:visible;"/>
		</clipPath>
		<polygon class="st2" points="25.8,114.8 30.2,114.3 30.7,99.1 25.1,98.9 		"/>
	</g>
	<path class="st1" d="M11.6,131.5c-0.9,1-1.9,4.9-0.9,5.9s16.5,1,18.4,0s-2.9-5.9-5.8-5.9S11.6,131.5,11.6,131.5z"/>
</g>
<g id="body">
	<path class="st0" d="M26.6,31.5c-0.2,1-3.1,5.5-3.1,5.5s6.7,2.3,8.8,1.6c1.3-1.8,1.3-4.6,1.3-4.6L26.6,31.5z"/>
	<path class="st0" d="M17.5,63.5c0,3.3-1,13.7-1,13.7s9,2.1,12,1c0,0,2-8.3,2-10.4C30.5,65.7,17.5,63.5,17.5,63.5z"/>
	<path class="st1" d="M18.9,37.8c-2.9,2.2-4.4,22.3-1.9,26c2.5,3.7,13.2,6.9,14.2,5.8c1-1.1,6.6-15,5.4-23.4
		C35.4,37.8,24.7,33.4,18.9,37.8z"/>
	<path class="st1" d="M16.6,75c1.9,0,10.5,1.2,12.4,3.5c0,1.8-1,8.8-3.8,11.6c-2.5,2.5-6.8,1.1-8.6,0C10.6,86.4,14.7,76.2,16.6,75z"
		/>
</g>
<g id="leg">
	<path class="st0" d="M16,85.9c0.5,3.5,16.5,20.4,21.4,19.7s7.6-3.1,6.2-5.9c-1.4-2.8-15.1-20.8-17.8-21.7
		C22.8,76.8,15.6,82.9,16,85.9z"/>
	<path class="st1" d="M43.6,139.8l-8.4-0.7c-1-0.1-1.7-0.9-1.6-1.9l0-25.5c0.1-1,0.9-1.7,1.9-1.6l12.4,1c1,0.1,1.7,0.9,1.6,1.9
		l-4,25.2C45.4,139.1,44.5,139.9,43.6,139.8z"/>
	<path class="st1" d="M36,112.7l11.8-0.6c1.2-0.2,2-1.2,1.8-2.4l-1.5-10.7c-0.2-1.2-1.2-2-2.4-1.8l-11.1,5.5c-1.2,0.2-2,1.2-1.8,2.4
		l0.8,5.7C33.8,112.1,34.9,112.9,36,112.7z"/>
	<g>
		<defs>
			<path id="SVGID_2_" d="M36.3,112.4l11.2-0.6c1.1-0.1,1.9-1.1,1.7-2.2l-1.4-10.1c-0.1-1.1-1.2-1.8-2.2-1.7L35,103
				c-1.1,0.1-1.9,1.1-1.7,2.2l0.7,5.4C34.2,111.8,35.2,112.5,36.3,112.4z"/>
		</defs>
		<clipPath id="SVGID_4_">
			<use xlink:href="#SVGID_2_"  style="overflow:visible;"/>
		</clipPath>
		<polygon class="st3" points="44.5,114.5 49.8,113 47.2,94.2 40.2,95.1 		"/>
	</g>
	<path class="st1" d="M33.7,138.5c-1.2,1.2-2.4,6.1-1.2,7.3c1.2,1.2,20.5,1.2,22.9,0c2.4-1.2-3.6-7.3-7.2-7.3
		C44.6,138.5,33.7,138.5,33.7,138.5z"/>
</g>
<g id="head">
	<path class="st1" d="M22.2,6c-6.4,4.4-5.1,22.5-2.4,25.8c3.7,3.4,21.6,5,25.9,2.4c4.4-3.6,6-21.5,2.4-25.8
		C44.5,3.5,31.8-0.7,22.2,6z"/>
	<g>
		<defs>
			<path id="SVGID_5_" d="M22.9,6.7C16.7,10.8,18,27.9,20.7,31c3.6,3.1,20.9,4.8,25.1,2.3C49.9,30,51.5,13.2,48,9.1
				C44.5,4.5,32.3,0.5,22.9,6.7z"/>
		</defs>
		<clipPath id="SVGID_6_">
			<use xlink:href="#SVGID_5_"  style="overflow:visible;"/>
		</clipPath>
		<polygon class="st4" points="23.5,34.6 20.5,34.3 23.4,3.5 41.9,5.2 44.5,12 41.7,13.1 39.8,8 26.1,6.7 		"/>
	</g>
	<path class="st5" d="M32.2,26.9c0,0,16.4,7.6,17.4-3.1c1-10.2,0.1-11.3,0.1-11.3l-5.8-2.6L29.9,8.6L32.2,26.9z"/>
	<polyline class="st6" points="41.1,28.7 39.6,12.5 30.3,11.6 	"/>
	<path class="st7" d="M49.6,24.1L44.3,27l-11-1c0,0,0.5-5-3.5-5.4s-4.4,4.6-4.4,4.6s-0.4,4,1.5,5.2c1.9,1.2,20,7.5,21.5,6
		C50,35,49.6,24.1,49.6,24.1z"/>
	<g>
		<g>
			<path d="M44.1,30.8c-0.1,1-0.1,1.9-0.2,2.9c0,0.2,0.2,0.4,0.4,0.4c0.2,0,0.4-0.2,0.4-0.4c0-1,0.1-1.9,0.2-2.9
				c0-0.2-0.2-0.4-0.4-0.4C44.2,30.4,44.1,30.6,44.1,30.8L44.1,30.8z"/>
		</g>
	</g>
	<g>
		<g>
			<path d="M46.1,30.8c-0.1,1-0.1,1.9-0.2,2.9c0,0.2,0.2,0.4,0.4,0.4c0.2,0,0.4-0.2,0.4-0.4c0-1,0.1-1.9,0.2-2.9
				c0-0.2-0.2-0.4-0.4-0.4C46.2,30.4,46.1,30.6,46.1,30.8L46.1,30.8z"/>
		</g>
	</g>
</g>
</svg>
