<?xml version="1.0" encoding="utf-8"?>
<!-- Generator: Adobe Illustrator 24.0.2, SVG Export Plug-In . SVG Version: 6.00 Build 0)  -->
<svg version="1.1" xmlns="http://www.w3.org/2000/svg" xmlns:xlink="http://www.w3.org/1999/xlink" x="0px" y="0px"
	 viewBox="0 0 95 115" style="enable-background:new 0 0 95 115;" xml:space="preserve">
<style type="text/css">
	.st0{fill:url(#SVGID_1_);stroke:#000000;stroke-miterlimit:10;}
	.st1{fill:url(#SVGID_2_);stroke:#000000;stroke-miterlimit:10;}
	.st2{fill:#31C8C5;}
	.st3{fill:url(#SVGID_3_);stroke:#000000;stroke-miterlimit:10;}
	.st4{fill:url(#SVGID_4_);stroke:#000000;stroke-miterlimit:10;}
	.st5{fill:url(#SVGID_5_);stroke:#000000;stroke-miterlimit:10;}
	.st6{fill:url(#SVGID_6_);stroke:#000000;stroke-miterlimit:10;}
	.st7{fill:url(#SVGID_7_);stroke:#000000;stroke-miterlimit:10;}
	.st8{fill:#F9F912;stroke:#000000;stroke-width:2;stroke-miterlimit:10;}
	.st9{fill:url(#SVGID_8_);stroke:#000000;stroke-miterlimit:10;}
	.st10{fill:#31C8C5;stroke:#000000;stroke-miterlimit:10;}
	.st11{fill:#B60000;stroke:#000000;stroke-miterlimit:10;}
	.st12{fill:url(#SVGID_9_);stroke:#000000;stroke-miterlimit:10;}
	.st13{fill:url(#SVGID_10_);stroke:#000000;stroke-miterlimit:10;}
	.st14{fill:url(#SVGID_11_);stroke:#000000;stroke-miterlimit:10;}
	.st15{fill:url(#SVGID_12_);stroke:#000000;stroke-miterlimit:10;}
	.st16{fill:url(#SVGID_13_);stroke:#000000;stroke-miterlimit:10;}
	.st17{fill:url(#SVGID_14_);stroke:#000000;stroke-miterlimit:10;}
	.st18{fill:url(#SVGID_15_);stroke:#000000;stroke-miterlimit:10;}
	.st19{fill:url(#SVGID_16_);stroke:#000000;stroke-miterlimit:10;}
	.st20{fill:url(#SVGID_17_);stroke:#000000;stroke-miterlimit:10;}
	.st21{fill:url(#SVGID_18_);stroke:#000000;stroke-miterlimit:10;}
	.st22{fill:url(#SVGID_19_);stroke:#000000;stroke-miterlimit:10;}
	.st23{fill:url(#SVGID_20_);stroke:#000000;stroke-miterlimit:10;}
	.st24{fill:url(#SVGID_21_);stroke:#000000;stroke-miterlimit:10;}
	.st25{fill:url(#SVGID_22_);stroke:#000000;stroke-miterlimit:10;}
	.st26{fill:url(#SVGID_23_);stroke:#000000;stroke-miterlimit:10;}
	.st27{fill:url(#SVGID_24_);stroke:#000000;stroke-miterlimit:10;}
	.st28{fill:url(#SVGID_25_);stroke:#000000;stroke-miterlimit:10;}
	.st29{fill:url(#SVGID_26_);stroke:#000000;stroke-miterlimit:10;}
	.st30{fill:url(#SVGID_27_);stroke:#000000;stroke-miterlimit:10;}
	.st31{fill:url(#SVGID_28_);stroke:#000000;stroke-miterlimit:10;}
	.st32{fill:url(#SVGID_29_);stroke:#000000;stroke-miterlimit:10;}
	.st33{fill:url(#SVGID_30_);stroke:#000000;stroke-miterlimit:10;}
	.st34{fill:url(#SVGID_31_);stroke:#000000;stroke-miterlimit:10;}
	.st35{fill:url(#SVGID_32_);stroke:#000000;stroke-miterlimit:10;}
	.st36{fill:url(#SVGID_33_);stroke:#000000;stroke-miterlimit:10;}
	.st37{fill:url(#SVGID_34_);stroke:#000000;stroke-miterlimit:10;}
	.st38{fill:url(#SVGID_35_);stroke:#000000;stroke-miterlimit:10;}
	.st39{fill:url(#SVGID_36_);stroke:#000000;stroke-miterlimit:10;}
	.st40{fill:url(#SVGID_37_);stroke:#000000;stroke-miterlimit:10;}
	.st41{fill:url(#SVGID_38_);stroke:#000000;stroke-miterlimit:10;}
	.st42{fill:url(#SVGID_39_);stroke:#000000;stroke-miterlimit:10;}
	.st43{fill:url(#SVGID_40_);stroke:#000000;stroke-miterlimit:10;}
	.st44{fill:url(#SVGID_41_);stroke:#000000;stroke-miterlimit:10;}
	.st45{fill:url(#SVGID_42_);stroke:#000000;stroke-miterlimit:10;}
	.st46{fill:url(#SVGID_43_);stroke:#000000;stroke-miterlimit:10;}
	.st47{fill:url(#SVGID_44_);stroke:#000000;stroke-miterlimit:10;}
	.st48{fill:url(#SVGID_45_);stroke:#000000;stroke-miterlimit:10;}
	.st49{fill:url(#SVGID_46_);stroke:#000000;stroke-miterlimit:10;}
	.st50{fill:url(#SVGID_47_);stroke:#000000;stroke-miterlimit:10;}
	.st51{fill:url(#SVGID_48_);stroke:#000000;stroke-miterlimit:10;}
	.st52{fill:url(#SVGID_49_);stroke:#000000;stroke-miterlimit:10;}
	.st53{fill:url(#SVGID_50_);stroke:#000000;stroke-miterlimit:10;}
	.st54{fill:url(#SVGID_51_);stroke:#000000;stroke-miterlimit:10;}
	.st55{fill:url(#SVGID_52_);stroke:#000000;stroke-miterlimit:10;}
	.st56{fill:url(#SVGID_53_);stroke:#000000;stroke-miterlimit:10;}
	.st57{fill:#B60000;stroke:#000000;stroke-width:2;stroke-miterlimit:10;}
	.st58{fill:#808080;}
	.st59{fill:url(#SVGID_54_);stroke:#31C8C5;stroke-miterlimit:10;}
	.st60{fill:url(#SVGID_55_);stroke:#31C8C5;stroke-miterlimit:10;}
	.st61{fill:url(#SVGID_56_);stroke:#000000;stroke-miterlimit:10;}
	.st62{fill:url(#SVGID_57_);stroke:#000000;stroke-miterlimit:10;}
	.st63{fill:url(#SVGID_58_);stroke:#000000;stroke-miterlimit:10;}
	.st64{fill:url(#SVGID_59_);stroke:#000000;stroke-miterlimit:10;}
	.st65{fill:url(#SVGID_60_);stroke:#000000;stroke-miterlimit:10;}
	.st66{fill:url(#SVGID_61_);stroke:#000000;stroke-miterlimit:10;}
	.st67{fill:url(#SVGID_62_);stroke:#31C8C5;stroke-miterlimit:10;}
	.st68{fill:url(#SVGID_63_);stroke:#31C8C5;stroke-miterlimit:10;}
	.st69{fill:url(#SVGID_64_);stroke:#000000;stroke-miterlimit:10;}
	.st70{fill:url(#SVGID_65_);stroke:#000000;stroke-miterlimit:10;}
	.st71{fill:url(#SVGID_66_);stroke:#000000;stroke-miterlimit:10;}
	.st72{fill:url(#SVGID_67_);stroke:#000000;stroke-miterlimit:10;}
	.st73{fill:url(#SVGID_68_);stroke:#000000;stroke-miterlimit:10;}
	.st74{fill:url(#SVGID_69_);stroke:#000000;stroke-miterlimit:10;}
	.st75{fill:url(#SVGID_70_);stroke:#31C8C5;stroke-miterlimit:10;}
	.st76{fill:url(#SVGID_71_);stroke:#31C8C5;stroke-miterlimit:10;}
	.st77{fill:url(#SVGID_72_);stroke:#000000;stroke-miterlimit:10;}
	.st78{fill:url(#SVGID_73_);stroke:#000000;stroke-miterlimit:10;}
	.st79{fill:url(#SVGID_74_);stroke:#000000;stroke-miterlimit:10;}
	.st80{fill:url(#SVGID_75_);stroke:#000000;stroke-miterlimit:10;}
	.st81{fill:url(#SVGID_76_);stroke:#000000;stroke-miterlimit:10;}
	.st82{fill:url(#SVGID_77_);stroke:#000000;stroke-miterlimit:10;}
	.st83{fill:url(#SVGID_78_);stroke:#31C8C5;stroke-miterlimit:10;}
	.st84{fill:url(#SVGID_79_);stroke:#31C8C5;stroke-miterlimit:10;}
	.st85{fill:url(#SVGID_80_);stroke:#000000;stroke-miterlimit:10;}
	.st86{fill:url(#SVGID_81_);stroke:#000000;stroke-miterlimit:10;}
	.st87{fill:url(#SVGID_82_);stroke:#000000;stroke-miterlimit:10;}
	.st88{fill:url(#SVGID_83_);stroke:#000000;stroke-miterlimit:10;}
	.st89{fill:url(#SVGID_84_);stroke:#000000;stroke-miterlimit:10;}
	.st90{fill:url(#SVGID_85_);stroke:#31C8C5;stroke-miterlimit:10;}
	.st91{fill:url(#SVGID_86_);stroke:#31C8C5;stroke-miterlimit:10;}
	.st92{fill:url(#SVGID_87_);stroke:#000000;stroke-miterlimit:10;}
	.st93{fill:url(#SVGID_88_);stroke:#000000;stroke-miterlimit:10;}
	.st94{fill:url(#SVGID_89_);stroke:#000000;stroke-miterlimit:10;}
	.st95{fill:url(#SVGID_90_);stroke:#000000;stroke-miterlimit:10;}
	.st96{fill:url(#SVGID_91_);stroke:#000000;stroke-miterlimit:10;}
	.st97{fill:url(#SVGID_92_);stroke:#000000;stroke-miterlimit:10;}
	.st98{fill:url(#SVGID_93_);stroke:#000000;stroke-miterlimit:10;}
	.st99{fill:url(#SVGID_94_);stroke:#31C8C5;stroke-miterlimit:10;}
	.st100{fill:url(#SVGID_95_);stroke:#31C8C5;stroke-miterlimit:10;}
	.st101{fill:url(#SVGID_96_);stroke:#000000;stroke-miterlimit:10;}
	.st102{stroke:#31C8C5;stroke-miterlimit:10;}
	.st103{stroke:#000000;stroke-miterlimit:10;}
	.st104{fill:url(#SVGID_97_);stroke:#000000;stroke-miterlimit:10;}
	.st105{fill:url(#SVGID_98_);stroke:#808080;stroke-miterlimit:10;}
	.st106{fill:url(#SVGID_99_);stroke:#000000;stroke-miterlimit:10;}
	.st107{fill:#984C24;stroke:#000000;stroke-miterlimit:10;}
	.st108{fill:url(#SVGID_100_);stroke:#000000;stroke-miterlimit:10;}
	.st109{fill:url(#SVGID_101_);stroke:#000000;stroke-miterlimit:10;}
	.st110{fill:#984C24;}
	.st111{fill:url(#SVGID_102_);stroke:#000000;stroke-miterlimit:10;}
	.st112{fill:url(#SVGID_103_);stroke:#31C8C5;stroke-miterlimit:10;}
	.st113{fill:url(#SVGID_104_);stroke:#000000;stroke-miterlimit:10;}
	.st114{fill:#984C24;stroke:#808080;stroke-miterlimit:10;}
	.st115{fill:url(#SVGID_105_);stroke:#000000;stroke-miterlimit:10;}
	.st116{fill:url(#SVGID_106_);stroke:#000000;stroke-miterlimit:10;}
	.st117{fill:url(#SVGID_107_);stroke:#000000;stroke-miterlimit:10;}
	.st118{fill:url(#SVGID_108_);stroke:#31C8C5;stroke-miterlimit:10;}
	.st119{fill:url(#SVGID_109_);stroke:#000000;stroke-miterlimit:10;}
	.st120{fill:url(#SVGID_110_);stroke:#000000;stroke-miterlimit:10;}
	.st121{fill:url(#SVGID_111_);stroke:#000000;stroke-miterlimit:10;}
	.st122{fill:url(#SVGID_112_);stroke:#000000;stroke-miterlimit:10;}
	.st123{fill:url(#SVGID_113_);stroke:#31C8C5;stroke-miterlimit:10;}
	.st124{fill:url(#SVGID_114_);stroke:#000000;stroke-miterlimit:10;}
	.st125{fill:url(#SVGID_115_);stroke:#000000;stroke-miterlimit:10;}
	.st126{fill:url(#SVGID_116_);stroke:#000000;stroke-miterlimit:10;}
	.st127{fill:url(#SVGID_117_);stroke:#000000;stroke-miterlimit:10;}
	.st128{fill:url(#SVGID_118_);stroke:#31C8C5;stroke-miterlimit:10;}
	.st129{fill:url(#SVGID_119_);stroke:#000000;stroke-miterlimit:10;}
	.st130{fill:url(#SVGID_120_);stroke:#000000;stroke-miterlimit:10;}
	.st131{fill:url(#SVGID_121_);stroke:#000000;stroke-miterlimit:10;}
	.st132{fill:url(#SVGID_122_);stroke:#000000;stroke-miterlimit:10;}
	.st133{fill:url(#SVGID_123_);stroke:#31C8C5;stroke-miterlimit:10;}
	.st134{fill:url(#SVGID_124_);stroke:#000000;stroke-miterlimit:10;}
	.st135{fill:url(#SVGID_125_);stroke:#000000;stroke-miterlimit:10;}
	.st136{fill:url(#SVGID_126_);stroke:#000000;stroke-miterlimit:10;}
	.st137{fill:url(#SVGID_127_);stroke:#000000;stroke-miterlimit:10;}
	.st138{fill:url(#SVGID_128_);stroke:#31C8C5;stroke-miterlimit:10;}
	.st139{fill:url(#SVGID_129_);stroke:#000000;stroke-miterlimit:10;}
	.st140{fill:url(#SVGID_130_);stroke:#000000;stroke-miterlimit:10;}
	.st141{fill:url(#SVGID_131_);stroke:#000000;stroke-miterlimit:10;}
</style>
<g id="Слой_1">
</g>
<g id="Слой_8">
</g>
<g id="Слой_2">
</g>
<g id="Слой_4">
</g>
<g id="Слой_6">
</g>
<g id="Слой_7">
</g>
<g id="Слой_3">
</g>
<g id="Слой_9">
</g>
<g id="Слой_10">
</g>
<g id="Слой_12">
</g>
<g id="Слой_13">
</g>
<g id="Слой_14">
</g>
<g id="Слой_5">
</g>
<g id="Слой_11">
</g>
<g id="Слой_15">
	<path class="st102" d="M72.78,77.25c4.31-1.64,16.68-5.62,17.57,5.01c0.33,3.97,4.27,17.68,3.79,19.53
		c-6.14,2.17-4.73-20.64-8.9-20.27C66.28,83.21,66.14,79.78,72.78,77.25z"/>
	<path class="st102" d="M31.75,85.11c-4.14-3.43-16.23-14.75-20.17-4.7c-1.47,3.76-7.38,19.61-7.38,21.62
		c7.99,3.34,8.09-24.03,13.04-20.19C23.67,86.83,38.12,90.4,31.75,85.11z"/>
	<path class="st102" d="M60.58,85.68c5.5-2.61,21.11-8.13,22.08,2.75c0.36,4.07,7.88,23.6,7.23,25.62
		c-8.03,0.99-8.33-26.35-13.72-25.33C48.05,94.05,52.1,89.7,60.58,85.68z"/>
	<path class="st102" d="M34,83.02c-3.63,0.56-12.05-4.98-14.38,5.26c-0.87,3.83-7.88,22.16-7.79,23.92
		c6.96,2.8,9.92-25.89,11.86-24.76C37,95.15,49.35,80.64,34,83.02z"/>
	<g>
		
			<linearGradient id="SVGID_1_" gradientUnits="userSpaceOnUse" x1="-284.8747" y1="227.9669" x2="-239.1605" y2="227.9669" gradientTransform="matrix(-0.4292 -0.9786 0.9496 -0.3536 -290.7269 -144.6056)">
			<stop  offset="0" style="stop-color:#000000"/>
			<stop  offset="0.0262" style="stop-color:#090909"/>
			<stop  offset="0.1431" style="stop-color:#2A2A2A"/>
			<stop  offset="0.2689" style="stop-color:#454545"/>
			<stop  offset="0.4046" style="stop-color:#5A5A5A"/>
			<stop  offset="0.555" style="stop-color:#696969"/>
			<stop  offset="0.7319" style="stop-color:#727272"/>
			<stop  offset="1" style="stop-color:#757575"/>
		</linearGradient>
		<path class="st0" d="M33.74,51.2c0.56,3.36,11.13,0.22,14.84,0.61c6.53,0.7,9.15-2.38,9.49-5.57c-11.7-6.5-19.67,3.33-20.2-0.03
			c-3.07-19.39-2.04-30.16-7.79-36.99C24.98,3.14,32.19,41.86,33.74,51.2z"/>
		<path class="st10" d="M20.73,11.45c0,0-7.33,7.36-7.76,10.23s-0.62,1.26,4.96-2.35s9.02-1.88,11.09-4.46s3.2-4.39-0.35-4.13
			C25.13,11.01,20.73,11.45,20.73,11.45z"/>
		<path class="st107" d="M30.87,8.79c0,0-6.3-5.85-17.11,1.25S4.7,22.1,4.7,22.1s11.57-8.89,17.32-7.56
			C27.34,15.78,37.25,14.99,30.87,8.79z"/>
	</g>
	<g>
		
			<radialGradient id="SVGID_2_" cx="68.2604" cy="81.2708" r="51.1903" fx="66.3231" fy="89.2798" gradientTransform="matrix(0.9167 0 0 0.2079 -12.0673 62.4063)" gradientUnits="userSpaceOnUse">
			<stop  offset="0" style="stop-color:#757575"/>
			<stop  offset="0.3088" style="stop-color:#4D4D4D"/>
			<stop  offset="0.7744" style="stop-color:#161616"/>
			<stop  offset="1" style="stop-color:#000000"/>
		</radialGradient>
		<path style="fill:url(#SVGID_2_);stroke:#31C8C5;stroke-miterlimit:10;" d="M18.58,77.99c0,5.93,14.06,13.36,31.69,13.36
			s32.16-7.44,32.16-13.36S68.14,67.25,50.5,67.25S18.58,72.06,18.58,77.99z"/>
		
			<radialGradient id="SVGID_3_" cx="72.4965" cy="56.3951" r="32.997" gradientTransform="matrix(0.1882 -0.9472 1.2494 0.2768 -29.7182 108.1571)" gradientUnits="userSpaceOnUse">
			<stop  offset="0" style="stop-color:#000000"/>
			<stop  offset="0.1509" style="stop-color:#090909"/>
			<stop  offset="0.3982" style="stop-color:#222222"/>
			<stop  offset="0.7093" style="stop-color:#4A4A4A"/>
			<stop  offset="1" style="stop-color:#757575"/>
		</radialGradient>
		<path class="st3" d="M27.74,70.5c0,0,1.86-8.3,10.42-14.69c5.33-3.98,5.4-6.95,12.65-13.28c5.84-5.1-3.45-2.5,1.22-10.64
			c3.07-5.35,8.92-6.33,17.47-6.24c5.53,0.05-4.73,10.85-3.03,14.89c1.43,3.41,5.76,6.79,5.02,12.21
			c-1.07,7.77,15.15,14.42,4.48,20.01C55.68,83.37,29.42,76.94,27.74,70.5z"/>
		<path class="st114" d="M79.61,69.73C68.19,71.44,60.68,78.4,50.5,78.4c-11.19,0-18.39-7.26-22.77-9.34
			c-2.43,0.9-4.98,1.55-4.98,2.67c0,3.33,12.41,10.3,27.71,10.3c15.3,0,27.71-6.86,30.77-8.16C84.17,72.62,82.08,70.65,79.61,69.73z
			"/>
		<path class="st107" d="M71.95,54.37c-1.31-1.26-10.56,6.77-17.29,6.77c-7.39,0-11.42-5.02-14.31-7.1
			c-1.43-0.35-7.82,1.22-5.41,3.29c2.51,2.17,6.95,6.94,17.06,6.94c14.46,0,18.74-4.37,21.02-6.76
			C74.38,56.08,73.11,55.5,71.95,54.37z"/>
		<path class="st114" d="M66.55,38.93c-0.27-0.71-2.01,1.51-5.67,2.25c-3.45,0.69-7.51-0.9-8.88-1.72c-0.7,0.11-2.25,0.92-3.39,1.65
			c-3.42,2.18,5.38,2.77,7.68,3.57c4.6,1.6,10.66-0.55,12-2.93C68.66,41.06,66.81,39.59,66.55,38.93z"/>
		<path class="st107" d="M70.59,30.41c-0.27-2.01-1.37,0-6.51,0.93c-3.88,0.7-7.56,0-10.07-1.51c-2.42-0.22-4.03,1.51-1.77,2.69
			c1.06,0.55,6.63,1.64,8.23,1.75c2.82,0.19,7.04-0.39,9.26-1.74C70.31,32.17,70.68,31.12,70.59,30.41z"/>
	</g>
	<g>
		
			<linearGradient id="SVGID_4_" gradientUnits="userSpaceOnUse" x1="-353.1936" y1="162.8849" x2="-313.7068" y2="162.8849" gradientTransform="matrix(-0.86 -0.6343 0.6468 -0.7799 -357.5595 -35.8243)">
			<stop  offset="0" style="stop-color:#000000"/>
			<stop  offset="0.0262" style="stop-color:#090909"/>
			<stop  offset="0.1431" style="stop-color:#2A2A2A"/>
			<stop  offset="0.2689" style="stop-color:#454545"/>
			<stop  offset="0.4046" style="stop-color:#5A5A5A"/>
			<stop  offset="0.555" style="stop-color:#696969"/>
			<stop  offset="0.7319" style="stop-color:#727272"/>
			<stop  offset="1" style="stop-color:#757575"/>
		</linearGradient>
		<path class="st4" d="M41.15,69.48c3.26,2.35,9.11-7.15,11.25-10.2c3.68-5.23,5.4-7.46,4.1-10.4
			c-8.69-3.69-13.63,16.75-15.51,14.05C29.65,46.72,28.46,37.6,20.08,34.55C12.62,31.83,36.93,66.43,41.15,69.48z"/>
		<path class="st10" d="M13.96,40.12c0,0-4.75,9.24-4.3,12.1s-0.21,1.39,4.01-3.74s6.47-4.36,8.66-6.49
			c2.38-2.31,2.27-6.28-1.03-4.96S13.96,40.12,13.96,40.12z"/>
		<path class="st107" d="M22.81,34.51c0,0-8.2-3.99-15.92,6.37c-7.52,10.09-4.87,12.12-4.87,12.12s8.22-9.85,14.1-10.32
			C21.57,42.24,30.76,38.48,22.81,34.51z"/>
	</g>
	<g>
		
			<radialGradient id="SVGID_5_" cx="80.9049" cy="37.2569" r="15.9331" gradientTransform="matrix(0.904 -0.1516 0.1516 0.904 -15.4813 -5.1627)" gradientUnits="userSpaceOnUse">
			<stop  offset="0" style="stop-color:#757575"/>
			<stop  offset="0.1493" style="stop-color:#6D6D6D"/>
			<stop  offset="0.3866" style="stop-color:#565656"/>
			<stop  offset="0.682" style="stop-color:#303030"/>
			<stop  offset="1" style="stop-color:#000000"/>
		</radialGradient>
		<path class="st5" d="M48.88,19.54c-1.23-7.33,2.66-15.95,10.71-17.3S76.72,6.9,77.95,14.23c1.23,7.33-5.48,16.16-15.47,16.67
			C54.33,31.33,50.11,26.87,48.88,19.54z"/>
		<g>
			<path class="st110" d="M54.59,2.27c2.81,0.73,5.34,2.39,7.37,4.62c2.02,2.23,3.43,5.28,3.57,8.49c0.07,1.59-0.12,3.18-0.56,4.67
				c-0.47,1.47-1.08,2.89-1.91,4.12c-1.61,2.52-3.74,4.54-6.23,6.01c1.26-2.59,2.55-4.99,3.42-7.43c0.47-1.21,0.78-2.42,1.03-3.61
				c0.22-1.2,0.31-2.38,0.25-3.55c-0.1-2.34-0.85-4.64-2.11-6.85C58.17,6.51,56.51,4.39,54.59,2.27z"/>
		</g>
		<g>
			<path class="st8" d="M47.81,17.12c0.63,7.16,5.41,12.76,7.15,12.58c3-0.31,5.91-6.65,5.28-13.82C59.61,8.72,55.45,2.31,53.32,3.3
				C49.77,4.96,47.18,9.96,47.81,17.12z"/>
			<g>
				<path d="M53.91,24.75c-1.13-1.45-1.76-2.93-2.25-4.43c-0.46-1.49-0.73-3-0.83-4.52c-0.1-1.52-0.03-3.04,0.24-4.58
					c0.29-1.54,0.73-3.09,1.67-4.68C53.88,8,54.52,9.48,55,10.97c0.46,1.49,0.73,3,0.82,4.52c0.09,1.52,0.02,3.04-0.25,4.58
					C55.28,21.62,54.84,23.17,53.91,24.75z"/>
			</g>
		</g>
		<path class="st10" d="M70.46,28.31c7.13-7.73,2.35-7.37,2.35-7.37s3.2-4.06,3.09-4.97c-0.15-1.21-3.83-1.59-3.83-1.59
			s4-3.44,3.13-4.62c-0.65-0.87-6.23-0.26-6.23-0.26s2.72-2.07,1.96-3.8c-0.59-1.36-6.47-0.18-7.75-0.15c0,0,1.93-1.59-0.57-2.14
			c-2.88-0.63-8.2-1.04-7.82-1.15c7.61-2.21,26.01-0.7,28.69,8.67C84.37,14.07,82.97,21.16,70.46,28.31z"/>
		<path class="st107" d="M79.61,5.46c0,0,7.32,5.26,3.06,11.47c-4.05,5.9,0.79,0.27-1.24-4.81C79.26,6.68,77.67,4.44,79.61,5.46z"/>
	</g>
</g>
<g id="Слой_16">
</g>
<g id="Слой_17">
</g>
<g id="Слой_18">
</g>
</svg>
