<?xml version="1.0" encoding="utf-8"?>
<!-- Generator: Adobe Illustrator 24.0.2, SVG Export Plug-In . SVG Version: 6.00 Build 0)  -->
<svg version="1.1" xmlns="http://www.w3.org/2000/svg" xmlns:xlink="http://www.w3.org/1999/xlink" x="0px" y="0px"
	 viewBox="0 0 95 115" style="enable-background:new 0 0 95 115;" xml:space="preserve">
<style type="text/css">
	.st0{fill:url(#SVGID_1_);stroke:#000000;stroke-miterlimit:10;}
	.st1{fill:url(#SVGID_2_);stroke:#000000;stroke-miterlimit:10;}
	.st2{fill:#31C8C5;}
	.st3{fill:url(#SVGID_3_);stroke:#000000;stroke-miterlimit:10;}
	.st4{fill:url(#SVGID_4_);stroke:#000000;stroke-miterlimit:10;}
	.st5{fill:url(#SVGID_5_);stroke:#000000;stroke-miterlimit:10;}
	.st6{fill:url(#SVGID_6_);stroke:#000000;stroke-miterlimit:10;}
	.st7{fill:url(#SVGID_7_);stroke:#000000;stroke-miterlimit:10;}
	.st8{fill:#F9F912;stroke:#000000;stroke-width:2;stroke-miterlimit:10;}
	.st9{fill:url(#SVGID_8_);stroke:#000000;stroke-miterlimit:10;}
	.st10{fill:#31C8C5;stroke:#000000;stroke-miterlimit:10;}
	.st11{fill:#B60000;stroke:#000000;stroke-miterlimit:10;}
	.st12{fill:url(#SVGID_9_);stroke:#000000;stroke-miterlimit:10;}
	.st13{fill:url(#SVGID_10_);stroke:#000000;stroke-miterlimit:10;}
	.st14{fill:url(#SVGID_11_);stroke:#000000;stroke-miterlimit:10;}
	.st15{fill:url(#SVGID_12_);stroke:#000000;stroke-miterlimit:10;}
	.st16{fill:url(#SVGID_13_);stroke:#000000;stroke-miterlimit:10;}
	.st17{fill:url(#SVGID_14_);stroke:#000000;stroke-miterlimit:10;}
	.st18{fill:url(#SVGID_15_);stroke:#000000;stroke-miterlimit:10;}
	.st19{fill:url(#SVGID_16_);stroke:#000000;stroke-miterlimit:10;}
	.st20{fill:url(#SVGID_17_);stroke:#000000;stroke-miterlimit:10;}
	.st21{fill:url(#SVGID_18_);stroke:#000000;stroke-miterlimit:10;}
	.st22{fill:url(#SVGID_19_);stroke:#000000;stroke-miterlimit:10;}
	.st23{fill:url(#SVGID_20_);stroke:#000000;stroke-miterlimit:10;}
	.st24{fill:url(#SVGID_21_);stroke:#000000;stroke-miterlimit:10;}
	.st25{fill:url(#SVGID_22_);stroke:#000000;stroke-miterlimit:10;}
	.st26{fill:url(#SVGID_23_);stroke:#000000;stroke-miterlimit:10;}
	.st27{fill:url(#SVGID_24_);stroke:#000000;stroke-miterlimit:10;}
	.st28{fill:url(#SVGID_25_);stroke:#000000;stroke-miterlimit:10;}
	.st29{fill:url(#SVGID_26_);stroke:#000000;stroke-miterlimit:10;}
	.st30{fill:url(#SVGID_27_);stroke:#000000;stroke-miterlimit:10;}
	.st31{fill:url(#SVGID_28_);stroke:#000000;stroke-miterlimit:10;}
	.st32{fill:url(#SVGID_29_);stroke:#000000;stroke-miterlimit:10;}
	.st33{fill:url(#SVGID_30_);stroke:#000000;stroke-miterlimit:10;}
	.st34{fill:url(#SVGID_31_);stroke:#000000;stroke-miterlimit:10;}
	.st35{fill:url(#SVGID_32_);stroke:#000000;stroke-miterlimit:10;}
	.st36{fill:url(#SVGID_33_);stroke:#000000;stroke-miterlimit:10;}
	.st37{fill:url(#SVGID_34_);stroke:#000000;stroke-miterlimit:10;}
	.st38{fill:url(#SVGID_35_);stroke:#000000;stroke-miterlimit:10;}
	.st39{fill:url(#SVGID_36_);stroke:#000000;stroke-miterlimit:10;}
	.st40{fill:url(#SVGID_37_);stroke:#000000;stroke-miterlimit:10;}
	.st41{fill:url(#SVGID_38_);stroke:#000000;stroke-miterlimit:10;}
	.st42{fill:url(#SVGID_39_);stroke:#000000;stroke-miterlimit:10;}
	.st43{fill:url(#SVGID_40_);stroke:#000000;stroke-miterlimit:10;}
	.st44{fill:url(#SVGID_41_);stroke:#000000;stroke-miterlimit:10;}
	.st45{fill:url(#SVGID_42_);stroke:#000000;stroke-miterlimit:10;}
	.st46{fill:url(#SVGID_43_);stroke:#000000;stroke-miterlimit:10;}
	.st47{fill:url(#SVGID_44_);stroke:#000000;stroke-miterlimit:10;}
	.st48{fill:url(#SVGID_45_);stroke:#000000;stroke-miterlimit:10;}
	.st49{fill:url(#SVGID_46_);stroke:#000000;stroke-miterlimit:10;}
	.st50{fill:url(#SVGID_47_);stroke:#000000;stroke-miterlimit:10;}
	.st51{fill:url(#SVGID_48_);stroke:#000000;stroke-miterlimit:10;}
	.st52{fill:url(#SVGID_49_);stroke:#000000;stroke-miterlimit:10;}
	.st53{fill:url(#SVGID_50_);stroke:#000000;stroke-miterlimit:10;}
	.st54{fill:url(#SVGID_51_);stroke:#000000;stroke-miterlimit:10;}
	.st55{fill:url(#SVGID_52_);stroke:#000000;stroke-miterlimit:10;}
	.st56{fill:url(#SVGID_53_);stroke:#000000;stroke-miterlimit:10;}
	.st57{fill:#B60000;stroke:#000000;stroke-width:2;stroke-miterlimit:10;}
	.st58{fill:#808080;}
	.st59{fill:url(#SVGID_54_);stroke:#31C8C5;stroke-miterlimit:10;}
	.st60{fill:url(#SVGID_55_);stroke:#31C8C5;stroke-miterlimit:10;}
	.st61{fill:url(#SVGID_56_);stroke:#000000;stroke-miterlimit:10;}
	.st62{fill:url(#SVGID_57_);stroke:#000000;stroke-miterlimit:10;}
	.st63{fill:url(#SVGID_58_);stroke:#000000;stroke-miterlimit:10;}
	.st64{fill:url(#SVGID_59_);stroke:#000000;stroke-miterlimit:10;}
	.st65{fill:url(#SVGID_60_);stroke:#000000;stroke-miterlimit:10;}
	.st66{fill:url(#SVGID_61_);stroke:#000000;stroke-miterlimit:10;}
	.st67{fill:url(#SVGID_62_);stroke:#31C8C5;stroke-miterlimit:10;}
	.st68{fill:url(#SVGID_63_);stroke:#31C8C5;stroke-miterlimit:10;}
	.st69{fill:url(#SVGID_64_);stroke:#000000;stroke-miterlimit:10;}
	.st70{fill:url(#SVGID_65_);stroke:#000000;stroke-miterlimit:10;}
	.st71{fill:url(#SVGID_66_);stroke:#000000;stroke-miterlimit:10;}
	.st72{fill:url(#SVGID_67_);stroke:#000000;stroke-miterlimit:10;}
	.st73{fill:url(#SVGID_68_);stroke:#000000;stroke-miterlimit:10;}
	.st74{fill:url(#SVGID_69_);stroke:#000000;stroke-miterlimit:10;}
	.st75{fill:url(#SVGID_70_);stroke:#31C8C5;stroke-miterlimit:10;}
	.st76{fill:url(#SVGID_71_);stroke:#31C8C5;stroke-miterlimit:10;}
	.st77{fill:url(#SVGID_72_);stroke:#000000;stroke-miterlimit:10;}
	.st78{fill:url(#SVGID_73_);stroke:#000000;stroke-miterlimit:10;}
	.st79{fill:url(#SVGID_74_);stroke:#000000;stroke-miterlimit:10;}
	.st80{fill:url(#SVGID_75_);stroke:#000000;stroke-miterlimit:10;}
	.st81{fill:url(#SVGID_76_);stroke:#000000;stroke-miterlimit:10;}
	.st82{fill:url(#SVGID_77_);stroke:#000000;stroke-miterlimit:10;}
	.st83{fill:url(#SVGID_78_);stroke:#31C8C5;stroke-miterlimit:10;}
	.st84{fill:url(#SVGID_79_);stroke:#31C8C5;stroke-miterlimit:10;}
	.st85{fill:url(#SVGID_80_);stroke:#000000;stroke-miterlimit:10;}
	.st86{fill:url(#SVGID_81_);stroke:#000000;stroke-miterlimit:10;}
	.st87{fill:url(#SVGID_82_);stroke:#000000;stroke-miterlimit:10;}
	.st88{fill:url(#SVGID_83_);stroke:#000000;stroke-miterlimit:10;}
	.st89{fill:url(#SVGID_84_);stroke:#000000;stroke-miterlimit:10;}
	.st90{fill:url(#SVGID_85_);stroke:#31C8C5;stroke-miterlimit:10;}
	.st91{fill:url(#SVGID_86_);stroke:#31C8C5;stroke-miterlimit:10;}
	.st92{fill:url(#SVGID_87_);stroke:#000000;stroke-miterlimit:10;}
	.st93{fill:url(#SVGID_88_);stroke:#000000;stroke-miterlimit:10;}
	.st94{fill:url(#SVGID_89_);stroke:#000000;stroke-miterlimit:10;}
	.st95{fill:url(#SVGID_90_);stroke:#000000;stroke-miterlimit:10;}
	.st96{fill:url(#SVGID_91_);stroke:#000000;stroke-miterlimit:10;}
	.st97{fill:url(#SVGID_92_);stroke:#000000;stroke-miterlimit:10;}
	.st98{fill:url(#SVGID_93_);stroke:#000000;stroke-miterlimit:10;}
	.st99{fill:url(#SVGID_94_);stroke:#31C8C5;stroke-miterlimit:10;}
	.st100{fill:url(#SVGID_95_);stroke:#31C8C5;stroke-miterlimit:10;}
	.st101{fill:url(#SVGID_96_);stroke:#000000;stroke-miterlimit:10;}
	.st102{stroke:#31C8C5;stroke-miterlimit:10;}
	.st103{stroke:#000000;stroke-miterlimit:10;}
	.st104{fill:url(#SVGID_97_);stroke:#000000;stroke-miterlimit:10;}
	.st105{fill:url(#SVGID_98_);stroke:#808080;stroke-miterlimit:10;}
	.st106{fill:url(#SVGID_99_);stroke:#000000;stroke-miterlimit:10;}
	.st107{fill:#984C24;stroke:#000000;stroke-miterlimit:10;}
	.st108{fill:url(#SVGID_100_);stroke:#000000;stroke-miterlimit:10;}
	.st109{fill:url(#SVGID_101_);stroke:#000000;stroke-miterlimit:10;}
	.st110{fill:#984C24;}
	.st111{fill:url(#SVGID_102_);stroke:#000000;stroke-miterlimit:10;}
	.st112{fill:url(#SVGID_103_);stroke:#31C8C5;stroke-miterlimit:10;}
	.st113{fill:url(#SVGID_104_);stroke:#000000;stroke-miterlimit:10;}
	.st114{fill:#984C24;stroke:#808080;stroke-miterlimit:10;}
	.st115{fill:url(#SVGID_105_);stroke:#000000;stroke-miterlimit:10;}
	.st116{fill:url(#SVGID_106_);stroke:#000000;stroke-miterlimit:10;}
	.st117{fill:url(#SVGID_107_);stroke:#000000;stroke-miterlimit:10;}
	.st118{fill:url(#SVGID_108_);stroke:#31C8C5;stroke-miterlimit:10;}
	.st119{fill:url(#SVGID_109_);stroke:#000000;stroke-miterlimit:10;}
	.st120{fill:url(#SVGID_110_);stroke:#000000;stroke-miterlimit:10;}
	.st121{fill:url(#SVGID_111_);stroke:#000000;stroke-miterlimit:10;}
	.st122{fill:url(#SVGID_112_);stroke:#000000;stroke-miterlimit:10;}
	.st123{fill:url(#SVGID_113_);stroke:#31C8C5;stroke-miterlimit:10;}
	.st124{fill:url(#SVGID_114_);stroke:#000000;stroke-miterlimit:10;}
	.st125{fill:url(#SVGID_115_);stroke:#000000;stroke-miterlimit:10;}
	.st126{fill:url(#SVGID_116_);stroke:#000000;stroke-miterlimit:10;}
	.st127{fill:url(#SVGID_117_);stroke:#000000;stroke-miterlimit:10;}
	.st128{fill:url(#SVGID_118_);stroke:#31C8C5;stroke-miterlimit:10;}
	.st129{fill:url(#SVGID_119_);stroke:#000000;stroke-miterlimit:10;}
	.st130{fill:url(#SVGID_120_);stroke:#000000;stroke-miterlimit:10;}
	.st131{fill:url(#SVGID_121_);stroke:#000000;stroke-miterlimit:10;}
	.st132{fill:url(#SVGID_122_);stroke:#000000;stroke-miterlimit:10;}
	.st133{fill:url(#SVGID_123_);stroke:#31C8C5;stroke-miterlimit:10;}
	.st134{fill:url(#SVGID_124_);stroke:#000000;stroke-miterlimit:10;}
	.st135{fill:url(#SVGID_125_);stroke:#000000;stroke-miterlimit:10;}
	.st136{fill:url(#SVGID_126_);stroke:#000000;stroke-miterlimit:10;}
	.st137{fill:url(#SVGID_127_);stroke:#000000;stroke-miterlimit:10;}
	.st138{fill:url(#SVGID_128_);stroke:#31C8C5;stroke-miterlimit:10;}
	.st139{fill:url(#SVGID_129_);stroke:#000000;stroke-miterlimit:10;}
	.st140{fill:url(#SVGID_130_);stroke:#000000;stroke-miterlimit:10;}
	.st141{fill:url(#SVGID_131_);stroke:#000000;stroke-miterlimit:10;}
</style>
<g id="Слой_1">
</g>
<g id="Слой_8">
</g>
<g id="Слой_2">
</g>
<g id="Слой_4">
</g>
<g id="Слой_6">
</g>
<g id="Слой_7">
</g>
<g id="Слой_3">
</g>
<g id="Слой_9">
</g>
<g id="Слой_10">
</g>
<g id="Слой_12">
</g>
<g id="Слой_13">
</g>
<g id="Слой_14">
</g>
<g id="Слой_5">
</g>
<g id="Слой_11">
</g>
<g id="Слой_15">
</g>
<g id="Слой_16">
</g>
<g id="Слой_17">
</g>
<g id="Слой_18">
	<path class="st102" d="M78.51,73.82c4.27,1.74,16.03,7.27,9.43,15.65c-2.47,3.13-8.94,15.84-10.55,16.86
		c-5.97-2.6,10.62-18.32,7.32-20.89C69.69,73.74,71.93,71.14,78.51,73.82z"/>
	<path class="st102" d="M24.85,73.72c-4.99,2-20.7,7.25-13.74,15.49c2.6,3.09,13.73,15.83,15.5,16.79
		c6.74-5.43-17.27-18.56-11.54-21.09C22.51,81.64,32.53,70.64,24.85,73.72z"/>
	<path class="st102" d="M68,73.68c5.44,2.73,19.4,11.64,11.41,19.1c-2.99,2.79-13.76,20.72-15.75,21.46
		c-5.72-5.72,16.33-23.73,11.53-26.4C50.84,74.33,59.62,69.47,68,73.68z"/>
	<path class="st102" d="M26.76,78.6c-1.77,3.21-11.31,6.5-4.61,14.6c2.5,3.03,12.73,19.77,14.18,20.78
		c6.47-3.81-14.44-23.67-12.36-24.52C38.2,83.63,34.26,64.99,26.76,78.6z"/>
	<g>
		
			<linearGradient id="SVGID_1_" gradientUnits="userSpaceOnUse" x1="-732.3589" y1="502.3026" x2="-686.6448" y2="502.3026" gradientTransform="matrix(-0.2798 -1.0313 0.9914 -0.2093 -655.8647 -596.0979)">
			<stop  offset="0" style="stop-color:#000000"/>
			<stop  offset="0.0262" style="stop-color:#090909"/>
			<stop  offset="0.1431" style="stop-color:#2A2A2A"/>
			<stop  offset="0.2689" style="stop-color:#454545"/>
			<stop  offset="0.4046" style="stop-color:#5A5A5A"/>
			<stop  offset="0.555" style="stop-color:#696969"/>
			<stop  offset="0.7319" style="stop-color:#727272"/>
			<stop  offset="1" style="stop-color:#757575"/>
		</linearGradient>
		<path class="st0" d="M33.26,49.62c0.05,3.41,10.98,1.86,14.59,2.8c6.35,1.65,9.4-1,10.21-4.11c-10.6-8.16-19.95,0.38-19.98-3.02
			c-0.17-19.63,2.44-30.13-2.23-37.74C31.7,0.8,33.11,40.16,33.26,49.62z"/>
		<path class="st10" d="M26.89,10.12c0,0-8.9,5.37-10.01,8.04s-0.91,1.07,5.38-1.08s9.2,0.36,11.84-1.64c2.64-2,4.17-3.49,0.66-4.09
			C31.26,10.75,26.89,10.12,26.89,10.12z"/>
		<path class="st107" d="M36.52,7.11c0,0-4.83-7.11-16.95-2.62S8.02,14.21,8.02,14.21s13.27-6.06,18.57-3.47
			C31.51,13.13,41.34,14.59,36.52,7.11z"/>
	</g>
	<g>
		
			<radialGradient id="SVGID_2_" cx="96.9965" cy="81.2708" r="51.1903" fx="95.0592" fy="89.2798" gradientTransform="matrix(0.9167 0 0 0.2079 -38.4087 62.4063)" gradientUnits="userSpaceOnUse">
			<stop  offset="0" style="stop-color:#757575"/>
			<stop  offset="0.3088" style="stop-color:#4D4D4D"/>
			<stop  offset="0.7744" style="stop-color:#161616"/>
			<stop  offset="1" style="stop-color:#000000"/>
		</radialGradient>
		<path style="fill:url(#SVGID_2_);stroke:#31C8C5;stroke-miterlimit:10;" d="M18.58,77.99c0,5.93,14.06,13.36,31.69,13.36
			s32.16-7.44,32.16-13.36S68.14,67.25,50.5,67.25S18.58,72.06,18.58,77.99z"/>
		
			<radialGradient id="SVGID_3_" cx="101.2327" cy="56.3951" r="32.997" gradientTransform="matrix(0.1882 -0.9472 1.2494 0.2768 -35.1267 135.3767)" gradientUnits="userSpaceOnUse">
			<stop  offset="0" style="stop-color:#000000"/>
			<stop  offset="0.1509" style="stop-color:#090909"/>
			<stop  offset="0.3982" style="stop-color:#222222"/>
			<stop  offset="0.7093" style="stop-color:#4A4A4A"/>
			<stop  offset="1" style="stop-color:#757575"/>
		</radialGradient>
		<path class="st3" d="M27.74,70.5c0,0,6.3-5.3,10.42-14.69c2.67-6.09,5.4-6.95,12.65-13.28c5.84-5.1-3.45-2.5,1.22-10.64
			c3.07-5.35,8.92-6.33,17.47-6.24c5.53,0.05-4.73,10.85-3.03,14.89c1.43,3.41,5.76,6.79,5.02,12.21
			c-1.07,7.77,15.15,14.42,4.48,20.01C55.68,83.37,29.42,76.94,27.74,70.5z"/>
		<path class="st114" d="M79.61,69.73c-4.82,1.78-18.93,8.67-29.11,8.67c-11.19,0-18.39-7.26-22.77-9.34
			c-2.43,0.9-4.98,1.55-4.98,2.67c0,3.33,12.41,10.3,27.71,10.3c15.3,0,27.71-6.86,30.77-8.16C84.17,72.62,82.08,70.65,79.61,69.73z
			"/>
		<path class="st107" d="M71.95,54.37c-1.31-1.26-10.56,6.77-17.29,6.77c-7.39,0-12.85-5.38-15.74-7.45
			c-1.43-0.35-3.88,3.74-1.47,5.81c2.51,2.17,4.43,4.77,14.55,4.77c10.11,0,18.74-4.37,21.02-6.76
			C74.38,56.08,73.11,55.5,71.95,54.37z"/>
		<path class="st114" d="M66.55,38.93c-0.27-0.71-2.01,1.51-5.67,2.25c-3.45,0.69-7.51-0.9-8.88-1.72c-0.7,0.11-2.25,0.92-3.39,1.65
			c-3.42,2.18,5.25,3.55,7.68,3.57c2.61,0.02,10.66-0.55,12-2.93C68.66,41.06,66.81,39.59,66.55,38.93z"/>
		<path class="st107" d="M70.59,30.41c-0.27-2.01-1.37,0-6.51,0.93c-3.88,0.7-7.56,0-10.07-1.51c-2.42-0.22-4.03,1.51-1.77,2.69
			c1.06,0.55,6.63,1.64,8.23,1.75c2.82,0.19,7.04-0.39,9.26-1.74C70.31,32.17,70.68,31.12,70.59,30.41z"/>
	</g>
	<g>
		
			<linearGradient id="SVGID_4_" gradientUnits="userSpaceOnUse" x1="-893.3022" y1="352.5379" x2="-853.8154" y2="352.5379" gradientTransform="matrix(-1.0022 -0.3709 0.4051 -0.9287 -982.8675 56.6822)">
			<stop  offset="0" style="stop-color:#000000"/>
			<stop  offset="0.0262" style="stop-color:#090909"/>
			<stop  offset="0.1431" style="stop-color:#2A2A2A"/>
			<stop  offset="0.2689" style="stop-color:#454545"/>
			<stop  offset="0.4046" style="stop-color:#5A5A5A"/>
			<stop  offset="0.555" style="stop-color:#696969"/>
			<stop  offset="0.7319" style="stop-color:#727272"/>
			<stop  offset="1" style="stop-color:#757575"/>
		</linearGradient>
		<path class="st4" d="M47.52,71.48c3.78,1.35,6.76-9.4,7.98-12.92c2.08-6.04,3.12-8.66,1.06-11.13
			c-9.37-1.13-8.45,19.87-11.01,17.81C30.16,52.8,26.49,44.37,17.59,43.76C9.67,43.21,42.62,69.72,47.52,71.48z"/>
		<path class="st10" d="M11.47,49.97c0,0-3.22,9.88-2.32,12.63s0.01,1.4,3.37-4.33s5.7-5.33,7.52-7.78c1.98-2.66,1.24-6.56-1.8-4.73
			S11.47,49.97,11.47,49.97z"/>
		<path class="st107" d="M19.32,43.03c0,0-8.73-2.64-14.71,8.82c-5.82,11.16-2.88,12.74-2.88,12.74S8.28,53.55,14,52.15
			C19.32,50.86,27.8,45.69,19.32,43.03z"/>
	</g>
	<g>
		
			<radialGradient id="SVGID_5_" cx="107.6566" cy="74.1982" r="15.9331" gradientTransform="matrix(0.9167 -1.275292e-03 1.275292e-03 0.9167 -35.4902 -52.0398)" gradientUnits="userSpaceOnUse">
			<stop  offset="0" style="stop-color:#757575"/>
			<stop  offset="0.1493" style="stop-color:#6D6D6D"/>
			<stop  offset="0.3866" style="stop-color:#565656"/>
			<stop  offset="0.682" style="stop-color:#303030"/>
			<stop  offset="1" style="stop-color:#000000"/>
		</radialGradient>
		<path class="st5" d="M48.52,16.72c-0.01-7.43,5.24-15.3,13.41-15.31c8.16-0.01,16.13,7.41,16.14,14.84
			c0.01,7.43-8.06,15.04-17.99,13.91C51.96,29.24,48.53,24.15,48.52,16.72z"/>
		<g>
			<path class="st110" d="M56.98,0.61c2.65,1.18,4.88,3.23,6.51,5.77c1.62,2.53,2.51,5.77,2.12,8.96c-0.19,1.58-0.64,3.12-1.31,4.52
				c-0.71,1.37-1.54,2.67-2.56,3.76c-2,2.22-4.44,3.87-7.13,4.91c1.67-2.35,3.33-4.51,4.59-6.77c0.66-1.11,1.17-2.26,1.61-3.39
				c0.41-1.15,0.69-2.3,0.83-3.47c0.28-2.33-0.08-4.72-0.96-7.11C59.82,5.39,58.53,3.02,56.98,0.61z"/>
		</g>
		<g>
			<path class="st8" d="M47.86,14.15c-0.55,7.17,3.25,13.47,4.99,13.58c3.01,0.18,6.93-5.59,7.48-12.76S57.83,0.8,55.56,1.43
				C51.79,2.48,48.41,6.98,47.86,14.15z"/>
			<g>
				<path d="M52.58,23.11c-0.88-1.62-1.26-3.19-1.49-4.75c-0.21-1.55-0.23-3.09-0.08-4.6c0.15-1.52,0.47-3.02,0.99-4.5
					c0.54-1.48,1.23-2.94,2.42-4.35c0.88,1.62,1.27,3.19,1.49,4.75c0.21,1.55,0.23,3.09,0.07,4.6c-0.16,1.52-0.48,3.02-1,4.5
					C54.45,20.23,53.76,21.69,52.58,23.11z"/>
			</g>
		</g>
		<path class="st10" d="M68.37,28.9c8.3-6.45,3.53-6.89,3.53-6.89s3.82-3.48,3.86-4.4c0.05-1.22-3.52-2.2-3.52-2.2
			s4.51-2.74,3.84-4.05c-0.49-0.96-6.1-1.28-6.1-1.28S73,8.51,72.54,6.67c-0.36-1.44-6.35-1.24-7.62-1.42c0,0,2.16-1.26-0.21-2.21
			c-2.74-1.1-7.92-2.37-7.53-2.42c7.87-0.93,25.78,3.58,26.88,13.26C84.43,17.14,81.88,23.9,68.37,28.9z"/>
		<path class="st107" d="M79.93,6.95c0,0,7.28,4.94,3.03,11.14c-4.05,5.9,0.51-0.34-1.52-5.41C79.26,7.23,77.99,5.92,79.93,6.95z"/>
	</g>
</g>
</svg>
