<?xml version="1.0" encoding="utf-8"?>
<!-- Generator: Adobe Illustrator 24.0.2, SVG Export Plug-In . SVG Version: 6.00 Build 0)  -->
<svg version="1.1" xmlns="http://www.w3.org/2000/svg" xmlns:xlink="http://www.w3.org/1999/xlink" x="0px" y="0px"
	 viewBox="0 0 95 115" style="enable-background:new 0 0 95 115;" xml:space="preserve">
<style type="text/css">
	.st0{fill:url(#SVGID_1_);stroke:#000000;stroke-miterlimit:10;}
	.st1{fill:url(#SVGID_2_);stroke:#000000;stroke-miterlimit:10;}
	.st2{fill:#31C8C5;}
	.st3{fill:url(#SVGID_3_);stroke:#000000;stroke-miterlimit:10;}
	.st4{fill:url(#SVGID_4_);stroke:#000000;stroke-miterlimit:10;}
	.st5{fill:url(#SVGID_5_);stroke:#000000;stroke-miterlimit:10;}
	.st6{fill:url(#SVGID_6_);stroke:#000000;stroke-miterlimit:10;}
	.st7{fill:url(#SVGID_7_);stroke:#000000;stroke-miterlimit:10;}
	.st8{fill:#F9F912;stroke:#000000;stroke-width:2;stroke-miterlimit:10;}
	.st9{fill:url(#SVGID_8_);stroke:#000000;stroke-miterlimit:10;}
	.st10{fill:#31C8C5;stroke:#000000;stroke-miterlimit:10;}
	.st11{fill:#B60000;stroke:#000000;stroke-miterlimit:10;}
	.st12{fill:url(#SVGID_9_);stroke:#000000;stroke-miterlimit:10;}
	.st13{fill:url(#SVGID_10_);stroke:#000000;stroke-miterlimit:10;}
	.st14{fill:url(#SVGID_11_);stroke:#000000;stroke-miterlimit:10;}
	.st15{fill:url(#SVGID_12_);stroke:#000000;stroke-miterlimit:10;}
	.st16{fill:url(#SVGID_13_);stroke:#000000;stroke-miterlimit:10;}
	.st17{fill:url(#SVGID_14_);stroke:#000000;stroke-miterlimit:10;}
	.st18{fill:url(#SVGID_15_);stroke:#000000;stroke-miterlimit:10;}
	.st19{fill:url(#SVGID_16_);stroke:#000000;stroke-miterlimit:10;}
	.st20{fill:url(#SVGID_17_);stroke:#000000;stroke-miterlimit:10;}
	.st21{fill:url(#SVGID_18_);stroke:#000000;stroke-miterlimit:10;}
	.st22{fill:url(#SVGID_19_);stroke:#000000;stroke-miterlimit:10;}
	.st23{fill:url(#SVGID_20_);stroke:#000000;stroke-miterlimit:10;}
	.st24{fill:url(#SVGID_21_);stroke:#000000;stroke-miterlimit:10;}
	.st25{fill:url(#SVGID_22_);stroke:#000000;stroke-miterlimit:10;}
	.st26{fill:url(#SVGID_23_);stroke:#000000;stroke-miterlimit:10;}
	.st27{fill:url(#SVGID_24_);stroke:#000000;stroke-miterlimit:10;}
	.st28{fill:url(#SVGID_25_);stroke:#000000;stroke-miterlimit:10;}
	.st29{fill:url(#SVGID_26_);stroke:#000000;stroke-miterlimit:10;}
	.st30{fill:url(#SVGID_27_);stroke:#000000;stroke-miterlimit:10;}
	.st31{fill:url(#SVGID_28_);stroke:#000000;stroke-miterlimit:10;}
	.st32{fill:url(#SVGID_29_);stroke:#000000;stroke-miterlimit:10;}
	.st33{fill:url(#SVGID_30_);stroke:#000000;stroke-miterlimit:10;}
	.st34{fill:url(#SVGID_31_);stroke:#000000;stroke-miterlimit:10;}
	.st35{fill:url(#SVGID_32_);stroke:#000000;stroke-miterlimit:10;}
	.st36{fill:url(#SVGID_33_);stroke:#000000;stroke-miterlimit:10;}
	.st37{fill:url(#SVGID_34_);stroke:#000000;stroke-miterlimit:10;}
	.st38{fill:url(#SVGID_35_);stroke:#000000;stroke-miterlimit:10;}
	.st39{fill:url(#SVGID_36_);stroke:#000000;stroke-miterlimit:10;}
	.st40{fill:url(#SVGID_37_);stroke:#000000;stroke-miterlimit:10;}
	.st41{fill:url(#SVGID_38_);stroke:#000000;stroke-miterlimit:10;}
	.st42{fill:url(#SVGID_39_);stroke:#000000;stroke-miterlimit:10;}
	.st43{fill:url(#SVGID_40_);stroke:#000000;stroke-miterlimit:10;}
	.st44{fill:url(#SVGID_41_);stroke:#000000;stroke-miterlimit:10;}
	.st45{fill:url(#SVGID_42_);stroke:#000000;stroke-miterlimit:10;}
	.st46{fill:url(#SVGID_43_);stroke:#000000;stroke-miterlimit:10;}
	.st47{fill:url(#SVGID_44_);stroke:#000000;stroke-miterlimit:10;}
	.st48{fill:url(#SVGID_45_);stroke:#000000;stroke-miterlimit:10;}
	.st49{fill:url(#SVGID_46_);stroke:#000000;stroke-miterlimit:10;}
	.st50{fill:url(#SVGID_47_);stroke:#000000;stroke-miterlimit:10;}
	.st51{fill:url(#SVGID_48_);stroke:#000000;stroke-miterlimit:10;}
	.st52{fill:url(#SVGID_49_);stroke:#000000;stroke-miterlimit:10;}
	.st53{fill:url(#SVGID_50_);stroke:#000000;stroke-miterlimit:10;}
	.st54{fill:url(#SVGID_51_);stroke:#000000;stroke-miterlimit:10;}
	.st55{fill:url(#SVGID_52_);stroke:#000000;stroke-miterlimit:10;}
	.st56{fill:url(#SVGID_53_);stroke:#000000;stroke-miterlimit:10;}
	.st57{fill:#B60000;stroke:#000000;stroke-width:2;stroke-miterlimit:10;}
	.st58{fill:#808080;}
	.st59{fill:url(#SVGID_54_);stroke:#31C8C5;stroke-miterlimit:10;}
	.st60{fill:url(#SVGID_55_);stroke:#31C8C5;stroke-miterlimit:10;}
	.st61{fill:url(#SVGID_56_);stroke:#000000;stroke-miterlimit:10;}
	.st62{fill:url(#SVGID_57_);stroke:#000000;stroke-miterlimit:10;}
	.st63{fill:url(#SVGID_58_);stroke:#000000;stroke-miterlimit:10;}
	.st64{fill:url(#SVGID_59_);stroke:#000000;stroke-miterlimit:10;}
	.st65{fill:url(#SVGID_60_);stroke:#000000;stroke-miterlimit:10;}
	.st66{fill:url(#SVGID_61_);stroke:#000000;stroke-miterlimit:10;}
	.st67{fill:url(#SVGID_62_);stroke:#31C8C5;stroke-miterlimit:10;}
	.st68{fill:url(#SVGID_63_);stroke:#31C8C5;stroke-miterlimit:10;}
	.st69{fill:url(#SVGID_64_);stroke:#000000;stroke-miterlimit:10;}
	.st70{fill:url(#SVGID_65_);stroke:#000000;stroke-miterlimit:10;}
	.st71{fill:url(#SVGID_66_);stroke:#000000;stroke-miterlimit:10;}
	.st72{fill:url(#SVGID_67_);stroke:#000000;stroke-miterlimit:10;}
	.st73{fill:url(#SVGID_68_);stroke:#000000;stroke-miterlimit:10;}
	.st74{fill:url(#SVGID_69_);stroke:#000000;stroke-miterlimit:10;}
	.st75{fill:url(#SVGID_70_);stroke:#31C8C5;stroke-miterlimit:10;}
	.st76{fill:url(#SVGID_71_);stroke:#31C8C5;stroke-miterlimit:10;}
	.st77{fill:url(#SVGID_72_);stroke:#000000;stroke-miterlimit:10;}
	.st78{fill:url(#SVGID_73_);stroke:#000000;stroke-miterlimit:10;}
	.st79{fill:url(#SVGID_74_);stroke:#000000;stroke-miterlimit:10;}
	.st80{fill:url(#SVGID_75_);stroke:#000000;stroke-miterlimit:10;}
	.st81{fill:url(#SVGID_76_);stroke:#000000;stroke-miterlimit:10;}
	.st82{fill:url(#SVGID_77_);stroke:#000000;stroke-miterlimit:10;}
	.st83{fill:url(#SVGID_78_);stroke:#31C8C5;stroke-miterlimit:10;}
	.st84{fill:url(#SVGID_79_);stroke:#31C8C5;stroke-miterlimit:10;}
	.st85{fill:url(#SVGID_80_);stroke:#000000;stroke-miterlimit:10;}
	.st86{fill:url(#SVGID_81_);stroke:#000000;stroke-miterlimit:10;}
	.st87{fill:url(#SVGID_82_);stroke:#000000;stroke-miterlimit:10;}
	.st88{fill:url(#SVGID_83_);stroke:#000000;stroke-miterlimit:10;}
	.st89{fill:url(#SVGID_84_);stroke:#000000;stroke-miterlimit:10;}
	.st90{fill:url(#SVGID_85_);stroke:#31C8C5;stroke-miterlimit:10;}
	.st91{fill:url(#SVGID_86_);stroke:#31C8C5;stroke-miterlimit:10;}
	.st92{fill:url(#SVGID_87_);stroke:#000000;stroke-miterlimit:10;}
	.st93{fill:url(#SVGID_88_);stroke:#000000;stroke-miterlimit:10;}
	.st94{fill:url(#SVGID_89_);stroke:#000000;stroke-miterlimit:10;}
	.st95{fill:url(#SVGID_90_);stroke:#000000;stroke-miterlimit:10;}
	.st96{fill:url(#SVGID_91_);stroke:#000000;stroke-miterlimit:10;}
	.st97{fill:url(#SVGID_92_);stroke:#000000;stroke-miterlimit:10;}
	.st98{fill:url(#SVGID_93_);stroke:#000000;stroke-miterlimit:10;}
	.st99{fill:url(#SVGID_94_);stroke:#31C8C5;stroke-miterlimit:10;}
	.st100{fill:url(#SVGID_95_);stroke:#31C8C5;stroke-miterlimit:10;}
	.st101{fill:url(#SVGID_96_);stroke:#000000;stroke-miterlimit:10;}
	.st102{stroke:#31C8C5;stroke-miterlimit:10;}
	.st103{stroke:#000000;stroke-miterlimit:10;}
	.st104{fill:url(#SVGID_97_);stroke:#000000;stroke-miterlimit:10;}
	.st105{fill:url(#SVGID_98_);stroke:#808080;stroke-miterlimit:10;}
	.st106{fill:url(#SVGID_99_);stroke:#000000;stroke-miterlimit:10;}
	.st107{fill:#984C24;stroke:#000000;stroke-miterlimit:10;}
	.st108{fill:url(#SVGID_100_);stroke:#000000;stroke-miterlimit:10;}
	.st109{fill:url(#SVGID_101_);stroke:#000000;stroke-miterlimit:10;}
	.st110{fill:#984C24;}
	.st111{fill:url(#SVGID_102_);stroke:#000000;stroke-miterlimit:10;}
	.st112{fill:url(#SVGID_103_);stroke:#31C8C5;stroke-miterlimit:10;}
	.st113{fill:url(#SVGID_104_);stroke:#000000;stroke-miterlimit:10;}
	.st114{fill:#984C24;stroke:#808080;stroke-miterlimit:10;}
	.st115{fill:url(#SVGID_105_);stroke:#000000;stroke-miterlimit:10;}
	.st116{fill:url(#SVGID_106_);stroke:#000000;stroke-miterlimit:10;}
	.st117{fill:url(#SVGID_107_);stroke:#000000;stroke-miterlimit:10;}
	.st118{fill:url(#SVGID_108_);stroke:#31C8C5;stroke-miterlimit:10;}
	.st119{fill:url(#SVGID_109_);stroke:#000000;stroke-miterlimit:10;}
	.st120{fill:url(#SVGID_110_);stroke:#000000;stroke-miterlimit:10;}
	.st121{fill:url(#SVGID_111_);stroke:#000000;stroke-miterlimit:10;}
	.st122{fill:url(#SVGID_112_);stroke:#000000;stroke-miterlimit:10;}
	.st123{fill:url(#SVGID_113_);stroke:#31C8C5;stroke-miterlimit:10;}
	.st124{fill:url(#SVGID_114_);stroke:#000000;stroke-miterlimit:10;}
	.st125{fill:url(#SVGID_115_);stroke:#000000;stroke-miterlimit:10;}
	.st126{fill:url(#SVGID_116_);stroke:#000000;stroke-miterlimit:10;}
	.st127{fill:url(#SVGID_117_);stroke:#000000;stroke-miterlimit:10;}
	.st128{fill:url(#SVGID_118_);stroke:#31C8C5;stroke-miterlimit:10;}
	.st129{fill:url(#SVGID_119_);stroke:#000000;stroke-miterlimit:10;}
	.st130{fill:url(#SVGID_120_);stroke:#000000;stroke-miterlimit:10;}
	.st131{fill:url(#SVGID_121_);stroke:#000000;stroke-miterlimit:10;}
	.st132{fill:url(#SVGID_122_);stroke:#000000;stroke-miterlimit:10;}
	.st133{fill:url(#SVGID_123_);stroke:#31C8C5;stroke-miterlimit:10;}
	.st134{fill:url(#SVGID_124_);stroke:#000000;stroke-miterlimit:10;}
	.st135{fill:url(#SVGID_125_);stroke:#000000;stroke-miterlimit:10;}
	.st136{fill:url(#SVGID_126_);stroke:#000000;stroke-miterlimit:10;}
	.st137{fill:url(#SVGID_127_);stroke:#000000;stroke-miterlimit:10;}
	.st138{fill:url(#SVGID_128_);stroke:#31C8C5;stroke-miterlimit:10;}
	.st139{fill:url(#SVGID_129_);stroke:#000000;stroke-miterlimit:10;}
	.st140{fill:url(#SVGID_130_);stroke:#000000;stroke-miterlimit:10;}
	.st141{fill:url(#SVGID_131_);stroke:#000000;stroke-miterlimit:10;}
</style>
<g id="Слой_1">
</g>
<g id="Слой_8">
</g>
<g id="Слой_2">
</g>
<g id="Слой_4">
</g>
<g id="Слой_6">
</g>
<g id="Слой_7">
</g>
<g id="Слой_3">
</g>
<g id="Слой_9">
</g>
<g id="Слой_10">
</g>
<g id="Слой_12">
</g>
<g id="Слой_13">
</g>
<g id="Слой_14">
</g>
<g id="Слой_5">
</g>
<g id="Слой_11">
	<path class="st102" d="M69.86,80.35c3.56-2.93,14.03-8.81,18.25,0.99C89.68,85,94.87,97.9,95,99.81
		c-5.13,4.01-8.14-19.22-11.98-17.55C65.58,89.89,64.37,84.86,69.86,80.35z"/>
	<path class="st102" d="M35.96,87.57c-2.68-4.66-14.1-13.5-21.3-5.46C11.97,85.12,0.91,97.92,0.2,99.8
		c6.32,5.91,13.31-16.3,19.27-14.37C28.16,88.25,40.09,94.75,35.96,87.57z"/>
	<path class="st102" d="M53.71,86.23c0.96-6.01,21.45-7.4,25.6,2.71c1.55,3.78,14.51,20.2,14.5,22.33
		c-7.38,3.33-15.13-20.49-20.61-20.13C53.33,92.47,52.63,92.96,53.71,86.23z"/>
	<path class="st102" d="M36.22,86.66c-3.67-0.09-10.98-7.04-15.08,2.63c-1.53,3.62-11.68,20.41-11.91,22.16
		c6.36,3.99,15.13-22.17,17.3-21.61C42.47,93.95,51.76,87.04,36.22,86.66z"/>
	<g>
		
			<linearGradient id="SVGID_1_" gradientUnits="userSpaceOnUse" x1="-132.8947" y1="134.1791" x2="-87.1805" y2="134.1791" gradientTransform="matrix(-0.5305 -0.9276 0.9067 -0.4522 -143.4897 -10.1917)">
			<stop  offset="0" style="stop-color:#000000"/>
			<stop  offset="0.0262" style="stop-color:#090909"/>
			<stop  offset="0.1431" style="stop-color:#2A2A2A"/>
			<stop  offset="0.2689" style="stop-color:#454545"/>
			<stop  offset="0.4046" style="stop-color:#5A5A5A"/>
			<stop  offset="0.555" style="stop-color:#696969"/>
			<stop  offset="0.7319" style="stop-color:#727272"/>
			<stop  offset="1" style="stop-color:#757575"/>
		</linearGradient>
		<path class="st0" d="M34.24,51.55c0.91,3.29,11.1-0.96,14.82-0.96c6.57,0,8.85-3.34,8.85-6.55c-12.32-5.23-19.21,5.39-20.09,2.11
			C32.71,27.2,32.59,16.38,26.15,10.2C20.43,4.7,31.71,42.43,34.24,51.55z"/>
		<path class="st10" d="M15.6,13.99c0,0-4.45,9.39-3.9,12.23c0.55,2.84-0.17,1.39,3.89-3.87s7.88-4.78,8.97-7.91
			c1.09-3.13,1.55-5.21-1.71-3.78S15.6,13.99,15.6,13.99z"/>
		<path class="st107" d="M24.26,8.1c0,0-7.89-3.41-15.71,6.88s-4.52,14.4-4.52,14.4s7.95-12.24,13.8-12.9
			C23.27,15.86,32.34,11.81,24.26,8.1z"/>
	</g>
	<g>
		
			<radialGradient id="SVGID_2_" cx="58.522" cy="81.2708" r="51.1903" fx="56.5847" fy="89.2798" gradientTransform="matrix(0.9167 0 0 0.2079 -3.1404 62.4063)" gradientUnits="userSpaceOnUse">
			<stop  offset="0" style="stop-color:#757575"/>
			<stop  offset="0.3088" style="stop-color:#4D4D4D"/>
			<stop  offset="0.7744" style="stop-color:#161616"/>
			<stop  offset="1" style="stop-color:#000000"/>
		</radialGradient>
		<path style="fill:url(#SVGID_2_);stroke:#31C8C5;stroke-miterlimit:10;" d="M18.58,77.99c0,5.93,14.06,13.36,31.69,13.36
			s32.16-7.44,32.16-13.36S68.14,67.25,50.5,67.25S18.58,72.06,18.58,77.99z"/>
		
			<radialGradient id="SVGID_3_" cx="62.7035" cy="56.3951" r="33.0342" gradientTransform="matrix(0.1882 -0.9472 1.2494 0.2768 -27.9252 98.8809)" gradientUnits="userSpaceOnUse">
			<stop  offset="0" style="stop-color:#000000"/>
			<stop  offset="0.1509" style="stop-color:#090909"/>
			<stop  offset="0.3982" style="stop-color:#222222"/>
			<stop  offset="0.7093" style="stop-color:#4A4A4A"/>
			<stop  offset="1" style="stop-color:#757575"/>
		</radialGradient>
		<path class="st3" d="M27.74,70.5c0,0-1.88-10.23,10.42-14.69c6.25-2.27,5.4-6.95,12.65-13.28c5.84-5.1-3.45-2.5,1.22-10.64
			c3.07-5.35,8.92-6.33,17.47-6.24c5.53,0.05-4.73,10.85-3.03,14.89c1.43,3.41,5.76,6.79,5.02,12.21
			c-1.07,7.77,15.15,14.42,4.48,20.01C55.68,83.37,29.42,76.94,27.74,70.5z"/>
		<path class="st114" d="M79.61,69.73c-4.82,1.78-18.93,8.67-29.11,8.67c-11.19,0-18.39-7.26-22.77-9.34
			c-2.43,0.9-4.98,1.55-4.98,2.67c0,3.33,12.41,10.3,27.71,10.3c15.3,0,27.71-6.86,30.77-8.16C84.17,72.62,82.08,70.65,79.61,69.73z
			"/>
		<path class="st107" d="M71.95,54.37c-1.31-1.26-10.56,6.77-17.29,6.77c-7.39,0-11.42-5.02-14.31-7.1
			c-1.43-0.35-7.82,1.22-5.41,3.29c2.51,2.17,6.95,6.94,17.06,6.94c10.11,0,18.74-4.37,21.02-6.76
			C74.38,56.08,73.11,55.5,71.95,54.37z"/>
		<path class="st114" d="M66.55,38.93c-0.27-0.71-2.01,1.51-5.67,2.25c-3.45,0.69-7.51-0.9-8.88-1.72c-0.7,0.11-2.25,0.92-3.39,1.65
			c-3.42,2.18,5.25,3.55,7.68,3.57c2.61,0.02,10.66-0.55,12-2.93C68.66,41.06,66.81,39.59,66.55,38.93z"/>
		<path class="st107" d="M70.59,30.41c-0.27-2.01-1.37,0-6.51,0.93c-3.88,0.7-7.56,0-10.07-1.51c-2.42-0.22-4.03,1.51-1.77,2.69
			c1.06,0.55,6.63,1.64,8.23,1.75c2.82,0.19,7.04-0.39,9.26-1.74C70.31,32.17,70.68,31.12,70.59,30.41z"/>
	</g>
	<g>
		
			<linearGradient id="SVGID_4_" gradientUnits="userSpaceOnUse" x1="-167.8516" y1="97.2734" x2="-128.3648" y2="97.2734" gradientTransform="matrix(-0.8345 -0.6675 0.6769 -0.754 -157.4208 20.6617)">
			<stop  offset="0" style="stop-color:#000000"/>
			<stop  offset="0.0262" style="stop-color:#090909"/>
			<stop  offset="0.1431" style="stop-color:#2A2A2A"/>
			<stop  offset="0.2689" style="stop-color:#454545"/>
			<stop  offset="0.4046" style="stop-color:#5A5A5A"/>
			<stop  offset="0.555" style="stop-color:#696969"/>
			<stop  offset="0.7319" style="stop-color:#727272"/>
			<stop  offset="1" style="stop-color:#757575"/>
		</linearGradient>
		<path class="st4" d="M37.79,67.25c3.16,2.47,9.38-6.79,11.64-9.75c3.88-5.08,5.69-7.24,4.51-10.23
			c-8.54-4.03-14.27,16.2-16.05,13.44c-10.7-16.64-11.53-25.8-19.79-29.18C10.75,28.51,33.68,64.05,37.79,67.25z"/>
		<path class="st10" d="M10.46,38.87c0,0-2.06,10.18-0.84,12.81c1.22,2.63,0.17,1.39,2.84-4.69s5.04-5.96,6.57-8.6
			c1.66-2.87,0.48-6.66-2.34-4.49S10.46,38.87,10.46,38.87z"/>
		<path class="st107" d="M17.45,31.06c0,0-8.97-1.61-13.59,10.47c-4.49,11.76-1.39,12.98-1.39,12.98S7.71,42.8,13.23,40.74
			C18.36,38.84,26.19,32.72,17.45,31.06z"/>
	</g>
	<g>
		
			<radialGradient id="SVGID_5_" cx="71.8391" cy="24.7379" r="15.9331" gradientTransform="matrix(0.9114 -0.0982 0.0982 0.9114 -4.6104 0.6134)" gradientUnits="userSpaceOnUse">
			<stop  offset="0" style="stop-color:#757575"/>
			<stop  offset="0.1493" style="stop-color:#6D6D6D"/>
			<stop  offset="0.3866" style="stop-color:#565656"/>
			<stop  offset="0.682" style="stop-color:#303030"/>
			<stop  offset="1" style="stop-color:#000000"/>
		</radialGradient>
		<path class="st5" d="M48.69,18.54c-0.8-7.39,3.6-15.77,11.71-16.64s16.83,5.66,17.62,13.05c0.8,7.39-6.42,15.81-16.42,15.74
			C53.45,30.62,49.49,25.93,48.69,18.54z"/>
		<g>
			<path class="st110" d="M55.41,1.63c2.76,0.89,5.19,2.7,7.08,5.05c1.88,2.35,3.11,5.48,3.06,8.68c-0.02,1.59-0.31,3.17-0.83,4.63
				c-0.56,1.44-1.25,2.82-2.15,4.01c-1.75,2.42-4,4.31-6.57,5.63c1.41-2.51,2.83-4.83,3.85-7.21c0.54-1.18,0.92-2.37,1.24-3.54
				c0.29-1.18,0.45-2.36,0.46-3.53c0.03-2.34-0.58-4.68-1.7-6.97C58.73,6.08,57.21,3.87,55.41,1.63z"/>
		</g>
		<g>
			<path class="st8" d="M47.77,16.06c0.21,7.19,4.65,13.06,6.4,12.98c3.01-0.14,6.3-6.29,6.08-13.48
				c-0.21-7.19-3.99-13.83-6.17-12.97C50.44,4.04,47.56,8.87,47.77,16.06z"/>
			<g>
				<path d="M53.43,24.9c-1.05-1.51-1.59-3.02-1.99-4.54c-0.38-1.51-0.56-3.03-0.57-4.55c-0.01-1.52,0.15-3.03,0.5-4.55
					c0.37-1.52,0.9-3.04,1.93-4.56c1.05,1.51,1.6,3.02,2,4.54c0.38,1.51,0.56,3.03,0.57,4.55c0.01,1.52-0.15,3.03-0.51,4.55
					C54.98,21.86,54.46,23.38,53.43,24.9z"/>
			</g>
		</g>
		<path class="st10" d="M69.72,28.56c7.57-7.29,2.78-7.22,2.78-7.22s3.44-3.86,3.38-4.78c-0.08-1.22-3.73-1.81-3.73-1.81
			s4.2-3.2,3.39-4.43c-0.59-0.9-6.2-0.63-6.2-0.63s2.83-1.9,2.18-3.68C71,4.62,65.07,5.45,63.79,5.4c0,0,2.02-1.48-0.45-2.17
			c-2.84-0.8-8.13-1.52-7.74-1.61c7.72-1.75,26.01,0.84,28.13,10.35C84.45,15.16,82.64,22.16,69.72,28.56z"/>
		<path class="st107" d="M79.93,6.39c0,0,7.28,4.94,3.03,11.14c-4.05,5.9,0.51-0.34-1.52-5.41C79.26,6.68,77.99,5.37,79.93,6.39z"/>
	</g>
</g>
<g id="Слой_15">
</g>
<g id="Слой_16">
</g>
<g id="Слой_17">
</g>
<g id="Слой_18">
</g>
</svg>
