<?xml version="1.0" encoding="utf-8"?>
<!-- Generator: Adobe Illustrator 24.0.2, SVG Export Plug-In . SVG Version: 6.00 Build 0)  -->
<svg version="1.1" xmlns="http://www.w3.org/2000/svg" xmlns:xlink="http://www.w3.org/1999/xlink" x="0px" y="0px"
	 viewBox="0 0 95 115" style="enable-background:new 0 0 95 115;" xml:space="preserve">
<style type="text/css">
	.st0{fill:url(#SVGID_1_);stroke:#000000;stroke-miterlimit:10;}
	.st1{fill:url(#SVGID_2_);stroke:#000000;stroke-miterlimit:10;}
	.st2{fill:#31C8C5;}
	.st3{fill:url(#SVGID_3_);stroke:#000000;stroke-miterlimit:10;}
	.st4{fill:url(#SVGID_4_);stroke:#000000;stroke-miterlimit:10;}
	.st5{fill:url(#SVGID_5_);stroke:#000000;stroke-miterlimit:10;}
	.st6{fill:url(#SVGID_6_);stroke:#000000;stroke-miterlimit:10;}
	.st7{fill:url(#SVGID_7_);stroke:#000000;stroke-miterlimit:10;}
	.st8{fill:#F9F912;stroke:#000000;stroke-width:2;stroke-miterlimit:10;}
	.st9{fill:url(#SVGID_8_);stroke:#000000;stroke-miterlimit:10;}
	.st10{fill:#31C8C5;stroke:#000000;stroke-miterlimit:10;}
	.st11{fill:#B60000;stroke:#000000;stroke-miterlimit:10;}
	.st12{fill:url(#SVGID_9_);stroke:#000000;stroke-miterlimit:10;}
	.st13{fill:url(#SVGID_10_);stroke:#000000;stroke-miterlimit:10;}
	.st14{fill:url(#SVGID_11_);stroke:#000000;stroke-miterlimit:10;}
	.st15{fill:url(#SVGID_12_);stroke:#000000;stroke-miterlimit:10;}
	.st16{fill:url(#SVGID_13_);stroke:#000000;stroke-miterlimit:10;}
	.st17{fill:url(#SVGID_14_);stroke:#000000;stroke-miterlimit:10;}
	.st18{fill:url(#SVGID_15_);stroke:#000000;stroke-miterlimit:10;}
	.st19{fill:url(#SVGID_16_);stroke:#000000;stroke-miterlimit:10;}
	.st20{fill:url(#SVGID_17_);stroke:#000000;stroke-miterlimit:10;}
	.st21{fill:url(#SVGID_18_);stroke:#000000;stroke-miterlimit:10;}
	.st22{fill:url(#SVGID_19_);stroke:#000000;stroke-miterlimit:10;}
	.st23{fill:url(#SVGID_20_);stroke:#000000;stroke-miterlimit:10;}
	.st24{fill:url(#SVGID_21_);stroke:#000000;stroke-miterlimit:10;}
	.st25{fill:url(#SVGID_22_);stroke:#000000;stroke-miterlimit:10;}
	.st26{fill:url(#SVGID_23_);stroke:#000000;stroke-miterlimit:10;}
	.st27{fill:url(#SVGID_24_);stroke:#000000;stroke-miterlimit:10;}
	.st28{fill:url(#SVGID_25_);stroke:#000000;stroke-miterlimit:10;}
	.st29{fill:url(#SVGID_26_);stroke:#000000;stroke-miterlimit:10;}
	.st30{fill:url(#SVGID_27_);stroke:#000000;stroke-miterlimit:10;}
	.st31{fill:url(#SVGID_28_);stroke:#000000;stroke-miterlimit:10;}
	.st32{fill:url(#SVGID_29_);stroke:#000000;stroke-miterlimit:10;}
	.st33{fill:url(#SVGID_30_);stroke:#000000;stroke-miterlimit:10;}
	.st34{fill:url(#SVGID_31_);stroke:#000000;stroke-miterlimit:10;}
	.st35{fill:url(#SVGID_32_);stroke:#000000;stroke-miterlimit:10;}
	.st36{fill:url(#SVGID_33_);stroke:#000000;stroke-miterlimit:10;}
	.st37{fill:url(#SVGID_34_);stroke:#000000;stroke-miterlimit:10;}
	.st38{fill:url(#SVGID_35_);stroke:#000000;stroke-miterlimit:10;}
	.st39{fill:url(#SVGID_36_);stroke:#000000;stroke-miterlimit:10;}
	.st40{fill:url(#SVGID_37_);stroke:#000000;stroke-miterlimit:10;}
	.st41{fill:url(#SVGID_38_);stroke:#000000;stroke-miterlimit:10;}
	.st42{fill:url(#SVGID_39_);stroke:#000000;stroke-miterlimit:10;}
	.st43{fill:url(#SVGID_40_);stroke:#000000;stroke-miterlimit:10;}
	.st44{fill:url(#SVGID_41_);stroke:#000000;stroke-miterlimit:10;}
	.st45{fill:url(#SVGID_42_);stroke:#000000;stroke-miterlimit:10;}
	.st46{fill:url(#SVGID_43_);stroke:#000000;stroke-miterlimit:10;}
	.st47{fill:url(#SVGID_44_);stroke:#000000;stroke-miterlimit:10;}
	.st48{fill:url(#SVGID_45_);stroke:#000000;stroke-miterlimit:10;}
	.st49{fill:url(#SVGID_46_);stroke:#000000;stroke-miterlimit:10;}
	.st50{fill:url(#SVGID_47_);stroke:#000000;stroke-miterlimit:10;}
	.st51{fill:url(#SVGID_48_);stroke:#000000;stroke-miterlimit:10;}
	.st52{fill:url(#SVGID_49_);stroke:#000000;stroke-miterlimit:10;}
	.st53{fill:url(#SVGID_50_);stroke:#000000;stroke-miterlimit:10;}
	.st54{fill:url(#SVGID_51_);stroke:#000000;stroke-miterlimit:10;}
	.st55{fill:url(#SVGID_52_);stroke:#000000;stroke-miterlimit:10;}
	.st56{fill:url(#SVGID_53_);stroke:#000000;stroke-miterlimit:10;}
	.st57{fill:#B60000;stroke:#000000;stroke-width:2;stroke-miterlimit:10;}
	.st58{fill:#808080;}
	.st59{fill:url(#SVGID_54_);stroke:#31C8C5;stroke-miterlimit:10;}
	.st60{fill:url(#SVGID_55_);stroke:#31C8C5;stroke-miterlimit:10;}
	.st61{fill:url(#SVGID_56_);stroke:#000000;stroke-miterlimit:10;}
	.st62{fill:url(#SVGID_57_);stroke:#000000;stroke-miterlimit:10;}
	.st63{fill:url(#SVGID_58_);stroke:#000000;stroke-miterlimit:10;}
	.st64{fill:url(#SVGID_59_);stroke:#000000;stroke-miterlimit:10;}
	.st65{fill:url(#SVGID_60_);stroke:#000000;stroke-miterlimit:10;}
	.st66{fill:url(#SVGID_61_);stroke:#000000;stroke-miterlimit:10;}
	.st67{fill:url(#SVGID_62_);stroke:#31C8C5;stroke-miterlimit:10;}
	.st68{fill:url(#SVGID_63_);stroke:#31C8C5;stroke-miterlimit:10;}
	.st69{fill:url(#SVGID_64_);stroke:#000000;stroke-miterlimit:10;}
	.st70{fill:url(#SVGID_65_);stroke:#000000;stroke-miterlimit:10;}
	.st71{fill:url(#SVGID_66_);stroke:#000000;stroke-miterlimit:10;}
	.st72{fill:url(#SVGID_67_);stroke:#000000;stroke-miterlimit:10;}
	.st73{fill:url(#SVGID_68_);stroke:#000000;stroke-miterlimit:10;}
	.st74{fill:url(#SVGID_69_);stroke:#000000;stroke-miterlimit:10;}
	.st75{fill:url(#SVGID_70_);stroke:#31C8C5;stroke-miterlimit:10;}
	.st76{fill:url(#SVGID_71_);stroke:#31C8C5;stroke-miterlimit:10;}
	.st77{fill:url(#SVGID_72_);stroke:#000000;stroke-miterlimit:10;}
	.st78{fill:url(#SVGID_73_);stroke:#000000;stroke-miterlimit:10;}
	.st79{fill:url(#SVGID_74_);stroke:#000000;stroke-miterlimit:10;}
	.st80{fill:url(#SVGID_75_);stroke:#000000;stroke-miterlimit:10;}
	.st81{fill:url(#SVGID_76_);stroke:#000000;stroke-miterlimit:10;}
	.st82{fill:url(#SVGID_77_);stroke:#000000;stroke-miterlimit:10;}
	.st83{fill:url(#SVGID_78_);stroke:#31C8C5;stroke-miterlimit:10;}
	.st84{fill:url(#SVGID_79_);stroke:#31C8C5;stroke-miterlimit:10;}
	.st85{fill:url(#SVGID_80_);stroke:#000000;stroke-miterlimit:10;}
	.st86{fill:url(#SVGID_81_);stroke:#000000;stroke-miterlimit:10;}
	.st87{fill:url(#SVGID_82_);stroke:#000000;stroke-miterlimit:10;}
	.st88{fill:url(#SVGID_83_);stroke:#000000;stroke-miterlimit:10;}
	.st89{fill:url(#SVGID_84_);stroke:#000000;stroke-miterlimit:10;}
	.st90{fill:url(#SVGID_85_);stroke:#31C8C5;stroke-miterlimit:10;}
	.st91{fill:url(#SVGID_86_);stroke:#31C8C5;stroke-miterlimit:10;}
	.st92{fill:url(#SVGID_87_);stroke:#000000;stroke-miterlimit:10;}
	.st93{fill:url(#SVGID_88_);stroke:#000000;stroke-miterlimit:10;}
	.st94{fill:url(#SVGID_89_);stroke:#000000;stroke-miterlimit:10;}
	.st95{fill:url(#SVGID_90_);stroke:#000000;stroke-miterlimit:10;}
	.st96{fill:url(#SVGID_91_);stroke:#000000;stroke-miterlimit:10;}
	.st97{fill:url(#SVGID_92_);stroke:#000000;stroke-miterlimit:10;}
	.st98{fill:url(#SVGID_93_);stroke:#000000;stroke-miterlimit:10;}
	.st99{fill:url(#SVGID_94_);stroke:#31C8C5;stroke-miterlimit:10;}
	.st100{fill:url(#SVGID_95_);stroke:#31C8C5;stroke-miterlimit:10;}
	.st101{fill:url(#SVGID_96_);stroke:#000000;stroke-miterlimit:10;}
	.st102{stroke:#31C8C5;stroke-miterlimit:10;}
	.st103{stroke:#000000;stroke-miterlimit:10;}
	.st104{fill:url(#SVGID_97_);stroke:#000000;stroke-miterlimit:10;}
	.st105{fill:url(#SVGID_98_);stroke:#808080;stroke-miterlimit:10;}
	.st106{fill:url(#SVGID_99_);stroke:#000000;stroke-miterlimit:10;}
	.st107{fill:#984C24;stroke:#000000;stroke-miterlimit:10;}
	.st108{fill:url(#SVGID_100_);stroke:#000000;stroke-miterlimit:10;}
	.st109{fill:url(#SVGID_101_);stroke:#000000;stroke-miterlimit:10;}
	.st110{fill:#984C24;}
	.st111{fill:url(#SVGID_102_);stroke:#000000;stroke-miterlimit:10;}
	.st112{fill:url(#SVGID_103_);stroke:#31C8C5;stroke-miterlimit:10;}
	.st113{fill:url(#SVGID_104_);stroke:#000000;stroke-miterlimit:10;}
	.st114{fill:#984C24;stroke:#808080;stroke-miterlimit:10;}
	.st115{fill:url(#SVGID_105_);stroke:#000000;stroke-miterlimit:10;}
	.st116{fill:url(#SVGID_106_);stroke:#000000;stroke-miterlimit:10;}
	.st117{fill:url(#SVGID_107_);stroke:#000000;stroke-miterlimit:10;}
	.st118{fill:url(#SVGID_108_);stroke:#31C8C5;stroke-miterlimit:10;}
	.st119{fill:url(#SVGID_109_);stroke:#000000;stroke-miterlimit:10;}
	.st120{fill:url(#SVGID_110_);stroke:#000000;stroke-miterlimit:10;}
	.st121{fill:url(#SVGID_111_);stroke:#000000;stroke-miterlimit:10;}
	.st122{fill:url(#SVGID_112_);stroke:#000000;stroke-miterlimit:10;}
	.st123{fill:url(#SVGID_113_);stroke:#31C8C5;stroke-miterlimit:10;}
	.st124{fill:url(#SVGID_114_);stroke:#000000;stroke-miterlimit:10;}
	.st125{fill:url(#SVGID_115_);stroke:#000000;stroke-miterlimit:10;}
	.st126{fill:url(#SVGID_116_);stroke:#000000;stroke-miterlimit:10;}
	.st127{fill:url(#SVGID_117_);stroke:#000000;stroke-miterlimit:10;}
	.st128{fill:url(#SVGID_118_);stroke:#31C8C5;stroke-miterlimit:10;}
	.st129{fill:url(#SVGID_119_);stroke:#000000;stroke-miterlimit:10;}
	.st130{fill:url(#SVGID_120_);stroke:#000000;stroke-miterlimit:10;}
	.st131{fill:url(#SVGID_121_);stroke:#000000;stroke-miterlimit:10;}
	.st132{fill:url(#SVGID_122_);stroke:#000000;stroke-miterlimit:10;}
	.st133{fill:url(#SVGID_123_);stroke:#31C8C5;stroke-miterlimit:10;}
	.st134{fill:url(#SVGID_124_);stroke:#000000;stroke-miterlimit:10;}
	.st135{fill:url(#SVGID_125_);stroke:#000000;stroke-miterlimit:10;}
	.st136{fill:url(#SVGID_126_);stroke:#000000;stroke-miterlimit:10;}
	.st137{fill:url(#SVGID_127_);stroke:#000000;stroke-miterlimit:10;}
	.st138{fill:url(#SVGID_128_);stroke:#31C8C5;stroke-miterlimit:10;}
	.st139{fill:url(#SVGID_129_);stroke:#000000;stroke-miterlimit:10;}
	.st140{fill:url(#SVGID_130_);stroke:#000000;stroke-miterlimit:10;}
	.st141{fill:url(#SVGID_131_);stroke:#000000;stroke-miterlimit:10;}
</style>
<g id="Слой_1">
</g>
<g id="Слой_8">
</g>
<g id="Слой_2">
</g>
<g id="Слой_4">
</g>
<g id="Слой_6">
</g>
<g id="Слой_7">
</g>
<g id="Слой_3">
</g>
<g id="Слой_9">
</g>
<g id="Слой_10">
</g>
<g id="Слой_12">
</g>
<g id="Слой_13">
</g>
<g id="Слой_14">
</g>
<g id="Слой_5">
</g>
<g id="Слой_11">
</g>
<g id="Слой_15">
</g>
<g id="Слой_16">
</g>
<g id="Слой_17">
	<path class="st102" d="M77.54,73.93c4.57,0.62,17.34,3.03,13.04,12.79c-1.61,3.65-4.7,17.57-6.01,18.96
		c-6.43-1.03,5.71-20.39,1.87-22.06C68.99,76.06,70.5,72.98,77.54,73.93z"/>
	<path class="st102" d="M27.37,77.79C22.05,77,5.85,73.58,7.68,84.22c0.69,3.98,3.85,20.59,4.89,22.32
		c8.56-1.28-5.52-24.75,0.7-24.03C21.35,83.44,35.56,79.01,27.37,77.79z"/>
	<path class="st102" d="M66.41,76.13c6.03,0.83,22.13,4.69,17.05,13.86c-1.9,3.43-6.15,22.94-7.79,24.21
		c-7.28-3.45,7.59-26.44,2.18-27.4C50.43,81.9,57.12,74.85,66.41,76.13z"/>
	<path class="st102" d="M26.82,77.99c-2.8,2.37-12.88,2.05-9.51,12c1.26,3.72,4.86,23.01,5.86,24.47c7.4-1.25-5.06-27.26-2.82-27.31
		C35.72,86.77,38.67,67.94,26.82,77.99z"/>
	<g>
		
			<linearGradient id="SVGID_1_" gradientUnits="userSpaceOnUse" x1="-583.2484" y1="410.7251" x2="-537.5342" y2="410.7251" gradientTransform="matrix(-0.4243 -0.9808 0.9513 -0.3488 -589.9398 -377.2321)">
			<stop  offset="0" style="stop-color:#000000"/>
			<stop  offset="0.0262" style="stop-color:#090909"/>
			<stop  offset="0.1431" style="stop-color:#2A2A2A"/>
			<stop  offset="0.2689" style="stop-color:#454545"/>
			<stop  offset="0.4046" style="stop-color:#5A5A5A"/>
			<stop  offset="0.555" style="stop-color:#696969"/>
			<stop  offset="0.7319" style="stop-color:#727272"/>
			<stop  offset="1" style="stop-color:#757575"/>
		</linearGradient>
		<path class="st0" d="M34.01,49.07c0.54,3.37,11.13,0.27,14.84,0.69c6.53,0.73,9.16-2.33,9.52-5.53
			c-11.66-6.56-19.69,3.23-20.2-0.13c-2.97-19.4-1.89-30.17-7.6-37.03C25.49,0.97,32.51,39.73,34.01,49.07z"/>
		<path class="st10" d="M23.1,7.06c0,0-9.81,3.44-11.44,5.82s-1.11,0.86,5.48,0.05c6.59-0.81,8.93,2.24,11.93,0.82
			s4.79-2.56,1.48-3.87S23.1,7.06,23.1,7.06z"/>
		<path class="st107" d="M33.38,9.08c0,0-3.12-8.01-15.94-6.33S4.02,9.66,4.02,9.66S18.31,6.7,22.9,10.4
			C27.16,13.83,36.42,17.43,33.38,9.08z"/>
	</g>
	<g>
		
			<radialGradient id="SVGID_2_" cx="87.4976" cy="81.2708" r="51.1903" fx="85.5603" fy="89.2798" gradientTransform="matrix(0.9167 0 0 0.2079 -29.7014 62.4063)" gradientUnits="userSpaceOnUse">
			<stop  offset="0" style="stop-color:#757575"/>
			<stop  offset="0.3088" style="stop-color:#4D4D4D"/>
			<stop  offset="0.7744" style="stop-color:#161616"/>
			<stop  offset="1" style="stop-color:#000000"/>
		</radialGradient>
		<path style="fill:url(#SVGID_2_);stroke:#31C8C5;stroke-miterlimit:10;" d="M18.58,77.99c0,5.93,14.06,13.36,31.69,13.36
			s32.16-7.44,32.16-13.36S68.14,67.25,50.5,67.25S18.58,72.06,18.58,77.99z"/>
		
			<radialGradient id="SVGID_3_" cx="91.7338" cy="56.3951" r="32.997" gradientTransform="matrix(0.1882 -0.9472 1.2494 0.2768 -33.3389 126.3791)" gradientUnits="userSpaceOnUse">
			<stop  offset="0" style="stop-color:#000000"/>
			<stop  offset="0.1509" style="stop-color:#090909"/>
			<stop  offset="0.3982" style="stop-color:#222222"/>
			<stop  offset="0.7093" style="stop-color:#4A4A4A"/>
			<stop  offset="1" style="stop-color:#757575"/>
		</radialGradient>
		<path class="st3" d="M27.74,70.5c0,0,2.09-3.94,10.42-14.69c4.07-5.26,5.4-6.95,12.65-13.28c5.84-5.1-3.45-2.5,1.22-10.64
			c3.07-5.35,8.92-6.33,17.47-6.24c5.53,0.05-4.73,10.85-3.03,14.89c1.43,3.41,5.76,6.79,5.02,12.21
			c-1.07,7.77,15.15,14.42,4.48,20.01C55.68,83.37,29.42,76.94,27.74,70.5z"/>
		<path class="st114" d="M79.61,69.73c-9.89-0.31-18.93,8.67-29.11,8.67c-11.19,0-18.39-7.26-22.77-9.34
			c-2.43,0.9-4.98,1.55-4.98,2.67c0,3.33,12.41,10.3,27.71,10.3c15.3,0,27.71-6.86,30.77-8.16C84.17,72.62,82.08,70.65,79.61,69.73z
			"/>
		<path class="st107" d="M71.27,54.2c-1.31-1.26-10.56,6.77-17.29,6.77c-7.39,0-11.42-5.02-14.31-7.1
			c-1.43-0.35-6.32,4.39-3.92,6.46c2.51,2.17,5.45,3.77,15.56,3.77c17.73,0,18.74-4.37,21.02-6.76C73.7,55.9,72.43,55.32,71.27,54.2
			z"/>
		<path class="st114" d="M66.55,38.93c-0.27-0.71-2.01,1.51-5.67,2.25c-3.45,0.69-7.51-0.9-8.88-1.72c-0.7,0.11-2.25,0.92-3.39,1.65
			c-3.42,2.18,5.29,3.1,7.68,3.57c7.08,1.39,10.66-0.55,12-2.93C68.66,41.06,66.81,39.59,66.55,38.93z"/>
		<path class="st107" d="M70.59,30.41c-0.27-2.01-1.37,0-6.51,0.93c-3.88,0.7-7.56,0-10.07-1.51c-2.42-0.22-4.03,1.51-1.77,2.69
			c1.06,0.55,6.63,1.64,8.23,1.75c2.82,0.19,7.04-0.39,9.26-1.74C70.31,32.17,70.68,31.12,70.59,30.41z"/>
	</g>
	<g>
		
			<linearGradient id="SVGID_4_" gradientUnits="userSpaceOnUse" x1="-709.8163" y1="295.4595" x2="-670.3295" y2="295.4595" gradientTransform="matrix(-0.8204 -0.6847 0.6924 -0.7398 -736.6547 -208.0881)">
			<stop  offset="0" style="stop-color:#000000"/>
			<stop  offset="0.0262" style="stop-color:#090909"/>
			<stop  offset="0.1431" style="stop-color:#2A2A2A"/>
			<stop  offset="0.2689" style="stop-color:#454545"/>
			<stop  offset="0.4046" style="stop-color:#5A5A5A"/>
			<stop  offset="0.555" style="stop-color:#696969"/>
			<stop  offset="0.7319" style="stop-color:#727272"/>
			<stop  offset="1" style="stop-color:#757575"/>
		</linearGradient>
		<path class="st4" d="M39.4,67.04c3.11,2.54,9.52-6.59,11.84-9.51c3.98-5,5.84-7.12,4.72-10.13c-8.46-4.2-14.61,15.9-16.33,13.1
			C29.28,43.64,28.65,34.47,20.46,30.91C13.18,27.75,35.36,63.75,39.4,67.04z"/>
		<path class="st10" d="M13.75,39.6c0,0,1.33,10.31,3.33,12.4c2,2.09,0.61,1.26,1.18-5.36s2.86-7.27,3.45-10.26
			c0.65-3.25-1.7-6.46-3.66-3.5S13.75,39.6,13.75,39.6z"/>
		<path class="st107" d="M17.85,29.96c0,0-9.01,1.37-9.49,14.29c-0.46,12.58,2.87,12.74,2.87,12.74s1.18-12.78,5.75-16.5
			C21.22,37.03,26.66,28.71,17.85,29.96z"/>
	</g>
	<g>
		
			<radialGradient id="SVGID_5_" cx="98.8137" cy="61.9871" r="15.9331" gradientTransform="matrix(0.9162 -0.0285 0.0285 0.9162 -29.0196 -38.063)" gradientUnits="userSpaceOnUse">
			<stop  offset="0" style="stop-color:#757575"/>
			<stop  offset="0.1493" style="stop-color:#6D6D6D"/>
			<stop  offset="0.3866" style="stop-color:#565656"/>
			<stop  offset="0.682" style="stop-color:#303030"/>
			<stop  offset="1" style="stop-color:#000000"/>
		</radialGradient>
		<path class="st5" d="M48.54,17.23C48.31,9.8,53.33,1.78,61.49,1.53s16.35,6.93,16.58,14.36S70.46,31.16,60.5,30.32
			C52.36,29.64,48.77,24.66,48.54,17.23z"/>
		<g>
			<path class="st110" d="M56.53,0.88c2.69,1.1,4.97,3.08,6.68,5.57c1.7,2.48,2.68,5.7,2.39,8.89c-0.14,1.59-0.55,3.14-1.18,4.55
				c-0.67,1.39-1.46,2.71-2.45,3.83c-1.93,2.28-4.32,4-6.98,5.12c1.6-2.4,3.19-4.6,4.39-6.9c0.63-1.13,1.1-2.29,1.51-3.44
				c0.38-1.16,0.62-2.32,0.72-3.49c0.21-2.33-0.22-4.71-1.17-7.08C59.5,5.57,58.15,3.25,56.53,0.88z"/>
		</g>
		<g>
			<path class="st8" d="M47.81,14.69c-0.34,7.18,3.64,13.37,5.39,13.43c3.02,0.09,6.76-5.79,7.09-12.98s-2.92-14.1-5.17-13.4
				C51.39,2.9,48.15,7.5,47.81,14.69z"/>
			<g>
				<path d="M52.83,23.03c-0.92-1.59-1.35-3.15-1.63-4.69c-0.26-1.54-0.32-3.07-0.21-4.59c0.1-1.52,0.38-3.02,0.86-4.51
					c0.49-1.49,1.14-2.97,2.29-4.41c0.93,1.59,1.36,3.15,1.64,4.69c0.26,1.54,0.32,3.07,0.21,4.59c-0.11,1.52-0.39,3.02-0.86,4.51
					C54.61,20.11,53.97,21.59,52.83,23.03z"/>
			</g>
		</g>
		<path class="st10" d="M68.75,28.82c8.11-6.7,3.32-6.99,3.32-6.99s3.72-3.59,3.73-4.51c0.02-1.22-3.59-2.09-3.59-2.09
			s4.43-2.87,3.72-4.16c-0.52-0.95-6.14-1.1-6.14-1.1s2.97-1.68,2.45-3.5c-0.4-1.43-6.39-1.05-7.66-1.19c0,0,2.12-1.32-0.28-2.2
			c-2.77-1.01-7.99-2.13-7.6-2.19c7.84-1.16,25.87,2.81,27.26,12.46C84.45,16.58,82.11,23.42,68.75,28.82z"/>
		<path class="st107" d="M79.61,6.43c0,0,7.32,6,3.06,12.21c-4.05,5.9,0.79-1.43-1.24-6.51C79.26,6.68,77.67,5.4,79.61,6.43z"/>
	</g>
</g>
<g id="Слой_18">
</g>
</svg>
