<?xml version="1.0" encoding="utf-8"?>
<!-- Generator: Adobe Illustrator 24.0.2, SVG Export Plug-In . SVG Version: 6.00 Build 0)  -->
<svg version="1.1" xmlns="http://www.w3.org/2000/svg" xmlns:xlink="http://www.w3.org/1999/xlink" x="0px" y="0px"
	 viewBox="0 0 95 130" style="enable-background:new 0 0 95 130;" xml:space="preserve">
<style type="text/css">
	.st0{fill:url(#SVGID_1_);stroke:#000000;stroke-miterlimit:10;}
	.st1{fill:url(#SVGID_2_);stroke:#000000;stroke-miterlimit:10;}
	.st2{fill:#31C8C5;}
	.st3{fill:url(#SVGID_3_);stroke:#000000;stroke-miterlimit:10;}
	.st4{fill:url(#SVGID_4_);stroke:#000000;stroke-miterlimit:10;}
	.st5{fill:url(#SVGID_5_);stroke:#000000;stroke-miterlimit:10;}
	.st6{fill:url(#SVGID_6_);stroke:#000000;stroke-miterlimit:10;}
	.st7{fill:url(#SVGID_7_);stroke:#000000;stroke-miterlimit:10;}
	.st8{fill:#F9F912;stroke:#000000;stroke-width:2;stroke-miterlimit:10;}
	.st9{fill:url(#SVGID_8_);stroke:#000000;stroke-miterlimit:10;}
	.st10{fill:#31C8C5;stroke:#000000;stroke-miterlimit:10;}
	.st11{fill:#B60000;stroke:#000000;stroke-miterlimit:10;}
	.st12{fill:url(#SVGID_9_);stroke:#000000;stroke-miterlimit:10;}
	.st13{fill:url(#SVGID_10_);stroke:#000000;stroke-miterlimit:10;}
	.st14{fill:url(#SVGID_11_);stroke:#000000;stroke-miterlimit:10;}
	.st15{fill:url(#SVGID_12_);stroke:#000000;stroke-miterlimit:10;}
	.st16{fill:url(#SVGID_13_);stroke:#000000;stroke-miterlimit:10;}
	.st17{fill:url(#SVGID_14_);stroke:#000000;stroke-miterlimit:10;}
	.st18{fill:url(#SVGID_15_);stroke:#000000;stroke-miterlimit:10;}
	.st19{fill:url(#SVGID_16_);stroke:#000000;stroke-miterlimit:10;}
	.st20{fill:url(#SVGID_17_);stroke:#000000;stroke-miterlimit:10;}
	.st21{fill:url(#SVGID_18_);stroke:#000000;stroke-miterlimit:10;}
	.st22{fill:url(#SVGID_19_);stroke:#000000;stroke-miterlimit:10;}
	.st23{fill:url(#SVGID_20_);stroke:#000000;stroke-miterlimit:10;}
	.st24{fill:url(#SVGID_21_);stroke:#000000;stroke-miterlimit:10;}
	.st25{fill:url(#SVGID_22_);stroke:#000000;stroke-miterlimit:10;}
	.st26{fill:url(#SVGID_23_);stroke:#000000;stroke-miterlimit:10;}
	.st27{fill:url(#SVGID_24_);stroke:#000000;stroke-miterlimit:10;}
	.st28{fill:url(#SVGID_25_);stroke:#000000;stroke-miterlimit:10;}
	.st29{fill:url(#SVGID_26_);stroke:#000000;stroke-miterlimit:10;}
	.st30{fill:url(#SVGID_27_);stroke:#000000;stroke-miterlimit:10;}
	.st31{fill:url(#SVGID_28_);stroke:#000000;stroke-miterlimit:10;}
	.st32{fill:url(#SVGID_29_);stroke:#000000;stroke-miterlimit:10;}
	.st33{fill:url(#SVGID_30_);stroke:#000000;stroke-miterlimit:10;}
	.st34{fill:url(#SVGID_31_);stroke:#000000;stroke-miterlimit:10;}
	.st35{fill:url(#SVGID_32_);stroke:#000000;stroke-miterlimit:10;}
	.st36{fill:url(#SVGID_33_);stroke:#000000;stroke-miterlimit:10;}
	.st37{fill:url(#SVGID_34_);stroke:#000000;stroke-miterlimit:10;}
	.st38{fill:url(#SVGID_35_);stroke:#000000;stroke-miterlimit:10;}
	.st39{fill:url(#SVGID_36_);stroke:#000000;stroke-miterlimit:10;}
	.st40{fill:url(#SVGID_37_);stroke:#000000;stroke-miterlimit:10;}
	.st41{fill:url(#SVGID_38_);stroke:#000000;stroke-miterlimit:10;}
	.st42{fill:url(#SVGID_39_);stroke:#000000;stroke-miterlimit:10;}
	.st43{fill:url(#SVGID_40_);stroke:#000000;stroke-miterlimit:10;}
	.st44{fill:url(#SVGID_41_);stroke:#000000;stroke-miterlimit:10;}
	.st45{fill:url(#SVGID_42_);stroke:#000000;stroke-miterlimit:10;}
	.st46{fill:url(#SVGID_43_);stroke:#000000;stroke-miterlimit:10;}
	.st47{fill:url(#SVGID_44_);stroke:#000000;stroke-miterlimit:10;}
	.st48{fill:url(#SVGID_45_);stroke:#000000;stroke-miterlimit:10;}
	.st49{fill:url(#SVGID_46_);stroke:#000000;stroke-miterlimit:10;}
	.st50{fill:url(#SVGID_47_);stroke:#000000;stroke-miterlimit:10;}
	.st51{fill:url(#SVGID_48_);stroke:#000000;stroke-miterlimit:10;}
	.st52{fill:url(#SVGID_49_);stroke:#000000;stroke-miterlimit:10;}
	.st53{fill:url(#SVGID_50_);stroke:#000000;stroke-miterlimit:10;}
	.st54{fill:url(#SVGID_51_);stroke:#000000;stroke-miterlimit:10;}
	.st55{fill:url(#SVGID_52_);stroke:#000000;stroke-miterlimit:10;}
	.st56{fill:url(#SVGID_53_);stroke:#000000;stroke-miterlimit:10;}
	.st57{fill:#B60000;stroke:#000000;stroke-width:2;stroke-miterlimit:10;}
	.st58{fill:#808080;}
	.st59{fill:url(#SVGID_54_);stroke:#31C8C5;stroke-miterlimit:10;}
	.st60{fill:url(#SVGID_55_);stroke:#31C8C5;stroke-miterlimit:10;}
	.st61{fill:url(#SVGID_56_);stroke:#000000;stroke-miterlimit:10;}
	.st62{stroke:#31C8C5;stroke-miterlimit:10;}
	.st63{stroke:#000000;stroke-miterlimit:10;}
	.st64{fill:url(#SVGID_57_);stroke:#000000;stroke-miterlimit:10;}
	.st65{fill:url(#SVGID_58_);stroke:#808080;stroke-miterlimit:10;}
	.st66{fill:url(#SVGID_59_);stroke:#000000;stroke-miterlimit:10;}
	.st67{fill:#984C24;stroke:#000000;stroke-miterlimit:10;}
	.st68{fill:url(#SVGID_60_);stroke:#000000;stroke-miterlimit:10;}
	.st69{fill:url(#SVGID_61_);stroke:#000000;stroke-miterlimit:10;}
	.st70{fill:#984C24;}
	.st71{fill:url(#SVGID_62_);stroke:#000000;stroke-miterlimit:10;}
	.st72{fill:url(#SVGID_63_);stroke:#31C8C5;stroke-miterlimit:10;}
	.st73{fill:url(#SVGID_64_);stroke:#000000;stroke-miterlimit:10;}
	.st74{fill:#984C24;stroke:#808080;stroke-miterlimit:10;}
	.st75{fill:url(#SVGID_65_);stroke:#000000;stroke-miterlimit:10;}
	.st76{fill:url(#SVGID_66_);stroke:#000000;stroke-miterlimit:10;}
</style>
<g id="Слой_1">
</g>
<g id="Слой_8">
</g>
<g id="Слой_2">
</g>
<g id="Слой_4">
	
		<linearGradient id="SVGID_1_" gradientUnits="userSpaceOnUse" x1="40.3822" y1="126.6046" x2="40.3822" y2="93.2136" gradientTransform="matrix(0.9617 0.1377 -0.1478 0.9632 11.4769 0.6456)">
		<stop  offset="0" style="stop-color:#31C8C5"/>
		<stop  offset="0.0431" style="stop-color:#32BAB6"/>
		<stop  offset="0.1263" style="stop-color:#36978E"/>
		<stop  offset="0.2401" style="stop-color:#3C5D4E"/>
		<stop  offset="0.3492" style="stop-color:#42210B"/>
		<stop  offset="0.4773" style="stop-color:#2E1708"/>
		<stop  offset="0.6733" style="stop-color:#150A03"/>
		<stop  offset="0.852" style="stop-color:#050301"/>
		<stop  offset="0.9963" style="stop-color:#000000"/>
	</linearGradient>
	<path class="st0" d="M37.92,112.87c5.33-5.31,7.25-3.79,9.73-11.11c1.56-4.61-3.06-4.58-6.43-5.07c-6.04-0.87-12.5,2.82-14.5,4.57
		c-4.68,4.08-4.81,8.47-4.09,14.18c0.41,3.27,6.55,11.75,9.41,12.77C32.48,123.36,31.37,119.4,37.92,112.87z"/>
	<g>
		<linearGradient id="SVGID_2_" gradientUnits="userSpaceOnUse" x1="0.7429" y1="79.5326" x2="68.1489" y2="25.4194">
			<stop  offset="3.723938e-03" style="stop-color:#000000"/>
			<stop  offset="0.1081" style="stop-color:#0F0702"/>
			<stop  offset="0.3077" style="stop-color:#361B09"/>
			<stop  offset="0.3645" style="stop-color:#42210B"/>
			<stop  offset="0.4655" style="stop-color:#4C260D"/>
			<stop  offset="0.635" style="stop-color:#663311"/>
			<stop  offset="0.6969" style="stop-color:#713813"/>
			<stop  offset="0.7486" style="stop-color:#703B16"/>
			<stop  offset="0.7942" style="stop-color:#6C4421"/>
			<stop  offset="0.8376" style="stop-color:#655233"/>
			<stop  offset="0.8796" style="stop-color:#5C674D"/>
			<stop  offset="0.9207" style="stop-color:#50816E"/>
			<stop  offset="0.9604" style="stop-color:#42A195"/>
			<stop  offset="0.9993" style="stop-color:#31C7C4"/>
			<stop  offset="1" style="stop-color:#31C8C5"/>
		</linearGradient>
		<path class="st1" d="M20.55,96.79C-11.71,79.53,0.89,28.84,30.3,12.31c14.39-8.09,29.57-3.15,44.26,2.2
			c8.04,2.93,13.14,6.73,2.24,5.76c-28.83-2.59-34.03-0.82-37.61,1.13c-18.36,9.98-22.2,48.53-5.87,51.69
			C49.65,76.23,39.08,106.7,20.55,96.79z"/>
		<g>
			<path class="st2" d="M23.33,71.14c-0.22,1.6-0.71,3.16-1.38,4.66c-0.71,1.48-1.67,2.9-3.03,4.02c-0.67,0.56-1.44,1.04-2.29,1.37
				c-0.85,0.33-1.78,0.46-2.67,0.39c-1.78-0.19-3.4-0.94-4.6-2.12l0.09-0.18c1.66,0.19,3.15,0.39,4.56,0.31
				c1.36-0.13,2.75-0.25,3.98-1.06c1.22-0.77,2.26-1.92,3.09-3.21c0.86-1.28,1.54-2.72,2.06-4.21L23.33,71.14z"/>
		</g>
		<g>
			<path class="st2" d="M20.34,62.73c-1.02,1.25-2.25,2.32-3.61,3.25c-1.38,0.89-2.94,1.61-4.68,1.85
				c-0.86,0.13-1.77,0.14-2.67-0.02c-0.9-0.16-1.75-0.54-2.48-1.06c-1.42-1.09-2.41-2.57-2.82-4.21l0.17-0.11
				c1.32,1.02,2.49,1.98,3.73,2.64c1.23,0.6,2.48,1.22,3.95,1.17c1.44-0.02,2.93-0.46,4.31-1.13c1.4-0.65,2.73-1.52,3.96-2.52
				L20.34,62.73z"/>
		</g>
		<g>
			<path class="st2" d="M19.84,51.23c-1.26,0.86-2.65,1.5-4.13,1.97c-1.49,0.42-3.11,0.63-4.76,0.28c-0.82-0.17-1.63-0.48-2.38-0.93
				c-0.74-0.47-1.34-1.12-1.78-1.84c-0.84-1.47-1.16-3.1-0.93-4.69l0.2-0.04c0.84,1.34,1.53,2.58,2.38,3.59
				c0.84,0.97,1.67,1.93,2.95,2.37c1.25,0.45,2.7,0.49,4.12,0.29c1.44-0.18,2.87-0.6,4.24-1.16L19.84,51.23z"/>
		</g>
		<g>
			<path class="st2" d="M23.62,36.32c-1.07,0.87-2.29,1.56-3.61,2.08c-1.33,0.47-2.84,0.75-4.39,0.37
				c-1.52-0.36-3.05-1.43-3.63-2.88c-0.62-1.41-0.77-2.9-0.44-4.33l0.2-0.03c0.75,1.24,1.3,2.42,1.99,3.39
				c0.33,0.49,0.66,0.94,1.03,1.34c0.36,0.42,0.81,0.75,1.33,0.98c1.06,0.45,2.37,0.45,3.64,0.19c1.28-0.23,2.56-0.69,3.77-1.28
				L23.62,36.32z"/>
		</g>
		<g>
			<path class="st2" d="M28.81,28.8c-1.17,0.33-2.38,0.46-3.63,0.4c-1.23-0.09-2.64-0.44-3.63-1.62c-0.48-0.57-0.81-1.28-0.96-2
				c-0.14-0.72-0.08-1.42,0.09-2.07c0.39-1.27,1.08-2.36,2.09-3.19l0.18,0.09c-0.02,1.3-0.23,2.42-0.3,3.47
				c-0.04,1.03-0.27,1.97,0.19,2.74c0.44,0.77,1.43,1.3,2.5,1.58c1.08,0.31,2.26,0.4,3.44,0.39L28.81,28.8z"/>
		</g>
		<g>
			<path class="st2" d="M37.73,20.4c-0.98,0.27-2,0.36-3.06,0.3c-1.04-0.09-2.21-0.41-3.08-1.37c-0.86-0.93-1.26-2.33-0.94-3.45
				c0.16-0.54,0.4-1.05,0.68-1.51c0.32-0.44,0.68-0.85,1.13-1.19l0.18,0.09c0.08,0.58,0.07,1.08,0.02,1.56
				c0.01,0.48-0.01,0.93-0.04,1.35c0.04,0.41-0.04,0.8-0.01,1.15l-0.02,0.28l0.06,0.25l0.05,0.26c0.04,0.08,0.09,0.15,0.13,0.23
				c0.36,0.61,1.13,1.09,2.01,1.37c0.88,0.31,1.86,0.43,2.84,0.48L37.73,20.4z"/>
		</g>
	</g>
	<linearGradient id="SVGID_3_" gradientUnits="userSpaceOnUse" x1="46.8274" y1="109.3576" x2="46.8274" y2="88.051">
		<stop  offset="0.0315" style="stop-color:#31C8C5"/>
		<stop  offset="0.033" style="stop-color:#30C4C1"/>
		<stop  offset="0.0538" style="stop-color:#259794"/>
		<stop  offset="0.076" style="stop-color:#1B6E6C"/>
		<stop  offset="0.0993" style="stop-color:#134C4B"/>
		<stop  offset="0.1239" style="stop-color:#0C3030"/>
		<stop  offset="0.1504" style="stop-color:#071B1A"/>
		<stop  offset="0.1796" style="stop-color:#030C0B"/>
		<stop  offset="0.2137" style="stop-color:#010303"/>
		<stop  offset="0.2644" style="stop-color:#000000"/>
		<stop  offset="0.3616" style="stop-color:#060301"/>
		<stop  offset="0.4872" style="stop-color:#160B05"/>
		<stop  offset="0.6282" style="stop-color:#30180B"/>
		<stop  offset="0.7807" style="stop-color:#552B14"/>
		<stop  offset="0.9406" style="stop-color:#85421F"/>
		<stop  offset="1" style="stop-color:#984C24"/>
	</linearGradient>
	<ellipse class="st3" cx="46.83" cy="98.7" rx="29.15" ry="10.65"/>
	
		<linearGradient id="SVGID_4_" gradientUnits="userSpaceOnUse" x1="17.662" y1="129.2349" x2="17.662" y2="95.876" gradientTransform="matrix(1.0099 -0.1902 0.2082 1.0004 -18.6623 2.3052)">
		<stop  offset="0" style="stop-color:#31C8C5"/>
		<stop  offset="0.039" style="stop-color:#36BCB6"/>
		<stop  offset="0.1143" style="stop-color:#459B8E"/>
		<stop  offset="0.2172" style="stop-color:#5C684E"/>
		<stop  offset="0.3045" style="stop-color:#713813"/>
		<stop  offset="0.5354" style="stop-color:#4C260D"/>
		<stop  offset="0.595" style="stop-color:#42210B"/>
		<stop  offset="0.6984" style="stop-color:#361B09"/>
		<stop  offset="0.885" style="stop-color:#160B04"/>
		<stop  offset="0.9963" style="stop-color:#000000"/>
	</linearGradient>
	<path class="st4" d="M25.03,111.08c6.23-4.87,11.65-4.72,9.5-13.75c-1.18-4.96-8.81-3.71-12.35-3.05
		c-6.35,1.19-11.42,7.02-12.78,9.42c-3.16,5.61-1.67,9.98,1.15,15.38c1.61,3.08,10.87,9.37,14.1,9.41
		C23.3,123.55,17.44,117.01,25.03,111.08z"/>
	
		<linearGradient id="SVGID_5_" gradientUnits="userSpaceOnUse" x1="86.3429" y1="122.2734" x2="86.3429" y2="88.5676" gradientTransform="matrix(0.8836 0.2875 -0.2417 0.9135 26.6342 -11.4025)">
		<stop  offset="0" style="stop-color:#31C8C5"/>
		<stop  offset="0.0455" style="stop-color:#36BCB6"/>
		<stop  offset="0.1332" style="stop-color:#439B8E"/>
		<stop  offset="0.2532" style="stop-color:#59674E"/>
		<stop  offset="0.3566" style="stop-color:#6D3612"/>
		<stop  offset="0.595" style="stop-color:#42210B"/>
		<stop  offset="0.6984" style="stop-color:#361B09"/>
		<stop  offset="0.885" style="stop-color:#160B04"/>
		<stop  offset="0.9963" style="stop-color:#000000"/>
	</linearGradient>
	<path class="st5" d="M77.71,107.57c-12.55-9.86-13.53-11.96-7.09-14.46c10.02-3.88,18.97,10.37,19.88,12.83
		c1.23,3.35,0.35,10.38-2.27,14.13c-1.8,2.57-6.7,7.08-9.56,6.76C80.15,122.35,84.76,113.1,77.71,107.57z"/>
	<linearGradient id="SVGID_6_" gradientUnits="userSpaceOnUse" x1="65.1583" y1="129.2448" x2="65.1583" y2="94.3577">
		<stop  offset="0" style="stop-color:#31C8C5"/>
		<stop  offset="0.0461" style="stop-color:#36BCB6"/>
		<stop  offset="0.1352" style="stop-color:#459B8E"/>
		<stop  offset="0.257" style="stop-color:#5C684E"/>
		<stop  offset="0.3603" style="stop-color:#713813"/>
		<stop  offset="0.5469" style="stop-color:#4C260D"/>
		<stop  offset="0.595" style="stop-color:#42210B"/>
		<stop  offset="0.6984" style="stop-color:#361B09"/>
		<stop  offset="0.885" style="stop-color:#160B04"/>
		<stop  offset="0.9963" style="stop-color:#000000"/>
	</linearGradient>
	<path class="st6" d="M65.34,110.89c-7.19-2.75-18.78-6.93-13.3-12.19c3.6-3.45,12.37-5,15.75-4.09c6.11,1.65,17.26,7.65,8.92,23.03
		c-1.61,2.98-8.5,10.98-11.57,11.6C65.46,124.24,70.05,112.69,65.34,110.89z"/>
	<g>
		
			<radialGradient id="SVGID_7_" cx="70.9244" cy="94.3246" r="46.0797" gradientTransform="matrix(0.9986 -0.0524 0.0713 1.3588 -14.9277 -42.9474)" gradientUnits="userSpaceOnUse">
			<stop  offset="0" style="stop-color:#31C8C5"/>
			<stop  offset="0.0689" style="stop-color:#3EAAA0"/>
			<stop  offset="0.2216" style="stop-color:#605F43"/>
			<stop  offset="0.2966" style="stop-color:#713813"/>
			<stop  offset="0.4587" style="stop-color:#4C260D"/>
			<stop  offset="0.5005" style="stop-color:#42210B"/>
			<stop  offset="0.6283" style="stop-color:#361B09"/>
			<stop  offset="0.8588" style="stop-color:#160B04"/>
			<stop  offset="0.9963" style="stop-color:#000000"/>
		</radialGradient>
		<path class="st7" d="M27.46,80.76c-2.59,5.02-4.42,10.99-2.78,10.58c4.29-1.07,14.64-3.45,22.93,0.95
			c17.73,9.42,26.81-4.23,26.32-12.92c-0.38-6.74-4.62-13.79-18.62-13.59S31.76,72.41,27.46,80.76z"/>
		<g>
			<path d="M33.08,72.35c2.46-1.98,5.14-3.62,7.95-5.12c1.41-0.72,2.86-1.4,4.34-2.02c1.49-0.59,3.03-1.11,4.6-1.55
				c1.57-0.44,3.17-0.91,4.84-1.22c1.66-0.3,3.4-0.34,5.1,0.03c1.7,0.35,3.37,0.95,4.88,1.86c1.49,0.93,2.82,2.13,3.72,3.68
				l-0.32,0.51c-1.75-0.05-3.24-0.12-4.68-0.14c-1.44-0.02-2.81,0.03-4.18,0.07c-1.36,0.03-2.72,0.04-4.13-0.07
				c-1.41-0.12-2.87-0.15-4.32,0c-1.45,0.14-2.91,0.36-4.37,0.66c-1.47,0.27-2.94,0.6-4.4,0.99c-2.93,0.75-5.85,1.71-8.72,2.83
				L33.08,72.35z"/>
		</g>
		<g>
			<path d="M49.76,87.79c-1.05-1.26-1.78-2.75-2.33-4.36c-0.24-0.81-0.42-1.66-0.51-2.54c-0.05-0.87-0.05-1.78,0.11-2.67
				c0.05-0.46,0.13-0.91,0.25-1.35c0.12-0.44,0.18-0.93,0.37-1.35c0.19-0.43,0.38-0.86,0.62-1.26c0.25-0.39,0.59-0.71,0.92-1.04
				c0.64-0.68,1.49-1.07,2.29-1.46c0.85-0.32,1.76-0.48,2.7-0.45l0.21,0.34c-0.32,0.94-0.75,1.61-1.11,2.28
				c-0.31,0.71-0.75,1.24-1.03,1.85c-0.15,0.29-0.36,0.54-0.53,0.8c-0.15,0.27-0.36,0.51-0.57,0.76c-0.25,0.23-0.37,0.52-0.57,0.79
				c-0.09,0.14-0.19,0.27-0.27,0.42l-0.19,0.46c-0.49,1.23-0.74,2.63-0.73,4.09c-0.02,1.47,0.25,3,0.7,4.48L49.76,87.79z"/>
		</g>
		<g>
			<path d="M38.94,86.47c-0.82-1.05-1.37-2.27-1.74-3.6l-0.21-1.02l-0.11-1.05c-0.01-0.71,0.01-1.44,0.15-2.16
				c0.04-0.37,0.12-0.73,0.2-1.09c0.09-0.36,0.14-0.75,0.28-1.1c0.14-0.35,0.28-0.7,0.48-1.03c0.2-0.32,0.47-0.58,0.74-0.84
				c1.1-1.01,2.54-1.6,4.18-1.44l0.23,0.33c-0.15,0.85-0.4,1.46-0.63,2.04c-0.17,0.61-0.47,1.07-0.65,1.56
				c-0.1,0.24-0.25,0.44-0.39,0.65c-0.12,0.21-0.28,0.4-0.46,0.59c-0.21,0.17-0.33,0.39-0.5,0.59c-0.17,0.2-0.32,0.42-0.42,0.66
				c-0.46,0.93-0.77,2-0.9,3.15c-0.14,1.15-0.09,2.37,0.11,3.59L38.94,86.47z"/>
		</g>
		<g>
			<path class="st8" d="M73.97,80.78c0-6.93-4.95-12.51-7.05-12.51c-4.51,0-7.06,6.22-7.06,13.14s3.5,12.54,6.15,11.94
				C70.44,92.36,73.97,87.71,73.97,80.78z"/>
			<g>
				<path d="M68.31,71.81c1.15,1.54,1.71,3.05,2.08,4.55c0.35,1.5,0.47,2.98,0.39,4.45c-0.08,1.47-0.38,2.93-0.9,4.38
					c-0.55,1.44-1.28,2.88-2.62,4.27c-1.16-1.55-1.72-3.05-2.09-4.55c-0.35-1.5-0.47-2.98-0.38-4.45c0.09-1.47,0.38-2.93,0.91-4.37
					C66.25,74.64,66.98,73.2,68.31,71.81z"/>
			</g>
		</g>
	</g>
	<g>
		
			<linearGradient id="SVGID_8_" gradientUnits="userSpaceOnUse" x1="-27.4759" y1="-44.6614" x2="-0.4026" y2="-47.3443" gradientTransform="matrix(0.873 0.4877 -0.4877 0.873 60.0565 64.9108)">
			<stop  offset="0" style="stop-color:#31C8C5"/>
			<stop  offset="0.0421" style="stop-color:#40BBB8"/>
			<stop  offset="0.1571" style="stop-color:#639B9A"/>
			<stop  offset="0.2515" style="stop-color:#788787"/>
			<stop  offset="0.3129" style="stop-color:#808080"/>
			<stop  offset="0.4113" style="stop-color:#767676"/>
			<stop  offset="0.5794" style="stop-color:#5B5B5B"/>
			<stop  offset="0.7952" style="stop-color:#2F2F2F"/>
			<stop  offset="0.9963" style="stop-color:#000000"/>
		</linearGradient>
		<path class="st9" d="M57.64,13.09c-1.72,3.08-1.23,7.1,3.71,10.1c7.75,4.72,19.12,8.21,20.84,5.13
			c1.72-3.08,6.31-11.03-1.61-15.45S59.36,10.01,57.64,13.09z"/>
		<path class="st10" d="M85.48,9.12l-0.8,2.86c-0.03,0.85,0.57,1.2,0.99,0.58l0.88-1.3c0.64-0.94,3.23-2.35,1.89,1.32l-1.51,1.4
			c-0.25,0.81,0.14,1.58,0.66,1.27l1.08-0.63c0.66-0.38,2.22,0.83,1.68,1.6l-2.1,1.33c-0.43,0.61-0.31,1.64,0.2,1.72l1.06,0.16
			c0.64,0.09,1.43,2.07,0.77,2.44l-2.68-0.62c-0.52,0.29,0.07,2.12,0.47,2.56l0.88,0.86c0.51,0.55,0.47,2.31-0.17,2.19l-1.92-1.19
			c-0.51-0.09-0.54,1.58-0.33,2.29l0.76,1.3c0.27,0.9,0.38,2.97-0.11,2.4l-2-1.73c-0.39-0.45-0.43,0.31-0.45,1.16
			c0,0,1,2.51,0.24,3.22c-0.8,0.74-2.01-2.33-2.01-2.33c-0.2-0.72-1.36-0.7-1.6,0.12l-0.02,2.65c-0.31,1.03-1.7-0.06-1.66-1.14
			l0.06-1.78c0.03-0.85-0.57-1.2-0.99-0.58l-1.72,2c-0.54,0.79-1.3-1.12-0.74-1.72l0.53-1.69c0.92-0.82,0.52-1.59,0.01-1.29
			l-1.72,1.26c-0.66,0.38-1.19-1.52-0.65-2.29l1.71-1.27c0.43-0.61,0.31-1.64-0.2-1.72l-1.92,0.39c-0.66-0.96,0.25-2.14,0.91-2.5
			l1.09-0.6c0.52-0.29,0.7-1.38,0.3-1.82l-2.16-0.2c-0.51-0.55,0.62-2.82,1.26-2.71l1.7,0.31c0.51,0.09,0.95-0.85,0.74-1.56
			l-1.96-2.35c-0.27-0.9,2.01-1.13,2.5-0.56l0.82,0.95c0.39,0.45,1.02-0.15,1.03-0.99l-0.87-3.04c0.02-1.08,1.32-2.19,1.57-1.28
			l0.95,3.38c0.2,0.72,0.88,0.58,1.12-0.23l0.51-1.7C83.89,8.98,85.52,8.04,85.48,9.12z"/>
		
			<ellipse transform="matrix(0.1628 -0.9867 0.9867 0.1628 47.5499 100.0305)" class="st11" cx="82.72" cy="21.99" rx="7.69" ry="2.39"/>
		<g>
			<path d="M83.46,19.16c0.32,0.58,0.43,1.13,0.5,1.67c0.05,0.54,0.03,1.06-0.06,1.57c-0.09,0.51-0.25,1.01-0.48,1.49
				c-0.25,0.48-0.54,0.95-1.05,1.39c-0.32-0.58-0.44-1.13-0.5-1.67c-0.05-0.54-0.03-1.06,0.06-1.57c0.09-0.51,0.25-1.01,0.49-1.49
				C82.67,20.07,82.96,19.59,83.46,19.16z"/>
		</g>
	</g>
</g>
<g id="Слой_6">
</g>
<g id="Слой_7">
</g>
<g id="Слой_3">
</g>
<g id="Слой_5">
</g>
<g id="Слой_9">
</g>
<g id="Слой_10">
</g>
<g id="Слой_11">
</g>
</svg>
