<?xml version="1.0" encoding="utf-8"?>
<!-- Generator: Adobe Illustrator 24.0.2, SVG Export Plug-In . SVG Version: 6.00 Build 0)  -->
<svg version="1.1" xmlns="http://www.w3.org/2000/svg" xmlns:xlink="http://www.w3.org/1999/xlink" x="0px" y="0px"
	 viewBox="0 0 125 100" style="enable-background:new 0 0 125 100;" xml:space="preserve">
<style type="text/css">
	.st0{stroke:#000000;stroke-width:0.25;stroke-miterlimit:10;}
	.st1{fill:url(#SVGID_1_);stroke:#000000;stroke-miterlimit:10;}
	.st2{fill:#808080;stroke:#000000;stroke-miterlimit:10;}
	.st3{fill:#31C8C5;stroke:#000000;stroke-miterlimit:10;}
	.st4{fill:#F9F912;stroke:#000000;stroke-miterlimit:10;}
	.st5{fill:#31C8C5;stroke:#31C8C5;stroke-width:0.25;stroke-miterlimit:10;}
	.st6{stroke:#31C8C5;stroke-miterlimit:10;}
	.st7{fill:url(#SVGID_2_);}
	.st8{fill:url(#SVGID_3_);stroke:#000000;stroke-miterlimit:10;}
	.st9{fill:url(#SVGID_4_);}
	.st10{fill:url(#SVGID_5_);stroke:#000000;stroke-miterlimit:10;}
	.st11{fill:url(#SVGID_6_);}
	.st12{fill:url(#SVGID_7_);stroke:#000000;stroke-miterlimit:10;}
	.st13{fill:url(#SVGID_8_);}
	.st14{fill:url(#SVGID_9_);stroke:#000000;stroke-miterlimit:10;}
	.st15{fill:url(#SVGID_10_);}
	.st16{fill:url(#SVGID_11_);stroke:#000000;stroke-miterlimit:10;}
	.st17{fill:url(#SVGID_12_);}
	.st18{fill:url(#SVGID_13_);stroke:#000000;stroke-miterlimit:10;}
	.st19{fill:url(#SVGID_14_);}
	.st20{fill:url(#SVGID_15_);stroke:#000000;stroke-miterlimit:10;}
	.st21{fill:url(#SVGID_16_);}
	.st22{fill:url(#SVGID_17_);stroke:#000000;stroke-miterlimit:10;}
	.st23{fill:url(#SVGID_18_);}
	.st24{fill:url(#SVGID_19_);stroke:#000000;stroke-miterlimit:10;}
	.st25{fill:url(#SVGID_20_);stroke:#000000;stroke-miterlimit:10;}
	.st26{fill:#984C24;stroke:#000000;stroke-miterlimit:10;}
	.st27{fill:url(#SVGID_21_);stroke:#000000;stroke-miterlimit:10;}
	.st28{fill:#F9F912;}
	.st29{fill:url(#SVGID_22_);stroke:#000000;stroke-width:0.5;stroke-miterlimit:10;}
	.st30{fill:url(#SVGID_23_);stroke:#000000;stroke-width:0.5;stroke-miterlimit:10;}
	.st31{fill:url(#SVGID_24_);stroke:#000000;stroke-miterlimit:10;}
	.st32{fill:url(#SVGID_25_);stroke:#000000;stroke-miterlimit:10;}
	.st33{fill:url(#SVGID_26_);stroke:#000000;stroke-miterlimit:10;}
	.st34{fill:url(#SVGID_27_);stroke:#000000;stroke-width:0.5;stroke-miterlimit:10;}
	.st35{fill:url(#SVGID_28_);stroke:#000000;stroke-width:0.5;stroke-miterlimit:10;}
	.st36{fill:url(#SVGID_29_);stroke:#000000;stroke-miterlimit:10;}
	.st37{fill:url(#SVGID_30_);stroke:#000000;stroke-miterlimit:10;}
	.st38{fill:url(#SVGID_31_);stroke:#000000;stroke-miterlimit:10;}
	.st39{fill:url(#SVGID_32_);stroke:#000000;stroke-width:0.5;stroke-miterlimit:10;}
	.st40{fill:url(#SVGID_33_);stroke:#000000;stroke-width:0.5;stroke-miterlimit:10;}
	.st41{fill:url(#SVGID_34_);stroke:#000000;stroke-miterlimit:10;}
	.st42{fill:url(#SVGID_35_);stroke:#000000;stroke-miterlimit:10;}
	.st43{fill:url(#SVGID_36_);stroke:#000000;stroke-miterlimit:10;}
	.st44{fill:url(#SVGID_37_);stroke:#000000;stroke-width:0.5;stroke-miterlimit:10;}
	.st45{fill:url(#SVGID_38_);stroke:#000000;stroke-width:0.5;stroke-miterlimit:10;}
	.st46{fill:url(#SVGID_39_);stroke:#000000;stroke-miterlimit:10;}
	.st47{fill:url(#SVGID_40_);stroke:#000000;stroke-miterlimit:10;}
	.st48{fill:url(#SVGID_41_);stroke:#000000;stroke-miterlimit:10;}
	.st49{fill:url(#SVGID_42_);stroke:#000000;stroke-width:0.5;stroke-miterlimit:10;}
	.st50{fill:url(#SVGID_43_);stroke:#000000;stroke-width:0.5;stroke-miterlimit:10;}
	.st51{fill:url(#SVGID_44_);stroke:#000000;stroke-miterlimit:10;}
	.st52{fill:url(#SVGID_45_);stroke:#000000;stroke-miterlimit:10;}
	.st53{fill:url(#SVGID_46_);stroke:#000000;stroke-miterlimit:10;}
	.st54{fill:url(#SVGID_47_);stroke:#000000;stroke-miterlimit:10;}
	.st55{display:none;fill:url(#SVGID_48_);stroke:#000000;stroke-miterlimit:10;}
	.st56{display:none;fill:url(#SVGID_49_);stroke:#000000;stroke-miterlimit:10;}
	.st57{fill:url(#SVGID_50_);stroke:#000000;stroke-miterlimit:10;}
	.st58{fill:url(#SVGID_51_);stroke:#000000;stroke-miterlimit:10;}
	.st59{stroke:#F9F912;stroke-miterlimit:10;}
	.st60{fill:url(#SVGID_52_);stroke:#000000;stroke-miterlimit:10;}
	.st61{fill:url(#SVGID_53_);stroke:#000000;stroke-miterlimit:10;}
	.st62{fill:url(#SVGID_54_);stroke:#000000;stroke-miterlimit:10;}
	.st63{fill:url(#SVGID_55_);stroke:#000000;stroke-miterlimit:10;}
	.st64{display:none;fill:#984C24;stroke:#000000;stroke-miterlimit:10;}
	.st65{fill:url(#SVGID_56_);stroke:#000000;stroke-miterlimit:10;}
	.st66{fill:url(#SVGID_57_);stroke:#000000;stroke-miterlimit:10;}
	.st67{fill:url(#SVGID_58_);stroke:#000000;stroke-miterlimit:10;}
	.st68{fill:url(#SVGID_59_);stroke:#000000;stroke-miterlimit:10;}
	.st69{fill:url(#SVGID_60_);stroke:#000000;stroke-miterlimit:10;}
	.st70{fill:url(#SVGID_61_);stroke:#000000;stroke-miterlimit:10;}
	.st71{fill:url(#SVGID_62_);stroke:#000000;stroke-miterlimit:10;}
	.st72{fill:url(#SVGID_63_);stroke:#000000;stroke-miterlimit:10;}
	.st73{display:none;fill:url(#SVGID_64_);stroke:#000000;stroke-miterlimit:10;}
	.st74{display:none;fill:url(#SVGID_65_);stroke:#000000;stroke-miterlimit:10;}
	.st75{fill:url(#SVGID_66_);stroke:#000000;stroke-miterlimit:10;}
	.st76{fill:url(#SVGID_67_);stroke:#000000;stroke-miterlimit:10;}
	.st77{fill:url(#SVGID_68_);stroke:#000000;stroke-miterlimit:10;}
	.st78{fill:url(#SVGID_69_);stroke:#000000;stroke-miterlimit:10;}
	.st79{fill:url(#SVGID_70_);stroke:#000000;stroke-miterlimit:10;}
	.st80{fill:url(#SVGID_71_);stroke:#000000;stroke-miterlimit:10;}
	.st81{fill:url(#SVGID_72_);stroke:#000000;stroke-miterlimit:10;}
	.st82{fill:url(#SVGID_73_);stroke:#000000;stroke-miterlimit:10;}
	.st83{fill:url(#SVGID_74_);stroke:#000000;stroke-miterlimit:10;}
	.st84{fill:url(#SVGID_75_);stroke:#000000;stroke-miterlimit:10;}
	.st85{fill:url(#SVGID_76_);stroke:#000000;stroke-miterlimit:10;}
	.st86{fill:url(#SVGID_77_);stroke:#000000;stroke-miterlimit:10;}
	.st87{fill:url(#SVGID_78_);stroke:#000000;stroke-miterlimit:10;}
	.st88{fill:url(#SVGID_79_);stroke:#000000;stroke-miterlimit:10;}
	.st89{display:none;fill:url(#SVGID_80_);stroke:#000000;stroke-miterlimit:10;}
	.st90{display:none;fill:url(#SVGID_81_);stroke:#000000;stroke-miterlimit:10;}
	.st91{fill:url(#SVGID_82_);stroke:#000000;stroke-miterlimit:10;}
	.st92{fill:url(#SVGID_83_);stroke:#000000;stroke-miterlimit:10;}
	.st93{fill:url(#SVGID_84_);stroke:#000000;stroke-miterlimit:10;}
	.st94{fill:url(#SVGID_85_);stroke:#000000;stroke-miterlimit:10;}
	.st95{fill:url(#SVGID_86_);stroke:#000000;stroke-miterlimit:10;}
	.st96{fill:url(#SVGID_87_);stroke:#000000;stroke-miterlimit:10;}
	.st97{fill:url(#SVGID_88_);stroke:#000000;stroke-miterlimit:10;}
	.st98{fill:url(#SVGID_89_);stroke:#000000;stroke-miterlimit:10;}
	.st99{fill:url(#SVGID_90_);stroke:#000000;stroke-miterlimit:10;}
	.st100{fill:url(#SVGID_91_);stroke:#000000;stroke-miterlimit:10;}
</style>
<g id="Слой_2">
</g>
<g id="Слой_1">
</g>
<g id="Слой_3">
</g>
<g id="Слой_5">
</g>
<g id="Слой_6">
</g>
<g id="Слой_4">
	<linearGradient id="SVGID_1_" gradientUnits="userSpaceOnUse" x1="60.8543" y1="81.6618" x2="60.8543" y2="55.7855">
		<stop  offset="0" style="stop-color:#808080"/>
		<stop  offset="0.2327" style="stop-color:#7E8282"/>
		<stop  offset="0.3267" style="stop-color:#778888"/>
		<stop  offset="0.3957" style="stop-color:#6B9393"/>
		<stop  offset="0.4525" style="stop-color:#59A3A2"/>
		<stop  offset="0.5011" style="stop-color:#43B8B5"/>
		<stop  offset="0.5307" style="stop-color:#31C8C5"/>
		<stop  offset="0.5574" style="stop-color:#45B6B4"/>
		<stop  offset="0.5962" style="stop-color:#5BA2A1"/>
		<stop  offset="0.6422" style="stop-color:#6C9392"/>
		<stop  offset="0.699" style="stop-color:#778888"/>
		<stop  offset="0.7787" style="stop-color:#7E8282"/>
		<stop  offset="1" style="stop-color:#808080"/>
	</linearGradient>
	<path class="st1" d="M86.18,81.66H36.74c-5.62,0-11.14-1.53-14.99-5.24c-4.75-4.59,3.07-8.5,1.93-10.44
		c-2.93-4.98,5.94-10.2,13.06-10.2h49.44c7.12,0,13.98,4.36,12.5,10.2c-0.94,3.71,4.32,5.95,2.39,8.74
		C97.94,79.26,91.96,81.66,86.18,81.66z"/>
	<path class="st3" d="M95.65,17.88c0,0,7.12,3.94,9.21,10.17c2.09,6.23,3.25,12.67,1.7,10.51c-1.68-2.35-2.58-7.92-2.58-7.92
		s-6.5-9.26-9.32-10.71C87.13,16.03,95.65,17.88,95.65,17.88z"/>
	<radialGradient id="SVGID_2_" cx="85.5352" cy="26.1894" r="23.509" fx="62.0973" fy="28.0169" gradientUnits="userSpaceOnUse">
		<stop  offset="0.0173" style="stop-color:#31C8C5"/>
		<stop  offset="0.1713" style="stop-color:#54A8A7"/>
		<stop  offset="0.3399" style="stop-color:#748B8B"/>
		<stop  offset="0.4331" style="stop-color:#808080"/>
		<stop  offset="0.5805" style="stop-color:#7D7D7D"/>
		<stop  offset="0.6776" style="stop-color:#747474"/>
		<stop  offset="0.7603" style="stop-color:#656565"/>
		<stop  offset="0.8348" style="stop-color:#505050"/>
		<stop  offset="0.9039" style="stop-color:#353535"/>
		<stop  offset="0.968" style="stop-color:#141414"/>
		<stop  offset="1" style="stop-color:#000000"/>
	</radialGradient>
	<path style="fill:url(#SVGID_2_);stroke:#000000;stroke-miterlimit:10;" d="M101.4,26.32c-2.23,0.57-5.31-3.59-8.78-5.37
		c-2.05-1.05-0.83-6.18-1.85-7.12c-4.24-3.9-10.14-3.01-11.32,1.59c-1.19,4.68,1,10.61,0.1,15.22c-0.96,4.9,1.93,6.29,1.93,6.29
		c0,5.5-16.14,5.76-16.14,3.01c0,0,1.07-9.46,2.29-15.03c0.8-3.64-1.64-11.01,3.44-15.79c2.18-2.05,12.42-6.1,19.59-5
		c5.75,0.88,8.5,5.97,8.51,5.98C103.01,17.39,109.19,24.33,101.4,26.32z"/>
	<path class="st26" d="M103.01,22.78c0,0,6.4,5.02,7.46,11.51c1.06,6.48,1.18,13.03,0,10.64c-1.28-2.59-1.28-8.23-1.28-8.23
		s-4.93-10.18-7.48-12.07C94.89,19.6,103.01,22.78,103.01,22.78z"/>
	<path class="st3" d="M28.46,18.33c0,0-6.4,5.02-7.46,11.51s-1.18,13.03,0,10.64c1.28-2.59,1.28-8.23,1.28-8.23
		s4.93-10.18,7.48-12.07C36.58,15.14,28.46,18.33,28.46,18.33z"/>
	<radialGradient id="SVGID_3_" cx="44.6828" cy="27.1316" r="24.0986" fx="56.7924" fy="46.0982" gradientUnits="userSpaceOnUse">
		<stop  offset="0" style="stop-color:#31C8C5"/>
		<stop  offset="0.2852" style="stop-color:#699594"/>
		<stop  offset="0.4249" style="stop-color:#808080"/>
		<stop  offset="0.5744" style="stop-color:#7D7D7D"/>
		<stop  offset="0.673" style="stop-color:#747474"/>
		<stop  offset="0.7568" style="stop-color:#656565"/>
		<stop  offset="0.8324" style="stop-color:#505050"/>
		<stop  offset="0.9025" style="stop-color:#353535"/>
		<stop  offset="0.9675" style="stop-color:#141414"/>
		<stop  offset="1" style="stop-color:#000000"/>
	</radialGradient>
	<path class="st8" d="M26.18,27.32c2.23,0.57,2.6-6.46,8.84-6.85c2.3-0.14,0.76-5.69,1.79-6.63c4.24-3.9,10.14-3.01,11.32,1.59
		c1.19,4.68-1,10.61-0.1,15.22c0.96,4.9-1.9,8.11-1.9,8.11c0,5.5,16.11,3.95,16.11,1.2c0,0-1.07-9.46-2.29-15.03
		c-0.8-3.64,1.64-11.01-3.44-15.79c-2.18-2.05-12.42-6.1-19.59-5c-5.75,0.88-8.5,5.97-8.51,5.98C24.57,17.39,18.4,25.33,26.18,27.32
		z"/>
	<path class="st26" d="M22.81,23.72c0,0-6.4,5.02-7.46,11.51s-1.18,13.03,0,10.64c1.28-2.59,1.28-8.23,1.28-8.23
		s4.93-10.18,7.48-12.07C30.93,20.53,22.81,23.72,22.81,23.72z"/>
	<g>
		<g>
			<path d="M31.25,75.7c-0.36,0.24-0.77,0.17-1.13,0.06c-0.33-0.14-0.64-0.33-0.87-0.56c-0.48-0.46-0.74-0.99-0.92-1.53
				c-0.4-1.08,0.57-2.23,0.45-3.18c-0.03-0.49-0.19-0.97-0.43-1.46l-0.17-0.37c-0.05-0.13-0.05-0.27-0.07-0.4
				c-0.05-0.27-0.06-0.55-0.06-0.82c-0.03-1.11,0.23-2.2,0.57-3.23c0.69-2.08,2.02-3.84,3.62-5.14c1.61-1.3,3.4-2.33,5.43-2.77
				l0.15,0.26c-1.23,1.6-2.46,3.02-3.55,4.49c-1.09,1.46-2.09,2.86-2.93,4.33c-0.42,0.74-0.67,1.53-0.93,2.34
				c-0.15,0.42-0.16,0.8-0.42,1.3c-0.22,0.47-0.36,0.96-0.32,1.43c-0.01,0.97,1.18,1.76,1.27,2.54c0.09,0.39,0.11,0.79,0.13,1.16
				c0.03,0.39-0.08,0.75,0.16,1.25L31.25,75.7z"/>
		</g>
		<g>
			<path d="M87.04,56.3c1.27,0.26,2.36,0.82,3.39,1.46c1.01,0.67,1.98,1.42,2.75,2.37c0.77,0.96,1.24,2.17,1.74,3.29
				c0.51,1.12,1.11,2.13,1.61,3.33c0.53,1.18,0.8,2.72,0.4,4.06c-0.38,1.33-1,2.55-1.83,3.54c-0.83,0.99-1.85,1.75-2.93,2.37
				c-1.08,0.61-2.23,1.09-3.5,1.3l-0.17-0.25c0.65-1.11,1.38-2.02,2.08-2.93c0.71-0.89,1.38-1.76,2.04-2.56
				c0.66-0.8,1.35-1.56,1.8-2.42c0.43-0.84,0.96-1.73,0.91-2.82c-0.06-1.08-0.59-2.15-1.38-2.96c-0.81-0.82-1.85-1.4-2.68-2.14
				c-1.61-1.56-3.12-3.22-4.4-5.39L87.04,56.3z"/>
		</g>
		<g>
			<path d="M53.52,79.05c-1.02-0.47-1.74-1.03-2.41-1.66c-0.65-0.63-1.31-1.34-1.53-2.46c-0.12-0.54-0.16-1.11-0.21-1.62
				c-0.04-0.52-0.13-1-0.21-1.49c-0.18-0.96-0.59-1.94-0.61-2.99c-0.06-1.04,0.15-2.05,0.38-3.04c0.24-0.99,0.63-1.94,1.19-2.78
				c1.1-1.67,2.65-3.18,4.67-3.77l0.2,0.23l-2.11,5c-0.32,0.79-0.69,1.55-1.05,2.32c-0.38,0.77-0.64,1.57-0.96,2.37
				c-0.17,0.41-0.31,0.8-0.47,1.24c-0.17,0.43-0.28,0.88-0.27,1.32c0,0.44,0.1,0.87,0.34,1.24c0.25,0.37,0.59,0.65,0.95,0.9
				c0.73,0.47,1.26,1.2,1.7,2.07c0.43,0.87,0.75,1.84,0.69,2.97L53.52,79.05z"/>
		</g>
		<g>
			<path d="M65.87,55.74c1.28,0.51,2.5,0.99,3.67,1.76c1.14,0.77,2.27,1.71,2.98,2.98c0.71,1.28,0.98,2.73,1.42,4.01
				c0.19,0.66,0.44,1.29,0.66,1.94c0.25,0.62,0.51,1.34,0.65,2.06c0.33,1.46,0.21,2.98-0.18,4.37c-0.37,1.4-0.9,2.75-1.68,3.94
				c-0.79,1.18-1.75,2.25-2.89,3.14c-0.57,0.44-1.19,0.84-1.88,1.14c-0.34,0.15-0.72,0.27-1.11,0.33c-0.38,0.05-0.89,0.05-1.22-0.26
				l0.14-0.27c0.54-0.07,0.91-0.59,1.3-1.04c0.37-0.48,0.73-0.99,1.06-1.51c0.66-1.05,1.28-2.12,1.87-3.19
				c0.58-1.07,1.23-2.11,1.72-3.21c0.46-1.11,0.91-2.21,1.18-3.4c0.27-1.16,0.02-2.53-0.49-3.68c-0.54-1.18-1.6-2.03-2.5-2.85
				c-0.9-0.83-1.66-1.76-2.53-2.7c-0.43-0.48-0.87-0.96-1.28-1.51c-0.42-0.54-0.85-1.13-1.1-1.84L65.87,55.74z"/>
		</g>
		<g>
			<path class="st28" d="M39.44,64.65c2.6,0.04,6.42,0.16,6.46,2.14c0.04,1.98-3.52,3.62-6.12,3.58c-2.6-0.04-6.26-1.06-6.3-3.04
				C33.45,65.35,36.85,64.6,39.44,64.65z"/>
			<path d="M39.45,64.5c0.62,0.02,1.24-0.05,1.87-0.18c0.63-0.12,1.29-0.3,1.98-0.38c0.69-0.07,1.43-0.06,2.22,0.3
				c0.39,0.18,0.83,0.47,1.18,0.95c0.36,0.48,0.52,1.17,0.44,1.7c-0.15,1.13-0.89,1.78-1.5,2.17c-0.64,0.4-1.28,0.63-1.89,0.87
				c-1.23,0.46-2.4,0.92-3.77,1.22c-1.35,0.26-2.71,0.32-4.08-0.02c-0.69-0.17-1.39-0.38-2.1-0.81c-0.36-0.21-0.73-0.47-1.07-0.86
				c-0.33-0.38-0.66-0.9-0.77-1.52c-0.13-0.61-0.06-1.24,0.19-1.82c0.24-0.58,0.65-0.99,1.02-1.28c0.78-0.58,1.57-0.72,2.3-0.74
				C36.93,64.1,38.2,64.5,39.45,64.5z M39.44,64.8c-1.22-0.03-2.45,0.63-3.33,1.36c-0.44,0.36-0.81,0.71-0.97,0.94
				c-0.16,0.26-0.01,0.18-0.03,0.19c-0.02-0.05,0.05,0.2,0.38,0.47c0.32,0.26,0.77,0.52,1.26,0.73c0.49,0.21,1.02,0.4,1.56,0.6
				c0.54,0.19,1.11,0.39,1.66,0.51c1.1,0.24,2.37,0.06,3.37-0.54c0.5-0.3,0.92-0.73,1.18-1.18c0.26-0.45,0.29-0.9,0.16-1.03
				c-0.05-0.08-0.09-0.01-0.1-0.03c-0.03-0.01-0.11-0.09-0.26-0.2c-0.31-0.2-0.8-0.47-1.32-0.75C41.92,65.27,40.67,64.77,39.44,64.8
				z"/>
		</g>
		<g>
			<path class="st28" d="M61.9,71.23c2.14-0.22,6.17-0.53,6.21-2.51c0.04-1.98-3.52-3.62-6.12-3.58c-2.6,0.04-6.26,1.06-6.3,3.04
				C55.65,70.16,59.43,71.49,61.9,71.23z"/>
			<path d="M61.88,71.08c0.62-0.05,1.23-0.2,1.82-0.45c0.58-0.25,1.14-0.6,1.64-0.91c0.49-0.33,0.96-0.62,1.22-0.84
				c0.13-0.11,0.2-0.17,0.21-0.17c0.03,0.01,0.08,0.03,0.13-0.09c0.1-0.2,0-0.7-0.31-1.15c-0.31-0.45-0.76-0.85-1.28-1.12
				c-1.04-0.55-2.33-0.67-3.41-0.36c-1.14,0.32-2.24,0.73-3.2,1.16c-0.47,0.23-0.9,0.5-1.16,0.76c-0.12,0.13-0.2,0.24-0.22,0.29
				c-0.01,0.06-0.01,0.03-0.01,0.03c-0.05-0.08-0.05,0.13,0.23,0.45c0.25,0.31,0.63,0.69,1.07,1.08
				C59.45,70.52,60.66,71.2,61.88,71.08z M61.91,71.38c-1.26,0.1-2.57,0.35-4.04,0.27c-0.73-0.05-1.48-0.23-2.2-0.71
				c-0.36-0.23-0.71-0.56-1.02-0.99c-0.31-0.43-0.55-1.04-0.57-1.68c-0.02-0.63,0.17-1.27,0.48-1.75c0.3-0.49,0.67-0.82,1.03-1.08
				c0.73-0.52,1.44-0.78,2.14-0.97c1.39-0.4,2.77-0.41,4.12-0.17c1.41,0.25,2.61,0.73,3.84,1.17c0.61,0.24,1.25,0.46,1.89,0.82
				c0.62,0.36,1.37,0.87,1.68,1.92c0.16,0.49,0.14,1.16-0.13,1.72c-0.27,0.56-0.68,0.92-1.06,1.17c-0.78,0.48-1.52,0.58-2.23,0.56
				c-0.71-0.01-1.38-0.15-2.03-0.24C63.16,71.34,62.53,71.31,61.91,71.38z"/>
		</g>
		<g>
			<path class="st28" d="M85.66,65.28c3.44,0.71,6.17,0.45,6.21,2.43c0.04,1.98-3.52,3.62-6.12,3.58c-2.6-0.04-6.26-1.06-6.3-3.04
				C79.41,66.27,82.67,64.66,85.66,65.28z"/>
			<path d="M85.69,65.13c0.61,0.13,1.24,0.15,1.88,0.07c0.64-0.08,1.29-0.24,1.97-0.31c0.69-0.06,1.41-0.08,2.31,0.41
				c0.44,0.24,0.93,0.73,1.13,1.33c0.2,0.6,0.18,1.11,0.02,1.64c-0.33,1.04-1.08,1.54-1.71,1.89c-0.64,0.36-1.28,0.57-1.9,0.81
				c-1.23,0.45-2.44,0.93-3.86,1.17c-1.36,0.24-2.74,0.21-4.14-0.21c-0.7-0.2-1.42-0.48-2.15-1.02c-0.37-0.27-0.73-0.64-1.02-1.15
				c-0.29-0.5-0.43-1.19-0.38-1.78c0.12-1.22,0.84-2.08,1.52-2.57c0.71-0.51,1.49-0.72,2.24-0.79
				C83.14,64.52,84.45,64.9,85.69,65.13z M85.63,65.42c-2.5-0.58-4.81,2.54-4.57,2.78c0.01,0.04,0-0.02,0.01,0.03
				c0.01,0.04,0.07,0.14,0.19,0.27c0.24,0.25,0.66,0.53,1.13,0.76c0.96,0.44,2.07,0.84,3.21,1.17c1.09,0.33,2.38,0.22,3.43-0.32
				c0.53-0.26,0.99-0.67,1.31-1.11c0.32-0.45,0.43-0.96,0.34-1.17c-0.05-0.08-0.11-0.23-0.14-0.21c-0.02,0.01,0,0.04-0.09-0.04
				c-0.19-0.16-0.72-0.42-1.25-0.71c-0.55-0.28-1.14-0.61-1.74-0.88C86.85,65.73,86.25,65.54,85.63,65.42z"/>
		</g>
		<g>
			<path d="M89.41,68.2c-0.65,0.42-1.31,0.63-1.96,0.79c-0.65,0.15-1.31,0.22-1.96,0.22c-0.65,0-1.31-0.06-1.96-0.21
				c-0.65-0.16-1.31-0.36-1.96-0.78c0.65-0.42,1.31-0.63,1.96-0.79c0.65-0.15,1.31-0.22,1.96-0.22c0.65,0,1.31,0.07,1.96,0.21
				C88.1,67.58,88.75,67.79,89.41,68.2z"/>
		</g>
		<g>
			<path d="M66.46,68.19c-0.65,0.42-1.31,0.63-1.96,0.79c-0.65,0.15-1.31,0.22-1.96,0.22c-0.65,0-1.31-0.06-1.96-0.21
				c-0.65-0.16-1.31-0.36-1.96-0.78c0.65-0.42,1.31-0.63,1.96-0.79c0.65-0.15,1.31-0.22,1.96-0.22c0.65,0,1.31,0.07,1.96,0.21
				C65.15,67.57,65.8,67.78,66.46,68.19z"/>
		</g>
		<g>
			<path d="M43.37,67.5c-0.65,0.42-1.31,0.63-1.96,0.79c-0.65,0.15-1.31,0.22-1.96,0.22c-0.65,0-1.31-0.06-1.96-0.21
				c-0.65-0.16-1.31-0.36-1.96-0.78c0.65-0.42,1.31-0.63,1.96-0.79c0.65-0.15,1.31-0.22,1.96-0.22c0.65,0,1.31,0.07,1.96,0.21
				C42.06,66.88,42.71,67.08,43.37,67.5z"/>
		</g>
		<path d="M24.2,65.99c0,0,0.3,1.52,0.35,3.18c0.1,3.42-2.88,0.62-2.88,0.62L24.2,65.99z"/>
	</g>
	<g>
		<linearGradient id="SVGID_4_" gradientUnits="userSpaceOnUse" x1="61.5174" y1="64.1116" x2="61.5174" y2="31.4246">
			<stop  offset="3.723938e-03" style="stop-color:#000000"/>
			<stop  offset="0.0574" style="stop-color:#1D0E05"/>
			<stop  offset="0.111" style="stop-color:#311908"/>
			<stop  offset="0.1639" style="stop-color:#3E1F0A"/>
			<stop  offset="0.2148" style="stop-color:#42210B"/>
			<stop  offset="0.4312" style="stop-color:#5A2D0F"/>
			<stop  offset="0.6089" style="stop-color:#713813"/>
			<stop  offset="0.8225" style="stop-color:#89441D"/>
			<stop  offset="1" style="stop-color:#984C24"/>
		</linearGradient>
		<path style="fill:url(#SVGID_4_);stroke:#000000;stroke-width:0.5;stroke-miterlimit:10;" d="M89.27,33.93
			c-12,2.18-11.09,5.28-15.41,4.82c-16.68-1.78-16.93,5.2-25.66-0.68c-2.93-1.97-8.91-11.91-19.61-2.96
			c-6,5.02-8.96,7.64-10.69,16.1c-4.12,20.22,6.64,11.96,16.83,6.59c4.77-2.51,9.31,3.84,14.93-0.15c0,0,3.07,4.51,8,3.25
			c6.25-1.59,8.69-5.14,8.69-5.14s2.23,4.15,9.81,4.13c3.35-0.01,8.01-5.93,12.28-2.68c14.78,11.26,16.15-3.72,17.41-12.49
			C107.29,34.77,100.33,31.92,89.27,33.93z"/>
		<g>
			<path d="M35.55,57.31c0.98-1.38,1.76-2.9,2.2-4.47c0.46-1.56,0.65-3.17,0.48-4.71c0-0.39-0.13-0.77-0.21-1.14
				c-0.09-0.38-0.18-0.74-0.34-1.1c-0.14-0.36-0.25-0.72-0.35-1.08c-0.15-0.35-0.26-0.72-0.37-1.09c-0.08-0.38-0.21-0.76-0.35-1.13
				c-0.13-0.38-0.25-0.77-0.35-1.18c-0.27-0.79-0.56-1.59-0.71-2.56l0.23-0.19c0.83,0.43,1.6,0.98,2.27,1.63
				c0.32,0.34,0.61,0.7,0.9,1.07l0.42,0.56c0.12,0.2,0.22,0.41,0.34,0.62c1.01,1.64,0.99,3.71,0.92,5.56
				c-0.05,0.47-0.07,0.94-0.15,1.4l-0.3,1.37l-0.46,1.31c-0.18,0.42-0.39,0.83-0.58,1.24c-0.88,1.59-1.99,3.01-3.38,4.11
				L35.55,57.31z"/>
		</g>
		<g>
			<path d="M100.26,53.42c0.63-1.98,1.14-4,1.41-6.03c0.28-2.01,0.36-4.05,0.06-5.92c-0.17-0.94-0.48-1.81-0.93-2.56
				c-0.43-0.75-0.9-1.41-1.44-2.05c-1.07-1.31-2.74-2.26-4.65-3.39l0.04-0.3c1.1-0.24,2.26-0.3,3.4-0.03
				c0.59,0.08,1.13,0.33,1.7,0.55c0.54,0.28,1.08,0.59,1.57,0.99c0.97,0.79,1.72,1.89,2.11,3.05c0.39,1.17,0.56,2.35,0.59,3.49
				c0.09,2.29-0.33,4.46-0.98,6.51c-0.68,2.04-1.51,4-2.6,5.82L100.26,53.42z"/>
		</g>
		<g>
			<path d="M87.58,56.99c-0.99-1.3-1.8-2.72-2.56-4.19c-0.73-1.48-1.34-3.04-1.7-4.74c-0.18-0.84-0.36-1.72-0.4-2.66
				c-0.03-0.93,0.15-1.92,0.63-2.82c0.47-0.89,1.22-1.69,2.11-2.13c0.88-0.46,1.83-0.61,2.74-0.46l0.09,0.29
				c-0.61,0.66-1.11,1.23-1.47,1.79c-0.35,0.57-0.56,1.12-0.71,1.7c-0.15,0.58-0.28,1.18-0.42,1.84c-0.15,0.66-0.23,1.39-0.19,2.13
				c0.08,1.48,0.36,3.02,0.73,4.54c0.35,1.54,0.86,3.05,1.41,4.56L87.58,56.99z"/>
		</g>
		<g>
			<path d="M20.63,60.05c-0.38-2.9-0.41-5.84-0.26-8.78c0.17-2.94,0.64-5.89,1.52-8.79c0.44-1.45,0.98-2.88,1.65-4.29
				c0.68-1.4,1.63-2.7,2.82-3.78c1.19-1.06,2.56-1.95,4.06-2.48c1.5-0.52,3.07-0.71,4.58-0.54l0.05,0.3
				c-1.35,0.67-2.57,1.34-3.67,2.12c-1.08,0.8-2.04,1.7-2.88,2.7c-0.85,0.99-1.64,2.04-2.38,3.16c-0.76,1.11-1.42,2.33-1.97,3.61
				c-1.04,2.58-1.78,5.34-2.29,8.16c-0.53,2.81-0.82,5.69-0.93,8.58L20.63,60.05z"/>
		</g>
		<g>
			<path d="M66.24,55.66c0.74-1.14,1.46-2.29,2.04-3.49c0.6-1.18,1.14-2.38,1.49-3.58c0.18-0.6,0.26-1.21,0.27-1.78
				c0.02-0.57,0.06-1.08,0.1-1.58c0.12-1.01,0.02-1.98-0.48-3.49l0.19-0.23c1.6,0.19,3.01,1.73,3.28,3.46
				c0.16,0.85,0.07,1.71-0.19,2.46c-0.26,0.76-0.62,1.43-0.96,2.09c-0.68,1.32-1.54,2.46-2.48,3.51c-0.96,1.03-1.95,2.01-3.06,2.84
				L66.24,55.66z"/>
		</g>
		<g>
			<path d="M49.58,57.52c0.96-0.88,1.8-1.89,2.38-3c0.6-1.09,0.98-2.24,1.09-3.39c0.06-0.28,0.02-0.58,0.01-0.86
				c-0.01-0.29-0.03-0.57-0.11-0.85c-0.05-0.28-0.08-0.56-0.1-0.84c-0.05-0.28-0.07-0.56-0.08-0.85c0.03-0.59-0.09-1.18-0.03-1.84
				c-0.03-0.64-0.05-1.32,0.08-2.11l0.27-0.14c0.65,0.42,1.19,0.95,1.64,1.54c0.21,0.3,0.39,0.63,0.57,0.96
				c0.18,0.33,0.33,0.67,0.42,1.04c0.55,1.44,0.09,3.07-0.33,4.48c-0.13,0.35-0.24,0.71-0.39,1.05l-0.51,0.99l-0.63,0.9
				c-0.23,0.28-0.47,0.55-0.7,0.82c-1.01,1.01-2.15,1.84-3.43,2.36L49.58,57.52z"/>
		</g>
	</g>
	<g>
		<linearGradient id="SVGID_5_" gradientUnits="userSpaceOnUse" x1="59.532" y1="98.9621" x2="59.532" y2="74.1446">
			<stop  offset="3.723938e-03" style="stop-color:#000000"/>
			<stop  offset="0.115" style="stop-color:#160B04"/>
			<stop  offset="0.3016" style="stop-color:#361B09"/>
			<stop  offset="0.405" style="stop-color:#42210B"/>
			<stop  offset="0.4959" style="stop-color:#4C260D"/>
			<stop  offset="0.8482" style="stop-color:#713813"/>
			<stop  offset="0.9311" style="stop-color:#89441D"/>
			<stop  offset="1" style="stop-color:#984C24"/>
		</linearGradient>
		<path style="fill:url(#SVGID_5_);stroke:#000000;stroke-width:0.5;stroke-miterlimit:10;" d="M93.03,98.05
			c-6.9-0.38-10.91,1.22-17.46,0c-6.6-1.23-11.91,0.94-18.15,0.92c-5.07-0.02-10.06-1.87-16.1-0.68c-4.5,0.88-6.95-1.21-10.24-0.78
			c-15.12,1.94-15.8,0.32-18.41-7.09c-1.8-5.11-1.88-21.77,22.94-13.49c3.07,1.02,9.59-2.29,13.91-0.1
			c4.63,2.35,3.25,2.2,14.47,0.51c3.29-0.5,3.52-0.15,9.34,0.42c3.78,0.37,11.04,0.83,15.2-0.84c21.76-8.73,19.15,5.5,17.46,10.73
			C104.24,93.06,99.37,98.4,93.03,98.05z"/>
		<g>
			<path d="M35.77,95.65c0.87-1.51,1.46-3.3,1.96-5.01c0.5-1.72,0.89-3.47,1.08-5.18c0.09-0.86,0.06-1.71-0.05-2.51
				c-0.1-0.8-0.2-1.53-0.35-2.21c-0.15-0.69-0.37-1.31-0.77-1.94c-0.41-0.62-1.03-1.21-1.8-1.84l0.07-0.29
				c1-0.19,2.1-0.04,3.09,0.52c1,0.55,1.8,1.52,2.24,2.56c0.45,1.05,0.57,2.15,0.48,3.18c-0.1,1.03-0.32,2.01-0.56,2.95
				c-0.47,1.89-1.19,3.65-2.05,5.32c-0.44,0.83-0.91,1.64-1.41,2.43c-0.52,0.79-1,1.56-1.74,2.24L35.77,95.65z"/>
		</g>
		<g>
			<path d="M101.77,94.31c0.88-1.66,1.45-3.54,1.93-5.37c0.48-1.84,0.83-3.71,0.99-5.54c0.07-0.91,0.02-1.83-0.1-2.68
				c-0.12-0.86-0.23-1.66-0.39-2.41c-0.16-0.75-0.41-1.44-0.83-2.11c-0.43-0.67-1.08-1.29-1.9-1.93l0.07-0.29
				c1.05-0.19,2.22,0.02,3.24,0.65c1.03,0.61,1.82,1.64,2.27,2.72c0.46,1.09,0.59,2.23,0.52,3.31c-0.08,1.08-0.29,2.11-0.5,3.11
				c-0.44,2-1.12,3.89-1.95,5.69c-0.43,0.9-0.89,1.77-1.39,2.63c-0.51,0.85-1.01,1.69-1.73,2.43L101.77,94.31z"/>
		</g>
		<g>
			<path d="M89.22,96.01c-1.03-1.58-1.82-3.29-2.53-5.06c-0.68-1.78-1.17-3.65-1.37-5.63c-0.1-0.99-0.16-2-0.09-3.04
				c0.07-1.04,0.35-2.09,0.9-3.04c1.05-1.9,2.98-3.3,5.03-3.47l0.15,0.26c-0.58,0.84-1.09,1.55-1.51,2.28
				c-0.39,0.74-0.7,1.46-0.95,2.19c-0.25,0.73-0.46,1.48-0.69,2.26c-0.23,0.78-0.4,1.62-0.44,2.49c-0.06,1.73,0.1,3.52,0.42,5.3
				c0.29,1.79,0.77,3.57,1.35,5.32L89.22,96.01z"/>
		</g>
		<g>
			<path d="M16.93,93.83c-0.94-0.29-1.74-0.85-2.5-1.49c-0.74-0.66-1.38-1.45-1.9-2.31c-0.5-0.86-1.19-1.74-1.15-2.78
				c0-1.02,0.25-2.05,1.05-2.98l0.3,0c0.46,0.44,0.74,0.85,0.98,1.25c0.28,0.39,0.44,0.78,0.62,1.16c0.17,0.38,0.24,0.76,0.27,1.17
				c0,0.42,0.05,0.82,0.14,1.23c0.21,0.79,0.49,1.57,0.87,2.33c0.36,0.78,0.86,1.51,1.47,2.16L16.93,93.83z"/>
		</g>
		<g>
			<path d="M26.51,90.2c-1.22-1.03-2.33-2.15-3.45-3.29c-1.1-1.15-2.15-2.36-3.11-3.67c-0.95-1.3-2.14-2.56-2.49-4.4
				c-0.17-0.89-0.27-1.94,0.24-3.04c0.28-0.54,0.75-1.02,1.28-1.2c0.26-0.11,0.52-0.11,0.76-0.14c0.24,0.01,0.48,0.06,0.7,0.12
				l0.05,0.3l-0.44,0.42c-0.1,0.16-0.23,0.27-0.27,0.42c-0.13,0.25-0.08,0.49-0.05,0.68c0.11,0.43,0.33,0.98,0.61,1.58
				c0.27,0.59,0.55,1.24,0.8,1.93c0.24,0.69,0.51,1.4,0.86,2.08c0.7,1.35,1.47,2.7,2.27,4.03c0.78,1.35,1.64,2.67,2.48,4L26.51,90.2
				z"/>
		</g>
		<g>
			<path d="M72.7,94.8c0.74-1.6,1.37-3.25,1.77-4.93c0.43-1.66,0.66-3.35,0.53-4.92c-0.07-0.78-0.29-1.52-0.6-2.16
				c-0.31-0.64-0.64-1.21-1.03-1.79c-0.73-1.21-1.95-2.25-3.36-3.59l0.09-0.29c0.98-0.11,1.97-0.03,2.92,0.31
				c0.96,0.3,1.88,0.86,2.64,1.63c0.76,0.76,1.32,1.76,1.56,2.81c0.23,1.05,0.24,2.09,0.17,3.07c-0.13,1.98-0.73,3.79-1.53,5.45
				c-0.82,1.65-1.77,3.19-2.93,4.58L72.7,94.8z"/>
		</g>
		<g>
			<path d="M50.13,94.31c0.77-1.32,1.49-2.66,2.07-4.04c0.59-1.37,1.09-2.77,1.38-4.14c0.29-1.4,0.08-2.73,0.07-3.89
				c-0.02-0.6-0.09-1.19-0.24-1.84c-0.17-0.64-0.43-1.31-0.75-2.12l0.18-0.24c1.74,0.27,3.26,1.8,3.75,3.64
				c0.26,0.9,0.27,1.85,0.08,2.71c-0.2,0.86-0.5,1.66-0.8,2.43c-0.6,1.54-1.44,2.92-2.37,4.19c-0.96,1.25-1.97,2.44-3.14,3.48
				L50.13,94.31z"/>
		</g>
	</g>
</g>
<g id="Слой_9">
</g>
<g id="Слой_10">
</g>
<g id="Слой_11">
</g>
<g id="Слой_8">
</g>
<g id="Слой_7">
</g>
<g id="Слой_12">
</g>
<g id="Слой_13">
</g>
<g id="Слой_14">
</g>
<g id="Слой_15">
</g>
</svg>
