<?xml version="1.0" encoding="utf-8"?>
<!-- Generator: Adobe Illustrator 24.0.2, SVG Export Plug-In . SVG Version: 6.00 Build 0)  -->
<svg version="1.1" xmlns="http://www.w3.org/2000/svg" xmlns:xlink="http://www.w3.org/1999/xlink" x="0px" y="0px"
	 viewBox="0 0 125 100" style="enable-background:new 0 0 125 100;" xml:space="preserve">
<style type="text/css">
	.st0{stroke:#000000;stroke-width:0.25;stroke-miterlimit:10;}
	.st1{fill:url(#SVGID_1_);stroke:#000000;stroke-miterlimit:10;}
	.st2{fill:#808080;stroke:#000000;stroke-miterlimit:10;}
	.st3{fill:#31C8C5;stroke:#000000;stroke-miterlimit:10;}
	.st4{fill:#F9F912;stroke:#000000;stroke-miterlimit:10;}
	.st5{fill:#31C8C5;stroke:#31C8C5;stroke-width:0.25;stroke-miterlimit:10;}
	.st6{stroke:#31C8C5;stroke-miterlimit:10;}
	.st7{fill:url(#SVGID_2_);}
	.st8{fill:url(#SVGID_3_);stroke:#000000;stroke-miterlimit:10;}
	.st9{fill:url(#SVGID_4_);}
	.st10{fill:url(#SVGID_5_);stroke:#000000;stroke-miterlimit:10;}
	.st11{fill:url(#SVGID_6_);}
	.st12{fill:url(#SVGID_7_);stroke:#000000;stroke-miterlimit:10;}
	.st13{fill:url(#SVGID_8_);}
	.st14{fill:url(#SVGID_9_);stroke:#000000;stroke-miterlimit:10;}
	.st15{fill:url(#SVGID_10_);}
	.st16{fill:url(#SVGID_11_);stroke:#000000;stroke-miterlimit:10;}
	.st17{fill:url(#SVGID_12_);}
	.st18{fill:url(#SVGID_13_);stroke:#000000;stroke-miterlimit:10;}
	.st19{fill:url(#SVGID_14_);}
	.st20{fill:url(#SVGID_15_);stroke:#000000;stroke-miterlimit:10;}
	.st21{fill:url(#SVGID_16_);}
	.st22{fill:url(#SVGID_17_);stroke:#000000;stroke-miterlimit:10;}
	.st23{fill:url(#SVGID_18_);}
	.st24{fill:url(#SVGID_19_);stroke:#000000;stroke-miterlimit:10;}
	.st25{fill:url(#SVGID_20_);stroke:#000000;stroke-miterlimit:10;}
	.st26{fill:#984C24;stroke:#000000;stroke-miterlimit:10;}
	.st27{fill:url(#SVGID_21_);stroke:#000000;stroke-miterlimit:10;}
	.st28{fill:#F9F912;}
	.st29{fill:url(#SVGID_22_);stroke:#000000;stroke-width:0.5;stroke-miterlimit:10;}
	.st30{fill:url(#SVGID_23_);stroke:#000000;stroke-width:0.5;stroke-miterlimit:10;}
	.st31{fill:url(#SVGID_24_);stroke:#000000;stroke-miterlimit:10;}
	.st32{fill:url(#SVGID_25_);stroke:#000000;stroke-miterlimit:10;}
	.st33{fill:url(#SVGID_26_);stroke:#000000;stroke-miterlimit:10;}
	.st34{fill:url(#SVGID_27_);stroke:#000000;stroke-width:0.5;stroke-miterlimit:10;}
	.st35{fill:url(#SVGID_28_);stroke:#000000;stroke-width:0.5;stroke-miterlimit:10;}
	.st36{fill:url(#SVGID_29_);stroke:#000000;stroke-miterlimit:10;}
	.st37{fill:url(#SVGID_30_);stroke:#000000;stroke-miterlimit:10;}
	.st38{fill:url(#SVGID_31_);stroke:#000000;stroke-miterlimit:10;}
	.st39{fill:url(#SVGID_32_);stroke:#000000;stroke-width:0.5;stroke-miterlimit:10;}
	.st40{fill:url(#SVGID_33_);stroke:#000000;stroke-width:0.5;stroke-miterlimit:10;}
	.st41{fill:url(#SVGID_34_);stroke:#000000;stroke-miterlimit:10;}
	.st42{fill:url(#SVGID_35_);stroke:#000000;stroke-miterlimit:10;}
	.st43{fill:url(#SVGID_36_);stroke:#000000;stroke-miterlimit:10;}
	.st44{fill:url(#SVGID_37_);stroke:#000000;stroke-width:0.5;stroke-miterlimit:10;}
	.st45{fill:url(#SVGID_38_);stroke:#000000;stroke-width:0.5;stroke-miterlimit:10;}
	.st46{fill:url(#SVGID_39_);stroke:#000000;stroke-miterlimit:10;}
	.st47{fill:url(#SVGID_40_);stroke:#000000;stroke-miterlimit:10;}
	.st48{fill:url(#SVGID_41_);stroke:#000000;stroke-miterlimit:10;}
	.st49{fill:url(#SVGID_42_);stroke:#000000;stroke-width:0.5;stroke-miterlimit:10;}
	.st50{fill:url(#SVGID_43_);stroke:#000000;stroke-width:0.5;stroke-miterlimit:10;}
	.st51{fill:url(#SVGID_44_);stroke:#000000;stroke-miterlimit:10;}
	.st52{fill:url(#SVGID_45_);stroke:#000000;stroke-miterlimit:10;}
	.st53{fill:url(#SVGID_46_);stroke:#000000;stroke-miterlimit:10;}
	.st54{fill:url(#SVGID_47_);stroke:#000000;stroke-miterlimit:10;}
	.st55{display:none;fill:url(#SVGID_48_);stroke:#000000;stroke-miterlimit:10;}
	.st56{display:none;fill:url(#SVGID_49_);stroke:#000000;stroke-miterlimit:10;}
	.st57{fill:url(#SVGID_50_);stroke:#000000;stroke-miterlimit:10;}
	.st58{fill:url(#SVGID_51_);stroke:#000000;stroke-miterlimit:10;}
	.st59{stroke:#F9F912;stroke-miterlimit:10;}
	.st60{fill:url(#SVGID_52_);stroke:#000000;stroke-miterlimit:10;}
	.st61{fill:url(#SVGID_53_);stroke:#000000;stroke-miterlimit:10;}
	.st62{fill:url(#SVGID_54_);stroke:#000000;stroke-miterlimit:10;}
	.st63{fill:url(#SVGID_55_);stroke:#000000;stroke-miterlimit:10;}
	.st64{display:none;fill:#984C24;stroke:#000000;stroke-miterlimit:10;}
	.st65{fill:url(#SVGID_56_);stroke:#000000;stroke-miterlimit:10;}
	.st66{fill:url(#SVGID_57_);stroke:#000000;stroke-miterlimit:10;}
	.st67{fill:url(#SVGID_58_);stroke:#000000;stroke-miterlimit:10;}
	.st68{fill:url(#SVGID_59_);stroke:#000000;stroke-miterlimit:10;}
	.st69{fill:url(#SVGID_60_);stroke:#000000;stroke-miterlimit:10;}
	.st70{fill:url(#SVGID_61_);stroke:#000000;stroke-miterlimit:10;}
	.st71{fill:url(#SVGID_62_);stroke:#000000;stroke-miterlimit:10;}
	.st72{fill:url(#SVGID_63_);stroke:#000000;stroke-miterlimit:10;}
	.st73{display:none;fill:url(#SVGID_64_);stroke:#000000;stroke-miterlimit:10;}
	.st74{display:none;fill:url(#SVGID_65_);stroke:#000000;stroke-miterlimit:10;}
	.st75{fill:url(#SVGID_66_);stroke:#000000;stroke-miterlimit:10;}
	.st76{fill:url(#SVGID_67_);stroke:#000000;stroke-miterlimit:10;}
	.st77{fill:url(#SVGID_68_);stroke:#000000;stroke-miterlimit:10;}
	.st78{fill:url(#SVGID_69_);stroke:#000000;stroke-miterlimit:10;}
	.st79{fill:url(#SVGID_70_);stroke:#000000;stroke-miterlimit:10;}
	.st80{fill:url(#SVGID_71_);stroke:#000000;stroke-miterlimit:10;}
	.st81{fill:url(#SVGID_72_);stroke:#000000;stroke-miterlimit:10;}
	.st82{fill:url(#SVGID_73_);stroke:#000000;stroke-miterlimit:10;}
	.st83{fill:url(#SVGID_74_);stroke:#000000;stroke-miterlimit:10;}
	.st84{fill:url(#SVGID_75_);stroke:#000000;stroke-miterlimit:10;}
	.st85{fill:url(#SVGID_76_);stroke:#000000;stroke-miterlimit:10;}
	.st86{fill:url(#SVGID_77_);stroke:#000000;stroke-miterlimit:10;}
	.st87{fill:url(#SVGID_78_);stroke:#000000;stroke-miterlimit:10;}
	.st88{fill:url(#SVGID_79_);stroke:#000000;stroke-miterlimit:10;}
	.st89{display:none;fill:url(#SVGID_80_);stroke:#000000;stroke-miterlimit:10;}
	.st90{display:none;fill:url(#SVGID_81_);stroke:#000000;stroke-miterlimit:10;}
	.st91{fill:url(#SVGID_82_);stroke:#000000;stroke-miterlimit:10;}
	.st92{fill:url(#SVGID_83_);stroke:#000000;stroke-miterlimit:10;}
	.st93{fill:url(#SVGID_84_);stroke:#000000;stroke-miterlimit:10;}
	.st94{fill:url(#SVGID_85_);stroke:#000000;stroke-miterlimit:10;}
	.st95{fill:url(#SVGID_86_);stroke:#000000;stroke-miterlimit:10;}
	.st96{fill:url(#SVGID_87_);stroke:#000000;stroke-miterlimit:10;}
	.st97{fill:url(#SVGID_88_);stroke:#000000;stroke-miterlimit:10;}
	.st98{fill:url(#SVGID_89_);stroke:#000000;stroke-miterlimit:10;}
	.st99{fill:url(#SVGID_90_);stroke:#000000;stroke-miterlimit:10;}
	.st100{fill:url(#SVGID_91_);stroke:#000000;stroke-miterlimit:10;}
</style>
<g id="Слой_2">
</g>
<g id="Слой_1">
</g>
<g id="Слой_3">
</g>
<g id="Слой_5">
</g>
<g id="Слой_6">
</g>
<g id="Слой_4">
</g>
<g id="Слой_9">
</g>
<g id="Слой_10">
	<path class="st3" d="M101.12,11.6c0,0,8,1.5,11.93,6.76s7.06,11.01,4.92,9.44c-2.33-1.7-4.94-6.71-4.94-6.71s-9.07-6.76-12.21-7.25
		C92.45,12.52,101.12,11.6,101.12,11.6z"/>
	<radialGradient id="SVGID_1_" cx="88.1498" cy="22.2545" r="26.9846" fx="61.1963" fy="20.9596" gradientUnits="userSpaceOnUse">
		<stop  offset="0" style="stop-color:#31C8C5"/>
		<stop  offset="0.0673" style="stop-color:#4DAFAD"/>
		<stop  offset="0.1416" style="stop-color:#639A99"/>
		<stop  offset="0.222" style="stop-color:#738B8B"/>
		<stop  offset="0.3124" style="stop-color:#7D8383"/>
		<stop  offset="0.4331" style="stop-color:#808080"/>
		<stop  offset="0.6404" style="stop-color:#7E7E7E"/>
		<stop  offset="0.7325" style="stop-color:#777777"/>
		<stop  offset="0.8018" style="stop-color:#6A6A6A"/>
		<stop  offset="0.8598" style="stop-color:#585858"/>
		<stop  offset="0.9105" style="stop-color:#414141"/>
		<stop  offset="0.9556" style="stop-color:#242424"/>
		<stop  offset="0.9968" style="stop-color:#030303"/>
		<stop  offset="1" style="stop-color:#000000"/>
	</radialGradient>
	<path class="st1" d="M112.58,19.11c-1.5,1.74-1.4-2.32-7.66-2.28c-6.08,0.04-11.14-6.63-12.53-6.82c-1.27-0.17-11.24,2.69-12.08,6
		c-1.2,4.68,1,10.61,0.1,15.22c-0.96,4.9,1.92,6.29,1.92,6.29c0,5.5-16.13,5.77-16.13,3.02c0,0,1.07-9.47,2.29-15.03
		c0.8-3.64-1.64-11.01,3.44-15.79c1.45-1.36,3.07-5.48,9.02-7.94c5.34-2.21,16.19,0.35,16.2,0.36
		C110.38,6.29,117.81,13.02,112.58,19.11z"/>
	<path class="st26" d="M107.05,11.62c0,0,7.86,2.09,11.4,7.63c3.54,5.54,6.23,11.51,4.2,9.78c-2.2-1.87-4.43-7.06-4.43-7.06
		s-8.55-7.41-11.64-8.14C98.33,11.9,107.05,11.62,107.05,11.62z"/>
	<path class="st3" d="M19.15,15.14c0,0-3.44,0.59-6.58,6.36s-5.4,11.91-3.5,10.05c2.06-2.02,3.92-7.35,3.92-7.35
		s3.64-5.65,6.67-6.59C27.54,15.17,22.87,15.05,19.15,15.14z"/>
	<radialGradient id="SVGID_2_" cx="40.5362" cy="26.2179" r="32.6897" fx="56.9629" fy="51.946" gradientUnits="userSpaceOnUse">
		<stop  offset="0" style="stop-color:#31C8C5"/>
		<stop  offset="0.2852" style="stop-color:#699594"/>
		<stop  offset="0.4249" style="stop-color:#808080"/>
		<stop  offset="0.5744" style="stop-color:#7D7D7D"/>
		<stop  offset="0.673" style="stop-color:#747474"/>
		<stop  offset="0.7568" style="stop-color:#656565"/>
		<stop  offset="0.8324" style="stop-color:#505050"/>
		<stop  offset="0.9025" style="stop-color:#353535"/>
		<stop  offset="0.9675" style="stop-color:#141414"/>
		<stop  offset="1" style="stop-color:#000000"/>
	</radialGradient>
	<path style="fill:url(#SVGID_2_);stroke:#000000;stroke-miterlimit:10;" d="M16.9,19.72c2.23,0.57,3.13-1.76,10.57-3.48
		c2.24-0.52,3.17-7.32,4.2-8.27c4.24-3.9,16.14,3.44,17.32,8.04c1.19,4.68-1,10.61-0.1,15.22c0.96,4.9-1.9,8.11-1.9,8.11
		c0,5.5,16.11,3.95,16.11,1.2c0,0-1.07-9.46-2.29-15.03c-0.8-3.64,1.43-10.8-3.44-15.79c-3.1-3.18-4.45-4.51-12.5-7.53
		C30.51-3.18,15.73,7.96,15.72,7.96C11.98,12.58,9.12,17.73,16.9,19.72z"/>
	<path class="st26" d="M16.4,16.38c0,0-7.72,2.56-10.92,8.3s-5.53,11.86-3.61,10.01c2.08-2,3.99-7.31,3.99-7.31
		s8.09-7.91,11.13-8.82C25.11,16.13,16.4,16.38,16.4,16.38z"/>
	<linearGradient id="SVGID_3_" gradientUnits="userSpaceOnUse" x1="61.712" y1="82.2613" x2="61.712" y2="51.3598">
		<stop  offset="0" style="stop-color:#808080"/>
		<stop  offset="0.2327" style="stop-color:#7E8282"/>
		<stop  offset="0.3267" style="stop-color:#778888"/>
		<stop  offset="0.3957" style="stop-color:#6B9393"/>
		<stop  offset="0.4525" style="stop-color:#59A3A2"/>
		<stop  offset="0.5011" style="stop-color:#43B8B5"/>
		<stop  offset="0.5307" style="stop-color:#31C8C5"/>
		<stop  offset="0.5574" style="stop-color:#45B6B4"/>
		<stop  offset="0.5962" style="stop-color:#5BA2A1"/>
		<stop  offset="0.6422" style="stop-color:#6C9392"/>
		<stop  offset="0.699" style="stop-color:#778888"/>
		<stop  offset="0.7787" style="stop-color:#7E8282"/>
		<stop  offset="1" style="stop-color:#808080"/>
	</linearGradient>
	<path class="st8" d="M87.03,82.26H37.59c-5.62,0-11.14-1.83-14.99-6.25c-4.75-5.48,2.3-9.13,1.93-12.47
		c-0.74-6.48,5.94-12.18,13.06-12.18h49.44c7.12,0,15.42,3.56,13.94,10.53c-0.94,4.43,2.88,8.76,0.95,12.09
		C98.79,79.39,92.81,82.26,87.03,82.26z"/>
	<g>
		<g>
			<path d="M38.9,77.56c-1.45,0.49-2.98,0.22-4.31-0.39c-0.66-0.32-1.3-0.72-1.81-1.25c-0.51-0.53-0.88-1.2-1.16-1.87
				c-0.53-1.38-1.05-2.57-1.76-3.76l-0.54-0.9l-0.26-0.46l-0.13-0.23l-0.03-0.06l-0.02-0.03l-0.01-0.01l-0.03-0.27l-0.02-0.13
				c-0.1-0.7-0.16-1.42-0.11-2.12c0.17-2.83,1.02-5.64,2.6-7.94c0.78-1.15,1.67-2.21,2.68-3.14c1-0.93,2.1-1.77,3.36-2.37l0.2,0.22
				c-1.29,2.38-2.55,4.58-3.61,6.81c-1.02,2.24-2.14,4.39-2.67,6.76c-0.15,0.59-0.27,1.18-0.4,1.79l-0.02,0.11l0,0.01
				c-0.01-0.11,0.03,0.25-0.03-0.24l0,0.01l0,0.03l0,0.06l0,0.24l0.01,0.48c0.02,0.32,0.04,0.64,0.11,0.96
				c0.11,0.63,0.35,1.23,0.69,1.76c0.34,0.53,0.84,0.96,1.37,1.31c0.53,0.35,1.06,0.65,1.53,0.98c0.47,0.34,0.89,0.72,1.36,1.07
				c0.92,0.71,1.89,1.42,3.03,2.26L38.9,77.56z"/>
		</g>
		<g>
			<path d="M87.75,50.4c1.3,0.6,2.34,1.43,3.31,2.33c0.93,0.93,1.85,1.89,2.42,3.11c0.58,1.21,0.95,2.56,1.64,3.67
				c0.33,0.57,0.7,1.12,1.08,1.68c0.4,0.54,0.78,1.21,1.05,1.89c0.59,1.38,0.65,2.89,0.51,4.31c-0.14,1.43-0.48,2.82-1.09,4.09
				c-0.61,1.26-1.4,2.43-2.35,3.45c-0.96,1-2.07,1.92-3.41,2.4l-0.19-0.23c1.27-2.36,2.2-4.59,3.02-6.85
				c0.39-1.13,0.85-2.22,1.15-3.35c0.29-1.13,0.46-2.26,0.53-3.43c0.06-1.15-0.36-2.41-1.08-3.47c-0.69-1.08-1.82-1.86-2.78-2.73
				c-0.98-0.86-1.66-1.95-2.36-3.03c-0.67-1.11-1.28-2.27-1.68-3.63L87.75,50.4z"/>
		</g>
		<g>
			<path d="M53.46,78.83c-1.16-0.68-1.91-1.51-2.55-2.48c-0.31-0.48-0.61-1.03-0.7-1.72c-0.09-0.69,0.06-1.4,0.19-2
				c0.3-1.2,0.15-2.3-0.2-3.45c-0.21-1.07-0.44-2.14-0.6-3.24c-0.34-2.19-0.73-4.46-0.48-6.81c0.12-1.17,0.31-2.37,0.74-3.53
				c0.41-1.14,1.1-2.36,2.23-2.96l0.22,0.21c-0.42,1.06-0.44,2.08-0.43,3.12c0.03,1.04,0.11,2.1,0.22,3.17
				c0.24,2.14,0.28,4.34,0.24,6.63c-0.01,1.14-0.11,2.31-0.4,3.49c-0.43,1.09-0.68,2.24-0.23,3.28c0.21,0.52,0.56,0.92,0.85,1.29
				c0.29,0.37,0.49,0.83,0.69,1.35c0.39,1.03,0.68,2.19,0.5,3.53L53.46,78.83z"/>
		</g>
		<g>
			<path d="M67.5,51.62c1.14,0.68,2.24,1.3,3.28,2.15c1.04,0.83,1.98,1.82,2.75,2.95c0.76,1.14,1.16,2.49,1.43,3.81
				c0.28,1.32,0.6,2.57,0.99,3.82c0.34,1.26,1.01,2.45,1.4,3.77c0.34,1.32,0.47,2.76,0.25,4.27c-0.25,1.52-1.19,2.97-2.3,3.89
				c-1.12,0.93-2.33,1.52-3.67,1.9l-0.19-0.23c0.6-1.27,1.36-2.34,1.91-3.34c0.59-1,0.83-1.91,1.12-2.88
				c0.3-0.99,0.39-2.15,0.48-3.36c0.1-1.22,0.35-2.56,0.07-3.78c-0.09-0.63-0.3-1.22-0.51-1.81c-0.26-0.57-0.55-1.13-0.93-1.64
				c-0.72-1.03-1.59-1.92-2.27-2.89l-2.1-2.98c-0.7-1.03-1.52-2.11-1.94-3.47L67.5,51.62z"/>
		</g>
		<g>
			<path class="st28" d="M40.93,62.49c2.6,0.05,6.42,0.2,6.46,2.62c0.04,2.43-3.52,4.45-6.12,4.4c-2.6-0.05-6.26-1.3-6.3-3.73
				C34.93,63.35,38.33,62.44,40.93,62.49z"/>
			<path d="M40.93,62.34c0.65,0.02,1.31-0.05,1.98-0.16c0.68-0.12,1.38-0.28,2.13-0.3c0.75-0.02,1.57,0.08,2.39,0.66
				c0.4,0.29,0.79,0.73,1,1.26c0.22,0.53,0.24,1.1,0.16,1.58c-0.17,0.98-0.76,1.71-1.35,2.2c-0.6,0.51-1.24,0.84-1.85,1.18
				c-1.24,0.63-2.45,1.22-3.94,1.54c-1.45,0.26-2.92,0.24-4.37-0.26c-0.72-0.25-1.46-0.58-2.16-1.14c-0.69-0.54-1.39-1.44-1.54-2.56
				c-0.19-1.06,0.21-2.27,0.93-3.02c0.71-0.75,1.56-1.06,2.34-1.16C38.26,61.98,39.62,62.35,40.93,62.34z M40.93,62.64
				c-1.29-0.04-2.58,0.69-3.41,1.51c-0.42,0.4-0.72,0.79-0.84,1.06c-0.12,0.26-0.1,0.41-0.08,0.65c0.04,0.18,0.11,0.43,0.4,0.75
				c0.28,0.3,0.7,0.62,1.18,0.87c0.97,0.49,2.11,0.98,3.27,1.25c1.13,0.24,2.47-0.05,3.45-0.78c1.02-0.69,1.51-2.05,1.27-2.71
				c-0.13-0.37-0.17-0.34-0.38-0.58c-0.22-0.22-0.67-0.53-1.19-0.85c-0.52-0.31-1.12-0.62-1.75-0.84
				C42.23,62.75,41.58,62.65,40.93,62.64z"/>
		</g>
		<g>
			<path class="st28" d="M63.39,70.57c2.14-0.27,6.17-0.65,6.21-3.08s-3.52-4.45-6.12-4.4c-2.6,0.05-6.26,1.3-6.3,3.73
				C57.14,69.26,60.92,70.89,63.39,70.57z"/>
			<path d="M63.37,70.43c0.66-0.07,1.3-0.24,1.91-0.52c0.61-0.28,1.18-0.66,1.67-1.02c0.48-0.37,0.89-0.71,1.09-0.95
				c0.18-0.25,0.27-0.25,0.37-0.68c0.07-0.36-0.01-0.9-0.28-1.41c-0.27-0.51-0.7-0.98-1.23-1.32c-1.04-0.68-2.41-0.9-3.51-0.58
				c-1.18,0.33-2.32,0.8-3.25,1.33c-0.46,0.28-0.85,0.6-1.07,0.9c-0.21,0.32-0.26,0.49-0.27,0.7c-0.1,0.33,0.38,1.15,1.21,2.04
				C60.81,69.79,62.07,70.58,63.37,70.43z M63.41,70.72c-1.34,0.13-2.75,0.3-4.31,0.03c-0.77-0.15-1.55-0.46-2.23-1.08
				c-0.67-0.59-1.26-1.59-1.3-2.74c-0.05-1.12,0.5-2.23,1.19-2.87c0.68-0.67,1.43-1.06,2.16-1.35c1.46-0.58,2.95-0.69,4.41-0.46
				c1.54,0.24,2.78,0.85,4.03,1.46c0.62,0.32,1.26,0.65,1.87,1.13c0.6,0.46,1.24,1.11,1.5,2.06c0.13,0.46,0.17,1,0.03,1.55
				c-0.14,0.55-0.46,1.04-0.83,1.39c-0.75,0.69-1.58,0.91-2.34,0.97c-0.76,0.06-1.49-0.04-2.18-0.1
				C64.72,70.65,64.06,70.63,63.41,70.72z"/>
		</g>
		<g>
			<path class="st28" d="M87.15,63.27c3.44,0.87,6.17,0.56,6.21,2.99s-3.52,4.45-6.12,4.4c-2.6-0.05-6.26-1.3-6.3-3.73
				C80.9,64.49,84.16,62.51,87.15,63.27z"/>
			<path d="M87.19,63.12c0.64,0.17,1.3,0.21,1.98,0.15c0.68-0.06,1.37-0.2,2.12-0.22c0.73-0.01,1.62,0.05,2.51,0.86
				c0.42,0.41,0.72,1,0.79,1.53c0.08,0.52,0.03,0.99-0.11,1.47c-0.29,0.94-0.93,1.57-1.54,2.03c-0.62,0.46-1.26,0.79-1.88,1.12
				c-1.25,0.61-2.52,1.22-4.07,1.44c-1.46,0.21-2.96,0.09-4.43-0.53c-0.73-0.3-1.48-0.72-2.16-1.43c-0.68-0.68-1.16-1.88-1.05-2.95
				c0.09-1.07,0.61-2,1.25-2.63c0.65-0.65,1.45-1,2.24-1.17C84.44,62.49,85.88,62.81,87.19,63.12z M87.11,63.41
				c-1.28-0.34-2.63,0.31-3.39,1.18c-0.78,0.87-1.21,1.69-1.17,2.21c0.01,0.26,0.04,0.39,0.23,0.71c0.2,0.3,0.58,0.62,1.03,0.91
				c0.93,0.54,2.07,1.01,3.25,1.36c1.11,0.35,2.48,0.14,3.54-0.52c0.53-0.33,0.97-0.8,1.25-1.31c0.29-0.51,0.37-1.06,0.31-1.43
				c-0.03-0.17-0.1-0.38-0.16-0.5c-0.06-0.12-0.09-0.14-0.14-0.2c-0.07-0.13-0.52-0.45-1.06-0.77c-0.55-0.32-1.17-0.67-1.79-0.97
				C88.4,63.79,87.76,63.57,87.11,63.41z"/>
		</g>
		<g>
			<path d="M90.89,66.86c-0.65,0.42-1.31,0.63-1.96,0.79c-0.65,0.15-1.31,0.22-1.96,0.22c-0.65,0-1.31-0.06-1.96-0.21
				c-0.65-0.16-1.31-0.36-1.96-0.78c0.65-0.42,1.31-0.63,1.96-0.79c0.65-0.15,1.31-0.22,1.96-0.22c0.65,0,1.31,0.07,1.96,0.21
				C89.58,66.23,90.24,66.44,90.89,66.86z"/>
		</g>
		<g>
			<path d="M67.95,66.84c-0.65,0.42-1.31,0.63-1.96,0.79c-0.65,0.15-1.31,0.22-1.96,0.22c-0.65,0-1.31-0.06-1.96-0.21
				c-0.65-0.16-1.31-0.36-1.96-0.78c0.65-0.42,1.31-0.63,1.96-0.79c0.65-0.15,1.31-0.22,1.96-0.22c0.65,0,1.31,0.07,1.96,0.21
				C66.64,66.22,67.29,66.43,67.95,66.84z"/>
		</g>
		<g>
			<path d="M44.85,65.99c-0.65,0.42-1.31,0.63-1.96,0.79C42.24,66.93,41.59,67,40.93,67c-0.65,0-1.31-0.06-1.96-0.21
				c-0.65-0.16-1.31-0.36-1.96-0.78c0.65-0.42,1.31-0.63,1.96-0.79c0.65-0.15,1.31-0.22,1.96-0.22c0.65,0,1.31,0.07,1.96,0.21
				C43.54,65.37,44.2,65.58,44.85,65.99z"/>
		</g>
		<path d="M24.09,64.9c0,0,0.35,1.86,0.35,3.9c0,5.4-2.88,0.76-2.88,0.76L24.09,64.9z"/>
	</g>
	<g>
		<linearGradient id="SVGID_4_" gradientUnits="userSpaceOnUse" x1="62.3656" y1="59.7111" x2="62.3656" y2="27.0241">
			<stop  offset="3.723938e-03" style="stop-color:#000000"/>
			<stop  offset="0.0574" style="stop-color:#1D0E05"/>
			<stop  offset="0.111" style="stop-color:#311908"/>
			<stop  offset="0.1639" style="stop-color:#3E1F0A"/>
			<stop  offset="0.2148" style="stop-color:#42210B"/>
			<stop  offset="0.4312" style="stop-color:#5A2D0F"/>
			<stop  offset="0.6089" style="stop-color:#713813"/>
			<stop  offset="0.8225" style="stop-color:#89441D"/>
			<stop  offset="1" style="stop-color:#984C24"/>
		</linearGradient>
		<path style="fill:url(#SVGID_4_);stroke:#000000;stroke-width:0.5;stroke-miterlimit:10;" d="M90.12,29.53
			c-12,2.18-11.09,5.28-15.41,4.82c-16.68-1.78-16.93,5.2-25.66-0.68c-2.93-1.97-8.91-11.91-19.61-2.96
			c-6,5.02-8.96,7.64-10.69,16.1c-4.12,20.22,6.64,11.96,16.83,6.59c4.77-2.51,9.31,3.84,14.93-0.15c0,0,3.07,4.51,8,3.25
			c6.25-1.59,8.69-5.14,8.69-5.14s2.23,4.15,9.81,4.13c3.35-0.01,8.01-5.93,12.28-2.68c14.78,11.26,16.15-3.72,17.41-12.49
			C108.14,30.37,101.18,27.52,90.12,29.53z"/>
		<g>
			<path d="M36.4,52.91c0.98-1.38,1.76-2.9,2.2-4.47c0.46-1.56,0.65-3.17,0.48-4.71c0-0.39-0.13-0.77-0.21-1.14
				c-0.09-0.38-0.18-0.74-0.34-1.1c-0.14-0.36-0.25-0.72-0.35-1.08c-0.15-0.35-0.26-0.72-0.37-1.09c-0.08-0.38-0.21-0.76-0.35-1.13
				c-0.13-0.38-0.25-0.77-0.35-1.18c-0.27-0.79-0.56-1.59-0.71-2.56l0.23-0.19c0.83,0.43,1.6,0.98,2.27,1.63
				c0.32,0.34,0.61,0.7,0.9,1.07l0.42,0.56c0.12,0.2,0.22,0.41,0.34,0.62c1.01,1.64,0.99,3.71,0.92,5.56
				c-0.05,0.47-0.07,0.94-0.15,1.4l-0.3,1.37l-0.46,1.31c-0.18,0.42-0.39,0.83-0.58,1.24c-0.88,1.59-1.99,3.01-3.38,4.11L36.4,52.91
				z"/>
		</g>
		<g>
			<path d="M101.11,49.02c0.63-1.98,1.14-4,1.41-6.03c0.28-2.01,0.36-4.05,0.06-5.92c-0.17-0.94-0.48-1.81-0.93-2.56
				c-0.43-0.75-0.9-1.41-1.44-2.05c-1.07-1.31-2.74-2.26-4.65-3.39l0.04-0.3c1.1-0.24,2.26-0.3,3.4-0.03
				c0.59,0.08,1.13,0.33,1.7,0.55c0.54,0.28,1.08,0.59,1.57,0.99c0.97,0.79,1.72,1.89,2.11,3.05c0.39,1.17,0.56,2.35,0.59,3.49
				c0.09,2.29-0.33,4.46-0.98,6.51c-0.68,2.04-1.51,4-2.6,5.82L101.11,49.02z"/>
		</g>
		<g>
			<path d="M88.43,52.59c-0.99-1.3-1.8-2.72-2.56-4.19c-0.73-1.48-1.34-3.04-1.7-4.74c-0.18-0.84-0.36-1.72-0.39-2.66
				c-0.03-0.93,0.15-1.92,0.63-2.82c0.47-0.89,1.22-1.69,2.11-2.13c0.88-0.46,1.83-0.61,2.74-0.46l0.09,0.29
				c-0.61,0.66-1.11,1.23-1.47,1.79c-0.35,0.57-0.56,1.12-0.71,1.7c-0.15,0.58-0.28,1.18-0.42,1.84c-0.15,0.66-0.23,1.39-0.19,2.13
				c0.08,1.48,0.36,3.02,0.73,4.54c0.35,1.54,0.86,3.05,1.41,4.56L88.43,52.59z"/>
		</g>
		<g>
			<path d="M21.48,55.65c-0.38-2.9-0.41-5.84-0.26-8.78c0.17-2.94,0.64-5.89,1.52-8.79c0.44-1.45,0.98-2.88,1.65-4.29
				c0.68-1.4,1.63-2.7,2.82-3.78c1.19-1.06,2.56-1.95,4.06-2.48c1.5-0.52,3.07-0.71,4.58-0.54l0.05,0.3
				c-1.35,0.67-2.57,1.34-3.67,2.12c-1.08,0.8-2.04,1.7-2.88,2.7c-0.85,0.99-1.64,2.04-2.38,3.16c-0.76,1.11-1.42,2.33-1.97,3.61
				c-1.04,2.58-1.78,5.34-2.29,8.16c-0.53,2.81-0.82,5.69-0.93,8.58L21.48,55.65z"/>
		</g>
		<g>
			<path d="M67.09,51.26c0.74-1.14,1.46-2.29,2.04-3.49c0.6-1.18,1.14-2.38,1.49-3.58c0.18-0.6,0.26-1.21,0.27-1.78
				c0.02-0.57,0.06-1.08,0.1-1.58c0.12-1.01,0.02-1.98-0.48-3.49l0.19-0.23c1.6,0.19,3.01,1.73,3.28,3.46
				c0.16,0.85,0.07,1.71-0.19,2.46c-0.26,0.76-0.62,1.43-0.96,2.09c-0.68,1.32-1.54,2.46-2.48,3.51c-0.96,1.03-1.95,2.01-3.06,2.84
				L67.09,51.26z"/>
		</g>
		<g>
			<path d="M50.43,53.12c0.96-0.88,1.8-1.89,2.38-3c0.6-1.09,0.98-2.24,1.09-3.39c0.06-0.28,0.02-0.58,0.01-0.86
				c-0.01-0.29-0.03-0.57-0.11-0.85c-0.05-0.28-0.08-0.56-0.1-0.84c-0.05-0.28-0.07-0.56-0.08-0.85c0.03-0.59-0.09-1.18-0.03-1.84
				c-0.03-0.64-0.05-1.32,0.08-2.11l0.27-0.14c0.65,0.42,1.19,0.95,1.64,1.54c0.21,0.3,0.39,0.63,0.57,0.96
				c0.18,0.33,0.33,0.67,0.42,1.04c0.55,1.44,0.09,3.07-0.33,4.48c-0.13,0.35-0.24,0.71-0.39,1.05l-0.51,0.99l-0.63,0.9
				c-0.23,0.28-0.47,0.55-0.7,0.82c-1.01,1.01-2.15,1.84-3.43,2.36L50.43,53.12z"/>
		</g>
	</g>
	<g>
		<linearGradient id="SVGID_5_" gradientUnits="userSpaceOnUse" x1="60.3801" y1="99.5615" x2="60.3801" y2="74.744">
			<stop  offset="3.723938e-03" style="stop-color:#000000"/>
			<stop  offset="0.115" style="stop-color:#160B04"/>
			<stop  offset="0.3016" style="stop-color:#361B09"/>
			<stop  offset="0.405" style="stop-color:#42210B"/>
			<stop  offset="0.4959" style="stop-color:#4C260D"/>
			<stop  offset="0.8482" style="stop-color:#713813"/>
			<stop  offset="0.9311" style="stop-color:#89441D"/>
			<stop  offset="1" style="stop-color:#984C24"/>
		</linearGradient>
		<path style="fill:url(#SVGID_5_);stroke:#000000;stroke-width:0.5;stroke-miterlimit:10;" d="M93.88,98.65
			c-6.9-0.38-10.91,1.22-17.46,0c-6.6-1.23-11.91,0.94-18.15,0.92c-5.07-0.02-10.06-1.87-16.1-0.68c-4.5,0.88-6.95-1.21-10.24-0.78
			c-15.12,1.94-15.8,0.32-18.41-7.09c-1.8-5.11-1.88-21.77,22.94-13.49c3.07,1.02,9.59-2.29,13.91-0.1
			c4.63,2.35,3.25,2.2,14.47,0.51c3.29-0.5,3.52-0.15,9.34,0.42c3.78,0.37,11.04,0.83,15.2-0.84c21.76-8.73,19.15,5.5,17.46,10.73
			C105.09,93.66,100.22,99,93.88,98.65z"/>
		<g>
			<path d="M36.62,96.25c0.87-1.51,1.46-3.3,1.96-5.01c0.5-1.72,0.89-3.47,1.08-5.18c0.09-0.86,0.06-1.71-0.05-2.51
				c-0.1-0.8-0.2-1.53-0.35-2.21c-0.15-0.69-0.37-1.31-0.77-1.94c-0.41-0.62-1.03-1.21-1.8-1.84l0.07-0.29
				c1-0.19,2.1-0.04,3.09,0.52c1,0.55,1.8,1.52,2.24,2.56c0.45,1.05,0.57,2.15,0.48,3.18c-0.1,1.03-0.32,2.01-0.56,2.95
				c-0.47,1.89-1.19,3.65-2.05,5.32c-0.44,0.83-0.91,1.64-1.41,2.43c-0.52,0.79-1,1.56-1.74,2.24L36.62,96.25z"/>
		</g>
		<g>
			<path d="M102.62,94.91c0.88-1.66,1.45-3.54,1.93-5.37c0.48-1.84,0.83-3.71,0.99-5.54c0.07-0.91,0.02-1.83-0.1-2.68
				c-0.12-0.86-0.23-1.66-0.39-2.41c-0.16-0.75-0.41-1.44-0.83-2.11c-0.43-0.67-1.08-1.29-1.9-1.93l0.07-0.29
				c1.05-0.19,2.22,0.02,3.24,0.65c1.03,0.61,1.82,1.64,2.27,2.72c0.46,1.09,0.59,2.23,0.52,3.31c-0.08,1.08-0.29,2.11-0.5,3.11
				c-0.44,2-1.12,3.89-1.95,5.69c-0.43,0.9-0.89,1.77-1.39,2.63c-0.51,0.85-1.01,1.69-1.73,2.43L102.62,94.91z"/>
		</g>
		<g>
			<path d="M90.07,96.61c-1.03-1.58-1.82-3.29-2.53-5.06c-0.68-1.78-1.17-3.65-1.37-5.63c-0.1-0.99-0.16-2-0.09-3.04
				c0.07-1.04,0.35-2.09,0.9-3.04c1.05-1.9,2.98-3.3,5.03-3.47l0.15,0.26c-0.58,0.84-1.09,1.55-1.51,2.28
				c-0.39,0.74-0.7,1.46-0.95,2.19c-0.25,0.73-0.46,1.48-0.69,2.26c-0.23,0.78-0.4,1.62-0.44,2.49c-0.06,1.73,0.1,3.52,0.42,5.3
				c0.29,1.79,0.77,3.57,1.35,5.32L90.07,96.61z"/>
		</g>
		<g>
			<path d="M17.78,94.43c-0.94-0.29-1.74-0.85-2.5-1.49c-0.74-0.66-1.38-1.45-1.9-2.31c-0.5-0.86-1.19-1.74-1.15-2.78
				c0-1.02,0.25-2.05,1.05-2.98l0.3,0c0.46,0.44,0.74,0.85,0.98,1.25c0.28,0.39,0.44,0.78,0.62,1.16c0.17,0.38,0.24,0.76,0.27,1.17
				c0,0.42,0.05,0.82,0.14,1.23c0.21,0.79,0.49,1.57,0.87,2.33c0.36,0.78,0.86,1.51,1.47,2.16L17.78,94.43z"/>
		</g>
		<g>
			<path d="M27.36,90.8c-1.22-1.03-2.33-2.15-3.45-3.29c-1.1-1.15-2.15-2.36-3.11-3.67c-0.95-1.3-2.14-2.56-2.49-4.4
				c-0.17-0.89-0.27-1.94,0.24-3.04c0.28-0.54,0.75-1.02,1.28-1.2c0.26-0.11,0.52-0.11,0.76-0.14c0.24,0.01,0.48,0.06,0.7,0.12
				l0.05,0.3l-0.44,0.42c-0.1,0.16-0.23,0.27-0.27,0.42c-0.13,0.25-0.08,0.49-0.05,0.68c0.11,0.43,0.33,0.98,0.61,1.58
				c0.27,0.59,0.55,1.24,0.8,1.93c0.24,0.69,0.51,1.4,0.86,2.08c0.7,1.35,1.47,2.7,2.27,4.03c0.78,1.35,1.64,2.67,2.48,4L27.36,90.8
				z"/>
		</g>
		<g>
			<path d="M73.55,95.4c0.74-1.6,1.37-3.25,1.77-4.93c0.43-1.66,0.66-3.35,0.53-4.92c-0.07-0.78-0.29-1.52-0.6-2.16
				c-0.31-0.64-0.64-1.21-1.03-1.79c-0.73-1.21-1.95-2.25-3.36-3.59l0.09-0.29c0.98-0.11,1.97-0.03,2.92,0.31
				c0.96,0.3,1.88,0.86,2.64,1.63c0.76,0.76,1.32,1.76,1.56,2.81c0.23,1.05,0.24,2.09,0.17,3.07c-0.13,1.98-0.73,3.79-1.53,5.45
				c-0.82,1.65-1.77,3.19-2.93,4.58L73.55,95.4z"/>
		</g>
		<g>
			<path d="M50.98,94.91c0.77-1.32,1.49-2.66,2.07-4.04c0.59-1.37,1.09-2.77,1.38-4.14c0.29-1.4,0.08-2.73,0.07-3.89
				c-0.02-0.6-0.09-1.19-0.24-1.84c-0.17-0.64-0.43-1.31-0.75-2.12l0.18-0.24c1.74,0.27,3.26,1.8,3.75,3.64
				c0.26,0.9,0.27,1.85,0.08,2.71c-0.2,0.86-0.5,1.66-0.8,2.43c-0.6,1.54-1.44,2.92-2.37,4.19c-0.96,1.25-1.97,2.44-3.14,3.48
				L50.98,94.91z"/>
		</g>
	</g>
</g>
<g id="Слой_11">
</g>
<g id="Слой_8">
</g>
<g id="Слой_7">
</g>
<g id="Слой_12">
</g>
<g id="Слой_13">
</g>
<g id="Слой_14">
</g>
<g id="Слой_15">
</g>
</svg>
