<?xml version="1.0" encoding="utf-8"?>
<!-- Generator: Adobe Illustrator 24.0.2, SVG Export Plug-In . SVG Version: 6.00 Build 0)  -->
<svg version="1.1" xmlns="http://www.w3.org/2000/svg" xmlns:xlink="http://www.w3.org/1999/xlink" x="0px" y="0px"
	 viewBox="0 0 125 100" style="enable-background:new 0 0 125 100;" xml:space="preserve">
<style type="text/css">
	.st0{stroke:#000000;stroke-width:0.25;stroke-miterlimit:10;}
	.st1{fill:url(#SVGID_1_);stroke:#000000;stroke-miterlimit:10;}
	.st2{fill:#808080;stroke:#000000;stroke-miterlimit:10;}
	.st3{fill:#31C8C5;stroke:#000000;stroke-miterlimit:10;}
	.st4{fill:#F9F912;stroke:#000000;stroke-miterlimit:10;}
	.st5{fill:#31C8C5;stroke:#31C8C5;stroke-width:0.25;stroke-miterlimit:10;}
	.st6{stroke:#31C8C5;stroke-miterlimit:10;}
	.st7{fill:url(#SVGID_2_);}
	.st8{fill:url(#SVGID_3_);stroke:#000000;stroke-miterlimit:10;}
	.st9{fill:url(#SVGID_4_);}
	.st10{fill:url(#SVGID_5_);stroke:#000000;stroke-miterlimit:10;}
	.st11{fill:url(#SVGID_6_);}
	.st12{fill:url(#SVGID_7_);stroke:#000000;stroke-miterlimit:10;}
	.st13{fill:url(#SVGID_8_);}
	.st14{fill:url(#SVGID_9_);stroke:#000000;stroke-miterlimit:10;}
	.st15{fill:url(#SVGID_10_);}
	.st16{fill:url(#SVGID_11_);stroke:#000000;stroke-miterlimit:10;}
	.st17{fill:url(#SVGID_12_);}
	.st18{fill:url(#SVGID_13_);stroke:#000000;stroke-miterlimit:10;}
	.st19{fill:url(#SVGID_14_);}
	.st20{fill:url(#SVGID_15_);stroke:#000000;stroke-miterlimit:10;}
	.st21{fill:url(#SVGID_16_);}
	.st22{fill:url(#SVGID_17_);stroke:#000000;stroke-miterlimit:10;}
	.st23{fill:url(#SVGID_18_);}
	.st24{fill:url(#SVGID_19_);stroke:#000000;stroke-miterlimit:10;}
	.st25{fill:url(#SVGID_20_);stroke:#000000;stroke-miterlimit:10;}
	.st26{fill:#984C24;stroke:#000000;stroke-miterlimit:10;}
	.st27{fill:url(#SVGID_21_);stroke:#000000;stroke-miterlimit:10;}
	.st28{fill:#F9F912;}
	.st29{fill:url(#SVGID_22_);stroke:#000000;stroke-width:0.5;stroke-miterlimit:10;}
	.st30{fill:url(#SVGID_23_);stroke:#000000;stroke-width:0.5;stroke-miterlimit:10;}
	.st31{fill:url(#SVGID_24_);stroke:#000000;stroke-miterlimit:10;}
	.st32{fill:url(#SVGID_25_);stroke:#000000;stroke-miterlimit:10;}
	.st33{fill:url(#SVGID_26_);stroke:#000000;stroke-miterlimit:10;}
	.st34{fill:url(#SVGID_27_);stroke:#000000;stroke-width:0.5;stroke-miterlimit:10;}
	.st35{fill:url(#SVGID_28_);stroke:#000000;stroke-width:0.5;stroke-miterlimit:10;}
	.st36{fill:url(#SVGID_29_);stroke:#000000;stroke-miterlimit:10;}
	.st37{fill:url(#SVGID_30_);stroke:#000000;stroke-miterlimit:10;}
	.st38{fill:url(#SVGID_31_);stroke:#000000;stroke-miterlimit:10;}
	.st39{fill:url(#SVGID_32_);stroke:#000000;stroke-width:0.5;stroke-miterlimit:10;}
	.st40{fill:url(#SVGID_33_);stroke:#000000;stroke-width:0.5;stroke-miterlimit:10;}
	.st41{fill:url(#SVGID_34_);stroke:#000000;stroke-miterlimit:10;}
	.st42{fill:url(#SVGID_35_);stroke:#000000;stroke-miterlimit:10;}
	.st43{fill:url(#SVGID_36_);stroke:#000000;stroke-miterlimit:10;}
	.st44{fill:url(#SVGID_37_);stroke:#000000;stroke-width:0.5;stroke-miterlimit:10;}
	.st45{fill:url(#SVGID_38_);stroke:#000000;stroke-width:0.5;stroke-miterlimit:10;}
	.st46{fill:url(#SVGID_39_);stroke:#000000;stroke-miterlimit:10;}
	.st47{fill:url(#SVGID_40_);stroke:#000000;stroke-miterlimit:10;}
	.st48{fill:url(#SVGID_41_);stroke:#000000;stroke-miterlimit:10;}
	.st49{fill:url(#SVGID_42_);stroke:#000000;stroke-width:0.5;stroke-miterlimit:10;}
	.st50{fill:url(#SVGID_43_);stroke:#000000;stroke-width:0.5;stroke-miterlimit:10;}
	.st51{fill:url(#SVGID_44_);stroke:#000000;stroke-miterlimit:10;}
	.st52{fill:url(#SVGID_45_);stroke:#000000;stroke-miterlimit:10;}
	.st53{fill:url(#SVGID_46_);stroke:#000000;stroke-miterlimit:10;}
	.st54{fill:url(#SVGID_47_);stroke:#000000;stroke-miterlimit:10;}
	.st55{display:none;fill:url(#SVGID_48_);stroke:#000000;stroke-miterlimit:10;}
	.st56{display:none;fill:url(#SVGID_49_);stroke:#000000;stroke-miterlimit:10;}
	.st57{fill:url(#SVGID_50_);stroke:#000000;stroke-miterlimit:10;}
	.st58{fill:url(#SVGID_51_);stroke:#000000;stroke-miterlimit:10;}
	.st59{stroke:#F9F912;stroke-miterlimit:10;}
	.st60{fill:url(#SVGID_52_);stroke:#000000;stroke-miterlimit:10;}
	.st61{fill:url(#SVGID_53_);stroke:#000000;stroke-miterlimit:10;}
	.st62{fill:url(#SVGID_54_);stroke:#000000;stroke-miterlimit:10;}
	.st63{fill:url(#SVGID_55_);stroke:#000000;stroke-miterlimit:10;}
	.st64{display:none;fill:#984C24;stroke:#000000;stroke-miterlimit:10;}
	.st65{fill:url(#SVGID_56_);stroke:#000000;stroke-miterlimit:10;}
	.st66{fill:url(#SVGID_57_);stroke:#000000;stroke-miterlimit:10;}
	.st67{fill:url(#SVGID_58_);stroke:#000000;stroke-miterlimit:10;}
	.st68{fill:url(#SVGID_59_);stroke:#000000;stroke-miterlimit:10;}
	.st69{fill:url(#SVGID_60_);stroke:#000000;stroke-miterlimit:10;}
	.st70{fill:url(#SVGID_61_);stroke:#000000;stroke-miterlimit:10;}
	.st71{fill:url(#SVGID_62_);stroke:#000000;stroke-miterlimit:10;}
	.st72{fill:url(#SVGID_63_);stroke:#000000;stroke-miterlimit:10;}
	.st73{display:none;fill:url(#SVGID_64_);stroke:#000000;stroke-miterlimit:10;}
	.st74{display:none;fill:url(#SVGID_65_);stroke:#000000;stroke-miterlimit:10;}
	.st75{fill:url(#SVGID_66_);stroke:#000000;stroke-miterlimit:10;}
	.st76{fill:url(#SVGID_67_);stroke:#000000;stroke-miterlimit:10;}
	.st77{fill:url(#SVGID_68_);stroke:#000000;stroke-miterlimit:10;}
	.st78{fill:url(#SVGID_69_);stroke:#000000;stroke-miterlimit:10;}
	.st79{fill:url(#SVGID_70_);stroke:#000000;stroke-miterlimit:10;}
	.st80{fill:url(#SVGID_71_);stroke:#000000;stroke-miterlimit:10;}
	.st81{fill:url(#SVGID_72_);stroke:#000000;stroke-miterlimit:10;}
	.st82{fill:url(#SVGID_73_);stroke:#000000;stroke-miterlimit:10;}
	.st83{fill:url(#SVGID_74_);stroke:#000000;stroke-miterlimit:10;}
	.st84{fill:url(#SVGID_75_);stroke:#000000;stroke-miterlimit:10;}
	.st85{fill:url(#SVGID_76_);stroke:#000000;stroke-miterlimit:10;}
	.st86{fill:url(#SVGID_77_);stroke:#000000;stroke-miterlimit:10;}
	.st87{fill:url(#SVGID_78_);stroke:#000000;stroke-miterlimit:10;}
	.st88{fill:url(#SVGID_79_);stroke:#000000;stroke-miterlimit:10;}
	.st89{display:none;fill:url(#SVGID_80_);stroke:#000000;stroke-miterlimit:10;}
	.st90{display:none;fill:url(#SVGID_81_);stroke:#000000;stroke-miterlimit:10;}
	.st91{fill:url(#SVGID_82_);stroke:#000000;stroke-miterlimit:10;}
	.st92{fill:url(#SVGID_83_);stroke:#000000;stroke-miterlimit:10;}
	.st93{fill:url(#SVGID_84_);stroke:#000000;stroke-miterlimit:10;}
	.st94{fill:url(#SVGID_85_);stroke:#000000;stroke-miterlimit:10;}
	.st95{fill:url(#SVGID_86_);stroke:#000000;stroke-miterlimit:10;}
	.st96{fill:url(#SVGID_87_);stroke:#000000;stroke-miterlimit:10;}
	.st97{fill:url(#SVGID_88_);stroke:#000000;stroke-miterlimit:10;}
	.st98{fill:url(#SVGID_89_);stroke:#000000;stroke-miterlimit:10;}
	.st99{fill:url(#SVGID_90_);stroke:#000000;stroke-miterlimit:10;}
	.st100{fill:url(#SVGID_91_);stroke:#000000;stroke-miterlimit:10;}
</style>
<g id="Слой_2">
</g>
<g id="Слой_1">
</g>
<g id="Слой_3">
</g>
<g id="Слой_5">
</g>
<g id="Слой_6">
</g>
<g id="Слой_4">
</g>
<g id="Слой_9">
</g>
<g id="Слой_10">
</g>
<g id="Слой_11">
</g>
<g id="Слой_8">
	<path class="st3" d="M98.49,5.26c0,0,8.11-0.7,13.31,3.32c5.2,4.01,9.76,8.71,7.27,7.78c-2.7-1.02-6.56-5.14-6.56-5.14
		s-10.55-4.08-13.7-3.71C90.38,8.48,98.49,5.26,98.49,5.26z"/>
	<radialGradient id="SVGID_1_" cx="83.4169" cy="22.9712" r="21.7359" fx="61.7468" fy="24.6609" gradientUnits="userSpaceOnUse">
		<stop  offset="0" style="stop-color:#31C8C5"/>
		<stop  offset="0.0673" style="stop-color:#4DAFAD"/>
		<stop  offset="0.1416" style="stop-color:#639A99"/>
		<stop  offset="0.222" style="stop-color:#738B8B"/>
		<stop  offset="0.3124" style="stop-color:#7D8383"/>
		<stop  offset="0.4331" style="stop-color:#808080"/>
		<stop  offset="0.6404" style="stop-color:#7E7E7E"/>
		<stop  offset="0.7325" style="stop-color:#777777"/>
		<stop  offset="0.8018" style="stop-color:#6A6A6A"/>
		<stop  offset="0.8598" style="stop-color:#585858"/>
		<stop  offset="0.9105" style="stop-color:#414141"/>
		<stop  offset="0.9556" style="stop-color:#242424"/>
		<stop  offset="0.9968" style="stop-color:#030303"/>
		<stop  offset="1" style="stop-color:#000000"/>
	</radialGradient>
	<path class="st1" d="M109.16,9.8c-3.72,3-3.58,2.11-6.84,2.69c-4.43,0.78-9.56-1.48-9.97-2.37c-0.53-1.16-11.24,2.69-12.08,6
		c-1.2,4.68,1,10.61,0.1,15.22c-0.96,4.9,1.92,6.29,1.92,6.29c0,5.5-16.13,5.77-16.13,3.02c0,0,1.07-9.47,2.29-15.03
		c0.8-3.64-1.64-11.01,3.44-15.79c1.45-1.36,6.18-7.88,14.36-8.94c5.73-0.74,11.35,0.34,11.36,0.35
		C107.37,2.54,114.85,5.22,109.16,9.8z"/>
	<path class="st26" d="M102.5,5.54c0,0,7.95-1.72,13.62,1.61c5.67,3.32,10.78,7.41,8.19,6.8c-2.81-0.67-7.15-4.27-7.15-4.27
		s-10.98-2.71-14.06-1.95C94.87,9.75,102.5,5.54,102.5,5.54z"/>
	<path class="st3" d="M25.01,8.19c0,0-3.07-1.65-9.1,0.96s-11.59,6.06-8.95,5.76c2.87-0.32,7.61-3.38,7.61-3.38s6.35-2.21,9.31-1.09
		C31.61,13.37,28.01,10.41,25.01,8.19z"/>
	
		<radialGradient id="SVGID_2_" cx="38.5804" cy="26.2783" r="30.7471" fx="54.0309" fy="50.4775" gradientTransform="matrix(0.8147 0 0 1 11.6873 1.721003e-05)" gradientUnits="userSpaceOnUse">
		<stop  offset="0" style="stop-color:#31C8C5"/>
		<stop  offset="0.2852" style="stop-color:#699594"/>
		<stop  offset="0.4249" style="stop-color:#808080"/>
		<stop  offset="0.5744" style="stop-color:#7D7D7D"/>
		<stop  offset="0.673" style="stop-color:#747474"/>
		<stop  offset="0.7568" style="stop-color:#656565"/>
		<stop  offset="0.8324" style="stop-color:#505050"/>
		<stop  offset="0.9025" style="stop-color:#353535"/>
		<stop  offset="0.9675" style="stop-color:#141414"/>
		<stop  offset="1" style="stop-color:#000000"/>
	</radialGradient>
	<path style="fill:url(#SVGID_2_);stroke:#000000;stroke-miterlimit:10;" d="M20.74,12.36c1.81,0.57,3.52,2.14,9.63,0.62
		c5.47-1.35,4.63-3.52,5.47-4.46c3.45-3.9,14.77,3,15.72,7.59c0.97,4.68-0.81,10.61-0.08,15.22c0.78,4.9-1.55,8.11-1.55,8.11
		c0,5.5,13.12,3.95,13.12,1.2c0,0-0.88-9.46-1.87-15.03c-0.65-3.64,1.34-11.01-2.81-15.79c-1.78-2.05-8.32-7.09-14.12-8.27
		c-8.88-1.82-17.3,0-17.31,0C19.43,1.54,14.4,10.36,20.74,12.36z"/>
	<path class="st26" d="M24.08,7.47c0,0-7.66-2.74-13.71-0.18s-11.65,5.94-9.01,5.67c2.87-0.3,7.65-3.31,7.65-3.31
		s11.24-1.26,14.2-0.1C31.11,12.64,24.08,7.47,24.08,7.47z"/>
	<linearGradient id="SVGID_3_" gradientUnits="userSpaceOnUse" x1="61.7486" y1="82.358" x2="61.7486" y2="43.3402">
		<stop  offset="0" style="stop-color:#808080"/>
		<stop  offset="0.2327" style="stop-color:#7E8282"/>
		<stop  offset="0.3267" style="stop-color:#778888"/>
		<stop  offset="0.3957" style="stop-color:#6B9393"/>
		<stop  offset="0.4525" style="stop-color:#59A3A2"/>
		<stop  offset="0.5011" style="stop-color:#43B8B5"/>
		<stop  offset="0.5307" style="stop-color:#31C8C5"/>
		<stop  offset="0.5574" style="stop-color:#45B6B4"/>
		<stop  offset="0.5962" style="stop-color:#5BA2A1"/>
		<stop  offset="0.6422" style="stop-color:#6C9392"/>
		<stop  offset="0.699" style="stop-color:#778888"/>
		<stop  offset="0.7787" style="stop-color:#7E8282"/>
		<stop  offset="1" style="stop-color:#808080"/>
	</linearGradient>
	<path class="st8" d="M87,82.36H37.56c-5.62,0-11.14-2.31-14.99-7.89c-4.75-6.91,1.06-14.74-0.08-17.67
		c-2.93-7.5,7.95-13.45,15.07-13.45H87c7.12,0,14.83,2.69,15.01,11.66c0.18,8.97,1.8,12.7-0.12,16.9
		C98.76,78.74,92.78,82.36,87,82.36z"/>
	<g>
		<g>
			<path d="M38.13,78.17c-1.79,0.49-3.7,0.05-5.32-0.9c-0.79-0.49-1.54-1.11-2.1-1.87c-0.56-0.76-0.9-1.66-1.12-2.54
				c-0.38-1.8-0.68-3.42-1.12-5.1c-0.19-0.84-0.45-1.69-0.56-2.56c-0.1-0.86-0.15-1.74-0.1-2.61c0.17-3.48,1.02-6.99,2.75-10.01
				c0.85-1.52,1.85-2.94,2.99-4.23c1.14-1.29,2.4-2.47,3.87-3.39l0.21,0.21c-1.65,2.94-3.13,5.8-4.35,8.74
				c-1.18,2.93-2.35,5.85-2.89,8.97c-0.15,0.78-0.28,1.56-0.4,2.35c-0.13,0.79-0.31,1.6-0.34,2.41c-0.02,0.81,0.05,1.62,0.31,2.39
				c0.25,0.76,0.68,1.47,1.2,2.06c0.52,0.6,1.08,1.11,1.59,1.62c0.51,0.51,0.99,1.03,1.54,1.5c1.1,0.95,2.36,1.81,3.86,2.67
				L38.13,78.17z"/>
		</g>
		<g>
			<path d="M87.09,44.96c1.49,0.73,2.73,1.76,3.89,2.87c1.13,1.14,2.17,2.37,2.99,3.76c0.82,1.4,1.25,3.01,1.69,4.56
				c0.42,1.56,0.92,3.04,1.35,4.61c0.38,1.56,0.95,3.18,0.91,4.88c-0.03,1.68-0.31,3.4-0.91,4.99c-0.63,1.58-1.6,2.98-2.7,4.19
				c-1.12,1.21-2.37,2.24-3.81,3.05l-0.23-0.2c0.6-1.54,1.33-2.91,1.98-4.27c0.66-1.35,1.23-2.67,1.76-3.98
				c0.55-1.3,1.03-2.63,1.32-4.05c0.28-1.4,0.68-2.91,0.58-4.42c-0.12-1.5-0.59-2.99-1.43-4.28c-0.82-1.3-1.9-2.42-2.76-3.64
				c-1.67-2.5-3.35-4.99-4.85-7.85L87.09,44.96z"/>
		</g>
		<g>
			<path d="M54.1,80.1c-1.13-1.12-1.92-2.27-2.68-3.44c-0.37-0.6-0.75-1.17-1.04-1.87c-0.29-0.69-0.45-1.51-0.5-2.31
				c-0.03-1.63-0.05-3.04-0.33-4.51c-0.3-1.51-0.51-2.81-0.77-4.2c-0.44-2.76-1.17-5.55-1.22-8.52c-0.03-1.48,0.02-2.99,0.34-4.51
				c0.31-1.49,0.91-3.09,2.12-4.1l0.25,0.17c-0.42,1.39-0.35,2.72-0.25,4.07c0.12,1.35,0.35,2.71,0.57,4.09
				c0.47,2.75,0.71,5.62,0.75,8.58c0.02,1.47-0.27,3.04-0.59,4.4c-0.25,1.4-0.05,2.88,0.77,3.99c1.7,1.92,3.13,4.92,2.86,8.05
				L54.1,80.1z"/>
		</g>
		<g>
			<path d="M66.8,44.15c1.18,1.07,2.36,2.04,3.45,3.27c1.07,1.22,1.98,2.63,2.61,4.15c0.64,1.52,0.78,3.19,0.97,4.78
				c0.17,1.6,0.45,3.13,0.84,4.67c0.36,1.54,1.06,3.01,1.39,4.57c0.34,1.55,0.62,3.14,0.67,4.81c0.03,1.66-0.34,3.48-1.21,5.05
				c-0.89,1.56-2.17,2.71-3.6,3.52l-0.23-0.2c0.59-1.54,1.22-2.93,1.5-4.26c0.29-1.34,0.3-2.66,0.31-4.12
				c0.04-1.45,0.04-2.97,0-4.51c-0.04-1.54,0.25-3.16,0.11-4.7c-0.11-1.54-0.43-3.07-1.08-4.48c-0.64-1.42-1.46-2.72-2.11-4.04
				c-0.64-1.33-1.27-2.64-1.99-3.98c-0.68-1.34-1.56-2.74-1.89-4.4L66.8,44.15z"/>
		</g>
		<g>
			<path class="st28" d="M40.03,57.49c2.6,0.07,6.42,0.27,6.46,3.58c0.04,3.32-3.52,6.08-6.12,6.01c-2.6-0.07-6.26-1.78-6.3-5.1
				C34.04,58.67,37.44,57.43,40.03,57.49z"/>
			<path d="M40.04,57.34c0.73,0.03,1.46-0.04,2.22-0.12c0.76-0.09,1.57-0.2,2.45-0.05c0.86,0.12,1.86,0.6,2.47,1.54
				c0.62,0.94,0.67,2.05,0.46,2.92c-0.18,0.9-0.64,1.69-1.16,2.34c-0.52,0.65-1.1,1.19-1.69,1.69c-0.6,0.49-1.22,0.94-1.9,1.33
				c-0.68,0.38-1.42,0.74-2.3,0.9c-1.68,0.27-3.37,0.01-4.91-0.85c-0.76-0.43-1.51-1-2.09-1.78c-0.6-0.76-1.01-1.75-1.09-2.75
				c-0.1-0.98,0.09-2.01,0.58-2.93c0.49-0.91,1.33-1.56,2.18-1.88c0.85-0.33,1.71-0.38,2.49-0.4C38.55,57.3,39.29,57.32,40.04,57.34
				z M40.03,57.64c-1.44-0.05-2.85,0.84-3.55,1.86c-0.69,1.03-0.86,1.71-0.77,2.7c0.05,0.45,0.17,0.87,0.41,1.3
				c0.25,0.42,0.61,0.84,1.07,1.19c0.46,0.36,1,0.66,1.57,0.95c0.56,0.27,1.2,0.53,1.8,0.64c1.19,0.23,2.66-0.34,3.6-1.32
				c0.99-0.98,1.3-2.45,1.14-3.53c-0.06-0.58-0.23-0.98-0.39-1.29c-0.16-0.31-0.45-0.67-0.93-1.08c-0.48-0.39-1.12-0.77-1.8-1.03
				C41.48,57.78,40.76,57.66,40.03,57.64z"/>
		</g>
		<g>
			<path class="st28" d="M62.49,68.54c2.14-0.37,6.17-0.89,6.21-4.2s-3.52-6.08-6.12-6.01c-2.6,0.07-6.26,1.78-6.3,5.1
				C56.24,66.74,60.02,68.96,62.49,68.54z"/>
			<path d="M62.46,68.39c1.45-0.18,2.9-1.01,3.79-1.95c0.44-0.47,0.71-0.87,0.89-1.23c0.18-0.35,0.31-0.79,0.38-1.39
				c0.13-1.13-0.29-2.62-1.35-3.55c-1-0.94-2.53-1.44-3.69-1.08c-1.27,0.36-2.45,0.99-3.34,1.73c-0.89,0.79-1.23,1.66-1.25,2.59
				c-0.04,0.92,0.36,1.86,1.07,2.98C59.66,67.57,61.01,68.61,62.46,68.39z M62.52,68.68c-0.76,0.13-1.54,0.11-2.34,0.04
				c-0.8-0.09-1.64-0.25-2.45-0.62c-0.81-0.36-1.57-0.93-2.12-1.73c-0.55-0.79-0.89-1.8-0.92-2.82c-0.02-1,0.23-2.06,0.78-2.91
				c0.53-0.86,1.24-1.53,2-2.01c1.52-0.99,3.25-1.35,4.93-1.17c1.83,0.22,3.15,1.16,4.38,2.11c0.61,0.5,1.2,1.02,1.75,1.66
				c0.54,0.63,1.04,1.39,1.27,2.3c0.24,0.86,0.26,1.97-0.27,2.94c-0.51,0.97-1.43,1.56-2.28,1.8
				C65.51,68.73,63.97,68.37,62.52,68.68z"/>
		</g>
		<g>
			<path class="st28" d="M86.25,58.55c3.44,1.19,6.17,0.76,6.21,4.08c0.04,3.32-3.52,6.08-6.12,6.01c-2.6-0.07-6.26-1.78-6.3-5.1
				C80,60.23,83.26,57.52,86.25,58.55z"/>
			<path d="M86.3,58.41c0.7,0.24,1.44,0.35,2.2,0.33c0.76,0.01,1.55-0.11,2.43,0.04c0.44,0.06,0.92,0.22,1.39,0.53
				c0.46,0.31,0.88,0.8,1.1,1.33c0.45,1.08,0.34,1.99,0.1,2.9c-0.26,0.9-0.76,1.65-1.31,2.28c-0.57,0.62-1.16,1.15-1.78,1.64
				c-0.62,0.49-1.27,0.94-1.99,1.31c-0.7,0.37-1.56,0.68-2.45,0.74c-1.7,0.16-3.43-0.25-4.94-1.3c-0.76-0.51-1.46-1.22-1.96-2.11
				c-0.51-0.89-0.71-1.97-0.63-2.95c0.07-0.98,0.39-1.93,0.9-2.73c0.51-0.8,1.26-1.42,2.08-1.81C83.11,57.82,84.88,57.91,86.3,58.41
				z M86.2,58.7c-0.68-0.23-1.44-0.18-2.07,0.13c-0.63,0.29-1.12,0.81-1.46,1.34c-0.35,0.53-0.57,1.09-0.74,1.61
				c-0.18,0.52-0.27,1.03-0.27,1.54c-0.01,0.97,0.29,1.82,1.15,2.64c0.86,0.76,2.05,1.4,3.31,1.79c1.17,0.4,2.7-0.04,3.73-0.97
				c1.08-0.91,1.56-2.4,1.43-3.55c-0.05-0.56-0.19-1.19-0.33-1.49c-0.07-0.16-0.12-0.27-0.24-0.43c-0.11-0.16-0.3-0.34-0.55-0.55
				c-0.51-0.39-1.19-0.82-1.87-1.17C87.62,59.21,86.91,58.94,86.2,58.7z"/>
		</g>
		<g>
			<path d="M90,63.46c-0.65,0.42-1.31,0.63-1.96,0.79c-0.65,0.15-1.31,0.22-1.96,0.22c-0.65,0-1.31-0.06-1.96-0.21
				c-0.65-0.16-1.31-0.36-1.96-0.78c0.65-0.42,1.31-0.63,1.96-0.79c0.65-0.15,1.31-0.22,1.96-0.22c0.65,0,1.31,0.06,1.96,0.21
				C88.69,62.84,89.34,63.04,90,63.46z"/>
		</g>
		<g>
			<path d="M67.05,63.44c-0.65,0.42-1.31,0.63-1.96,0.79c-0.65,0.15-1.31,0.22-1.96,0.22c-0.65,0-1.31-0.06-1.96-0.21
				c-0.65-0.16-1.31-0.36-1.96-0.78c0.65-0.42,1.31-0.63,1.96-0.79c0.65-0.15,1.31-0.22,1.96-0.22c0.65,0,1.31,0.06,1.96,0.21
				C65.74,62.82,66.39,63.03,67.05,63.44z"/>
		</g>
		<g>
			<path d="M43.96,62.27c-0.65,0.42-1.31,0.63-1.96,0.79c-0.65,0.15-1.31,0.22-1.96,0.22c-0.65,0-1.31-0.06-1.96-0.21
				c-0.65-0.16-1.31-0.36-1.96-0.78c0.65-0.42,1.31-0.63,1.96-0.79c0.65-0.15,1.31-0.22,1.96-0.22c0.65,0,1.31,0.06,1.96,0.21
				C42.65,61.66,43.3,61.86,43.96,62.27z"/>
		</g>
		<path d="M21.9,61.36c0,0,1.19,3.57,1.24,6.35c0.1,5.74-2.88,1.04-2.88,1.04L21.9,61.36z"/>
	</g>
	<g>
		<linearGradient id="SVGID_4_" gradientUnits="userSpaceOnUse" x1="62.3345" y1="52.8078" x2="62.3345" y2="20.1208">
			<stop  offset="3.723938e-03" style="stop-color:#000000"/>
			<stop  offset="0.0574" style="stop-color:#1D0E05"/>
			<stop  offset="0.111" style="stop-color:#311908"/>
			<stop  offset="0.1639" style="stop-color:#3E1F0A"/>
			<stop  offset="0.2148" style="stop-color:#42210B"/>
			<stop  offset="0.4312" style="stop-color:#5A2D0F"/>
			<stop  offset="0.6089" style="stop-color:#713813"/>
			<stop  offset="0.8225" style="stop-color:#89441D"/>
			<stop  offset="1" style="stop-color:#984C24"/>
		</linearGradient>
		<path style="fill:url(#SVGID_4_);stroke:#000000;stroke-width:0.5;stroke-miterlimit:10;" d="M90.08,22.62
			c-12,2.18-11.73,7.13-15.41,4.82c-18.39-11.51-16.93,5.2-25.66-0.68c-2.93-1.97-8.91-11.91-19.61-2.96
			c-6,5.02-8.96,7.64-10.69,16.1c-4.12,20.22,6.64,11.96,16.83,6.59c4.77-2.51,9.31,3.84,14.93-0.15c0,0,3.07,4.51,8,3.25
			c6.25-1.59,8.69-5.14,8.69-5.14s2.23,4.15,9.81,4.13c3.35-0.01,8.01-5.93,12.28-2.68c14.78,11.26,16.15-3.72,17.41-12.49
			C108.11,23.47,101.15,20.61,90.08,22.62z"/>
		<g>
			<path d="M36.36,46c0.98-1.38,1.76-2.9,2.2-4.47c0.46-1.56,0.65-3.17,0.48-4.71c0-0.39-0.13-0.77-0.21-1.14
				c-0.09-0.38-0.18-0.74-0.34-1.1c-0.14-0.36-0.25-0.72-0.35-1.08c-0.15-0.35-0.26-0.72-0.37-1.09c-0.08-0.38-0.21-0.76-0.35-1.13
				c-0.13-0.38-0.25-0.77-0.35-1.18c-0.27-0.79-0.56-1.59-0.71-2.56l0.23-0.19c0.83,0.43,1.6,0.98,2.27,1.63
				c0.32,0.34,0.61,0.7,0.9,1.07l0.42,0.56c0.12,0.2,0.22,0.41,0.34,0.62c1.01,1.64,0.99,3.71,0.92,5.56
				c-0.05,0.47-0.07,0.94-0.15,1.4l-0.3,1.37l-0.46,1.31c-0.18,0.42-0.39,0.83-0.58,1.24c-0.88,1.59-1.99,3.01-3.38,4.11L36.36,46z"
				/>
		</g>
		<g>
			<path d="M101.08,42.12c0.63-1.98,1.14-4,1.41-6.03c0.28-2.01,0.36-4.05,0.06-5.92c-0.17-0.94-0.48-1.81-0.93-2.56
				c-0.43-0.75-0.9-1.41-1.44-2.05c-1.07-1.31-2.74-2.26-4.65-3.39l0.04-0.3c1.1-0.24,2.26-0.3,3.4-0.03
				c0.59,0.08,1.13,0.33,1.7,0.55c0.54,0.28,1.08,0.59,1.57,0.99c0.97,0.79,1.72,1.89,2.11,3.05c0.39,1.17,0.56,2.35,0.59,3.49
				c0.09,2.29-0.33,4.46-0.98,6.51c-0.68,2.04-1.51,4-2.6,5.82L101.08,42.12z"/>
		</g>
		<g>
			<path d="M88.39,45.68c-0.99-1.3-1.8-2.72-2.56-4.19c-0.73-1.48-1.34-3.04-1.7-4.74c-0.18-0.84-0.36-1.72-0.39-2.66
				c-0.03-0.93,0.15-1.92,0.63-2.82c0.47-0.89,1.22-1.69,2.11-2.13c0.88-0.46,1.83-0.61,2.74-0.46l0.09,0.29
				c-0.61,0.66-1.11,1.23-1.47,1.79c-0.35,0.57-0.56,1.12-0.71,1.7c-0.15,0.58-0.28,1.18-0.42,1.84c-0.15,0.66-0.23,1.39-0.19,2.13
				c0.08,1.48,0.36,3.02,0.73,4.54c0.35,1.54,0.86,3.05,1.41,4.56L88.39,45.68z"/>
		</g>
		<g>
			<path d="M21.45,48.74c-0.38-2.9-0.41-5.84-0.26-8.78c0.17-2.94,0.64-5.89,1.52-8.79c0.44-1.45,0.98-2.88,1.65-4.29
				c0.68-1.4,1.63-2.7,2.82-3.78c1.19-1.06,2.56-1.95,4.06-2.48c1.5-0.52,3.07-0.71,4.58-0.54l0.05,0.3
				c-1.35,0.67-2.57,1.34-3.67,2.12c-1.08,0.8-2.04,1.7-2.88,2.7c-0.85,0.99-1.64,2.04-2.38,3.16c-0.76,1.11-1.42,2.33-1.97,3.61
				c-1.04,2.58-1.78,5.34-2.29,8.16c-0.53,2.81-0.82,5.69-0.93,8.58L21.45,48.74z"/>
		</g>
		<g>
			<path d="M67.06,44.35c0.74-1.14,1.46-2.29,2.04-3.49c0.6-1.18,1.14-2.38,1.49-3.58c0.18-0.6,0.26-1.21,0.27-1.78
				c0.02-0.57,0.06-1.08,0.1-1.58c0.12-1.01,0.02-1.98-0.48-3.49l0.19-0.23c1.6,0.19,3.01,1.73,3.28,3.46
				c0.16,0.85,0.07,1.71-0.19,2.46c-0.26,0.76-0.62,1.43-0.96,2.09c-0.68,1.32-1.54,2.46-2.48,3.51c-0.96,1.03-1.95,2.01-3.06,2.84
				L67.06,44.35z"/>
		</g>
		<g>
			<path d="M50.4,46.22c0.96-0.88,1.8-1.89,2.38-3c0.6-1.09,0.98-2.24,1.09-3.39c0.06-0.28,0.02-0.58,0.01-0.86
				c-0.01-0.29-0.03-0.57-0.11-0.85c-0.05-0.28-0.08-0.56-0.1-0.84c-0.05-0.28-0.07-0.56-0.08-0.85c0.03-0.59-0.09-1.18-0.03-1.84
				c-0.03-0.64-0.05-1.32,0.08-2.11l0.27-0.14c0.65,0.42,1.19,0.95,1.64,1.54c0.21,0.3,0.39,0.63,0.57,0.96
				c0.18,0.33,0.33,0.67,0.42,1.04c0.55,1.44,0.09,3.07-0.33,4.48c-0.13,0.35-0.24,0.71-0.39,1.05l-0.51,0.99l-0.63,0.9
				c-0.23,0.28-0.47,0.55-0.7,0.82c-1.01,1.01-2.15,1.84-3.43,2.36L50.4,46.22z"/>
		</g>
	</g>
	<g>
		<linearGradient id="SVGID_5_" gradientUnits="userSpaceOnUse" x1="60.3491" y1="99.6583" x2="60.3491" y2="74.8408">
			<stop  offset="3.723938e-03" style="stop-color:#000000"/>
			<stop  offset="0.115" style="stop-color:#160B04"/>
			<stop  offset="0.3016" style="stop-color:#361B09"/>
			<stop  offset="0.405" style="stop-color:#42210B"/>
			<stop  offset="0.4959" style="stop-color:#4C260D"/>
			<stop  offset="0.8482" style="stop-color:#713813"/>
			<stop  offset="0.9311" style="stop-color:#89441D"/>
			<stop  offset="1" style="stop-color:#984C24"/>
		</linearGradient>
		<path style="fill:url(#SVGID_5_);stroke:#000000;stroke-width:0.5;stroke-miterlimit:10;" d="M93.85,98.75
			c-6.9-0.38-10.91,1.22-17.46,0c-6.6-1.23-11.91,0.94-18.15,0.92c-5.07-0.02-10.06-1.87-16.1-0.68c-4.5,0.88-6.95-1.21-10.24-0.78
			c-15.12,1.94-15.8,0.32-18.41-7.09c-1.8-5.11-1.88-21.77,22.94-13.49c3.07,1.02,9.59-2.29,13.91-0.1
			c4.63,2.35,3.25,2.2,14.47,0.51c3.29-0.5,3.52-0.15,9.34,0.42c3.78,0.37,11.04,0.83,15.2-0.84c21.76-8.73,19.15,5.5,17.46,10.73
			C105.06,93.76,100.19,99.1,93.85,98.75z"/>
		<g>
			<path d="M36.59,96.35c0.87-1.51,1.46-3.3,1.96-5.01c0.5-1.72,0.89-3.47,1.08-5.18c0.09-0.86,0.06-1.71-0.05-2.51
				c-0.1-0.8-0.2-1.53-0.35-2.21c-0.15-0.69-0.37-1.31-0.77-1.94c-0.41-0.62-1.03-1.21-1.8-1.84l0.07-0.29
				c1-0.19,2.1-0.04,3.09,0.52c1,0.55,1.8,1.52,2.24,2.56c0.45,1.05,0.57,2.15,0.48,3.18c-0.1,1.03-0.32,2.01-0.56,2.95
				c-0.47,1.89-1.19,3.65-2.05,5.32c-0.44,0.83-0.91,1.64-1.41,2.43c-0.52,0.79-1,1.56-1.74,2.24L36.59,96.35z"/>
		</g>
		<g>
			<path d="M102.59,95.01c0.88-1.66,1.45-3.54,1.93-5.37c0.48-1.84,0.83-3.71,0.99-5.54c0.07-0.91,0.02-1.83-0.1-2.68
				c-0.12-0.86-0.23-1.66-0.39-2.41c-0.16-0.75-0.41-1.44-0.83-2.11c-0.43-0.67-1.08-1.29-1.9-1.93l0.07-0.29
				c1.05-0.19,2.22,0.02,3.24,0.65c1.03,0.61,1.82,1.64,2.27,2.72c0.46,1.09,0.59,2.23,0.52,3.31c-0.08,1.08-0.29,2.11-0.5,3.11
				c-0.44,2-1.12,3.89-1.95,5.69c-0.43,0.9-0.89,1.77-1.39,2.63c-0.51,0.85-1.01,1.69-1.73,2.43L102.59,95.01z"/>
		</g>
		<g>
			<path d="M90.04,96.7c-1.03-1.58-1.82-3.29-2.53-5.06c-0.68-1.78-1.17-3.65-1.37-5.63c-0.1-0.99-0.16-2-0.09-3.04
				c0.07-1.04,0.35-2.09,0.9-3.04c1.05-1.9,2.98-3.3,5.03-3.47l0.15,0.26c-0.58,0.84-1.09,1.55-1.51,2.28
				c-0.39,0.74-0.7,1.46-0.95,2.19c-0.25,0.73-0.46,1.48-0.69,2.26c-0.23,0.78-0.4,1.62-0.44,2.49c-0.06,1.73,0.1,3.52,0.42,5.3
				c0.29,1.79,0.77,3.57,1.35,5.32L90.04,96.7z"/>
		</g>
		<g>
			<path d="M17.75,94.52c-0.94-0.29-1.74-0.85-2.5-1.49c-0.74-0.66-1.38-1.45-1.9-2.31c-0.5-0.86-1.19-1.74-1.15-2.78
				c0-1.02,0.25-2.05,1.05-2.98l0.3,0c0.46,0.44,0.74,0.85,0.98,1.25c0.28,0.39,0.44,0.78,0.62,1.16c0.17,0.38,0.24,0.76,0.27,1.17
				c0,0.42,0.05,0.82,0.14,1.23c0.21,0.79,0.49,1.57,0.87,2.33c0.36,0.78,0.86,1.51,1.47,2.16L17.75,94.52z"/>
		</g>
		<g>
			<path d="M27.33,90.9c-1.22-1.03-2.33-2.15-3.45-3.29c-1.1-1.15-2.15-2.36-3.11-3.67c-0.95-1.3-2.14-2.56-2.49-4.4
				c-0.17-0.89-0.27-1.94,0.24-3.04c0.28-0.54,0.75-1.02,1.28-1.2c0.26-0.11,0.52-0.11,0.76-0.14c0.24,0.01,0.48,0.06,0.7,0.12
				l0.05,0.3l-0.44,0.42c-0.1,0.16-0.23,0.27-0.27,0.42c-0.13,0.25-0.08,0.49-0.05,0.68c0.11,0.43,0.33,0.98,0.61,1.58
				c0.27,0.59,0.55,1.24,0.8,1.93c0.24,0.69,0.51,1.4,0.86,2.08c0.7,1.35,1.47,2.7,2.27,4.03c0.78,1.35,1.64,2.67,2.48,4L27.33,90.9
				z"/>
		</g>
		<g>
			<path d="M73.52,95.49c0.74-1.6,1.37-3.25,1.77-4.93c0.43-1.66,0.66-3.35,0.53-4.92c-0.07-0.78-0.29-1.52-0.6-2.16
				c-0.31-0.64-0.64-1.21-1.03-1.79c-0.73-1.21-1.95-2.25-3.36-3.59l0.09-0.29c0.98-0.11,1.97-0.03,2.92,0.31
				c0.96,0.3,1.88,0.86,2.64,1.63c0.76,0.76,1.32,1.76,1.56,2.81c0.23,1.05,0.24,2.09,0.17,3.07c-0.13,1.98-0.73,3.79-1.53,5.45
				c-0.82,1.65-1.77,3.19-2.93,4.58L73.52,95.49z"/>
		</g>
		<g>
			<path d="M50.95,95.01c0.77-1.32,1.49-2.66,2.07-4.04c0.59-1.37,1.09-2.77,1.38-4.14c0.29-1.4,0.08-2.73,0.07-3.89
				c-0.02-0.6-0.09-1.19-0.24-1.84c-0.17-0.64-0.43-1.31-0.75-2.12l0.18-0.24c1.74,0.27,3.26,1.8,3.75,3.64
				c0.26,0.9,0.27,1.85,0.08,2.71c-0.2,0.86-0.5,1.66-0.8,2.43c-0.6,1.54-1.44,2.92-2.37,4.19c-0.96,1.25-1.97,2.44-3.14,3.48
				L50.95,95.01z"/>
		</g>
	</g>
</g>
<g id="Слой_7">
</g>
<g id="Слой_12">
</g>
<g id="Слой_13">
</g>
<g id="Слой_14">
</g>
<g id="Слой_15">
</g>
</svg>
