<?xml version="1.0" encoding="utf-8"?>
<!-- Generator: Adobe Illustrator 24.0.2, SVG Export Plug-In . SVG Version: 6.00 Build 0)  -->
<svg version="1.1" xmlns="http://www.w3.org/2000/svg" xmlns:xlink="http://www.w3.org/1999/xlink" x="0px" y="0px"
	 viewBox="0 0 125 100" style="enable-background:new 0 0 125 100;" xml:space="preserve">
<style type="text/css">
	.st0{stroke:#000000;stroke-width:0.25;stroke-miterlimit:10;}
	.st1{fill:url(#SVGID_1_);stroke:#000000;stroke-miterlimit:10;}
	.st2{fill:#808080;stroke:#000000;stroke-miterlimit:10;}
	.st3{fill:#31C8C5;stroke:#000000;stroke-miterlimit:10;}
	.st4{fill:#F9F912;stroke:#000000;stroke-miterlimit:10;}
	.st5{fill:#31C8C5;stroke:#31C8C5;stroke-width:0.25;stroke-miterlimit:10;}
	.st6{stroke:#31C8C5;stroke-miterlimit:10;}
	.st7{fill:url(#SVGID_2_);}
	.st8{fill:url(#SVGID_3_);stroke:#000000;stroke-miterlimit:10;}
	.st9{fill:url(#SVGID_4_);}
	.st10{fill:url(#SVGID_5_);stroke:#000000;stroke-miterlimit:10;}
	.st11{fill:url(#SVGID_6_);}
	.st12{fill:url(#SVGID_7_);stroke:#000000;stroke-miterlimit:10;}
	.st13{fill:url(#SVGID_8_);}
	.st14{fill:url(#SVGID_9_);stroke:#000000;stroke-miterlimit:10;}
	.st15{fill:url(#SVGID_10_);}
	.st16{fill:url(#SVGID_11_);stroke:#000000;stroke-miterlimit:10;}
	.st17{fill:url(#SVGID_12_);}
	.st18{fill:url(#SVGID_13_);stroke:#000000;stroke-miterlimit:10;}
	.st19{fill:url(#SVGID_14_);}
	.st20{fill:url(#SVGID_15_);stroke:#000000;stroke-miterlimit:10;}
	.st21{fill:url(#SVGID_16_);}
	.st22{fill:url(#SVGID_17_);stroke:#000000;stroke-miterlimit:10;}
	.st23{fill:url(#SVGID_18_);}
	.st24{fill:url(#SVGID_19_);stroke:#000000;stroke-miterlimit:10;}
	.st25{fill:url(#SVGID_20_);stroke:#000000;stroke-miterlimit:10;}
	.st26{fill:#984C24;stroke:#000000;stroke-miterlimit:10;}
	.st27{fill:url(#SVGID_21_);stroke:#000000;stroke-miterlimit:10;}
	.st28{fill:#F9F912;}
	.st29{fill:url(#SVGID_22_);stroke:#000000;stroke-width:0.5;stroke-miterlimit:10;}
	.st30{fill:url(#SVGID_23_);stroke:#000000;stroke-width:0.5;stroke-miterlimit:10;}
	.st31{fill:url(#SVGID_24_);stroke:#000000;stroke-miterlimit:10;}
	.st32{fill:url(#SVGID_25_);stroke:#000000;stroke-miterlimit:10;}
	.st33{fill:url(#SVGID_26_);stroke:#000000;stroke-miterlimit:10;}
	.st34{fill:url(#SVGID_27_);stroke:#000000;stroke-width:0.5;stroke-miterlimit:10;}
	.st35{fill:url(#SVGID_28_);stroke:#000000;stroke-width:0.5;stroke-miterlimit:10;}
	.st36{fill:url(#SVGID_29_);stroke:#000000;stroke-miterlimit:10;}
	.st37{fill:url(#SVGID_30_);stroke:#000000;stroke-miterlimit:10;}
	.st38{fill:url(#SVGID_31_);stroke:#000000;stroke-miterlimit:10;}
	.st39{fill:url(#SVGID_32_);stroke:#000000;stroke-width:0.5;stroke-miterlimit:10;}
	.st40{fill:url(#SVGID_33_);stroke:#000000;stroke-width:0.5;stroke-miterlimit:10;}
	.st41{fill:url(#SVGID_34_);stroke:#000000;stroke-miterlimit:10;}
	.st42{fill:url(#SVGID_35_);stroke:#000000;stroke-miterlimit:10;}
	.st43{fill:url(#SVGID_36_);stroke:#000000;stroke-miterlimit:10;}
	.st44{fill:url(#SVGID_37_);stroke:#000000;stroke-width:0.5;stroke-miterlimit:10;}
	.st45{fill:url(#SVGID_38_);stroke:#000000;stroke-width:0.5;stroke-miterlimit:10;}
	.st46{fill:url(#SVGID_39_);stroke:#000000;stroke-miterlimit:10;}
	.st47{fill:url(#SVGID_40_);stroke:#000000;stroke-miterlimit:10;}
	.st48{fill:url(#SVGID_41_);stroke:#000000;stroke-miterlimit:10;}
	.st49{fill:url(#SVGID_42_);stroke:#000000;stroke-width:0.5;stroke-miterlimit:10;}
	.st50{fill:url(#SVGID_43_);stroke:#000000;stroke-width:0.5;stroke-miterlimit:10;}
	.st51{fill:url(#SVGID_44_);stroke:#000000;stroke-miterlimit:10;}
	.st52{fill:url(#SVGID_45_);stroke:#000000;stroke-miterlimit:10;}
	.st53{fill:url(#SVGID_46_);stroke:#000000;stroke-miterlimit:10;}
	.st54{fill:url(#SVGID_47_);stroke:#000000;stroke-miterlimit:10;}
	.st55{display:none;fill:url(#SVGID_48_);stroke:#000000;stroke-miterlimit:10;}
	.st56{display:none;fill:url(#SVGID_49_);stroke:#000000;stroke-miterlimit:10;}
	.st57{fill:url(#SVGID_50_);stroke:#000000;stroke-miterlimit:10;}
	.st58{fill:url(#SVGID_51_);stroke:#000000;stroke-miterlimit:10;}
	.st59{stroke:#F9F912;stroke-miterlimit:10;}
	.st60{fill:url(#SVGID_52_);stroke:#000000;stroke-miterlimit:10;}
	.st61{fill:url(#SVGID_53_);stroke:#000000;stroke-miterlimit:10;}
	.st62{fill:url(#SVGID_54_);stroke:#000000;stroke-miterlimit:10;}
	.st63{fill:url(#SVGID_55_);stroke:#000000;stroke-miterlimit:10;}
	.st64{display:none;fill:#984C24;stroke:#000000;stroke-miterlimit:10;}
	.st65{fill:url(#SVGID_56_);stroke:#000000;stroke-miterlimit:10;}
	.st66{fill:url(#SVGID_57_);stroke:#000000;stroke-miterlimit:10;}
	.st67{fill:url(#SVGID_58_);stroke:#000000;stroke-miterlimit:10;}
	.st68{fill:url(#SVGID_59_);stroke:#000000;stroke-miterlimit:10;}
	.st69{fill:url(#SVGID_60_);stroke:#000000;stroke-miterlimit:10;}
	.st70{fill:url(#SVGID_61_);stroke:#000000;stroke-miterlimit:10;}
	.st71{fill:url(#SVGID_62_);stroke:#000000;stroke-miterlimit:10;}
	.st72{fill:url(#SVGID_63_);stroke:#000000;stroke-miterlimit:10;}
	.st73{display:none;fill:url(#SVGID_64_);stroke:#000000;stroke-miterlimit:10;}
	.st74{display:none;fill:url(#SVGID_65_);stroke:#000000;stroke-miterlimit:10;}
	.st75{fill:url(#SVGID_66_);stroke:#000000;stroke-miterlimit:10;}
	.st76{fill:url(#SVGID_67_);stroke:#000000;stroke-miterlimit:10;}
	.st77{fill:url(#SVGID_68_);stroke:#000000;stroke-miterlimit:10;}
	.st78{fill:url(#SVGID_69_);stroke:#000000;stroke-miterlimit:10;}
	.st79{fill:url(#SVGID_70_);stroke:#000000;stroke-miterlimit:10;}
	.st80{fill:url(#SVGID_71_);stroke:#000000;stroke-miterlimit:10;}
	.st81{fill:url(#SVGID_72_);stroke:#000000;stroke-miterlimit:10;}
	.st82{fill:url(#SVGID_73_);stroke:#000000;stroke-miterlimit:10;}
	.st83{fill:url(#SVGID_74_);stroke:#000000;stroke-miterlimit:10;}
	.st84{fill:url(#SVGID_75_);stroke:#000000;stroke-miterlimit:10;}
	.st85{fill:url(#SVGID_76_);stroke:#000000;stroke-miterlimit:10;}
	.st86{fill:url(#SVGID_77_);stroke:#000000;stroke-miterlimit:10;}
	.st87{fill:url(#SVGID_78_);stroke:#000000;stroke-miterlimit:10;}
	.st88{fill:url(#SVGID_79_);stroke:#000000;stroke-miterlimit:10;}
	.st89{display:none;fill:url(#SVGID_80_);stroke:#000000;stroke-miterlimit:10;}
	.st90{display:none;fill:url(#SVGID_81_);stroke:#000000;stroke-miterlimit:10;}
	.st91{fill:url(#SVGID_82_);stroke:#000000;stroke-miterlimit:10;}
	.st92{fill:url(#SVGID_83_);stroke:#000000;stroke-miterlimit:10;}
	.st93{fill:url(#SVGID_84_);stroke:#000000;stroke-miterlimit:10;}
	.st94{fill:url(#SVGID_85_);stroke:#000000;stroke-miterlimit:10;}
	.st95{fill:url(#SVGID_86_);stroke:#000000;stroke-miterlimit:10;}
	.st96{fill:url(#SVGID_87_);stroke:#000000;stroke-miterlimit:10;}
	.st97{fill:url(#SVGID_88_);stroke:#000000;stroke-miterlimit:10;}
	.st98{fill:url(#SVGID_89_);stroke:#000000;stroke-miterlimit:10;}
	.st99{fill:url(#SVGID_90_);stroke:#000000;stroke-miterlimit:10;}
	.st100{fill:url(#SVGID_91_);stroke:#000000;stroke-miterlimit:10;}
</style>
<g id="Слой_2">
</g>
<g id="Слой_1">
</g>
<g id="Слой_3">
</g>
<g id="Слой_5">
</g>
<g id="Слой_6">
</g>
<g id="Слой_4">
</g>
<g id="Слой_9">
</g>
<g id="Слой_10">
</g>
<g id="Слой_11">
	<path class="st3" d="M102.61,10.91c0,0,4.21-1.11,8.96,3.42c4.75,4.54,8.79,9.69,6.41,8.5c-2.58-1.29-5.98-5.8-5.98-5.8
		s-5.76-4.05-8.93-4.02C94.59,13.1,102.61,10.91,102.61,10.91z"/>
	<radialGradient id="SVGID_1_" cx="85.5047" cy="20.6706" r="26.5977" fx="58.9875" fy="22.7382" gradientUnits="userSpaceOnUse">
		<stop  offset="0" style="stop-color:#31C8C5"/>
		<stop  offset="0.0673" style="stop-color:#4DAFAD"/>
		<stop  offset="0.1416" style="stop-color:#639A99"/>
		<stop  offset="0.222" style="stop-color:#738B8B"/>
		<stop  offset="0.3124" style="stop-color:#7D8383"/>
		<stop  offset="0.4331" style="stop-color:#808080"/>
		<stop  offset="0.6278" style="stop-color:#7E7E7E"/>
		<stop  offset="0.7144" style="stop-color:#777777"/>
		<stop  offset="0.7795" style="stop-color:#6A6A6A"/>
		<stop  offset="0.8339" style="stop-color:#585858"/>
		<stop  offset="0.8816" style="stop-color:#414141"/>
		<stop  offset="0.9239" style="stop-color:#242424"/>
		<stop  offset="0.9626" style="stop-color:#030303"/>
		<stop  offset="0.9656" style="stop-color:#000000"/>
	</radialGradient>
	<path class="st1" d="M110.99,14.05c-1.5,1.74-4.96,1.26-9.48,0.89c-2.29-0.19-7.74-4.68-9.13-4.87c-1.27-0.17-11.24,2.69-12.08,6
		c-1.2,4.68,1,10.61,0.1,15.22c-0.96,4.9,1.92,6.29,1.92,6.29c0,5.5-16.13,5.77-16.13,3.02c0,0,1.07-9.47,2.29-15.03
		c0.8-3.64-1.64-11.01,3.44-15.79c1.45-1.36,3.9-4.34,9.86-6.81c5.34-2.21,15.27-1.21,15.28-1.2
		C106.34,3.85,116.22,7.96,110.99,14.05z"/>
	<path class="st26" d="M104.01,9.23c0,0,8.13,0.33,12.79,4.96c4.66,4.63,8.59,9.87,6.23,8.63c-2.55-1.35-5.86-5.92-5.86-5.92
		s-9.96-5.37-13.13-5.4C95.57,11.4,104.01,9.23,104.01,9.23z"/>
	<path class="st3" d="M24.35,8.52c0,0-3.49,0.03-7.51,5.22s-7.25,10.89-5.07,9.36c2.36-1.66,5.05-6.63,5.05-6.63s4.5-4.99,7.64-5.43
		C32.62,9.88,28.04,9.02,24.35,8.52z"/>
	<radialGradient id="SVGID_2_" cx="41.474" cy="26.2538" r="28.3502" fx="55.72" fy="48.5665" gradientUnits="userSpaceOnUse">
		<stop  offset="0" style="stop-color:#31C8C5"/>
		<stop  offset="0.2852" style="stop-color:#699594"/>
		<stop  offset="0.4249" style="stop-color:#808080"/>
		<stop  offset="0.5744" style="stop-color:#7D7D7D"/>
		<stop  offset="0.673" style="stop-color:#747474"/>
		<stop  offset="0.7568" style="stop-color:#656565"/>
		<stop  offset="0.8324" style="stop-color:#505050"/>
		<stop  offset="0.9025" style="stop-color:#353535"/>
		<stop  offset="0.9675" style="stop-color:#141414"/>
		<stop  offset="1" style="stop-color:#000000"/>
	</radialGradient>
	<path style="fill:url(#SVGID_2_);stroke:#000000;stroke-miterlimit:10;" d="M17.28,14.32c2.23,0.57,2.75,1.27,10.19-0.45
		c2.24-0.52,3.17-4.88,4.2-5.83c4.24-3.9,16.14,3.44,17.32,8.04c1.19,4.68-1,10.61-0.1,15.22c0.96,4.9-1.9,8.11-1.9,8.11
		c0,5.5,16.11,3.95,16.11,1.2c0,0-1.07-9.46-2.29-15.03c-0.8-3.64,1.64-11.01-3.44-15.79c-2.18-2.05-5.97-9.14-22.52-9.05
		c-7.77,0.04-12.57,3.03-12.58,3.03C17.85,6.06,9.5,12.33,17.28,14.32z"/>
	<path class="st26" d="M21.43,9.3c0,0-8.03,1.29-12.11,6.44s-7.36,10.82-5.17,9.31c2.37-1.64,5.12-6.58,5.12-6.58
		s9.25-6.51,12.4-6.92C30.08,10.45,21.43,9.3,21.43,9.3z"/>
	<linearGradient id="SVGID_3_" gradientUnits="userSpaceOnUse" x1="61.7797" y1="82.3213" x2="61.7797" y2="48.4565">
		<stop  offset="0" style="stop-color:#808080"/>
		<stop  offset="0.2327" style="stop-color:#7E8282"/>
		<stop  offset="0.3267" style="stop-color:#778888"/>
		<stop  offset="0.3957" style="stop-color:#6B9393"/>
		<stop  offset="0.4525" style="stop-color:#59A3A2"/>
		<stop  offset="0.5011" style="stop-color:#43B8B5"/>
		<stop  offset="0.5307" style="stop-color:#31C8C5"/>
		<stop  offset="0.5574" style="stop-color:#45B6B4"/>
		<stop  offset="0.5962" style="stop-color:#5BA2A1"/>
		<stop  offset="0.6422" style="stop-color:#6C9392"/>
		<stop  offset="0.699" style="stop-color:#778888"/>
		<stop  offset="0.7787" style="stop-color:#7E8282"/>
		<stop  offset="1" style="stop-color:#808080"/>
	</linearGradient>
	<path class="st8" d="M87.03,82.32H37.59c-5.62,0-11.14-2-14.99-6.85c-4.75-6,1.06-12.8-0.08-15.34
		c-2.93-6.51,7.95-11.68,15.07-11.68h49.44c7.12,0,14.83,2.34,15.01,10.12c0.18,7.79,1.8,11.02-0.12,14.67
		C98.79,79.18,92.81,82.32,87.03,82.32z"/>
	<g>
		<g>
			<path d="M37.66,77.92c-1.6,0.42-3.25,0.02-4.66-0.81c-0.7-0.42-1.35-0.96-1.83-1.64c-0.48-0.67-0.76-1.48-0.94-2.26
				c-0.31-1.59-0.63-2.97-1.09-4.44c-0.19-0.73-0.47-1.49-0.52-2.25c-0.08-0.76-0.09-1.53-0.04-2.3c0.24-3.05,1.08-6.08,2.65-8.65
				c0.77-1.29,1.65-2.51,2.65-3.62c0.99-1.11,2.08-2.14,3.36-2.96l0.22,0.2c-1.24,2.68-2.47,5.2-3.53,7.75
				c-1.02,2.55-2.14,5.02-2.73,7.66c-0.14,0.66-0.29,1.32-0.4,1.99c-0.11,0.67-0.32,1.35-0.38,2.06c-0.16,1.39,0.26,2.84,1.26,3.81
				c0.48,0.5,1.02,0.89,1.47,1.31c0.46,0.41,0.87,0.86,1.34,1.27c0.93,0.84,1.97,1.64,3.2,2.58L37.66,77.92z"/>
		</g>
		<g>
			<path d="M88.52,46.9c1.49,0.55,2.71,1.46,3.85,2.47c1.09,1.04,2.14,2.17,2.78,3.58c0.64,1.41,0.95,2.96,1.46,4.36
				c0.49,1.41,1.05,2.83,1.36,4.41c0.34,1.56,0.27,3.17-0.03,4.69c-0.27,1.53-0.68,3.04-1.36,4.43c-0.67,1.39-1.52,2.69-2.54,3.85
				c-1.02,1.15-2.19,2.22-3.62,2.88l-0.2-0.22c1.38-2.66,2.45-5.19,3.44-7.78c0.48-1.29,1.05-2.54,1.48-3.84
				c0.42-1.3,0.76-2.61,1.03-3.97c0.25-1.35,0.18-2.81-0.42-4.11c-0.56-1.32-1.67-2.34-2.63-3.36c-0.96-1.03-1.71-2.2-2.53-3.37
				c-0.78-1.2-1.58-2.39-2.26-3.79L88.52,46.9z"/>
		</g>
		<g>
			<path d="M54.18,80.11c-1.16-0.9-1.96-1.91-2.66-3.02c-0.34-0.56-0.68-1.14-0.87-1.82c-0.2-0.67-0.23-1.43-0.2-2.15
				c0.37-2.82-0.5-5.39-0.94-7.79c-0.46-2.48-1.14-5.01-1.15-7.7c-0.01-1.34,0.05-2.71,0.38-4.09c0.31-1.34,0.91-2.85,2.14-3.64
				l0.23,0.2c-0.45,1.22-0.35,2.4-0.26,3.61c0.13,1.2,0.33,2.42,0.54,3.66c0.45,2.47,0.65,5.04,0.71,7.71
				c0.02,1.31-0.17,2.8-0.56,4.01c-0.3,1.26-0.16,2.59,0.54,3.66c0.33,0.54,0.72,1.01,1.01,1.53c0.3,0.52,0.52,1.11,0.74,1.71
				c0.42,1.22,0.75,2.54,0.64,4L54.18,80.11z"/>
		</g>
		<g>
			<path d="M67.32,48.34c1.19,0.83,2.33,1.63,3.39,2.65c1.05,1,2,2.15,2.75,3.43c0.74,1.29,1.12,2.76,1.38,4.21
				c0.27,1.44,0.6,2.82,0.99,4.19c0.35,1.39,1.02,2.7,1.45,4.1c0.38,1.41,0.6,2.89,0.59,4.45c-0.02,1.56-0.59,3.23-1.55,4.55
				c-0.99,1.31-2.27,2.2-3.69,2.73l-0.2-0.22c0.63-1.38,1.27-2.58,1.64-3.74c0.37-1.16,0.47-2.28,0.6-3.52
				c0.15-1.24,0.16-2.58,0.18-3.95c0.04-1.37,0.3-2.85,0.03-4.2c-0.08-0.69-0.29-1.35-0.5-2.01c-0.25-0.64-0.54-1.27-0.92-1.86
				c-0.73-1.19-1.61-2.23-2.3-3.36l-2.13-3.43c-0.7-1.17-1.53-2.39-1.95-3.86L67.32,48.34z"/>
		</g>
		<g>
			<path class="st28" d="M40.79,60.69c2.6,0.06,6.42,0.21,6.46,2.88c0.04,2.66-3.52,4.88-6.12,4.82s-6.26-1.43-6.3-4.09
				C34.79,61.63,38.19,60.63,40.79,60.69z"/>
			<path d="M40.79,60.54c0.67,0.02,1.35-0.05,2.04-0.15c0.7-0.11,1.43-0.26,2.21-0.25c0.78,0.01,1.66,0.19,2.46,0.88
				c0.39,0.34,0.71,0.84,0.88,1.37c0.16,0.53,0.16,1.06,0.07,1.52c-0.18,0.95-0.71,1.69-1.28,2.23c-0.58,0.55-1.21,0.94-1.81,1.32
				c-1.23,0.73-2.46,1.39-4.01,1.72c-1.51,0.26-3.03,0.19-4.52-0.41c-0.74-0.29-1.49-0.68-2.16-1.32c-0.67-0.61-1.28-1.56-1.4-2.63
				c-0.15-1.02,0.16-2.16,0.81-2.98c0.65-0.82,1.52-1.22,2.32-1.37C38.04,60.2,39.44,60.54,40.79,60.54z M40.79,60.84
				c-1.33-0.04-2.65,0.72-3.45,1.59c-0.4,0.43-0.67,0.84-0.79,1.13c-0.13,0.29-0.12,0.54-0.09,0.86c0.05,0.27,0.14,0.56,0.4,0.9
				c0.27,0.33,0.67,0.67,1.15,0.95c0.96,0.54,2.12,1.07,3.3,1.33c1.14,0.24,2.53-0.12,3.49-0.92c1.01-0.77,1.45-2.15,1.24-2.94
				c-0.11-0.45-0.21-0.54-0.38-0.78c-0.19-0.23-0.6-0.56-1.11-0.9c-0.52-0.33-1.13-0.66-1.77-0.88
				C42.13,60.95,41.46,60.84,40.79,60.84z"/>
		</g>
		<g>
			<path class="st28" d="M63.25,69.55c2.14-0.3,6.17-0.71,6.21-3.38s-3.52-4.88-6.12-4.82s-6.26,1.43-6.3,4.09
				C57,68.11,60.78,69.9,63.25,69.55z"/>
			<path d="M63.23,69.41c0.68-0.08,1.34-0.26,1.96-0.56c0.62-0.3,1.2-0.7,1.67-1.08c0.47-0.39,0.84-0.76,1.03-1.01
				c0.16-0.25,0.3-0.4,0.38-0.88c0.06-0.43-0.01-0.99-0.26-1.54c-0.26-0.54-0.68-1.05-1.2-1.42c-1.03-0.75-2.44-1.03-3.56-0.7
				c-1.2,0.34-2.35,0.85-3.28,1.43c-0.45,0.31-0.82,0.66-1.03,0.99c-0.2,0.34-0.27,0.58-0.28,0.89c-0.07,0.52,0.37,1.34,1.17,2.3
				C60.6,68.73,61.89,69.58,63.23,69.41z M63.27,69.7c-1.38,0.15-2.85,0.26-4.44-0.12c-0.78-0.2-1.57-0.59-2.21-1.27
				c-0.64-0.66-1.14-1.67-1.17-2.76c-0.04-1.06,0.39-2.17,1.05-2.88c0.64-0.74,1.39-1.2,2.14-1.54c1.49-0.69,3.04-0.84,4.55-0.63
				c1.61,0.24,2.88,0.92,4.13,1.63c0.62,0.37,1.25,0.75,1.85,1.27c0.59,0.51,1.18,1.2,1.42,2.13c0.13,0.45,0.19,0.95,0.08,1.5
				c-0.09,0.54-0.36,1.05-0.7,1.45c-0.7,0.79-1.57,1.09-2.36,1.19c-0.79,0.11-1.55,0.03-2.26-0.02
				C64.63,69.61,63.94,69.6,63.27,69.7z"/>
		</g>
		<g>
			<path class="st28" d="M87.01,61.54c3.44,0.96,6.17,0.61,6.21,3.28s-3.52,4.88-6.12,4.82c-2.6-0.06-6.26-1.43-6.3-4.09
				C80.76,62.88,84.02,60.7,87.01,61.54z"/>
			<path d="M87.05,61.39c0.65,0.19,1.34,0.24,2.04,0.2c0.7-0.04,1.42-0.18,2.2-0.16c0.39,0.01,0.81,0.05,1.25,0.21
				c0.44,0.16,0.93,0.45,1.31,0.92c0.38,0.47,0.58,1.05,0.62,1.55c0.05,0.49-0.01,0.96-0.15,1.43c-0.27,0.92-0.87,1.59-1.46,2.1
				c-0.6,0.51-1.24,0.9-1.86,1.26c-1.25,0.7-2.55,1.39-4.17,1.6c-1.52,0.2-3.08,0.01-4.57-0.71c-0.75-0.35-1.5-0.85-2.13-1.63
				c-0.64-0.75-1.02-1.92-0.9-2.94c0.08-1.02,0.52-1.97,1.13-2.66c0.61-0.7,1.41-1.13,2.21-1.36C84.2,60.77,85.71,61.04,87.05,61.39
				z M86.97,61.68c-1.31-0.37-2.7,0.33-3.43,1.25c-0.74,0.93-1.14,1.79-1.12,2.46c-0.02,0.35,0.06,0.56,0.24,0.9
				c0.19,0.33,0.55,0.68,0.99,0.99c0.91,0.6,2.07,1.1,3.27,1.46c1.13,0.36,2.54,0.1,3.59-0.63c1.09-0.69,1.68-2.08,1.53-2.96
				c-0.03-0.21-0.09-0.44-0.15-0.62c-0.07-0.17-0.11-0.25-0.17-0.32c-0.06-0.14-0.42-0.46-0.97-0.81c-0.54-0.34-1.18-0.71-1.82-1.02
				C88.29,62.1,87.63,61.86,86.97,61.68z"/>
		</g>
		<g>
			<path d="M90.76,65.47c-0.65,0.42-1.31,0.63-1.96,0.79c-0.65,0.15-1.31,0.22-1.96,0.22c-0.65,0-1.31-0.06-1.96-0.21
				c-0.65-0.16-1.31-0.36-1.96-0.78c0.65-0.42,1.31-0.63,1.96-0.79c0.65-0.15,1.31-0.22,1.96-0.22c0.65,0,1.31,0.07,1.96,0.21
				C89.45,64.85,90.1,65.06,90.76,65.47z"/>
		</g>
		<g>
			<path d="M67.81,65.46c-0.65,0.42-1.31,0.63-1.96,0.79c-0.65,0.15-1.31,0.22-1.96,0.22c-0.65,0-1.31-0.06-1.96-0.21
				c-0.65-0.16-1.31-0.36-1.96-0.78c0.65-0.42,1.31-0.63,1.96-0.79c0.65-0.15,1.31-0.22,1.96-0.22c0.65,0,1.31,0.07,1.96,0.21
				C66.5,64.84,67.15,65.05,67.81,65.46z"/>
		</g>
		<g>
			<path d="M44.71,64.53c-0.65,0.42-1.31,0.63-1.96,0.79c-0.65,0.15-1.31,0.22-1.96,0.22c-0.65,0-1.31-0.06-1.96-0.21
				c-0.65-0.16-1.31-0.36-1.96-0.78c0.65-0.42,1.31-0.63,1.96-0.79c0.65-0.15,1.31-0.22,1.96-0.22c0.65,0,1.31,0.07,1.96,0.21
				C43.4,63.91,44.06,64.11,44.71,64.53z"/>
		</g>
		<path d="M22.69,62.23c0,0,0.99,1.93,1.03,4.16c0.13,6.83-2.7,1.29-2.7,1.29L22.69,62.23z"/>
	</g>
	<g>
		<linearGradient id="SVGID_4_" gradientUnits="userSpaceOnUse" x1="62.3656" y1="56.771" x2="62.3656" y2="24.0841">
			<stop  offset="3.723938e-03" style="stop-color:#000000"/>
			<stop  offset="0.0574" style="stop-color:#1D0E05"/>
			<stop  offset="0.111" style="stop-color:#311908"/>
			<stop  offset="0.1639" style="stop-color:#3E1F0A"/>
			<stop  offset="0.2148" style="stop-color:#42210B"/>
			<stop  offset="0.4312" style="stop-color:#5A2D0F"/>
			<stop  offset="0.6089" style="stop-color:#713813"/>
			<stop  offset="0.8225" style="stop-color:#89441D"/>
			<stop  offset="1" style="stop-color:#984C24"/>
		</linearGradient>
		<path style="fill:url(#SVGID_4_);stroke:#000000;stroke-width:0.5;stroke-miterlimit:10;" d="M90.12,26.59
			c-12,2.18-11.27,6.13-15.41,4.82c-19.4-6.12-16.93,5.2-25.66-0.68c-2.93-1.97-8.91-11.91-19.61-2.96c-6,5.02-8.96,7.64-10.69,16.1
			c-4.12,20.22,6.64,11.96,16.83,6.59c4.77-2.51,9.31,3.84,14.93-0.15c0,0,3.07,4.51,8,3.25c6.25-1.59,8.69-5.14,8.69-5.14
			s2.23,4.15,9.81,4.13c3.35-0.01,8.01-5.93,12.28-2.68c14.78,11.26,16.15-3.72,17.41-12.49C108.14,27.43,101.18,24.58,90.12,26.59z
			"/>
		<g>
			<path d="M36.4,49.97c0.98-1.38,1.76-2.9,2.2-4.47c0.46-1.56,0.65-3.17,0.48-4.71c0-0.39-0.13-0.77-0.21-1.14
				c-0.09-0.38-0.18-0.74-0.34-1.1c-0.14-0.36-0.25-0.72-0.35-1.08c-0.15-0.35-0.26-0.72-0.37-1.09c-0.08-0.38-0.21-0.76-0.35-1.13
				c-0.13-0.38-0.25-0.77-0.35-1.18c-0.27-0.79-0.56-1.59-0.71-2.56l0.23-0.19c0.83,0.43,1.6,0.98,2.27,1.63
				c0.32,0.34,0.61,0.7,0.9,1.07l0.42,0.56c0.12,0.2,0.22,0.41,0.34,0.62c1.01,1.64,0.99,3.71,0.92,5.56
				c-0.05,0.47-0.07,0.94-0.15,1.4l-0.3,1.37l-0.46,1.31c-0.18,0.42-0.39,0.83-0.58,1.24c-0.88,1.59-1.99,3.01-3.38,4.11L36.4,49.97
				z"/>
		</g>
		<g>
			<path d="M101.11,46.08c0.63-1.98,1.14-4,1.41-6.03c0.28-2.01,0.36-4.05,0.06-5.92c-0.17-0.94-0.48-1.81-0.93-2.56
				c-0.43-0.75-0.9-1.41-1.44-2.05c-1.07-1.31-2.74-2.26-4.65-3.39l0.04-0.3c1.1-0.24,2.26-0.3,3.4-0.03
				c0.59,0.08,1.13,0.33,1.7,0.55c0.54,0.28,1.08,0.59,1.57,0.99c0.97,0.79,1.72,1.89,2.11,3.05c0.39,1.17,0.56,2.35,0.59,3.49
				c0.09,2.29-0.33,4.46-0.98,6.51c-0.68,2.04-1.51,4-2.6,5.82L101.11,46.08z"/>
		</g>
		<g>
			<path d="M88.43,49.65c-0.99-1.3-1.8-2.72-2.56-4.19c-0.73-1.48-1.34-3.04-1.7-4.74c-0.18-0.84-0.36-1.72-0.39-2.66
				c-0.03-0.93,0.15-1.92,0.63-2.82c0.47-0.89,1.22-1.69,2.11-2.13c0.88-0.46,1.83-0.61,2.74-0.46l0.09,0.29
				c-0.61,0.66-1.11,1.23-1.47,1.79c-0.35,0.57-0.56,1.12-0.71,1.7C87,37,86.88,37.6,86.73,38.27c-0.15,0.66-0.23,1.39-0.19,2.13
				c0.08,1.48,0.36,3.02,0.73,4.54c0.35,1.54,0.86,3.05,1.41,4.56L88.43,49.65z"/>
		</g>
		<g>
			<path d="M21.48,52.71c-0.38-2.9-0.41-5.84-0.26-8.78c0.17-2.94,0.64-5.89,1.52-8.79c0.44-1.45,0.98-2.88,1.65-4.29
				c0.68-1.4,1.63-2.7,2.82-3.78c1.19-1.06,2.56-1.95,4.06-2.48c1.5-0.52,3.07-0.71,4.58-0.54l0.05,0.3
				c-1.35,0.67-2.57,1.34-3.67,2.12c-1.08,0.8-2.04,1.7-2.88,2.7c-0.85,0.99-1.64,2.04-2.38,3.16c-0.76,1.11-1.42,2.33-1.97,3.61
				c-1.04,2.58-1.78,5.34-2.29,8.16c-0.53,2.81-0.82,5.69-0.93,8.58L21.48,52.71z"/>
		</g>
		<g>
			<path d="M67.09,48.32c0.74-1.14,1.46-2.29,2.04-3.49c0.6-1.18,1.14-2.38,1.49-3.58c0.18-0.6,0.26-1.21,0.27-1.78
				c0.02-0.57,0.06-1.08,0.1-1.58c0.12-1.01,0.02-1.98-0.48-3.49l0.19-0.23c1.6,0.19,3.01,1.73,3.28,3.46
				c0.16,0.85,0.07,1.71-0.19,2.46c-0.26,0.76-0.62,1.43-0.96,2.09c-0.68,1.32-1.54,2.46-2.48,3.51c-0.96,1.03-1.95,2.01-3.06,2.84
				L67.09,48.32z"/>
		</g>
		<g>
			<path d="M50.43,50.18c0.96-0.88,1.8-1.89,2.38-3c0.6-1.09,0.98-2.24,1.09-3.39c0.06-0.28,0.02-0.58,0.01-0.86
				c-0.01-0.29-0.03-0.57-0.11-0.85c-0.05-0.28-0.08-0.56-0.1-0.84c-0.05-0.28-0.07-0.56-0.08-0.85c0.03-0.59-0.09-1.18-0.03-1.84
				c-0.03-0.64-0.05-1.32,0.08-2.11l0.27-0.14c0.65,0.42,1.19,0.95,1.64,1.54c0.21,0.3,0.39,0.63,0.57,0.96
				c0.18,0.33,0.33,0.67,0.42,1.04c0.55,1.44,0.09,3.07-0.33,4.48c-0.13,0.35-0.24,0.71-0.39,1.05l-0.51,0.99l-0.63,0.9
				c-0.23,0.28-0.47,0.55-0.7,0.82c-1.01,1.01-2.15,1.84-3.43,2.36L50.43,50.18z"/>
		</g>
	</g>
	<g>
		<linearGradient id="SVGID_5_" gradientUnits="userSpaceOnUse" x1="60.3801" y1="99.7862" x2="60.3801" y2="74.804">
			<stop  offset="3.723938e-03" style="stop-color:#000000"/>
			<stop  offset="0.115" style="stop-color:#160B04"/>
			<stop  offset="0.3016" style="stop-color:#361B09"/>
			<stop  offset="0.405" style="stop-color:#42210B"/>
			<stop  offset="0.4959" style="stop-color:#4C260D"/>
			<stop  offset="0.8482" style="stop-color:#713813"/>
			<stop  offset="0.9311" style="stop-color:#89441D"/>
			<stop  offset="1" style="stop-color:#984C24"/>
		</linearGradient>
		<path style="fill:url(#SVGID_5_);stroke:#000000;stroke-width:0.5;stroke-miterlimit:10;" d="M93.88,98.71
			c-6.9-0.38-11.56,2.61-17.46,0c-6.14-2.72-11.91,0.94-18.15,0.92c-5.07-0.02-10.42-3.06-16.1-0.68
			c-4.49,1.89-6.95-1.21-10.24-0.78c-15.12,1.94-15.8,0.32-18.41-7.09c-1.8-5.11-1.88-21.77,22.94-13.49
			c3.07,1.02,9.59-2.29,13.91-0.1c4.63,2.35,3.25,2.2,14.47,0.51c3.29-0.5,3.52-0.15,9.34,0.42c3.78,0.37,11.04,0.83,15.2-0.84
			c21.76-8.73,19.15,5.5,17.46,10.73C105.09,93.72,100.22,99.06,93.88,98.71z"/>
		<g>
			<path d="M36.62,96.31c0.87-1.51,1.46-3.3,1.96-5.01c0.5-1.72,0.89-3.47,1.08-5.18c0.09-0.86,0.06-1.71-0.05-2.51
				c-0.1-0.8-0.2-1.53-0.35-2.21c-0.15-0.69-0.37-1.31-0.77-1.94c-0.41-0.62-1.03-1.21-1.8-1.84l0.07-0.29
				c1-0.19,2.1-0.04,3.09,0.52c1,0.55,1.8,1.52,2.24,2.56c0.45,1.05,0.57,2.15,0.48,3.18c-0.1,1.03-0.32,2.01-0.56,2.95
				c-0.47,1.89-1.19,3.65-2.05,5.32c-0.44,0.83-0.91,1.64-1.41,2.43c-0.52,0.79-1,1.56-1.74,2.24L36.62,96.31z"/>
		</g>
		<g>
			<path d="M102.62,94.97c0.88-1.66,1.45-3.54,1.93-5.37c0.48-1.84,0.83-3.71,0.99-5.54c0.07-0.91,0.02-1.83-0.1-2.68
				c-0.12-0.86-0.23-1.66-0.39-2.41c-0.16-0.75-0.41-1.44-0.83-2.11c-0.43-0.67-1.08-1.29-1.9-1.93l0.07-0.29
				c1.05-0.19,2.22,0.02,3.24,0.65c1.03,0.61,1.82,1.64,2.27,2.72c0.46,1.09,0.59,2.23,0.52,3.31c-0.08,1.08-0.29,2.11-0.5,3.11
				c-0.44,2-1.12,3.89-1.95,5.69c-0.43,0.9-0.89,1.77-1.39,2.63c-0.51,0.85-1.01,1.69-1.73,2.43L102.62,94.97z"/>
		</g>
		<g>
			<path d="M90.07,96.67c-1.03-1.58-1.82-3.29-2.53-5.06c-0.68-1.78-1.17-3.65-1.37-5.63c-0.1-0.99-0.16-2-0.09-3.04
				c0.07-1.04,0.35-2.09,0.9-3.04c1.05-1.9,2.98-3.3,5.03-3.47l0.15,0.26c-0.58,0.84-1.09,1.55-1.51,2.28
				c-0.39,0.74-0.7,1.46-0.95,2.19c-0.25,0.73-0.46,1.48-0.69,2.26c-0.23,0.78-0.4,1.62-0.44,2.49c-0.06,1.73,0.1,3.52,0.42,5.3
				c0.29,1.79,0.77,3.57,1.35,5.32L90.07,96.67z"/>
		</g>
		<g>
			<path d="M17.78,94.49c-0.94-0.29-1.74-0.85-2.5-1.49c-0.74-0.66-1.38-1.45-1.9-2.31c-0.5-0.86-1.19-1.74-1.15-2.78
				c0-1.02,0.25-2.05,1.05-2.98l0.3,0c0.46,0.44,0.74,0.85,0.98,1.25c0.28,0.39,0.44,0.78,0.62,1.16c0.17,0.38,0.24,0.76,0.27,1.17
				c0,0.42,0.05,0.82,0.14,1.23c0.21,0.79,0.49,1.57,0.87,2.33c0.36,0.78,0.86,1.51,1.47,2.16L17.78,94.49z"/>
		</g>
		<g>
			<path d="M27.36,90.86c-1.22-1.03-2.33-2.15-3.45-3.29c-1.1-1.15-2.15-2.36-3.11-3.67c-0.95-1.3-2.14-2.56-2.49-4.4
				c-0.17-0.89-0.27-1.94,0.24-3.04c0.28-0.54,0.75-1.02,1.28-1.2c0.26-0.11,0.52-0.11,0.76-0.14c0.24,0.01,0.48,0.06,0.7,0.12
				l0.05,0.3l-0.44,0.42c-0.1,0.16-0.23,0.27-0.27,0.42c-0.13,0.25-0.08,0.49-0.05,0.68c0.11,0.43,0.33,0.98,0.61,1.58
				c0.27,0.59,0.55,1.24,0.8,1.93c0.24,0.69,0.51,1.4,0.86,2.08c0.7,1.35,1.47,2.7,2.27,4.03c0.78,1.35,1.64,2.67,2.48,4
				L27.36,90.86z"/>
		</g>
		<g>
			<path d="M73.55,95.46c0.74-1.6,1.37-3.25,1.77-4.93c0.43-1.66,0.66-3.35,0.53-4.92c-0.07-0.78-0.29-1.52-0.6-2.16
				c-0.31-0.64-0.64-1.21-1.03-1.79c-0.73-1.21-1.95-2.25-3.36-3.59l0.09-0.29c0.98-0.11,1.97-0.03,2.92,0.31
				c0.96,0.3,1.88,0.86,2.64,1.63c0.76,0.76,1.32,1.76,1.56,2.81c0.23,1.05,0.24,2.09,0.17,3.07c-0.13,1.98-0.73,3.79-1.53,5.45
				c-0.82,1.65-1.77,3.19-2.93,4.58L73.55,95.46z"/>
		</g>
		<g>
			<path d="M50.98,94.97c0.77-1.32,1.49-2.66,2.07-4.04c0.59-1.37,1.09-2.77,1.38-4.14c0.29-1.4,0.08-2.73,0.07-3.89
				c-0.02-0.6-0.09-1.19-0.24-1.84c-0.17-0.64-0.43-1.31-0.75-2.12l0.18-0.24c1.74,0.27,3.26,1.8,3.75,3.64
				c0.26,0.9,0.27,1.85,0.08,2.71c-0.2,0.86-0.5,1.66-0.8,2.43c-0.6,1.54-1.44,2.92-2.37,4.19c-0.96,1.25-1.97,2.44-3.14,3.48
				L50.98,94.97z"/>
		</g>
	</g>
</g>
<g id="Слой_8">
</g>
<g id="Слой_7">
</g>
<g id="Слой_12">
</g>
<g id="Слой_13">
</g>
<g id="Слой_14">
</g>
<g id="Слой_15">
</g>
</svg>
