<?xml version="1.0" encoding="utf-8"?>
<!-- Generator: Adobe Illustrator 24.0.2, SVG Export Plug-In . SVG Version: 6.00 Build 0)  -->
<svg version="1.1" xmlns="http://www.w3.org/2000/svg" xmlns:xlink="http://www.w3.org/1999/xlink" x="0px" y="0px"
	 viewBox="0 0 125 100" style="enable-background:new 0 0 125 100;" xml:space="preserve">
<style type="text/css">
	.st0{stroke:#000000;stroke-width:0.25;stroke-miterlimit:10;}
	.st1{fill:url(#SVGID_1_);stroke:#000000;stroke-miterlimit:10;}
	.st2{fill:#808080;stroke:#000000;stroke-miterlimit:10;}
	.st3{fill:#31C8C5;stroke:#000000;stroke-miterlimit:10;}
	.st4{fill:#F9F912;stroke:#000000;stroke-miterlimit:10;}
	.st5{fill:#31C8C5;stroke:#31C8C5;stroke-width:0.25;stroke-miterlimit:10;}
	.st6{stroke:#31C8C5;stroke-miterlimit:10;}
	.st7{fill:url(#SVGID_2_);}
	.st8{fill:url(#SVGID_3_);stroke:#000000;stroke-miterlimit:10;}
	.st9{fill:url(#SVGID_4_);}
	.st10{fill:url(#SVGID_5_);stroke:#000000;stroke-miterlimit:10;}
	.st11{fill:url(#SVGID_6_);}
	.st12{fill:url(#SVGID_7_);stroke:#000000;stroke-miterlimit:10;}
	.st13{fill:url(#SVGID_8_);}
	.st14{fill:url(#SVGID_9_);stroke:#000000;stroke-miterlimit:10;}
	.st15{fill:url(#SVGID_10_);}
	.st16{fill:url(#SVGID_11_);stroke:#000000;stroke-miterlimit:10;}
	.st17{fill:url(#SVGID_12_);}
	.st18{fill:url(#SVGID_13_);stroke:#000000;stroke-miterlimit:10;}
	.st19{fill:url(#SVGID_14_);}
	.st20{fill:url(#SVGID_15_);stroke:#000000;stroke-miterlimit:10;}
	.st21{fill:url(#SVGID_16_);}
	.st22{fill:url(#SVGID_17_);stroke:#000000;stroke-miterlimit:10;}
	.st23{fill:url(#SVGID_18_);}
	.st24{fill:url(#SVGID_19_);stroke:#000000;stroke-miterlimit:10;}
	.st25{fill:url(#SVGID_20_);stroke:#000000;stroke-miterlimit:10;}
	.st26{fill:#984C24;stroke:#000000;stroke-miterlimit:10;}
	.st27{fill:url(#SVGID_21_);stroke:#000000;stroke-miterlimit:10;}
	.st28{fill:#F9F912;}
	.st29{fill:url(#SVGID_22_);stroke:#000000;stroke-width:0.5;stroke-miterlimit:10;}
	.st30{fill:url(#SVGID_23_);stroke:#000000;stroke-width:0.5;stroke-miterlimit:10;}
	.st31{fill:url(#SVGID_24_);stroke:#000000;stroke-miterlimit:10;}
	.st32{fill:url(#SVGID_25_);stroke:#000000;stroke-miterlimit:10;}
	.st33{fill:url(#SVGID_26_);stroke:#000000;stroke-miterlimit:10;}
	.st34{fill:url(#SVGID_27_);stroke:#000000;stroke-width:0.5;stroke-miterlimit:10;}
	.st35{fill:url(#SVGID_28_);stroke:#000000;stroke-width:0.5;stroke-miterlimit:10;}
	.st36{fill:url(#SVGID_29_);stroke:#000000;stroke-miterlimit:10;}
	.st37{fill:url(#SVGID_30_);stroke:#000000;stroke-miterlimit:10;}
	.st38{fill:url(#SVGID_31_);stroke:#000000;stroke-miterlimit:10;}
	.st39{fill:url(#SVGID_32_);stroke:#000000;stroke-width:0.5;stroke-miterlimit:10;}
	.st40{fill:url(#SVGID_33_);stroke:#000000;stroke-width:0.5;stroke-miterlimit:10;}
	.st41{fill:url(#SVGID_34_);stroke:#000000;stroke-miterlimit:10;}
	.st42{fill:url(#SVGID_35_);stroke:#000000;stroke-miterlimit:10;}
	.st43{fill:url(#SVGID_36_);stroke:#000000;stroke-miterlimit:10;}
	.st44{fill:url(#SVGID_37_);stroke:#000000;stroke-width:0.5;stroke-miterlimit:10;}
	.st45{fill:url(#SVGID_38_);stroke:#000000;stroke-width:0.5;stroke-miterlimit:10;}
	.st46{fill:url(#SVGID_39_);stroke:#000000;stroke-miterlimit:10;}
	.st47{fill:url(#SVGID_40_);stroke:#000000;stroke-miterlimit:10;}
	.st48{fill:url(#SVGID_41_);stroke:#000000;stroke-miterlimit:10;}
	.st49{fill:url(#SVGID_42_);stroke:#000000;stroke-width:0.5;stroke-miterlimit:10;}
	.st50{fill:url(#SVGID_43_);stroke:#000000;stroke-width:0.5;stroke-miterlimit:10;}
	.st51{fill:url(#SVGID_44_);stroke:#000000;stroke-miterlimit:10;}
	.st52{fill:url(#SVGID_45_);stroke:#000000;stroke-miterlimit:10;}
	.st53{fill:url(#SVGID_46_);stroke:#000000;stroke-miterlimit:10;}
	.st54{fill:url(#SVGID_47_);stroke:#000000;stroke-miterlimit:10;}
	.st55{display:none;fill:url(#SVGID_48_);stroke:#000000;stroke-miterlimit:10;}
	.st56{display:none;fill:url(#SVGID_49_);stroke:#000000;stroke-miterlimit:10;}
	.st57{fill:url(#SVGID_50_);stroke:#000000;stroke-miterlimit:10;}
	.st58{fill:url(#SVGID_51_);stroke:#000000;stroke-miterlimit:10;}
	.st59{stroke:#F9F912;stroke-miterlimit:10;}
	.st60{fill:url(#SVGID_52_);stroke:#000000;stroke-miterlimit:10;}
	.st61{fill:url(#SVGID_53_);stroke:#000000;stroke-miterlimit:10;}
	.st62{fill:url(#SVGID_54_);stroke:#000000;stroke-miterlimit:10;}
	.st63{fill:url(#SVGID_55_);stroke:#000000;stroke-miterlimit:10;}
	.st64{display:none;fill:#984C24;stroke:#000000;stroke-miterlimit:10;}
	.st65{fill:url(#SVGID_56_);stroke:#000000;stroke-miterlimit:10;}
	.st66{fill:url(#SVGID_57_);stroke:#000000;stroke-miterlimit:10;}
	.st67{fill:url(#SVGID_58_);stroke:#000000;stroke-miterlimit:10;}
	.st68{fill:url(#SVGID_59_);stroke:#000000;stroke-miterlimit:10;}
	.st69{fill:url(#SVGID_60_);stroke:#000000;stroke-miterlimit:10;}
	.st70{fill:url(#SVGID_61_);stroke:#000000;stroke-miterlimit:10;}
	.st71{fill:url(#SVGID_62_);stroke:#000000;stroke-miterlimit:10;}
	.st72{fill:url(#SVGID_63_);stroke:#000000;stroke-miterlimit:10;}
	.st73{display:none;fill:url(#SVGID_64_);stroke:#000000;stroke-miterlimit:10;}
	.st74{display:none;fill:url(#SVGID_65_);stroke:#000000;stroke-miterlimit:10;}
	.st75{fill:url(#SVGID_66_);stroke:#000000;stroke-miterlimit:10;}
	.st76{fill:url(#SVGID_67_);stroke:#000000;stroke-miterlimit:10;}
	.st77{fill:url(#SVGID_68_);stroke:#000000;stroke-miterlimit:10;}
	.st78{fill:url(#SVGID_69_);stroke:#000000;stroke-miterlimit:10;}
	.st79{fill:url(#SVGID_70_);stroke:#000000;stroke-miterlimit:10;}
	.st80{fill:url(#SVGID_71_);stroke:#000000;stroke-miterlimit:10;}
	.st81{fill:url(#SVGID_72_);stroke:#000000;stroke-miterlimit:10;}
	.st82{fill:url(#SVGID_73_);stroke:#000000;stroke-miterlimit:10;}
	.st83{fill:url(#SVGID_74_);stroke:#000000;stroke-miterlimit:10;}
	.st84{fill:url(#SVGID_75_);stroke:#000000;stroke-miterlimit:10;}
	.st85{fill:url(#SVGID_76_);stroke:#000000;stroke-miterlimit:10;}
	.st86{fill:url(#SVGID_77_);stroke:#000000;stroke-miterlimit:10;}
	.st87{fill:url(#SVGID_78_);stroke:#000000;stroke-miterlimit:10;}
	.st88{fill:url(#SVGID_79_);stroke:#000000;stroke-miterlimit:10;}
	.st89{display:none;fill:url(#SVGID_80_);stroke:#000000;stroke-miterlimit:10;}
	.st90{display:none;fill:url(#SVGID_81_);stroke:#000000;stroke-miterlimit:10;}
	.st91{fill:url(#SVGID_82_);stroke:#000000;stroke-miterlimit:10;}
	.st92{fill:url(#SVGID_83_);stroke:#000000;stroke-miterlimit:10;}
	.st93{fill:url(#SVGID_84_);stroke:#000000;stroke-miterlimit:10;}
	.st94{fill:url(#SVGID_85_);stroke:#000000;stroke-miterlimit:10;}
	.st95{fill:url(#SVGID_86_);stroke:#000000;stroke-miterlimit:10;}
	.st96{fill:url(#SVGID_87_);stroke:#000000;stroke-miterlimit:10;}
	.st97{fill:url(#SVGID_88_);stroke:#000000;stroke-miterlimit:10;}
	.st98{fill:url(#SVGID_89_);stroke:#000000;stroke-miterlimit:10;}
	.st99{fill:url(#SVGID_90_);stroke:#000000;stroke-miterlimit:10;}
	.st100{fill:url(#SVGID_91_);stroke:#000000;stroke-miterlimit:10;}
</style>
<g id="Слой_2">
</g>
<g id="Слой_1">
</g>
<g id="Слой_3">
</g>
<g id="Слой_5">
</g>
<g id="Слой_6">
</g>
<g id="Слой_4">
</g>
<g id="Слой_9">
	<linearGradient id="SVGID_1_" gradientUnits="userSpaceOnUse" x1="60.5207" y1="81.6773" x2="60.5207" y2="50">
		<stop  offset="0" style="stop-color:#808080"/>
		<stop  offset="0.2327" style="stop-color:#7E8282"/>
		<stop  offset="0.3267" style="stop-color:#778888"/>
		<stop  offset="0.3957" style="stop-color:#6B9393"/>
		<stop  offset="0.4525" style="stop-color:#59A3A2"/>
		<stop  offset="0.5011" style="stop-color:#43B8B5"/>
		<stop  offset="0.5307" style="stop-color:#31C8C5"/>
		<stop  offset="0.5574" style="stop-color:#45B6B4"/>
		<stop  offset="0.5962" style="stop-color:#5BA2A1"/>
		<stop  offset="0.6422" style="stop-color:#6C9392"/>
		<stop  offset="0.699" style="stop-color:#778888"/>
		<stop  offset="0.7787" style="stop-color:#7E8282"/>
		<stop  offset="1" style="stop-color:#808080"/>
	</linearGradient>
	<path class="st1" d="M85.85,81.68H36.41c-5.62,0-11.14-1.87-14.99-6.41c-4.75-5.61,3.07-10.4,1.93-12.78
		C20.42,56.4,29.29,50,36.41,50h49.44c7.12,0,13.98,5.34,12.5,12.49c-0.94,4.54,4.32,7.29,2.39,10.7
		C97.61,78.74,91.63,81.68,85.85,81.68z"/>
	<path class="st3" d="M97.47,12.95c0,0,7.72,2.56,10.92,8.3s5.53,11.86,3.61,10.01c-2.08-2-3.99-7.31-3.99-7.31
		s-8.09-7.91-11.13-8.82C88.75,12.7,97.47,12.95,97.47,12.95z"/>
	<radialGradient id="SVGID_2_" cx="88.1204" cy="25.0003" r="26.3173" fx="61.8828" fy="27.0461" gradientUnits="userSpaceOnUse">
		<stop  offset="0.0173" style="stop-color:#31C8C5"/>
		<stop  offset="0.1713" style="stop-color:#54A8A7"/>
		<stop  offset="0.3399" style="stop-color:#748B8B"/>
		<stop  offset="0.4331" style="stop-color:#808080"/>
		<stop  offset="0.5805" style="stop-color:#7D7D7D"/>
		<stop  offset="0.6776" style="stop-color:#747474"/>
		<stop  offset="0.7603" style="stop-color:#656565"/>
		<stop  offset="0.8348" style="stop-color:#505050"/>
		<stop  offset="0.9039" style="stop-color:#353535"/>
		<stop  offset="0.968" style="stop-color:#141414"/>
		<stop  offset="1" style="stop-color:#000000"/>
	</radialGradient>
	<path style="fill:url(#SVGID_2_);stroke:#000000;stroke-miterlimit:10;" d="M106.07,21.33c-2.23,0.57-6.83-1.85-10.31-3.63
		c-2.05-1.05-4.3-5.91-5.33-6.86c-4.24-3.9-10.14-0.01-11.32,4.59c-1.19,4.68,1,10.61,0.1,15.22c-0.96,4.9,1.93,6.29,1.93,6.29
		c0,5.5-16.14,5.76-16.14,3.01c0,0,1.07-9.46,2.29-15.03c0.8-3.64-1.64-11.01,3.44-15.79c2.18-2.05,5.14-9.14,19.59-8
		c5.8,0.46,13.24,6.32,13.24,6.33C110.55,13.79,113.85,19.34,106.07,21.33z"/>
	<path class="st26" d="M105.6,16.42c0,0,7.21,3.76,9.45,9.94c2.24,6.18,3.56,12.59,1.96,10.46c-1.73-2.31-2.77-7.86-2.77-7.86
		s-6.72-9.1-9.57-10.49C97.03,14.78,105.6,16.42,105.6,16.42z"/>
	<path class="st3" d="M23.19,14.45c0,0-6.85,4.39-8.52,10.75s-2.42,12.86-1.01,10.6c1.52-2.45,2.06-8.07,2.06-8.07
		s5.88-9.67,8.6-11.3C31.58,12.05,23.19,14.45,23.19,14.45z"/>
	<radialGradient id="SVGID_3_" cx="41.5185" cy="25.9821" r="29.6723" fx="56.4289" fy="49.3354" gradientUnits="userSpaceOnUse">
		<stop  offset="0" style="stop-color:#31C8C5"/>
		<stop  offset="0.2852" style="stop-color:#699594"/>
		<stop  offset="0.4249" style="stop-color:#808080"/>
		<stop  offset="0.5744" style="stop-color:#7D7D7D"/>
		<stop  offset="0.673" style="stop-color:#747474"/>
		<stop  offset="0.7568" style="stop-color:#656565"/>
		<stop  offset="0.8324" style="stop-color:#505050"/>
		<stop  offset="0.9025" style="stop-color:#353535"/>
		<stop  offset="0.9675" style="stop-color:#141414"/>
		<stop  offset="1" style="stop-color:#000000"/>
	</radialGradient>
	<path class="st8" d="M19.85,23.33c2.23,0.57,2.6-5.46,8.84-5.85c2.3-0.14,4.97-5.96,6-6.91c4.24-3.9,11.94,0.26,13.11,4.86
		c1.19,4.68-1,10.61-0.1,15.22c0.96,4.9-1.9,8.11-1.9,8.11c0,5.5,16.11,3.95,16.11,1.2c0,0-1.07-9.46-2.29-15.03
		c-0.8-3.64,1.64-11.01-3.44-15.79c-2.18-2.05-12.42-9.1-19.59-8c-5.75,0.88-14.5,5.97-14.51,5.98
		C16.61,13.79,12.06,21.34,19.85,23.33z"/>
	<path class="st26" d="M17.05,19.28c0,0-6.85,4.39-8.52,10.75s-2.42,12.86-1.01,10.6c1.52-2.45,2.06-8.07,2.06-8.07
		s5.88-9.67,8.6-11.3C25.44,16.88,17.05,19.28,17.05,19.28z"/>
	<g>
		<g>
			<path d="M36.04,77.12c-1.43,0.12-2.76-0.36-3.91-1.09c-0.57-0.38-1.11-0.81-1.55-1.34c-0.44-0.53-0.75-1.18-0.95-1.85
				c-0.21-0.67-0.33-1.35-0.5-1.98c-0.16-0.64-0.37-1.24-0.56-1.87c-0.42-1.23-0.93-2.56-0.86-3.97c0.15-2.77,1.27-5.49,3.08-7.46
				c1.81-1.96,4-3.5,6.56-4.21l0.16,0.25c-1.54,2.07-3.03,3.93-4.3,5.85c-1.24,1.92-2.5,3.74-3.04,5.9
				c-0.16,0.53-0.28,1.07-0.42,1.65c-0.14,0.58-0.23,1.18-0.18,1.77c0.04,0.59,0.21,1.17,0.51,1.69c0.29,0.52,0.74,0.94,1.2,1.32
				c0.46,0.37,0.91,0.71,1.29,1.1c0.39,0.39,0.74,0.81,1.14,1.21c0.77,0.83,1.58,1.68,2.44,2.73L36.04,77.12z"/>
		</g>
		<g>
			<path d="M86.71,53.37c1.31,0.34,2.42,0.98,3.46,1.69c1.02,0.74,2,1.57,2.77,2.6c0.76,1.03,1.21,2.31,1.71,3.49
				c0.49,1.19,1.08,2.27,1.56,3.53c0.51,1.24,0.79,2.79,0.42,4.18c-0.35,1.38-0.95,2.67-1.77,3.74c-0.82,1.07-1.85,1.91-2.94,2.62
				c-1.1,0.69-2.27,1.25-3.58,1.54l-0.18-0.24c0.66-1.16,1.4-2.14,2.1-3.11l2.04-2.76c0.66-0.88,1.35-1.71,1.79-2.65
				c0.42-0.92,0.95-1.9,0.91-3.05c-0.04-1.14-0.56-2.28-1.34-3.18c-0.81-0.9-1.86-1.57-2.7-2.38c-1.62-1.7-3.14-3.5-4.43-5.78
				L86.71,53.37z"/>
		</g>
		<g>
			<path d="M52.94,78.84c-1-0.58-1.73-1.27-2.4-2.04c-0.63-0.78-1.27-1.63-1.45-2.75c-0.2-1.12-0.05-2.27-0.2-3.28
				c-0.11-1.01-0.41-2.07-0.64-3.07c-0.25-0.98-0.32-1.98-0.39-3c-0.08-1.02-0.08-2.07,0.13-3.13c0.21-1.06,0.59-2.13,1.2-3.1
				c0.62-0.95,1.49-1.83,2.59-2.16l0.2,0.22c-0.75,1.99-0.73,3.61-0.86,5.46c-0.05,0.91-0.16,1.85-0.31,2.81
				c-0.14,0.97-0.23,1.96-0.54,2.96c-0.3,0.98-0.65,1.92-0.49,2.88c0.1,0.97,0.81,1.75,1.43,2.44c0.65,0.69,1.02,1.55,1.4,2.48
				c0.35,0.94,0.63,1.96,0.59,3.12L52.94,78.84z"/>
		</g>
		<g>
			<path d="M65.54,52.76c1.21,0.56,2.37,1.08,3.48,1.84c1.09,0.76,2.15,1.68,2.91,2.85c0.76,1.17,1.08,2.59,1.43,3.88
				c0.37,1.29,0.72,2.53,1.2,3.79c0.47,1.29,0.85,2.73,0.72,4.15c-0.11,1.41-0.37,2.82-0.95,4.11c-0.57,1.29-1.43,2.45-2.49,3.42
				c-0.53,0.48-1.13,0.91-1.83,1.23c-0.35,0.16-0.72,0.28-1.14,0.32c-0.4,0.04-0.91-0.04-1.18-0.36l0.15-0.26
				c0.57-0.04,0.86-0.54,1.21-0.97c0.33-0.46,0.61-0.97,0.89-1.48c0.54-1.03,0.98-2.12,1.44-3.17c0.44-1.06,0.94-2.12,1.23-3.24
				c0.27-1.11,0.69-2.27,0.71-3.51c-0.05-1.24-0.33-2.51-1.02-3.56c-0.68-1.06-1.66-1.88-2.45-2.75c-0.79-0.88-1.53-1.81-2.34-2.75
				c-0.4-0.48-0.81-0.98-1.19-1.52c-0.38-0.55-0.78-1.12-1-1.81L65.54,52.76z"/>
		</g>
		<g>
			<path class="st28" d="M39.11,62.35c2.6,0.04,6.42,0.17,6.46,2.31c0.04,2.13-3.52,3.91-6.12,3.86s-6.26-1.15-6.3-3.28
				C33.11,63.11,36.51,62.31,39.11,62.35z"/>
			<path d="M39.11,62.2c0.63,0.02,1.26-0.05,1.91-0.17c0.65-0.12,1.32-0.3,2.03-0.36c0.71-0.06,1.48-0.02,2.29,0.41
				c0.4,0.22,0.83,0.55,1.13,1.07c0.32,0.51,0.4,1.15,0.33,1.66c-0.16,1.06-0.83,1.75-1.44,2.18c-0.63,0.44-1.27,0.7-1.88,0.98
				c-1.23,0.52-2.42,1.02-3.83,1.32c-1.38,0.26-2.78,0.3-4.18-0.1c-0.7-0.2-1.42-0.45-2.13-0.92c-0.69-0.45-1.52-1.23-1.73-2.45
				c-0.26-1.14,0.33-2.47,1.11-3.07c0.76-0.65,1.58-0.84,2.32-0.89C36.55,61.82,37.84,62.21,39.11,62.2z M39.11,62.5
				c-1.24-0.03-2.49,0.65-3.36,1.41c-0.43,0.37-0.78,0.74-0.92,0.98c-0.15,0.25-0.04,0.25-0.05,0.36c0,0.04,0.08,0.27,0.39,0.56
				c0.3,0.27,0.74,0.55,1.23,0.78c0.49,0.23,1.02,0.43,1.56,0.63c0.54,0.2,1.12,0.4,1.68,0.52c1.11,0.24,2.4,0.02,3.4-0.62
				c0.5-0.32,0.91-0.78,1.15-1.25c0.25-0.48,0.28-0.94,0.16-1.15c-0.05-0.12-0.1-0.12-0.13-0.14c-0.03-0.02-0.1-0.1-0.24-0.2
				c-0.28-0.21-0.75-0.5-1.27-0.79C41.64,62.99,40.36,62.47,39.11,62.5z"/>
		</g>
		<g>
			<path class="st28" d="M61.57,69.46c2.14-0.24,6.17-0.57,6.21-2.7s-3.52-3.91-6.12-3.86c-2.6,0.04-6.26,1.15-6.3,3.28
				C55.32,68.3,59.09,69.73,61.57,69.46z"/>
			<path d="M61.55,69.31c0.63-0.06,1.26-0.22,1.85-0.48c0.59-0.26,1.15-0.62,1.65-0.95c0.49-0.34,0.93-0.65,1.17-0.88
				c0.13-0.11,0.17-0.17,0.21-0.2c0.05-0.02,0.09-0.06,0.14-0.21c0.08-0.26-0.01-0.77-0.3-1.24c-0.3-0.47-0.74-0.9-1.26-1.19
				c-1.04-0.59-2.36-0.75-3.45-0.43c-1.15,0.32-2.27,0.75-3.22,1.21c-0.47,0.25-0.88,0.54-1.12,0.8c-0.24,0.3-0.24,0.4-0.25,0.45
				c-0.03,0.03-0.02,0.25,0.24,0.58c0.24,0.32,0.6,0.72,1.03,1.13C59.08,68.72,60.3,69.44,61.55,69.31z M61.58,69.61
				c-1.29,0.11-2.63,0.34-4.13,0.19c-0.74-0.09-1.51-0.31-2.21-0.84c-0.36-0.26-0.69-0.61-0.98-1.06c-0.29-0.44-0.48-1.04-0.5-1.64
				c-0.02-0.59,0.13-1.21,0.41-1.7c0.27-0.5,0.62-0.87,0.98-1.15c0.72-0.57,1.44-0.88,2.15-1.1c1.41-0.46,2.83-0.5,4.22-0.27
				c1.45,0.25,2.67,0.77,3.91,1.27c0.61,0.27,1.25,0.53,1.89,0.93c0.62,0.39,1.33,0.96,1.61,1.97c0.14,0.47,0.16,1.09-0.06,1.65
				c-0.22,0.56-0.61,0.99-0.99,1.26c-0.78,0.55-1.55,0.69-2.28,0.69c-0.73,0.01-1.42-0.11-2.08-0.19
				C62.85,69.55,62.21,69.53,61.58,69.61z"/>
		</g>
		<g>
			<path class="st28" d="M85.33,63.03c3.44,0.77,6.17,0.49,6.21,2.62c0.04,2.13-3.52,3.91-6.12,3.86c-2.6-0.04-6.26-1.15-6.3-3.28
				S82.34,62.37,85.33,63.03z"/>
			<path d="M85.36,62.89c0.62,0.15,1.26,0.17,1.91,0.1c0.66-0.07,1.32-0.23,2.02-0.28c0.7-0.04,1.47-0.04,2.39,0.55
				c0.45,0.3,0.87,0.86,1.02,1.43c0.14,0.57,0.11,1.06-0.04,1.57c-0.31,0.99-1.02,1.55-1.64,1.94c-0.64,0.4-1.28,0.65-1.9,0.92
				c-1.24,0.5-2.47,1.03-3.93,1.26c-1.39,0.23-2.82,0.17-4.24-0.31c-0.71-0.24-1.45-0.55-2.16-1.16c-0.36-0.3-0.7-0.71-0.95-1.22
				c-0.25-0.51-0.36-1.16-0.31-1.72c0.11-1.15,0.74-2.05,1.42-2.6c0.69-0.56,1.48-0.82,2.25-0.92
				C82.75,62.27,84.1,62.63,85.36,62.89z M85.29,63.18c-1.23-0.29-2.54,0.31-3.34,1.11c-0.82,0.79-1.32,1.61-1.23,1.88
				c0,0.08,0.01,0.08,0.03,0.15c0.02,0.06,0.08,0.17,0.19,0.3c0.22,0.27,0.63,0.56,1.09,0.81c0.95,0.47,2.07,0.9,3.22,1.23
				c1.09,0.33,2.41,0.2,3.47-0.39c0.53-0.29,0.98-0.71,1.29-1.18c0.31-0.47,0.4-0.99,0.33-1.26c-0.04-0.12-0.11-0.29-0.15-0.33
				c-0.05-0.03-0.03-0.01-0.1-0.08c-0.14-0.15-0.65-0.43-1.19-0.73c-0.55-0.3-1.15-0.63-1.76-0.91
				C86.54,63.51,85.92,63.31,85.29,63.18z"/>
		</g>
		<g>
			<path d="M89.07,66.19c-0.65,0.42-1.31,0.63-1.96,0.79c-0.65,0.15-1.31,0.22-1.96,0.22c-0.65,0-1.31-0.06-1.96-0.21
				c-0.65-0.16-1.31-0.36-1.96-0.78c0.65-0.42,1.31-0.63,1.96-0.79c0.65-0.15,1.31-0.22,1.96-0.22c0.65,0,1.31,0.07,1.96,0.21
				C87.76,65.57,88.42,65.77,89.07,66.19z"/>
		</g>
		<g>
			<path d="M66.13,66.18c-0.65,0.42-1.31,0.63-1.96,0.79c-0.65,0.15-1.31,0.22-1.96,0.22c-0.65,0-1.31-0.06-1.96-0.21
				c-0.65-0.16-1.31-0.36-1.96-0.78c0.65-0.42,1.31-0.63,1.96-0.79c0.65-0.15,1.31-0.22,1.96-0.22c0.65,0,1.31,0.07,1.96,0.21
				C64.82,65.56,65.47,65.76,66.13,66.18z"/>
		</g>
		<g>
			<path d="M43.03,65.43c-0.65,0.42-1.31,0.63-1.96,0.79c-0.65,0.15-1.31,0.22-1.96,0.22c-0.65,0-1.31-0.06-1.96-0.21
				c-0.65-0.16-1.31-0.36-1.96-0.78c0.65-0.42,1.31-0.63,1.96-0.79c0.65-0.15,1.31-0.22,1.96-0.22c0.65,0,1.31,0.07,1.96,0.21
				C41.72,64.81,42.38,65.01,43.03,65.43z"/>
		</g>
		<path d="M23.86,63.8c0,0,0.3,1.64,0.35,3.42c0.1,3.69-2.88,0.67-2.88,0.67L23.86,63.8z"/>
	</g>
	<g>
		<linearGradient id="SVGID_4_" gradientUnits="userSpaceOnUse" x1="61.1838" y1="61.1271" x2="61.1838" y2="28.4401">
			<stop  offset="3.723938e-03" style="stop-color:#000000"/>
			<stop  offset="0.0574" style="stop-color:#1D0E05"/>
			<stop  offset="0.111" style="stop-color:#311908"/>
			<stop  offset="0.1639" style="stop-color:#3E1F0A"/>
			<stop  offset="0.2148" style="stop-color:#42210B"/>
			<stop  offset="0.4312" style="stop-color:#5A2D0F"/>
			<stop  offset="0.6089" style="stop-color:#713813"/>
			<stop  offset="0.8225" style="stop-color:#89441D"/>
			<stop  offset="1" style="stop-color:#984C24"/>
		</linearGradient>
		<path style="fill:url(#SVGID_4_);stroke:#000000;stroke-width:0.5;stroke-miterlimit:10;" d="M88.93,30.94
			c-12,2.18-11.27,6.13-15.41,4.82c-18.61-5.91-16.93,5.2-25.66-0.68c-2.93-1.97-8.91-11.91-19.61-2.96
			c-6,5.02-8.96,7.64-10.69,16.1c-4.12,20.22,6.64,11.96,16.83,6.59c4.77-2.51,9.31,3.84,14.93-0.15c0,0,3.07,4.51,8,3.25
			c6.25-1.59,8.69-5.14,8.69-5.14s2.23,4.15,9.81,4.13c3.35-0.01,8.01-5.93,12.28-2.68c14.78,11.26,16.15-3.72,17.41-12.49
			C106.96,31.79,100,28.93,88.93,30.94z"/>
		<g>
			<path d="M35.21,54.32c0.98-1.38,1.76-2.9,2.2-4.47c0.46-1.56,0.65-3.17,0.48-4.71c0-0.39-0.13-0.77-0.21-1.14
				c-0.09-0.38-0.18-0.74-0.34-1.1c-0.14-0.36-0.25-0.72-0.35-1.08c-0.15-0.35-0.26-0.72-0.37-1.09c-0.08-0.38-0.21-0.76-0.35-1.13
				c-0.13-0.38-0.25-0.77-0.35-1.18c-0.27-0.79-0.56-1.59-0.71-2.56l0.23-0.19c0.83,0.43,1.6,0.98,2.27,1.63
				c0.32,0.34,0.61,0.7,0.9,1.07l0.42,0.56c0.12,0.2,0.22,0.41,0.34,0.62c1.01,1.64,0.99,3.71,0.92,5.56
				c-0.05,0.47-0.07,0.94-0.15,1.4l-0.3,1.37l-0.46,1.31c-0.18,0.42-0.39,0.83-0.58,1.24c-0.88,1.59-1.99,3.01-3.38,4.11
				L35.21,54.32z"/>
		</g>
		<g>
			<path d="M99.93,50.44c0.63-1.98,1.14-4,1.41-6.03c0.28-2.01,0.36-4.05,0.06-5.92c-0.17-0.94-0.48-1.81-0.93-2.56
				c-0.43-0.75-0.9-1.41-1.44-2.05c-1.07-1.31-2.74-2.26-4.65-3.39l0.04-0.3c1.1-0.24,2.26-0.3,3.4-0.03
				c0.59,0.08,1.13,0.33,1.7,0.55c0.54,0.28,1.08,0.59,1.57,0.99c0.97,0.79,1.72,1.89,2.11,3.05c0.39,1.17,0.56,2.35,0.59,3.49
				c0.09,2.29-0.33,4.46-0.98,6.51c-0.68,2.04-1.51,4-2.6,5.82L99.93,50.44z"/>
		</g>
		<g>
			<path d="M87.24,54c-0.99-1.3-1.8-2.72-2.56-4.19c-0.73-1.48-1.34-3.04-1.7-4.74c-0.18-0.84-0.36-1.72-0.4-2.66
				c-0.03-0.93,0.15-1.92,0.63-2.82c0.47-0.89,1.22-1.69,2.11-2.13c0.88-0.46,1.83-0.61,2.74-0.46l0.09,0.29
				c-0.61,0.66-1.11,1.23-1.47,1.79c-0.35,0.57-0.56,1.12-0.71,1.7c-0.15,0.58-0.28,1.18-0.42,1.84c-0.15,0.66-0.23,1.39-0.19,2.13
				c0.08,1.48,0.36,3.02,0.73,4.54c0.35,1.54,0.86,3.05,1.41,4.56L87.24,54z"/>
		</g>
		<g>
			<path d="M20.3,57.06c-0.38-2.9-0.41-5.84-0.26-8.78c0.17-2.94,0.64-5.89,1.52-8.79c0.44-1.45,0.98-2.88,1.65-4.29
				c0.68-1.4,1.63-2.7,2.82-3.78c1.19-1.06,2.56-1.95,4.06-2.48c1.5-0.52,3.07-0.71,4.58-0.54l0.05,0.3
				c-1.35,0.67-2.57,1.34-3.67,2.12c-1.08,0.8-2.04,1.7-2.88,2.7c-0.85,0.99-1.64,2.04-2.38,3.16c-0.76,1.11-1.42,2.33-1.97,3.61
				c-1.04,2.58-1.78,5.34-2.29,8.16c-0.53,2.81-0.82,5.69-0.93,8.58L20.3,57.06z"/>
		</g>
		<g>
			<path d="M65.91,52.67c0.74-1.14,1.46-2.29,2.04-3.49c0.6-1.18,1.14-2.38,1.49-3.58c0.18-0.6,0.26-1.21,0.27-1.78
				c0.02-0.57,0.06-1.08,0.1-1.58c0.12-1.01,0.02-1.98-0.48-3.49l0.19-0.23c1.6,0.19,3.01,1.73,3.28,3.46
				c0.16,0.85,0.07,1.71-0.19,2.46c-0.26,0.76-0.62,1.43-0.96,2.09c-0.68,1.32-1.54,2.46-2.48,3.51c-0.96,1.03-1.95,2.01-3.06,2.84
				L65.91,52.67z"/>
		</g>
		<g>
			<path d="M49.25,54.54c0.96-0.88,1.8-1.89,2.38-3c0.6-1.09,0.98-2.24,1.09-3.39c0.06-0.28,0.02-0.58,0.01-0.86
				c-0.01-0.29-0.03-0.57-0.11-0.85c-0.05-0.28-0.08-0.56-0.1-0.84c-0.05-0.28-0.07-0.56-0.08-0.85c0.03-0.59-0.09-1.18-0.03-1.84
				c-0.03-0.64-0.05-1.32,0.08-2.11l0.27-0.14c0.65,0.42,1.19,0.95,1.64,1.54c0.21,0.3,0.39,0.63,0.57,0.96
				c0.18,0.33,0.33,0.67,0.42,1.04c0.55,1.44,0.09,3.07-0.33,4.48c-0.13,0.35-0.24,0.71-0.39,1.05l-0.51,0.99l-0.63,0.9
				c-0.23,0.28-0.47,0.55-0.7,0.82c-1.01,1.01-2.15,1.84-3.43,2.36L49.25,54.54z"/>
		</g>
	</g>
	<g>
		<linearGradient id="SVGID_5_" gradientUnits="userSpaceOnUse" x1="59.1984" y1="99.4708" x2="59.1984" y2="74.16">
			<stop  offset="3.723938e-03" style="stop-color:#000000"/>
			<stop  offset="0.115" style="stop-color:#160B04"/>
			<stop  offset="0.3016" style="stop-color:#361B09"/>
			<stop  offset="0.405" style="stop-color:#42210B"/>
			<stop  offset="0.4959" style="stop-color:#4C260D"/>
			<stop  offset="0.8482" style="stop-color:#713813"/>
			<stop  offset="0.9311" style="stop-color:#89441D"/>
			<stop  offset="1" style="stop-color:#984C24"/>
		</linearGradient>
		<path style="fill:url(#SVGID_5_);stroke:#000000;stroke-width:0.5;stroke-miterlimit:10;" d="M92.7,98.06
			c-6.9-0.38-8.65,3.35-17.46,0c-6.27-2.39-11.91,0.94-18.15,0.92c-5.07-0.02-11.05-4.2-16.1-0.68c-3.78,2.63-6.95-1.21-10.24-0.78
			c-15.12,1.94-15.8,0.32-18.41-7.09c-1.8-5.11-1.88-21.77,22.94-13.49c3.07,1.02,9.59-2.29,13.91-0.1
			c4.63,2.35,3.25,2.2,14.47,0.51c3.29-0.5,3.52-0.15,9.34,0.42c3.78,0.37,11.04,0.83,15.2-0.84c21.76-8.73,19.15,5.5,17.46,10.73
			C103.91,93.07,99.04,98.42,92.7,98.06z"/>
		<g>
			<path d="M35.44,95.67c0.87-1.51,1.46-3.3,1.96-5.01c0.5-1.72,0.89-3.47,1.08-5.18c0.09-0.86,0.06-1.71-0.05-2.51
				c-0.1-0.8-0.2-1.53-0.35-2.21c-0.15-0.69-0.37-1.31-0.77-1.94c-0.41-0.62-1.03-1.21-1.8-1.84l0.07-0.29
				c1-0.19,2.1-0.04,3.09,0.52c1,0.55,1.8,1.52,2.24,2.56c0.45,1.05,0.57,2.15,0.48,3.18c-0.1,1.03-0.32,2.01-0.56,2.95
				c-0.47,1.89-1.19,3.65-2.05,5.32c-0.44,0.83-0.91,1.64-1.41,2.43c-0.52,0.79-1,1.56-1.74,2.24L35.44,95.67z"/>
		</g>
		<g>
			<path d="M101.44,94.33c0.88-1.66,1.45-3.54,1.93-5.37c0.48-1.84,0.83-3.71,0.99-5.54c0.07-0.91,0.02-1.83-0.1-2.68
				c-0.12-0.86-0.23-1.66-0.39-2.41c-0.16-0.75-0.41-1.44-0.83-2.11c-0.43-0.67-1.08-1.29-1.9-1.93l0.07-0.29
				c1.05-0.19,2.22,0.02,3.24,0.65c1.03,0.61,1.82,1.64,2.27,2.72c0.46,1.09,0.59,2.23,0.52,3.31c-0.08,1.08-0.29,2.11-0.5,3.11
				c-0.44,2-1.12,3.89-1.95,5.69c-0.43,0.9-0.89,1.77-1.39,2.63c-0.51,0.85-1.01,1.69-1.73,2.43L101.44,94.33z"/>
		</g>
		<g>
			<path d="M88.89,96.02c-1.03-1.58-1.82-3.29-2.53-5.06c-0.68-1.78-1.17-3.65-1.37-5.63c-0.1-0.99-0.16-2-0.09-3.04
				c0.07-1.04,0.35-2.09,0.9-3.04c1.05-1.9,2.98-3.3,5.03-3.47l0.15,0.26c-0.58,0.84-1.09,1.55-1.51,2.28
				c-0.39,0.74-0.7,1.46-0.95,2.19c-0.25,0.73-0.46,1.48-0.69,2.26c-0.23,0.78-0.4,1.62-0.44,2.49c-0.06,1.73,0.1,3.52,0.42,5.3
				c0.29,1.79,0.77,3.57,1.35,5.32L88.89,96.02z"/>
		</g>
		<g>
			<path d="M16.6,93.84c-0.94-0.29-1.74-0.85-2.5-1.49c-0.74-0.66-1.38-1.45-1.9-2.31c-0.5-0.86-1.19-1.74-1.15-2.78
				c0-1.02,0.25-2.05,1.05-2.98l0.3,0c0.46,0.44,0.74,0.85,0.98,1.25c0.28,0.39,0.44,0.78,0.62,1.16c0.17,0.38,0.24,0.76,0.27,1.17
				c0,0.42,0.05,0.82,0.14,1.23c0.21,0.79,0.49,1.57,0.87,2.33c0.36,0.78,0.86,1.51,1.47,2.16L16.6,93.84z"/>
		</g>
		<g>
			<path d="M26.18,90.22c-1.22-1.03-2.33-2.15-3.45-3.29c-1.1-1.15-2.15-2.36-3.11-3.67c-0.95-1.3-2.14-2.56-2.49-4.4
				c-0.17-0.89-0.27-1.94,0.24-3.04c0.28-0.54,0.75-1.02,1.28-1.2c0.26-0.11,0.52-0.11,0.76-0.14c0.24,0.01,0.48,0.06,0.7,0.12
				l0.05,0.3l-0.44,0.42c-0.1,0.16-0.23,0.27-0.27,0.42c-0.13,0.25-0.08,0.49-0.05,0.68c0.11,0.43,0.33,0.98,0.61,1.58
				c0.27,0.59,0.55,1.24,0.8,1.93c0.24,0.69,0.51,1.4,0.86,2.08c0.7,1.35,1.47,2.7,2.27,4.03c0.78,1.35,1.64,2.67,2.48,4
				L26.18,90.22z"/>
		</g>
		<g>
			<path d="M72.37,94.81c0.74-1.6,1.37-3.25,1.77-4.93c0.43-1.66,0.66-3.35,0.53-4.92c-0.07-0.78-0.29-1.52-0.6-2.16
				c-0.31-0.64-0.64-1.21-1.03-1.79c-0.73-1.21-1.95-2.25-3.36-3.59l0.09-0.29c0.98-0.11,1.97-0.03,2.92,0.31
				c0.96,0.3,1.88,0.86,2.64,1.63c0.76,0.76,1.32,1.76,1.56,2.81c0.23,1.05,0.24,2.09,0.17,3.07c-0.13,1.98-0.73,3.79-1.53,5.45
				c-0.82,1.65-1.77,3.19-2.93,4.58L72.37,94.81z"/>
		</g>
		<g>
			<path d="M49.8,94.33c0.77-1.32,1.49-2.66,2.07-4.04c0.59-1.37,1.09-2.77,1.38-4.14c0.29-1.4,0.08-2.73,0.07-3.89
				c-0.02-0.6-0.09-1.19-0.24-1.84c-0.17-0.64-0.43-1.31-0.75-2.12l0.18-0.24c1.74,0.27,3.26,1.8,3.75,3.64
				c0.26,0.9,0.27,1.85,0.08,2.71c-0.2,0.86-0.5,1.66-0.8,2.43c-0.6,1.54-1.44,2.92-2.37,4.19c-0.96,1.25-1.97,2.44-3.14,3.48
				L49.8,94.33z"/>
		</g>
	</g>
</g>
<g id="Слой_10">
</g>
<g id="Слой_11">
</g>
<g id="Слой_8">
</g>
<g id="Слой_7">
</g>
<g id="Слой_12">
</g>
<g id="Слой_13">
</g>
<g id="Слой_14">
</g>
<g id="Слой_15">
</g>
</svg>
