<svg id="Слой_2" data-name="Слой 2" xmlns="http://www.w3.org/2000/svg" xmlns:xlink="http://www.w3.org/1999/xlink" viewBox="0 0 105 70"><defs><style>.cls-1,.cls-2,.cls-3,.cls-4,.cls-5{stroke:#000;}.cls-1,.cls-2,.cls-3,.cls-4,.cls-5,.cls-6,.cls-7{stroke-miterlimit:10;}.cls-1,.cls-6{stroke-width:0.25px;}.cls-2{fill:url(#Новый_образец_градиентной_залив);}.cls-3{fill:gray;}.cls-4,.cls-6{fill:#31c8c5;}.cls-5{fill:#f9f912;}.cls-6,.cls-7{stroke:#31c8c5;}.cls-8{fill:url(#Безымянный_градиент_58);}</style><linearGradient id="Новый_образец_градиентной_залив" x1="43.17" y1="60.41" x2="43.17" y2="1.91" gradientUnits="userSpaceOnUse"><stop offset="0"/><stop offset="0.1" stop-color="#1d0e05"/><stop offset="0.2" stop-color="#311908"/><stop offset="0.29" stop-color="#3e1f0a"/><stop offset="0.38" stop-color="#42210b"/><stop offset="0.5" stop-color="#5a2d0f"/><stop offset="0.6" stop-color="#713813"/><stop offset="0.67" stop-color="#5d2e10"/><stop offset="0.74" stop-color="#4e270d"/><stop offset="0.78" stop-color="#542a0f"/><stop offset="0.82" stop-color="#653314"/><stop offset="0.87" stop-color="#82411d"/><stop offset="0.91" stop-color="#984c24"/></linearGradient><linearGradient id="Безымянный_градиент_58" x1="74.22" y1="38.56" x2="91.76" y2="34.35" gradientTransform="matrix(1, 0, 0, 1, 0.38, -0.11)" gradientUnits="userSpaceOnUse"><stop offset="0"/><stop offset="0.03" stop-color="#151515"/><stop offset="0.08" stop-color="#363636"/><stop offset="0.14" stop-color="#515151"/><stop offset="0.2" stop-color="#666"/><stop offset="0.26" stop-color="#757575"/><stop offset="0.34" stop-color="#7d7d7d"/><stop offset="0.46" stop-color="gray"/><stop offset="0.48" stop-color="#7c7c7c"/><stop offset="0.72" stop-color="#3a3a3a"/><stop offset="0.9" stop-color="#101010"/><stop offset="0.99"/></linearGradient></defs><title>1</title><path class="cls-1" d="M74.09,65.87l-3.16-4.62-.23-.34c-2.43-3.41-3.42-5-5.88-5.2l-3,1.89c-.17.26-7.11,2.42.22,5.58,2.93,1.26,11.39,5.05,11.39,5.05C74,68.64,75.94,68.07,74.09,65.87Z"/><path class="cls-1" d="M36.28,69l3.91-4c.08-.1.19-.19.28-.29,2.87-3,4.31-6.62,3.94-6.76L40.72,56.5c-.29-.12-3.79.13-3.93.4l-3,11.91C33.54,69.4,35.82,69.49,36.28,69Z"/><path class="cls-1" d="M6.55,67.16l7.35-3c.15-.08.31-.13.46-.2,4.65-2,8.24-5.1,8-5.39l-2.75-2.88c-.22-.23-1.22,0-3.43-.81L5.34,65.59C4.7,66.07,5.81,67.48,6.55,67.16Z"/><path class="cls-2" d="M81,55.29c-5.31-1-2.72,4.79-10.83,2.84-3.61-.87-5.9,0-12.79,1.89-6.69,1.83-8.3-4-17.72-1-5.9,1.89-10.44,1.69-13.78,0-5.35-2.71-8.26-1.81-12.79-1.89-1.85,0-6.51-1-9.17-4.67C2.87,51.1.5,44,1.11,36.55c.58-7.15,2.94-9.27,4.47-11.47a35.58,35.58,0,0,0,4.75-9.46c2.2-5.68,3.53-9.95,7.38-11.91,3.79-1.3,5.92-2.39,6.16,6.85,1,7,4.32,6.08,4.93,6.06,1.54-.05,5.57-4.69,6.24-6.21,3.1-6.75,7.2-8,9.88-7.63,3.64,2.44-.63,4.27,3.85,13.35,1.47,3,8.65-1.21,9.07-3.87,2.84-9.85,14.58-15,13.85-4.79-.46,6.38,1,7.93,4,10.57,2.78,1.57,5.62,4.45,6.3,6.09,1.16,2.8,5.9,10.39,1.6,14.79-2.76,2.82-1,4.82.36,6.93C86.3,49.52,85,56.06,81,55.29Z"/><path class="cls-3" d="M21.24,2.72s-3.67-2-9,8.16c-1.13,2.15-1.54,6-.7,4.92,1.77-2.24,3,1.06,4-2.29.28-.92-.05-2.49,1.87-4.56A65.11,65.11,0,0,0,21.24,2.72Z"/><path class="cls-3" d="M42.8,2.61c-1.08.05-4.23.17-7.59,8.12-.61,1.43-1.56,5.38.5,3.24.82-.85,3.63,0,3.63,0,.27-.92.8-4.66,3-7.11.46-.51,1-3.14,2.13-3.41C46.38,3.05,44.2,2.55,42.8,2.61Z"/><path class="cls-3" d="M68.68,2.13s-6.17-.39-10.07,8.61c-.62,1.43.51,5.25,2.1,2.74.72-1.12,3.84.5,3.84.5.88-3.4.25-5.22.67-6.59C65.9,5.17,68.68,2.13,68.68,2.13Z"/><path class="cls-4" d="M23.84,8.44c-.27,3.08-1.35,8.31-3.1,8.16s-5.87-4.48-2.68-8.67c2-2.6,2.61-5.63,3.65-5.3C23.41,3.18,24.11,5.36,23.84,8.44Z"/><path class="cls-5" d="M20,9.58c.76-2.06.8-3.84,1.33-4.1.73-.36,1.39-1.38.79,4-.26,2.3-1,4.4-1.52,4.36S19.3,11.43,20,9.58Z"/><path class="cls-4" d="M47.49,8.61c-.26,3-1.27,8.06-2.88,7.92s-5.66-1.68-3-7.93c1.35-3.17,3-5.92,4-5.6C47.12,3.52,47.75,5.63,47.49,8.61Z"/><path class="cls-5" d="M44.05,8.91c.62-2.12.83-4,1.42-4s.94,1.72.75,4a10.58,10.58,0,0,1-1.45,4.15C43.81,15.38,42.75,13.3,44.05,8.91Z"/><path class="cls-4" d="M71.9,7.65c-.25,3.12-1.49,7.92-3.21,7.78s-4.73,1.13-4-5.94c.32-3.3,4.11-8,5.13-7.7C71.46,2.33,72.15,4.53,71.9,7.65Z"/><path class="cls-5" d="M67.86,7.87c.75-2.2.44-3.91,1.73-3.93.73,0,1.12,1.91.93,4.25a7.58,7.58,0,0,1-1.61,4.23C67.64,14.15,66.1,13.08,67.86,7.87Z"/><ellipse class="cls-6" cx="13.09" cy="21.97" rx="0.78" ry="1.5" transform="translate(-9.46 34.05) rotate(-87.39)"/><ellipse class="cls-6" cx="34.87" cy="20.8" rx="0.85" ry="1.1" transform="translate(6.13 49.48) rotate(-75.76)"/><ellipse class="cls-6" cx="20.88" cy="26.48" rx="0.85" ry="1.1" transform="translate(-9.92 40.21) rotate(-75.76)"/><ellipse class="cls-6" cx="34.71" cy="29.29" rx="1.38" ry="0.71"/><ellipse class="cls-6" cx="46.71" cy="29.29" rx="1.38" ry="0.71"/><ellipse class="cls-6" cx="49.16" cy="22.62" rx="1.36" ry="0.7" transform="translate(-4.69 17.29) rotate(-19.05)"/><ellipse class="cls-6" cx="61.03" cy="27.69" rx="0.78" ry="1.5" transform="translate(22.55 82.55) rotate(-79.36)"/><ellipse class="cls-6" cx="68" cy="20.97" rx="0.78" ry="1.5" transform="translate(34.83 83.93) rotate(-79.36)"/><ellipse class="cls-6" cx="74.63" cy="48.78" rx="0.7" ry="1.36" transform="translate(7.59 107.55) rotate(-74.41)"/><ellipse class="cls-6" cx="58.24" cy="53.48" rx="0.7" ry="1.16" transform="translate(-5.07 100.84) rotate(-79.36)"/><ellipse class="cls-6" cx="34.67" cy="55.47" rx="1.5" ry="0.78" transform="translate(-9.63 7.34) rotate(-10.62)"/><ellipse class="cls-6" cx="9.74" cy="54.03" rx="0.78" ry="1.5" transform="translate(-45.02 57.89) rotate(-83.82)"/><ellipse class="cls-6" cx="4.67" cy="44.8" rx="0.72" ry="1.12" transform="translate(-40.38 44.62) rotate(-83.82)"/><ellipse class="cls-6" cx="43.02" cy="48.25" rx="1.1" ry="0.85" transform="translate(-10.23 11.6) rotate(-13.74)"/><path class="cls-7" d="M70.39,23.54c-1,2.94-7.74,18.78-1.67,24.69S53.65,46.86,60.13,35,70.91,21.91,70.39,23.54Z"/><path class="cls-7" d="M42.73,23.61c-2.84,4.49-7.14,20.72-2.31,26.63S27.87,49,33.79,37,44.89,20.21,42.73,23.61Z"/><path class="cls-7" d="M57,22.14c1.29,2.35-6,18.93-2.69,24.71s-9.78,5.45-8.71-4.43S57,22.14,57,22.14Z"/><path class="cls-7" d="M31.55,22.7c-2,2-8.25,18.4-4.15,24.51S17.74,48.57,21.32,34C23.1,26.7,32.55,21.68,31.55,22.7Z"/><path class="cls-7" d="M18.82,22.62c-.52,1-9.29,11.43-1.2,28.83,1.52,3.27-13.79-5.71-10.3-18.51C9.29,25.7,20.59,19.19,18.82,22.62Z"/><path class="cls-8" d="M85.18,53.85c-3.75,2.61-9.09-2.92-10.53-16.56-.35-3.31-1-16.22,0-16.9,2.5-1.79,10.26,2.25,12.87,11.72C90.2,41.84,88.21,51.74,85.18,53.85Z"/><path d="M85.21,53.89a3.34,3.34,0,0,1-2.45.6,4.74,4.74,0,0,1-2.3-1.1,12.79,12.79,0,0,1-3.09-4.09,30.21,30.21,0,0,1-2.89-9.82c-.11-.85-.21-1.69-.28-2.55s-.08-1.7-.11-2.55L74,29.29l0-2.55c0-.85,0-1.7,0-2.55s0-1.7.09-2.56a3.17,3.17,0,0,1,.33-1.35,2.26,2.26,0,0,1,1.34-.57,7.86,7.86,0,0,1,5,1.58,15.89,15.89,0,0,1,3.79,3.57,19.61,19.61,0,0,1,2.62,4.49,27.37,27.37,0,0,1,1.44,5,31.87,31.87,0,0,1,.37,10.25,25.72,25.72,0,0,1-1.11,5,15.33,15.33,0,0,1-1,2.36A5.69,5.69,0,0,1,85.21,53.89Zm-.06-.08a8.09,8.09,0,0,0,2.43-4.32,24.68,24.68,0,0,0,.76-5,40,40,0,0,0-.07-5,46.09,46.09,0,0,0-.71-5,22.31,22.31,0,0,0-3.83-9.07A16.22,16.22,0,0,0,80.24,22a7.66,7.66,0,0,0-4.45-1.68,2.63,2.63,0,0,0-.56.1,2.72,2.72,0,0,0-.25.11l-.19.1a3.19,3.19,0,0,0-.28,1.09,20.88,20.88,0,0,0-.19,2.51c-.06,1.69,0,3.39.05,5.08.18,3.38.51,6.76,1,10.08a42.05,42.05,0,0,0,2.52,9.71,12.46,12.46,0,0,0,2.74,4.15,4.53,4.53,0,0,0,2.18,1.15A3.23,3.23,0,0,0,85.15,53.81Z"/><path class="cls-4" d="M95.05,32.18s-6.26,1.64-8.12,2.29C79.81,37,76.53,33,72.66,34.85c-.83.39-2.54,3-.41,5.71,3.39,4.39,14.92-1.32,16.64-2.78C91.2,35.83,101.7,31.89,95.05,32.18Z"/><path class="cls-7" d="M99.29,33.37c-2,1.87-2.85,3.22-6,7.38-1.89,2.51-6,4.39-10.53,4.78-2.57.23-8.24,3.66-2.74,7.76,3.79,2.82,8.82-1.56,12.62-6.39C97.16,41.16,101.62,31.14,99.29,33.37Z"/><path class="cls-7" d="M99.15,29c1.49,2.61-6.08-2.07-11.9-3.26-3-.61-3.31,1.29-8.12,1.32-3.71,0-5-2.25-5.46-5.26C73,17.46,81,19.18,86.61,21.26,93.34,23.74,95.47,22.53,99.15,29Z"/><path class="cls-1" d="M14.13,67.05c.15-1.09,3.76-5.79,4.57-7.67,2.22-5.18,6.05-3.66,7.05-3.38l3,2.65c1.94,2.28-5.08,4.52-7.2,6.41a46.85,46.85,0,0,1-5.84,3.52C15.34,68.87,13.94,68.35,14.13,67.05Z"/><path class="cls-1" d="M53.93,68.69l-2.5-12.4a2.94,2.94,0,0,0-3.08-.79L43.81,57c-2,1.62,2.06,5.83,3.19,6.59,2,1.36,3.45,5.47,5.39,5.71C53.37,69.41,54,69.16,53.93,68.69Z"/><path class="cls-1" d="M83.42,64.89l-11.5-8.72c-.22-.17-3.2-1.18-4.16.23l-.88,3.09C66.43,62,68.71,62.06,77,64.2l.08,0L82.32,66C82.8,66.18,83.85,65.22,83.42,64.89Z"/></svg>