<svg xmlns="http://www.w3.org/2000/svg" xmlns:xlink="http://www.w3.org/1999/xlink" viewBox="0 0 105 70"><defs><style>.cls-1,.cls-2,.cls-3,.cls-4,.cls-5{stroke:#000;}.cls-1,.cls-2,.cls-3,.cls-4,.cls-5,.cls-6,.cls-8{stroke-miterlimit:10;}.cls-1,.cls-6{stroke-width:0.25px;}.cls-2{fill:url(#Новый_образец_градиентной_залив);}.cls-3{fill:gray;}.cls-4,.cls-6{fill:#31c8c5;}.cls-5{fill:#f9f912;}.cls-6,.cls-8{stroke:#31c8c5;}.cls-7{fill:url(#Безымянный_градиент_58);}</style><linearGradient id="Новый_образец_градиентной_залив" x1="43.03" y1="59.96" x2="43.03" y2="1.45" gradientUnits="userSpaceOnUse"><stop offset="0"/><stop offset="0.1" stop-color="#1d0e05"/><stop offset="0.2" stop-color="#311908"/><stop offset="0.29" stop-color="#3e1f0a"/><stop offset="0.38" stop-color="#42210b"/><stop offset="0.5" stop-color="#5a2d0f"/><stop offset="0.6" stop-color="#713813"/><stop offset="0.67" stop-color="#5d2e10"/><stop offset="0.74" stop-color="#4e270d"/><stop offset="0.78" stop-color="#542a0f"/><stop offset="0.82" stop-color="#653314"/><stop offset="0.87" stop-color="#82411d"/><stop offset="0.91" stop-color="#984c24"/></linearGradient><linearGradient id="Безымянный_градиент_58" x1="74.16" y1="38.07" x2="91.7" y2="33.87" gradientTransform="matrix(1, 0, 0, 1, 0.3, -0.09)" gradientUnits="userSpaceOnUse"><stop offset="0"/><stop offset="0.03" stop-color="#151515"/><stop offset="0.08" stop-color="#363636"/><stop offset="0.14" stop-color="#515151"/><stop offset="0.2" stop-color="#666"/><stop offset="0.26" stop-color="#757575"/><stop offset="0.34" stop-color="#7d7d7d"/><stop offset="0.46" stop-color="gray"/><stop offset="0.48" stop-color="#7c7c7c"/><stop offset="0.72" stop-color="#3a3a3a"/><stop offset="0.9" stop-color="#101010"/><stop offset="0.99"/></linearGradient></defs><title>1</title><g id="Слой_1" data-name="Слой 1"><path class="cls-1" d="M71.3,67.31l-.24-5.6c0-.13,0-.27,0-.41-.26-4.17-.25-6.07-2.25-7.51l-3.54,0c-.28.13-7.32-1.69-2.75,4.85,1.83,2.62,7,10.3,7,10.3C69.73,69.58,71.71,70.15,71.3,67.31Z"/><path class="cls-1" d="M38.4,68.76l3-4.7a4,4,0,0,1,.22-.34c2.19-3.55,2.88-7.35,2.5-7.42l-3.91-.69c-.31,0-3.7.89-3.78,1.18L36,69.06C35.8,69.7,38.05,69.33,38.4,68.76Z"/><path class="cls-1" d="M8.47,67.38l6.73-4.24c.13-.1.28-.18.41-.27,4.25-2.76,7.27-6.43,7-6.66l-3.2-2.37c-.25-.19-1.19.24-3.52-.23L7,66C6.45,66.62,7.79,67.82,8.47,67.38Z"/><path class="cls-2" d="M80.83,54.84c-5.31-1-2.72,4.78-10.83,2.83-3.61-.87-5.9,0-12.79,1.89-6.7,1.83-8.3-4-17.72-1-5.91,1.89-10.44,1.69-13.78,0-5.36-2.71-8.27-1.8-12.8-1.88-1.84,0-6.5-1-9.16-4.67-1-1.41-3.39-8.49-2.78-16,.58-7.16,2.94-9.28,4.47-11.47a36.08,36.08,0,0,0,4.75-9.47c2.19-5.68,3.53-9.94,7.38-11.91,3.79-1.29,6.36-.24,6.6,9,1,7,6,3.91,6.63,3.89,1.54-.05,3.42-4.67,4.1-6.19C38,3.2,42.09,2,44.77,2.32c3.65,2.45-.62,4.27,3.85,13.35,1.48,3,8.53,1.1,9.08-3.87C60.54,2,72.27-3.17,71.54,7c-.45,6.38,1,7.94,4,10.57,2.78,1.57,5.61,4.45,6.29,6.1,1.16,2.79,5.91,10.38,1.61,14.78-2.76,2.83-1,4.82.36,6.93C86.15,49.06,84.87,55.6,80.83,54.84Z"/><path class="cls-3" d="M21.1,2.26s-3.67-2-9,8.16c-1.13,2.16-1.54,6-.7,4.92,1.77-2.24,3,1.07,4-2.29.28-.92,0-2.49,1.88-4.55A68.52,68.52,0,0,0,21.1,2.26Z"/><path class="cls-3" d="M42.65,2.16c-1.07,0-4.22.17-7.58,8.11-.61,1.43-1.56,5.39.5,3.25.81-.85,3.63.05,3.63.05.26-.93.8-4.67,3-7.12.46-.51,1-3.14,2.13-3.41C46.23,2.59,44.05,2.1,42.65,2.16Z"/><path class="cls-3" d="M68.54,1.67s-6.17-.39-10.07,8.61c-.62,1.43.51,5.25,2.1,2.75.72-1.13,3.84.49,3.84.49.88-3.4.24-5.22.66-6.58C65.76,4.71,68.54,1.67,68.54,1.67Z"/><path class="cls-4" d="M23.69,8c-.27,3.08-1.34,8.31-3.09,8.16s-5.88-4.48-2.69-8.67c2-2.59,2.62-5.63,3.65-5.29C23.26,2.72,24,4.9,23.69,8Z"/><path class="cls-5" d="M19.84,9.12c.76-2,.8-3.83,1.32-4.09.74-.37,1.4-1.39.79,4-.26,2.31-1,4.41-1.52,4.36S19.16,11,19.84,9.12Z"/><path class="cls-4" d="M47.35,8.16c-.26,3-1.28,8.06-2.88,7.92s-5.66-1.68-3-7.94c1.35-3.17,3-5.92,4-5.6C47,3.06,47.61,5.17,47.35,8.16Z"/><path class="cls-5" d="M43.91,8.45c.62-2.12.83-4,1.42-4s.94,1.72.75,4a10.55,10.55,0,0,1-1.46,4.15C43.66,14.92,42.61,12.84,43.91,8.45Z"/><path class="cls-4" d="M71.76,7.19c-.25,3.12-1.5,7.92-3.21,7.79s-4.73,1.12-4-6c.33-3.29,4.12-8,5.14-7.7C71.32,1.87,72,4.07,71.76,7.19Z"/><path class="cls-5" d="M67.72,7.41c.74-2.2.44-3.91,1.73-3.92.73,0,1.12,1.9.93,4.25A7.5,7.5,0,0,1,68.77,12C67.5,13.7,66,12.63,67.72,7.41Z"/><ellipse class="cls-6" cx="12.95" cy="21.52" rx="0.78" ry="1.5" transform="translate(-9.14 33.47) rotate(-87.39)"/><ellipse class="cls-6" cx="34.72" cy="20.34" rx="0.85" ry="1.1" transform="translate(6.47 49) rotate(-75.76)"/><ellipse class="cls-6" cx="20.74" cy="26.03" rx="0.85" ry="1.1" transform="translate(-9.58 39.73) rotate(-75.76)"/><ellipse class="cls-6" cx="34.57" cy="28.83" rx="1.38" ry="0.71"/><ellipse class="cls-6" cx="46.57" cy="28.83" rx="1.38" ry="0.71"/><ellipse class="cls-6" cx="49.02" cy="22.16" rx="1.36" ry="0.7" transform="translate(-4.55 17.22) rotate(-19.05)"/><ellipse class="cls-6" cx="60.88" cy="27.23" rx="0.78" ry="1.5" transform="translate(22.88 82.04) rotate(-79.36)"/><ellipse class="cls-6" cx="67.86" cy="20.52" rx="0.78" ry="1.5" transform="translate(35.17 83.42) rotate(-79.36)"/><ellipse class="cls-6" cx="74.49" cy="48.32" rx="0.7" ry="1.36" transform="translate(7.92 107.08) rotate(-74.41)"/><ellipse class="cls-6" cx="58.09" cy="53.02" rx="0.7" ry="1.16" transform="translate(-4.74 100.33) rotate(-79.36)"/><ellipse class="cls-6" cx="34.53" cy="55.02" rx="1.5" ry="0.78" transform="translate(-9.55 7.31) rotate(-10.62)"/><ellipse class="cls-6" cx="9.59" cy="53.57" rx="0.78" ry="1.5" transform="translate(-44.7 57.34) rotate(-83.82)"/><ellipse class="cls-6" cx="4.53" cy="44.35" rx="0.72" ry="1.12" transform="translate(-40.05 44.07) rotate(-83.82)"/><ellipse class="cls-6" cx="42.88" cy="47.79" rx="1.1" ry="0.85" transform="translate(-10.12 11.55) rotate(-13.74)"/><path class="cls-7" d="M85,53.39C81.29,56,75.94,50.47,74.5,36.83c-.35-3.31-1-16.21,0-16.9,2.5-1.78,10.25,2.25,12.87,11.72C90.05,41.39,88.07,51.29,85,53.39Z"/><path d="M85.07,53.43a3.3,3.3,0,0,1-2.45.61,4.84,4.84,0,0,1-2.31-1.11,13,13,0,0,1-3.09-4.09A30.44,30.44,0,0,1,74.34,39c-.11-.84-.21-1.69-.29-2.54S74,34.77,74,33.92l-.09-5.09,0-2.55c0-.84,0-1.69,0-2.54s0-1.7.1-2.56a3.07,3.07,0,0,1,.33-1.36,2.39,2.39,0,0,1,1.34-.57,7.92,7.92,0,0,1,5,1.58,16.08,16.08,0,0,1,3.79,3.57A20,20,0,0,1,87,28.89a27.37,27.37,0,0,1,1.44,5A29.43,29.43,0,0,1,89,39a30.34,30.34,0,0,1-.22,5.13,25.84,25.84,0,0,1-1.12,5,14.63,14.63,0,0,1-1,2.35A5.8,5.8,0,0,1,85.07,53.43ZM85,53.35A8.16,8.16,0,0,0,87.44,49a24.57,24.57,0,0,0,.76-5,40.05,40.05,0,0,0-.07-5,45.55,45.55,0,0,0-.71-5A22.37,22.37,0,0,0,83.58,25a16.18,16.18,0,0,0-3.48-3.48,7.71,7.71,0,0,0-4.45-1.68,3.45,3.45,0,0,0-.56.1l-.25.11-.19.1a3.42,3.42,0,0,0-.29,1.09,23.16,23.16,0,0,0-.18,2.51c-.07,1.69,0,3.39,0,5.08.18,3.38.5,6.76,1,10.08a42.05,42.05,0,0,0,2.52,9.71,12.31,12.31,0,0,0,2.74,4.15,4.53,4.53,0,0,0,2.18,1.15A3.19,3.19,0,0,0,85,53.35Z"/><path class="cls-4" d="M94.37,31.77s-6.26,1.67-8.13,2.33c-7.13,2.51-10.34-1.28-14.23.54a3.77,3.77,0,0,0-.49,5.57c3.32,4.23,14.89-1.46,16.63-2.91C90.48,35.37,101,31.41,94.37,31.77Z"/><path class="cls-8" d="M103.25,39.1c-2.47,1.09-3.77,2.06-8.13,4.92C92.49,45.74,88,46.1,83.59,45c-2.5-.66-9,.66-5.21,6.37,2.62,3.94,8.83,1.52,14-1.74C98.61,45.7,106.2,37.78,103.25,39.1Z"/><path class="cls-8" d="M99.22,27.13c1.65,2.52-6.19-1.69-12.08-2.52-3-.42-3.22,1.49-8,1.82-3.7.24-5.12-1.94-5.77-4.92-.94-4.3,7.1-3.07,12.88-1.34C93.1,22.23,95.14,20.89,99.22,27.13Z"/><path class="cls-8" d="M69.11,23.29c-.94,2.95-7.74,18.79-1.67,24.7s-15.07-1.38-8.58-13.2S69.63,21.67,69.11,23.29Z"/><path class="cls-8" d="M41.45,23.37C38.61,27.85,34.31,44.09,39.14,50S26.6,48.74,32.51,36.76,43.61,20,41.45,23.37Z"/><path class="cls-8" d="M55.67,21.9c1.29,2.34-6,18.93-2.68,24.71s-9.79,5.45-8.72-4.44S55.67,21.9,55.67,21.9Z"/><path class="cls-8" d="M30.27,22.45c-2,2-8.24,18.41-4.14,24.51S16.46,48.33,20,33.75C21.83,26.46,31.27,21.43,30.27,22.45Z"/><path class="cls-8" d="M17.54,22.38c-.51,1-9.29,11.43-1.19,28.82C17.87,54.47,2.55,45.5,6,32.7,8,25.46,19.31,18.94,17.54,22.38Z"/><path class="cls-1" d="M16.25,68c-.3-1.06,1.1-6.82,1.08-8.86-.07-5.64,4-5.8,5.08-6l3.79,1.22c2.7,1.31-2.82,6.2-4,8.77a45.61,45.61,0,0,1-3.91,5.59C18.09,69.18,16.61,69.27,16.25,68Z"/><path class="cls-1" d="M51.84,68.86l-.51-12.65A2.9,2.9,0,0,0,48.42,55l-4.72.75c-2.24,1.28,1.12,6.08,2.11,7,1.77,1.66,2.54,5.95,4.42,6.49C51.18,69.47,51.86,69.33,51.84,68.86Z"/><path class="cls-1" d="M79.88,66.62l-8-12c-.15-.23-2.64-2.16-4-1.15L66,56.11c-1.25,2.24.89,3,8,7.77l.07,0,4.35,3.4C78.88,67.64,80.18,67.08,79.88,66.62Z"/></g></svg>