<svg xmlns="http://www.w3.org/2000/svg" xmlns:xlink="http://www.w3.org/1999/xlink" viewBox="0 0 105 70"><defs><style>.cls-1,.cls-2,.cls-3,.cls-4,.cls-5{stroke:#000;}.cls-1,.cls-2,.cls-3,.cls-4,.cls-5,.cls-6,.cls-8{stroke-miterlimit:10;}.cls-1,.cls-6{stroke-width:0.25px;}.cls-2{fill:url(#Новый_образец_градиентной_залив);}.cls-3{fill:gray;}.cls-4,.cls-6{fill:#31c8c5;}.cls-5{fill:#f9f912;}.cls-6,.cls-8{stroke:#31c8c5;}.cls-7{fill:url(#Безымянный_градиент_58);}</style><linearGradient id="Новый_образец_градиентной_залив" x1="42.7" y1="59.84" x2="42.7" y2="1.34" gradientUnits="userSpaceOnUse"><stop offset="0"/><stop offset="0.1" stop-color="#1d0e05"/><stop offset="0.2" stop-color="#311908"/><stop offset="0.29" stop-color="#3e1f0a"/><stop offset="0.38" stop-color="#42210b"/><stop offset="0.5" stop-color="#5a2d0f"/><stop offset="0.6" stop-color="#713813"/><stop offset="0.67" stop-color="#5d2e10"/><stop offset="0.74" stop-color="#4e270d"/><stop offset="0.78" stop-color="#542a0f"/><stop offset="0.82" stop-color="#653314"/><stop offset="0.87" stop-color="#82411d"/><stop offset="0.91" stop-color="#984c24"/></linearGradient><linearGradient id="Безымянный_градиент_58" x1="73.97" y1="36.15" x2="91.4" y2="31.97" gradientTransform="matrix(1, 0, 0, 1, 0.22, -0.07)" gradientUnits="userSpaceOnUse"><stop offset="0"/><stop offset="0.03" stop-color="#151515"/><stop offset="0.08" stop-color="#363636"/><stop offset="0.14" stop-color="#515151"/><stop offset="0.2" stop-color="#666"/><stop offset="0.26" stop-color="#757575"/><stop offset="0.34" stop-color="#7d7d7d"/><stop offset="0.46" stop-color="gray"/><stop offset="0.48" stop-color="#7c7c7c"/><stop offset="0.72" stop-color="#3a3a3a"/><stop offset="0.9" stop-color="#101010"/><stop offset="0.99"/></linearGradient></defs><title>1</title><g id="Слой_3" data-name="Слой 3"><path class="cls-1" d="M69.56,67.86l1-5.51c0-.14,0-.27.06-.41.65-4.13,1.08-6-.56-7.82l-3.45-.74c-.31.07-6.78-3.25-3.75,4.13,1.21,3,4.6,11.58,4.6,11.58C67.52,69.74,69.34,70.73,69.56,67.86Z"/><path class="cls-1" d="M38.89,68.64l2.4-5c.05-.12.12-.24.17-.37,1.72-3.8,1.92-7.66,1.52-7.67l-4-.18c-.31,0-3.55,1.36-3.59,1.66l1.09,12.23C36.43,69.91,38.62,69.25,38.89,68.64Z"/><path class="cls-1" d="M13.76,69.17l2.41-7.57a4.34,4.34,0,0,1,.14-.48c1.46-4.85,1.4-9.59,1-9.57l-4,.25c-.31,0-.75,1-2.83,2.1l1.27,15.19C11.73,69.9,13.53,70,13.76,69.17Z"/><path class="cls-2" d="M80.5,54.72c-5.31-1-2.72,4.79-10.83,2.83-3.61-.86-5.9,0-12.79,1.89-6.69,1.84-8.3-3.95-17.72-.94-5.9,1.89-10.44,1.69-13.78,0-5.35-2.71-8.26-1.81-12.79-1.89-1.85,0-6.51-1-9.17-4.67C2.4,50.53,0,43.45.64,36c.58-7.15,2.94-9.27,4.47-11.47a35.73,35.73,0,0,0,4.75-9.46c2.2-5.68,3.53-10,7.38-11.92C21,1.84,23.16.75,23.4,10c1,7,7.62,6.81,8.23,6.79,1.54-.05,2.27-5.42,2.95-6.94,3.09-6.74,7.19-8,9.87-7.63,3.64,2.45-.63,4.27,3.85,13.36,1.47,3,10.11,1.83,9.07-3.88C60.21,1.84,72-3.29,71.22,6.89c-.46,6.39,1,7.94,4,10.58,2.78,1.56,5.62,4.45,6.3,6.09,1.16,2.8,5.9,10.39,1.6,14.79-2.76,2.82-1,4.82.36,6.93C85.83,49,84.55,55.49,80.5,54.72Z"/><path class="cls-3" d="M20.77,2.15s-3.67-2-9,8.16c-1.13,2.15-1.54,6-.7,4.91,1.77-2.23,3,1.07,4-2.29C15.36,12,15,10.45,17,8.38A66.38,66.38,0,0,0,20.77,2.15Z"/><path class="cls-3" d="M42.33,2c-1.08,0-4.23.17-7.59,8.11-.61,1.44-1.56,5.39.5,3.25.82-.85,3.63,0,3.63,0,.27-.92.8-4.66,3-7.11.46-.51,1-3.14,2.13-3.41C45.91,2.48,43.73,2,42.33,2Z"/><path class="cls-3" d="M68.21,1.55S62,1.17,58.14,10.17c-.62,1.42.51,5.25,2.1,2.74.72-1.12,3.84.49,3.84.49.88-3.4.25-5.21.67-6.58C65.43,4.6,68.21,1.55,68.21,1.55Z"/><path class="cls-4" d="M23.37,7.87C23.1,10.94,22,16.18,20.27,16s-5.87-4.47-2.68-8.66c2-2.6,2.61-5.63,3.65-5.3C22.94,2.61,23.64,4.79,23.37,7.87Z"/><path class="cls-5" d="M19.51,9c.76-2.06.8-3.84,1.33-4.1.73-.36,1.39-1.38.79,4-.26,2.3-1,4.4-1.52,4.35S18.83,10.86,19.51,9Z"/><path class="cls-4" d="M47,8c-.26,3-1.27,8.06-2.88,7.92s-5.66-1.68-3-7.93c1.35-3.18,3-5.93,4-5.61C46.65,2.94,47.28,5.05,47,8Z"/><path class="cls-5" d="M43.58,8.34c.62-2.13.83-4,1.43-4s.93,1.72.74,4a10.65,10.65,0,0,1-1.45,4.15C43.34,14.8,42.28,12.72,43.58,8.34Z"/><path class="cls-4" d="M71.43,7.08c-.25,3.12-1.49,7.92-3.21,7.78s-4.73,1.12-4-5.94c.32-3.3,4.11-8,5.13-7.7C71,1.75,71.68,4,71.43,7.08Z"/><path class="cls-5" d="M67.39,7.29c.75-2.19.44-3.9,1.73-3.92.73,0,1.12,1.91.93,4.25a7.58,7.58,0,0,1-1.61,4.23C67.17,13.58,65.63,12.51,67.39,7.29Z"/><ellipse class="cls-6" cx="12.62" cy="21.4" rx="0.78" ry="1.5" transform="translate(-9.33 33.03) rotate(-87.39)"/><ellipse class="cls-6" cx="34.4" cy="20.22" rx="0.85" ry="1.1" transform="translate(6.34 48.59) rotate(-75.76)"/><ellipse class="cls-6" cx="20.41" cy="25.91" rx="0.85" ry="1.1" transform="translate(-9.72 39.33) rotate(-75.76)"/><ellipse class="cls-6" cx="34.24" cy="28.72" rx="1.38" ry="0.71"/><ellipse class="cls-6" cx="46.24" cy="28.72" rx="1.38" ry="0.71"/><ellipse class="cls-6" cx="48.69" cy="22.05" rx="1.36" ry="0.7" transform="translate(-4.53 17.1) rotate(-19.05)"/><ellipse class="cls-6" cx="60.56" cy="27.11" rx="0.78" ry="1.5" transform="translate(22.73 81.63) rotate(-79.36)"/><ellipse class="cls-6" cx="67.53" cy="20.4" rx="0.78" ry="1.5" transform="translate(35.01 83) rotate(-79.36)"/><ellipse class="cls-6" cx="74.16" cy="48.21" rx="0.7" ry="1.36" transform="translate(7.8 106.68) rotate(-74.41)"/><ellipse class="cls-6" cx="57.77" cy="52.91" rx="0.7" ry="1.16" transform="translate(-4.89 99.91) rotate(-79.36)"/><ellipse class="cls-6" cx="34.2" cy="54.9" rx="1.5" ry="0.78" transform="translate(-9.53 7.24) rotate(-10.62)"/><ellipse class="cls-6" cx="9.27" cy="53.45" rx="0.78" ry="1.5" transform="translate(-44.87 56.91) rotate(-83.82)"/><ellipse class="cls-6" cx="4.2" cy="44.23" rx="0.72" ry="1.12" transform="translate(-40.23 43.64) rotate(-83.82)"/><ellipse class="cls-6" cx="42.55" cy="47.68" rx="1.1" ry="0.85" transform="translate(-10.11 11.47) rotate(-13.74)"/><path class="cls-7" d="M84.71,50.82C81,53.32,75.62,48,74.18,34.94c-.35-3.17-1-15.55,0-16.21C76.67,17,84.43,20.89,87,30,89.73,39.31,87.74,48.8,84.71,50.82Z"/><path d="M84.74,50.86a3.41,3.41,0,0,1-2.38.59,4.81,4.81,0,0,1-2.27-1A11.92,11.92,0,0,1,77,46.61,27.84,27.84,0,0,1,74,37.14c-.12-.82-.22-1.64-.3-2.47s-.08-1.65-.11-2.47l-.08-4.94,0-2.46c0-.82,0-1.64,0-2.47s0-1.64.1-2.48q0-.32.09-.63a1.15,1.15,0,0,1,.34-.71,2.78,2.78,0,0,1,1.28-.45,8.06,8.06,0,0,1,4.85,1.47,15.64,15.64,0,0,1,3.77,3.35,18.59,18.59,0,0,1,2.65,4.29A24.2,24.2,0,0,1,88.06,32a28.29,28.29,0,0,1,.63,5,27.51,27.51,0,0,1-.23,5,23.53,23.53,0,0,1-1.12,4.83,13.49,13.49,0,0,1-1,2.27A5.54,5.54,0,0,1,84.74,50.86Zm-.06-.08a7.76,7.76,0,0,0,2.43-4.13,22.42,22.42,0,0,0,.76-4.82A35.84,35.84,0,0,0,87.79,37a40.7,40.7,0,0,0-.72-4.79,21,21,0,0,0-3.89-8.69,16.07,16.07,0,0,0-3.47-3.27,8,8,0,0,0-4.34-1.58,2.25,2.25,0,0,0-1,.3,1,1,0,0,0-.17.39c0,.18-.08.38-.11.58a17.7,17.7,0,0,0-.2,2.43c-.06,1.64,0,3.28.05,4.91.19,3.28.51,6.55,1,9.76a37.69,37.69,0,0,0,2.57,9.35,11.37,11.37,0,0,0,2.77,3.93,4.51,4.51,0,0,0,2.15,1A3.3,3.3,0,0,0,84.68,50.78Z"/><path class="cls-4" d="M95,30.09s-6.26,1.6-8.13,2.23c-7.13,2.41-10.34-1.22-14.23.52a3.53,3.53,0,0,0-.49,5.34c3.32,4.06,14.89-1.4,16.63-2.79C91.15,33.54,101.68,29.74,95,30.09Z"/><path class="cls-8" d="M103.87,43.52c-2.57.53-4,1.18-8.73,3-2.85,1.09-7.26.52-11.2-1.43C81.68,44,75.22,43.89,77.71,50c1.71,4.21,8.13,3.19,13.75,1.18C98.14,48.78,107,42.88,103.87,43.52Z"/><path class="cls-8" d="M99.22,21.6c2,2.12-6.39-.6-12.33-.45-3,.08-2.93,1.94-7.61,3-3.6.83-5.37-1-6.51-3.72-1.64-3.92,6.49-4.05,12.48-3.33C92.37,18,94.16,16.35,99.22,21.6Z"/><path class="cls-8" d="M71.07,22C70.12,25,63.33,40.83,69.4,46.73s-15.07-1.37-8.59-13.19S71.59,20.42,71.07,22Z"/><path class="cls-8" d="M43.41,22.12c-2.84,4.48-7.14,20.72-2.31,26.63s-12.55-1.26-6.63-13.24S45.57,18.72,43.41,22.12Z"/><path class="cls-8" d="M57.63,20.65c1.29,2.34-6,18.93-2.69,24.71s-9.79,5.45-8.71-4.44S57.63,20.65,57.63,20.65Z"/><path class="cls-8" d="M32.23,21.2c-2,2-8.25,18.41-4.15,24.51S18.42,47.08,22,32.5C23.78,25.21,33.22,20.18,32.23,21.2Z"/><path class="cls-8" d="M19.5,21.12c-.52,1-9.29,11.43-1.2,28.83,1.52,3.27-13.79-5.7-10.3-18.5C10,24.21,21.27,17.69,19.5,21.12Z"/><path class="cls-1" d="M17.38,68.74c-.51-1-.32-6.9-.76-8.9-1.22-5.5,2.77-6.5,3.75-6.86l4,.41c2.9.73-1.49,6.65-2.11,9.41a45.67,45.67,0,0,1-2.69,6.27C19.43,69.51,18,69.9,17.38,68.74Z"/><path class="cls-1" d="M50.52,69.17l1.34-12.59a3,3,0,0,0-2.7-1.68L44.38,55c-2.4.94.22,6.19,1.07,7.25,1.51,1.9,1.65,6.25,3.43,7.06C49.78,69.68,50.47,69.64,50.52,69.17Z"/><path class="cls-1" d="M75.41,69.26l-.28-14.43c0-.27-1-3.24-2.75-3.12l-3,1.22c-2.27,1.22-.89,3,2.58,10.88l0,.07,1.82,5.21C74,69.58,75.42,69.81,75.41,69.26Z"/></g></svg>