<svg xmlns="http://www.w3.org/2000/svg" xmlns:xlink="http://www.w3.org/1999/xlink" viewBox="0 0 105 70"><defs><style>.cls-1,.cls-2,.cls-3,.cls-4,.cls-5{stroke:#000;}.cls-1,.cls-2,.cls-3,.cls-4,.cls-5,.cls-6,.cls-8{stroke-miterlimit:10;}.cls-1,.cls-6{stroke-width:0.25px;}.cls-2{fill:url(#Новый_образец_градиентной_залив);}.cls-3{fill:gray;}.cls-4,.cls-6{fill:#31c8c5;}.cls-5{fill:#f9f912;}.cls-6,.cls-8{stroke:#31c8c5;}.cls-7{fill:url(#Безымянный_градиент_58);}</style><linearGradient id="Новый_образец_градиентной_залив" x1="42.82" y1="59.42" x2="42.82" y2="0.92" gradientUnits="userSpaceOnUse"><stop offset="0"/><stop offset="0.1" stop-color="#1d0e05"/><stop offset="0.2" stop-color="#311908"/><stop offset="0.29" stop-color="#3e1f0a"/><stop offset="0.38" stop-color="#42210b"/><stop offset="0.5" stop-color="#5a2d0f"/><stop offset="0.6" stop-color="#713813"/><stop offset="0.67" stop-color="#5d2e10"/><stop offset="0.74" stop-color="#4e270d"/><stop offset="0.78" stop-color="#542a0f"/><stop offset="0.82" stop-color="#653314"/><stop offset="0.87" stop-color="#82411d"/><stop offset="0.91" stop-color="#984c24"/></linearGradient><linearGradient id="Безымянный_градиент_58" x1="74.12" y1="37.49" x2="91.66" y2="33.28" gradientTransform="matrix(1, 0, 0, 1, 0.14, -0.04)" gradientUnits="userSpaceOnUse"><stop offset="0"/><stop offset="0.03" stop-color="#151515"/><stop offset="0.08" stop-color="#363636"/><stop offset="0.14" stop-color="#515151"/><stop offset="0.2" stop-color="#666"/><stop offset="0.26" stop-color="#757575"/><stop offset="0.34" stop-color="#7d7d7d"/><stop offset="0.46" stop-color="gray"/><stop offset="0.48" stop-color="#7c7c7c"/><stop offset="0.72" stop-color="#3a3a3a"/><stop offset="0.9" stop-color="#101010"/><stop offset="0.99"/></linearGradient></defs><title>1</title><g id="Слой_5" data-name="Слой 5"><path class="cls-1" d="M65.86,67.53l3-4.7c.06-.12.15-.23.22-.35,2.21-3.55,3.31-5.08,2.53-7.42l-2.9-2c-.31-.06-5-5.63-5.06,2.35,0,3.19-.27,12.46-.27,12.46C63.25,68.47,64.54,70.08,65.86,67.53Z"/><path class="cls-1" d="M42.62,68l1.57-5.36a2.85,2.85,0,0,1,.11-.39c1.09-4,.68-7.87.28-7.82l-3.94.45c-.31,0-3.29,1.9-3.28,2.21l3,11.9C40.39,69.66,42.45,68.66,42.62,68Z"/><path class="cls-1" d="M16.35,68.46l1-7.89c0-.16,0-.33.05-.49.57-5-.34-9.69-.72-9.6l-3.87,1c-.3.08-.57,1.07-2.4,2.58l4,14.71C14.48,69.53,16.26,69.27,16.35,68.46Z"/><path class="cls-2" d="M80.62,54.3c-5.31-1-2.72,4.79-10.83,2.84-3.61-.87-5.9,0-12.79,1.89-6.7,1.83-8.3-4-17.72-1-5.91,1.89-10.44,1.69-13.78,0-5.35-2.71-8.26-1.81-12.8-1.89-1.84,0-6.5-1-9.16-4.67-1-1.41-3.39-8.49-2.78-16,.58-7.15,2.94-9.27,4.47-11.47A35.73,35.73,0,0,0,10,14.63c2.19-5.68,3.53-10,7.38-11.91,3.79-1.3,5.92-2.39,6.16,6.85,1,7,4.33,6,4.93,6.06,3.74.4,5.56-4.69,6.24-6.21,3.1-6.75,7.19-8,9.87-7.64,3.65,2.45-.62,4.28,3.86,13.36,1.47,3,9.07,1.63,9.07-3.87,2.84-9.85,14.58-15,13.85-4.8-.46,6.39,1,7.94,4,10.58,2.78,1.56,5.61,4.45,6.29,6.09,1.16,2.8,5.91,10.39,1.61,14.79-2.76,2.82-1,4.82.36,6.93C85.94,48.53,84.66,55.07,80.62,54.3Z"/><path class="cls-3" d="M20.89,1.73s-3.67-2-9,8.16c-1.13,2.15-1.54,6-.7,4.92,1.77-2.24,3,1.06,4-2.29.28-.92,0-2.49,1.88-4.56A65.11,65.11,0,0,0,20.89,1.73Z"/><path class="cls-3" d="M42.44,1.62c-1.07,0-4.22.17-7.58,8.12-.61,1.43-1.56,5.38.5,3.24.82-.85,3.63,0,3.63,0,.27-.92.8-4.66,3-7.11.46-.51,1-3.14,2.13-3.41C46,2.06,43.85,1.56,42.44,1.62Z"/><path class="cls-3" d="M68.33,1.14S62.16.75,58.26,9.75c-.62,1.43.51,5.25,2.1,2.74.72-1.12,3.84.49,3.84.49.88-3.4.25-5.21.67-6.58C65.55,4.18,68.33,1.14,68.33,1.14Z"/><path class="cls-4" d="M23.49,7.45c-.27,3.08-1.35,8.31-3.1,8.15s-5.88-4.47-2.69-8.66c2-2.6,2.62-5.63,3.66-5.3C23.05,2.19,23.75,4.37,23.49,7.45Z"/><path class="cls-5" d="M19.63,8.59c.76-2.06.8-3.84,1.33-4.1.73-.36,1.39-1.38.78,4-.25,2.3-1,4.4-1.52,4.36S19,10.44,19.63,8.59Z"/><path class="cls-4" d="M47.14,7.62c-.26,3-1.28,8.06-2.88,7.92s-5.66-1.68-3-7.93c1.35-3.17,3-5.92,4-5.61C46.77,2.53,47.4,4.64,47.14,7.62Z"/><path class="cls-5" d="M43.7,7.92c.62-2.12.83-4,1.42-4s.94,1.72.75,4a10.46,10.46,0,0,1-1.46,4.15C43.45,14.39,42.4,12.31,43.7,7.92Z"/><path class="cls-4" d="M71.55,6.66c-.25,3.12-1.5,7.92-3.21,7.78s-4.73,1.12-4-5.94c.32-3.3,4.11-8,5.13-7.7C71.11,1.34,71.8,3.54,71.55,6.66Z"/><path class="cls-5" d="M67.51,6.88C68.25,4.68,68,3,69.24,3c.73,0,1.12,1.91.93,4.25a7.58,7.58,0,0,1-1.61,4.23C67.29,13.16,65.75,12.09,67.51,6.88Z"/><ellipse class="cls-6" cx="12.74" cy="20.98" rx="0.78" ry="1.5" transform="translate(-8.8 32.75) rotate(-87.39)"/><ellipse class="cls-6" cx="34.52" cy="19.81" rx="0.85" ry="1.1" transform="translate(6.83 48.39) rotate(-75.76)"/><ellipse class="cls-6" cx="20.53" cy="25.49" rx="0.85" ry="1.1" transform="translate(-9.23 39.13) rotate(-75.76)"/><ellipse class="cls-6" cx="34.36" cy="28.3" rx="1.38" ry="0.71"/><ellipse class="cls-6" cx="46.36" cy="28.3" rx="1.38" ry="0.71"/><ellipse class="cls-6" cx="48.81" cy="21.63" rx="1.36" ry="0.7" transform="translate(-4.39 17.12) rotate(-19.05)"/><ellipse class="cls-6" cx="60.68" cy="26.7" rx="0.78" ry="1.5" transform="translate(23.24 81.4) rotate(-79.36)"/><ellipse class="cls-6" cx="67.65" cy="19.98" rx="0.78" ry="1.5" transform="translate(35.52 82.78) rotate(-79.36)"/><ellipse class="cls-6" cx="74.28" cy="47.79" rx="0.7" ry="1.36" transform="translate(8.28 106.49) rotate(-74.41)"/><ellipse class="cls-6" cx="57.89" cy="52.49" rx="0.7" ry="1.16" transform="translate(-4.39 99.69) rotate(-79.36)"/><ellipse class="cls-6" cx="34.32" cy="54.48" rx="1.5" ry="0.78" transform="translate(-9.45 7.26) rotate(-10.62)"/><ellipse class="cls-6" cx="9.38" cy="53.03" rx="0.78" ry="1.5" transform="translate(-44.35 56.65) rotate(-83.82)"/><ellipse class="cls-6" cx="4.32" cy="43.81" rx="0.72" ry="1.12" transform="translate(-39.71 43.39) rotate(-83.82)"/><ellipse class="cls-6" cx="42.67" cy="47.26" rx="1.1" ry="0.85" transform="translate(-10 11.49) rotate(-13.74)"/><path class="cls-7" d="M84.83,52.86c-3.75,2.61-9.1-2.92-10.54-16.56-.35-3.31-1-16.22,0-16.9,2.5-1.79,10.26,2.25,12.87,11.72C89.84,40.85,87.86,50.75,84.83,52.86Z"/><path d="M84.86,52.9a3.34,3.34,0,0,1-2.45.6,4.74,4.74,0,0,1-2.3-1.1A13,13,0,0,1,77,48.31a30.44,30.44,0,0,1-2.88-9.82c-.11-.85-.21-1.69-.29-2.55s-.08-1.7-.1-2.55l-.09-5.09,0-2.55c0-.85,0-1.7,0-2.55s0-1.7.09-2.56A3.1,3.1,0,0,1,74,19.28a2.39,2.39,0,0,1,1.34-.57,8,8,0,0,1,5,1.58,16.32,16.32,0,0,1,3.79,3.58,19.4,19.4,0,0,1,2.62,4.49,27.37,27.37,0,0,1,1.44,5,31.87,31.87,0,0,1,.37,10.25,25.74,25.74,0,0,1-1.12,5,14.36,14.36,0,0,1-1,2.36A5.8,5.8,0,0,1,84.86,52.9Zm-.06-.08a8.16,8.16,0,0,0,2.43-4.32,24.68,24.68,0,0,0,.76-5,40,40,0,0,0-.07-5,46.09,46.09,0,0,0-.71-5,22.31,22.31,0,0,0-3.83-9.07A16.22,16.22,0,0,0,79.89,21a7.66,7.66,0,0,0-4.45-1.68,2.63,2.63,0,0,0-.56.1,2.72,2.72,0,0,0-.25.11l-.19.1a3.19,3.19,0,0,0-.28,1.09A20.88,20.88,0,0,0,74,23.21c-.07,1.69,0,3.38,0,5.08.18,3.38.5,6.76,1,10.08a42.05,42.05,0,0,0,2.52,9.71,12.31,12.31,0,0,0,2.74,4.15,4.53,4.53,0,0,0,2.18,1.15A3.23,3.23,0,0,0,84.8,52.82Z"/><path class="cls-4" d="M96,30.84s-6.26,1.65-8.13,2.31c-7.12,2.5-10.37-1.35-14.25.46a3.84,3.84,0,0,0-.45,5.64c3.36,4.29,14.91-1.4,16.64-2.85C92.1,34.46,102.61,30.51,96,30.84Z"/><path class="cls-8" d="M104,50.62c-2.65-.32-4.26-.16-9.42.07-3.12.13-7.17-1.88-10.31-5.1-1.79-1.84-8-4-7.67,2.81.23,4.73,6.76,5.82,12.85,5.69C96.71,53.93,107.2,51,104,50.62Z"/><path class="cls-8" d="M98.53,16.32c2.6,1.52-6.3,1.26-11.93,3.14-2.87,1-2.22,2.78-6.37,5.21-3.2,1.87-5.45.55-7.36-1.82-2.75-3.43,5-5.92,10.93-7C90.87,14.68,92.1,12.56,98.53,16.32Z"/><path class="cls-8" d="M69.74,23.18C68.79,26.12,62,42,68.06,47.87S53,46.5,59.48,34.67,70.26,21.55,69.74,23.18Z"/><path class="cls-8" d="M42.08,23.25C39.24,27.74,34.94,44,39.76,49.88s-12.54-1.26-6.62-13.23S44.24,19.85,42.08,23.25Z"/><path class="cls-8" d="M56.3,21.79c1.29,2.34-6,18.92-2.69,24.71s-9.79,5.44-8.71-4.44S56.3,21.79,56.3,21.79Z"/><path class="cls-8" d="M30.9,22.34c-2,2-8.25,18.4-4.15,24.51s-9.66,1.36-6.09-13.22C22.45,26.35,31.89,21.32,30.9,22.34Z"/><path class="cls-8" d="M18.17,22.26c-.52,1-9.29,11.43-1.2,28.83,1.52,3.27-13.79-5.71-10.3-18.51C8.64,25.34,19.94,18.83,18.17,22.26Z"/><path class="cls-1" d="M22.5,68.53c-.94-.56-3.85-5.73-5.26-7.21-3.89-4.08-1-7-.34-7.81l3.6-1.71c2.87-.88,2.17,6.46,3.07,9.14a45.67,45.67,0,0,1,.95,6.76C24.65,68.14,23.62,69.21,22.5,68.53Z"/><path class="cls-1" d="M49.5,68.77,52,56.35a3,3,0,0,0-2.54-1.91l-4.77-.37c-2.47.72-.33,6.18.42,7.31,1.34,2,1.08,6.38,2.78,7.34C48.71,69.21,49.4,69.23,49.5,68.77Z"/><path class="cls-1" d="M73,68.68l2.36-14.24c0-.26-.44-3.38-2.14-3.57L70,51.54c-2.45.77-1.43,2.81.55,11.16,0,0,0,0,0,.08l.84,5.45C71.52,68.74,72.86,69.22,73,68.68Z"/></g></svg>