<svg xmlns="http://www.w3.org/2000/svg" xmlns:xlink="http://www.w3.org/1999/xlink" viewBox="0 0 105 70"><defs><style>.cls-1,.cls-2,.cls-3,.cls-4,.cls-5{stroke:#000;}.cls-1,.cls-2,.cls-3,.cls-4,.cls-5,.cls-6,.cls-8{stroke-miterlimit:10;}.cls-1,.cls-6{stroke-width:0.25px;}.cls-2{fill:url(#Новый_образец_градиентной_залив);}.cls-3{fill:gray;}.cls-4,.cls-6{fill:#31c8c5;}.cls-5{fill:#f9f912;}.cls-6,.cls-8{stroke:#31c8c5;}.cls-7{fill:url(#Безымянный_градиент_58);}</style><linearGradient id="Новый_образец_градиентной_залив" x1="42.68" y1="59.84" x2="42.68" y2="1.34" gradientUnits="userSpaceOnUse"><stop offset="0"/><stop offset="0.1" stop-color="#1d0e05"/><stop offset="0.2" stop-color="#311908"/><stop offset="0.29" stop-color="#3e1f0a"/><stop offset="0.38" stop-color="#42210b"/><stop offset="0.5" stop-color="#5a2d0f"/><stop offset="0.6" stop-color="#713813"/><stop offset="0.67" stop-color="#5d2e10"/><stop offset="0.74" stop-color="#4e270d"/><stop offset="0.78" stop-color="#542a0f"/><stop offset="0.82" stop-color="#653314"/><stop offset="0.87" stop-color="#82411d"/><stop offset="0.91" stop-color="#984c24"/></linearGradient><linearGradient id="Безымянный_градиент_58" x1="74.05" y1="37.89" x2="91.6" y2="33.68" gradientTransform="matrix(1, 0, 0, 1, 0.06, -0.02)" gradientUnits="userSpaceOnUse"><stop offset="0"/><stop offset="0.03" stop-color="#151515"/><stop offset="0.08" stop-color="#363636"/><stop offset="0.14" stop-color="#515151"/><stop offset="0.2" stop-color="#666"/><stop offset="0.26" stop-color="#757575"/><stop offset="0.34" stop-color="#7d7d7d"/><stop offset="0.46" stop-color="gray"/><stop offset="0.48" stop-color="#7c7c7c"/><stop offset="0.72" stop-color="#3a3a3a"/><stop offset="0.9" stop-color="#101010"/><stop offset="0.99"/></linearGradient></defs><title>1</title><g id="Слой_6" data-name="Слой 6"><path class="cls-1" d="M64.08,68.54l4.59-3.22.33-.24c3.38-2.47,5-3.48,5.12-5.94l-1.92-3c-.27-.17-2.52-7.09-5.58.29-1.22,3-4.9,11.45-4.9,11.45C61.32,68.44,61.91,70.41,64.08,68.54Z"/><path class="cls-1" d="M43.31,68.18l.82-5.53c0-.13,0-.27,0-.4.53-4.14-.41-7.89-.79-7.79l-3.84,1a13.22,13.22,0,0,0-2.95,2.64l4.63,11.37C41.33,70.11,43.23,68.84,43.31,68.18Z"/><path class="cls-1" d="M18.87,68.58l-.6-7.92c0-.17,0-.34,0-.5-.46-5-2.28-9.42-2.64-9.25L12,52.62c-.29.14-.35,1.17-1.84,3L17,69.25C17.26,70,19,69.39,18.87,68.58Z"/><path class="cls-2" d="M80.48,54.72c-5.32-1-2.72,4.79-10.83,2.83-3.61-.86-5.91,0-12.8,1.89-6.69,1.84-8.29-3.95-17.71-.94-5.91,1.89-10.45,1.69-13.78,0-5.36-2.71-8.27-1.81-12.8-1.89-1.84,0-6.5-1-9.16-4.67C2.37,50.53,0,43.45.62,36c.58-7.15,2.94-9.27,4.47-11.47a36.1,36.1,0,0,0,4.75-9.46C12,9.37,13.37,5.1,17.22,3.13,21,1.84,23.14.75,23.38,10c1,7,4.32,6.09,4.93,6.07,1.54-.05,5.56-4.7,6.24-6.22,3.1-6.74,7.19-8,9.87-7.63,3.65,2.45-.62,4.27,3.85,13.36,1.48,3,8.66-1.21,9.08-3.88,2.83-9.84,14.57-15,13.84-4.79-.46,6.39,1,7.94,4,10.58,2.79,1.56,5.62,4.45,6.3,6.09,1.16,2.8,5.91,10.39,1.61,14.79-2.76,2.82-1,4.82.36,6.93C85.8,49,84.52,55.49,80.48,54.72Z"/><path class="cls-3" d="M20.75,2.15s-3.68-2-9,8.16c-1.13,2.15-1.54,6-.7,4.91,1.77-2.23,3,1.07,4-2.29.28-.91,0-2.48,1.88-4.55A68.61,68.61,0,0,0,20.75,2.15Z"/><path class="cls-3" d="M42.3,2c-1.07,0-4.22.17-7.58,8.11-.61,1.44-1.56,5.39.5,3.25.81-.85,3.63,0,3.63,0,.26-.92.79-4.66,3-7.11.47-.51,1-3.14,2.14-3.41C45.88,2.48,43.7,2,42.3,2Z"/><path class="cls-3" d="M68.18,1.55S62,1.17,58.12,10.17c-.62,1.42.51,5.25,2.1,2.74.71-1.12,3.84.49,3.84.49.88-3.4.24-5.21.66-6.58C65.41,4.6,68.18,1.55,68.18,1.55Z"/><path class="cls-4" d="M23.34,7.87C23.07,10.94,22,16.18,20.25,16s-5.88-4.47-2.69-8.66c2-2.6,2.62-5.63,3.65-5.3C22.91,2.61,23.61,4.79,23.34,7.87Z"/><path class="cls-5" d="M19.49,9c.75-2.06.8-3.84,1.32-4.1.73-.36,1.4-1.38.79,4-.26,2.3-1,4.4-1.52,4.35S18.81,10.86,19.49,9Z"/><path class="cls-4" d="M47,8c-.27,3-1.28,8.06-2.88,7.92s-5.66-1.68-3-7.93c1.34-3.18,3-5.93,4-5.61C46.62,2.94,47.26,5.05,47,8Z"/><path class="cls-5" d="M43.55,8.34c.63-2.13.84-4,1.43-4s.94,1.72.75,4a10.62,10.62,0,0,1-1.46,4.15C43.31,14.8,42.26,12.72,43.55,8.34Z"/><path class="cls-4" d="M71.41,7.08c-.25,3.12-1.5,7.92-3.22,7.78s-4.73,1.12-4-5.94c.33-3.3,4.11-8,5.13-7.7C71,1.75,71.66,4,71.41,7.08Z"/><path class="cls-5" d="M67.37,7.29c.74-2.19.44-3.9,1.73-3.92.72,0,1.12,1.91.93,4.25a7.58,7.58,0,0,1-1.61,4.23C67.15,13.58,65.61,12.51,67.37,7.29Z"/><ellipse class="cls-6" cx="12.6" cy="21.4" rx="0.78" ry="1.5" transform="translate(-9.36 33.01) rotate(-87.39)"/><ellipse class="cls-6" cx="34.37" cy="20.22" rx="0.85" ry="1.1" transform="translate(6.32 48.57) rotate(-75.76)"/><ellipse class="cls-6" cx="20.39" cy="25.91" rx="0.85" ry="1.1" transform="translate(-9.74 39.3) rotate(-75.76)"/><ellipse class="cls-6" cx="34.22" cy="28.72" rx="1.38" ry="0.71"/><ellipse class="cls-6" cx="46.22" cy="28.72" rx="1.38" ry="0.71"/><ellipse class="cls-6" cx="48.67" cy="22.05" rx="1.36" ry="0.7" transform="translate(-4.53 17.09) rotate(-19.05)"/><ellipse class="cls-6" cx="60.53" cy="27.11" rx="0.78" ry="1.5" transform="translate(22.71 81.6) rotate(-79.36)"/><ellipse class="cls-6" cx="67.51" cy="20.4" rx="0.78" ry="1.5" transform="translate(34.99 82.98) rotate(-79.36)"/><ellipse class="cls-6" cx="74.14" cy="48.21" rx="0.7" ry="1.36" transform="translate(7.78 106.66) rotate(-74.41)"/><ellipse class="cls-6" cx="57.74" cy="52.91" rx="0.7" ry="1.16" transform="translate(-4.91 99.89) rotate(-79.36)"/><ellipse class="cls-6" cx="34.18" cy="54.9" rx="1.5" ry="0.78" transform="translate(-9.53 7.24) rotate(-10.62)"/><ellipse class="cls-6" cx="9.24" cy="53.45" rx="0.78" ry="1.5" transform="translate(-44.9 56.88) rotate(-83.82)"/><ellipse class="cls-6" cx="4.17" cy="44.23" rx="0.72" ry="1.12" transform="translate(-40.25 43.62) rotate(-83.82)"/><ellipse class="cls-6" cx="42.53" cy="47.68" rx="1.1" ry="0.85" transform="translate(-10.11 11.46) rotate(-13.74)"/><path class="cls-7" d="M84.69,53.28c-3.75,2.6-9.1-2.93-10.54-16.57-.35-3.3-1-16.21,0-16.89C76.64,18,84.4,22.07,87,31.54,89.7,41.27,87.72,51.17,84.69,53.28Z"/><path d="M84.71,53.32a3.3,3.3,0,0,1-2.44.6A4.82,4.82,0,0,1,80,52.82a13,13,0,0,1-3.09-4.09A30.26,30.26,0,0,1,74,38.91c-.12-.85-.21-1.69-.29-2.55s-.08-1.7-.1-2.55l-.09-5.1,0-2.54c0-.85,0-1.7,0-2.55s0-1.7.1-2.56a3.1,3.1,0,0,1,.33-1.36,2.36,2.36,0,0,1,1.34-.57,8,8,0,0,1,5,1.58A15.88,15.88,0,0,1,84,24.29a19.44,19.44,0,0,1,2.63,4.49,27.33,27.33,0,0,1,1.43,5,29.33,29.33,0,0,1,.6,5.11A29.25,29.25,0,0,1,88.43,44a25.1,25.1,0,0,1-1.11,5,14.3,14.3,0,0,1-1,2.35A5.63,5.63,0,0,1,84.71,53.32Zm0-.08a8.2,8.2,0,0,0,2.43-4.32,24.68,24.68,0,0,0,.76-5,38.36,38.36,0,0,0-.08-5,43.84,43.84,0,0,0-.7-5,22.37,22.37,0,0,0-3.84-9.08,16.13,16.13,0,0,0-3.48-3.47,7.65,7.65,0,0,0-4.45-1.68,2.63,2.63,0,0,0-.56.1l-.26.1L74.3,20A3.35,3.35,0,0,0,74,21.11a23.54,23.54,0,0,0-.19,2.52c-.06,1.69,0,3.38.06,5.07.18,3.38.5,6.77,1,10.08a42,42,0,0,0,2.52,9.72,12.31,12.31,0,0,0,2.74,4.15,4.48,4.48,0,0,0,2.18,1.15A3.24,3.24,0,0,0,84.66,53.24Z"/><path class="cls-4" d="M95.24,31.64S89,33.25,87.12,33.9c-7.11,2.47-10.41-1.51-14.28.3-.82.38-2.53,3-.38,5.76,3.43,4.44,14.93-1.25,16.65-2.71C91.41,35.29,101.89,31.38,95.24,31.64Z"/><path class="cls-8" d="M102.86,57.52c-2.41-1.06-4-1.36-8.92-2.61-3-.75-6.22-3.83-8.25-7.8-1.16-2.27-6.38-6.13-8.07.51-1.16,4.58,4.69,7.49,10.49,9.09C95,58.61,105.76,58.79,102.86,57.52Z"/><path class="cls-8" d="M96.68,10.82c2.89.84-5.81,2.74-10.82,5.94C83.31,18.39,84.38,20,81,23.36c-2.65,2.59-5.15,1.86-7.58,0-3.51-2.66,3.4-6.95,8.91-9.4C88.84,11.08,89.52,8.73,96.68,10.82Z"/><path class="cls-1" d="M23.54,68.63c-1-.34-5.05-4.71-6.76-5.82-4.72-3.09-2.57-6.59-2.11-7.53l3.12-2.48c2.58-1.51,3.58,5.79,5.07,8.2a45.51,45.51,0,0,1,2.46,6.36C25.54,67.76,24.79,69,23.54,68.63Z"/><path class="cls-1" d="M46.08,69.38l6.13-11.07a2.91,2.91,0,0,0-1.83-2.59L46,53.9c-2.58-.06-2.2,5.79-1.84,7.1.66,2.34-.91,6.4.41,7.84C45.19,69.56,45.85,69.8,46.08,69.38Z"/><path class="cls-1" d="M69.88,69.53,78.15,57.7c.16-.22,1-3.25-.4-4.15l-3.12-.75c-2.55-.36-2.5,1.92-4.31,10.31a.24.24,0,0,1,0,.08l-1.58,5.29C68.57,69,69.57,70,69.88,69.53Z"/><path class="cls-8" d="M69.62,23.7c-1,2.94-7.74,18.78-1.67,24.69S52.88,47,59.36,35.19,70.14,22.07,69.62,23.7Z"/><path class="cls-8" d="M42,23.77c-2.84,4.49-7.14,20.73-2.31,26.63S27.1,49.14,33,37.17,44.12,20.37,42,23.77Z"/><path class="cls-8" d="M56.18,22.31c1.29,2.34-6,18.92-2.69,24.71s-9.78,5.44-8.71-4.44S56.18,22.31,56.18,22.31Z"/><path class="cls-8" d="M30.78,22.86c-2,2-8.24,18.4-4.14,24.51S17,48.73,20.55,34.15C22.33,26.87,31.78,21.84,30.78,22.86Z"/><path class="cls-8" d="M18.05,22.78c-.51,1-9.29,11.43-1.2,28.83C18.37,54.88,3.06,45.9,6.55,33.1,8.52,25.86,19.82,19.35,18.05,22.78Z"/></g></svg>