<svg xmlns="http://www.w3.org/2000/svg" xmlns:xlink="http://www.w3.org/1999/xlink" viewBox="0 0 105 70"><defs><style>.cls-1,.cls-2,.cls-3,.cls-4,.cls-5{stroke:#000;}.cls-1,.cls-2,.cls-3,.cls-4,.cls-5,.cls-6,.cls-8{stroke-miterlimit:10;}.cls-1,.cls-6{stroke-width:0.25px;}.cls-2{fill:url(#Новый_образец_градиентной_залив);}.cls-3{fill:gray;}.cls-4,.cls-6{fill:#31c8c5;}.cls-5{fill:#f9f912;}.cls-6,.cls-8{stroke:#31c8c5;}.cls-7{fill:url(#Безымянный_градиент_58);}</style><linearGradient id="Новый_образец_градиентной_залив" x1="42.68" y1="59.86" x2="42.68" y2="1.36" gradientUnits="userSpaceOnUse"><stop offset="0"/><stop offset="0.1" stop-color="#1d0e05"/><stop offset="0.2" stop-color="#311908"/><stop offset="0.29" stop-color="#3e1f0a"/><stop offset="0.38" stop-color="#42210b"/><stop offset="0.5" stop-color="#5a2d0f"/><stop offset="0.6" stop-color="#713813"/><stop offset="0.67" stop-color="#5d2e10"/><stop offset="0.74" stop-color="#4e270d"/><stop offset="0.78" stop-color="#542a0f"/><stop offset="0.82" stop-color="#653314"/><stop offset="0.87" stop-color="#82411d"/><stop offset="0.91" stop-color="#984c24"/></linearGradient><linearGradient id="Безымянный_градиент_58" x1="74.27" y1="36.08" x2="91.7" y2="31.89" gradientTransform="matrix(1, 0, 0, 1, -0.1, 0.03)" gradientUnits="userSpaceOnUse"><stop offset="0"/><stop offset="0.03" stop-color="#151515"/><stop offset="0.08" stop-color="#363636"/><stop offset="0.14" stop-color="#515151"/><stop offset="0.2" stop-color="#666"/><stop offset="0.26" stop-color="#757575"/><stop offset="0.34" stop-color="#7d7d7d"/><stop offset="0.46" stop-color="gray"/><stop offset="0.48" stop-color="#7c7c7c"/><stop offset="0.72" stop-color="#3a3a3a"/><stop offset="0.9" stop-color="#101010"/><stop offset="0.99"/></linearGradient></defs><title>1</title><g id="Слой_3" data-name="Слой 3"><path class="cls-1" d="M69.53,67.89l1-5.52c0-.13,0-.27.07-.4.65-4.14,1.07-6-.56-7.83l-3.46-.74c-.3.07-6.77-3.25-3.74,4.13,1.21,3,4.59,11.58,4.59,11.58C67.5,69.77,69.31,70.75,69.53,67.89Z"/><path class="cls-1" d="M38.87,68.66l2.4-5a2.48,2.48,0,0,1,.17-.37c1.72-3.81,1.92-7.66,1.52-7.68l-4-.18c-.32,0-3.55,1.36-3.59,1.66L36.5,69.28C36.41,69.93,38.6,69.27,38.87,68.66Z"/><path class="cls-1" d="M13.74,69.2l2.4-7.58c0-.16.1-.32.15-.48,1.46-4.85,1.4-9.59,1-9.57l-4,.25c-.31,0-.76,1-2.83,2.1l1.27,15.19C11.71,69.92,13.51,70,13.74,69.2Z"/><path class="cls-2" d="M80.48,54.74c-5.31-1-2.72,4.79-10.83,2.84-3.61-.87-5.91,0-12.8,1.89-6.69,1.83-8.29-4-17.71-.95-5.91,1.89-10.45,1.69-13.78,0-5.36-2.71-8.27-1.81-12.8-1.89-1.84,0-6.5-1-9.16-4.67C2.37,50.55,0,43.47.62,36c.58-7.15,2.94-9.27,4.47-11.47a35.94,35.94,0,0,0,4.75-9.46C12,9.39,13.37,5.12,17.22,3.16,21,1.86,23.14.77,23.38,10c0,6.78,3.74,5.77,4.34,5.92,6.06,1.46,6.15-4.55,6.83-6.07,3.1-6.75,7.19-8,9.87-7.63,3.65,2.44-.62,4.27,3.85,13.35,1.48,3,9.68,2.47,9.08-3.87,2.84-9.85,14.57-15,13.84-4.79-.46,6.38,1,7.93,4,10.57,2.78,1.57,5.61,4.45,6.29,6.09,1.16,2.8,5.91,10.39,1.61,14.79-2.76,2.82-1,4.82.36,6.93C85.8,49,84.52,55.51,80.48,54.74Z"/><path class="cls-3" d="M20.75,2.17s-3.68-2-9,8.16c-1.13,2.15-1.54,6-.7,4.92,1.77-2.24,3,1.06,4-2.29.28-.92,0-2.49,1.88-4.56A67.25,67.25,0,0,0,20.75,2.17Z"/><path class="cls-3" d="M42.3,2.06c-1.07,0-4.22.17-7.58,8.12-.61,1.43-1.56,5.38.5,3.24.81-.85,3.63.05,3.63.05.26-.92.79-4.66,3-7.11.47-.51,1-3.14,2.14-3.41C45.88,2.5,43.7,2,42.3,2.06Z"/><path class="cls-3" d="M68.18,1.58S62,1.19,58.12,10.19c-.62,1.43.51,5.25,2.1,2.74.71-1.12,3.84.5,3.84.5.88-3.4.24-5.22.66-6.59C65.41,4.62,68.18,1.58,68.18,1.58Z"/><path class="cls-4" d="M23.34,7.89C23.07,11,22,16.2,20.25,16.05s-5.88-4.48-2.69-8.67c2-2.6,2.62-5.63,3.65-5.3C22.91,2.63,23.61,4.81,23.34,7.89Z"/><path class="cls-5" d="M19.49,9c.75-2.06.8-3.84,1.32-4.1.73-.36,1.4-1.38.79,4-.26,2.3-1,4.4-1.52,4.36S18.81,10.88,19.49,9Z"/><path class="cls-4" d="M47,8.06c-.26,3-1.28,8.06-2.88,7.92s-5.66-1.68-3-7.93c1.34-3.17,3-5.92,4-5.6C46.63,3,47.26,5.08,47,8.06Z"/><path class="cls-5" d="M43.55,8.36c.63-2.12.84-4,1.43-4s.94,1.72.75,4a10.55,10.55,0,0,1-1.46,4.15C43.31,14.83,42.26,12.75,43.55,8.36Z"/><path class="cls-4" d="M71.41,7.1c-.25,3.12-1.5,7.92-3.21,7.78s-4.73,1.13-4-5.94c.33-3.3,4.11-8,5.13-7.7C71,1.78,71.66,4,71.41,7.1Z"/><path class="cls-5" d="M67.37,7.32c.74-2.2.44-3.91,1.73-3.93.72,0,1.12,1.91.93,4.25a7.58,7.58,0,0,1-1.61,4.23C67.15,13.6,65.61,12.53,67.37,7.32Z"/><ellipse class="cls-6" cx="12.6" cy="21.42" rx="0.78" ry="1.5" transform="translate(-9.38 33.03) rotate(-87.39)"/><ellipse class="cls-6" cx="34.37" cy="20.25" rx="0.85" ry="1.1" transform="translate(6.3 48.59) rotate(-75.76)"/><ellipse class="cls-6" cx="20.39" cy="25.93" rx="0.85" ry="1.1" transform="translate(-9.76 39.32) rotate(-75.76)"/><ellipse class="cls-6" cx="34.22" cy="28.74" rx="1.38" ry="0.71"/><ellipse class="cls-6" cx="46.22" cy="28.74" rx="1.38" ry="0.71"/><ellipse class="cls-6" cx="48.67" cy="22.07" rx="1.36" ry="0.7" transform="translate(-4.54 17.1) rotate(-19.05)"/><ellipse class="cls-6" cx="60.53" cy="27.14" rx="0.78" ry="1.5" transform="translate(22.69 81.62) rotate(-79.36)"/><ellipse class="cls-6" cx="67.51" cy="20.42" rx="0.78" ry="1.5" transform="translate(34.97 83) rotate(-79.36)"/><ellipse class="cls-6" cx="74.14" cy="48.23" rx="0.7" ry="1.36" transform="translate(7.76 106.67) rotate(-74.41)"/><ellipse class="cls-6" cx="57.74" cy="52.93" rx="0.7" ry="1.16" transform="translate(-4.94 99.91) rotate(-79.36)"/><ellipse class="cls-6" cx="34.18" cy="54.92" rx="1.5" ry="0.78" transform="translate(-9.54 7.24) rotate(-10.62)"/><ellipse class="cls-6" cx="9.24" cy="53.48" rx="0.78" ry="1.5" transform="translate(-44.92 56.9) rotate(-83.82)"/><ellipse class="cls-6" cx="4.18" cy="44.25" rx="0.72" ry="1.12" transform="translate(-40.27 43.64) rotate(-83.82)"/><ellipse class="cls-6" cx="42.53" cy="47.7" rx="1.1" ry="0.85" transform="translate(-10.11 11.47) rotate(-13.74)"/><path class="cls-7" d="M84.69,50.85C80.94,53.35,75.59,48,74.15,35c-.35-3.17-1-15.55,0-16.21C76.64,17,84.4,20.91,87,30,89.7,39.33,87.72,48.82,84.69,50.85Z"/><path d="M84.71,50.89a3.48,3.48,0,0,1-2.37.59,4.84,4.84,0,0,1-2.27-1A11.92,11.92,0,0,1,77,46.63a27.79,27.79,0,0,1-3-9.47c-.11-.82-.21-1.64-.29-2.47s-.09-1.65-.11-2.47l-.09-4.93,0-2.47c0-.82,0-1.64,0-2.47s0-1.64.1-2.48c0-.21.05-.41.1-.63a1.17,1.17,0,0,1,.34-.71,2.78,2.78,0,0,1,1.28-.45,8.19,8.19,0,0,1,4.85,1.47A15.62,15.62,0,0,1,83.9,22.9a18.63,18.63,0,0,1,2.66,4.29A24.2,24.2,0,0,1,88,32a29.54,29.54,0,0,1,.4,9.92,24.13,24.13,0,0,1-1.12,4.84,14.66,14.66,0,0,1-1,2.26A5.7,5.7,0,0,1,84.71,50.89Zm0-.09a7.68,7.68,0,0,0,2.42-4.13,22.44,22.44,0,0,0,.77-4.81A35.79,35.79,0,0,0,87.77,37,40.57,40.57,0,0,0,87,32.2a20.76,20.76,0,0,0-3.89-8.69,15.74,15.74,0,0,0-3.46-3.26,7.85,7.85,0,0,0-4.35-1.58,2.17,2.17,0,0,0-1,.3s-.12.21-.16.38-.08.38-.12.58a19.73,19.73,0,0,0-.19,2.43c-.07,1.64,0,3.28,0,4.92.18,3.27.51,6.54,1,9.75a38.45,38.45,0,0,0,2.57,9.35,11.64,11.64,0,0,0,2.77,3.94,4.62,4.62,0,0,0,2.16,1A3.31,3.31,0,0,0,84.66,50.8Z"/><path class="cls-4" d="M95,30.11s-6.26,1.6-8.13,2.23c-7.13,2.41-10.34-1.22-14.24.52a3.53,3.53,0,0,0-.48,5.34c3.32,4.06,14.89-1.4,16.63-2.79C91.13,33.56,101.65,29.76,95,30.11Z"/><path class="cls-8" d="M103.85,43.54c-2.57.53-4,1.18-8.73,3-2.86,1.09-7.26.52-11.21-1.43C81.66,44,75.2,43.91,77.68,50c1.72,4.22,8.14,3.19,13.76,1.18C98.12,48.8,106.93,42.9,103.85,43.54Z"/><path class="cls-8" d="M99.2,21.62c2,2.12-6.39-.6-12.33-.44-3,.08-2.93,1.93-7.61,3-3.61.83-5.37-1-6.51-3.72-1.64-3.91,6.49-4,12.47-3.33C92.34,18,94.13,16.38,99.2,21.62Z"/><path class="cls-1" d="M17.36,68.76c-.51-1-.32-6.9-.76-8.9-1.22-5.5,2.77-6.5,3.75-6.85l4,.4c2.91.73-1.48,6.65-2.1,9.41a46.38,46.38,0,0,1-2.69,6.27C19.4,69.53,18,69.92,17.36,68.76Z"/><path class="cls-1" d="M50.5,69.19,51.84,56.6a3,3,0,0,0-2.7-1.67l-4.79,0c-2.39,1,.23,6.19,1.07,7.25,1.52,1.9,1.65,6.26,3.43,7.06C49.75,69.7,50.44,69.66,50.5,69.19Z"/><path class="cls-1" d="M75.38,69.29l-.27-14.44c0-.27-1.06-3.24-2.76-3.12l-3,1.23c-2.26,1.21-.88,3,2.58,10.87l0,.08,1.83,5.21C74,69.6,75.39,69.83,75.38,69.29Z"/><path class="cls-8" d="M71,22C70.1,25,63.31,40.79,69.37,46.7s-15.06-1.38-8.58-13.2S71.56,20.38,71,22Z"/><path class="cls-8" d="M43.39,22.08c-2.84,4.48-7.14,20.72-2.32,26.63s-12.54-1.26-6.62-13.24S45.54,18.68,43.39,22.08Z"/><path class="cls-8" d="M57.61,20.61c1.28,2.34-6,18.93-2.69,24.71s-9.79,5.45-8.71-4.44S57.61,20.61,57.61,20.61Z"/><path class="cls-8" d="M32.2,21.16c-2,2-8.24,18.41-4.14,24.51S18.4,47,22,32.46C23.76,25.17,33.2,20.14,32.2,21.16Z"/><path class="cls-8" d="M19.47,21.08c-.51,1-9.29,11.44-1.19,28.83C19.8,53.18,4.48,44.21,8,31.41,10,24.17,21.25,17.65,19.47,21.08Z"/></g></svg>