<svg xmlns="http://www.w3.org/2000/svg" xmlns:xlink="http://www.w3.org/1999/xlink" viewBox="0 0 105 70"><defs><style>.cls-1,.cls-2,.cls-3,.cls-4,.cls-5{stroke:#000;}.cls-1,.cls-2,.cls-3,.cls-4,.cls-5,.cls-6,.cls-8{stroke-miterlimit:10;}.cls-1,.cls-6{stroke-width:0.25px;}.cls-2{fill:url(#Новый_образец_градиентной_залив);}.cls-3{fill:gray;}.cls-4,.cls-6{fill:#31c8c5;}.cls-5{fill:#f9f912;}.cls-6,.cls-8{stroke:#31c8c5;}.cls-7{fill:url(#Безымянный_градиент_58);}</style><linearGradient id="Новый_образец_градиентной_залив" x1="43.14" y1="59.42" x2="43.14" y2="0.92" gradientUnits="userSpaceOnUse"><stop offset="0"/><stop offset="0.1" stop-color="#1d0e05"/><stop offset="0.2" stop-color="#311908"/><stop offset="0.29" stop-color="#3e1f0a"/><stop offset="0.38" stop-color="#42210b"/><stop offset="0.5" stop-color="#5a2d0f"/><stop offset="0.6" stop-color="#713813"/><stop offset="0.67" stop-color="#5d2e10"/><stop offset="0.74" stop-color="#4e270d"/><stop offset="0.78" stop-color="#542a0f"/><stop offset="0.82" stop-color="#653314"/><stop offset="0.87" stop-color="#82411d"/><stop offset="0.91" stop-color="#984c24"/></linearGradient><linearGradient id="Безымянный_градиент_58" x1="74.76" y1="37.4" x2="92.3" y2="33.19" gradientTransform="matrix(1, 0, 0, 1, -0.18, 0.05)" gradientUnits="userSpaceOnUse"><stop offset="0"/><stop offset="0.03" stop-color="#151515"/><stop offset="0.08" stop-color="#363636"/><stop offset="0.14" stop-color="#515151"/><stop offset="0.2" stop-color="#666"/><stop offset="0.26" stop-color="#757575"/><stop offset="0.34" stop-color="#7d7d7d"/><stop offset="0.46" stop-color="gray"/><stop offset="0.48" stop-color="#7c7c7c"/><stop offset="0.72" stop-color="#3a3a3a"/><stop offset="0.9" stop-color="#101010"/><stop offset="0.99"/></linearGradient></defs><title>1</title><g id="Слой_1" data-name="Слой 1"><path class="cls-1" d="M71.41,66.77l-.24-5.59c0-.14,0-.28,0-.41-.26-4.18-.25-6.07-2.25-7.51l-3.54,0c-.28.14-7.32-1.69-2.75,4.86,1.83,2.62,7,10.29,7,10.29C69.84,69.05,71.83,69.61,71.41,66.77Z"/><path class="cls-1" d="M38.51,68.22l3-4.69c.06-.12.15-.23.22-.35,2.19-3.55,2.89-7.35,2.5-7.41l-3.91-.69C40,55,36.66,56,36.58,56.26l-.5,12.27C35.91,69.16,38.17,68.79,38.51,68.22Z"/><path class="cls-1" d="M8.22,66.53l7-3.85.43-.25c4.4-2.53,7.61-6,7.3-6.27l-3.06-2.54c-.24-.2-1.2.17-3.5-.42L6.84,65.11C6.25,65.67,7.52,66.94,8.22,66.53Z"/><path class="cls-2" d="M80.94,54.3c-5.31-1-2.72,4.79-10.83,2.84-3.61-.87-5.9,0-12.79,1.89-6.69,1.83-8.3-4-17.72-1-5.9,1.89-10.44,1.69-13.78,0-5.35-2.71-8.26-1.81-12.79-1.89-1.85,0-6.51-1-9.17-4.67-1-1.41-3.39-8.49-2.78-16C1.66,28.41,4,26.29,5.55,24.09a35.73,35.73,0,0,0,4.75-9.46c2.2-5.68,3.53-10,7.38-11.91,3.79-1.3,5.92-2.39,6.16,6.85,1,7,4.34,5.91,4.93,6.06,4.53,1.16,5.57-4.69,6.24-6.21,3.1-6.75,7.2-8,9.88-7.64,3.64,2.45-.63,4.28,3.85,13.36,1.47,3,10.49,1.65,9.07-3.87,2.84-9.85,14.58-15,13.85-4.8-.46,6.39,1,7.94,4,10.58,2.78,1.56,5.62,4.45,6.29,6.09,1.17,2.8,5.91,10.39,1.61,14.79-2.76,2.82-1,4.82.36,6.93C86.27,48.53,85,55.07,80.94,54.3Z"/><path class="cls-3" d="M21.21,1.73s-3.67-2-9,8.16c-1.13,2.15-1.54,6-.7,4.92,1.77-2.24,3,1.06,4-2.29.28-.92,0-2.49,1.87-4.56A65.11,65.11,0,0,0,21.21,1.73Z"/><path class="cls-3" d="M42.77,1.62c-1.08,0-4.23.17-7.59,8.12-.61,1.43-1.56,5.38.5,3.24.82-.85,3.63,0,3.63,0,.27-.92.8-4.66,3-7.11.46-.51,1-3.14,2.13-3.41C46.35,2.06,44.17,1.56,42.77,1.62Z"/><path class="cls-3" d="M68.65,1.14S62.48.75,58.58,9.75c-.62,1.43.51,5.25,2.1,2.74.72-1.12,3.84.49,3.84.49.88-3.4.25-5.21.67-6.58C65.87,4.18,68.65,1.14,68.65,1.14Z"/><path class="cls-4" d="M23.81,7.45c-.27,3.08-1.35,8.31-3.1,8.15S14.84,11.13,18,6.94c2-2.6,2.61-5.63,3.65-5.3C23.38,2.19,24.08,4.37,23.81,7.45Z"/><path class="cls-5" d="M20,8.59c.76-2.06.8-3.84,1.33-4.1.73-.36,1.39-1.38.79,4-.26,2.3-1,4.4-1.53,4.36S19.27,10.44,20,8.59Z"/><path class="cls-4" d="M47.46,7.62c-.26,3-1.27,8.06-2.88,7.92s-5.66-1.68-3-7.93c1.35-3.17,3-5.92,4-5.61C47.09,2.53,47.72,4.64,47.46,7.62Z"/><path class="cls-5" d="M44,7.92c.62-2.12.83-4,1.42-4s.94,1.72.75,4a10.65,10.65,0,0,1-1.45,4.15C43.78,14.39,42.72,12.31,44,7.92Z"/><path class="cls-4" d="M71.87,6.66c-.25,3.12-1.49,7.92-3.21,7.78s-4.73,1.13-4-5.94C65,5.2,68.74.47,69.76.8,71.43,1.34,72.12,3.54,71.87,6.66Z"/><path class="cls-5" d="M67.83,6.88c.75-2.2.44-3.91,1.73-3.93.73,0,1.12,1.91.93,4.25a7.58,7.58,0,0,1-1.61,4.23C67.61,13.16,66.07,12.09,67.83,6.88Z"/><ellipse class="cls-6" cx="13.06" cy="20.98" rx="0.78" ry="1.5" transform="translate(-8.5 33.07) rotate(-87.39)"/><ellipse class="cls-6" cx="34.84" cy="19.81" rx="0.85" ry="1.1" transform="translate(7.07 48.7) rotate(-75.76)"/><ellipse class="cls-6" cx="20.85" cy="25.49" rx="0.85" ry="1.1" transform="translate(-8.98 39.44) rotate(-75.76)"/><ellipse class="cls-6" cx="34.68" cy="28.3" rx="1.38" ry="0.71"/><ellipse class="cls-6" cx="46.68" cy="28.3" rx="1.38" ry="0.71"/><ellipse class="cls-6" cx="49.13" cy="21.63" rx="1.36" ry="0.7" transform="translate(-4.37 17.22) rotate(-19.05)"/><ellipse class="cls-6" cx="61" cy="26.7" rx="0.78" ry="1.5" transform="translate(23.5 81.72) rotate(-79.36)"/><ellipse class="cls-6" cx="67.97" cy="19.98" rx="0.78" ry="1.5" transform="translate(35.78 83.1) rotate(-79.36)"/><ellipse class="cls-6" cx="74.6" cy="47.79" rx="0.7" ry="1.36" transform="translate(8.52 106.8) rotate(-74.41)"/><ellipse class="cls-6" cx="58.21" cy="52.49" rx="0.7" ry="1.16" transform="translate(-4.12 100.01) rotate(-79.36)"/><ellipse class="cls-6" cx="34.64" cy="54.48" rx="1.5" ry="0.78" transform="translate(-9.45 7.32) rotate(-10.62)"/><ellipse class="cls-6" cx="9.71" cy="53.03" rx="0.78" ry="1.5" transform="translate(-44.07 56.97) rotate(-83.82)"/><ellipse class="cls-6" cx="4.64" cy="43.81" rx="0.72" ry="1.12" transform="translate(-39.42 43.71) rotate(-83.82)"/><ellipse class="cls-6" cx="42.99" cy="47.26" rx="1.1" ry="0.85" transform="translate(-9.99 11.56) rotate(-13.74)"/><path class="cls-7" d="M85.15,52.86c-3.75,2.61-9.09-2.92-10.53-16.56-.35-3.31-1-16.22,0-16.9,2.5-1.79,10.26,2.25,12.87,11.72C90.17,40.85,88.18,50.75,85.15,52.86Z"/><path d="M85.18,52.9a3.34,3.34,0,0,1-2.45.6,4.74,4.74,0,0,1-2.3-1.1,12.79,12.79,0,0,1-3.09-4.09,30.21,30.21,0,0,1-2.89-9.82c-.11-.85-.21-1.69-.28-2.55s-.08-1.7-.11-2.55L74,28.3l0-2.55c0-.85,0-1.7,0-2.55s0-1.7.09-2.56a3.25,3.25,0,0,1,.33-1.36,2.39,2.39,0,0,1,1.34-.57,8,8,0,0,1,5,1.58,16.13,16.13,0,0,1,3.79,3.58,19.4,19.4,0,0,1,2.62,4.49,27.37,27.37,0,0,1,1.44,5,31.87,31.87,0,0,1,.37,10.25,25.72,25.72,0,0,1-1.11,5,15.33,15.33,0,0,1-1,2.36A5.69,5.69,0,0,1,85.18,52.9Zm-.06-.08a8.09,8.09,0,0,0,2.43-4.32,24.68,24.68,0,0,0,.76-5,40,40,0,0,0-.07-5,46.09,46.09,0,0,0-.71-5,22.31,22.31,0,0,0-3.83-9.07A16.22,16.22,0,0,0,80.21,21a7.66,7.66,0,0,0-4.45-1.68,2.63,2.63,0,0,0-.56.1,2.72,2.72,0,0,0-.25.11l-.19.1a3.19,3.19,0,0,0-.28,1.09,20.88,20.88,0,0,0-.19,2.51c-.07,1.69,0,3.38,0,5.08.18,3.38.51,6.76,1,10.08a42.05,42.05,0,0,0,2.52,9.71,12.46,12.46,0,0,0,2.74,4.15,4.53,4.53,0,0,0,2.18,1.15A3.23,3.23,0,0,0,85.12,52.82Z"/><path class="cls-4" d="M94.48,31.24s-6.26,1.67-8.13,2.32c-7.13,2.51-10.34-1.27-14.23.55a3.77,3.77,0,0,0-.49,5.57c3.32,4.23,14.89-1.47,16.63-2.91C90.59,34.84,101.12,30.87,94.48,31.24Z"/><path class="cls-8" d="M103.36,38.56c-2.46,1.1-3.77,2.07-8.13,4.92-2.63,1.73-7.16,2.09-11.53.94-2.5-.66-9,.66-5.2,6.37,2.61,3.94,8.83,1.52,14-1.74C98.73,45.17,106.31,37.25,103.36,38.56Z"/><path class="cls-8" d="M99.33,26.6c1.65,2.52-6.19-1.69-12.07-2.52-3-.43-3.23,1.49-8,1.81-3.7.25-5.12-1.94-5.77-4.91-.94-4.3,7.1-3.07,12.88-1.34C93.21,21.7,95.26,20.36,99.33,26.6Z"/><path class="cls-1" d="M16.36,67.47c-.3-1.06,1.1-6.82,1.08-8.87-.07-5.63,4-5.79,5.08-5.94l3.8,1.21c2.69,1.31-2.82,6.2-4,8.78a45.29,45.29,0,0,1-3.91,5.58C18.21,68.64,16.72,68.73,16.36,67.47Z"/><path class="cls-1" d="M52,68.32l-.5-12.64a2.92,2.92,0,0,0-2.91-1.27l-4.73.75c-2.24,1.28,1.12,6.09,2.11,7,1.78,1.66,2.54,5.95,4.42,6.49C51.29,68.94,52,68.8,52,68.32Z"/><path class="cls-1" d="M80.15,65.91,71.81,54.12c-.15-.22-2.69-2.09-4-1L66,55.77c-1.2,2.27,1,3,8.24,7.55l.07,0,4.44,3.28C79.17,67,80.46,66.35,80.15,65.91Z"/><path class="cls-8" d="M69.5,22.86c-.94,2.95-7.73,18.78-1.67,24.69s-15.06-1.37-8.58-13.19S70,21.24,69.5,22.86Z"/><path class="cls-8" d="M41.85,22.94C39,27.42,34.71,43.66,39.53,49.56S27,48.3,32.91,36.33,44,19.53,41.85,22.94Z"/><path class="cls-8" d="M56.07,21.47c1.28,2.34-6,18.92-2.69,24.71s-9.79,5.45-8.71-4.44S56.07,21.47,56.07,21.47Z"/><path class="cls-8" d="M30.66,22c-2,2-8.24,18.4-4.14,24.51s-9.66,1.37-6.09-13.21C22.22,26,31.66,21,30.66,22Z"/><path class="cls-8" d="M17.93,21.94c-.51,1-9.29,11.43-1.19,28.83,1.52,3.27-13.8-5.7-10.31-18.5C8.41,25,19.71,18.51,17.93,21.94Z"/></g></svg>