<?xml version="1.0" encoding="utf-8"?>
<!-- Generator: Adobe Illustrator 24.0.2, SVG Export Plug-In . SVG Version: 6.00 Build 0)  -->
<svg version="1.1" xmlns="http://www.w3.org/2000/svg" xmlns:xlink="http://www.w3.org/1999/xlink" x="0px" y="0px"
	 viewBox="0 0 100 70" style="enable-background:new 0 0 100 70;" xml:space="preserve">
<style type="text/css">
	.st0{fill:#808080;stroke:#000000;stroke-width:0.25;stroke-miterlimit:10;}
	.st1{stroke:#31C8C5;stroke-width:0.25;stroke-miterlimit:10;}
	.st2{fill:url(#SVGID_1_);stroke:#000000;stroke-width:0.25;stroke-miterlimit:10;}
	.st3{fill:#31C8C5;stroke:#000000;stroke-width:0.25;stroke-miterlimit:10;}
	.st4{fill:url(#SVGID_2_);}
	.st5{fill:#FFFFFF;stroke:#000000;stroke-width:0.25;stroke-miterlimit:10;}
	.st6{stroke:#000000;stroke-width:0.25;stroke-miterlimit:10;}
	.st7{fill:url(#SVGID_3_);stroke:#000000;stroke-miterlimit:10;}
	.st8{fill:url(#SVGID_4_);}
	.st9{fill:#31C8C5;stroke:#000000;stroke-miterlimit:10;}
	.st10{fill:#31C8C5;}
	.st11{stroke:#31C8C5;stroke-miterlimit:10;}
	.st12{fill:#808080;stroke:#000000;stroke-miterlimit:10;}
	.st13{fill:#F9F912;stroke:#000000;stroke-miterlimit:10;}
	.st14{fill:#31C8C5;stroke:#31C8C5;stroke-width:0.25;stroke-miterlimit:10;}
	.st15{fill:url(#SVGID_5_);stroke:#000000;stroke-miterlimit:10;}
	.st16{fill:none;stroke:#000000;stroke-miterlimit:10;}
	.st17{fill:url(#SVGID_6_);stroke:#000000;stroke-miterlimit:10;}
	.st18{fill:url(#SVGID_7_);stroke:#000000;stroke-width:0.5;stroke-miterlimit:10;}
	.st19{fill:url(#SVGID_8_);stroke:#000000;stroke-width:0.5;stroke-miterlimit:10;}
	.st20{fill:#984C24;stroke:#000000;stroke-miterlimit:10;}
	.st21{fill:#F9F912;}
	.st22{stroke:#31C8C5;stroke-width:0.75;stroke-miterlimit:10;}
	.st23{fill:#723919;}
	.st24{fill:url(#SVGID_9_);stroke:#000000;stroke-miterlimit:10;}
	.st25{clip-path:url(#SVGID_11_);}
	.st26{clip-path:url(#SVGID_15_);}
	.st27{fill:url(#SVGID_18_);stroke:#000000;stroke-width:0.5;stroke-miterlimit:10;}
	.st28{fill:url(#SVGID_19_);stroke:#000000;stroke-width:0.5;stroke-miterlimit:10;}
	.st29{fill:url(#SVGID_20_);stroke:#000000;stroke-miterlimit:10;}
	.st30{stroke:#F9F912;stroke-miterlimit:10;}
	.st31{display:none;fill:#984C24;stroke:#000000;stroke-miterlimit:10;}
	.st32{fill:url(#SVGID_21_);stroke:#000000;stroke-miterlimit:10;}
	.st33{stroke:#984C24;stroke-miterlimit:10;}
	.st34{fill:url(#SVGID_22_);stroke:#000000;stroke-miterlimit:10;}
	.st35{fill:url(#SVGID_23_);stroke:#000000;stroke-miterlimit:10;}
</style>
<g id="Слой_1">
</g>
<g id="Слой_2">
	<path class="st6" d="M72.98,66.88l-2.36-5.08c-0.07-0.12-0.12-0.25-0.18-0.37c-1.83-3.76-2.54-5.51-4.94-6.09l-3.26,1.37
		c-0.21,0.23-7.41,1.22-0.7,5.54c2.69,1.73,10.4,6.86,10.4,6.86C72.39,69.59,74.44,69.35,72.98,66.88z"/>
	<path class="st6" d="M35.78,69l3.91-3.99c0.09-0.1,0.19-0.2,0.28-0.3c2.86-3.03,4.31-6.62,3.94-6.76l-3.69-1.46
		c-0.29-0.12-3.8,0.13-3.93,0.4l-2.96,11.92C33.04,69.4,35.32,69.49,35.78,69z"/>
	<path class="st6" d="M7.13,68.18l6.72-4.25c0.13-0.1,0.28-0.18,0.42-0.27c4.24-2.78,7.25-6.44,6.93-6.68l-3.2-2.36
		c-0.25-0.19-1.19,0.24-3.52-0.21l-8.8,12.44C5.11,67.43,6.45,68.63,7.13,68.18z"/>
	<linearGradient id="SVGID_1_" gradientUnits="userSpaceOnUse" x1="42.67" y1="60.4146" x2="42.67" y2="1.9084">
		<stop  offset="3.723938e-03" style="stop-color:#000000"/>
		<stop  offset="0.1" style="stop-color:#1D0E05"/>
		<stop  offset="0.1963" style="stop-color:#311908"/>
		<stop  offset="0.2912" style="stop-color:#3E1F0A"/>
		<stop  offset="0.3824" style="stop-color:#42210B"/>
		<stop  offset="0.5022" style="stop-color:#5A2D0F"/>
		<stop  offset="0.6006" style="stop-color:#713813"/>
		<stop  offset="0.673" style="stop-color:#5D2E10"/>
		<stop  offset="0.7445" style="stop-color:#4E270D"/>
		<stop  offset="0.7775" style="stop-color:#542A0F"/>
		<stop  offset="0.8223" style="stop-color:#653314"/>
		<stop  offset="0.8735" style="stop-color:#82411D"/>
		<stop  offset="0.9069" style="stop-color:#984C24"/>
	</linearGradient>
	<path style="fill:url(#SVGID_1_);stroke:#000000;stroke-miterlimit:10;" d="M80.47,55.29c-5.31-1.01-2.72,4.79-10.83,2.83
		c-3.61-0.87-5.91,0-12.8,1.89c-6.69,1.83-8.3-3.96-17.72-0.94c-5.91,1.89-10.44,1.69-13.78,0c-5.35-2.71-8.26-1.81-12.8-1.89
		c-1.84-0.03-6.5-1-9.17-4.67C2.37,51.1,0,44.02,0.61,36.55c0.58-7.15,2.94-9.27,4.47-11.47c3.29-4.73,4.68-9.14,4.75-9.46
		c2.2-5.68,3.53-9.95,7.38-11.91c3.79-1.29,5.92-2.38,6.16,6.85c0.99,7.01,4.32,6.08,4.93,6.06c1.54-0.05,5.56-4.69,6.24-6.21
		c3.09-6.75,7.19-7.97,9.87-7.63c3.64,2.45-0.62,4.27,3.85,13.36c1.48,3,8.65-1.21,9.08-3.87c2.83-9.85,14.57-14.97,13.84-4.79
		c-0.46,6.39,0.99,7.94,3.97,10.57c2.79,1.57,5.62,4.45,6.3,6.1c1.16,2.79,5.91,10.39,1.6,14.79c-2.76,2.82-1,4.82,0.36,6.93
		C85.8,49.52,84.52,56.06,80.47,55.29z"/>
	<g>
		<g>
			
				<linearGradient id="SVGID_2_" gradientUnits="userSpaceOnUse" x1="74.1257" y1="38.4377" x2="91.6671" y2="34.2284" gradientTransform="matrix(0.9993 2.174092e-04 2.174092e-04 0.9999 -0.0187 5.486098e-03)">
				<stop  offset="3.723704e-03" style="stop-color:#333333"/>
				<stop  offset="0.2371" style="stop-color:#636363"/>
				<stop  offset="0.4002" style="stop-color:#808080"/>
				<stop  offset="0.4631" style="stop-color:#757575"/>
				<stop  offset="0.6918" style="stop-color:#515151"/>
				<stop  offset="0.8784" style="stop-color:#3B3B3B"/>
				<stop  offset="0.9981" style="stop-color:#333333"/>
			</linearGradient>
			<path class="st4" d="M84.68,53.85c-3.75,2.61-9.1-2.92-10.54-16.56c-0.35-3.31-0.96-16.21,0-16.9
				c2.5-1.79,10.26,2.25,12.87,11.72C89.7,41.84,87.71,51.74,84.68,53.85z"/>
			<path d="M84.71,53.89c-0.7,0.49-1.59,0.75-2.45,0.6c-0.86-0.11-1.64-0.57-2.31-1.1c-1.34-1.1-2.3-2.57-3.09-4.09
				c-1.57-3.07-2.43-6.44-2.88-9.82c-0.12-0.85-0.21-1.69-0.29-2.55c-0.05-0.85-0.08-1.7-0.11-2.55l-0.08-5.09l-0.02-2.55
				c-0.02-0.85-0.03-1.7-0.02-2.55c0.02-0.85,0.02-1.7,0.09-2.56c0.07-0.44,0.03-0.83,0.33-1.36c0.45-0.4,0.87-0.49,1.34-0.57
				c1.86-0.17,3.53,0.65,4.98,1.58c1.46,0.96,2.72,2.2,3.78,3.57c1.07,1.37,1.95,2.89,2.62,4.49c0.66,1.61,1.11,3.29,1.44,4.97
				c0.35,1.68,0.54,3.4,0.6,5.11c0.07,1.71-0.01,3.43-0.23,5.13c-0.22,1.7-0.56,3.38-1.11,5c-0.27,0.81-0.59,1.6-1,2.35
				C85.91,52.66,85.42,53.39,84.71,53.89z M84.65,53.81c1.34-1.04,1.96-2.73,2.43-4.32c0.43-1.63,0.67-3.3,0.76-4.98
				c0.09-1.68,0.05-3.36-0.07-5.03c-0.15-1.67-0.38-3.33-0.71-4.96c-0.65-3.28-1.85-6.42-3.83-9.08c-0.98-1.32-2.15-2.51-3.49-3.48
				c-1.32-0.92-2.87-1.74-4.45-1.68c-0.19,0.02-0.38,0.05-0.56,0.1c-0.08,0.04-0.18,0.06-0.26,0.1l-0.19,0.11
				c-0.14,0.21-0.23,0.7-0.29,1.08c-0.12,0.83-0.17,1.67-0.19,2.51c-0.06,1.69-0.03,3.38,0.06,5.07c0.18,3.38,0.5,6.76,0.97,10.08
				c0.54,3.31,1.21,6.62,2.52,9.71c0.67,1.52,1.52,3.01,2.74,4.15c0.62,0.55,1.36,1.01,2.18,1.15
				C83.11,54.52,83.96,54.28,84.65,53.81z"/>
		</g>
		<path class="st9" d="M97.44,22.36c0,0-3.69,5.12-5.19,6.58c-5.74,5.58-10.81,3.84-13.72,7.27c-0.61,0.73-1.97,4.27,1.57,5.35
			c4.23,1.28,8.29-3.08,9.39-4.03c1.74-1.5,5.29-4.64,6.26-6.72C97.06,28.01,102.76,14.69,97.44,22.36z"/>
		<g>
			<path d="M95.05,37.29c0,0-2.79,1.52-4.71,6.04c-0.99,2.34-5.05,3.35-9.09,3.27c-2.31-0.05-7.12,2.49-1.73,6.69
				c3.72,2.91,7.85-0.54,10.83-4.5C93.88,44.07,95.05,37.29,95.05,37.29z"/>
			<path class="st10" d="M95.02,37.33c-1.75,1.24-3.16,3.13-4.11,5.12c-0.25,0.5-0.41,1.02-0.75,1.53c-0.33,0.49-0.78,0.89-1.26,1.2
				c-0.97,0.65-2.08,1-3.18,1.27c-1.11,0.25-2.25,0.38-3.38,0.43c-0.56,0.04-1.16-0.01-1.65,0.07c-0.52,0.07-1.03,0.25-1.5,0.47
				c-0.48,0.22-0.91,0.54-1.23,0.91c-0.34,0.37-0.54,0.83-0.53,1.3c-0.04,0.96,0.7,1.86,1.44,2.59c0.81,0.72,1.66,1.38,2.66,1.59
				c0.98,0.24,2.03,0.04,2.97-0.4c0.95-0.43,1.82-1.09,2.63-1.81c0.81-0.72,1.56-1.53,2.25-2.38C92.22,45.87,93.8,41.53,95.02,37.33
				z M95.08,37.25c-0.25,2.33-0.85,4.46-1.63,6.61c-0.78,2.12-1.88,4.17-3.29,5.98c-1.42,1.77-3.06,3.49-5.26,4.47
				c-1.09,0.48-2.37,0.7-3.58,0.37c-1.22-0.3-2.18-1.11-3-1.88l-0.59-0.66c-0.19-0.22-0.34-0.49-0.52-0.74
				c-0.16-0.26-0.26-0.56-0.38-0.84c-0.05-0.32-0.16-0.62-0.12-0.95c0-0.65,0.31-1.29,0.74-1.73c0.42-0.46,0.93-0.8,1.47-1.04
				c0.54-0.25,1.11-0.43,1.7-0.49c0.62-0.07,1.16-0.01,1.71-0.03c1.11-0.02,2.21-0.12,3.29-0.34c1.07-0.23,2.15-0.54,3.07-1.12
				c0.46-0.28,0.88-0.63,1.19-1.07c0.3-0.42,0.5-0.97,0.76-1.47c0.52-1.01,1.14-1.96,1.86-2.83c0.36-0.43,0.75-0.85,1.17-1.22
				C94.12,37.89,94.48,37.53,95.08,37.25z"/>
		</g>
		<g>
			<path d="M93.32,24.42c0,0-5.5,0.63-9.8-1.27c-2.22-0.98-2.5,1.47-6.32,2.08c-2.94,0.46-4.2-1.27-4.89-3.71
				c-0.99-3.53,5.5-3.06,10.22-2.01C88.15,20.75,93.32,24.42,93.32,24.42z"/>
			<path class="st10" d="M93.37,24.44c-1.08,0.19-2.01,0.17-3.03,0.17c-1-0.01-2-0.08-2.99-0.23c-0.99-0.14-1.98-0.35-2.94-0.67
				c-0.47-0.15-0.97-0.38-1.39-0.5c-0.44-0.12-0.87-0.04-1.27,0.18c-0.8,0.47-1.6,1.17-2.56,1.57c-0.96,0.41-1.96,0.64-3.02,0.66
				c-1.06,0-2.19-0.45-2.89-1.3c-0.71-0.83-1.1-1.81-1.37-2.82c-0.13-0.54-0.15-1.2,0.2-1.76c0.36-0.51,0.89-0.86,1.4-1.03
				c1.04-0.38,2.08-0.44,3.1-0.46c2.05-0.01,4.05,0.32,6.02,0.76c1.97,0.51,3.87,1.23,5.66,2.15
				C90.08,22.11,91.76,23.09,93.37,24.44z M93.28,24.41c-3.41-1.85-7.06-3.65-10.87-4.42c-1.92-0.39-3.87-0.7-5.81-0.74
				c-0.96-0.02-1.94,0.02-2.79,0.31c-0.44,0.12-0.77,0.37-1,0.65c-0.2,0.3-0.22,0.69-0.13,1.12c0.22,0.91,0.57,1.84,1.14,2.53
				c0.57,0.71,1.43,1.09,2.36,1.12c0.93,0.01,1.9-0.19,2.78-0.54c0.9-0.35,1.63-0.96,2.56-1.48c0.47-0.25,1.09-0.34,1.61-0.17
				c0.53,0.18,0.94,0.39,1.4,0.56c0.92,0.35,1.88,0.58,2.85,0.75C89.32,24.44,91.38,24.48,93.28,24.41z"/>
		</g>
	</g>
	<path class="st11" d="M69.89,23.54c-0.94,2.95-7.74,18.78-1.67,24.69c6.07,5.91-15.06-1.37-8.58-13.2S70.41,21.91,69.89,23.54z"/>
	<path class="st11" d="M42.23,23.61c-2.84,4.49-7.14,20.72-2.32,26.63s-12.54-1.26-6.63-13.23S44.39,20.21,42.23,23.61z"/>
	<path class="st11" d="M56.45,22.14c1.29,2.34-6,18.93-2.69,24.71s-9.79,5.45-8.71-4.44S56.45,22.14,56.45,22.14z"/>
	<path class="st11" d="M31.05,22.7c-1.96,2-8.24,18.4-4.14,24.51s-9.66,1.36-6.09-13.21C22.6,26.7,32.05,21.68,31.05,22.7z"/>
	<path class="st11" d="M18.32,22.62c-0.51,0.99-9.29,11.43-1.2,28.83c1.52,3.27-13.8-5.71-10.3-18.51
		C8.79,25.7,20.09,19.19,18.32,22.62z"/>
	<path class="st12" d="M20.74,2.72c0,0-3.67-2.03-9.01,8.16c-1.13,2.16-1.54,5.98-0.7,4.92c1.77-2.24,2.99,1.07,4.02-2.29
		c0.28-0.92-0.04-2.49,1.87-4.55C17.83,7.98,20.74,2.72,20.74,2.72z"/>
	<path class="st12" d="M42.3,2.61c-1.08,0.05-4.22,0.17-7.59,8.11c-0.61,1.43-1.56,5.39,0.5,3.25c0.82-0.85,3.63,0.05,3.63,0.05
		c0.27-0.92,0.8-4.66,3.04-7.12c0.46-0.51,1.02-3.14,2.13-3.41C45.88,3.05,43.7,2.55,42.3,2.61z"/>
	<path class="st12" d="M68.18,2.13c0,0-6.17-0.39-10.07,8.61c-0.62,1.43,0.51,5.25,2.1,2.74c0.71-1.13,3.84,0.49,3.84,0.49
		c0.88-3.4,0.24-5.22,0.66-6.58C65.4,5.17,68.18,2.13,68.18,2.13z"/>
	<g>
		<path class="st9" d="M23.34,8.44c-0.27,3.08-1.35,8.31-3.09,8.16s-5.88-4.47-2.69-8.66c1.98-2.6,2.61-5.63,3.65-5.3
			C22.91,3.18,23.61,5.36,23.34,8.44z"/>
		<path class="st13" d="M19.48,9.58c0.76-2.06,0.8-3.84,1.32-4.1c0.73-0.36,1.39-1.39,0.79,4.01c-0.26,2.3-0.99,4.4-1.52,4.36
			C19.55,13.8,18.8,11.43,19.48,9.58z"/>
	</g>
	<g>
		<path class="st9" d="M46.99,8.61c-0.26,2.99-1.27,8.06-2.88,7.92c-1.6-0.14-5.66-1.68-3-7.93c1.35-3.17,3-5.92,3.95-5.6
			C46.62,3.52,47.25,5.63,46.99,8.61z"/>
		<path class="st13" d="M43.55,8.91c0.63-2.12,0.83-4.01,1.43-3.96c0.59,0.05,0.94,1.72,0.75,3.96c-0.18,2.16-1.16,3.42-1.46,4.15
			C43.31,15.38,42.25,13.3,43.55,8.91z"/>
	</g>
	<g>
		<path class="st9" d="M71.4,7.65c-0.25,3.12-1.5,7.92-3.21,7.78c-1.72-0.14-4.73,1.12-4.03-5.95c0.33-3.29,4.11-8.02,5.13-7.7
			C70.96,2.33,71.65,4.53,71.4,7.65z"/>
		<path class="st13" d="M67.36,7.87c0.74-2.2,0.44-3.91,1.73-3.92c0.73-0.01,1.12,1.91,0.93,4.25s-1.13,3.57-1.61,4.23
			C67.14,14.15,65.6,13.08,67.36,7.87z"/>
	</g>
	<ellipse transform="matrix(0.0455 -0.999 0.999 0.0455 -9.9339 33.5505)" class="st14" cx="12.59" cy="21.97" rx="0.78" ry="1.5"/>
	<ellipse transform="matrix(0.2459 -0.9693 0.9693 0.2459 5.7577 48.9951)" class="st14" cx="34.37" cy="20.8" rx="0.85" ry="1.1"/>
	
		<ellipse transform="matrix(0.2459 -0.9693 0.9693 0.2459 -10.2976 39.7284)" class="st14" cx="20.38" cy="26.48" rx="0.85" ry="1.1"/>
	<ellipse class="st14" cx="34.21" cy="29.29" rx="1.38" ry="0.71"/>
	<ellipse class="st14" cx="46.21" cy="29.29" rx="1.38" ry="0.71"/>
	
		<ellipse transform="matrix(0.9452 -0.3264 0.3264 0.9452 -4.7178 17.124)" class="st14" cx="48.66" cy="22.62" rx="1.36" ry="0.7"/>
	
		<ellipse transform="matrix(0.1846 -0.9828 0.9828 0.1846 22.1414 82.0626)" class="st14" cx="60.53" cy="27.69" rx="0.78" ry="1.5"/>
	
		<ellipse transform="matrix(0.1846 -0.9828 0.9828 0.1846 34.4254 83.4411)" class="st14" cx="67.5" cy="20.97" rx="0.78" ry="1.5"/>
	
		<ellipse transform="matrix(0.2688 -0.9632 0.9632 0.2688 7.2219 107.0708)" class="st14" cx="74.13" cy="48.78" rx="0.7" ry="1.36"/>
	
		<ellipse transform="matrix(0.9452 -0.3264 0.3264 0.9452 -8.8503 24.9417)" class="st14" cx="69.89" cy="38.84" rx="1.61" ry="0.84"/>
	
		<ellipse transform="matrix(0.1846 -0.9828 0.9828 0.1846 -5.4816 100.3514)" class="st14" cx="57.74" cy="53.48" rx="0.7" ry="1.16"/>
	
		<ellipse transform="matrix(0.9829 -0.1843 0.1843 0.9829 -9.6383 7.2484)" class="st14" cx="34.17" cy="55.47" rx="1.5" ry="0.78"/>
	
		<ellipse transform="matrix(0.1077 -0.9942 0.9942 0.1077 -45.4705 57.3895)" class="st14" cx="9.24" cy="54.03" rx="0.78" ry="1.5"/>
	<path class="st6" d="M14.22,67.94c0.01-1.1,2.98-6.23,3.54-8.2c1.53-5.43,5.52-4.42,6.55-4.27l3.3,2.23
		c2.21,2.02-4.46,5.15-6.31,7.29c-1.17,1.35-5.33,4.25-5.33,4.25C15.66,69.58,14.21,69.25,14.22,67.94z"/>
	<path class="st6" d="M53.43,68.69l-2.5-12.41c-0.05-0.23-1.45-1.32-3.07-0.79l-4.55,1.49c-2,1.62,2.07,5.83,3.2,6.59
		c2.01,1.36,3.45,5.47,5.39,5.71C52.87,69.41,53.52,69.16,53.43,68.69z"/>
	<path class="st6" d="M82.68,65.45l-10.87-9.5c-0.2-0.18-3.11-1.4-4.17-0.06l-1.09,3.02c-0.63,2.49,1.64,2.69,9.79,5.4
		c0.02,0.01,0.05,0.02,0.07,0.03l5.09,2.15C81.98,66.7,83.09,65.81,82.68,65.45z"/>
	
		<ellipse transform="matrix(0.1077 -0.9942 0.9942 0.1077 -40.8231 44.1234)" class="st14" cx="4.17" cy="44.8" rx="0.72" ry="1.12"/>
	
		<ellipse transform="matrix(0.9714 -0.2375 0.2375 0.9714 -10.2423 11.4794)" class="st14" cx="42.52" cy="48.25" rx="1.1" ry="0.85"/>
</g>
<g id="Слой_3">
</g>
<g id="Слой_4">
</g>
<g id="Слой_5">
</g>
<g id="Слой_6">
</g>
</svg>
