<?xml version="1.0" encoding="utf-8"?>
<!-- Generator: Adobe Illustrator 24.0.2, SVG Export Plug-In . SVG Version: 6.00 Build 0)  -->
<svg version="1.1" xmlns="http://www.w3.org/2000/svg" xmlns:xlink="http://www.w3.org/1999/xlink" x="0px" y="0px"
	 viewBox="0 0 140 120" style="enable-background:new 0 0 140 120;" xml:space="preserve">
<style type="text/css">
	.st0{fill:#808080;stroke:#000000;stroke-width:0.25;stroke-miterlimit:10;}
	.st1{stroke:#31C8C5;stroke-width:0.25;stroke-miterlimit:10;}
	.st2{fill:url(#SVGID_1_);stroke:#000000;stroke-width:0.25;stroke-miterlimit:10;}
	.st3{fill:#31C8C5;stroke:#000000;stroke-width:0.25;stroke-miterlimit:10;}
	.st4{fill:url(#SVGID_2_);}
	.st5{fill:#FFFFFF;stroke:#000000;stroke-width:0.25;stroke-miterlimit:10;}
	.st6{stroke:#000000;stroke-width:0.25;stroke-miterlimit:10;}
	.st7{fill:url(#SVGID_3_);stroke:#000000;stroke-miterlimit:10;}
	.st8{fill:url(#SVGID_4_);}
	.st9{fill:#31C8C5;stroke:#000000;stroke-miterlimit:10;}
	.st10{stroke:#31C8C5;stroke-miterlimit:10;}
	.st11{fill:#808080;stroke:#000000;stroke-miterlimit:10;}
	.st12{fill:#F9F912;stroke:#000000;stroke-miterlimit:10;}
	.st13{fill:#31C8C5;stroke:#31C8C5;stroke-width:0.25;stroke-miterlimit:10;}
	.st14{fill:url(#SVGID_5_);stroke:#000000;stroke-miterlimit:10;}
	.st15{fill:none;stroke:#000000;stroke-miterlimit:10;}
	.st16{fill:url(#SVGID_6_);stroke:#000000;stroke-miterlimit:10;}
	.st17{fill:url(#SVGID_7_);stroke:#000000;stroke-width:0.5;stroke-miterlimit:10;}
	.st18{fill:url(#SVGID_8_);stroke:#000000;stroke-width:0.5;stroke-miterlimit:10;}
	.st19{fill:#984C24;stroke:#000000;stroke-miterlimit:10;}
	.st20{fill:#F9F912;}
	.st21{stroke:#31C8C5;stroke-width:0.75;stroke-miterlimit:10;}
	.st22{fill:#723919;}
	.st23{fill:url(#SVGID_9_);stroke:#000000;stroke-miterlimit:10;}
	.st24{fill:url(#SVGID_10_);stroke:#000000;stroke-miterlimit:10;}
	.st25{fill:url(#SVGID_11_);stroke:#000000;stroke-miterlimit:10;}
	.st26{fill:url(#SVGID_12_);stroke:#000000;stroke-width:0.5;stroke-miterlimit:10;}
	.st27{fill:url(#SVGID_13_);stroke:#000000;stroke-width:0.5;stroke-miterlimit:10;}
	.st28{fill:url(#SVGID_14_);stroke:#000000;stroke-miterlimit:10;}
	.st29{stroke:#F9F912;stroke-miterlimit:10;}
	.st30{display:none;fill:#984C24;stroke:#000000;stroke-miterlimit:10;}
	.st31{fill:url(#SVGID_15_);stroke:#000000;stroke-miterlimit:10;}
	.st32{stroke:#984C24;stroke-miterlimit:10;}
	.st33{fill:url(#SVGID_16_);stroke:#000000;stroke-miterlimit:10;}
	.st34{fill:url(#SVGID_17_);stroke:#000000;stroke-miterlimit:10;}
	.st35{fill:url(#SVGID_18_);stroke:#000000;stroke-miterlimit:10;}
	.st36{fill:url(#SVGID_19_);stroke:#000000;stroke-miterlimit:10;}
	.st37{fill:url(#SVGID_20_);stroke:#000000;stroke-miterlimit:10;}
	.st38{fill:url(#SVGID_21_);stroke:#000000;stroke-miterlimit:10;}
	.st39{display:none;fill:url(#SVGID_22_);stroke:#000000;stroke-miterlimit:10;}
	.st40{display:none;fill:url(#SVGID_23_);stroke:#000000;stroke-miterlimit:10;}
	.st41{fill:url(#SVGID_24_);stroke:#000000;stroke-miterlimit:10;}
	.st42{fill:url(#SVGID_25_);stroke:#000000;stroke-miterlimit:10;}
	.st43{fill:url(#SVGID_26_);stroke:#000000;stroke-miterlimit:10;}
	.st44{fill:url(#SVGID_27_);stroke:#000000;stroke-miterlimit:10;}
	.st45{fill:url(#SVGID_28_);stroke:#000000;stroke-miterlimit:10;}
	.st46{fill:url(#SVGID_29_);stroke:#000000;stroke-miterlimit:10;}
	.st47{fill:url(#SVGID_30_);stroke:#000000;stroke-miterlimit:10;}
	.st48{fill:url(#SVGID_31_);stroke:#000000;stroke-miterlimit:10;}
	.st49{fill:url(#SVGID_32_);stroke:#000000;stroke-miterlimit:10;}
	.st50{fill:url(#SVGID_33_);stroke:#000000;stroke-miterlimit:10;}
	.st51{fill:url(#SVGID_34_);stroke:#984C24;stroke-miterlimit:10;}
	.st52{fill:url(#SVGID_35_);stroke:#984C24;stroke-miterlimit:10;}
	.st53{fill:url(#SVGID_36_);stroke:#984C24;stroke-miterlimit:10;}
	.st54{fill:url(#SVGID_37_);stroke:#984C24;stroke-miterlimit:10;}
	.st55{fill:url(#SVGID_38_);stroke:#984C24;stroke-miterlimit:10;}
	.st56{fill:url(#SVGID_39_);stroke:#984C24;stroke-miterlimit:10;}
	.st57{fill:url(#SVGID_40_);stroke:#984C24;stroke-miterlimit:10;}
	.st58{fill:url(#SVGID_41_);stroke:#984C24;stroke-miterlimit:10;}
	.st59{fill:url(#SVGID_42_);stroke:#984C24;stroke-miterlimit:10;}
	.st60{fill:url(#SVGID_43_);stroke:#984C24;stroke-miterlimit:10;}
	.st61{fill:url(#SVGID_44_);stroke:#984C24;stroke-miterlimit:10;}
	.st62{fill:url(#SVGID_45_);stroke:#984C24;stroke-miterlimit:10;}
	.st63{fill:url(#SVGID_46_);stroke:#984C24;stroke-miterlimit:10;}
	.st64{fill:url(#SVGID_47_);stroke:#984C24;stroke-miterlimit:10;}
	.st65{fill:url(#SVGID_48_);stroke:#984C24;stroke-miterlimit:10;}
	.st66{fill:url(#SVGID_49_);stroke:#984C24;stroke-miterlimit:10;}
	.st67{fill:url(#SVGID_50_);stroke:#984C24;stroke-miterlimit:10;}
	.st68{fill:url(#SVGID_51_);stroke:#984C24;stroke-miterlimit:10;}
	.st69{fill:url(#SVGID_52_);stroke:#984C24;stroke-miterlimit:10;}
	.st70{fill:url(#SVGID_53_);stroke:#B60000;stroke-miterlimit:10;}
	.st71{fill:url(#SVGID_54_);stroke:#B60000;stroke-miterlimit:10;}
	.st72{fill:url(#SVGID_55_);stroke:#B60000;stroke-miterlimit:10;}
	.st73{fill:url(#SVGID_56_);stroke:#B60000;stroke-miterlimit:10;}
	.st74{fill:url(#SVGID_57_);stroke:#B60000;stroke-miterlimit:10;}
	.st75{fill:url(#SVGID_58_);stroke:#B60000;stroke-miterlimit:10;}
	.st76{fill:url(#SVGID_59_);stroke:#B60000;stroke-miterlimit:10;}
	.st77{fill:url(#SVGID_60_);stroke:#B60000;stroke-miterlimit:10;}
	.st78{fill:url(#SVGID_61_);stroke:#B60000;stroke-miterlimit:10;}
	.st79{fill:url(#SVGID_62_);stroke:#B60000;stroke-miterlimit:10;}
	.st80{fill:url(#SVGID_63_);stroke:#B60000;stroke-miterlimit:10;}
	.st81{fill:url(#SVGID_64_);stroke:#B60000;stroke-miterlimit:10;}
	.st82{fill:url(#SVGID_65_);stroke:#B60000;stroke-miterlimit:10;}
	.st83{fill:url(#SVGID_66_);stroke:#B60000;stroke-miterlimit:10;}
	.st84{fill:url(#SVGID_67_);stroke:#B60000;stroke-miterlimit:10;}
	.st85{fill:url(#SVGID_68_);stroke:#B60000;stroke-miterlimit:10;}
	.st86{fill:url(#SVGID_69_);stroke:#B60000;stroke-miterlimit:10;}
	.st87{fill:url(#SVGID_70_);stroke:#B60000;stroke-miterlimit:10;}
	.st88{fill:url(#SVGID_71_);stroke:#B60000;stroke-miterlimit:10;}
	.st89{fill:url(#SVGID_72_);stroke:#B60000;stroke-miterlimit:10;}
	.st90{fill:url(#SVGID_73_);stroke:#B60000;stroke-miterlimit:10;}
	.st91{fill:url(#SVGID_74_);stroke:#B60000;stroke-miterlimit:10;}
	.st92{fill:url(#SVGID_75_);stroke:#B60000;stroke-miterlimit:10;}
	.st93{fill:url(#SVGID_76_);stroke:#B60000;stroke-miterlimit:10;}
	.st94{fill:url(#SVGID_77_);stroke:#B60000;stroke-miterlimit:10;}
	.st95{fill:url(#SVGID_78_);stroke:#B60000;stroke-miterlimit:10;}
	.st96{fill:url(#SVGID_79_);stroke:#B60000;stroke-miterlimit:10;}
	.st97{fill:url(#SVGID_80_);stroke:#B60000;stroke-miterlimit:10;}
	.st98{fill:url(#SVGID_81_);stroke:#B60000;stroke-miterlimit:10;}
	.st99{fill:url(#SVGID_82_);stroke:#B60000;stroke-miterlimit:10;}
	.st100{fill:url(#SVGID_83_);stroke:#B60000;stroke-miterlimit:10;}
	.st101{fill:url(#SVGID_84_);stroke:#B60000;stroke-miterlimit:10;}
	.st102{fill:url(#SVGID_85_);stroke:#B60000;stroke-miterlimit:10;}
	.st103{fill:url(#SVGID_86_);stroke:#B60000;stroke-miterlimit:10;}
	.st104{fill:url(#SVGID_87_);stroke:#B60000;stroke-miterlimit:10;}
	.st105{fill:url(#SVGID_88_);stroke:#000000;stroke-miterlimit:10;}
	.st106{fill:url(#SVGID_89_);stroke:#000000;stroke-miterlimit:10;}
	.st107{fill:url(#SVGID_90_);stroke:#000000;stroke-miterlimit:10;}
	.st108{fill:url(#SVGID_91_);stroke:#000000;stroke-miterlimit:10;}
	.st109{fill:url(#SVGID_92_);stroke:#000000;stroke-miterlimit:10;}
	.st110{fill:url(#SVGID_93_);stroke:#000000;stroke-miterlimit:10;}
	.st111{fill:url(#SVGID_94_);stroke:#000000;stroke-miterlimit:10;}
	.st112{fill:url(#SVGID_95_);stroke:#000000;stroke-miterlimit:10;}
	.st113{fill:url(#SVGID_96_);stroke:#000000;stroke-miterlimit:10;}
	.st114{fill:url(#SVGID_97_);stroke:#000000;stroke-miterlimit:10;}
	.st115{fill:url(#SVGID_98_);stroke:#000000;stroke-miterlimit:10;}
	.st116{fill:url(#SVGID_99_);stroke:#000000;stroke-miterlimit:10;}
	.st117{fill:url(#SVGID_100_);stroke:#000000;stroke-miterlimit:10;}
	.st118{fill:url(#SVGID_101_);stroke:#000000;stroke-miterlimit:10;}
	.st119{fill:url(#SVGID_102_);stroke:#000000;stroke-miterlimit:10;}
	.st120{fill:url(#SVGID_103_);stroke:#000000;stroke-miterlimit:10;}
	.st121{fill:url(#SVGID_104_);stroke:#000000;stroke-miterlimit:10;}
	.st122{fill:url(#SVGID_105_);stroke:#000000;stroke-miterlimit:10;}
	.st123{fill:url(#SVGID_106_);stroke:#000000;stroke-miterlimit:10;}
	.st124{fill:url(#SVGID_107_);stroke:#000000;stroke-miterlimit:10;}
	.st125{stroke:#31C8C5;stroke-width:2;stroke-miterlimit:10;}
	.st126{fill:url(#SVGID_108_);}
	.st127{fill:#F9F912;stroke:#984C24;stroke-width:2;stroke-miterlimit:10;}
</style>
<g id="Слой_1">
</g>
<g id="Слой_2">
</g>
<g id="Слой_3">
</g>
<g id="Слой_4">
</g>
<g id="Слой_5">
</g>
<g id="Слой_6">
</g>
<g id="Слой_7">
</g>
<g id="Слой_8">
</g>
<g id="Слой_9">
	
		<radialGradient id="SVGID_1_" cx="128.8216" cy="68.4099" r="52.8723" gradientTransform="matrix(0.7094 0 0 0.7648 -19.4504 10.5952)" gradientUnits="userSpaceOnUse">
		<stop  offset="0.0186" style="stop-color:#B60000"/>
		<stop  offset="0.6062" style="stop-color:#677675"/>
		<stop  offset="1" style="stop-color:#31C8C5"/>
	</radialGradient>
	<path style="fill:url(#SVGID_1_);stroke:#B60000;stroke-miterlimit:10;" d="M96.38,68.76c4.13,1.83,12.21,13.02,7.16,10.97
		c-4.24-1.73-8.96-4.82-9.96-1.6c-1.05,3.39,7.33,15.36,4.29,15.8c-4.39,0.64-8.33-10.2-11.33-9.2c-1.76,0.59-0.93,8.77-2.86,8.34
		c-5.92-1.31-6.19-9.28-10.14-6.34c-4.03,3-6.26,13.02-7.69,11.87c-3.08-2.5-0.77-16.05-10.31-12.87c-3,1-12,15.47-12,10
		c0-8,8-16,3-17c-5.66-1.13-19.94,10.08-8.68-4.51c6.44-8.34,13.75-10.53,4.6-12.27c-9.18-1.75-15.88-9.19,1.56-8.48
		c6.52,0.27,9.16-3.22,7.37-6.23c-6.85-11.51-9.85-23.51,3.78-8.59c4.37,4.78,6.5,7.86,8.13,8.06c2.25,0.28,2.55-21.06,6.19-14.59
		c1.33,2.37,2.61,11.81,5.42,12.26c2.22,0.35,7.72-13.21,9.81-8.69c1.99,4.31,2.33,7.54,3.81,8.03c3,1,11-9,9,0
		c-0.78,3.52-1,9,0.69,7.65c6.07-4.86,6.36-0.74,11.31-2.65c13-5,10,4,2,3c-4.24-0.53-4.67,1.68-10.28,3.65
		C94.55,57.74,89.55,65.74,96.38,68.76z"/>
	<g>
		
			<linearGradient id="SVGID_2_" gradientUnits="userSpaceOnUse" x1="221.6151" y1="52.4129" x2="237.7841" y2="52.4129" gradientTransform="matrix(0.8314 -0.3009 -0.0313 0.8141 -165.6174 126.4765)">
			<stop  offset="0" style="stop-color:#B60000"/>
			<stop  offset="0.0464" style="stop-color:#AF0A0A"/>
			<stop  offset="0.5182" style="stop-color:#6C706E"/>
			<stop  offset="0.8459" style="stop-color:#41AFAD"/>
			<stop  offset="1" style="stop-color:#31C8C5"/>
		</linearGradient>
		<path style="fill:url(#SVGID_2_);stroke:#B60000;stroke-miterlimit:10;" d="M20.29,97.15c-5.78,4.01-3.16,13.42,1.17,8.9
			c4.16-4.34,5.32-9.4,9.11-13.97C31.61,90.83,22.09,95.9,20.29,97.15z"/>
		
			<linearGradient id="SVGID_3_" gradientUnits="userSpaceOnUse" x1="177.2684" y1="139.2169" x2="190.4937" y2="139.2169" gradientTransform="matrix(0.8677 -0.0138 -0.0138 0.8356 -54.7706 -4.8752)">
			<stop  offset="0" style="stop-color:#B60000"/>
			<stop  offset="0.0464" style="stop-color:#AF0A0A"/>
			<stop  offset="0.5182" style="stop-color:#6C706E"/>
			<stop  offset="0.8459" style="stop-color:#41AFAD"/>
			<stop  offset="1" style="stop-color:#31C8C5"/>
		</linearGradient>
		<path style="fill:url(#SVGID_3_);stroke:#B60000;stroke-miterlimit:10;" d="M98.4,110.32c0.39,6.88,11.76,8.05,9.91,2.32
			c-1.77-5.51-11-12.24-11.07-10.86C97.16,103.36,98.28,108.18,98.4,110.32z"/>
		<linearGradient id="SVGID_4_" gradientUnits="userSpaceOnUse" x1="75.5868" y1="103.211" x2="86.071" y2="103.211">
			<stop  offset="0" style="stop-color:#B60000"/>
			<stop  offset="0.0464" style="stop-color:#AF0A0A"/>
			<stop  offset="0.5182" style="stop-color:#6C706E"/>
			<stop  offset="0.8459" style="stop-color:#41AFAD"/>
			<stop  offset="1" style="stop-color:#31C8C5"/>
		</linearGradient>
		<path style="fill:url(#SVGID_4_);stroke:#B60000;stroke-miterlimit:10;" d="M75.86,103.43c-2.25,5.79,10.03,9.85,10.21,4.61
			c0.17-5.03-7.55-13.09-8.17-11.97C77.19,97.34,76.56,101.63,75.86,103.43z"/>
		
			<linearGradient id="SVGID_5_" gradientUnits="userSpaceOnUse" x1="283.8229" y1="-11.519" x2="298.5571" y2="-11.519" gradientTransform="matrix(0.6847 0.3336 -0.337 0.6826 -89.5991 -61.2451)">
			<stop  offset="0" style="stop-color:#B60000"/>
			<stop  offset="0.0464" style="stop-color:#AF0A0A"/>
			<stop  offset="0.5182" style="stop-color:#6C706E"/>
			<stop  offset="0.8459" style="stop-color:#41AFAD"/>
			<stop  offset="1" style="stop-color:#31C8C5"/>
		</linearGradient>
		<path style="fill:url(#SVGID_5_);stroke:#B60000;stroke-miterlimit:10;" d="M113.51,29.75c6.88,0.07,10.53-5.68,4.19-7.58
			c-7.31-2.19-13.02,10.17-11.68,10.11C108.02,32.19,111.37,29.73,113.51,29.75z"/>
		
			<linearGradient id="SVGID_6_" gradientUnits="userSpaceOnUse" x1="100.0846" y1="55.7037" x2="115.8854" y2="55.7037" gradientTransform="matrix(0.7583 0.0693 -0.1208 0.9549 -44.8131 -18.0975)">
			<stop  offset="0" style="stop-color:#B60000"/>
			<stop  offset="0.0464" style="stop-color:#AF0A0A"/>
			<stop  offset="0.5182" style="stop-color:#6C706E"/>
			<stop  offset="0.8459" style="stop-color:#41AFAD"/>
			<stop  offset="1" style="stop-color:#31C8C5"/>
		</linearGradient>
		<path style="fill:url(#SVGID_6_);stroke:#B60000;stroke-miterlimit:10;" d="M28.86,45.78c-1.36,0.51-6.55-2.55-3.67-5.25
			c5.62-5.25,12.25,4.68,10.56,5.51C34.06,46.87,31.5,44.8,28.86,45.78z"/>
		
			<linearGradient id="SVGID_7_" gradientUnits="userSpaceOnUse" x1="-1360.8958" y1="-105.6926" x2="-1345.2096" y2="-105.6926" gradientTransform="matrix(-1.0239 -0.3097 -0.2297 0.94 -1376.7279 -302.3132)">
			<stop  offset="0" style="stop-color:#B60000"/>
			<stop  offset="0.0464" style="stop-color:#AF0A0A"/>
			<stop  offset="0.5182" style="stop-color:#6C706E"/>
			<stop  offset="0.8459" style="stop-color:#41AFAD"/>
			<stop  offset="1" style="stop-color:#31C8C5"/>
		</linearGradient>
		<path style="fill:url(#SVGID_7_);stroke:#B60000;stroke-miterlimit:10;" d="M30.06,19.98c-1.97-0.36-7.43-4.17-4.07-6.85
			c8.42-6.71,15.99,11.45,13.51,11.18S33.87,20.68,30.06,19.98z"/>
		
			<linearGradient id="SVGID_8_" gradientUnits="userSpaceOnUse" x1="227.2001" y1="443.253" x2="238.2642" y2="443.253" gradientTransform="matrix(0.8174 -0.1423 -0.0612 0.6339 -37.1346 -243.2577)">
			<stop  offset="0" style="stop-color:#B60000"/>
			<stop  offset="0.0464" style="stop-color:#AF0A0A"/>
			<stop  offset="0.5182" style="stop-color:#6C706E"/>
			<stop  offset="0.8459" style="stop-color:#41AFAD"/>
			<stop  offset="1" style="stop-color:#31C8C5"/>
		</linearGradient>
		<path style="fill:url(#SVGID_8_);stroke:#B60000;stroke-miterlimit:10;" d="M127.21,5.85c1.16-0.2,4.6-2.18,2.89-3.54
			c-4.29-3.39-10.09,5.97-8.65,5.82C122.89,7.98,124.97,6.23,127.21,5.85z"/>
		
			<linearGradient id="SVGID_9_" gradientUnits="userSpaceOnUse" x1="30.8041" y1="-227.8946" x2="41.7993" y2="-227.8946" gradientTransform="matrix(0.7683 0.6401 -0.6401 0.7683 -115.0183 157.8592)">
			<stop  offset="0" style="stop-color:#B60000"/>
			<stop  offset="0.0464" style="stop-color:#AF0A0A"/>
			<stop  offset="0.5182" style="stop-color:#6C706E"/>
			<stop  offset="0.8459" style="stop-color:#41AFAD"/>
			<stop  offset="1" style="stop-color:#31C8C5"/>
		</linearGradient>
		<path style="fill:url(#SVGID_9_);stroke:#B60000;stroke-miterlimit:10;" d="M55.87,6.79c-1.11-0.9-2.7-5.24,0.91-5.83
			c9.05-1.49,4.51,12.88,3.03,11.86C58.32,11.79,58.02,8.54,55.87,6.79z"/>
		
			<linearGradient id="SVGID_10_" gradientUnits="userSpaceOnUse" x1="397.5892" y1="47.5231" x2="411.5677" y2="47.5231" gradientTransform="matrix(0.6079 0.0523 -0.0282 0.5701 -193.6482 65.4231)">
			<stop  offset="0" style="stop-color:#B60000"/>
			<stop  offset="0.0464" style="stop-color:#AF0A0A"/>
			<stop  offset="0.5182" style="stop-color:#6C706E"/>
			<stop  offset="0.8459" style="stop-color:#41AFAD"/>
			<stop  offset="1" style="stop-color:#31C8C5"/>
		</linearGradient>
		<path style="fill:url(#SVGID_10_);stroke:#B60000;stroke-miterlimit:10;" d="M53.14,117.99c-0.41,1.19-6.19,2.58-6.54,0.04
			c-0.61-4.41,3.6-7.12,6.01-9C58.13,104.72,54.05,115.36,53.14,117.99z"/>
		<linearGradient id="SVGID_11_" gradientUnits="userSpaceOnUse" x1="124.7858" y1="45.8566" x2="138.8886" y2="45.8566">
			<stop  offset="0" style="stop-color:#B60000"/>
			<stop  offset="0.0464" style="stop-color:#AF0A0A"/>
			<stop  offset="0.5182" style="stop-color:#6C706E"/>
			<stop  offset="0.8459" style="stop-color:#41AFAD"/>
			<stop  offset="1" style="stop-color:#31C8C5"/>
		</linearGradient>
		<path style="fill:url(#SVGID_11_);stroke:#B60000;stroke-miterlimit:10;" d="M125.42,47.02c2.88-1.37,5.65-5.38,10.55-3.8
			s2.83,5.94-0.38,5.63C132.39,48.53,122.15,48.57,125.42,47.02z"/>
		
			<linearGradient id="SVGID_12_" gradientUnits="userSpaceOnUse" x1="251.4125" y1="30.8852" x2="264.9973" y2="30.8852" gradientTransform="matrix(0.7094 -0.0892 0.0657 0.7108 -179.28 63.077)">
			<stop  offset="0" style="stop-color:#B60000"/>
			<stop  offset="0.0464" style="stop-color:#AF0A0A"/>
			<stop  offset="0.5182" style="stop-color:#6C706E"/>
			<stop  offset="0.8459" style="stop-color:#41AFAD"/>
			<stop  offset="1" style="stop-color:#31C8C5"/>
		</linearGradient>
		<path style="fill:url(#SVGID_12_);stroke:#B60000;stroke-miterlimit:10;" d="M10.06,60.59c-2.31-0.14-5.55-2.04-8.01,0.29
			s0.47,4.66,2.36,3.6S12.68,60.74,10.06,60.59z"/>
		
			<linearGradient id="SVGID_13_" gradientUnits="userSpaceOnUse" x1="194.8857" y1="53.0511" x2="205.8276" y2="53.0511" gradientTransform="matrix(0.859 0.077 -0.2628 0.8541 -77.0024 -38.713)">
			<stop  offset="0" style="stop-color:#B60000"/>
			<stop  offset="0.0464" style="stop-color:#AF0A0A"/>
			<stop  offset="0.5182" style="stop-color:#6C706E"/>
			<stop  offset="0.8459" style="stop-color:#41AFAD"/>
			<stop  offset="1" style="stop-color:#31C8C5"/>
		</linearGradient>
		<path style="fill:url(#SVGID_13_);stroke:#B60000;stroke-miterlimit:10;" d="M86.14,19.89c-1.96,3-9.23,13.16-8.51,7.93
			c0.56-4.09-2.18-5.25-0.39-8.24C79.66,15.52,91.71,11.36,86.14,19.89z"/>
		
			<linearGradient id="SVGID_14_" gradientUnits="userSpaceOnUse" x1="115.4811" y1="-51.289" x2="133.3951" y2="-51.289" gradientTransform="matrix(0.9864 0.1646 -0.1646 0.9864 -18.8003 97.5046)">
			<stop  offset="0" style="stop-color:#B60000"/>
			<stop  offset="0.0464" style="stop-color:#AF0A0A"/>
			<stop  offset="0.5182" style="stop-color:#6C706E"/>
			<stop  offset="0.8459" style="stop-color:#41AFAD"/>
			<stop  offset="1" style="stop-color:#31C8C5"/>
		</linearGradient>
		<path style="fill:url(#SVGID_14_);stroke:#B60000;stroke-miterlimit:10;" d="M104.51,64.66c3.95-1.81,9.27-4.09,14.39,1.42
			c4.63,4.98,0.47,8.49-3.19,6.35C112.05,70.28,100.29,66.59,104.51,64.66z"/>
		
			<linearGradient id="SVGID_15_" gradientUnits="userSpaceOnUse" x1="-994.6006" y1="-246.4311" x2="-982.8945" y2="-246.4311" gradientTransform="matrix(-0.9537 -0.3009 -0.3009 0.9537 -994.0335 8.7067)">
			<stop  offset="0" style="stop-color:#B60000"/>
			<stop  offset="0.0464" style="stop-color:#AF0A0A"/>
			<stop  offset="0.5182" style="stop-color:#6C706E"/>
			<stop  offset="0.8459" style="stop-color:#41AFAD"/>
			<stop  offset="1" style="stop-color:#31C8C5"/>
		</linearGradient>
		<path style="fill:url(#SVGID_15_);stroke:#B60000;stroke-miterlimit:10;" d="M29.09,67.61c-4.25-0.72-10.72,0.58-11.72,2.5
			c-2.35,4.48,1.92,6.73,4.42,4.69C24.28,72.76,32.97,68.27,29.09,67.61z"/>
		
			<linearGradient id="SVGID_16_" gradientUnits="userSpaceOnUse" x1="162.4339" y1="72.8657" x2="181.7053" y2="72.8657" gradientTransform="matrix(0.9302 0.1282 -0.0726 0.5032 -30.2138 39.3647)">
			<stop  offset="0" style="stop-color:#B60000"/>
			<stop  offset="0.0464" style="stop-color:#AF0A0A"/>
			<stop  offset="0.5182" style="stop-color:#6C706E"/>
			<stop  offset="0.8459" style="stop-color:#41AFAD"/>
			<stop  offset="1" style="stop-color:#31C8C5"/>
		</linearGradient>
		<path style="fill:url(#SVGID_16_);stroke:#B60000;stroke-miterlimit:10;" d="M132.73,103.49c0.1,1.05,0.49,3.07-3.59-0.26
			c-2.2-1.8-7.62-1.11-7.17-3.02c0.6-2.57-2.3-2.72-2.63-3.94c-0.52-1.89-6.28-7.64-0.1-4.04c4.84,2.81,6.78,2.96,9,5.54
			C129.63,99.39,132.53,101.36,132.73,103.49z"/>
	</g>
</g>
<g id="Слой_10">
</g>
<g id="Слой_11">
</g>
</svg>
