<svg xmlns="http://www.w3.org/2000/svg" xmlns:xlink="http://www.w3.org/1999/xlink" viewBox="0 0 95 115"><defs><style>.cls-1,.cls-5{stroke:#31c8c5;}.cls-1,.cls-11,.cls-2,.cls-3,.cls-4,.cls-5,.cls-6,.cls-7,.cls-8,.cls-9{stroke-miterlimit:10;}.cls-11,.cls-2,.cls-3,.cls-4,.cls-6,.cls-8,.cls-9{stroke:#000;}.cls-2{fill:url(#Безымянный_градиент_5);}.cls-3{fill:#31c8c5;}.cls-10,.cls-4,.cls-7{fill:#984c24;}.cls-5{fill:url(#Безымянный_градиент_21);}.cls-6{fill:url(#Безымянный_градиент_8);}.cls-7{stroke:gray;}.cls-8{fill:url(#Безымянный_градиент_12);}.cls-9{fill:url(#Безымянный_градиент_28);}.cls-11{fill:#f9f912;stroke-width:2px;}</style><linearGradient id="Безымянный_градиент_5" x1="-5.68" y1="36.18" x2="40.03" y2="36.18" gradientTransform="matrix(-0.45, -0.97, 0.94, -0.38, 15.5, 61.61)" gradientUnits="userSpaceOnUse"><stop offset="0"/><stop offset="0.03" stop-color="#090909"/><stop offset="0.14" stop-color="#2a2a2a"/><stop offset="0.27" stop-color="#454545"/><stop offset="0.4" stop-color="#5a5a5a"/><stop offset="0.56" stop-color="#696969"/><stop offset="0.73" stop-color="#727272"/><stop offset="1" stop-color="#757575"/></linearGradient><radialGradient id="Безымянный_градиент_21" cx="52.43" cy="80.9" fy="88.91073487995662" r="51.19" gradientTransform="translate(5.71 62.14) scale(0.92 0.21)" gradientUnits="userSpaceOnUse"><stop offset="0" stop-color="#757575"/><stop offset="0.31" stop-color="#4d4d4d"/><stop offset="0.77" stop-color="#161616"/><stop offset="1"/></radialGradient><radialGradient id="Безымянный_градиент_8" cx="56.38" cy="56.05" r="33.19" gradientTransform="matrix(0.19, -0.95, 1.25, 0.28, -23.24, 92.65)" gradientUnits="userSpaceOnUse"><stop offset="0"/><stop offset="0.15" stop-color="#090909"/><stop offset="0.4" stop-color="#222"/><stop offset="0.71" stop-color="#4a4a4a"/><stop offset="1" stop-color="#757575"/></radialGradient><linearGradient id="Безымянный_градиент_12" x1="-1.32" y1="20.22" x2="38.16" y2="20.22" gradientTransform="matrix(-0.79, -0.71, 0.72, -0.71, 35.55, 73.68)" xlink:href="#Безымянный_градиент_5"/><radialGradient id="Безымянный_градиент_28" cx="66.44" cy="12.34" r="15.93" gradientTransform="translate(4.8 11.05) rotate(-6.15) scale(0.92)" gradientUnits="userSpaceOnUse"><stop offset="0" stop-color="#757575"/><stop offset="0.15" stop-color="#6d6d6d"/><stop offset="0.39" stop-color="#565656"/><stop offset="0.68" stop-color="#303030"/><stop offset="1"/></radialGradient></defs><title>враги2 атака</title><g id="Слой_16" data-name="Слой 16"><path class="cls-1" d="M78.29,73.65c4.59-.46,17.57-1.06,15.65,9.43-.72,3.92-.51,18.18-1.46,19.84-6.49.49.84-21.16-3.28-21.89C70.46,77.69,71.22,74.35,78.29,73.65Z"/><path class="cls-1" d="M33.9,80.09C29,77.8,14.49,69.87,13.19,80.58c-.49,4-2.24,20.83-1.74,22.78C20,104.59,13.28,78.07,19,80.55,26.51,83.77,41.39,83.62,33.9,80.09Z"/><path class="cls-1" d="M68.29,78c6-.64,22.61-.67,19.91,9.92-1,4,1.58,24.46.3,26.16-7.91-1.73-1-28.38-6.51-28C54.19,87.84,59,79,68.29,78Z"/><path class="cls-1" d="M34.53,80.79c-3.41,1.36-12.87-2.16-12.84,8.34,0,3.93-2.73,23.36-2.24,25.06,7.41,1.17,3.88-27.45,6-26.79C40.17,92,49,75,34.53,80.79Z"/><path class="cls-2" d="M37.77,51.44c.65,3.35,11.14-.07,14.86.23,6.54.53,9.09-2.61,9.34-5.81-11.85-6.2-19.57,3.83-20.19.49C38.22,27,39,16.25,33.05,9.56,27.78,3.62,36,42.14,37.77,51.44Z"/><path class="cls-3" d="M23.61,9.69s-8.27,6.3-9.09,9.07-.79,1.16,5.24-1.64,9.18-.63,11.59-2.9,3.77-3.92.22-4.14S23.61,9.69,23.61,9.69Z"/><path class="cls-4" d="M34,8.44S28.57,1.78,16.9,7.34,6.27,18.05,6.27,18.05,19,10.83,24.46,12.93C29.57,14.88,39.48,15.46,34,8.44Z"/><path class="cls-5" d="M21.85,77.65C21.85,83.58,35.91,91,53.54,91S85.7,83.58,85.7,77.65,71.41,66.92,53.78,66.92,21.85,71.72,21.85,77.65Z"/><path class="cls-6" d="M31,70.16S26.91,61,41.43,55.47c6.21-2.37,5.39-6.95,12.64-13.28,5.85-5.1-3.45-2.51,1.23-10.65,3.07-5.35,8.92-6.32,17.47-6.24,5.53.05-4.73,10.85-3,14.89,1.43,3.41,5.76,6.79,5,12.21-1.06,7.77,15.15,14.42,4.48,20C59,83,32.69,76.6,31,70.16Z"/><path class="cls-7" d="M82.88,69.39c-4.82,1.78-18.93,8.68-29.1,8.68-11.19,0-14.58-6.19-22.77-9.34-2.43.9-5,1.55-5,2.67,0,3.33,12.4,10.3,27.71,10.3s27.7-6.86,30.76-8.17S85.36,70.31,82.88,69.39Z"/><path class="cls-4" d="M75.22,54c-1.31-1.27-10.57,6.77-17.29,6.77-7.39,0-11.42-5-14.31-7.1-1.43-.35-6.11,1.38-3.71,3.45s5.24,6.78,15.36,6.78,18.74-4.37,21-6.76C77.65,55.74,76.38,55.16,75.22,54Z"/><path class="cls-7" d="M69.82,38.59c-.27-.71-2,1.51-5.67,2.24-3.45.69-7.51-.9-8.88-1.72a13,13,0,0,0-3.4,1.65c-3.41,2.18,5.25,3.55,7.68,3.57,2.61,0,10.66-.55,12-2.93C71.93,40.72,70.08,39.26,69.82,38.59Z"/><path class="cls-4" d="M73.86,30.07c-.27-2-1.38,0-6.51.93a14.84,14.84,0,0,1-10.07-1.51c-2.42-.22-4,1.51-1.77,2.69a42,42,0,0,0,8.23,1.75c2.81.19,7-.38,9.26-1.74A2.43,2.43,0,0,0,73.86,30.07Z"/><path class="cls-8" d="M40,67.46c3,2.65,9.76-6.24,12.19-9.07,4.17-4.84,6.1-6.89,5.09-10C49,43.93,42.1,63.8,40.48,60.93c-9.72-17.23-10-26.42-18.07-30.28C15.25,27.22,36.09,64,40,67.46Z"/><path class="cls-3" d="M14.37,37.54s-2.65,10.05-1.58,12.74.09,1.4,3.11-4.52,5.38-5.65,7-8.2c1.83-2.77.87-6.62-2.07-4.62S14.37,37.54,14.37,37.54Z"/><path class="cls-4" d="M21.8,30.15S12.93,28,7.63,39.81C2.46,51.29,5.49,52.7,5.49,52.7S11.39,41.3,17,39.57C22.26,38,30.43,32.31,21.8,30.15Z"/><path class="cls-9" d="M52,18.2c-.8-7.39,3.59-15.76,11.71-16.64S80.5,7.22,81.3,14.61,74.88,30.42,64.88,30.35C56.72,30.29,52.76,25.59,52,18.2Z"/><path class="cls-10" d="M58.68,1.29a15.2,15.2,0,0,1,7.08,5.05A13.76,13.76,0,0,1,68.82,15,14.41,14.41,0,0,1,68,19.65a16.59,16.59,0,0,1-2.15,4,18.76,18.76,0,0,1-6.57,5.63,78.74,78.74,0,0,0,3.85-7.21,22.73,22.73,0,0,0,1.24-3.55A15.34,15.34,0,0,0,64.83,15a15.22,15.22,0,0,0-1.71-7A36,36,0,0,0,58.68,1.29Z"/><path class="cls-11" d="M51,15.72c.21,7.19,4.66,13.06,6.4,13,3-.14,6.3-6.29,6.09-13.48s-4-13.83-6.17-13C53.71,3.7,50.83,8.54,51,15.72Z"/><path d="M56.68,24a13.82,13.82,0,0,1-2-4.54,19.14,19.14,0,0,1-.56-4.55,18.57,18.57,0,0,1,.51-4.55,13.57,13.57,0,0,1,1.94-4.56,13.55,13.55,0,0,1,2,4.54,19.07,19.07,0,0,1,.55,4.55,19.13,19.13,0,0,1-.51,4.55A13.78,13.78,0,0,1,56.68,24Z"/><path class="cls-3" d="M73,28.22C80.57,20.93,75.78,21,75.78,21s3.43-3.86,3.37-4.78c-.07-1.21-3.73-1.81-3.73-1.81s4.2-3.2,3.39-4.43c-.59-.91-6.2-.63-6.2-.63s2.83-1.9,2.18-3.68c-.51-1.39-6.45-.56-7.73-.6,0,0,2-1.48-.44-2.18-2.84-.8-8.13-1.52-7.74-1.6C66.6-.47,84.89,2.12,87,11.63,87.72,14.83,85.91,21.82,73,28.22Z"/><path class="cls-4" d="M83.2,6.06s7.28,4.93,3,11.14c-4,5.9.5-.34-1.53-5.42C82.53,6.34,81.26,5,83.2,6.06Z"/></g></svg>