<?xml version="1.0" encoding="utf-8"?>
<!-- Generator: Adobe Illustrator 24.0.2, SVG Export Plug-In . SVG Version: 6.00 Build 0)  -->
<svg version="1.1" id="Layer_1" xmlns="http://www.w3.org/2000/svg" xmlns:xlink="http://www.w3.org/1999/xlink" x="0px" y="0px"
	 width="100px" height="100px" viewBox="0 0 100 100" style="enable-background:new 0 0 100 100;" xml:space="preserve">
<style type="text/css">
	.st0{fill-rule:evenodd;clip-rule:evenodd;fill:#6D6D73;stroke:#000000;stroke-width:0.75;stroke-miterlimit:10;}
	.st1{fill-rule:evenodd;clip-rule:evenodd;fill:url(#SVGID_1_);}
	.st2{fill-rule:evenodd;clip-rule:evenodd;fill:#00F2FF;stroke:#000000;stroke-width:0.5;stroke-miterlimit:10;}
	.st3{fill-rule:evenodd;clip-rule:evenodd;fill:none;stroke:#FF7C4D;stroke-miterlimit:10;}
	.st4{clip-path:url(#SVGID_3_);}
	.st5{fill:#121212;}
	.st6{fill-rule:evenodd;clip-rule:evenodd;fill:#F7931E;}
	.st7{fill-rule:evenodd;clip-rule:evenodd;fill:#00FFFF;stroke:#000000;stroke-width:0.75;stroke-miterlimit:10;}
	.st8{fill-rule:evenodd;clip-rule:evenodd;}
	.st9{fill-rule:evenodd;clip-rule:evenodd;fill:url(#SVGID_4_);}
	.st10{fill-rule:evenodd;clip-rule:evenodd;fill:url(#SVGID_5_);}
	.st11{fill-rule:evenodd;clip-rule:evenodd;fill:url(#SVGID_6_);}
	.st12{fill-rule:evenodd;clip-rule:evenodd;fill:url(#SVGID_7_);}
	.st13{fill-rule:evenodd;clip-rule:evenodd;fill:url(#SVGID_8_);}
	.st14{fill-rule:evenodd;clip-rule:evenodd;fill:url(#SVGID_9_);}
	.st15{fill-rule:evenodd;clip-rule:evenodd;fill:url(#SVGID_10_);}
	.st16{fill-rule:evenodd;clip-rule:evenodd;fill:url(#SVGID_11_);}
	.st17{fill-rule:evenodd;clip-rule:evenodd;fill:url(#SVGID_12_);}
	.st18{fill-rule:evenodd;clip-rule:evenodd;fill:#CCCCCC;stroke:#000000;stroke-width:0.25;stroke-miterlimit:10;}
	.st19{fill-rule:evenodd;clip-rule:evenodd;fill:#CCCCCC;stroke:#000000;stroke-width:0.75;stroke-miterlimit:10;}
</style>
<path class="st0" d="M64.4,67.4H34.6c-2.3,0-4.1-1.8-4.1-4.1V37.7c0-2.3,1.8-4.1,4.1-4.1h29.9c2.3,0,4.1,1.8,4.1,4.1v25.7
	C68.5,65.6,66.7,67.4,64.4,67.4z"/>
<radialGradient id="SVGID_1_" cx="49.75" cy="50.5" r="11.25" gradientUnits="userSpaceOnUse">
	<stop  offset="6.713014e-07" style="stop-color:#00F2FF"/>
	<stop  offset="1" style="stop-color:#00FFE0;stop-opacity:0"/>
</radialGradient>
<circle class="st1" cx="49.8" cy="50.5" r="11.3"/>
<circle class="st2" cx="49.5" cy="50.5" r="9"/>
<g>
	<defs>
		<path id="SVGID_2_" d="M65.9,67H35.1c-2.3,0-4.1-1.8-4.1-4.1V38.1c0-2.3,1.8-4.1,4.1-4.1h30.9c2.3,0,4.1,1.8,4.1,4.1v24.9
			C70,65.2,68.2,67,65.9,67z"/>
	</defs>
	<clipPath id="SVGID_3_">
		<use xlink:href="#SVGID_2_"  style="overflow:visible;"/>
	</clipPath>
	<g class="st4">
		<polygon class="st5" points="31.4,33.6 30.6,34.4 37.5,41.2 37.5,67.4 38.5,67.4 38.5,40.8 		"/>
		<polygon class="st5" points="27.4,36.6 34,43.2 34,69 37,69 37,42 29.6,34.5 		"/>
	</g>
</g>
<polygon class="st6" points="54,66 57,66 58.2,62 55,62 "/>
<polygon class="st6" points="58,66 61,66 62.2,62 59,62 "/>
<polygon class="st6" points="62,66 65,66 66.2,62 63,62 "/>
<rect x="68.5" y="45.5" class="st7" width="18" height="11"/>
<rect x="70" y="53" class="st8" width="1" height="3"/>
<rect x="73" y="53" class="st8" width="1" height="3"/>
<rect x="76" y="53" class="st8" width="1" height="3"/>
<rect x="79" y="53" class="st8" width="1" height="3"/>
<rect x="82" y="53" class="st8" width="1" height="3"/>
<rect x="85" y="53" class="st8" width="1" height="3"/>
<radialGradient id="SVGID_4_" cx="72" cy="52" r="1" gradientUnits="userSpaceOnUse">
	<stop  offset="6.766293e-07" style="stop-color:#0071BC;stop-opacity:0"/>
	<stop  offset="0.38" style="stop-color:#62A8D6;stop-opacity:0.19"/>
	<stop  offset="1" style="stop-color:#FFFFFF;stop-opacity:0.5"/>
</radialGradient>
<circle class="st9" cx="72" cy="52" r="1"/>
<radialGradient id="SVGID_5_" cx="76" cy="48" r="1" gradientUnits="userSpaceOnUse">
	<stop  offset="6.766293e-07" style="stop-color:#0071BC;stop-opacity:0"/>
	<stop  offset="0.38" style="stop-color:#62A8D6;stop-opacity:0.19"/>
	<stop  offset="1" style="stop-color:#FFFFFF;stop-opacity:0.5"/>
</radialGradient>
<circle class="st10" cx="76" cy="48" r="1"/>
<radialGradient id="SVGID_6_" cx="76" cy="51" r="1" gradientUnits="userSpaceOnUse">
	<stop  offset="6.766293e-07" style="stop-color:#0071BC;stop-opacity:0"/>
	<stop  offset="0.38" style="stop-color:#62A8D6;stop-opacity:0.19"/>
	<stop  offset="1" style="stop-color:#FFFFFF;stop-opacity:0.5"/>
</radialGradient>
<circle class="st11" cx="76" cy="51" r="1"/>
<radialGradient id="SVGID_7_" cx="72" cy="48" r="1" gradientUnits="userSpaceOnUse">
	<stop  offset="6.766293e-07" style="stop-color:#0071BC;stop-opacity:0"/>
	<stop  offset="0.38" style="stop-color:#62A8D6;stop-opacity:0.19"/>
	<stop  offset="1" style="stop-color:#FFFFFF;stop-opacity:0.5"/>
</radialGradient>
<circle class="st12" cx="72" cy="48" r="1"/>
<radialGradient id="SVGID_8_" cx="82" cy="49" r="1" gradientUnits="userSpaceOnUse">
	<stop  offset="6.766293e-07" style="stop-color:#0071BC;stop-opacity:0"/>
	<stop  offset="0.38" style="stop-color:#62A8D6;stop-opacity:0.19"/>
	<stop  offset="1" style="stop-color:#FFFFFF;stop-opacity:0.5"/>
</radialGradient>
<circle class="st13" cx="82" cy="49" r="1"/>
<radialGradient id="SVGID_9_" cx="79" cy="52" r="1" gradientUnits="userSpaceOnUse">
	<stop  offset="6.766293e-07" style="stop-color:#0071BC;stop-opacity:0"/>
	<stop  offset="0.38" style="stop-color:#62A8D6;stop-opacity:0.19"/>
	<stop  offset="1" style="stop-color:#FFFFFF;stop-opacity:0.5"/>
</radialGradient>
<circle class="st14" cx="79" cy="52" r="1"/>
<radialGradient id="SVGID_10_" cx="80" cy="47" r="1" gradientUnits="userSpaceOnUse">
	<stop  offset="6.766293e-07" style="stop-color:#0071BC;stop-opacity:0"/>
	<stop  offset="0.38" style="stop-color:#62A8D6;stop-opacity:0.19"/>
	<stop  offset="1" style="stop-color:#FFFFFF;stop-opacity:0.5"/>
</radialGradient>
<circle class="st15" cx="80" cy="47" r="1"/>
<radialGradient id="SVGID_11_" cx="85" cy="52" r="1" gradientUnits="userSpaceOnUse">
	<stop  offset="6.766293e-07" style="stop-color:#0071BC;stop-opacity:0"/>
	<stop  offset="0.38" style="stop-color:#62A8D6;stop-opacity:0.19"/>
	<stop  offset="1" style="stop-color:#FFFFFF;stop-opacity:0.5"/>
</radialGradient>
<circle class="st16" cx="85" cy="52" r="1"/>
<radialGradient id="SVGID_12_" cx="85" cy="47" r="1" gradientUnits="userSpaceOnUse">
	<stop  offset="6.766293e-07" style="stop-color:#0071BC;stop-opacity:0"/>
	<stop  offset="0.38" style="stop-color:#62A8D6;stop-opacity:0.19"/>
	<stop  offset="1" style="stop-color:#FFFFFF;stop-opacity:0.5"/>
</radialGradient>
<circle class="st17" cx="85" cy="47" r="1"/>
<rect x="86" y="50" class="st18" width="12" height="2"/>
<path class="st19" d="M82.5,57.5h4c1.1,0,2-0.9,2-2v-8.9c0-1.1-0.9-2-2-2h-4V57.5z"/>
</svg>
