<svg xmlns="http://www.w3.org/2000/svg" xmlns:xlink="http://www.w3.org/1999/xlink" viewBox="0 0 110 150"><defs><style>.cls-1,.cls-10,.cls-2,.cls-3,.cls-5,.cls-6,.cls-7,.cls-8,.cls-9{stroke:#000;stroke-miterlimit:10;}.cls-1{fill:url(#Безымянный_градиент_110);}.cls-2{fill:url(#Безымянный_градиент_110-2);}.cls-3{fill:url(#Безымянный_градиент_102);}.cls-4{fill:gray;}.cls-5{fill:url(#Безымянный_градиент_101);}.cls-6{fill:#31c8c5;}.cls-10,.cls-8{fill:#b60000;}.cls-9{fill:#f9f912;}.cls-10,.cls-9{stroke-width:2px;}</style><linearGradient id="Безымянный_градиент_110" x1="34.7" y1="144.88" x2="34.7" y2="128.49" gradientUnits="userSpaceOnUse"><stop offset="0"/><stop offset="1" stop-color="#713813"/></linearGradient><linearGradient id="Безымянный_градиент_110-2" x1="74.48" y1="144.88" x2="74.48" y2="128.49" xlink:href="#Безымянный_градиент_110"/><linearGradient id="Безымянный_градиент_102" x1="45.98" y1="31.25" x2="45.98" y2="5.31" gradientUnits="userSpaceOnUse"><stop offset="0" stop-color="#631"/><stop offset="0.45" stop-color="#643211"/><stop offset="0.61" stop-color="#5d2f10"/><stop offset="0.72" stop-color="#52290e"/><stop offset="0.82" stop-color="#41200b"/><stop offset="0.9" stop-color="#2b1507"/><stop offset="0.97" stop-color="#100803"/><stop offset="1"/></linearGradient><linearGradient id="Безымянный_градиент_101" x1="54.93" y1="148.22" x2="54.93" y2="2.48" gradientUnits="userSpaceOnUse"><stop offset="0"/><stop offset="0" stop-color="#050301"/><stop offset="0.02" stop-color="#221106"/><stop offset="0.04" stop-color="#391c09"/><stop offset="0.07" stop-color="#49240c"/><stop offset="0.09" stop-color="#52290e"/><stop offset="0.13" stop-color="#552a0e"/><stop offset="0.2" stop-color="#644836"/><stop offset="0.27" stop-color="#706056"/><stop offset="0.34" stop-color="#79726d"/><stop offset="0.4" stop-color="#7e7c7b"/><stop offset="0.46" stop-color="gray"/><stop offset="0.53" stop-color="#7f7d7c"/><stop offset="0.59" stop-color="#7e7671"/><stop offset="0.66" stop-color="#7b695d"/><stop offset="0.72" stop-color="#775742"/><stop offset="0.78" stop-color="#734020"/><stop offset="0.8" stop-color="#713813"/><stop offset="0.85" stop-color="#6e3713"/><stop offset="0.89" stop-color="#653211"/><stop offset="0.92" stop-color="#562a0e"/><stop offset="0.95" stop-color="#40200b"/><stop offset="0.97" stop-color="#241206"/><stop offset="1" stop-color="#020100"/><stop offset="1"/></linearGradient></defs><title>босс2</title><g id="Слой_10" data-name="Слой 10"><ellipse class="cls-1" cx="34.7" cy="136.69" rx="11.93" ry="8.2"/><ellipse class="cls-2" cx="74.48" cy="136.69" rx="11.93" ry="8.2"/><path class="cls-3" d="M68.26,20.49A91.28,91.28,0,0,0,61.12,28c-1.48,1.61-2.8,2.1-4,1.83-1.09-5.57-2.9-9.37-5.65-8.43l-.14.05C46.66,23.25,40,24.26,34.3,29,26.65,35.32,26,27,24.09,20.59s3.35-10,14.43-12.91c16.08-4.23,18.82-2,24.3.73l.56.28C65.2,9.62,67,15,68.26,20.49Z"/><path class="cls-4" d="M39.87,21a12,12,0,0,0,0-4.3A5.84,5.84,0,0,0,38,13.22a5,5,0,0,0-1.68-.91c-.57-.28-1.24-.37-1.86-.62-.32-.12-.67-.15-1-.25l-1-.28a12.55,12.55,0,0,1-2.18-.57l0-.19a11.91,11.91,0,0,1,2.26-.65,12.49,12.49,0,0,1,2.37,0,7,7,0,0,1,6,6.84,11.42,11.42,0,0,1-.81,4.48Z"/><path class="cls-4" d="M51.58,17.51a11.73,11.73,0,0,0,0-4.3,5.71,5.71,0,0,0-1.85-3.46,4.79,4.79,0,0,0-1.67-.92c-.57-.27-1.25-.36-1.87-.61a9.74,9.74,0,0,0-1-.25l-1-.28A13.9,13.9,0,0,1,42,7.12v-.2a11.58,11.58,0,0,1,2.25-.64,12.5,12.5,0,0,1,2.37,0,7.06,7.06,0,0,1,6,6.84,11.64,11.64,0,0,1-.81,4.48Z"/><path class="cls-5" d="M97.4,148.16c-14.06.23-17.78-8.27-29.07-5.57-7.55,1.81-4.85,5.63-14.61,5.63-7.09,0-12.63-6.71-17-6.83-12.61-.36-13.89,6.21-25.24,6.77-10.34.52-11-4.49-9.7-9.88,2-8.28,5.5-12.23,25.08-17.24,4.89-1.25,13.88-9.67,15.46-11.7,12.21-15.55,7.3-36.62,14.53-51.89,1.93-4.07,2.55-15.5.61-25.36,2.05-.84,3.92-3.54,6.56-5.18s3.62-3,6.14-5.17a35.23,35.23,0,0,1,1,7.86c1.49,5.26,8.25-6.1,6.79-11.5-1.05-3.88-12.35,7.58-15,9.52-6.61,4.88-6.32,6.05-10.06,7.29-6.72,2.24-10.41-14.45-5.36-18.49,1-.79.83-.21,14.69-9.91C76.88-3.77,94.82,7.28,91.93,21,89.38,33.11,89.38,44.54,78.24,65.5c-12.41,23.37-12.18,50-.85,50.73a29.6,29.6,0,0,1,14.67,5.34c9.87,3,15.18,6.27,16.34,16.49C109,143.61,109,148,97.4,148.16Z"/><path class="cls-6" d="M56.73,135.79c5.54-.52,9-4.34,8.89-5.54-.13-1.51-3.72-8.32-9.26-7.81s-10.75,6.42-10.12,7.89C47.29,132.77,51.18,136.3,56.73,135.79Z"/><path class="cls-6" d="M78.35,132c5-.54,8-3.79,7.92-4.78-.13-1.25-3.38-6.85-8.34-6.31s-9.56,5.54-9,6.75C69.9,129.69,73.4,132.54,78.35,132Z"/><path class="cls-6" d="M35.94,131.94c5,.49,8.62-2.07,8.72-3.06.13-1.25-1.9-7.39-6.86-7.88s-10.49,3.47-10.18,4.77C28.14,127.94,31,131.45,35.94,131.94Z"/><path class="cls-6" d="M18.74,130.5c-3.93.75-7-1-7.19-1.81-.19-1,1-6,4.94-6.76s8.65,2,8.49,3.07C24.71,126.76,22.68,129.76,18.74,130.5Z"/><path class="cls-6" d="M95.57,129.4c-4-.6-6.3-3.3-6.19-4.09.15-1,3-5.35,6.91-4.74s7.48,4.76,7,5.71C102.44,127.85,99.53,130,95.57,129.4Z"/><path class="cls-4" d="M60.19,23.85a12,12,0,0,0,0-4.3,5.71,5.71,0,0,0-1.85-3.46,4.79,4.79,0,0,0-1.67-.92c-.57-.28-1.25-.36-1.87-.62-.31-.12-.66-.15-1-.25l-1-.28a12.83,12.83,0,0,1-2.19-.56v-.2a11.58,11.58,0,0,1,2.25-.64,13.38,13.38,0,0,1,2.37,0,7,7,0,0,1,6,6.85,11.23,11.23,0,0,1-.81,4.47Z"/><path class="cls-4" d="M70.6,17.56a11.73,11.73,0,0,0,0-4.3A5.75,5.75,0,0,0,68.76,9.8a4.93,4.93,0,0,0-1.68-.92c-.57-.28-1.25-.36-1.86-.62-.32-.12-.67-.15-1-.25l-1-.28A12.5,12.5,0,0,1,61,7.17L61,7a11.58,11.58,0,0,1,2.25-.64,13.49,13.49,0,0,1,2.38,0,7.06,7.06,0,0,1,6,6.85,11.41,11.41,0,0,1-.81,4.47Z"/><path class="cls-4" d="M81.39,13.43a12,12,0,0,0,0-4.31,5.85,5.85,0,0,0-1.85-3.46,5.19,5.19,0,0,0-1.68-.92c-.57-.27-1.24-.36-1.86-.61-.32-.12-.67-.15-1-.25L74,3.6A12.79,12.79,0,0,1,71.8,3v-.2A12.32,12.32,0,0,1,74,2.19a12.49,12.49,0,0,1,2.37,0,7,7,0,0,1,6,6.84,11.42,11.42,0,0,1-.81,4.48Z"/><path class="cls-7" d="M81.14,57s-8.3.32-7.51,5.75c.85,5.85,2.75,6.27-.91,8.58s-4.26,3.15-3,6,1.69,4.38.19,7.83c-3.07,7.07-.19,6.69-1.66,11.37-1.54,4.93-3.8,4.69-1.64,9.17,3.46,7.17-4.08,6.64,0,8.2s13.31,4.49,12.28,2S63.29,110.41,81.14,57Z"/><ellipse class="cls-6" cx="27.79" cy="22.22" rx="5.17" ry="8.68" transform="matrix(1, -0.07, 0.07, 1, -1.42, 1.9)"/><ellipse class="cls-8" cx="27.27" cy="22.63" rx="2.2" ry="4.29" transform="translate(-1.45 1.87) rotate(-3.82)"/><path d="M27.1,20.05A3.5,3.5,0,0,1,28,21.31a4,4,0,0,1,.3,1.3,3.78,3.78,0,0,1-.12,1.33,3.57,3.57,0,0,1-.7,1.37A3.66,3.66,0,0,1,26.58,24a4.11,4.11,0,0,1-.17-2.62A3.69,3.69,0,0,1,27.1,20.05Z"/><path class="cls-6" d="M54.74,25.86c.09,4.8-2.15,8.73-5,8.78s-5.25-3.78-5.34-8.57,1.35-8,4.14-8.57S54.64,21.07,54.74,25.86Z"/><ellipse class="cls-8" cx="48.85" cy="26.03" rx="2.2" ry="4.27" transform="translate(-0.81 1.58) rotate(-1.83)"/><path d="M48.77,23.4a3.58,3.58,0,0,1,.83,1.29,4.22,4.22,0,0,1,.08,2.63,3.53,3.53,0,0,1-.74,1.34,3.53,3.53,0,0,1-.83-1.29A4,4,0,0,1,48,24.74,3.46,3.46,0,0,1,48.77,23.4Z"/><path class="cls-9" d="M46.88,101.65c-1.66,4.26.2,8.55,1.53,8.84,2.31.51,6.35-2.47,8-6.72s.51-8.88-1.36-8.79C52,95.12,48.55,97.4,46.88,101.65Z"/><path d="M48.88,107.94a8.19,8.19,0,0,1-.3-3.3,10,10,0,0,1,.75-2.84,9.45,9.45,0,0,1,1.53-2.51,7.72,7.72,0,0,1,2.59-2.06,8,8,0,0,1,.3,3.29,9.9,9.9,0,0,1-.74,2.84,10,10,0,0,1-1.54,2.51A8.1,8.1,0,0,1,48.88,107.94Z"/><path class="cls-9" d="M51.75,84.25c-1.25,4.27.82,8.46,2.1,8.7,2.21.41,5.79-2.69,7-7S60.7,77.16,59,77.32C56,77.58,53,80,51.75,84.25Z"/><path d="M54.11,90.4a7.69,7.69,0,0,1-.62-3.18,9.57,9.57,0,0,1,1.74-5.4,7.59,7.59,0,0,1,2.37-2.21,7.69,7.69,0,0,1,.62,3.18,9.17,9.17,0,0,1-.47,2.83,9.31,9.31,0,0,1-1.28,2.56A7.92,7.92,0,0,1,54.11,90.4Z"/><path class="cls-9" d="M55.43,66.69c-1.31,4.11,1.07,8.22,2.49,8.49,2.46.46,6.36-2.44,7.67-6.55s-.38-8.55-2.31-8.45A8.89,8.89,0,0,0,55.43,66.69Z"/><path d="M58.15,72.71a7.58,7.58,0,0,1-.56-3.11,9,9,0,0,1,1.83-5.17,7.52,7.52,0,0,1,2.4-2.07,7.51,7.51,0,0,1,.57,3.12,8.82,8.82,0,0,1-.52,2.73,9.05,9.05,0,0,1-1.32,2.44A7.38,7.38,0,0,1,58.15,72.71Z"/><path class="cls-10" d="M68.21,36.22c-8.66.08-10.26,5.06-10.26,9,0,2,0,8.5,7.64,9C73.9,54.77,78.11,47,77.78,45,77.24,41.6,75.08,36.16,68.21,36.22Z"/><path class="cls-6" d="M59.93,39.43c8.27-6.52,15.15-.49,15.15-.49s-2.86,3.82-4.2,4.34-3.41-5.81-3.41-5.81-2.62,5.49-4,5.71C63.18,43.23,59.35,39.89,59.93,39.43Z"/><path class="cls-6" d="M60.47,52c7.75,7.59,14.3-1.09,14.3-1.09s-2-5-3.24-4.32S67,52.77,67,52.77s-2.2-5.54-2.82-6.13C63.92,46.42,60,51.52,60.47,52Z"/></g></svg>