<svg xmlns="http://www.w3.org/2000/svg" xmlns:xlink="http://www.w3.org/1999/xlink" viewBox="0 0 110 150"><defs><style>.cls-1,.cls-10,.cls-2,.cls-3,.cls-5,.cls-6,.cls-7,.cls-8,.cls-9{stroke:#000;stroke-miterlimit:10;}.cls-1{fill:url(#Безымянный_градиент_110);}.cls-2{fill:url(#Безымянный_градиент_110-2);}.cls-3{fill:url(#Безымянный_градиент_102);}.cls-4{fill:gray;}.cls-5{fill:url(#Безымянный_градиент_101);}.cls-6{fill:#31c8c5;}.cls-10,.cls-8{fill:#b60000;}.cls-9{fill:#f9f912;}.cls-10,.cls-9{stroke-width:2px;}</style><linearGradient id="Безымянный_градиент_110" x1="34.7" y1="143.88" x2="34.7" y2="127.49" gradientUnits="userSpaceOnUse"><stop offset="0"/><stop offset="1" stop-color="#713813"/></linearGradient><linearGradient id="Безымянный_градиент_110-2" x1="74.48" y1="143.88" x2="74.48" y2="127.49" xlink:href="#Безымянный_градиент_110"/><linearGradient id="Безымянный_градиент_102" x1="45.99" y1="31.25" x2="45.99" y2="4.21" gradientUnits="userSpaceOnUse"><stop offset="0" stop-color="#631"/><stop offset="0.45" stop-color="#643211"/><stop offset="0.61" stop-color="#5d2f10"/><stop offset="0.72" stop-color="#52290e"/><stop offset="0.82" stop-color="#41200b"/><stop offset="0.9" stop-color="#2b1507"/><stop offset="0.97" stop-color="#100803"/><stop offset="1"/></linearGradient><linearGradient id="Безымянный_градиент_101" x1="54.93" y1="148.26" x2="54.93" y2="3.07" gradientUnits="userSpaceOnUse"><stop offset="0"/><stop offset="0" stop-color="#050301"/><stop offset="0.02" stop-color="#221106"/><stop offset="0.04" stop-color="#391c09"/><stop offset="0.07" stop-color="#49240c"/><stop offset="0.09" stop-color="#52290e"/><stop offset="0.13" stop-color="#552a0e"/><stop offset="0.2" stop-color="#644836"/><stop offset="0.27" stop-color="#706056"/><stop offset="0.34" stop-color="#79726d"/><stop offset="0.4" stop-color="#7e7c7b"/><stop offset="0.46" stop-color="gray"/><stop offset="0.53" stop-color="#7f7d7c"/><stop offset="0.59" stop-color="#7e7671"/><stop offset="0.66" stop-color="#7b695d"/><stop offset="0.72" stop-color="#775742"/><stop offset="0.78" stop-color="#734020"/><stop offset="0.8" stop-color="#713813"/><stop offset="0.85" stop-color="#6e3713"/><stop offset="0.89" stop-color="#653211"/><stop offset="0.92" stop-color="#562a0e"/><stop offset="0.95" stop-color="#40200b"/><stop offset="0.97" stop-color="#241206"/><stop offset="1" stop-color="#020100"/><stop offset="1"/></linearGradient></defs><title>босс2</title><g id="Слой_13" data-name="Слой 13"><ellipse class="cls-1" cx="34.7" cy="135.69" rx="11.93" ry="8.2"/><ellipse class="cls-2" cx="74.48" cy="135.69" rx="11.93" ry="8.2"/><path class="cls-3" d="M68.26,20.49A91.28,91.28,0,0,0,61.12,28c-1.48,1.61-2.8,2.1-4,1.83-1.09-5.57-2.9-9.37-5.65-8.43l-.14.05C46.66,23.25,40,24.26,34.3,29,26.65,35.32,26,27,24.09,20.59S28,12.11,38.52,7.68c16.16-6.77,18.82-2,24.3.73l.56.28C65.2,9.62,67,15,68.26,20.49Z"/><path class="cls-4" d="M38.87,22a12,12,0,0,0,0-4.3A5.84,5.84,0,0,0,37,14.22a5,5,0,0,0-1.68-.91c-.57-.28-1.24-.37-1.86-.62-.32-.12-.67-.15-1-.25l-1-.28a12.55,12.55,0,0,1-2.18-.57l0-.19a11.91,11.91,0,0,1,2.26-.65,12.49,12.49,0,0,1,2.37,0,7,7,0,0,1,6,6.84,11.42,11.42,0,0,1-.81,4.48Z"/><path class="cls-4" d="M50.58,18.51a11.73,11.73,0,0,0,0-4.3,5.71,5.71,0,0,0-1.85-3.46,4.79,4.79,0,0,0-1.67-.92c-.57-.27-1.25-.36-1.87-.61a9.74,9.74,0,0,0-1-.25l-1-.28A13.9,13.9,0,0,1,41,8.12v-.2a11.58,11.58,0,0,1,2.25-.64,12.5,12.5,0,0,1,2.37,0,7.06,7.06,0,0,1,6,6.84,11.64,11.64,0,0,1-.81,4.48Z"/><path class="cls-5" d="M97.4,148.16c-13.31-.7-17.78-8.27-29.07-5.57-7.55,1.81-6.94,5.63-14.61,5.63-7.09,0-10.78-7.59-15.14-6.85-11.31,1.93-12.84,5.54-27.15,6.79-10.32.9-11-4.49-9.7-9.88,2-8.28,5.5-12.23,25.08-17.24,4.89-1.25,13.57-5.75,15.46-11.7C47.19,93.89,51.86,73.9,56.8,57.45c1.3-4.31,2.55-15.5.61-25.36,2.05-.84,3.92-3.54,6.56-5.18s3.62-3,6.14-5.17a35.23,35.23,0,0,1,1,7.86c1.49,5.26,8.25-6.1,6.79-11.5-1.05-3.88-12.35,7.58-15,9.52-6.61,4.88-6.32,6.05-10.06,7.29-6.72,2.24-10.41-14.45-5.36-18.49,1-.79-.09-1.69,14.69-9.91C80-3.38,93.53,10.44,94.11,18.1c1.66,21.7-4.73,25.21-15.87,47.4-11.86,23.65-10.85,45.34-.85,50.73,3.65,2,14.43,5.44,14.67,5.34,9.87,3,15.18,6.27,16.34,16.49C109,143.61,109,148.77,97.4,148.16Z"/><path class="cls-6" d="M56.09,132.79c-5.55-.52-9-4.34-8.9-5.54.13-1.51,3.72-8.32,9.27-7.81s10.74,6.42,10.11,7.89C65.52,129.77,61.63,133.3,56.09,132.79Z"/><path class="cls-6" d="M76.81,132c-5-.54-8-3.79-7.91-4.78.13-1.25,3.38-6.85,8.33-6.31s9.56,5.54,9,6.75C85.27,129.69,81.76,132.54,76.81,132Z"/><path class="cls-6" d="M36.34,131.94c-5,.49-8.62-2.07-8.73-3.06-.13-1.25,1.91-7.39,6.87-7.88s10.49,3.47,10.18,4.77C44.14,127.94,41.29,131.45,36.34,131.94Z"/><path class="cls-6" d="M18.74,132.5c-3.93.75-7-1-7.19-1.81-.19-1,1-6,4.94-6.76s8.65,2,8.49,3.07C24.71,128.76,22.68,131.76,18.74,132.5Z"/><path class="cls-6" d="M95.57,131.4c-4-.6-6.3-3.3-6.19-4.09.15-1,3-5.35,6.91-4.74s7.48,4.76,7,5.71C102.44,129.85,99.53,132,95.57,131.4Z"/><path class="cls-4" d="M59.19,24.85a12,12,0,0,0,0-4.3,5.71,5.71,0,0,0-1.85-3.46,4.79,4.79,0,0,0-1.67-.92c-.57-.28-1.25-.36-1.87-.62-.31-.12-.66-.15-1-.25l-1-.28a12.83,12.83,0,0,1-2.19-.56v-.2a11.58,11.58,0,0,1,2.25-.64,13.38,13.38,0,0,1,2.37,0,7,7,0,0,1,6,6.85,11.23,11.23,0,0,1-.81,4.47Z"/><path class="cls-4" d="M69.6,19.56a11.73,11.73,0,0,0,0-4.3,5.75,5.75,0,0,0-1.84-3.46,4.93,4.93,0,0,0-1.68-.92c-.57-.28-1.25-.36-1.86-.62-.32-.12-.67-.15-1-.25l-1-.28A12.5,12.5,0,0,1,60,9.17L60,9a11.58,11.58,0,0,1,2.25-.64,13.49,13.49,0,0,1,2.38,0,7.06,7.06,0,0,1,6,6.85,11.41,11.41,0,0,1-.81,4.47Z"/><path class="cls-4" d="M79.39,14.43a12,12,0,0,0,0-4.31,5.85,5.85,0,0,0-1.85-3.46,5.19,5.19,0,0,0-1.68-.92c-.57-.27-1.24-.36-1.86-.61-.32-.12-.67-.15-1-.25L72,4.6A12.79,12.79,0,0,1,69.8,4v-.2A12.32,12.32,0,0,1,72,3.19a12.49,12.49,0,0,1,2.37,0,7,7,0,0,1,6,6.84,11.42,11.42,0,0,1-.81,4.48Z"/><path class="cls-7" d="M81.14,57s-8.3.32-7.51,5.75c.85,5.85,3.12,7-.91,8.58-2.93,1.16-4.26,3.15-3,6s3.15,5.51.19,7.83c-7.27,5.72-.19,6.69-1.66,11.37-1.54,4.93-5.61,5.08-1.64,9.17,5.54,5.72-4.08,6.64,0,8.2s13.31,4.49,12.28,2S63.29,110.41,81.14,57Z"/><ellipse class="cls-6" cx="27.79" cy="22.22" rx="5.17" ry="8.68" transform="matrix(1, -0.07, 0.07, 1, -1.42, 1.9)"/><ellipse class="cls-8" cx="27.27" cy="22.63" rx="2.2" ry="4.29" transform="translate(-1.45 1.87) rotate(-3.82)"/><path d="M27.1,20.05A3.5,3.5,0,0,1,28,21.31a4,4,0,0,1,.3,1.3,3.78,3.78,0,0,1-.12,1.33,3.57,3.57,0,0,1-.7,1.37A3.66,3.66,0,0,1,26.58,24a4.11,4.11,0,0,1-.17-2.62A3.69,3.69,0,0,1,27.1,20.05Z"/><path class="cls-6" d="M54.74,25.86c.09,4.8-2.15,8.73-5,8.78s-5.25-3.78-5.34-8.57,1.35-8,4.14-8.57S54.64,21.07,54.74,25.86Z"/><ellipse class="cls-8" cx="48.85" cy="26.03" rx="2.2" ry="4.27" transform="translate(-0.81 1.58) rotate(-1.83)"/><path d="M48.77,23.4a3.58,3.58,0,0,1,.83,1.29,4.22,4.22,0,0,1,.08,2.63,3.53,3.53,0,0,1-.74,1.34,3.53,3.53,0,0,1-.83-1.29A4,4,0,0,1,48,24.74,3.46,3.46,0,0,1,48.77,23.4Z"/><path class="cls-9" d="M46,101.65c-2,4.26.22,8.55,1.8,8.84,2.71.51,7.46-2.47,9.42-6.72s.6-8.88-1.6-8.79A11.29,11.29,0,0,0,46,101.65Z"/><path d="M48.38,107.94a8.42,8.42,0,0,1-.06-3.38,11.09,11.09,0,0,1,1-2.88A10.91,10.91,0,0,1,51,99.2a8.16,8.16,0,0,1,2.75-2,8.26,8.26,0,0,1,.07,3.38,10.66,10.66,0,0,1-1,2.87A11,11,0,0,1,51.13,106,8.62,8.62,0,0,1,48.38,107.94Z"/><path class="cls-9" d="M50.56,84.25c-1.57,4.27,1,8.46,2.65,8.7,2.78.41,7.28-2.69,8.85-7s-.24-8.82-2.45-8.66A10.51,10.51,0,0,0,50.56,84.25Z"/><path d="M53.52,90.4a8,8,0,0,1-.35-3.29,10.17,10.17,0,0,1,2.19-5.4,8,8,0,0,1,2.56-2.1,8.06,8.06,0,0,1,.35,3.29,9.75,9.75,0,0,1-.7,2.86,10.05,10.05,0,0,1-1.5,2.53A8,8,0,0,1,53.52,90.4Z"/><path class="cls-9" d="M54.89,66.69c-1.44,4.11,1.18,8.22,2.76,8.49,2.71.46,7-2.44,8.46-6.55s-.41-8.55-2.55-8.45A9.66,9.66,0,0,0,54.89,66.69Z"/><path d="M57.9,72.71a7.59,7.59,0,0,1-.44-3.16,9.19,9.19,0,0,1,2-5.17,7.48,7.48,0,0,1,2.47-2,7.53,7.53,0,0,1,.46,3.17,9.27,9.27,0,0,1-.62,2.74,9.09,9.09,0,0,1-1.42,2.43A7.46,7.46,0,0,1,57.9,72.71Z"/><path class="cls-10" d="M68.21,37.48C59.55,37.55,58,41.86,58,45.28c0,1.73,0,7.37,7.64,7.8,8.31.48,12.52-6.25,12.19-8C77.24,42.14,75.08,37.42,68.21,37.48Z"/><path class="cls-6" d="M59.93,40.26c8.27-5.65,15.15-.43,15.15-.43s-2.86,3.31-4.2,3.76-3.41-5-3.41-5-2.62,4.76-4,4.95C63.18,43.55,59.35,40.65,59.93,40.26Z"/><path class="cls-6" d="M60.47,51.12c7.75,6.58,14.3-.95,14.3-.95s-2-4.3-3.24-3.74S67,51.82,67,51.82s-2.2-4.8-2.82-5.31C63.92,46.32,60,50.74,60.47,51.12Z"/></g></svg>