<?xml version="1.0" encoding="utf-8"?>
<!-- Generator: Adobe Illustrator 24.0.2, SVG Export Plug-In . SVG Version: 6.00 Build 0)  -->
<svg version="1.1" id="Layer_1" xmlns="http://www.w3.org/2000/svg" xmlns:xlink="http://www.w3.org/1999/xlink" x="0px" y="0px"
	 width="50px" height="50px" viewBox="0 0 50 50" style="enable-background:new 0 0 50 50;" xml:space="preserve">
<style type="text/css">
	.st0{fill:#FF9900;}
	.st1{fill:#FFFFFF;}
</style>
<g>
	<path class="st0" d="M7.4,36.6V14.4h26.1c6.1,0,11.1,5,11.1,11.1s-5,11.1-11.1,11.1H7.4z"/>
	<path d="M33.5,14.8c5.9,0,10.7,4.8,10.7,10.8c0,5.9-4.8,10.7-10.7,10.7H7.8V14.8H33.5 M33.5,14H7v23h26.5C39.9,37,45,31.9,45,25.5
		l0,0C45,19.1,39.9,14,33.5,14L33.5,14z"/>
</g>
<ellipse transform="matrix(0.8257 -0.5641 0.5641 0.8257 -4.3693 25.3517)" class="st1" cx="38.8" cy="19.7" rx="1.7" ry="3.3"/>
<path class="st1" d="M35.3,16.1c-0.1,0-23.7,0-23.7,0s11.8,0.4,17.4,1.4c5.7,1,6.3,2.2,6.3,2.2s0.6-3.3,1.7-3.3S35.3,16.1,35.3,16.1
	z"/>
</svg>
