<?xml version="1.0" encoding="utf-8"?>
<!-- Generator: Adobe Illustrator 24.0.2, SVG Export Plug-In . SVG Version: 6.00 Build 0)  -->
<svg version="1.1" id="Layer_1" xmlns="http://www.w3.org/2000/svg" xmlns:xlink="http://www.w3.org/1999/xlink" x="0px" y="0px"
	 width="50px" height="50px" viewBox="0 0 50 50" style="enable-background:new 0 0 50 50;" xml:space="preserve">
<style type="text/css">
	.st0{fill:#1E3952;}
	.st1{fill:#FFFFFF;}
</style>
<g>
	<circle class="st0" cx="25.5" cy="24.5" r="14.1"/>
	<path d="M25.5,10.8c7.6,0,13.8,6.2,13.8,13.8s-6.2,13.8-13.8,13.8s-13.8-6.2-13.8-13.8S17.9,10.8,25.5,10.8 M25.5,10
		c-8,0-14.5,6.5-14.5,14.5S17.5,39,25.5,39S40,32.5,40,24.5S33.5,10,25.5,10L25.5,10z"/>
</g>
<g>
	<ellipse transform="matrix(0.955 -0.2967 0.2967 0.955 -5.0767 11.5441)" class="st1" cx="35.5" cy="22.5" rx="2.5" ry="4.5"/>
</g>
<path class="st1" d="M26,11c0,0,4,1,7,4c-2,0-2,3-2,3s0-2-2-4S26,11,26,11z"/>
</svg>
