<svg xmlns="http://www.w3.org/2000/svg" xmlns:xlink="http://www.w3.org/1999/xlink" viewBox="0 0 124 150"><defs><linearGradient id="Безымянный_градиент_110" x1="45.8" y1="146.99" x2="45.8" y2="130.6" gradientUnits="userSpaceOnUse"><stop offset="0"/><stop offset="1" stop-color="#713813"/></linearGradient><linearGradient id="Безымянный_градиент_110-2" x1="92.58" y1="146.99" x2="92.58" y2="130.6" xlink:href="#Безымянный_градиент_110"/><linearGradient id="Безымянный_градиент_102" x1="62.98" y1="29.59" x2="62.98" y2="3.08" gradientUnits="userSpaceOnUse"><stop offset="0" stop-color="#631"/><stop offset="0.45" stop-color="#643211"/><stop offset="0.61" stop-color="#5d2f10"/><stop offset="0.72" stop-color="#52290e"/><stop offset="0.82" stop-color="#41200b"/><stop offset="0.9" stop-color="#2b1507"/><stop offset="0.97" stop-color="#100803"/><stop offset="1"/></linearGradient><linearGradient id="Безымянный_градиент_101" x1="69.02" y1="148.46" x2="69.02" y2="1.98" gradientUnits="userSpaceOnUse"><stop offset="0"/><stop offset="0" stop-color="#050301"/><stop offset="0.02" stop-color="#221106"/><stop offset="0.04" stop-color="#391c09"/><stop offset="0.07" stop-color="#49240c"/><stop offset="0.09" stop-color="#52290e"/><stop offset="0.13" stop-color="#552a0e"/><stop offset="0.2" stop-color="#644836"/><stop offset="0.27" stop-color="#706056"/><stop offset="0.34" stop-color="#79726d"/><stop offset="0.4" stop-color="#7e7c7b"/><stop offset="0.46" stop-color="gray"/><stop offset="0.53" stop-color="#7f7d7c"/><stop offset="0.59" stop-color="#7e7671"/><stop offset="0.66" stop-color="#7b695d"/><stop offset="0.72" stop-color="#775742"/><stop offset="0.78" stop-color="#734020"/><stop offset="0.8" stop-color="#713813"/><stop offset="0.85" stop-color="#6e3713"/><stop offset="0.89" stop-color="#653211"/><stop offset="0.92" stop-color="#562a0e"/><stop offset="0.95" stop-color="#40200b"/><stop offset="0.97" stop-color="#241206"/><stop offset="1" stop-color="#020100"/><stop offset="1"/></linearGradient></defs><title>босс2 анимация атаки(150-134)</title><g id="Слой_19" data-name="Слой 19"><ellipse cx="45.8" cy="138.79" rx="11.93" ry="8.2" style="stroke:#000;stroke-miterlimit:10;fill:url(#Безымянный_градиент_110)"/><ellipse cx="92.58" cy="138.79" rx="11.93" ry="8.2" style="stroke:#000;stroke-miterlimit:10;fill:url(#Безымянный_градиент_110-2)"/><path d="M86.17,21c-2.52,2.17-6.75,3.68-9,6.08-1.48,1.61-2.8,2.1-4,1.83-1.09-5.57-2.9-9.37-5.65-8.43l-.14.05c-4.68,1.84-10.42,4.21-17,7.57-8.86,4.49-8.26-1.95-10.21-8.39s3.58-9.21,14.43-12.91C77.9-1.16,78.2,5.72,83.68,8.5,83.87,8.59,84.9,15.47,86.17,21Z" style="stroke:#000;stroke-miterlimit:10;fill:url(#Безымянный_градиент_102)"/><path d="M57,20.09a12,12,0,0,0,0-4.3,5.77,5.77,0,0,0-1.85-3.46,4.79,4.79,0,0,0-1.67-.92c-.58-.27-1.25-.36-1.87-.61a9.74,9.74,0,0,0-1-.25l-1-.29a12.83,12.83,0,0,1-2.19-.56V9.5a11.58,11.58,0,0,1,2.25-.64,12.5,12.5,0,0,1,2.37,0,7,7,0,0,1,6,6.84,11.37,11.37,0,0,1-.81,4.47Z" style="fill:gray"/><path d="M69.67,16.62a11.73,11.73,0,0,0,0-4.3,5.81,5.81,0,0,0-1.84-3.47,5,5,0,0,0-1.68-.91c-.57-.28-1.24-.36-1.86-.62-.32-.12-.67-.15-1-.25l-1-.28a12.5,12.5,0,0,1-2.18-.56l0-.2a12,12,0,0,1,2.25-.64,13.49,13.49,0,0,1,2.38,0A7.2,7.2,0,0,1,69,7.73a7.11,7.11,0,0,1,1.7,4.48,11.41,11.41,0,0,1-.81,4.47Z" style="fill:gray"/><path d="M111.5,148.27c-11.14-1.28-16.27-19.69-29.07-5.57-5.22,5.75-4.85,5.6-14.61,5.63-10.9,0-11.14-8.25-15.37-9.54C36.67,134,39.84,147,25.53,148.27c-10.32.9-11-4.5-9.71-9.88,2-8.29,5.51-12.24,25.09-17.24,4.89-1.25,14.37-9.37,15.46-11.7C63.18,94.88,66.58,72.06,69,57.13c1.22-7.44,2.73-14.46,4.48-24.94,2-.84,3.93-3.53,6.57-5.17s3.62-3,6.14-5.17c-1,4.3-1.19,5.29-1,7.85C86.67,35,95.43,23.61,94,18.21c-1-3.88-12.35,7.58-15,9.51-6.61,4.88-6.32,6.06-10,7.3-6.73,2.23-10.41-14.45-5.36-18.49,1-.79-.48-2.42,14.69-9.91C103-5.57,111.91,9.12,110.21,18.21,106.5,38,98.83,43.5,92.34,65.61,84.89,91,81.49,111,91.49,116.34c3.65,2,14.43,5.44,14.67,5.34,9.86,3,15.17,6.27,16.34,16.49C123.13,143.72,123.05,149.59,111.5,148.27Z" style="stroke:#000;stroke-miterlimit:10;fill:url(#Безымянный_градиент_101)"/><path d="M70.18,134.89c-5.55-.51-9-4.34-8.89-5.53.13-1.51,3.72-8.33,9.26-7.81s10.74,6.41,10.11,7.88C79.62,131.88,75.72,135.41,70.18,134.89Z" style="fill:#31c8c5;stroke:#000;stroke-miterlimit:10"/><path d="M51.16,132.11c5-.53,8-3.78,7.91-4.77-.13-1.26-3.38-6.85-8.33-6.32s-9.56,5.55-9,6.76C42.7,129.79,46.2,132.65,51.16,132.11Z" style="fill:#31c8c5;stroke:#000;stroke-miterlimit:10"/><path d="M91.63,132c5,.49,8.62-2.06,8.73-3,.13-1.26-1.91-7.4-6.87-7.89S83,124.58,83.31,125.88C83.83,128,86.68,131.56,91.63,132Z" style="fill:#31c8c5;stroke:#000;stroke-miterlimit:10"/><path d="M32.84,132.61c-3.94.74-7.05-1-7.2-1.81-.19-1,1-6,4.95-6.77s8.64,2,8.48,3.08C38.81,128.87,36.77,131.87,32.84,132.61Z" style="fill:#31c8c5;stroke:#000;stroke-miterlimit:10"/><path d="M109.67,132.51c-4-.6-6.31-3.31-6.2-4.09.15-1,3-5.35,6.91-4.75s7.49,4.77,7,5.71C116.54,131,113.62,133.11,109.67,132.51Z" style="fill:#31c8c5;stroke:#000;stroke-miterlimit:10"/><path d="M79.29,22a11.78,11.78,0,0,0,0-4.31,5.78,5.78,0,0,0-1.84-3.46,5.29,5.29,0,0,0-1.68-.92c-.57-.27-1.25-.36-1.86-.61-.32-.12-.67-.16-1-.25l-1-.28a12.55,12.55,0,0,1-2.18-.57l0-.2a11.58,11.58,0,0,1,2.25-.64,12.6,12.6,0,0,1,2.38,0,7.06,7.06,0,0,1,6,6.84A11.42,11.42,0,0,1,79.48,22Z" style="fill:gray"/><path d="M90.68,16.21a12,12,0,0,0,0-4.3,5.82,5.82,0,0,0-1.85-3.46,4.84,4.84,0,0,0-1.68-.92c-.57-.28-1.24-.36-1.86-.62-.32-.12-.67-.15-1-.25l-1-.28a12.5,12.5,0,0,1-2.18-.56l0-.2A11.88,11.88,0,0,1,83.33,5,13.37,13.37,0,0,1,85.7,5a7,7,0,0,1,6,6.85,11.41,11.41,0,0,1-.81,4.47Z" style="fill:gray"/><path d="M100.48,12.78a12,12,0,0,0,0-4.3A5.71,5.71,0,0,0,98.64,5,4.79,4.79,0,0,0,97,4.1c-.57-.27-1.25-.36-1.87-.61a9.74,9.74,0,0,0-1-.25l-1-.28a13.9,13.9,0,0,1-2.19-.57v-.2a11.58,11.58,0,0,1,2.25-.64,12.5,12.5,0,0,1,2.37,0,7,7,0,0,1,6,6.84,11.37,11.37,0,0,1-.81,4.47Z" style="fill:gray"/><path d="M95.23,57.13s-5.8.54-7.51,5.74,2.73,6.23-.9,8.59c-1.64,1.06-4.27,3.15-3,6s3,4.77.19,7.84C78.82,91,83.82,92,82.36,96.63c-1.55,4.93-4.18,6.92-1.64,9.17,6,5.28-4.08,6.63,0,8.2S94,118.48,93,116,77.39,110.51,95.23,57.13Z" style="stroke:#000;stroke-miterlimit:10"/><ellipse cx="43.88" cy="21.33" rx="5.17" ry="8.68" transform="translate(-2.04 4.84) rotate(-6.16)" style="fill:#31c8c5;stroke:#000;stroke-miterlimit:10"/><ellipse cx="43.38" cy="21.75" rx="2.48" ry="4.85" transform="translate(-2.08 4.78) rotate(-6.16)" style="fill:#af3e00;stroke:#000;stroke-miterlimit:10"/><path d="M43.11,19.19A3.6,3.6,0,0,1,44,20.41,4.22,4.22,0,0,1,44.31,23a3.52,3.52,0,0,1-.64,1.39,3.48,3.48,0,0,1-.92-1.22,4.22,4.22,0,0,1-.28-2.62A3.52,3.52,0,0,1,43.11,19.19Z"/><path d="M69.8,25.55c.49,4.77-1.41,8.87-4.25,9.17s-5.54-3.34-6-8.11.69-8,3.43-8.88S69.31,20.78,69.8,25.55Z" style="fill:#31c8c5;stroke:#000;stroke-miterlimit:10"/><ellipse cx="63.95" cy="26.2" rx="2.5" ry="4.86" transform="translate(-2.59 7.53) rotate(-6.6)" style="fill:#af3e00;stroke:#000;stroke-miterlimit:10"/><path d="M63.65,23.59a3.51,3.51,0,0,1,.93,1.22A4,4,0,0,1,65,26.09a4.26,4.26,0,0,1-.06,1.33,3.6,3.6,0,0,1-.63,1.4,3.55,3.55,0,0,1-.94-1.22A4.19,4.19,0,0,1,63,25,3.6,3.6,0,0,1,63.65,23.59Z"/><path d="M60.12,101.76c-2,4.25.23,8.55,1.8,8.84,2.72.5,7.47-2.47,9.43-6.73s.59-8.87-1.6-8.79A11.29,11.29,0,0,0,60.12,101.76Z" style="fill:#f7cb14;stroke:#000;stroke-miterlimit:10;stroke-width:2px"/><path d="M62.48,108a8.24,8.24,0,0,1-.06-3.38A10.57,10.57,0,0,1,65.1,99.3a8.24,8.24,0,0,1,2.75-2,8.42,8.42,0,0,1,.06,3.38,10.54,10.54,0,0,1-1,2.87,10.7,10.7,0,0,1-1.73,2.49A8.51,8.51,0,0,1,62.48,108Z"/><path d="M64.65,84.35c-1.57,4.28,1,8.47,2.65,8.71,2.78.41,7.28-2.69,8.85-7s-.24-8.82-2.44-8.66A10.51,10.51,0,0,0,64.65,84.35Z" style="fill:#f7cb14;stroke:#000;stroke-miterlimit:10;stroke-width:2px"/><path d="M67.62,90.5a8.21,8.21,0,0,1-.36-3.28,10.42,10.42,0,0,1,.7-2.86,10.07,10.07,0,0,1,1.49-2.54A8,8,0,0,1,72,79.72,8.06,8.06,0,0,1,72.37,83a10.26,10.26,0,0,1-.7,2.85,10.42,10.42,0,0,1-1.5,2.54A8.09,8.09,0,0,1,67.62,90.5Z"/><path d="M69,66.79c-1.44,4.11,1.18,8.23,2.75,8.49,2.71.46,7-2.44,8.46-6.54s-.41-8.55-2.55-8.45A9.65,9.65,0,0,0,69,66.79Z" style="fill:#f7cb14;stroke:#000;stroke-miterlimit:10;stroke-width:2px"/><path d="M72,72.82a7.59,7.59,0,0,1-.44-3.16,9.26,9.26,0,0,1,2-5.18,7.51,7.51,0,0,1,2.48-2,7.49,7.49,0,0,1,.45,3.16,9.2,9.2,0,0,1-.62,2.74,9,9,0,0,1-1.41,2.43A7.63,7.63,0,0,1,72,72.82Z"/><path d="M82.63,38c-7.78.07-9.22,4.47-9.22,8,0,1.77,0,7.52,6.87,8,7.48.49,11.26-6.38,11-8.17C90.76,42.77,88.82,38,82.63,38Z" style="fill:#b60000;stroke:#000;stroke-miterlimit:10;stroke-width:2px"/><path d="M75.19,40.85c7.43-5.77,13.63-.44,13.63-.44S86.25,43.79,85,44.25,82,39.12,82,39.12s-2.37,4.85-3.58,5C78.11,44.21,74.67,41.25,75.19,40.85Z" style="fill:#31c8c5;stroke:#000;stroke-miterlimit:10"/><path d="M75.68,51.93c7,6.71,12.86-1,12.86-1s-1.76-4.38-2.92-3.82-4.1,5.5-4.1,5.5-2-4.89-2.53-5.41C78.78,47,75.27,51.54,75.68,51.93Z" style="fill:#31c8c5;stroke:#000;stroke-miterlimit:10"/><path d="M25.15,32.7A23.87,23.87,0,0,1,9.62,42.44,23.88,23.88,0,0,1,25.15,32.7Z" style="stroke:#f9f912;stroke-miterlimit:10"/><path d="M17.39,42.42A23.87,23.87,0,0,1,1.86,52.16,23.81,23.81,0,0,1,17.39,42.42Z" style="stroke:#f9f912;stroke-miterlimit:10"/><path d="M42.12,38.93A23.86,23.86,0,0,1,26.6,48.68,23.84,23.84,0,0,1,42.12,38.93Z" style="stroke:#f9f912;stroke-miterlimit:10"/><path d="M34.36,48.65A23.9,23.9,0,0,1,18.84,58.4,23.81,23.81,0,0,1,34.36,48.65Z" style="stroke:#f9f912;stroke-miterlimit:10"/></g></svg>