<svg xmlns="http://www.w3.org/2000/svg" xmlns:xlink="http://www.w3.org/1999/xlink" viewBox="0 0 124 150"><defs><linearGradient id="Безымянный_градиент_110" x1="39.18" y1="148.16" x2="39.18" y2="131.77" gradientUnits="userSpaceOnUse"><stop offset="0"/><stop offset="1" stop-color="#713813"/></linearGradient><linearGradient id="Безымянный_градиент_110-2" x1="85.96" y1="148.16" x2="85.96" y2="131.77" xlink:href="#Безымянный_градиент_110"/><linearGradient id="Безымянный_градиент_102" x1="53.45" y1="31.52" x2="53.45" y2="5.59" gradientUnits="userSpaceOnUse"><stop offset="0" stop-color="#631"/><stop offset="0.45" stop-color="#643211"/><stop offset="0.61" stop-color="#5d2f10"/><stop offset="0.72" stop-color="#52290e"/><stop offset="0.82" stop-color="#41200b"/><stop offset="0.9" stop-color="#2b1507"/><stop offset="0.97" stop-color="#100803"/><stop offset="1"/></linearGradient><linearGradient id="Безымянный_градиент_101" x1="62.41" y1="148.63" x2="62.41" y2="2.15" gradientUnits="userSpaceOnUse"><stop offset="0"/><stop offset="0" stop-color="#050301"/><stop offset="0.02" stop-color="#221106"/><stop offset="0.04" stop-color="#391c09"/><stop offset="0.07" stop-color="#49240c"/><stop offset="0.09" stop-color="#52290e"/><stop offset="0.13" stop-color="#552a0e"/><stop offset="0.2" stop-color="#644836"/><stop offset="0.27" stop-color="#706056"/><stop offset="0.34" stop-color="#79726d"/><stop offset="0.4" stop-color="#7e7c7b"/><stop offset="0.46" stop-color="gray"/><stop offset="0.53" stop-color="#7f7d7c"/><stop offset="0.59" stop-color="#7e7671"/><stop offset="0.66" stop-color="#7b695d"/><stop offset="0.72" stop-color="#775742"/><stop offset="0.78" stop-color="#734020"/><stop offset="0.8" stop-color="#713813"/><stop offset="0.85" stop-color="#6e3713"/><stop offset="0.89" stop-color="#653211"/><stop offset="0.92" stop-color="#562a0e"/><stop offset="0.95" stop-color="#40200b"/><stop offset="0.97" stop-color="#241206"/><stop offset="1" stop-color="#020100"/><stop offset="1"/></linearGradient></defs><title>босс2 анимация атаки(150-134)</title><g id="Слой_5" data-name="Слой 5"><ellipse cx="39.18" cy="139.96" rx="11.93" ry="8.2" style="stroke:#000;stroke-miterlimit:10;fill:url(#Безымянный_градиент_110)"/><ellipse cx="85.96" cy="139.96" rx="11.93" ry="8.2" style="stroke:#000;stroke-miterlimit:10;fill:url(#Безымянный_градиент_110-2)"/><path d="M75.74,20.77a91.28,91.28,0,0,0-7.14,7.47c-1.48,1.61-2.8,2.1-4,1.83-1.09-5.57-2.9-9.37-5.65-8.43l-.14.05c-4.68,1.84-11.34,2.85-17,7.57-7.65,6.33-8.26-2-10.21-8.39S34.92,10.88,46,8c16.08-4.23,18.82-2,24.3.73l.56.28C72.68,9.9,74.47,15.25,75.74,20.77Z" style="stroke:#000;stroke-miterlimit:10;fill:url(#Безымянный_градиент_102)"/><path d="M50.35,20.26a11.73,11.73,0,0,0,0-4.3A5.71,5.71,0,0,0,48.5,12.5a4.79,4.79,0,0,0-1.67-.92c-.57-.27-1.25-.36-1.86-.61-.32-.12-.67-.16-1-.25l-1-.29a12.5,12.5,0,0,1-2.18-.56l0-.2A11.58,11.58,0,0,1,43,9a12.6,12.6,0,0,1,2.38,0,7,7,0,0,1,6,6.84,11.41,11.41,0,0,1-.81,4.47Z" style="fill:gray"/><path d="M63.05,16.79a12,12,0,0,0,0-4.3A5.87,5.87,0,0,0,61.21,9a5,5,0,0,0-1.67-.91c-.58-.28-1.25-.36-1.87-.62-.31-.12-.66-.15-1-.25l-1-.28a12.73,12.73,0,0,1-2.18-.56V6.2a12.35,12.35,0,0,1,2.25-.65,14.4,14.4,0,0,1,2.37,0,7,7,0,0,1,6,6.84,11.42,11.42,0,0,1-.81,4.48Z" style="fill:gray"/><path d="M104.88,148.44c-11.14-1.28-16.27-19.69-29.07-5.57-5.22,5.75-4.85,5.6-14.61,5.63-10.9,0-11.14-8.25-15.37-9.54-15.78-4.8-12.61,8.23-26.92,9.48-10.32.9-11-4.5-9.71-9.89,2-8.28,5.51-12.23,25.09-17.23,4.89-1.25,14.37-9.37,15.46-11.7,6.81-14.57,8.91-35.88,13.87-52.33,1.3-4.31,1.4-15.4,1.27-24.93,2-.84,3.92-3.53,6.56-5.17s3.62-3,6.14-5.17a35.15,35.15,0,0,1,1,7.85c1.49,5.26,8.25-6.09,6.79-11.49-1-3.88-12.35,7.58-15,9.51-6.62,4.88-6.32,6-10.06,7.3C53.59,37.42,49.91,20.74,55,16.7c1-.79-.48-2.42,14.69-9.91,24.69-12.19,33.64,2.5,31.94,11.59-3.71,19.8-9.38,25.29-15.87,47.4-7.45,25.39-10.85,45.34-.85,50.73,3.65,2,14.43,5.44,14.67,5.34,9.87,3,15.17,6.27,16.34,16.49C116.51,143.89,116.43,149.76,104.88,148.44Z" style="stroke:#000;stroke-miterlimit:10;fill:url(#Безымянный_градиент_101)"/><path d="M62.56,134.06c-5.54-.51-9-4.34-8.89-5.54.13-1.51,3.72-8.32,9.26-7.8s10.75,6.41,10.12,7.88C72,131.05,68.11,134.58,62.56,134.06Z" style="fill:#31c8c5;stroke:#000;stroke-miterlimit:10"/><path d="M84.29,132.28c-5-.53-8-3.78-7.91-4.77.12-1.26,3.38-6.85,8.33-6.32s9.56,5.55,9,6.76C92.75,130,89.24,132.82,84.29,132.28Z" style="fill:#31c8c5;stroke:#000;stroke-miterlimit:10"/><path d="M43.81,132.21c-5,.49-8.62-2.06-8.72-3.05C35,127.9,37,121.76,42,121.27s10.5,3.47,10.18,4.77C51.61,128.21,48.77,131.72,43.81,132.21Z" style="fill:#31c8c5;stroke:#000;stroke-miterlimit:10"/><path d="M26.22,130.78c-3.93.74-7-1-7.2-1.81-.19-1,1-6,4.95-6.77s8.64,2,8.48,3.08C32.19,127,30.16,130,26.22,130.78Z" style="fill:#31c8c5;stroke:#000;stroke-miterlimit:10"/><path d="M103.05,130.68c-4-.6-6.31-3.31-6.19-4.1.14-1,3-5.34,6.9-4.74s7.49,4.76,7,5.71C109.92,129.12,107,131.28,103.05,130.68Z" style="fill:#31c8c5;stroke:#000;stroke-miterlimit:10"/><path d="M71.67,21.12a12,12,0,0,0,0-4.3,5.85,5.85,0,0,0-1.85-3.46,4.84,4.84,0,0,0-1.68-.92c-.57-.27-1.24-.36-1.86-.61-.32-.12-.67-.16-1-.25l-1-.28a12.55,12.55,0,0,1-2.18-.57v-.2a11.58,11.58,0,0,1,2.25-.64,12.49,12.49,0,0,1,2.37,0,7,7,0,0,1,6,6.84,11.46,11.46,0,0,1-.81,4.48Z" style="fill:gray"/><path d="M83.07,15.83a12,12,0,0,0,0-4.3,5.79,5.79,0,0,0-1.85-3.46,4.79,4.79,0,0,0-1.67-.92c-.57-.27-1.25-.36-1.87-.61a9.74,9.74,0,0,0-1-.25l-1-.28a12.89,12.89,0,0,1-2.19-.57v-.2a11.58,11.58,0,0,1,2.25-.64,12.5,12.5,0,0,1,2.37,0,7,7,0,0,1,6,6.84,11.46,11.46,0,0,1-.81,4.48Z" style="fill:gray"/><path d="M93.87,12.7a11.73,11.73,0,0,0,0-4.3A5.71,5.71,0,0,0,92,4.94,4.79,4.79,0,0,0,90.35,4c-.57-.27-1.25-.36-1.86-.62-.32-.11-.67-.15-1-.24l-1-.29a12.5,12.5,0,0,1-2.18-.56l0-.2a11.58,11.58,0,0,1,2.25-.64,13.49,13.49,0,0,1,2.38,0,7.06,7.06,0,0,1,6,6.85,11.41,11.41,0,0,1-.81,4.47Z" style="fill:gray"/><path d="M88.61,57.29s-5.79.55-7.51,5.75,3.39,8-.9,8.59-4.27,3.14-3,6,3,4.77.2,7.84c-5.2,5.69-.2,6.69-1.66,11.37-1.54,4.93-7.53,6.57-1.64,9.17,7.28,3.21-4.08,6.63,0,8.19s13.31,4.49,12.27,2S70.77,110.68,88.61,57.29Z" style="stroke:#000;stroke-miterlimit:10"/><ellipse cx="35.27" cy="22.5" rx="5.17" ry="8.68" transform="matrix(1, -0.07, 0.07, 1, -1.42, 2.4)" style="fill:#31c8c5;stroke:#000;stroke-miterlimit:10"/><ellipse cx="34.75" cy="22.9" rx="2.2" ry="4.29" transform="translate(-1.45 2.36) rotate(-3.82)" style="fill:#b60000;stroke:#000;stroke-miterlimit:10"/><path d="M34.58,20.32a3.66,3.66,0,0,1,.87,1.27,4.21,4.21,0,0,1,.18,2.62,3.57,3.57,0,0,1-.7,1.37,3.38,3.38,0,0,1-.87-1.26,3.78,3.78,0,0,1-.3-1.3,4.32,4.32,0,0,1,.12-1.33A3.57,3.57,0,0,1,34.58,20.32Z"/><path d="M62.21,26.14c.1,4.79-2.14,8.72-5,8.78S52,31.13,51.87,26.34s1.36-8,4.15-8.56S62.12,21.35,62.21,26.14Z" style="fill:#31c8c5;stroke:#000;stroke-miterlimit:10"/><ellipse cx="56.33" cy="26.3" rx="2.2" ry="4.27" transform="translate(-0.81 1.82) rotate(-1.83)" style="fill:#b60000;stroke:#000;stroke-miterlimit:10"/><path d="M56.25,23.67A3.57,3.57,0,0,1,57.07,25a4.35,4.35,0,0,1,.26,1.31,4,4,0,0,1-.17,1.32,3.6,3.6,0,0,1-.75,1.35,3.57,3.57,0,0,1-.82-1.29,4.12,4.12,0,0,1-.26-1.31A4.38,4.38,0,0,1,55.5,25,3.57,3.57,0,0,1,56.25,23.67Z"/><path d="M53.5,101.93c-2,4.25.23,8.55,1.8,8.84,2.72.5,7.47-2.47,9.43-6.73s.6-8.88-1.6-8.79A11.3,11.3,0,0,0,53.5,101.93Z" style="fill:#f9f912;stroke:#000;stroke-miterlimit:10;stroke-width:2px"/><path d="M55.86,108.21a8.42,8.42,0,0,1-.06-3.38,10.66,10.66,0,0,1,1-2.87,10.37,10.37,0,0,1,1.72-2.49,8.34,8.34,0,0,1,2.75-2,8.24,8.24,0,0,1,.06,3.38,10.22,10.22,0,0,1-1,2.87,10.92,10.92,0,0,1-1.73,2.49A8.29,8.29,0,0,1,55.86,108.21Z"/><path d="M58,84.52c-1.57,4.28,1,8.47,2.64,8.7,2.78.41,7.28-2.69,8.85-7s-.24-8.82-2.44-8.66A10.48,10.48,0,0,0,58,84.52Z" style="fill:#f9f912;stroke:#000;stroke-miterlimit:10;stroke-width:2px"/><path d="M61,90.67a8,8,0,0,1-.35-3.29A9.89,9.89,0,0,1,62.84,82a7.87,7.87,0,0,1,2.55-2.1,7.89,7.89,0,0,1,.36,3.29,9.76,9.76,0,0,1-.7,2.85,10.11,10.11,0,0,1-1.5,2.54A8,8,0,0,1,61,90.67Z"/><path d="M62.37,67c-1.44,4.11,1.18,8.23,2.75,8.49,2.71.46,7-2.44,8.47-6.55s-.41-8.54-2.55-8.44A9.65,9.65,0,0,0,62.37,67Z" style="fill:#f9f912;stroke:#000;stroke-miterlimit:10;stroke-width:2px"/><path d="M65.38,73a7.49,7.49,0,0,1-.45-3.16,9.65,9.65,0,0,1,.61-2.75A9.32,9.32,0,0,1,67,64.65a7.61,7.61,0,0,1,2.48-2,7.47,7.47,0,0,1,.45,3.16,8.89,8.89,0,0,1-.61,2.74A9.2,9.2,0,0,1,67.85,71,7.58,7.58,0,0,1,65.38,73Z"/><path d="M75.68,35.24C67,35.33,65.42,41,65.42,45.44c0,2.27,0,9.63,7.65,10.2,8.31.63,12.51-8.17,12.19-10.47C84.72,41.33,82.56,35.16,75.68,35.24Z" style="fill:#b60000;stroke:#000;stroke-miterlimit:10;stroke-width:2px"/><path d="M67.4,38.87c8.27-7.39,15.16-.55,15.16-.55s-2.86,4.32-4.2,4.91S75,36.66,75,36.66s-2.63,6.22-4,6.46C70.66,43.18,66.82,39.39,67.4,38.87Z" style="fill:#31c8c5;stroke:#000;stroke-miterlimit:10"/><path d="M68,53.08c7.75,8.6,14.3-1.24,14.3-1.24s-2-5.62-3.24-4.9S74.45,54,74.45,54s-2.21-6.27-2.82-6.94C71.39,46.8,67.49,52.58,68,53.08Z" style="fill:#31c8c5;stroke:#000;stroke-miterlimit:10"/><path d="M34.7,22.44a19,19,0,0,0-1.85,1.62c.67,0,1.35-.07,2-.14Z" style="fill:#f9f912"/><path d="M56.16,25.78a20.42,20.42,0,0,0-1.85,1.62c.68,0,1.35-.07,2-.14Z" style="fill:#f9f912"/></g></svg>