<svg xmlns="http://www.w3.org/2000/svg" xmlns:xlink="http://www.w3.org/1999/xlink" viewBox="0 0 124 150"><defs><linearGradient id="Безымянный_градиент_110" x1="38.77" y1="148.58" x2="38.77" y2="132.19" gradientUnits="userSpaceOnUse"><stop offset="0"/><stop offset="1" stop-color="#713813"/></linearGradient><linearGradient id="Безымянный_градиент_110-2" x1="84.55" y1="148.58" x2="84.55" y2="132.19" xlink:href="#Безымянный_градиент_110"/><linearGradient id="Безымянный_градиент_102" x1="59.91" y1="30.55" x2="59.91" y2="3.4" gradientTransform="translate(1.54 0.64) rotate(-0.61)" gradientUnits="userSpaceOnUse"><stop offset="0" stop-color="#631"/><stop offset="0.45" stop-color="#643211"/><stop offset="0.61" stop-color="#5d2f10"/><stop offset="0.72" stop-color="#52290e"/><stop offset="0.82" stop-color="#41200b"/><stop offset="0.9" stop-color="#2b1507"/><stop offset="0.97" stop-color="#100803"/><stop offset="1"/></linearGradient><linearGradient id="Безымянный_градиент_101" x1="62.11" y1="148.81" x2="62.11" y2="1.57" gradientUnits="userSpaceOnUse"><stop offset="0"/><stop offset="0" stop-color="#050301"/><stop offset="0.02" stop-color="#221106"/><stop offset="0.04" stop-color="#391c09"/><stop offset="0.07" stop-color="#49240c"/><stop offset="0.09" stop-color="#52290e"/><stop offset="0.13" stop-color="#552a0e"/><stop offset="0.2" stop-color="#644836"/><stop offset="0.27" stop-color="#706056"/><stop offset="0.34" stop-color="#79726d"/><stop offset="0.4" stop-color="#7e7c7b"/><stop offset="0.46" stop-color="gray"/><stop offset="0.53" stop-color="#7f7d7c"/><stop offset="0.59" stop-color="#7e7671"/><stop offset="0.66" stop-color="#7b695d"/><stop offset="0.72" stop-color="#775742"/><stop offset="0.78" stop-color="#734020"/><stop offset="0.8" stop-color="#713813"/><stop offset="0.85" stop-color="#6e3713"/><stop offset="0.89" stop-color="#653211"/><stop offset="0.92" stop-color="#562a0e"/><stop offset="0.95" stop-color="#40200b"/><stop offset="0.97" stop-color="#241206"/><stop offset="1" stop-color="#020100"/><stop offset="1"/></linearGradient></defs><title>босс2 анимация атаки(150-134)</title><g id="Слой_13" data-name="Слой 13"><ellipse cx="38.77" cy="140.39" rx="11.93" ry="8.2" style="stroke:#000;stroke-miterlimit:10;fill:url(#Безымянный_градиент_110)"/><ellipse cx="84.55" cy="140.39" rx="11.93" ry="8.2" style="stroke:#000;stroke-miterlimit:10;fill:url(#Безымянный_градиент_110-2)"/><path d="M83.43,21.14c-2.5,2.19-4,4.92-6.13,7.34-1.46,1.63-2.78,2.13-4,1.88-1.15-5.56-3-9.34-5.74-8.37l-.14.05c-4.66,1.89-7.67,5.11-17,7.75-9.55,2.72-8.28-1.86-10.3-8.28s4.54-10.25,15-14.87C68,1,75.3,3.37,79.71,7.66,80.28,8.22,83.9,15.28,83.43,21.14Z" style="stroke:#000;stroke-miterlimit:10;fill:url(#Безымянный_градиент_102)"/><path d="M57.93,21.68a11.73,11.73,0,0,0,0-4.3,5.71,5.71,0,0,0-1.85-3.46A4.79,4.79,0,0,0,54.42,13c-.57-.27-1.25-.36-1.87-.61a9.74,9.74,0,0,0-1-.25l-1-.28a13.9,13.9,0,0,1-2.19-.57v-.2a11.58,11.58,0,0,1,2.25-.64,12.5,12.5,0,0,1,2.37,0,7,7,0,0,1,6,6.84,11.2,11.2,0,0,1-.81,4.47Z" style="fill:gray"/><path d="M67.94,16.21a12,12,0,0,0,0-4.3A5.82,5.82,0,0,0,66.1,8.45a4.84,4.84,0,0,0-1.68-.92c-.57-.28-1.24-.36-1.86-.62-.32-.12-.67-.15-1-.25l-1-.28a12.5,12.5,0,0,1-2.18-.56l0-.2A11.88,11.88,0,0,1,60.59,5,13.37,13.37,0,0,1,63,5a7,7,0,0,1,6,6.85,11.41,11.41,0,0,1-.81,4.47Z" style="fill:gray"/><path d="M104.58,148.62c-17.43-.28-16.27-12.47-29.07-5.57-4.39,2.37-2.82,6.53-14.61,5.63-10.09-.77-3.65-2.34-15.14-6.85-10.26-4-6.88,4.51-27.15,6.79-10.29,1.16-11-4.49-9.71-9.88,2-8.28,5.51-12.23,25.09-17.24,4.89-1.25,14.37-9.37,15.46-11.7,6.81-14.57,8.3-35.71,12.66-50.42,1.28-4.32,3.5-9.71,6.82-19,1.8-5.08,2.57-8.9,5-11.21s7.32-6.92,9.84-9.09c.94,4.14.49,6.29.65,8.85,1.49,5.26,6.07-4.93,4.61-10.33C88,14.68,77.56,25.8,75.12,28c-4.91,4.38-4.33,4.09-8.07,5.33-6.73,2.24-10.44-12.38-5.39-16.42,1-.79-1.11-1.76,12.92-11.22C91.28-5.6,104.8,9,104,18.21c-1.44,16.54-8.45,24-18.58,47.75C75,90.29,74.57,111.3,84.57,116.69c3.65,2,14.43,5.44,14.67,5.34,9.87,3,15.18,6.27,16.34,16.49C116.21,144.07,116.21,148.81,104.58,148.62Z" style="stroke:#000;stroke-miterlimit:10;fill:url(#Безымянный_градиент_101)"/><path d="M63.6,135.48c-5.54-.51-9-4.34-8.89-5.53.13-1.51,3.72-8.33,9.27-7.81s10.74,6.41,10.11,7.88C73,132.47,69.15,136,63.6,135.48Z" style="fill:#31c8c5;stroke:#000;stroke-miterlimit:10"/><path d="M44.13,133.7c4.95-.53,8-3.78,7.91-4.77-.13-1.25-3.38-6.85-8.33-6.31s-9.56,5.54-9,6.75C35.67,131.38,39.18,134.24,44.13,133.7Z" style="fill:#31c8c5;stroke:#000;stroke-miterlimit:10"/><path d="M84.6,133.64c5,.48,8.62-2.07,8.73-3.06.13-1.26-1.91-7.4-6.87-7.89S76,126.17,76.28,127.47C76.8,129.63,79.65,133.15,84.6,133.64Z" style="fill:#31c8c5;stroke:#000;stroke-miterlimit:10"/><path d="M26.81,133.2c-3.94.74-7-1-7.2-1.81-.19-1,1-6,4.95-6.77s8.64,2,8.48,3.08C32.78,129.46,30.74,132.46,26.81,133.2Z" style="fill:#31c8c5;stroke:#000;stroke-miterlimit:10"/><path d="M101.64,132.1c-4-.6-6.31-3.31-6.19-4.09.14-1,2.94-5.35,6.9-4.75s7.49,4.77,7,5.71C108.51,130.55,105.59,132.7,101.64,132.1Z" style="fill:#31c8c5;stroke:#000;stroke-miterlimit:10"/><path d="M76.21,22.89a8.68,8.68,0,0,0-.89-4,7.42,7.42,0,0,0-2.45-3,9.9,9.9,0,0,0-3.51-1.25c-1.25-.35-2.59-.36-4.09-.67l0-.19a7.37,7.37,0,0,1,2.1-.9c.37-.09.75-.14,1.13-.21s.78,0,1.18,0a6.94,6.94,0,0,1,4.26,2,9,9,0,0,1,2.52,8.31Z" style="fill:gray"/><path d="M82.15,18.19a12.58,12.58,0,0,0-.34-4.47,5.44,5.44,0,0,0-2.25-3.34,8.91,8.91,0,0,0-3.89-.85c-1.42-.13-2.91-.07-4.53-.22l0-.19a9.43,9.43,0,0,1,4.57-1.59,6.86,6.86,0,0,1,2.53.29A7.35,7.35,0,0,1,80.5,9.09a6.68,6.68,0,0,1,2.29,4.44,11.94,11.94,0,0,1-.45,4.7Z" style="fill:gray"/><path d="M91.15,13.11a11.85,11.85,0,0,0-.59-4.26,5.78,5.78,0,0,0-2.31-3.17A4.93,4.93,0,0,0,86.46,5c-.6-.19-1.28-.18-1.93-.35-.33-.07-.68-.06-1-.1l-1-.14a12.84,12.84,0,0,1-2.24-.26l0-.19A12,12,0,0,1,82.3,3a12.23,12.23,0,0,1,2.35-.35A7,7,0,0,1,91.53,8.6a11.35,11.35,0,0,1-.18,4.54Z" style="fill:gray"/><path d="M88.2,57.72s-5.26-2-7,3.16.4,7.34-1.44,11.17-4.27,3.15-3,6,3,4.77.2,7.84c-5.2,5.69,2.65,7.83-1.66,11.37-2.89,2.37-4.54,6.06-1.64,9.17,5.41,5.83-4.08,6.63,0,8.2s13.31,4.48,12.27,2S70.36,111.1,88.2,57.72Z" style="stroke:#000;stroke-miterlimit:10"/><ellipse cx="43.83" cy="21.92" rx="5.17" ry="8.68" transform="translate(-1.96 4.46) rotate(-5.69)" style="fill:#31c8c5;stroke:#000;stroke-miterlimit:10"/><ellipse cx="43.33" cy="22.34" rx="3.48" ry="6.79" transform="translate(-2 4.41) rotate(-5.69)" style="fill:#f7cb14;stroke:#000;stroke-miterlimit:10"/><path d="M43,18.93a5.45,5.45,0,0,1,.95,1.67,7.09,7.09,0,0,1,.39,1.73,7,7,0,0,1,0,1.77,5.38,5.38,0,0,1-.6,1.83,5,5,0,0,1-1-1.67,7.27,7.27,0,0,1-.35-3.5A5.26,5.26,0,0,1,43,18.93Z"/><path d="M69.16,24.22c.39,4.77-1.59,8.83-4.44,9.07s-5.47-3.45-5.87-8.23.86-8,3.61-8.8S68.77,19.44,69.16,24.22Z" style="fill:#31c8c5;stroke:#000;stroke-miterlimit:10"/><ellipse cx="63.3" cy="24.75" rx="3.49" ry="6.8" transform="translate(-2.05 6.08) rotate(-5.41)" style="fill:#f7cb14;stroke:#000;stroke-miterlimit:10"/><path d="M63,21.22a5.21,5.21,0,0,1,.94,1.67,7.43,7.43,0,0,1,.34,3.5,5.44,5.44,0,0,1-.62,1.83,5.29,5.29,0,0,1-1-1.68,7.44,7.44,0,0,1-.38-1.73A7.52,7.52,0,0,1,62.35,23,5.39,5.39,0,0,1,63,21.22Z"/><path d="M54,102.24c-1.67,4.68.19,9.4,1.53,9.72,2.3.56,6.34-2.71,8-7.39s.5-9.77-1.36-9.68C59,95.05,55.61,97.56,54,102.24Z" style="fill:#af3e00;stroke:#000;stroke-miterlimit:10;stroke-width:2px"/><path d="M56,109.15a9.05,9.05,0,0,1-.32-3.51,11.8,11.8,0,0,1,.74-3.1,11.19,11.19,0,0,1,1.53-2.79,8.9,8.9,0,0,1,2.61-2.38,8.88,8.88,0,0,1,.33,3.51,11.8,11.8,0,0,1-.74,3.1,12,12,0,0,1-1.55,2.79A9,9,0,0,1,56,109.15Z"/><path d="M58.35,84.94c-1.37,4.28.91,8.47,2.32,8.71,2.43.41,6.36-2.69,7.74-7S68.2,77.86,66.27,78C63.06,78.28,59.72,80.66,58.35,84.94Z" style="fill:#af3e00;stroke:#000;stroke-miterlimit:10;stroke-width:2px"/><path d="M60.94,91.09a7.81,7.81,0,0,1-.51-3.22A9.54,9.54,0,0,1,61,85a9.81,9.81,0,0,1,1.36-2.55,7.72,7.72,0,0,1,2.45-2.17,7.85,7.85,0,0,1,.52,3.22,9.88,9.88,0,0,1-.56,2.84,9.55,9.55,0,0,1-1.37,2.55A7.79,7.79,0,0,1,60.94,91.09Z"/><path d="M62.49,67.28c-1.3,4.52,1.07,9,2.49,9.33,2.46.51,6.37-2.68,7.67-7.19s-.37-9.39-2.31-9.28C67.11,60.32,63.8,62.77,62.49,67.28Z" style="fill:#af3e00;stroke:#000;stroke-miterlimit:10;stroke-width:2px"/><path d="M65.22,73.9a8.21,8.21,0,0,1-.58-3.32,10.67,10.67,0,0,1,1.83-5.69,8.4,8.4,0,0,1,2.42-2.36,8.46,8.46,0,0,1,.58,3.33,10.39,10.39,0,0,1-.52,3,10,10,0,0,1-1.33,2.71A8.32,8.32,0,0,1,65.22,73.9Z"/><path d="M77,41c-7.15-.55-8.76,2.83-9,5.59-.11,1.41-.48,6,5.81,6.87,6.83,1,10.74-4.18,10.59-5.63C84.18,45.37,82.7,41.4,77,41Z" style="fill:#b60000;stroke:#000;stroke-miterlimit:10;stroke-width:2px"/><path d="M71.09,41.6c5.8-3.69,10.38,1.9,10.38,1.9s-2,2.46-3,2.65-2.21-4.9-2.21-4.9S74.38,45,73.45,45C73.23,45,70.68,41.86,71.09,41.6Z" style="fill:#31c8c5;stroke:#000;stroke-miterlimit:10"/><path d="M70.83,51.77c4.62,5.22,9.84-.42,9.84-.42s-.89-4.26-1.83-3.77-3.65,4.59-3.65,4.59a30.75,30.75,0,0,0-1.38-4.31C73.67,47.7,70.56,51.47,70.83,51.77Z" style="fill:#31c8c5;stroke:#000;stroke-miterlimit:10"/><path d="M41.73,25.55a23.84,23.84,0,0,1-15.89,9.13A23.86,23.86,0,0,1,41.73,25.55Z" style="stroke:#f9f912;stroke-miterlimit:10"/><path d="M60.25,27.56a23.85,23.85,0,0,1-16.56,7.86A23.87,23.87,0,0,1,60.25,27.56Z" style="stroke:#f9f912;stroke-miterlimit:10"/><path d="M42.4,20.7a23.76,23.76,0,0,0-9,7.14,26.56,26.56,0,0,0,9.31-3.38Z" style="stroke:#f9f912;stroke-miterlimit:10"/><path d="M62.57,22.91a23.59,23.59,0,0,0-8.88,6.18A26.61,26.61,0,0,0,63,27Z" style="stroke:#f9f912;stroke-miterlimit:10"/></g></svg>