<svg xmlns="http://www.w3.org/2000/svg" xmlns:xlink="http://www.w3.org/1999/xlink" viewBox="0 0 124 150"><defs><linearGradient id="Безымянный_градиент_110" x1="40.83" y1="147.58" x2="40.83" y2="131.19" gradientUnits="userSpaceOnUse"><stop offset="0"/><stop offset="1" stop-color="#713813"/></linearGradient><linearGradient id="Безымянный_градиент_110-2" x1="86.61" y1="147.58" x2="86.61" y2="131.19" xlink:href="#Безымянный_градиент_110"/><linearGradient id="Безымянный_градиент_102" x1="64.81" y1="30.56" x2="64.81" y2="3.62" gradientUnits="userSpaceOnUse"><stop offset="0" stop-color="#631"/><stop offset="0.45" stop-color="#643211"/><stop offset="0.61" stop-color="#5d2f10"/><stop offset="0.72" stop-color="#52290e"/><stop offset="0.82" stop-color="#41200b"/><stop offset="0.9" stop-color="#2b1507"/><stop offset="0.97" stop-color="#100803"/><stop offset="1"/></linearGradient><linearGradient id="Безымянный_градиент_101" x1="64.07" y1="149.04" x2="64.07" y2="1.66" gradientUnits="userSpaceOnUse"><stop offset="0"/><stop offset="0" stop-color="#050301"/><stop offset="0.02" stop-color="#221106"/><stop offset="0.04" stop-color="#391c09"/><stop offset="0.07" stop-color="#49240c"/><stop offset="0.09" stop-color="#52290e"/><stop offset="0.13" stop-color="#552a0e"/><stop offset="0.2" stop-color="#644836"/><stop offset="0.27" stop-color="#706056"/><stop offset="0.34" stop-color="#79726d"/><stop offset="0.4" stop-color="#7e7c7b"/><stop offset="0.46" stop-color="gray"/><stop offset="0.53" stop-color="#7f7d7c"/><stop offset="0.59" stop-color="#7e7671"/><stop offset="0.66" stop-color="#7b695d"/><stop offset="0.72" stop-color="#775742"/><stop offset="0.78" stop-color="#734020"/><stop offset="0.8" stop-color="#713813"/><stop offset="0.85" stop-color="#6e3713"/><stop offset="0.89" stop-color="#653211"/><stop offset="0.92" stop-color="#562a0e"/><stop offset="0.95" stop-color="#40200b"/><stop offset="0.97" stop-color="#241206"/><stop offset="1" stop-color="#020100"/><stop offset="1"/></linearGradient></defs><title>босс2 анимация атаки(150-134)</title><g id="Слой_14" data-name="Слой 14"><ellipse cx="40.83" cy="139.39" rx="11.93" ry="8.2" style="stroke:#000;stroke-miterlimit:10;fill:url(#Безымянный_градиент_110)"/><ellipse cx="86.61" cy="139.39" rx="11.93" ry="8.2" style="stroke:#000;stroke-miterlimit:10;fill:url(#Безымянный_градиент_110-2)"/><path d="M85.78,21.71c-2.52,2.17-2.33,4.55-4.53,7-1.48,1.61-2.8,2.1-4,1.83C76.17,24.92,71,20.6,71,20.62c-4.68,1.84-9.42,7.73-16.56,9.06-7,1.29-8.26-1.95-10.21-8.39S47.85,11,58.46,6.64C72.25,1,79.39,4.11,83,9.11,85.32,12.43,85.78,15.94,85.78,21.71Z" style="stroke:#000;stroke-miterlimit:10;fill:url(#Безымянный_градиент_102)"/><path d="M61,20.68a12,12,0,0,0,0-4.3,5.82,5.82,0,0,0-1.85-3.46A4.84,4.84,0,0,0,57.48,12c-.57-.27-1.24-.36-1.86-.61a9.74,9.74,0,0,0-1-.25l-1-.28a13.79,13.79,0,0,1-2.18-.57v-.2a11.58,11.58,0,0,1,2.25-.64,12.49,12.49,0,0,1,2.37,0,7,7,0,0,1,6,6.84,11.37,11.37,0,0,1-.81,4.47Z" style="fill:gray"/><path d="M72.71,16.21a11.73,11.73,0,0,0,0-4.3,5.71,5.71,0,0,0-1.85-3.46,4.79,4.79,0,0,0-1.67-.92c-.57-.28-1.25-.36-1.86-.62-.32-.12-.67-.15-1-.25l-1-.28a12.5,12.5,0,0,1-2.18-.56l0-.2A11.58,11.58,0,0,1,65.35,5a13.49,13.49,0,0,1,2.38,0,7.06,7.06,0,0,1,6,6.85,11.41,11.41,0,0,1-.81,4.47Z" style="fill:gray"/><path d="M106.54,148.86c-17.44-.28-16.27-12.47-29.07-5.57-4.39,2.36-2.82,6.53-14.61,5.63-10.1-.77-3.65-2.34-15.14-6.85-10.27-4-6.89,4.51-27.15,6.79-10.3,1.15-11-4.5-9.71-9.88,2-8.29,5.5-12.24,25.09-17.24,4.88-1.25,14.37-9.37,15.46-11.7,6.81-14.57,10.16-37.17,14.53-51.89,1.28-4.32,4.88-12,8-22,.66-3.45,1.57-4.75,4-7.06s6.74-6.25,9.26-8.42c1,5.4,1.43,6.81,1.92,9.2C89.8,33,94.47,24.2,93,18.8,92,14.92,82.7,25.38,80.22,27.5c-5.75,4.9-6.8,5-10.54,6.26C63,36,60.57,21.16,65.62,17.12c1-.79-1.64-2,12.39-11.46C94.71-5.6,109.44,9.55,109.25,18.8c-.37,17.48-11.74,23.68-21.87,47.4-10.4,24.33-10.85,45.34-.85,50.73,3.65,2,14.43,5.44,14.67,5.34,9.86,3,15.17,6.27,16.34,16.49C118.17,144.31,118.16,149,106.54,148.86Z" style="stroke:#000;stroke-miterlimit:10;fill:url(#Безымянный_градиент_101)"/><path d="M64.22,133.48c-5.55-.51-9-4.34-8.9-5.53.14-1.51,3.72-8.33,9.27-7.81S75.33,126.55,74.7,128C73.66,130.47,69.76,134,64.22,133.48Z" style="fill:#31c8c5;stroke:#000;stroke-miterlimit:10"/><path d="M85.94,133.7c-5-.53-8-3.78-7.91-4.77.13-1.25,3.38-6.85,8.33-6.31s9.56,5.54,9,6.75C94.4,131.38,90.9,134.24,85.94,133.7Z" style="fill:#31c8c5;stroke:#000;stroke-miterlimit:10"/><path d="M45.47,133.64c-5,.48-8.62-2.07-8.73-3.06-.13-1.26,1.91-7.4,6.87-7.89s10.49,3.48,10.18,4.78C53.27,129.63,50.42,133.15,45.47,133.64Z" style="fill:#31c8c5;stroke:#000;stroke-miterlimit:10"/><path d="M28.88,131.2c-3.94.74-7-1-7.2-1.81-.19-1,1-6,4.95-6.77s8.64,2,8.48,3.08C34.84,127.46,32.81,130.46,28.88,131.2Z" style="fill:#31c8c5;stroke:#000;stroke-miterlimit:10"/><path d="M103.7,130.1c-4-.6-6.3-3.31-6.19-4.09.15-1,2.95-5.35,6.91-4.75s7.49,4.77,7,5.71C110.57,128.55,107.66,130.7,103.7,130.1Z" style="fill:#31c8c5;stroke:#000;stroke-miterlimit:10"/><path d="M79,24a8.56,8.56,0,0,0-.89-4,7.4,7.4,0,0,0-2.44-3,10,10,0,0,0-3.52-1.25C71,15.32,69.6,15.31,68.1,15l0-.19a6.91,6.91,0,0,1,2.09-.89c.37-.1.75-.15,1.14-.22s.77,0,1.17,0a6.91,6.91,0,0,1,4.26,2A8.9,8.9,0,0,1,79.24,24Z" style="fill:gray"/><path d="M85.68,17.19a12.58,12.58,0,0,0-.34-4.47,5.44,5.44,0,0,0-2.25-3.34,8.91,8.91,0,0,0-3.89-.85c-1.42-.13-2.91-.07-4.53-.22l0-.19a9.43,9.43,0,0,1,4.57-1.59,6.86,6.86,0,0,1,2.53.29A7.35,7.35,0,0,1,84,8.09a6.68,6.68,0,0,1,2.29,4.44,11.94,11.94,0,0,1-.45,4.7Z" style="fill:gray"/><path d="M94.71,12.53a11.85,11.85,0,0,0-.59-4.26A5.83,5.83,0,0,0,91.81,5.1,5.07,5.07,0,0,0,90,4.42c-.61-.19-1.29-.18-1.93-.35-.33-.07-.68-.06-1-.1l-1-.14a12.8,12.8,0,0,1-2.24-.25l0-.2a12,12,0,0,1,2.14-.95,12.23,12.23,0,0,1,2.35-.35A7,7,0,0,1,95.09,8a11.34,11.34,0,0,1-.18,4.54Z" style="fill:gray"/><path d="M90.27,57.72s-5.26-2-7,3.16S86,68.24,81.85,72.05c-3.2,2.92-4.26,3.15-3,6s3,4.77.19,7.84c-5.2,5.69.84,7.15-1.66,11.37-1.9,3.22-4.53,6.06-1.64,9.17,5.42,5.83-4.08,6.63,0,8.2s13.31,4.48,12.28,2S72.42,111.1,90.27,57.72Z" style="stroke:#000;stroke-miterlimit:10"/><ellipse cx="45.9" cy="21.92" rx="5.17" ry="8.68" transform="translate(-2.99 7.89) rotate(-9.52)" style="fill:#31c8c5;stroke:#000;stroke-miterlimit:10"/><ellipse cx="45.42" cy="22.37" rx="3.97" ry="7.75" transform="matrix(0.99, -0.17, 0.17, 0.99, -3.08, 7.82)" style="fill:#f9f912;stroke:#000;stroke-miterlimit:10"/><path d="M44.77,18.46a6.73,6.73,0,0,1,1.11,1.87,9.94,9.94,0,0,1,.54,2,9.13,9.13,0,0,1,.13,2,6.39,6.39,0,0,1-.44,2.13A6.37,6.37,0,0,1,45,24.59a9.08,9.08,0,0,1-.55-2,9.9,9.9,0,0,1-.12-2A6.75,6.75,0,0,1,44.77,18.46Z"/><path d="M70.16,24.74c.83,4.72-.78,9-3.59,9.45S60.8,31.25,60,26.53s.12-8.08,2.79-9.1S69.33,20,70.16,24.74Z" style="fill:#31c8c5;stroke:#000;stroke-miterlimit:10"/><ellipse cx="64.37" cy="25.81" rx="3.89" ry="7.56" transform="translate(-3.66 12.36) rotate(-10.67)" style="fill:#f9f912;stroke:#000;stroke-miterlimit:10"/><path d="M63.61,21.78a6.48,6.48,0,0,1,1.15,1.86,9.8,9.8,0,0,1,.76,4,6.45,6.45,0,0,1-.4,2.14A6.57,6.57,0,0,1,64,27.93a9.58,9.58,0,0,1-.75-4A6.75,6.75,0,0,1,63.61,21.78Z"/><path d="M54,102.24c-1.66,4.68.2,9.4,1.53,9.72,2.31.56,6.35-2.71,8-7.39s.51-9.77-1.36-9.68C59.08,95.05,55.68,97.56,54,102.24Z" style="fill:#b60000;stroke:#000;stroke-miterlimit:10;stroke-width:2px"/><path d="M56,109.15a8.68,8.68,0,0,1-.32-3.51,11.79,11.79,0,0,1,.73-3.1A11.55,11.55,0,0,1,58,99.75a8.77,8.77,0,0,1,2.61-2.38,8.68,8.68,0,0,1,.32,3.51,11.42,11.42,0,0,1-.74,3.1,11.94,11.94,0,0,1-1.54,2.79A9,9,0,0,1,56,109.15Z"/><path d="M58.42,84.94c-1.38,4.28.9,8.47,2.31,8.71,2.44.41,6.37-2.69,7.75-7s-.21-8.82-2.14-8.66C63.13,78.28,59.79,80.66,58.42,84.94Z" style="fill:#b60000;stroke:#000;stroke-miterlimit:10;stroke-width:2px"/><path d="M61,91.09a8,8,0,0,1-.52-3.22A9.88,9.88,0,0,1,61.05,85a9.52,9.52,0,0,1,1.36-2.55,7.79,7.79,0,0,1,2.44-2.17,7.69,7.69,0,0,1,.52,3.22,9.54,9.54,0,0,1-.55,2.84,10.16,10.16,0,0,1-1.37,2.55A7.79,7.79,0,0,1,61,91.09Z"/><path d="M62.56,67.28c-1.31,4.52,1.07,9,2.49,9.33,2.46.51,6.36-2.68,7.67-7.19s-.37-9.39-2.31-9.28C67.18,60.32,63.86,62.77,62.56,67.28Z" style="fill:#b60000;stroke:#000;stroke-miterlimit:10;stroke-width:2px"/><path d="M65.28,73.9a8.36,8.36,0,0,1-.57-3.32,10.88,10.88,0,0,1,.5-3,10.65,10.65,0,0,1,1.33-2.71A8.36,8.36,0,0,1,69,62.53a8.28,8.28,0,0,1,.58,3.33,10.05,10.05,0,0,1-.51,3,10.34,10.34,0,0,1-1.33,2.71A8.23,8.23,0,0,1,65.28,73.9Z"/><path d="M76.72,41.87c-6.36-.48-7.78,2.43-8,4.81-.1,1.21-.43,5.13,5.16,5.9,6.07.84,9.55-3.59,9.41-4.84C83.09,45.67,81.77,42.25,76.72,41.87Z" style="fill:#b60000;stroke:#000;stroke-miterlimit:10;stroke-width:2px"/><path d="M71.84,42.87c4.7-2.89,8.42,1.5,8.42,1.5s-1.65,1.92-2.41,2.07-1.79-3.84-1.79-3.84-1.55,2.95-2.3,2.92C73.58,45.51,71.51,43.08,71.84,42.87Z" style="fill:#31c8c5;stroke:#000;stroke-miterlimit:10"/><path d="M71.64,51.61c3.5,4.13,7.77-1.22,7.77-1.22S78.79,47.57,78,48s-3,3.82-3,3.82a23.63,23.63,0,0,0-1-3.47C74,48.23,71.44,51.37,71.64,51.61Z" style="fill:#31c8c5;stroke:#000;stroke-miterlimit:10"/><path d="M41.87,24.75a23.82,23.82,0,0,1-15.52,9.74A23.89,23.89,0,0,1,41.87,24.75Z" style="stroke:#f9f912;stroke-miterlimit:10"/><path d="M34.11,34.47a23.82,23.82,0,0,1-15.52,9.74A23.81,23.81,0,0,1,34.11,34.47Z" style="stroke:#f9f912;stroke-miterlimit:10"/><path d="M60.85,28.92a23.83,23.83,0,0,1-16.1,8.76A23.83,23.83,0,0,1,60.85,28.92Z" style="stroke:#f9f912;stroke-miterlimit:10"/><path d="M49.92,38.87a23.87,23.87,0,0,1-16.1,8.76A23.83,23.83,0,0,1,49.92,38.87Z" style="stroke:#f9f912;stroke-miterlimit:10"/></g></svg>