<svg xmlns="http://www.w3.org/2000/svg" xmlns:xlink="http://www.w3.org/1999/xlink" viewBox="0 0 124 150"><defs><linearGradient id="Безымянный_градиент_110" x1="38.77" y1="146.99" x2="38.77" y2="130.6" gradientUnits="userSpaceOnUse"><stop offset="0"/><stop offset="1" stop-color="#713813"/></linearGradient><linearGradient id="Безымянный_градиент_110-2" x1="85.55" y1="146.99" x2="85.55" y2="130.6" xlink:href="#Безымянный_градиент_110"/><linearGradient id="Безымянный_градиент_102" x1="55.96" y1="29.59" x2="55.96" y2="3.08" gradientUnits="userSpaceOnUse"><stop offset="0" stop-color="#631"/><stop offset="0.45" stop-color="#643211"/><stop offset="0.61" stop-color="#5d2f10"/><stop offset="0.72" stop-color="#52290e"/><stop offset="0.82" stop-color="#41200b"/><stop offset="0.9" stop-color="#2b1507"/><stop offset="0.97" stop-color="#100803"/><stop offset="1"/></linearGradient><linearGradient id="Безымянный_градиент_101" x1="62" y1="148.46" x2="62" y2="1.98" gradientUnits="userSpaceOnUse"><stop offset="0"/><stop offset="0" stop-color="#050301"/><stop offset="0.02" stop-color="#221106"/><stop offset="0.04" stop-color="#391c09"/><stop offset="0.07" stop-color="#49240c"/><stop offset="0.09" stop-color="#52290e"/><stop offset="0.13" stop-color="#552a0e"/><stop offset="0.2" stop-color="#644836"/><stop offset="0.27" stop-color="#706056"/><stop offset="0.34" stop-color="#79726d"/><stop offset="0.4" stop-color="#7e7c7b"/><stop offset="0.46" stop-color="gray"/><stop offset="0.53" stop-color="#7f7d7c"/><stop offset="0.59" stop-color="#7e7671"/><stop offset="0.66" stop-color="#7b695d"/><stop offset="0.72" stop-color="#775742"/><stop offset="0.78" stop-color="#734020"/><stop offset="0.8" stop-color="#713813"/><stop offset="0.85" stop-color="#6e3713"/><stop offset="0.89" stop-color="#653211"/><stop offset="0.92" stop-color="#562a0e"/><stop offset="0.95" stop-color="#40200b"/><stop offset="0.97" stop-color="#241206"/><stop offset="1" stop-color="#020100"/><stop offset="1"/></linearGradient></defs><title>босс2 анимация атаки(150-134)</title><g id="Слой_17" data-name="Слой 17"><ellipse cx="38.77" cy="138.79" rx="11.93" ry="8.2" style="stroke:#000;stroke-miterlimit:10;fill:url(#Безымянный_градиент_110)"/><ellipse cx="85.55" cy="138.79" rx="11.93" ry="8.2" style="stroke:#000;stroke-miterlimit:10;fill:url(#Безымянный_градиент_110-2)"/><path d="M79.14,21c-2.52,2.17-6.75,3.68-9,6.08-1.48,1.61-2.8,2.1-4,1.83-1.09-5.57-2.9-9.37-5.65-8.43l-.14.05c-4.68,1.84-10.42,4.21-17,7.57-8.85,4.49-8.26-1.95-10.21-8.39s3.59-9.21,14.43-12.91C70.87-1.16,71.17,5.72,76.65,8.5,76.84,8.59,77.87,15.47,79.14,21Z" style="stroke:#000;stroke-miterlimit:10;fill:url(#Безымянный_градиент_102)"/><path d="M49.94,20.09a12,12,0,0,0,0-4.3,5.82,5.82,0,0,0-1.85-3.46,4.84,4.84,0,0,0-1.68-.92c-.57-.27-1.24-.36-1.86-.61-.32-.12-.67-.16-1-.25l-1-.29a12.5,12.5,0,0,1-2.18-.56l0-.2a11.88,11.88,0,0,1,2.26-.64,12.49,12.49,0,0,1,2.37,0,7.18,7.18,0,0,1,4.28,2.36,7.11,7.11,0,0,1,1.7,4.48,11.37,11.37,0,0,1-.81,4.47Z" style="fill:gray"/><path d="M62.64,16.62a12,12,0,0,0,0-4.3A5.77,5.77,0,0,0,60.8,8.85a4.94,4.94,0,0,0-1.67-.91c-.57-.28-1.25-.36-1.87-.62-.31-.12-.66-.15-1-.25l-1-.28a12.83,12.83,0,0,1-2.19-.56V6a11.58,11.58,0,0,1,2.25-.64,13.38,13.38,0,0,1,2.37,0,7,7,0,0,1,6,6.85,11.23,11.23,0,0,1-.81,4.47Z" style="fill:gray"/><path d="M104.47,148.27C93.34,147,88.2,128.58,75.4,142.7c-5.21,5.75-4.85,5.6-14.61,5.63-10.9,0-11.13-8.25-15.36-9.54C29.65,134,32.81,147,18.5,148.27c-10.32.9-11-4.5-9.7-9.88,1.95-8.29,5.5-12.24,25.08-17.24,4.89-1.25,14.37-9.37,15.46-11.7C56.15,94.88,59.56,72.06,62,57.13c1.21-7.44,2.73-14.46,4.48-24.94,2-.84,3.92-3.53,6.56-5.17s3.62-3,6.14-5.17c-1,4.3-1.19,5.29-1,7.85C79.64,35,88.4,23.61,86.94,18.21c-1-3.88-12.35,7.58-15,9.51-6.61,4.88-6.32,6.06-10.06,7.3-6.73,2.23-10.41-14.45-5.36-18.49,1-.79-.48-2.42,14.69-9.91,24.69-12.19,33.64,2.5,31.94,11.59C99.47,38,91.8,43.5,85.31,65.61,77.86,91,74.46,111,84.46,116.34c3.65,2,14.43,5.44,14.67,5.34,9.87,3,15.18,6.27,16.34,16.49C116.11,143.72,116,149.59,104.47,148.27Z" style="stroke:#000;stroke-miterlimit:10;fill:url(#Безымянный_градиент_101)"/><path d="M63.15,134.89c-5.54-.51-9-4.34-8.89-5.53.13-1.51,3.72-8.33,9.27-7.81s10.74,6.41,10.11,7.88C72.59,131.88,68.7,135.41,63.15,134.89Z" style="fill:#31c8c5;stroke:#000;stroke-miterlimit:10"/><path d="M44.13,132.11c4.95-.53,8-3.78,7.91-4.77-.12-1.26-3.37-6.85-8.33-6.32s-9.56,5.55-9,6.76C35.68,129.79,39.18,132.65,44.13,132.11Z" style="fill:#31c8c5;stroke:#000;stroke-miterlimit:10"/><path d="M84.61,132c5,.49,8.62-2.06,8.72-3,.13-1.26-1.91-7.4-6.86-7.89s-10.5,3.48-10.18,4.78C76.81,128,79.65,131.56,84.61,132Z" style="fill:#31c8c5;stroke:#000;stroke-miterlimit:10"/><path d="M25.81,132.61c-3.93.74-7-1-7.19-1.81-.2-1,1-6,4.94-6.77s8.65,2,8.49,3.08C31.78,128.87,29.75,131.87,25.81,132.61Z" style="fill:#31c8c5;stroke:#000;stroke-miterlimit:10"/><path d="M102.64,132.51c-4-.6-6.31-3.31-6.19-4.09.15-1,3-5.35,6.91-4.75s7.48,4.77,7,5.71C109.51,131,106.6,133.11,102.64,132.51Z" style="fill:#31c8c5;stroke:#000;stroke-miterlimit:10"/><path d="M72.26,22a12,12,0,0,0,0-4.31,5.79,5.79,0,0,0-1.85-3.46,5.24,5.24,0,0,0-1.67-.92c-.58-.27-1.25-.36-1.87-.61a9.74,9.74,0,0,0-1-.25l-1-.28a13,13,0,0,1-2.18-.57v-.2a11.58,11.58,0,0,1,2.25-.64,12.5,12.5,0,0,1,2.37,0,7,7,0,0,1,6,6.84A11.42,11.42,0,0,1,72.45,22Z" style="fill:gray"/><path d="M83.65,16.21a11.52,11.52,0,0,0,0-4.3,5.71,5.71,0,0,0-1.85-3.46,4.79,4.79,0,0,0-1.67-.92c-.57-.28-1.25-.36-1.87-.62-.31-.12-.66-.15-1-.25l-1-.28a12.83,12.83,0,0,1-2.19-.56v-.2A11.58,11.58,0,0,1,76.3,5a13.38,13.38,0,0,1,2.37,0,7,7,0,0,1,6,6.85,11.4,11.4,0,0,1-.8,4.47Z" style="fill:gray"/><path d="M93.46,12.78a12,12,0,0,0,0-4.3A5.82,5.82,0,0,0,91.62,5a4.84,4.84,0,0,0-1.68-.92c-.57-.27-1.24-.36-1.86-.61-.32-.12-.67-.16-1-.25l-1-.28a13.52,13.52,0,0,1-2.18-.57l0-.2a11.88,11.88,0,0,1,2.26-.64,12.49,12.49,0,0,1,2.37,0,7.18,7.18,0,0,1,4.28,2.36,7.11,7.11,0,0,1,1.7,4.48,11.37,11.37,0,0,1-.81,4.47Z" style="fill:gray"/><path d="M88.2,57.13s-5.79.54-7.5,5.74,2.72,6.23-.91,8.59c-1.64,1.06-4.26,3.15-3,6s3,4.77.19,7.84C71.79,91,76.8,92,75.33,96.63c-1.54,4.93-4.18,6.92-1.64,9.17,6,5.28-4.08,6.63,0,8.2S87,118.48,86,116,70.36,110.51,88.2,57.13Z" style="stroke:#000;stroke-miterlimit:10"/><ellipse cx="36.86" cy="21.33" rx="5.17" ry="8.68" transform="translate(-2.08 4.08) rotate(-6.16)" style="fill:#31c8c5;stroke:#000;stroke-miterlimit:10"/><ellipse cx="36.36" cy="21.75" rx="2.48" ry="4.85" transform="translate(-2.13 4.03) rotate(-6.16)" style="fill:#af3e00;stroke:#000;stroke-miterlimit:10"/><path d="M36.08,19.19A3.48,3.48,0,0,1,37,20.41,4.13,4.13,0,0,1,37.29,23a3.52,3.52,0,0,1-.64,1.39,3.51,3.51,0,0,1-.93-1.22,4.27,4.27,0,0,1-.35-1.29,4.6,4.6,0,0,1,.07-1.33A3.82,3.82,0,0,1,36.08,19.19Z"/><path d="M62.78,25.55c.49,4.77-1.41,8.87-4.25,9.17s-5.55-3.34-6-8.11.69-8,3.42-8.88S62.28,20.78,62.78,25.55Z" style="fill:#31c8c5;stroke:#000;stroke-miterlimit:10"/><ellipse cx="56.93" cy="26.2" rx="2.5" ry="4.86" transform="translate(-2.64 6.72) rotate(-6.6)" style="fill:#af3e00;stroke:#000;stroke-miterlimit:10"/><path d="M56.63,23.59a3.64,3.64,0,0,1,.93,1.22,4.23,4.23,0,0,1,.36,1.28,4,4,0,0,1-.06,1.33,3.33,3.33,0,0,1-.63,1.4,3.64,3.64,0,0,1-.93-1.22A4.19,4.19,0,0,1,56,25,3.46,3.46,0,0,1,56.63,23.59Z"/><path d="M53.1,101.76c-2,4.25.22,8.55,1.8,8.84,2.71.5,7.46-2.47,9.42-6.73s.6-8.87-1.6-8.79A11.28,11.28,0,0,0,53.1,101.76Z" style="fill:#f7cb14;stroke:#000;stroke-miterlimit:10;stroke-width:2px"/><path d="M55.45,108a8.42,8.42,0,0,1-.06-3.38,10.66,10.66,0,0,1,1-2.87,10.37,10.37,0,0,1,1.72-2.49,8.45,8.45,0,0,1,2.75-2,8.26,8.26,0,0,1,.07,3.38,10.56,10.56,0,0,1-1,2.87,10.7,10.7,0,0,1-1.73,2.49A8.29,8.29,0,0,1,55.45,108Z"/><path d="M57.63,84.35c-1.57,4.28,1,8.47,2.65,8.71,2.78.41,7.28-2.69,8.85-7s-.24-8.82-2.45-8.66A10.5,10.5,0,0,0,57.63,84.35Z" style="fill:#f7cb14;stroke:#000;stroke-miterlimit:10;stroke-width:2px"/><path d="M60.59,90.5a8,8,0,0,1-.35-3.28,10.17,10.17,0,0,1,2.19-5.4A8,8,0,0,1,65,79.72,7.89,7.89,0,0,1,65.34,83a9.61,9.61,0,0,1-.7,2.85,10.11,10.11,0,0,1-1.5,2.54A7.87,7.87,0,0,1,60.59,90.5Z"/><path d="M62,66.79c-1.44,4.11,1.18,8.23,2.75,8.49,2.72.46,7-2.44,8.47-6.54s-.41-8.55-2.55-8.45A9.65,9.65,0,0,0,62,66.79Z" style="fill:#f7cb14;stroke:#000;stroke-miterlimit:10;stroke-width:2px"/><path d="M65,72.82a7.78,7.78,0,0,1-.45-3.16,9.2,9.2,0,0,1,.62-2.74,9,9,0,0,1,1.41-2.44,7.46,7.46,0,0,1,2.47-2,7.33,7.33,0,0,1,.45,3.16,8.89,8.89,0,0,1-.61,2.74,9,9,0,0,1-1.42,2.43A7.48,7.48,0,0,1,65,72.82Z"/><path d="M75.61,38c-7.79.07-9.23,4.47-9.23,8,0,1.77,0,7.52,6.88,8,7.47.49,11.25-6.38,11-8.17C83.73,42.77,81.79,38,75.61,38Z" style="fill:#b60000;stroke:#000;stroke-miterlimit:10;stroke-width:2px"/><path d="M68.17,40.85c7.43-5.77,13.62-.44,13.62-.44S79.22,43.79,78,44.25,75,39.12,75,39.12s-2.36,4.85-3.57,5C71.09,44.21,67.64,41.25,68.17,40.85Z" style="fill:#31c8c5;stroke:#000;stroke-miterlimit:10"/><path d="M68.65,51.93c7,6.71,12.87-1,12.87-1s-1.76-4.38-2.92-3.82-4.1,5.5-4.1,5.5-2-4.89-2.54-5.41C71.75,47,68.25,51.54,68.65,51.93Z" style="fill:#31c8c5;stroke:#000;stroke-miterlimit:10"/><path d="M35.28,20.32a23.93,23.93,0,0,0-10,5.8,25.44,25.44,0,0,0,10.47-2.56Z" style="stroke:#f9f912;stroke-miterlimit:10"/><path d="M56,24.83a23.87,23.87,0,0,0-10,5.8,25.13,25.13,0,0,0,10.47-2.56Z" style="stroke:#f9f912;stroke-miterlimit:10"/></g></svg>