<svg xmlns="http://www.w3.org/2000/svg" xmlns:xlink="http://www.w3.org/1999/xlink" viewBox="0 0 124 150"><defs><linearGradient id="Безымянный_градиент_110" x1="39.2" y1="146.58" x2="39.2" y2="130.19" gradientUnits="userSpaceOnUse"><stop offset="0"/><stop offset="1" stop-color="#713813"/></linearGradient><linearGradient id="Безымянный_градиент_110-2" x1="83.98" y1="146.58" x2="83.98" y2="130.19" xlink:href="#Безымянный_градиент_110"/><linearGradient id="Безымянный_градиент_102" x1="57.34" y1="29.36" x2="57.34" y2="1.95" gradientTransform="translate(1.54 2.06) rotate(-0.61)" gradientUnits="userSpaceOnUse"><stop offset="0" stop-color="#631"/><stop offset="0.45" stop-color="#643211"/><stop offset="0.61" stop-color="#5d2f10"/><stop offset="0.72" stop-color="#52290e"/><stop offset="0.82" stop-color="#41200b"/><stop offset="0.9" stop-color="#2b1507"/><stop offset="0.97" stop-color="#100803"/><stop offset="1"/></linearGradient><linearGradient id="Безымянный_градиент_101" x1="61.54" y1="148.82" x2="61.54" y2="1.63" gradientUnits="userSpaceOnUse"><stop offset="0"/><stop offset="0" stop-color="#050301"/><stop offset="0.02" stop-color="#221106"/><stop offset="0.04" stop-color="#391c09"/><stop offset="0.07" stop-color="#49240c"/><stop offset="0.09" stop-color="#52290e"/><stop offset="0.13" stop-color="#552a0e"/><stop offset="0.2" stop-color="#644836"/><stop offset="0.27" stop-color="#706056"/><stop offset="0.34" stop-color="#79726d"/><stop offset="0.4" stop-color="#7e7c7b"/><stop offset="0.46" stop-color="gray"/><stop offset="0.53" stop-color="#7f7d7c"/><stop offset="0.59" stop-color="#7e7671"/><stop offset="0.66" stop-color="#7b695d"/><stop offset="0.72" stop-color="#775742"/><stop offset="0.78" stop-color="#734020"/><stop offset="0.8" stop-color="#713813"/><stop offset="0.85" stop-color="#6e3713"/><stop offset="0.89" stop-color="#653211"/><stop offset="0.92" stop-color="#562a0e"/><stop offset="0.95" stop-color="#40200b"/><stop offset="0.97" stop-color="#241206"/><stop offset="1" stop-color="#020100"/><stop offset="1"/></linearGradient></defs><title>босс2 анимация атаки(150-134)</title><g id="Слой_10" data-name="Слой 10"><ellipse cx="39.2" cy="138.39" rx="11.93" ry="8.2" style="stroke:#000;stroke-miterlimit:10;fill:url(#Безымянный_градиент_110)"/><ellipse cx="83.98" cy="138.39" rx="11.93" ry="8.2" style="stroke:#000;stroke-miterlimit:10;fill:url(#Безымянный_градиент_110-2)"/><path d="M80.86,21.14c-2.5,2.19-4,4.92-6.13,7.34-1.46,1.63-2.78,2.13-4,1.88C69.61,24.8,67.76,21,65,22l-.14.05c-4.66,1.89-8.68,4.43-17,7.75-9.21,3.69-8.28-1.86-10.3-8.28s4.55-10.25,15-14.87C65.43,1,72.73,3.37,77.14,7.66,77.71,8.22,81.33,15.28,80.86,21.14Z" style="stroke:#000;stroke-miterlimit:10;fill:url(#Безымянный_градиент_102)"/><path d="M59.37,19.68a11.73,11.73,0,0,0,0-4.3,5.71,5.71,0,0,0-1.85-3.46A4.79,4.79,0,0,0,55.85,11c-.57-.27-1.25-.36-1.86-.61-.32-.12-.67-.16-1-.25l-1-.28a13.52,13.52,0,0,1-2.18-.57l0-.2A11.58,11.58,0,0,1,52,8.45a12.6,12.6,0,0,1,2.38,0,7,7,0,0,1,6,6.84,11.56,11.56,0,0,1-.81,4.47Z" style="fill:gray"/><path d="M69.07,16.21a12,12,0,0,0,0-4.3,5.82,5.82,0,0,0-1.85-3.46,4.84,4.84,0,0,0-1.68-.92c-.57-.28-1.24-.36-1.86-.62-.32-.12-.67-.15-1-.25l-1-.28a12.73,12.73,0,0,1-2.18-.56v-.2A11.58,11.58,0,0,1,61.72,5a13.37,13.37,0,0,1,2.37,0,7,7,0,0,1,6,6.85,11.41,11.41,0,0,1-.81,4.47Z" style="fill:gray"/><path d="M104,148.62c-15-1.8-16.27-12.47-29.07-5.57-4.39,2.37-2.81,6.53-14.61,5.63-10.09-.77-3.65-2.34-15.14-6.85-10.26-4-9.73,6-27.15,6.79-10.34.49-11-4.49-9.7-9.88,1.95-8.28,5.5-12.23,25.08-17.24,4.89-1.25,14.37-9.37,15.46-11.7,6.81-14.57,9-34.94,13.42-49.66,1.28-4.32,1.57-10,4.74-20,.66-3.44.83-8.12,1.32-10.58.13-.69,9.78-7.78,12.3-10,.24,4.32-.29,6.12-.13,8.68,1.49,5.26,7.41-4.37,6-9.77-1-3.88-12,6.07-14.47,8.15-6.11,5.08-4.5,4.16-8.29,6C57.38,35.93,54,20.92,59.09,16.88c1-.79-.58-1.76,13.45-11.22,16.71-11.26,31,3.69,30.18,12.9C101.28,35.1,95,42.25,84.85,66,74.46,90.29,74,111.3,84,116.69c3.65,2,14.43,5.44,14.67,5.34,9.87,3,15.18,6.27,16.34,16.49C115.65,144.07,115.56,150,104,148.62Z" style="stroke:#000;stroke-miterlimit:10;fill:url(#Безымянный_градиент_101)"/><path d="M63,133.48c-5.55-.51-9-4.34-8.9-5.53.14-1.51,3.72-8.33,9.27-7.81s10.74,6.41,10.11,7.88C72.48,130.47,68.58,134,63,133.48Z" style="fill:#31c8c5;stroke:#000;stroke-miterlimit:10"/><path d="M83.31,133.7c-5-.53-8-3.78-7.91-4.77.12-1.25,3.37-6.85,8.33-6.31s9.56,5.54,9,6.75C91.77,131.38,88.26,134.24,83.31,133.7Z" style="fill:#31c8c5;stroke:#000;stroke-miterlimit:10"/><path d="M42.83,133.64c-5,.48-8.62-2.07-8.72-3.06-.13-1.26,1.91-7.4,6.86-7.89s10.5,3.48,10.18,4.78C50.63,129.63,47.79,133.15,42.83,133.64Z" style="fill:#31c8c5;stroke:#000;stroke-miterlimit:10"/><path d="M26.24,131.2c-3.93.74-7-1-7.2-1.81-.19-1,1-6,4.95-6.77s8.64,2,8.48,3.08C32.21,127.46,30.18,130.46,26.24,131.2Z" style="fill:#31c8c5;stroke:#000;stroke-miterlimit:10"/><path d="M101.07,130.1c-4-.6-6.31-3.31-6.19-4.09.14-1,3-5.35,6.9-4.75s7.49,4.77,7,5.71C107.94,128.55,105,130.7,101.07,130.1Z" style="fill:#31c8c5;stroke:#000;stroke-miterlimit:10"/><path d="M72.67,24a8.72,8.72,0,0,0-.89-4,7.31,7.31,0,0,0-2.45-3,10.12,10.12,0,0,0-3.51-1.26c-1.24-.34-2.59-.35-4.09-.66l0-.2a7.63,7.63,0,0,1,2.1-.89c.37-.09.75-.15,1.13-.22s.78,0,1.18,0a6.83,6.83,0,0,1,4.26,2A8.9,8.9,0,0,1,72.87,24Z" style="fill:gray"/><path d="M80.3,18.22A12.33,12.33,0,0,0,80,13.75a5.41,5.41,0,0,0-2.26-3.34,8.85,8.85,0,0,0-3.89-.86c-1.41-.12-2.9-.07-4.52-.21l-.06-.2a9.61,9.61,0,0,1,4.58-1.59,6.69,6.69,0,0,1,2.53.3,7.46,7.46,0,0,1,2.31,1.27A6.73,6.73,0,0,1,81,13.56a12.14,12.14,0,0,1-.45,4.7Z" style="fill:gray"/><path d="M88.34,13.56a11.64,11.64,0,0,0-.6-4.26,5.79,5.79,0,0,0-2.31-3.18,4.93,4.93,0,0,0-1.78-.67c-.61-.19-1.29-.18-1.93-.35C81.39,5,81,5,80.69,5l-1.06-.13a13,13,0,0,1-2.24-.26l0-.19a11.07,11.07,0,0,1,2.14-1,13.07,13.07,0,0,1,2.35-.36,7,7,0,0,1,6.87,6,11.53,11.53,0,0,1-.17,4.54Z" style="fill:gray"/><path d="M87.63,57.72s-5.25-2-7,3.16,2.53,9.66-1.44,11.17c-1.63.62-4.27,3.15-3,6s3,4.77.2,7.84c-5.2,5.69.41,6.19-1.66,11.37-1.19,3-4.54,6.06-1.64,9.17,5.42,5.83-4.08,6.63,0,8.2s13.31,4.48,12.27,2S69.79,111.1,87.63,57.72Z" style="stroke:#000;stroke-miterlimit:10"/><ellipse cx="41.26" cy="22.92" rx="5.17" ry="8.68" transform="translate(-2.54 5.33) rotate(-7.17)" style="fill:#31c8c5;stroke:#000;stroke-miterlimit:10"/><ellipse cx="40.77" cy="23.35" rx="2.98" ry="5.82" transform="translate(-2.6 5.27) rotate(-7.17)" style="fill:#af6800;stroke:#000;stroke-miterlimit:10"/><path d="M40.37,20.19a4.71,4.71,0,0,1,1,1.53,6.1,6.1,0,0,1,.42,1.6,6.51,6.51,0,0,1,0,1.65,4.67,4.67,0,0,1-.58,1.72,4.68,4.68,0,0,1-1-1.52,6.21,6.21,0,0,1-.42-1.6,6.08,6.08,0,0,1,0-1.65A5,5,0,0,1,40.37,20.19Z"/><path d="M66.59,24.16c.44,4.77-1.5,8.85-4.35,9.12s-5.51-3.39-6-8.16.77-8,3.51-8.85S66.14,19.39,66.59,24.16Z" style="fill:#31c8c5;stroke:#000;stroke-miterlimit:10"/><ellipse cx="60.73" cy="24.75" rx="3" ry="5.83" transform="translate(-2.26 6.52) rotate(-6.03)" style="fill:#af6800;stroke:#000;stroke-miterlimit:10"/><path d="M60.41,21.72a4.27,4.27,0,0,1,.94,1.42,5.27,5.27,0,0,1,.37,1.48,5.18,5.18,0,0,1,0,1.52,4.12,4.12,0,0,1-.62,1.58,4.14,4.14,0,0,1-.94-1.41,5.27,5.27,0,0,1-.37-1.48,5.18,5.18,0,0,1,0-1.52A4.4,4.4,0,0,1,60.41,21.72Z"/><path d="M53.38,102.24c-1.67,4.68.19,9.4,1.53,9.72,2.31.56,6.34-2.71,8-7.39s.5-9.77-1.36-9.68C58.45,95.05,55.05,97.56,53.38,102.24Z" style="fill:#af6800;stroke:#000;stroke-miterlimit:10;stroke-width:2px"/><path d="M55.38,109.15a9.05,9.05,0,0,1-.32-3.51,11.8,11.8,0,0,1,.74-3.1,11.22,11.22,0,0,1,1.54-2.79,8.73,8.73,0,0,1,2.6-2.38,8.88,8.88,0,0,1,.33,3.51,11.8,11.8,0,0,1-.74,3.1A12,12,0,0,1,58,106.77,9,9,0,0,1,55.38,109.15Z"/><path d="M57.78,84.94c-1.37,4.28.91,8.47,2.32,8.71,2.43.41,6.37-2.69,7.74-7S67.63,77.86,65.7,78C62.49,78.28,59.16,80.66,57.78,84.94Z" style="fill:#af6800;stroke:#000;stroke-miterlimit:10;stroke-width:2px"/><path d="M60.38,91.09a7.83,7.83,0,0,1-.52-3.22A9.87,9.87,0,0,1,60.41,85a9.55,9.55,0,0,1,1.37-2.55,7.68,7.68,0,0,1,2.44-2.17,7.85,7.85,0,0,1,.52,3.22,9.88,9.88,0,0,1-.56,2.84,9.55,9.55,0,0,1-1.37,2.55A7.74,7.74,0,0,1,60.38,91.09Z"/><path d="M61.92,67.28c-1.3,4.52,1.07,9,2.5,9.33,2.45.51,6.36-2.68,7.66-7.19s-.37-9.39-2.31-9.28C66.54,60.32,63.23,62.77,61.92,67.28Z" style="fill:#af6800;stroke:#000;stroke-miterlimit:10;stroke-width:2px"/><path d="M64.65,73.9a8.38,8.38,0,0,1-.58-3.32,10.88,10.88,0,0,1,.51-3,10.61,10.61,0,0,1,1.32-2.71,8.4,8.4,0,0,1,2.42-2.36,8.46,8.46,0,0,1,.58,3.33,10.58,10.58,0,0,1-1.84,5.68A8.36,8.36,0,0,1,64.65,73.9Z"/><path d="M76.53,40.81c-7.83-.57-9.59,2.89-9.83,5.72-.12,1.44-.52,6.1,6.36,7,7.47,1,11.75-4.27,11.59-5.75C84.36,45.33,82.75,41.26,76.53,40.81Z" style="fill:#b60000;stroke:#000;stroke-miterlimit:10;stroke-width:2px"/><path d="M70,41.47c6.35-3.77,11.37,2,11.37,2s-2.23,2.51-3.25,2.71-2.42-5-2.42-5S73.64,45,72.62,44.92C72.38,44.91,69.59,41.74,70,41.47Z" style="fill:#31c8c5;stroke:#000;stroke-miterlimit:10"/><path d="M69.76,51.88c5,5.34,10.77-.43,10.77-.43s-1-4.37-2-3.86-4,4.69-4,4.69A29.89,29.89,0,0,0,73,47.87C72.86,47.71,69.46,51.57,69.76,51.88Z" style="fill:#31c8c5;stroke:#000;stroke-miterlimit:10"/><path d="M40.19,23.35a23.92,23.92,0,0,0-15,7.74A23.91,23.91,0,0,0,40.38,24.6Z" style="stroke:#f9f912;stroke-miterlimit:10"/><path d="M60.06,24.75a23.9,23.9,0,0,0-15,7.74A23.93,23.93,0,0,0,60.25,26Z" style="stroke:#f9f912;stroke-miterlimit:10"/></g></svg>