<?xml version="1.0" encoding="utf-8"?>
<!-- Generator: Adobe Illustrator 24.0.2, SVG Export Plug-In . SVG Version: 6.00 Build 0)  -->
<svg version="1.1" id="Layer_1" xmlns="http://www.w3.org/2000/svg" xmlns:xlink="http://www.w3.org/1999/xlink" x="0px" y="0px"
	 width="50px" height="50px" viewBox="0 0 50 50" style="enable-background:new 0 0 50 50;" xml:space="preserve">
<style type="text/css">
	.st0{fill:#334A48;stroke:#000000;stroke-width:0.5;stroke-miterlimit:10;}
	.st1{fill:#303030;stroke:#000000;stroke-width:0.25;stroke-miterlimit:10;}
</style>
<path class="st0" d="M24.5,31.7H22c-0.3,0-0.6-0.3-0.6-0.6v-5.6c0-0.3,0.3-0.6,0.6-0.6h2.5c0.3,0,0.6,0.3,0.6,0.6v5.6
	C25.1,31.4,24.8,31.7,24.5,31.7z"/>
<path class="st1" d="M45.5,22.4v0.1H45v-2h-0.7v0.4l-0.7,1.7h-3.1v-0.3h-1.3v0.2h-0.6l-5-1.6h-5c0,0-0.6,0.1-0.6,0.8
	s0.6,0.8,0.6,0.8h-2.7v-1c0,0-0.9-0.3-1.1-0.3c0-0.2,0-0.3,0-0.3h-5.2v0.3h-0.2v-0.7h-0.5l-0.2,0.5l-3,0.2v0.4h-1.8
	c0,0-0.6,0.1-0.6,0.6c0,0.5,0,0.8,0,0.8h-2.4c0,0-0.2-0.6-1.2-0.6s-7-0.1-7-0.1v4.8c0,0,0.4,0.3,0.8,0.3s1.3-1,1.5-1s1.8,0,2.1,0
	c0.2,0,1.1,0.9,1.5,0.9s1.6-2.1,1.8-2.3c0.2-0.2,2.5-0.1,2.5-0.1v0.1h0.9c0,0,0.1,0.7,0,1.2s-0.5,1.7-0.5,2.2c0,0.5,0.9,0.8,1.4,0.7
	s0.2-0.7,0.2-0.7s0.3-2.2,0.6-2.3c0.2-0.1,0.7-0.1,0.7-0.1s0.1,0.7,0.4,0.8c0.3,0.1,1.9-0.1,2-0.4c0.1-0.3,0.1-0.7,0.1-0.7H19
	c0,0,0-0.3-0.1-0.4c-0.1-0.2,0.7-0.1,0.7-0.1l2,0c0,0,0.4,0.3,1.6,0.3c1.1,0,1.7-0.5,1.7-0.5h2.5h4.3c0,0,0.3-0.3,0.3-0.4
	c0.4,0,4.6,0,4.6,0v1.5h1.1v-1.5h1.3V25h0.5v-0.4h0.3l0.8-1.1h3.1v0.2h1.4v-0.2h0.4v0.2H48v-1.2H45.5z M8.4,25.3c0,0-2.9,0-3.2,0
	c-0.3,0-0.7,0-0.7-0.6c0,0,0.2-1.1,0.9-1.2c0.7-0.1,3.6,0,3.6,0s0.3,0,0.3,0.5S8.4,25.3,8.4,25.3z M18.5,26.3
	c-0.2,0.3-1.1,0.5-1.6,0.4c-0.5-0.1-0.4-0.9-0.4-0.9s0.2,0,0.4,0c0,0.6,0.4,0.8,0.4,0.8C17,26.3,17,25.7,17,25.7s1.2-0.2,1.4-0.1
	C18.6,25.6,18.5,25.9,18.5,26.3z M32.8,22.3c0,0-3.6,0-4.1,0c-0.4-0.9,0-1.2,0-1.2h4.1V22.3z M33.7,22.3v-1.2l3.7,1.2H33.7z"/>
</svg>
