<svg xmlns="http://www.w3.org/2000/svg" xmlns:xlink="http://www.w3.org/1999/xlink" viewBox="0 0 350 450"><defs><style>.cls-1,.cls-10,.cls-11,.cls-12,.cls-13,.cls-14,.cls-15,.cls-16,.cls-17,.cls-18,.cls-19,.cls-2,.cls-20,.cls-21,.cls-22,.cls-23,.cls-24,.cls-25,.cls-3,.cls-4,.cls-42,.cls-43,.cls-44,.cls-45,.cls-46,.cls-47,.cls-48,.cls-5,.cls-56,.cls-57,.cls-58,.cls-59,.cls-6,.cls-64,.cls-65,.cls-7,.cls-8,.cls-9{stroke:#000;}.cls-1,.cls-10,.cls-11,.cls-12,.cls-13,.cls-14,.cls-15,.cls-16,.cls-2,.cls-20,.cls-21,.cls-23,.cls-24,.cls-25,.cls-3,.cls-4,.cls-42,.cls-5,.cls-56,.cls-57,.cls-58,.cls-6,.cls-65,.cls-66,.cls-67,.cls-68,.cls-8,.cls-9{stroke-linejoin:bevel;}.cls-1,.cls-10,.cls-11,.cls-12,.cls-13,.cls-14,.cls-15,.cls-16,.cls-17,.cls-18,.cls-19,.cls-2,.cls-20,.cls-21,.cls-22,.cls-23,.cls-24,.cls-25,.cls-27,.cls-28,.cls-3,.cls-30,.cls-32,.cls-34,.cls-36,.cls-38,.cls-4,.cls-40,.cls-42,.cls-43,.cls-44,.cls-45,.cls-46,.cls-47,.cls-5,.cls-56,.cls-57,.cls-58,.cls-6,.cls-7,.cls-8,.cls-9{stroke-width:2px;}.cls-1{fill:url(#Безымянный_градиент_18);}.cls-2{fill:url(#Безымянный_градиент_35);}.cls-3{fill:#8a8c93;}.cls-4{fill:url(#Безымянный_градиент_35-2);}.cls-5{fill:url(#Безымянный_градиент_18-2);}.cls-6{fill:url(#Безымянный_градиент_35-3);}.cls-26,.cls-27,.cls-28,.cls-29,.cls-30,.cls-31,.cls-32,.cls-33,.cls-34,.cls-35,.cls-36,.cls-37,.cls-38,.cls-39,.cls-40,.cls-41,.cls-62,.cls-66,.cls-67,.cls-68,.cls-7{fill:none;}.cls-17,.cls-18,.cls-19,.cls-22,.cls-43,.cls-44,.cls-48,.cls-59,.cls-61,.cls-62,.cls-63,.cls-64,.cls-7{stroke-miterlimit:10;}.cls-8{fill:url(#Безымянный_градиент_16);}.cls-9{fill:url(#Безымянный_градиент_16-2);}.cls-10{fill:url(#Безымянный_градиент_16-3);}.cls-11{fill:url(#Безымянный_градиент_16-4);}.cls-12{fill:url(#Безымянный_градиент_16-5);}.cls-13{fill:url(#Безымянный_градиент_16-6);}.cls-14{fill:url(#Безымянный_градиент_16-7);}.cls-15{fill:url(#Безымянный_градиент_16-8);}.cls-16{fill:url(#Безымянный_градиент_16-9);}.cls-17{fill:url(#Безымянный_градиент_13);}.cls-18{fill:url(#Безымянный_градиент_13-2);}.cls-19{fill:url(#Безымянный_градиент_14);}.cls-20{fill:url(#Безымянный_градиент_15);}.cls-21{fill:url(#Безымянный_градиент_18-3);}.cls-22{fill:url(#Безымянный_градиент_14-2);}.cls-23{fill:url(#Безымянный_градиент_15-2);}.cls-24{fill:url(#Безымянный_градиент_18-4);}.cls-25{fill:url(#Безымянный_градиент_15-3);}.cls-26,.cls-27{stroke:#2d2d35;}.cls-26,.cls-27,.cls-28,.cls-29,.cls-30,.cls-31,.cls-32,.cls-33,.cls-34,.cls-35,.cls-36,.cls-37,.cls-38,.cls-39,.cls-40,.cls-41,.cls-45,.cls-46,.cls-47{stroke-linejoin:round;}.cls-26{stroke-width:3px;}.cls-28{stroke:url(#Безымянный_градиент_68);}.cls-29,.cls-31,.cls-33,.cls-35,.cls-37,.cls-39,.cls-41{stroke-width:4px;}.cls-29{stroke:url(#Безымянный_градиент_68-2);}.cls-30{stroke:url(#Безымянный_градиент_68-3);}.cls-31{stroke:url(#Безымянный_градиент_68-4);}.cls-32{stroke:url(#Безымянный_градиент_68-5);}.cls-33{stroke:url(#Безымянный_градиент_68-6);}.cls-34{stroke:url(#Безымянный_градиент_68-7);}.cls-35{stroke:url(#Безымянный_градиент_68-8);}.cls-36{stroke:url(#Безымянный_градиент_68-9);}.cls-37{stroke:url(#Безымянный_градиент_68-10);}.cls-38{stroke:url(#Безымянный_градиент_68-11);}.cls-39{stroke:url(#Безымянный_градиент_68-12);}.cls-40{stroke:url(#Безымянный_градиент_68-13);}.cls-41{stroke:url(#Безымянный_градиент_68-14);}.cls-42{fill:url(#Безымянный_градиент_15-4);}.cls-43{fill:url(#Безымянный_градиент_14-3);}.cls-44{fill:url(#Безымянный_градиент_14-4);}.cls-45{fill:#797984;}.cls-46{fill:#32323f;}.cls-47{fill:#585868;}.cls-48,.cls-65{fill:#27f9fa;}.cls-49,.cls-69{opacity:0.5;}.cls-49{fill:url(#Безымянный_градиент_110);}.cls-50,.cls-51,.cls-52,.cls-53,.cls-54,.cls-55{opacity:0.8;}.cls-50{fill:url(#Безымянный_градиент_109);}.cls-51{fill:url(#Безымянный_градиент_98);}.cls-52{fill:url(#Безымянный_градиент_101);}.cls-53{fill:url(#Безымянный_градиент_46);}.cls-54{fill:url(#Безымянный_градиент_46-2);}.cls-55{fill:url(#Безымянный_градиент_46-3);}.cls-56{fill:url(#Безымянный_градиент_166);}.cls-57{fill:url(#Безымянный_градиент_166-2);}.cls-58{fill:#636970;}.cls-59{fill:#595872;}.cls-60{fill:#f9f912;opacity:0.35;}.cls-61,.cls-63{fill:#fff803;}.cls-61{stroke:#ceb01d;}.cls-61,.cls-62,.cls-63{stroke-width:0.5px;}.cls-62{stroke:#1a1a1a;}.cls-63{stroke:#f9d606;}.cls-64{fill:url(#Безымянный_градиент_73);}.cls-66{stroke:#021447;}.cls-67{stroke:#031f70;}.cls-68{stroke:#052599;}.cls-69{fill:url(#Безымянный_градиент_29);}</style><linearGradient id="Безымянный_градиент_18" x1="84.24" y1="421.04" x2="212.85" y2="421.04" gradientUnits="userSpaceOnUse"><stop offset="0" stop-color="#9ea9b9"/><stop offset="0.11" stop-color="#83899b"/><stop offset="0.24" stop-color="#6c6f83"/><stop offset="0.37" stop-color="#5a5a70"/><stop offset="0.53" stop-color="#4e4b62"/><stop offset="0.71" stop-color="#46435a"/><stop offset="1" stop-color="#444058"/></linearGradient><linearGradient id="Безымянный_градиент_35" x1="214.39" y1="404.81" x2="345.34" y2="404.81" gradientUnits="userSpaceOnUse"><stop offset="0" stop-color="#4d4a5e"/><stop offset="0.86" stop-color="#353247"/><stop offset="1" stop-color="#302e43"/></linearGradient><linearGradient id="Безымянный_градиент_35-2" x1="308.27" y1="380.81" x2="345.34" y2="380.81" xlink:href="#Безымянный_градиент_35"/><linearGradient id="Безымянный_градиент_18-2" x1="84.24" y1="384.86" x2="214.39" y2="384.86" xlink:href="#Безымянный_градиент_18"/><linearGradient id="Безымянный_градиент_35-3" x1="200.95" y1="367.17" x2="214.39" y2="367.17" xlink:href="#Безымянный_градиент_35"/><linearGradient id="Безымянный_градиент_16" x1="10.12" y1="369.83" x2="29.24" y2="369.83" gradientUnits="userSpaceOnUse"><stop offset="0" stop-color="#454258"/><stop offset="0.09" stop-color="#47455a"/><stop offset="0.15" stop-color="#4e4d62"/><stop offset="0.2" stop-color="#5b5b70"/><stop offset="0.24" stop-color="#6c6f83"/><stop offset="0.28" stop-color="#83899b"/><stop offset="0.31" stop-color="#9ea9b9"/><stop offset="0.44" stop-color="#82889a"/><stop offset="0.59" stop-color="#676a7d"/><stop offset="0.73" stop-color="#545469"/><stop offset="0.87" stop-color="#49475c"/><stop offset="1" stop-color="#454258"/></linearGradient><linearGradient id="Безымянный_градиент_16-2" x1="10.12" y1="434.11" x2="29.24" y2="434.11" xlink:href="#Безымянный_градиент_16"/><linearGradient id="Безымянный_градиент_16-3" x1="10.12" y1="418.92" x2="29.12" y2="418.92" xlink:href="#Безымянный_градиент_16"/><linearGradient id="Безымянный_градиент_16-4" x1="10.16" y1="402.88" x2="29.16" y2="402.88" xlink:href="#Безымянный_градиент_16"/><linearGradient id="Безымянный_градиент_16-5" x1="10.28" y1="386.83" x2="29.28" y2="386.83" xlink:href="#Безымянный_градиент_16"/><linearGradient id="Безымянный_градиент_16-6" x1="10.41" y1="370.79" x2="29.4" y2="370.79" xlink:href="#Безымянный_градиент_16"/><linearGradient id="Безымянный_градиент_16-7" x1="10.53" y1="354.74" x2="29.53" y2="354.74" xlink:href="#Безымянный_градиент_16"/><linearGradient id="Безымянный_градиент_16-8" x1="9.74" y1="337.69" x2="28.74" y2="337.69" xlink:href="#Безымянный_градиент_16"/><linearGradient id="Безымянный_градиент_16-9" x1="14.35" y1="323.98" x2="29.44" y2="323.98" xlink:href="#Безымянный_градиент_16"/><linearGradient id="Безымянный_градиент_13" x1="3.62" y1="309.32" x2="34.1" y2="309.32" gradientUnits="userSpaceOnUse"><stop offset="0" stop-color="gray"/><stop offset="0.12" stop-color="#828384"/><stop offset="0.26" stop-color="#898d92"/><stop offset="0.39" stop-color="#959da8"/><stop offset="0.48" stop-color="#9ea9b9"/><stop offset="0.54" stop-color="#83899b"/><stop offset="0.6" stop-color="#6c6f83"/><stop offset="0.67" stop-color="#5b5b70"/><stop offset="0.75" stop-color="#4e4d62"/><stop offset="0.84" stop-color="#47455a"/><stop offset="1" stop-color="#454258"/></linearGradient><linearGradient id="Безымянный_градиент_13-2" x1="3.62" y1="302.35" x2="34.1" y2="302.35" xlink:href="#Безымянный_градиент_13"/><linearGradient id="Безымянный_градиент_14" x1="12.19" y1="247.28" x2="25.54" y2="247.28" gradientUnits="userSpaceOnUse"><stop offset="0" stop-color="gray"/><stop offset="0.11" stop-color="#828384"/><stop offset="0.22" stop-color="#898d92"/><stop offset="0.34" stop-color="#959da8"/><stop offset="0.42" stop-color="#9ea9b9"/><stop offset="0.48" stop-color="#83899b"/><stop offset="0.55" stop-color="#6c6f83"/><stop offset="0.63" stop-color="#5b5b70"/><stop offset="0.72" stop-color="#4e4d62"/><stop offset="0.82" stop-color="#47455a"/><stop offset="1" stop-color="#454258"/></linearGradient><linearGradient id="Безымянный_градиент_15" x1="57.06" y1="309.42" x2="84.24" y2="309.42" gradientUnits="userSpaceOnUse"><stop offset="0" stop-color="#9ea9b9"/><stop offset="0.11" stop-color="#83899b"/><stop offset="0.23" stop-color="#6c6f83"/><stop offset="0.36" stop-color="#5b5b70"/><stop offset="0.51" stop-color="#4e4d62"/><stop offset="0.7" stop-color="#47455a"/><stop offset="1" stop-color="#454258"/></linearGradient><linearGradient id="Безымянный_градиент_18-3" x1="3.09" y1="208.29" x2="101.11" y2="208.29" xlink:href="#Безымянный_градиент_18"/><linearGradient id="Безымянный_градиент_14-2" x1="12.19" y1="170.68" x2="25.54" y2="170.68" xlink:href="#Безымянный_градиент_14"/><linearGradient id="Безымянный_градиент_15-2" x1="57.06" y1="160.32" x2="84.24" y2="160.32" xlink:href="#Безымянный_градиент_15"/><linearGradient id="Безымянный_градиент_18-4" x1="9.09" y1="158.56" x2="89.11" y2="158.56" xlink:href="#Безымянный_градиент_18"/><linearGradient id="Безымянный_градиент_15-3" x1="57.06" y1="99.58" x2="84.24" y2="99.58" xlink:href="#Безымянный_градиент_15"/><linearGradient id="Безымянный_градиент_68" x1="78.21" y1="337.9" x2="84" y2="337.9" gradientTransform="translate(-91.19 141.49) rotate(-45.39)" gradientUnits="userSpaceOnUse"><stop offset="0" stop-color="#51475b"/><stop offset="1" stop-color="#302136"/></linearGradient><linearGradient id="Безымянный_градиент_68-2" x1="65.41" y1="338.41" x2="96.42" y2="338.41" xlink:href="#Безымянный_градиент_68"/><linearGradient id="Безымянный_градиент_68-3" x1="82.09" y1="296.91" x2="110.46" y2="296.91" xlink:href="#Безымянный_градиент_68"/><linearGradient id="Безымянный_градиент_68-4" x1="80.96" y1="296.91" x2="111.59" y2="296.91" xlink:href="#Безымянный_градиент_68"/><linearGradient id="Безымянный_градиент_68-5" x1="113.02" y1="213.31" x2="141.39" y2="213.31" xlink:href="#Безымянный_градиент_68"/><linearGradient id="Безымянный_градиент_68-6" x1="111.89" y1="213.31" x2="142.52" y2="213.31" xlink:href="#Безымянный_градиент_68"/><linearGradient id="Безымянный_градиент_68-7" x1="108.88" y1="254.99" x2="114.68" y2="254.99" xlink:href="#Безымянный_градиент_68"/><linearGradient id="Безымянный_градиент_68-8" x1="96.46" y1="254.99" x2="127.1" y2="254.99" xlink:href="#Безымянный_градиент_68"/><linearGradient id="Безымянный_градиент_68-9" x1="139.75" y1="171.62" x2="145.55" y2="171.62" xlink:href="#Безымянный_градиент_68"/><linearGradient id="Безымянный_градиент_68-10" x1="127.33" y1="171.62" x2="157.96" y2="171.62" xlink:href="#Безымянный_градиент_68"/><linearGradient id="Безымянный_градиент_68-11" x1="143.63" y1="130.62" x2="172" y2="130.62" xlink:href="#Безымянный_градиент_68"/><linearGradient id="Безымянный_градиент_68-12" x1="142.5" y1="130.62" x2="173.13" y2="130.62" xlink:href="#Безымянный_градиент_68"/><linearGradient id="Безымянный_градиент_68-13" x1="170.42" y1="88.71" x2="176.22" y2="88.71" xlink:href="#Безымянный_градиент_68"/><linearGradient id="Безымянный_градиент_68-14" x1="158.01" y1="87.51" x2="192.72" y2="87.51" xlink:href="#Безымянный_градиент_68"/><linearGradient id="Безымянный_градиент_15-4" x1="51.36" y1="48.5" x2="89.93" y2="48.5" xlink:href="#Безымянный_градиент_15"/><linearGradient id="Безымянный_градиент_14-3" x1="12.19" y1="139.57" x2="25.54" y2="139.57" xlink:href="#Безымянный_градиент_14"/><linearGradient id="Безымянный_градиент_14-4" x1="11.46" y1="130.06" x2="26.27" y2="130.06" xlink:href="#Безымянный_градиент_14"/><radialGradient id="Безымянный_градиент_110" cx="261.14" cy="246.1" r="62.51" gradientTransform="matrix(0, -1.27, 0.78, 0, 69.84, 567.96)" gradientUnits="userSpaceOnUse"><stop offset="0" stop-color="aqua"/><stop offset="0.38" stop-color="aqua" stop-opacity="0.99"/><stop offset="0.52" stop-color="aqua" stop-opacity="0.97"/><stop offset="0.62" stop-color="aqua" stop-opacity="0.92"/><stop offset="0.69" stop-color="aqua" stop-opacity="0.85"/><stop offset="0.76" stop-color="#00fefe" stop-opacity="0.77"/><stop offset="0.82" stop-color="#00fefe" stop-opacity="0.66"/><stop offset="0.88" stop-color="#00fdfe" stop-opacity="0.53"/><stop offset="0.93" stop-color="#00fdfe" stop-opacity="0.39"/><stop offset="0.97" stop-color="#00fcfd" stop-opacity="0.22"/><stop offset="1" stop-color="#00fcfd" stop-opacity="0.1"/></radialGradient><radialGradient id="Безымянный_градиент_109" cx="262.78" cy="249.47" r="5.52" gradientTransform="matrix(0, -1.97, 26.77, 0, -6416.42, 758.81)" gradientUnits="userSpaceOnUse"><stop offset="0" stop-color="#fff"/><stop offset="0.37" stop-color="#fff" stop-opacity="0.99"/><stop offset="0.51" stop-color="#fff" stop-opacity="0.97"/><stop offset="0.6" stop-color="#fff" stop-opacity="0.92"/><stop offset="0.68" stop-color="#fff" stop-opacity="0.85"/><stop offset="0.75" stop-color="#fff" stop-opacity="0.77"/><stop offset="0.8" stop-color="#fff" stop-opacity="0.66"/><stop offset="0.86" stop-color="#fff" stop-opacity="0.53"/><stop offset="0.91" stop-color="#fff" stop-opacity="0.39"/><stop offset="0.95" stop-color="#fff" stop-opacity="0.22"/><stop offset="0.99" stop-color="#fff" stop-opacity="0.04"/><stop offset="1" stop-color="#fff" stop-opacity="0"/></radialGradient><radialGradient id="Безымянный_градиент_98" cx="273.52" cy="256.19" fx="291.7204873796154" r="18.2" gradientTransform="matrix(0, -1.35, -0.36, 0, 365.21, 615.46)" gradientUnits="userSpaceOnUse"><stop offset="0" stop-color="#fff"/><stop offset="0.2" stop-color="#fff" stop-opacity="0.99"/><stop offset="0.34" stop-color="#fff" stop-opacity="0.95"/><stop offset="0.46" stop-color="#fff" stop-opacity="0.89"/><stop offset="0.57" stop-color="#fff" stop-opacity="0.81"/><stop offset="0.67" stop-color="#fff" stop-opacity="0.7"/><stop offset="0.77" stop-color="#fff" stop-opacity="0.56"/><stop offset="0.86" stop-color="#fff" stop-opacity="0.4"/><stop offset="0.95" stop-color="#fff" stop-opacity="0.22"/><stop offset="1" stop-color="#fff" stop-opacity="0.1"/></radialGradient><radialGradient id="Безымянный_градиент_101" cx="265.26" cy="242.98" r="14.34" gradientTransform="matrix(0, -1.2, 0.46, 0, 136.8, 565.61)" gradientUnits="userSpaceOnUse"><stop offset="0" stop-color="#fff"/><stop offset="0.35" stop-color="#fff" stop-opacity="0.99"/><stop offset="0.49" stop-color="#fff" stop-opacity="0.96"/><stop offset="0.59" stop-color="#fff" stop-opacity="0.92"/><stop offset="0.68" stop-color="#fff" stop-opacity="0.85"/><stop offset="0.75" stop-color="#fff" stop-opacity="0.76"/><stop offset="0.81" stop-color="#fff" stop-opacity="0.65"/><stop offset="0.87" stop-color="#fff" stop-opacity="0.52"/><stop offset="0.92" stop-color="#fff" stop-opacity="0.37"/><stop offset="0.97" stop-color="#fff" stop-opacity="0.2"/><stop offset="1" stop-color="#fff" stop-opacity="0.1"/></radialGradient><radialGradient id="Безымянный_градиент_46" cx="270.98" cy="243.43" r="23.84" gradientTransform="matrix(0, -1.22, 0.22, 0, 213.16, 576.78)" gradientUnits="userSpaceOnUse"><stop offset="0" stop-color="#fff"/><stop offset="0.38" stop-color="#fff" stop-opacity="0.99"/><stop offset="0.52" stop-color="#fff" stop-opacity="0.97"/><stop offset="0.62" stop-color="#fff" stop-opacity="0.92"/><stop offset="0.69" stop-color="#fff" stop-opacity="0.85"/><stop offset="0.76" stop-color="#fff" stop-opacity="0.77"/><stop offset="0.82" stop-color="#fff" stop-opacity="0.66"/><stop offset="0.88" stop-color="#fff" stop-opacity="0.53"/><stop offset="0.93" stop-color="#fff" stop-opacity="0.38"/><stop offset="0.97" stop-color="#fff" stop-opacity="0.22"/><stop offset="1" stop-color="#fff" stop-opacity="0.1"/></radialGradient><radialGradient id="Безымянный_градиент_46-2" cx="268.25" cy="244.26" r="23.84" gradientTransform="matrix(0, -1.32, 0.22, 0, 207.21, 597.87)" xlink:href="#Безымянный_градиент_46"/><radialGradient id="Безымянный_градиент_46-3" cx="265.52" cy="243.43" r="23.84" gradientTransform="matrix(0, -1.22, 0.22, 0, 201.64, 570.11)" xlink:href="#Безымянный_градиент_46"/><linearGradient id="Безымянный_градиент_166" x1="224.32" y1="147.97" x2="298.89" y2="147.97" gradientUnits="userSpaceOnUse"><stop offset="0" stop-color="#ccc"/><stop offset="0.03" stop-color="#b7b6ba"/><stop offset="0.09" stop-color="#918e99"/><stop offset="0.15" stop-color="#736f7f"/><stop offset="0.21" stop-color="#5d596c"/><stop offset="0.26" stop-color="#504c61"/><stop offset="0.31" stop-color="#4c475d"/><stop offset="0.67" stop-color="#3c374e"/><stop offset="1" stop-color="#332e45"/></linearGradient><linearGradient id="Безымянный_градиент_166-2" x1="244.43" y1="103.64" x2="279.87" y2="103.64" xlink:href="#Безымянный_градиент_166"/><linearGradient id="Безымянный_градиент_73" x1="166.45" y1="326.41" x2="142.4" y2="367.37" gradientUnits="userSpaceOnUse"><stop offset="0" stop-color="aqua"/><stop offset="0.08" stop-color="#02fbff"/><stop offset="0.16" stop-color="#07f1ff"/><stop offset="0.23" stop-color="#11deff"/><stop offset="0.3" stop-color="#1ec5fe"/><stop offset="0.37" stop-color="#2ea4fe"/><stop offset="0.43" stop-color="#437cfd"/><stop offset="0.48" stop-color="#5656fd"/><stop offset="0.53" stop-color="#4675fd"/><stop offset="0.61" stop-color="#319ffe"/><stop offset="0.68" stop-color="#1fc2fe"/><stop offset="0.76" stop-color="#1df"/><stop offset="0.84" stop-color="#08f0ff"/><stop offset="0.92" stop-color="#02fbff"/><stop offset="1" stop-color="aqua"/></linearGradient><radialGradient id="Безымянный_градиент_29" cx="150.26" cy="338.62" r="38.98" gradientTransform="translate(-47.77 18.54) scale(1.34 0.96)" gradientUnits="userSpaceOnUse"><stop offset="0" stop-color="aqua"/><stop offset="0.24" stop-color="aqua" stop-opacity="0.99"/><stop offset="0.38" stop-color="aqua" stop-opacity="0.96"/><stop offset="0.5" stop-color="aqua" stop-opacity="0.9"/><stop offset="0.6" stop-color="#00feff" stop-opacity="0.82"/><stop offset="0.69" stop-color="#00fefe" stop-opacity="0.72"/><stop offset="0.78" stop-color="#00fefe" stop-opacity="0.6"/><stop offset="0.86" stop-color="#00fdfe" stop-opacity="0.45"/><stop offset="0.93" stop-color="#00fdfd" stop-opacity="0.28"/><stop offset="1" stop-color="#00fcfd" stop-opacity="0.1"/></radialGradient></defs><title>здания добыча 350-450</title><g id="Слой_8" data-name="Слой 8"><rect class="cls-1" x="84.24" y="394.46" width="128.61" height="53.17"/><polygon class="cls-2" points="345.34 447.63 214.39 447.63 214.39 362 308.27 362 345.34 447.63"/><rect class="cls-3" x="214.39" y="314" width="93.88" height="48"/><rect class="cls-3" x="97.93" y="342.09" width="103.02" height="32.61"/><polygon class="cls-4" points="308.27 314 308.27 362 345.34 447.63 345.34 384.26 308.27 314"/><polygon class="cls-5" points="200.95 375.26 97.93 375.26 84.23 394.46 214.39 394.46 200.95 375.26"/><polygon class="cls-6" points="200.95 375.26 212.85 392.25 214.39 353.41 200.95 342.09 200.95 375.26"/><polygon class="cls-3" points="97.93 342.09 97.93 375.26 84.23 394.46 84.23 353.8 97.93 342.09"/><line class="cls-7" x1="85.24" y1="421.04" x2="214.39" y2="421.04"/><rect class="cls-8" x="10.12" y="312.26" width="19.12" height="115.12"/><polygon class="cls-9" points="29.24 427.39 25.54 440.82 10.12 427.39 29.24 427.39"/><line class="cls-10" x1="29.12" y1="427.21" x2="10.12" y2="410.64"/><line class="cls-11" x1="29.16" y1="411.16" x2="10.16" y2="394.6"/><line class="cls-12" x1="29.28" y1="395.11" x2="10.28" y2="378.55"/><line class="cls-13" x1="29.4" y1="379.07" x2="10.41" y2="362.5"/><line class="cls-14" x1="29.53" y1="363.02" x2="10.53" y2="346.46"/><line class="cls-15" x1="28.74" y1="345.97" x2="9.74" y2="329.41"/><line class="cls-16" x1="29.44" y1="330.56" x2="14.35" y2="317.4"/><path class="cls-17" d="M13.93,301.28h9.86c5.67,0,10.31-.54,10.31,2.07v9.06c0,3.24-6.72,5-13.76,5H19.07c-8,0-15.45-2.1-15.45-5.76v-8.29C3.62,300.74,8.26,301.28,13.93,301.28Z"/><ellipse class="cls-18" cx="18.86" cy="302.35" rx="15.24" ry="5.62"/><rect class="cls-19" x="12.19" y="190.48" width="13.35" height="113.59" rx="4.71"/><path class="cls-20" d="M57.06,197.8H84.24a0,0,0,0,1,0,0V413.1A7.95,7.95,0,0,1,76.29,421H65a7.95,7.95,0,0,1-7.95-7.95V197.8a0,0,0,0,1,0,0Z"/><rect class="cls-21" x="3.09" y="203.65" width="98.03" height="9.27"/><rect class="cls-3" x="3.09" y="183.07" width="98.03" height="21.07"/><rect class="cls-22" x="12.19" y="143.56" width="13.35" height="54.24" rx="5.06"/><path class="cls-23" d="M64,122.84H77.28a7,7,0,0,1,7,7v59a9,9,0,0,1-9,9H66a9,9,0,0,1-9-9v-59a7,7,0,0,1,7-7Z"/><polygon class="cls-24" points="89.11 161.51 89.11 158.61 9.09 155.61 9.09 158.46 89.11 161.51"/><polygon class="cls-3" points="9.09 155.61 89.11 158.61 89.11 137.53 9.09 140.53 9.09 155.61"/><path class="cls-25" d="M65.88,46.73h9.53a8.83,8.83,0,0,1,8.83,8.83v86.05a10.83,10.83,0,0,1-10.83,10.83H65.88a8.83,8.83,0,0,1-8.83-8.83V55.56a8.83,8.83,0,0,1,8.83-8.83Z"/><polygon class="cls-26" points="220.17 326 216.38 338.06 198.12 298.89 201.91 286.83 220.17 326"/><line class="cls-27" x1="216.38" y1="338.06" x2="201.9" y2="286.83"/><polygon class="cls-26" points="124.36 140.73 128.15 128.68 109.88 89.51 106.09 101.56 124.36 140.73"/><line class="cls-27" x1="128.15" y1="128.68" x2="106.09" y2="101.56"/><polygon class="cls-26" points="109.64 88.99 105.85 101.05 83.58 63.37 88.44 47.89 109.64 88.99"/><line class="cls-27" x1="105.85" y1="101.05" x2="87.75" y2="52.12"/><polygon class="cls-26" points="146.66 168.34 142.87 180.39 124.61 141.22 128.4 129.17 146.66 168.34"/><line class="cls-27" x1="142.87" y1="180.39" x2="128.4" y2="129.17"/><polygon class="cls-26" points="161.07 219.42 164.86 207.36 146.6 168.2 142.81 180.25 161.07 219.42"/><line class="cls-27" x1="164.86" y1="207.36" x2="142.81" y2="180.25"/><polygon class="cls-26" points="198.19 299.01 201.98 286.96 183.72 247.79 179.93 259.84 198.19 299.01"/><line class="cls-27" x1="201.98" y1="286.96" x2="179.93" y2="259.84"/><polygon class="cls-26" points="183.47 247.27 179.69 259.32 161.42 220.16 165.21 208.1 183.47 247.27"/><line class="cls-27" x1="179.69" y1="259.33" x2="165.21" y2="208.1"/><line class="cls-28" x1="195.09" y1="307.32" x2="217.54" y2="334.83"/><polygon class="cls-29" points="198.94 295.1 195.09 307.32 214.14 348.03 216.66 332.95 198.94 295.1"/><line class="cls-30" x1="180.41" y1="255.51" x2="195.15" y2="307.46"/><polygon class="cls-31" points="176.56 267.74 180.41 255.51 199.01 295.24 195.15 307.46 176.56 267.74"/><line class="cls-32" x1="142.63" y1="174.78" x2="157.37" y2="226.73"/><polygon class="cls-33" points="138.77 187 142.63 174.78 161.22 214.51 157.37 226.73 138.77 187"/><line class="cls-34" x1="157.61" y1="227.25" x2="180.06" y2="254.76"/><polygon class="cls-35" points="161.47 215.03 157.61 227.25 176.21 266.98 180.06 254.76 161.47 215.03"/><line class="cls-36" x1="119.94" y1="146.73" x2="142.39" y2="174.23"/><polygon class="cls-37" points="123.8 134.5 119.94 146.73 138.53 186.46 142.39 174.23 123.8 134.5"/><line class="cls-38" x1="105.27" y1="94.91" x2="120" y2="146.87"/><polygon class="cls-39" points="101.41 107.14 105.27 94.92 123.86 134.64 120 146.87 101.41 107.14"/><line class="cls-40" x1="82.46" y1="66.66" x2="104.91" y2="94.16"/><polygon class="cls-41" points="87.48 49.85 82.46 66.66 101.06 106.39 104.92 94.16 87.48 49.85"/><path class="cls-42" d="M64.41,40.46H76.88c7.18,0,13.05-.54,13.05,2.07v9.06c0,3.24-8.51,5-17.41,5H70.91c-10.08,0-19.55-2.1-19.55-5.77V42.53C51.36,39.92,57.23,40.46,64.41,40.46Z"/><ellipse class="cls-3" cx="70.65" cy="41.53" rx="19.28" ry="5.62"/><rect class="cls-43" x="12.19" y="128.46" width="13.35" height="22.22" rx="4.33"/><path class="cls-44" d="M16.47,125.45h4.79c2.75,0,5-.31,5,1.18v5.21c0,1.86-3.27,2.86-6.69,2.86H19c-3.87,0-7.5-1.21-7.5-3.31v-4.76C11.46,125.14,13.71,125.45,16.47,125.45Z"/><ellipse class="cls-3" cx="18.86" cy="126.06" rx="7.41" ry="3.22"/><polygon class="cls-45" points="287.71 447.42 234.74 447.42 234.81 362 287.72 362 287.71 447.42"/><polygon class="cls-46" points="287.71 438.62 234.74 438.62 234.81 430.02 287.72 430.02 287.71 438.62"/><polygon class="cls-46" points="287.71 421.64 234.74 421.64 234.81 413.05 287.72 413.05 287.71 421.64"/><polygon class="cls-46" points="287.71 404.67 234.74 404.67 234.81 396.07 287.72 396.07 287.71 404.67"/><polygon class="cls-46" points="287.71 387.69 234.74 387.69 234.81 379.09 287.72 379.09 287.71 387.69"/><polygon class="cls-46" points="287.71 370.71 234.74 370.71 234.81 362.12 287.72 362.12 287.71 370.71"/><path class="cls-47" d="M249.3,289.41h24.06c13.83,0,25.15-2,25.15,7.51v32.95c0,11.77-16.41,18.16-33.57,18.16h-3.11c-19.42,0-37.68-7.66-37.68-21V296.92C224.15,287.43,235.46,289.41,249.3,289.41Z"/><ellipse class="cls-47" cx="261.33" cy="293.29" rx="37.18" ry="20.43"/><path class="cls-48" d="M253.1,177.08h15.62c9,0,16.33-3.75,16.33,14.25v86.42c.46,24.9-14.25,23.71-21.18,24h-1.63c-11.22-.35-26.26,0-25.47-24.52V191.33C236.77,173.33,244.12,177.08,253.1,177.08Z"/><path class="cls-49" d="M246.41,153.56h29.14c16.76,0,10.66,2,30.46,39.86,9.5,18.17,11.56,74.46,0,96.72-12.71,24.48-24.31,28.17-45.1,28.17h.68c-23.53,0-31.5-3.17-45.64-29.82-10.49-19.77-9-73.18,0-95.07C233.33,151.13,229.66,153.56,246.41,153.56Z"/><ellipse class="cls-50" cx="260.58" cy="238.84" rx="24.01" ry="69.94"/><ellipse class="cls-51" cx="271.39" cy="254.81" rx="7.63" ry="47.95"/><ellipse class="cls-52" cx="250.08" cy="245.47" rx="7.63" ry="42.62"/><ellipse class="cls-53" cx="267.37" cy="246.08" rx="5.76" ry="43.22"/><ellipse class="cls-54" cx="261.61" cy="244.01" rx="5.76" ry="46.72"/><ellipse class="cls-55" cx="255.85" cy="246.08" rx="5.76" ry="43.22"/><path class="cls-56" d="M298.78,132c.26,9.43,0,43.32,0,43.32.11,8.74-16.41,17-33.58,17h-2.1c-19.42,0-38.78-6.72-38.69-20.13,0,0-.19-30.68,0-40.22.31-15.85,35.3-26.34,39.3-28.33C265.68,102.68,298.37,117.35,298.78,132Z"/><path class="cls-57" d="M256.42,92.75h11.46c6.59,0,12-.74,12,2.8v12.28c0,4.38-7.82,6.76-16,6.76h-1.48c-9.26,0-18-2.85-18-7.82V95.55C244.43,92,249.82,92.75,256.42,92.75Z"/><ellipse class="cls-58" cx="262.15" cy="94.19" rx="17.72" ry="7.61"/><path class="cls-48" d="M236.57,141.77s3.65,3.86,11.27,3.62v27.16s-7,2.64-11.27-3.66Z"/><path d="M238.76,149.65a7.65,7.65,0,0,0,1,.33,4.44,4.44,0,0,0,.7.53,5.6,5.6,0,0,0,1.63.69,6.56,6.56,0,0,0,1.77.16c.3,0,.6-.07.91-.09s.65.16,1,.29a5.78,5.78,0,0,1-.86.69,8.83,8.83,0,0,1-1,.11,7.54,7.54,0,0,1-2.06-.19,6.64,6.64,0,0,1-1.92-.81,7.28,7.28,0,0,1-.84-.62A3,3,0,0,1,238.76,149.65Z"/><path d="M238.7,154.59a9.56,9.56,0,0,0,1,.33,4,4,0,0,0,.7.53,5.6,5.6,0,0,0,1.63.69,6.56,6.56,0,0,0,1.77.16c.3,0,.6-.07.9-.09s.66.16,1,.29a5.78,5.78,0,0,1-.86.69,8.83,8.83,0,0,1-1,.11,7.54,7.54,0,0,1-2.06-.19,6.64,6.64,0,0,1-1.92-.81,7.28,7.28,0,0,1-.84-.62A3,3,0,0,1,238.7,154.59Z"/><path d="M238.76,159.6c.35.13.67.24,1,.33a5.08,5.08,0,0,0,.7.52,5.34,5.34,0,0,0,1.63.69,6.19,6.19,0,0,0,1.77.16,7.19,7.19,0,0,0,.91-.09c.32.1.65.16,1,.29a5.84,5.84,0,0,1-.86.7c-.34,0-.68.1-1,.1a7.54,7.54,0,0,1-2.06-.19,6.38,6.38,0,0,1-1.92-.81,7.28,7.28,0,0,1-.84-.62A3,3,0,0,1,238.76,159.6Z"/><path d="M238.7,164.39a9.41,9.41,0,0,0,1,.32,4,4,0,0,0,.7.53,5.6,5.6,0,0,0,1.63.69,6.56,6.56,0,0,0,1.77.16c.3,0,.6-.06.9-.09s.66.16,1,.29a5.84,5.84,0,0,1-.86.7c-.34,0-.68.1-1,.1a7.54,7.54,0,0,1-2.06-.19,6.38,6.38,0,0,1-1.92-.81,7.28,7.28,0,0,1-.84-.62A3,3,0,0,1,238.7,164.39Z"/><rect class="cls-59" x="260.2" y="87.15" width="2.79" height="7.91"/><rect class="cls-60" x="254.71" y="56.83" width="13.76" height="30.75" rx="6.88" transform="translate(-1.19 4.45) rotate(-0.97)"/><rect class="cls-61" x="258.31" y="69.33" width="6.6" height="17.95" rx="3.3" transform="translate(-1.29 4.45) rotate(-0.97)"/><line class="cls-62" x1="261.56" y1="69.68" x2="261.56" y2="64.47"/><circle class="cls-63" cx="261.56" cy="63.94" r="1.76"/><rect class="cls-59" x="69.24" y="32.7" width="2.79" height="7.91"/><rect class="cls-60" x="63.74" y="1.71" width="13.76" height="31.42" rx="6.88" transform="translate(-0.29 1.2) rotate(-0.97)"/><rect class="cls-61" x="67.35" y="14.88" width="6.6" height="17.95" rx="3.3" transform="translate(-0.39 1.2) rotate(-0.97)"/><line class="cls-62" x1="70.59" y1="15.23" x2="70.59" y2="10.02"/><circle class="cls-63" cx="70.59" cy="9.49" r="1.76"/><polygon class="cls-64" points="120.95 363.4 149.31 367 186.9 365.2 183.78 359.74 178.54 352.37 181.71 330.32 168.37 331 154.19 318.72 143.78 330.7 125.63 330.7 109.24 350.22 120.95 363.4"/><polygon class="cls-65" points="181.71 330.32 188.85 348.46 187.24 364.95 178.61 351.9 181.71 330.32"/><polygon class="cls-66" points="168.37 331 155.49 347.97 142.63 341.74 120.95 363.4 125.63 330.7 151.45 339.57 168.37 331"/><path class="cls-67" d="M126.06,330.88,132.37,342l10.16-.35a.26.26,0,0,1,.1.14L149.31,367l6.18-19,23,4.4"/><polyline class="cls-68" points="186.32 364.95 155.49 347.97 151.45 339.57 143.78 330.7"/><polygon class="cls-69" points="100.87 372.21 204.08 373.06 205.05 362 204.17 320 165.87 296.73 116.33 304.5 91.08 345.93 100.87 372.21"/></g></svg>