<svg xmlns="http://www.w3.org/2000/svg" xmlns:xlink="http://www.w3.org/1999/xlink" viewBox="0 0 370 490"><defs><style>.cls-1,.cls-12,.cls-13,.cls-18,.cls-19,.cls-2,.cls-20,.cls-21,.cls-23,.cls-24,.cls-25,.cls-3,.cls-30,.cls-31,.cls-32,.cls-33,.cls-34,.cls-4,.cls-5,.cls-55,.cls-6,.cls-7,.cls-8,.cls-9{stroke:#000;}.cls-1,.cls-10,.cls-13,.cls-14,.cls-18,.cls-19,.cls-23,.cls-24,.cls-27,.cls-52,.cls-53,.cls-54,.cls-6,.cls-7,.cls-8{stroke-miterlimit:10;}.cls-1,.cls-12,.cls-2,.cls-3,.cls-30,.cls-31,.cls-32,.cls-33,.cls-36,.cls-37,.cls-39,.cls-4,.cls-41,.cls-43,.cls-45,.cls-47,.cls-49,.cls-5,.cls-6,.cls-7,.cls-9{stroke-width:2px;}.cls-1{fill:url(#Безымянный_градиент_36);}.cls-16,.cls-17,.cls-2,.cls-21,.cls-25,.cls-28,.cls-29,.cls-3,.cls-30,.cls-31,.cls-32,.cls-33,.cls-4,.cls-5{stroke-linejoin:bevel;}.cls-2{fill:url(#Безымянный_градиент_15);}.cls-3{fill:url(#Безымянный_градиент_18);}.cls-4,.cls-7{fill:#8a8c93;}.cls-5{fill:url(#Безымянный_градиент_35);}.cls-10,.cls-11,.cls-16,.cls-17,.cls-26,.cls-27,.cls-28,.cls-29,.cls-35,.cls-36,.cls-37,.cls-38,.cls-39,.cls-40,.cls-41,.cls-42,.cls-43,.cls-44,.cls-45,.cls-46,.cls-47,.cls-48,.cls-49,.cls-50,.cls-53,.cls-6{fill:none;}.cls-14,.cls-15,.cls-22,.cls-8{fill:#27f9fa;}.cls-55,.cls-9{fill:#585868;}.cls-11,.cls-12,.cls-20,.cls-26,.cls-34,.cls-35,.cls-36,.cls-37,.cls-38,.cls-39,.cls-40,.cls-41,.cls-42,.cls-43,.cls-44,.cls-45,.cls-46,.cls-47,.cls-48,.cls-49,.cls-50,.cls-55,.cls-9{stroke-linejoin:round;}.cls-10,.cls-16,.cls-17{stroke:#f9f912;}.cls-10,.cls-11,.cls-16,.cls-17,.cls-26,.cls-27,.cls-28,.cls-29{stroke-linecap:round;}.cls-10,.cls-17,.cls-29{stroke-width:13px;}.cls-10,.cls-15,.cls-27{opacity:0.16;}.cls-11{stroke:#fff800;}.cls-11,.cls-16,.cls-26,.cls-28,.cls-35{stroke-width:3px;}.cls-12{fill:#32323f;}.cls-13{fill:#595872;}.cls-14{stroke:#4d4d4d;}.cls-14,.cls-52,.cls-53,.cls-54{stroke-width:0.5px;}.cls-17,.cls-29{opacity:0.17;}.cls-18,.cls-19,.cls-20,.cls-21,.cls-23,.cls-24,.cls-25{stroke-width:1.5px;}.cls-18{fill:url(#Безымянный_градиент_36-2);}.cls-19{fill:url(#Безымянный_градиент_36-3);}.cls-20{fill:#636370;}.cls-21{fill:url(#Безымянный_градиент_35-2);}.cls-22{opacity:0.5;}.cls-23{fill:url(#Безымянный_градиент_36-4);}.cls-24{fill:url(#Безымянный_градиент_36-5);}.cls-25{fill:url(#Безымянный_градиент_35-3);}.cls-26,.cls-28{stroke:#b60000;}.cls-27,.cls-29{stroke:#f7931e;}.cls-27{stroke-width:11px;}.cls-30{fill:url(#Безымянный_градиент_78);}.cls-31{fill:url(#Безымянный_градиент_82);}.cls-32{fill:url(#Безымянный_градиент_35-4);}.cls-33{fill:url(#Безымянный_градиент_35-5);}.cls-34{fill:#383842;}.cls-35,.cls-36{stroke:#2d2d35;}.cls-37{stroke:url(#Безымянный_градиент_68);}.cls-38,.cls-40,.cls-42,.cls-44,.cls-46,.cls-48,.cls-50{stroke-width:4px;}.cls-38{stroke:url(#Безымянный_градиент_68-2);}.cls-39{stroke:url(#Безымянный_градиент_68-3);}.cls-40{stroke:url(#Безымянный_градиент_68-4);}.cls-41{stroke:url(#Безымянный_градиент_68-5);}.cls-42{stroke:url(#Безымянный_градиент_68-6);}.cls-43{stroke:url(#Безымянный_градиент_68-7);}.cls-44{stroke:url(#Безымянный_градиент_68-8);}.cls-45{stroke:url(#Безымянный_градиент_68-9);}.cls-46{stroke:url(#Безымянный_градиент_68-10);}.cls-47{stroke:url(#Безымянный_градиент_68-11);}.cls-48{stroke:url(#Безымянный_градиент_68-12);}.cls-49{stroke:url(#Безымянный_градиент_68-13);}.cls-50{stroke:url(#Безымянный_градиент_68-14);}.cls-51{fill:#f9f912;opacity:0.35;}.cls-52,.cls-54{fill:#fff803;}.cls-52{stroke:#ceb01d;}.cls-53{stroke:#1a1a1a;}.cls-54{stroke:#f9d606;}</style><linearGradient id="Безымянный_градиент_36" x1="2.72" y1="413.51" x2="303.71" y2="413.51" gradientUnits="userSpaceOnUse"><stop offset="0" stop-color="#777d94"/><stop offset="0.22" stop-color="#68677d"/><stop offset="0.47" stop-color="#5b556a"/><stop offset="0.73" stop-color="#534b5f"/><stop offset="1" stop-color="#51475b"/></linearGradient><linearGradient id="Безымянный_градиент_15" x1="64.88" y1="307.07" x2="271.85" y2="307.07" gradientUnits="userSpaceOnUse"><stop offset="0" stop-color="#9ea9b9"/><stop offset="0.11" stop-color="#83899b"/><stop offset="0.23" stop-color="#6c6f83"/><stop offset="0.36" stop-color="#5b5b70"/><stop offset="0.51" stop-color="#4e4d62"/><stop offset="0.7" stop-color="#47455a"/><stop offset="1" stop-color="#454258"/></linearGradient><linearGradient id="Безымянный_градиент_18" x1="112.23" y1="299.2" x2="245.53" y2="299.2" gradientUnits="userSpaceOnUse"><stop offset="0" stop-color="#9ea9b9"/><stop offset="0.11" stop-color="#83899b"/><stop offset="0.24" stop-color="#6c6f83"/><stop offset="0.37" stop-color="#5a5a70"/><stop offset="0.53" stop-color="#4e4b62"/><stop offset="0.71" stop-color="#46435a"/><stop offset="1" stop-color="#444058"/></linearGradient><linearGradient id="Безымянный_градиент_35" x1="271.75" y1="383.08" x2="303.71" y2="383.08" gradientUnits="userSpaceOnUse"><stop offset="0" stop-color="#4d4a5e"/><stop offset="0.86" stop-color="#353247"/><stop offset="1" stop-color="#302e43"/></linearGradient><linearGradient id="Безымянный_градиент_36-2" x1="319.54" y1="391.41" x2="348.17" y2="391.41" xlink:href="#Безымянный_градиент_36"/><linearGradient id="Безымянный_градиент_36-3" x1="312.03" y1="412.78" x2="355.68" y2="412.78" xlink:href="#Безымянный_градиент_36"/><linearGradient id="Безымянный_градиент_35-2" x1="348.17" y1="401.52" x2="355.68" y2="401.52" xlink:href="#Безымянный_градиент_35"/><linearGradient id="Безымянный_градиент_36-4" x1="323.17" y1="457.43" x2="351.81" y2="457.43" xlink:href="#Безымянный_градиент_36"/><linearGradient id="Безымянный_градиент_36-5" x1="315.66" y1="478.81" x2="359.32" y2="478.81" xlink:href="#Безымянный_градиент_36"/><linearGradient id="Безымянный_градиент_35-3" x1="351.81" y1="467.54" x2="359.32" y2="467.54" xlink:href="#Безымянный_градиент_35"/><linearGradient id="Безымянный_градиент_78" x1="297.84" y1="277.43" x2="331.6" y2="227.9" gradientUnits="userSpaceOnUse"><stop offset="0" stop-color="#302e43"/><stop offset="0.09" stop-color="#343246"/><stop offset="0.18" stop-color="#3f3d50"/><stop offset="0.26" stop-color="#515161"/><stop offset="0.35" stop-color="#6b6c77"/><stop offset="0.43" stop-color="#8a8c93"/><stop offset="0.55" stop-color="#71717d"/><stop offset="0.68" stop-color="#5d5b6c"/><stop offset="0.81" stop-color="#514e62"/><stop offset="0.93" stop-color="#4d4a5e"/></linearGradient><linearGradient id="Безымянный_градиент_82" x1="313.11" y1="314.77" x2="337.26" y2="275.51" gradientUnits="userSpaceOnUse"><stop offset="0" stop-color="#302e43"/><stop offset="0.09" stop-color="#343246"/><stop offset="0.18" stop-color="#3f3d50"/><stop offset="0.26" stop-color="#515161"/><stop offset="0.35" stop-color="#6b6c77"/><stop offset="0.43" stop-color="#8a8c93"/><stop offset="0.44" stop-color="#878890"/><stop offset="0.59" stop-color="#6e6a7a"/><stop offset="0.73" stop-color="#5c546b"/><stop offset="0.87" stop-color="#514761"/><stop offset="1" stop-color="#4d435e"/></linearGradient><linearGradient id="Безымянный_градиент_35-4" x1="291.09" y1="219.99" x2="296.99" y2="210.4" gradientTransform="translate(0.24 35.79) scale(1 0.84)" xlink:href="#Безымянный_градиент_35"/><linearGradient id="Безымянный_градиент_35-5" x1="291.93" y1="279.31" x2="298.12" y2="269.24" gradientTransform="translate(14.79 34.07) scale(1 0.84)" xlink:href="#Безымянный_градиент_35"/><linearGradient id="Безымянный_градиент_68" x1="168.28" y1="271.16" x2="187.71" y2="271.16" gradientUnits="userSpaceOnUse"><stop offset="0" stop-color="#51475b"/><stop offset="1" stop-color="#302136"/></linearGradient><linearGradient id="Безымянный_градиент_68-2" x1="167.12" y1="271.16" x2="188.87" y2="271.16" xlink:href="#Безымянный_градиент_68"/><linearGradient id="Безымянный_градиент_68-3" x1="168.28" y1="244.26" x2="187.71" y2="244.26" xlink:href="#Безымянный_градиент_68"/><linearGradient id="Безымянный_градиент_68-4" x1="167.12" y1="244.26" x2="188.87" y2="244.26" gradientTransform="translate(355.99 488.52) rotate(-180)" xlink:href="#Безымянный_градиент_68"/><linearGradient id="Безымянный_градиент_68-5" x1="168.28" y1="189.41" x2="187.71" y2="189.41" xlink:href="#Безымянный_градиент_68"/><linearGradient id="Безымянный_градиент_68-6" x1="167.12" y1="189.41" x2="188.87" y2="189.41" gradientTransform="translate(355.99 378.81) rotate(-180)" xlink:href="#Безымянный_градиент_68"/><linearGradient id="Безымянный_градиент_68-7" x1="168.28" y1="216.75" x2="187.71" y2="216.75" xlink:href="#Безымянный_градиент_68"/><linearGradient id="Безымянный_градиент_68-8" x1="167.12" y1="216.75" x2="188.87" y2="216.75" xlink:href="#Безымянный_градиент_68"/><linearGradient id="Безымянный_градиент_68-9" x1="168.32" y1="162.06" x2="187.74" y2="162.06" xlink:href="#Безымянный_градиент_68"/><linearGradient id="Безымянный_градиент_68-10" x1="167.15" y1="162.06" x2="188.91" y2="162.06" xlink:href="#Безымянный_градиент_68"/><linearGradient id="Безымянный_градиент_68-11" x1="168.32" y1="135.16" x2="187.74" y2="135.16" xlink:href="#Безымянный_градиент_68"/><linearGradient id="Безымянный_градиент_68-12" x1="167.15" y1="135.16" x2="188.91" y2="135.16" gradientTransform="translate(356.06 270.32) rotate(-180)" xlink:href="#Безымянный_градиент_68"/><linearGradient id="Безымянный_градиент_68-13" x1="168.32" y1="107.66" x2="187.74" y2="107.66" xlink:href="#Безымянный_градиент_68"/><linearGradient id="Безымянный_градиент_68-14" x1="167.15" y1="107.66" x2="188.91" y2="107.66" xlink:href="#Безымянный_градиент_68"/></defs><title>здания техпом 370-490</title><g id="Слой_3" data-name="Слой 3"><polygon class="cls-1" points="303.71 489.22 2.72 489.22 64.98 337.8 272.53 337.8 303.71 489.22"/><polygon class="cls-2" points="271.85 338.75 64.98 338.75 64.89 275.38 271.75 275.38 271.85 338.75"/><polygon class="cls-3" points="127.21 301.06 112.23 337.72 245.53 338.25 245.53 275.38 226.78 260.14 127.21 301.06"/><polygon class="cls-4" points="226.28 301.06 127.54 300.69 127.57 261.52 226.28 260.35 226.28 301.06"/><polyline class="cls-4" points="112.23 338.14 111.94 275.38 127.57 261.52 127.54 300.69 112.23 338.14"/><polygon class="cls-5" points="271.75 276.38 303.7 398.44 303.71 489.78 271.85 338.75 271.75 276.38"/><line class="cls-6" x1="226.73" y1="301.06" x2="245.45" y2="336.95"/><polygon class="cls-7" points="238.3 488.22 59.58 488.95 112.23 337.69 219.88 338.3 238.3 488.22"/><polygon class="cls-8" points="232.1 437.79 78.72 437.79 94.44 391.36 226.09 391.36 232.1 437.79"/><polygon class="cls-4" points="2.72 489.22 64.98 338.3 64.89 275.38 2.72 397.54 2.72 489.22"/><path class="cls-9" d="M57.1,336.75l-2.63-9.36c-2.13-3.6-9.46-2.15-10.94,1.76l-41.23,81,.38,63.05L53.59,350.92C55.17,347.18,57.77,340.82,57.1,336.75Z"/><line class="cls-10" x1="53.96" y1="328.95" x2="4.11" y2="437.54"/><line class="cls-11" x1="53.37" y1="330.74" x2="3.43" y2="439.62"/><polygon class="cls-12" points="63.67 477.21 8.14 477.21 10.78 469.62 66.31 469.62 63.67 477.21"/><polygon class="cls-12" points="69.11 460.05 14.59 460.05 18.38 452.45 71.87 452.45 69.11 460.05"/><polygon class="cls-12" points="75.55 442.89 22.18 442.89 24.82 435.29 78.87 435.29 75.55 442.89"/><polygon class="cls-12" points="81.99 425.73 29.33 425.73 32.42 418.13 84.16 418.13 81.99 425.73"/><polygon class="cls-12" points="87.97 408.57 36.22 408.57 39.5 400.66 90.59 400.97 87.97 408.57"/><polygon class="cls-12" points="93.71 391.41 42.94 391.41 46.17 383.56 95.88 383.81 93.71 391.41"/><polygon class="cls-12" points="98.99 374.97 50.26 374.97 53.45 367.31 101.91 367.31 98.99 374.97"/><polygon class="cls-12" points="105.43 357.68 56.98 357.85 60.18 350.03 107.94 350.03 105.43 357.68"/><rect class="cls-13" x="65.59" y="327.93" width="3.24" height="9.61" transform="translate(-5.63 1.19) rotate(-0.97)"/><rect class="cls-14" x="63.06" y="312.06" width="7.85" height="18.56" rx="3.5" transform="translate(-5.44 1.18) rotate(-0.97)"/><rect class="cls-15" x="57.97" y="302.83" width="18.02" height="31.02" rx="8.45" transform="matrix(1, -0.02, 0.02, 1, -5.39, 1.18)"/><rect class="cls-13" x="65.07" y="269.93" width="2.47" height="7.86" transform="translate(-4.63 1.16) rotate(-0.97)"/><rect class="cls-14" x="62.82" y="257.65" width="6.6" height="14.61" rx="3.3" transform="matrix(1, -0.02, 0.02, 1, -4.48, 1.16)"/><rect class="cls-15" x="59.24" y="249.37" width="13.76" height="25.18" rx="6.88" transform="translate(-4.43 1.16) rotate(-0.97)"/><line class="cls-16" x1="119.86" y1="279.3" x2="119.86" y2="302.12"/><line class="cls-17" x1="119.65" y1="278.3" x2="119.65" y2="303.99"/></g><g id="Слой_5" data-name="Слой 5"><rect class="cls-18" x="319.54" y="380.72" width="28.64" height="21.37"/><polygon class="cls-19" points="355.68 423.47 312.02 423.47 319.54 402.09 348.17 402.09 355.68 423.47"/><polygon class="cls-20" points="319.54 380.72 319.54 402.09 312.02 423.47 312.02 398.87 319.54 380.72"/><polygon class="cls-21" points="348.17 380.14 348.17 401.52 355.68 422.89 355.68 398.3 348.17 380.14"/><polygon class="cls-12" points="302.94 417.27 312.02 417.27 313.66 412 301.51 412 302.94 417.27"/><rect class="cls-12" x="301.51" y="405.92" width="12.16" height="6.57"/><rect class="cls-20" x="327.65" y="342.25" width="12.4" height="50.51" rx="4.77"/><path class="cls-8" d="M333.85,384.57a9.44,9.44,0,0,1-6.2-2.57c-.4.47,0,1.6,0,2.15,0,1.94,2.78,3.51,6.2,3.51s6.21-1.57,6.21-3.51c0-.55.4-1.68,0-2.15C339.37,383.52,336.3,384.57,333.85,384.57Z"/><path class="cls-8" d="M333.85,378.05a9.49,9.49,0,0,1-6.2-2.56c-.4.46,0,1.59,0,2.14,0,1.94,2.78,3.51,6.2,3.51s6.21-1.57,6.21-3.51c0-.55.4-1.68,0-2.14C339.37,377,336.3,378.05,333.85,378.05Z"/><path class="cls-8" d="M333.85,371.54a9.49,9.49,0,0,1-6.2-2.57c-.4.46,0,1.59,0,2.14,0,1.94,2.78,3.52,6.2,3.52s6.21-1.58,6.21-3.52c0-.55.4-1.68,0-2.14C339.37,370.48,336.3,371.54,333.85,371.54Z"/><path class="cls-8" d="M333.85,365a9.49,9.49,0,0,1-6.2-2.57c-.4.47,0,1.59,0,2.15,0,1.93,2.78,3.51,6.2,3.51s6.21-1.58,6.21-3.51c0-.56.4-1.68,0-2.15C339.37,364,336.3,365,333.85,365Z"/><path class="cls-8" d="M333.85,358.5a9.49,9.49,0,0,1-6.2-2.57c-.4.47,0,1.59,0,2.15,0,1.94,2.78,3.51,6.2,3.51s6.21-1.57,6.21-3.51c0-.56.4-1.68,0-2.15C339.37,357.44,336.3,358.5,333.85,358.5Z"/><path class="cls-8" d="M333.85,352a9.44,9.44,0,0,1-6.2-2.57c-.4.47,0,1.59,0,2.15,0,1.94,2.78,3.51,6.2,3.51s6.21-1.57,6.21-3.51c0-.56.4-1.68,0-2.15C339.37,350.92,336.3,352,333.85,352Z"/><path class="cls-9" d="M330.75,334.15h6.93c4,0,7.23-.44,7.23,1.7v7.42c0,2.65-4.72,4.09-9.66,4.09h-.89c-5.59,0-10.84-1.72-10.84-4.72v-6.79C323.52,333.71,326.78,334.15,330.75,334.15Z"/><ellipse class="cls-9" cx="334.22" cy="335.03" rx="10.7" ry="4.6"/><path class="cls-8" d="M331.87,317.68h4.69c2.7,0,4.91-.56,4.91,2.14v11.69c0,4-3.92,4-7.27,4h.11c-3.79,0-7.35-.43-7.35-4.22V319.82C327,317.12,329.17,317.68,331.87,317.68Z"/><path class="cls-22" d="M330.33,323.22h7.77c4.47,0,8.94-7.12,8.13-.05v10.69c0,3.65-6.49,4.65-12,4.65h.18c-6.28,0-12.18-1.4-12.18-4.86V323.17C321.72,316,325.86,323.22,330.33,323.22Z"/><path class="cls-9" d="M330.75,309.89h6.93c4,0,7.23-.44,7.23,1.69V319c0,2.65-4.72,4.09-9.66,4.09h-.89c-5.59,0-10.84-1.73-10.84-4.73v-6.79C323.52,309.45,326.78,309.89,330.75,309.89Z"/><ellipse class="cls-9" cx="334.22" cy="310.77" rx="10.7" ry="4.6"/><rect class="cls-23" x="323.17" y="446.75" width="28.64" height="21.37"/><polygon class="cls-24" points="359.32 489.49 315.66 489.49 323.17 468.12 351.81 468.12 359.32 489.49"/><polygon class="cls-20" points="323.17 446.75 323.17 468.12 315.66 489.49 315.66 464.9 323.17 446.75"/><polygon class="cls-25" points="351.81 446.17 351.81 467.54 359.32 488.92 359.32 464.32 351.81 446.17"/><polygon class="cls-12" points="303.71 481.32 315.75 481.3 316.82 475.67 302.46 475.67 303.71 481.32"/><rect class="cls-12" x="302.56" y="468.1" width="14.16" height="7.57"/><rect class="cls-20" x="331.29" y="407.28" width="12.4" height="50.51" rx="4.77"/><path class="cls-8" d="M337.49,449.6a9.44,9.44,0,0,1-6.2-2.57c-.4.47,0,1.59,0,2.15,0,1.94,2.78,3.51,6.2,3.51s6.2-1.57,6.2-3.51c0-.56.41-1.68,0-2.15C343,448.54,339.94,449.6,337.49,449.6Z"/><path class="cls-8" d="M337.49,443.08a9.44,9.44,0,0,1-6.2-2.57c-.4.47,0,1.59,0,2.15,0,1.94,2.78,3.51,6.2,3.51s6.2-1.57,6.2-3.51c0-.56.41-1.68,0-2.15C343,442,339.94,443.08,337.49,443.08Z"/><path class="cls-8" d="M337.49,436.56a9.44,9.44,0,0,1-6.2-2.57c-.4.47,0,1.6,0,2.15,0,1.94,2.78,3.51,6.2,3.51s6.2-1.57,6.2-3.51c0-.55.41-1.68,0-2.15C343,435.51,339.94,436.56,337.49,436.56Z"/><path class="cls-8" d="M337.49,430a9.49,9.49,0,0,1-6.2-2.56c-.4.46,0,1.59,0,2.14,0,1.94,2.78,3.51,6.2,3.51s6.2-1.57,6.2-3.51c0-.55.41-1.68,0-2.14C343,429,339.94,430,337.49,430Z"/><path class="cls-8" d="M337.49,423.53a9.49,9.49,0,0,1-6.2-2.57c-.4.46,0,1.59,0,2.14,0,1.94,2.78,3.52,6.2,3.52s6.2-1.58,6.2-3.52c0-.55.41-1.68,0-2.14C343,422.47,339.94,423.53,337.49,423.53Z"/><path class="cls-8" d="M337.49,417a9.49,9.49,0,0,1-6.2-2.57c-.4.47,0,1.59,0,2.15,0,1.94,2.78,3.51,6.2,3.51s6.2-1.57,6.2-3.51c0-.56.41-1.68,0-2.15C343,416,339.94,417,337.49,417Z"/><path class="cls-9" d="M334.39,399.18h6.93c4,0,7.23-.44,7.23,1.69v7.43c0,2.65-4.72,4.09-9.66,4.09H338c-5.59,0-10.84-1.73-10.84-4.73v-6.79C327.16,398.74,330.41,399.18,334.39,399.18Z"/><ellipse class="cls-9" cx="337.85" cy="400.06" rx="10.7" ry="4.6"/><path class="cls-8" d="M335.51,382.71h4.69c2.7,0,4.91-.56,4.91,2.13v11.7c0,4-3.92,4-7.27,4H338c-3.79,0-7.35-.44-7.35-4.23V384.84C330.6,382.15,332.81,382.71,335.51,382.71Z"/><path class="cls-22" d="M333.94,388.8h7.77c4.47,0,8.94-7.12,8.13-.05v10.68c0,3.66-6.49,4.66-12,4.66H338c-6.28,0-12.18-1.4-12.18-4.86V388.75C325.33,381.54,329.47,388.8,333.94,388.8Z"/><path class="cls-9" d="M334.39,374.92h6.93c4,0,7.23-.45,7.23,1.69V384c0,2.65-4.72,4.09-9.66,4.09H338c-5.59,0-10.84-1.73-10.84-4.73v-6.79C327.16,374.47,330.41,374.92,334.39,374.92Z"/><ellipse class="cls-9" cx="337.85" cy="375.79" rx="10.7" ry="4.6"/><path class="cls-9" d="M255,320.52h7.28c4.19,0,7.62-.54,7.62,2.07v9.06c0,3.24-5,5-10.17,5h-.94c-5.88,0-11.41-2.1-11.41-5.77v-8.28C247.38,320,250.81,320.52,255,320.52Z"/><ellipse class="cls-9" cx="258.64" cy="321.59" rx="11.26" ry="5.62"/><path class="cls-9" d="M255.35,272.42h6.58c3.79,0,6.89-.48,6.89,1.82v8c0,2.86-4.49,4.41-9.19,4.41h-.85c-5.32,0-10.32-1.86-10.32-5.09v-7.32C248.46,271.94,251.56,272.42,255.35,272.42Z"/><ellipse class="cls-9" cx="258.64" cy="273.36" rx="10.18" ry="4.96"/><line class="cls-26" x1="278.14" y1="333.57" x2="295.91" y2="404.37"/><line class="cls-27" x1="278.09" y1="333.1" x2="295.99" y2="404.83"/><line class="cls-28" x1="236.48" y1="278.87" x2="236.48" y2="301.69"/><line class="cls-29" x1="236.27" y1="277.87" x2="236.27" y2="303.56"/><path class="cls-30" d="M255.35,272.42s3.24-41.07,21.47-53.19c24-16,46.35-12,62.7,8.07,18.59,22.82,1.8,81.82-1.48,83.47-1.86.92-6.61,2.11-7.29-.88-2.08-9.2,12.91-36.82,10.41-55.07-1.9-13.92-7.84-21.76-15.64-30-13-13.85-42.44-1.78-48.7,3.51-11.05,9.34-11.67,41.76-14.89,44.12S255.35,272.42,255.35,272.42Z"/><path class="cls-31" d="M255.35,321.46s3.32-36.37,22-50.36c24.57-18.42,79.87-18.05,87.87,10.47,13.18,47-12.09,69.75-23.64,93.53-.95,2-6.56,1.77-7.17-.18-3.2-10.34,22.56-35.1,23.29-56.3.68-19.51,2.11-30.78-5.87-40.32-13.36-16-63-9.9-74.48,3.27-10.27,11.77-11.94,37.17-15.24,39.89S255.35,321.46,255.35,321.46Z"/><rect class="cls-32" x="277.95" y="210.68" width="29.56" height="14.1" rx="6" transform="translate(-49.99 92.68) rotate(-16.59)"/><rect class="cls-33" x="292.78" y="258.14" width="30.81" height="14.69" rx="6" transform="translate(-33.35 44.55) rotate(-7.85)"/></g><g id="Слой_7" data-name="Слой 7"><path class="cls-34" d="M159.47,267.08V293.9h37.05V267.08Zm29.58,19.84H166.94V274.07h22.11Z"/><rect class="cls-35" x="170.41" y="249.08" width="17.75" height="26.99"/><line class="cls-36" x1="170.41" y1="276.07" x2="188.16" y2="249.08"/><rect class="cls-35" x="170.41" y="113.09" width="17.75" height="26.99" transform="translate(358.57 253.17) rotate(180)"/><line class="cls-36" x1="188.16" y1="140.08" x2="170.41" y2="113.09"/><rect class="cls-35" x="170.41" y="85.74" width="17.75" height="26.99"/><line class="cls-36" x1="170.41" y1="112.73" x2="188.16" y2="85.74"/><rect class="cls-35" x="170.44" y="140.44" width="17.75" height="26.99"/><line class="cls-36" x1="170.44" y1="167.43" x2="188.2" y2="140.44"/><rect class="cls-35" x="170.44" y="167.33" width="17.75" height="26.99" transform="translate(358.64 361.66) rotate(180)"/><line class="cls-36" x1="188.2" y1="194.33" x2="170.44" y2="167.33"/><rect class="cls-35" x="170.44" y="222.19" width="17.75" height="26.99" transform="translate(358.64 471.37) rotate(180)"/><line class="cls-36" x1="188.2" y1="249.18" x2="170.44" y2="222.19"/><rect class="cls-35" x="170.44" y="194.84" width="17.75" height="26.99"/><line class="cls-36" x1="170.44" y1="221.83" x2="188.2" y2="194.84"/><line class="cls-37" x1="169.12" y1="257.66" x2="186.87" y2="284.65"/><rect class="cls-38" x="169.12" y="257.66" width="17.75" height="26.99"/><line class="cls-39" x1="186.87" y1="230.76" x2="169.12" y2="257.76"/><rect class="cls-40" x="169.12" y="230.76" width="17.75" height="26.99" transform="translate(355.99 488.52) rotate(180)"/><line class="cls-41" x1="186.87" y1="175.91" x2="169.12" y2="202.9"/><rect class="cls-42" x="169.12" y="175.91" width="17.75" height="26.99" transform="translate(355.99 378.81) rotate(180)"/><line class="cls-43" x1="169.12" y1="203.26" x2="186.87" y2="230.25"/><rect class="cls-44" x="169.12" y="203.26" width="17.75" height="26.99"/><line class="cls-45" x1="169.15" y1="148.56" x2="186.91" y2="175.55"/><rect class="cls-46" x="169.15" y="148.56" width="17.75" height="26.99"/><line class="cls-47" x1="186.91" y1="121.66" x2="169.15" y2="148.66"/><rect class="cls-48" x="169.15" y="121.66" width="17.75" height="26.99" transform="translate(356.06 270.32) rotate(180)"/><line class="cls-49" x1="169.15" y1="94.16" x2="186.91" y2="121.15"/><rect class="cls-50" x="169.15" y="94.16" width="17.75" height="26.99"/><rect class="cls-13" x="173.01" y="27.52" width="2.79" height="61.75"/><rect class="cls-51" x="167.54" y="0.68" width="13.76" height="28.02" rx="6.88" transform="translate(-0.22 2.96) rotate(-0.97)"/><rect class="cls-52" x="171.12" y="10.47" width="6.6" height="18.1" rx="3.3" transform="translate(-0.31 2.96) rotate(-0.97)"/><line class="cls-53" x1="174.4" y1="10.7" x2="174.4" y2="5.49"/><circle class="cls-54" cx="174.4" cy="4.96" r="1.76"/><rect class="cls-13" x="182.4" y="61.35" width="2.79" height="22.73"/><rect class="cls-51" x="176.92" y="32.96" width="13.76" height="28.81" rx="6.88" transform="translate(-0.78 3.12) rotate(-0.97)"/><rect class="cls-52" x="180.51" y="43.53" width="6.6" height="17.95" rx="3.3" transform="translate(-0.86 3.12) rotate(-0.97)"/><line class="cls-53" x1="183.75" y1="43.87" x2="183.75" y2="38.67"/><circle class="cls-54" cx="183.75" cy="38.13" r="1.76"/><rect class="cls-55" x="168.23" y="84.67" width="20.88" height="8.27"/></g></svg>