<svg id="Слой_4" data-name="Слой 4" xmlns="http://www.w3.org/2000/svg" xmlns:xlink="http://www.w3.org/1999/xlink" viewBox="0 0 460 350"><defs><style>.cls-1,.cls-10,.cls-15,.cls-16,.cls-2,.cls-25,.cls-26,.cls-3,.cls-4,.cls-5,.cls-6,.cls-7,.cls-8,.cls-9{stroke:#000;}.cls-1,.cls-10,.cls-11,.cls-12,.cls-13,.cls-15,.cls-16,.cls-17,.cls-18,.cls-19,.cls-2,.cls-20,.cls-21,.cls-22,.cls-25,.cls-26,.cls-3,.cls-4,.cls-5,.cls-6,.cls-7{stroke-miterlimit:10;}.cls-1,.cls-2,.cls-3,.cls-4,.cls-7,.cls-8,.cls-9{stroke-width:2px;}.cls-1{fill:url(#Безымянный_градиент_54);}.cls-2{fill:#9597a3;}.cls-3{fill:url(#Безымянный_градиент_40);}.cls-4{fill:url(#Безымянный_градиент_56);}.cls-5{fill:#595872;}.cls-6{fill:#3d3d56;}.cls-7{fill:url(#Безымянный_градиент_55);}.cls-8,.cls-9{stroke-linejoin:bevel;}.cls-8{fill:url(#Безымянный_градиент_12);}.cls-9{fill:url(#Безымянный_градиент_52);}.cls-10,.cls-15,.cls-23{fill:#27f9fa;}.cls-11,.cls-12,.cls-17,.cls-18,.cls-19,.cls-20,.cls-21,.cls-22,.cls-25{fill:none;}.cls-11,.cls-21,.cls-22{stroke:#27f9fa;}.cls-11,.cls-19,.cls-20,.cls-21{stroke-linecap:round;}.cls-11,.cls-19{stroke-width:3px;}.cls-12,.cls-17,.cls-18,.cls-19,.cls-20{stroke:#f9f912;}.cls-12,.cls-20,.cls-21{stroke-width:6px;}.cls-13,.cls-16,.cls-24{fill:#b60000;}.cls-13{stroke:#fff;}.cls-14{fill:#757989;}.cls-15,.cls-16{stroke-width:0.5px;}.cls-17,.cls-18{stroke-width:13px;}.cls-17,.cls-22,.cls-23,.cls-24{opacity:0.16;}.cls-18{opacity:0.17;}.cls-20,.cls-21{opacity:0.2;}.cls-22{stroke-width:8px;}.cls-26{fill:#454556;}</style><linearGradient id="Безымянный_градиент_54" x1="131.86" y1="277.6" x2="303.39" y2="277.6" gradientTransform="translate(-2.93 3.93) rotate(-0.97)" gradientUnits="userSpaceOnUse"><stop offset="0" stop-color="#54465c"/><stop offset="0.75" stop-color="#413851"/><stop offset="1" stop-color="#3a334d"/></linearGradient><linearGradient id="Безымянный_градиент_40" x1="7.32" y1="244.31" x2="132.74" y2="272.21" gradientTransform="translate(-2.93 3.93) rotate(-0.97)" gradientUnits="userSpaceOnUse"><stop offset="0" stop-color="#777d94"/><stop offset="0.08" stop-color="#6e7187"/><stop offset="0.23" stop-color="#615e73"/><stop offset="0.4" stop-color="#585166"/><stop offset="0.62" stop-color="#53495d"/><stop offset="1" stop-color="#51475b"/></linearGradient><linearGradient id="Безымянный_градиент_56" x1="332.56" y1="273.73" x2="406.3" y2="249.92" gradientTransform="translate(-2.93 3.93) rotate(-0.97)" gradientUnits="userSpaceOnUse"><stop offset="0" stop-color="#3c324e"/><stop offset="1" stop-color="#333244"/></linearGradient><linearGradient id="Безымянный_градиент_55" x1="164.16" y1="143.96" x2="297.81" y2="161.87" gradientTransform="translate(-2.93 3.93) rotate(-0.97)" gradientUnits="userSpaceOnUse"><stop offset="0" stop-color="#54465c"/><stop offset="0.54" stop-color="#433a52"/><stop offset="1" stop-color="#3a334d"/></linearGradient><linearGradient id="Безымянный_градиент_12" x1="46.16" y1="107.5" x2="182.47" y2="169.48" gradientTransform="translate(-2.93 3.93) rotate(-0.97)" gradientUnits="userSpaceOnUse"><stop offset="0" stop-color="#9ea9b9"/><stop offset="0" stop-color="#9ea8b8"/><stop offset="0.2" stop-color="#818598"/><stop offset="0.4" stop-color="#6b697e"/><stop offset="0.6" stop-color="#5b566c"/><stop offset="0.8" stop-color="#514a61"/><stop offset="1" stop-color="#4e465d"/></linearGradient><linearGradient id="Безымянный_градиент_52" x1="317.06" y1="166.46" x2="356.07" y2="137.72" gradientTransform="translate(-2.93 3.93) rotate(-0.97)" gradientUnits="userSpaceOnUse"><stop offset="0" stop-color="#3c324e"/><stop offset="1" stop-color="#333244"/></linearGradient></defs><title>здания мед 450-360</title><polygon class="cls-1" points="320.48 346.61 123.66 349.95 127.77 208.83 311.58 205.71 320.48 346.61"/><rect class="cls-2" x="176.23" y="207.61" width="91.32" height="140.29" transform="translate(-4.68 3.8) rotate(-0.97)"/><polygon class="cls-3" points="123.65 349.21 1.53 310.39 26.52 174.19 127.75 208.09 123.65 349.21"/><polygon class="cls-4" points="459.49 303.92 320.46 345.87 311.57 204.97 431.07 166.01 459.49 303.92"/><rect class="cls-5" x="173.85" y="73.4" width="3.9" height="26.38" transform="translate(-1.44 2.99) rotate(-0.97)"/><rect class="cls-6" x="289.65" y="26.34" width="3.9" height="71.72" transform="translate(-1.01 4.95) rotate(-0.97)"/><polygon class="cls-7" points="295.38 93.28 174.65 95.33 127.75 208.09 311.57 204.97 295.38 93.28"/><polygon class="cls-8" points="174.65 95.33 127.75 208.09 26.52 174.19 174.65 95.33"/><polygon class="cls-9" points="295.38 93.28 311.57 204.97 431.07 166.01 295.38 93.28"/><polygon class="cls-10" points="273.22 160.78 183.35 162.41 196.11 134.34 261.55 133.23 273.22 160.78"/><polyline class="cls-11" points="26.52 173.68 127.36 207.45 311.17 204.33 430.67 165.37"/><line class="cls-12" x1="130.35" y1="208.04" x2="126.25" y2="349.17"/><line class="cls-12" x1="308.98" y1="205.75" x2="317.88" y2="346.66"/><polygon class="cls-10" points="83.68 299.92 45.06 286.94 57.32 221.41 89.93 231.03 83.68 299.92"/><path class="cls-13" d="M245.43,266.36l.29,17-15,.25.28,16.54-15.47.26-.28-16.54-15,.26-.29-17,15-.25-.29-16.54,15.47-.26.28,16.54Z"/><path class="cls-14" d="M459.49,303.92l-41.78,12.61L401.06,202.4a8.15,8.15,0,0,1,5.13-8.78l28.32-8.93Z"/><rect class="cls-15" x="170.22" y="52.39" width="10.4" height="23.74" rx="3.5" transform="translate(-1.06 2.98) rotate(-0.97)"/><rect class="cls-16" x="284.98" y="3.69" width="11.7" height="26.38" rx="4.5" transform="translate(-0.24 4.93) rotate(-0.97)"/><line class="cls-17" x1="130.35" y1="208.04" x2="126.25" y2="349.17"/><line class="cls-18" x1="308.98" y1="205.75" x2="317.88" y2="346.66"/><line class="cls-19" x1="435.91" y1="229.54" x2="450.66" y2="300.66"/><line class="cls-20" x1="435.91" y1="229.54" x2="450.66" y2="300.66"/><line class="cls-11" x1="429.29" y1="198.81" x2="434.35" y2="221.51"/><line class="cls-21" x1="429.29" y1="198.81" x2="434.35" y2="221.51"/><polyline class="cls-22" points="25.22 173.75 127.75 208.09 311.57 204.97 433.02 165.37"/><rect class="cls-23" x="164.58" y="47.78" width="21.69" height="32.97" rx="8.45" transform="translate(-1.06 2.98) rotate(-0.97)"/><rect class="cls-24" x="279.2" y="-0.93" width="23.25" height="35.61" rx="9.75" transform="translate(-0.24 4.93) rotate(-0.97)"/><line class="cls-25" x1="127.76" y1="130.38" x2="69.14" y2="164.35"/><line class="cls-25" x1="148.36" y1="128.15" x2="113.24" y2="177.91"/><line class="cls-25" x1="121.44" y1="147.82" x2="94.31" y2="171.47"/><line class="cls-25" x1="338.8" y1="127.76" x2="390.53" y2="161.35"/><line class="cls-25" x1="320.48" y1="138.14" x2="346.43" y2="174.91"/><line class="cls-25" x1="316.56" y1="118.79" x2="365.36" y2="168.47"/><line class="cls-25" x1="208.85" y1="103.54" x2="270.31" y2="102.96"/><line class="cls-25" x1="187.19" y1="115.37" x2="245.72" y2="115.37"/><path class="cls-26" d="M389.31,324.54l-29.92,8.78c-3.15,1-6.42-.48-7.27-3.23l-4.91-64c-.85-2.75,1-5.79,4.19-6.76l26-7.51c3.15-1,6.43.47,7.27,3.22l7.84,62.79C393.36,320.56,392.46,323.57,389.31,324.54Z"/><line class="cls-25" x1="356.41" y1="272.69" x2="361.66" y2="322.53"/><line class="cls-25" x1="377.09" y1="262.7" x2="384.12" y2="316.18"/><line class="cls-25" x1="368.31" y1="282.21" x2="371.75" y2="312.1"/></svg>