<svg id="Слой_1" data-name="Слой 1" xmlns="http://www.w3.org/2000/svg" xmlns:xlink="http://www.w3.org/1999/xlink" viewBox="0 0 95 130"><defs><style>.cls-1,.cls-10,.cls-11,.cls-12,.cls-2,.cls-4,.cls-5,.cls-6,.cls-7,.cls-8,.cls-9{stroke:#000;}.cls-1,.cls-10,.cls-11,.cls-2,.cls-4,.cls-5,.cls-6,.cls-7,.cls-8,.cls-9{stroke-miterlimit:10;}.cls-1{fill:url(#Безымянный_градиент_13);}.cls-2{fill:url(#Безымянный_градиент_11);}.cls-11,.cls-3{fill:#31c8c5;}.cls-4{fill:url(#Безымянный_градиент_10);}.cls-5{fill:url(#Безымянный_градиент_9);}.cls-6{fill:url(#Безымянный_градиент_4);}.cls-7{fill:url(#Безымянный_градиент_6);}.cls-8{fill:url(#Безымянный_градиент_7);}.cls-9{fill:#f9f912;stroke-width:2px;}.cls-10{fill:url(#Безымянный_градиент_2);}.cls-12{fill:#b60000;stroke-miterlimit:10;}</style><linearGradient id="Безымянный_градиент_13" x1="69.78" y1="87.72" x2="69.78" y2="121.11" gradientTransform="matrix(0.97, 0, 0, -0.97, -32.81, 211.63)" gradientUnits="userSpaceOnUse"><stop offset="0" stop-color="#31c8c5"/><stop offset="0.04" stop-color="#32bab6"/><stop offset="0.13" stop-color="#36978e"/><stop offset="0.24" stop-color="#3c5d4e"/><stop offset="0.35" stop-color="#42210b"/><stop offset="0.48" stop-color="#2e1708"/><stop offset="0.67" stop-color="#150a03"/><stop offset="0.85" stop-color="#050301"/><stop offset="1"/></linearGradient><linearGradient id="Безымянный_градиент_11" x1="0.84" y1="144.99" x2="71.44" y2="201.66" gradientTransform="matrix(1, 0, 0, -1, 0, 225.02)" gradientUnits="userSpaceOnUse"><stop offset="0"/><stop offset="0.11" stop-color="#0f0702"/><stop offset="0.31" stop-color="#361b09"/><stop offset="0.36" stop-color="#42210b"/><stop offset="0.47" stop-color="#4c260d"/><stop offset="0.64" stop-color="#631"/><stop offset="0.7" stop-color="#713813"/><stop offset="0.75" stop-color="#703b16"/><stop offset="0.79" stop-color="#6c4421"/><stop offset="0.84" stop-color="#655233"/><stop offset="0.88" stop-color="#5c674d"/><stop offset="0.92" stop-color="#50816e"/><stop offset="0.96" stop-color="#42a195"/><stop offset="1" stop-color="#31c7c4"/><stop offset="1" stop-color="#31c8c5"/></linearGradient><linearGradient id="Безымянный_градиент_10" x1="47.14" y1="115.19" x2="47.14" y2="136.49" gradientTransform="matrix(1, 0, 0, -1, 0, 225.02)" gradientUnits="userSpaceOnUse"><stop offset="0.03" stop-color="#31c8c5"/><stop offset="0.03" stop-color="#30c4c1"/><stop offset="0.05" stop-color="#259794"/><stop offset="0.08" stop-color="#1b6e6c"/><stop offset="0.1" stop-color="#134c4b"/><stop offset="0.12" stop-color="#0c3030"/><stop offset="0.15" stop-color="#071b1a"/><stop offset="0.18" stop-color="#030c0b"/><stop offset="0.21" stop-color="#010303"/><stop offset="0.26"/><stop offset="0.36" stop-color="#060301"/><stop offset="0.49" stop-color="#160b05"/><stop offset="0.63" stop-color="#30180b"/><stop offset="0.78" stop-color="#552b14"/><stop offset="0.94" stop-color="#85421f"/><stop offset="1" stop-color="#984c24"/></linearGradient><linearGradient id="Безымянный_градиент_9" x1="-14.67" y1="112.89" x2="-14.67" y2="146.25" gradientTransform="matrix(1.03, 0.01, -0.01, -1.02, 38.63, 244.42)" gradientUnits="userSpaceOnUse"><stop offset="0" stop-color="#31c8c5"/><stop offset="0.04" stop-color="#36bcb6"/><stop offset="0.11" stop-color="#459b8e"/><stop offset="0.22" stop-color="#5c684e"/><stop offset="0.3" stop-color="#713813"/><stop offset="0.54" stop-color="#4c260d"/><stop offset="0.59" stop-color="#42210b"/><stop offset="0.7" stop-color="#361b09"/><stop offset="0.88" stop-color="#160b04"/><stop offset="1"/></linearGradient><linearGradient id="Безымянный_градиент_4" x1="92.68" y1="130.03" x2="92.68" y2="163.74" gradientTransform="matrix(0.98, 0.03, -0.03, -0.99, -8.29, 252.71)" gradientUnits="userSpaceOnUse"><stop offset="0" stop-color="#31c8c5"/><stop offset="0.05" stop-color="#36bcb6"/><stop offset="0.13" stop-color="#439b8e"/><stop offset="0.25" stop-color="#59674e"/><stop offset="0.36" stop-color="#6d3612"/><stop offset="0.59" stop-color="#42210b"/><stop offset="0.7" stop-color="#361b09"/><stop offset="0.88" stop-color="#160b04"/><stop offset="1"/></linearGradient><linearGradient id="Безымянный_градиент_6" x1="65.44" y1="95.32" x2="65.44" y2="130.18" gradientTransform="matrix(1, 0, 0, -1, 0, 225.02)" gradientUnits="userSpaceOnUse"><stop offset="0" stop-color="#31c8c5"/><stop offset="0.05" stop-color="#36bcb6"/><stop offset="0.14" stop-color="#459b8e"/><stop offset="0.26" stop-color="#5c684e"/><stop offset="0.36" stop-color="#713813"/><stop offset="0.55" stop-color="#4c260d"/><stop offset="0.59" stop-color="#42210b"/><stop offset="0.7" stop-color="#361b09"/><stop offset="0.88" stop-color="#160b04"/><stop offset="1"/></linearGradient><radialGradient id="Безымянный_градиент_7" cx="47.59" cy="211" r="46.08" gradientTransform="matrix(1, -0.05, -0.07, -1.36, 30.42, 370.99)" gradientUnits="userSpaceOnUse"><stop offset="0" stop-color="#31c8c5"/><stop offset="0.07" stop-color="#3eaaa0"/><stop offset="0.22" stop-color="#605f43"/><stop offset="0.3" stop-color="#713813"/><stop offset="0.46" stop-color="#4c260d"/><stop offset="0.5" stop-color="#42210b"/><stop offset="0.63" stop-color="#361b09"/><stop offset="0.86" stop-color="#160b04"/><stop offset="1"/></radialGradient><linearGradient id="Безымянный_градиент_2" x1="64.34" y1="688.64" x2="91.42" y2="691.32" gradientTransform="matrix(0.92, 0.39, 0.39, -0.92, -267.14, 617.23)" gradientUnits="userSpaceOnUse"><stop offset="0" stop-color="#31c8c5"/><stop offset="0.04" stop-color="#40bbb8"/><stop offset="0.16" stop-color="#639b9a"/><stop offset="0.25" stop-color="#788787"/><stop offset="0.31" stop-color="gray"/><stop offset="0.41" stop-color="#767676"/><stop offset="0.58" stop-color="#5b5b5b"/><stop offset="0.8" stop-color="#2f2f2f"/><stop offset="1"/></linearGradient></defs><title>враги2 атака</title><path class="cls-1" d="M38.76,110.9c4.5-6,6.62-4.81,8-12.42.87-4.79-3.69-4.09-7.1-4.07-6.1,0-12,4.62-13.67,6.64-4,4.73-3.52,9.09-2,14.64.88,3.17,8.2,10.66,11.18,11.25C34.92,122.06,33.24,118.32,38.76,110.9Z"/><path class="cls-2" d="M20.86,97.27C-11.4,80-1.06,29.66,30.61,12.79c12.51-6.67,29.3-6,44.26-3.8,8.46,1.27,13.16,5.17,2.23,5.76-31.37,1.68-34,5.18-37.61,7.12-18.36,10-22.2,48.54-5.86,51.69S39.39,107.18,20.86,97.27Z"/><path class="cls-3" d="M23.64,71.62a17.15,17.15,0,0,1-1.33,4.66,11.68,11.68,0,0,1-3,4A8.32,8.32,0,0,1,17,81.66a6.22,6.22,0,0,1-2.67.39,7.69,7.69,0,0,1-4.6-2.13l.08-.18a27.89,27.89,0,0,0,4.56.31,8.47,8.47,0,0,0,4-1.06,10.29,10.29,0,0,0,3.09-3.21,17.94,17.94,0,0,0,2.06-4.22Z"/><path class="cls-3" d="M20.65,63.21A16.77,16.77,0,0,1,17,66.48a11.62,11.62,0,0,1-4.68,1.85,8,8,0,0,1-2.67,0,6.2,6.2,0,0,1-2.48-1.09A7.69,7.69,0,0,1,4.39,63l.17-.11a27.76,27.76,0,0,0,3.75,2.63,8.46,8.46,0,0,0,4,1.18,10.46,10.46,0,0,0,4.32-1.13,18.47,18.47,0,0,0,4-2.52Z"/><path class="cls-3" d="M20.15,51.71a15.47,15.47,0,0,1-4.13,2,9.84,9.84,0,0,1-4.76.28,7.61,7.61,0,0,1-2.38-.93A5.79,5.79,0,0,1,7.1,51.22a7.28,7.28,0,0,1-.93-4.74h.19a34.2,34.2,0,0,0,2.38,3.58,7.17,7.17,0,0,0,3,2.37,8.6,8.6,0,0,0,4.12.28,16.76,16.76,0,0,0,4.24-1.16Z"/><path class="cls-3" d="M23.93,36.8a13,13,0,0,1-3.62,2.07,7.65,7.65,0,0,1-4.39.37,5.22,5.22,0,0,1-3.61-2.87A6.88,6.88,0,0,1,11.88,32h.19c.75,1.25,1.3,2.43,2,3.4a12,12,0,0,0,1,1.34,3.83,3.83,0,0,0,1.33,1A6.45,6.45,0,0,0,20,38a14.35,14.35,0,0,0,3.77-1.28Z"/><path class="cls-3" d="M29.12,29.28a11.45,11.45,0,0,1-3.64.41,4.63,4.63,0,0,1-4.63-3.62A4.67,4.67,0,0,1,21,24,6.48,6.48,0,0,1,23,20.81l.17.09c0,1.3-.23,2.42-.3,3.47a4.69,4.69,0,0,0,.19,2.75,4,4,0,0,0,2.51,1.58,12.42,12.42,0,0,0,3.43.39Z"/><path class="cls-3" d="M38,20.88a9.27,9.27,0,0,1-3.06.3,4.6,4.6,0,0,1-3.08-1.36A3.85,3.85,0,0,1,31,16.37a6.84,6.84,0,0,1,.68-1.51,6.39,6.39,0,0,1,1.13-1.19l.18.08a6.78,6.78,0,0,1,0,1.56v2.78l.06.25v.26l.13.23a3.59,3.59,0,0,0,2,1.37,9.83,9.83,0,0,0,2.84.48Z"/><ellipse class="cls-4" cx="47.14" cy="99.18" rx="29.15" ry="10.65"/><path class="cls-5" d="M24.68,112.33c7.06-3.57,12.35-2.37,12-11.64-.2-5.1-7.93-5.36-11.53-5.4-6.46-.06-12.57,4.67-14.36,6.77-4.19,4.88-3.58,9.47-1.86,15.31,1,3.34,8.84,11.3,12,12C20.56,124.22,16.09,116.67,24.68,112.33Z"/><path class="cls-6" d="M77.74,108.05c-15.61-6.21-17.22-8-11.45-12.48,9-6.91,22.25,4.81,23.89,7,2.24,3,3.44,10.38,1.9,15-1.06,3.13-4.68,9.14-7.66,9.68C84.6,122.25,86.51,111.54,77.74,108.05Z"/><path class="cls-7" d="M65.65,111.37c-7.19-2.75-18.78-6.89-13.34-12.19,3.6-3.45,12.37-5,15.76-4.08,6.11,1.65,17.25,7.64,8.92,23-1.62,3-8.51,11-11.58,11.6C65.77,124.72,70.36,113.17,65.65,111.37Z"/><path class="cls-8" d="M27.77,81.24c-2.59,5-4.41,11-2.78,10.58,4.29-1.07,14.64-3.45,22.93,1,17.73,9.41,26.81-4.24,26.32-12.93-.37-6.74-4.62-13.79-18.62-13.58S32.07,72.89,27.77,81.24Z"/><path d="M33.39,72.83c9.36-6.65,26.66-16.44,35.43-4.35L68.5,69c-11.93-.53-23.69-.57-34.8,4.35Z"/><path d="M48.07,88.27a13.9,13.9,0,0,1-2.33-4.36,13.75,13.75,0,0,1-.5-2.54,11.35,11.35,0,0,1,.07-2.67,7.76,7.76,0,0,1,.25-1.36A10.35,10.35,0,0,1,45.93,76a10.58,10.58,0,0,1,.63-1.26,7.21,7.21,0,0,1,.91-1,7.57,7.57,0,0,1,2.29-1.46,7.39,7.39,0,0,1,2.71-.45l.2.35a12.94,12.94,0,0,1-1.1,2.28c-.32.71-.76,1.24-1,1.85a8.52,8.52,0,0,1-.53.8,4.64,4.64,0,0,1-.57.77,7.06,7.06,0,0,0-.57.78l-.28.42-.18.46a11.18,11.18,0,0,0-.74,4.09,15.82,15.82,0,0,0,.71,4.48Z"/><path d="M37.25,87a10.48,10.48,0,0,1-1.75-3.6l-.21-1-.11-1a11.14,11.14,0,0,1,.13-2.23c0-.37.12-.73.2-1.09a10,10,0,0,1,.28-1.11,7.07,7.07,0,0,1,.48-1,6,6,0,0,1,.73-.85,5.39,5.39,0,0,1,4.18-1.44l.23.33a8.77,8.77,0,0,1-.63,2c-.17.61-.46,1.07-.64,1.56a3.86,3.86,0,0,1-.39.65,2.56,2.56,0,0,1-.46.58,4.72,4.72,0,0,0-.5.59,2.81,2.81,0,0,0-.41.66,10,10,0,0,0-.9,3.16,13.08,13.08,0,0,0,.1,3.59Z"/><path class="cls-9" d="M74.31,81.26c0-6.93-5-12.51-7-12.51-4.51,0-7.05,6.22-7.05,13.14s3.42,12.59,6.05,12C70.75,92.84,74.31,88.19,74.31,81.26Z"/><path d="M68.62,72.29a12.08,12.08,0,0,1,2.08,4.55,15.34,15.34,0,0,1-.51,8.82,11.9,11.9,0,0,1-2.62,4.28,12.38,12.38,0,0,1-2.09-4.56,15.51,15.51,0,0,1-.38-4.45A16,16,0,0,1,66,76.56,12.36,12.36,0,0,1,68.62,72.29Z"/><path class="cls-10" d="M61.31,9.24c-1.34,3.24-.42,7.24,4.81,9.65C74.33,22.74,86,25,87.38,21.75s5.09-11.64-3.26-15.19S62.73,6,61.31,9.24Z"/><path class="cls-11" d="M88.6,2.31l-.49,2.93c.06.85.69,1.13,1,.47l.74-1.39c.53-1,3-2.68,2,1.11L90.57,7c-.17.84.31,1.56.79,1.2l1-.75C93,7,94.66,8,94.21,8.85l-1.9,1.54c-.36.65-.13,1.67.38,1.69h1.07c.66,0,1.65,1.9,1,2.34L92,14.09c-.48.34.3,2.1.74,2.49l1,.76c.56.5.71,2.25.06,2.2l-2-1c-.52,0-.37,1.63-.08,2.32l.89,1.21c.36.87.7,2.91.14,2.39L90.61,23c-.44-.41-.4.36-.32,1.2,0,0,1.26,2.39.58,3.17s-2.24-2.1-2.24-2.1a.85.85,0,0,0-1.58.29l.27,2.64c-.2,1.06-1.7.12-1.78-.95l-.23-1.72c-.06-.85-.69-1.13-1-.47l-1.5,2.18c-.45.84-1.41-1-.92-1.63l.35-1.74c.82-.92.35-1.64-.13-1.28L80.51,24c-.61.45-1.35-1.38-.89-2.21l1.56-1.44c.37-.65.14-1.67-.38-1.69l-1.86.6c-.76-.89,0-2.16.63-2.59l1-.71a1.38,1.38,0,0,0,.1-1.84H78.5c-.56-.5.32-2.87,1-2.82l1.71.2c.51,0,.85-.94.57-1.63L79.57,7.68c-.36-.88,1.88-1.34,2.43-.83l.92.86c.44.4,1-.26.92-1.1L82.65,3.68c-.1-1.08,1.07-2.33,1.42-1.44l1.31,3.24c.28.69.94.48,1.09-.35l.33-1.75C87,2.34,88.52,1.23,88.6,2.31Z"/><ellipse class="cls-12" cx="87.23" cy="15.4" rx="7.69" ry="2.39" transform="translate(66.97 101.63) rotate(-86.79)"/><path d="M87.67,12.48a4.25,4.25,0,0,1,.64,1.63,5.12,5.12,0,0,1,.11,1.56,5.35,5.35,0,0,1-.32,1.54,4.2,4.2,0,0,1-.89,1.49,4.64,4.64,0,0,1-.68-1.6,5.9,5.9,0,0,1-.1-1.57A6.13,6.13,0,0,1,86.75,14,4.73,4.73,0,0,1,87.67,12.48Z"/></svg>