<svg xmlns="http://www.w3.org/2000/svg" xmlns:xlink="http://www.w3.org/1999/xlink" viewBox="0 0 95 130"><defs><style>.cls-1,.cls-10,.cls-11,.cls-12,.cls-2,.cls-4,.cls-5,.cls-6,.cls-7,.cls-8,.cls-9{stroke:#000;stroke-miterlimit:10;}.cls-1{fill:url(#Безымянный_градиент_70);}.cls-2{fill:url(#Безымянный_градиент_128);}.cls-11,.cls-3{fill:#31c8c5;}.cls-4{fill:url(#Безымянный_градиент_23);}.cls-5{fill:url(#Безымянный_градиент_62);}.cls-6{fill:url(#Безымянный_градиент_73);}.cls-7{fill:url(#Безымянный_градиент_71);}.cls-8{fill:url(#Безымянный_градиент_61);}.cls-9{fill:#f9f912;stroke-width:2px;}.cls-10{fill:url(#Безымянный_градиент_177);}.cls-12{fill:#b60000;}</style><linearGradient id="Безымянный_градиент_70" x1="42.71" y1="80.4" x2="42.71" y2="47.01" gradientTransform="matrix(0.88, -0.42, 0.41, 0.88, -27.91, 73.11)" gradientUnits="userSpaceOnUse"><stop offset="0" stop-color="#31c8c5"/><stop offset="0.04" stop-color="#32bab6"/><stop offset="0.13" stop-color="#36978e"/><stop offset="0.24" stop-color="#3c5d4e"/><stop offset="0.35" stop-color="#42210b"/><stop offset="0.48" stop-color="#2e1708"/><stop offset="0.67" stop-color="#150a03"/><stop offset="0.85" stop-color="#050301"/><stop offset="1"/></linearGradient><linearGradient id="Безымянный_градиент_128" x1="0.43" y1="79.89" x2="67.9" y2="25.72" gradientUnits="userSpaceOnUse"><stop offset="0"/><stop offset="0.11" stop-color="#0f0702"/><stop offset="0.31" stop-color="#361b09"/><stop offset="0.36" stop-color="#42210b"/><stop offset="0.47" stop-color="#4c260d"/><stop offset="0.64" stop-color="#631"/><stop offset="0.7" stop-color="#713813"/><stop offset="0.75" stop-color="#703b16"/><stop offset="0.79" stop-color="#6c4421"/><stop offset="0.84" stop-color="#655233"/><stop offset="0.88" stop-color="#5c674d"/><stop offset="0.92" stop-color="#50816e"/><stop offset="0.96" stop-color="#42a195"/><stop offset="1" stop-color="#31c7c4"/><stop offset="1" stop-color="#31c8c5"/></linearGradient><linearGradient id="Безымянный_градиент_23" x1="46.56" y1="110.34" x2="46.56" y2="89.03" gradientUnits="userSpaceOnUse"><stop offset="0.03" stop-color="#31c8c5"/><stop offset="0.03" stop-color="#30c4c1"/><stop offset="0.05" stop-color="#259794"/><stop offset="0.08" stop-color="#1b6e6c"/><stop offset="0.1" stop-color="#134c4b"/><stop offset="0.12" stop-color="#0c3030"/><stop offset="0.15" stop-color="#071b1a"/><stop offset="0.18" stop-color="#030c0b"/><stop offset="0.21" stop-color="#010303"/><stop offset="0.26"/><stop offset="0.36" stop-color="#060301"/><stop offset="0.49" stop-color="#160b05"/><stop offset="0.63" stop-color="#30180b"/><stop offset="0.78" stop-color="#552b14"/><stop offset="0.94" stop-color="#85421f"/><stop offset="1" stop-color="#984c24"/></linearGradient><linearGradient id="Безымянный_градиент_62" x1="23.08" y1="138.14" x2="23.08" y2="104.78" gradientTransform="matrix(1.02, 0.08, -0.06, 1.02, 4.63, -13.31)" gradientUnits="userSpaceOnUse"><stop offset="0" stop-color="#31c8c5"/><stop offset="0.04" stop-color="#36bcb6"/><stop offset="0.11" stop-color="#459b8e"/><stop offset="0.22" stop-color="#5c684e"/><stop offset="0.3" stop-color="#713813"/><stop offset="0.54" stop-color="#4c260d"/><stop offset="0.59" stop-color="#42210b"/><stop offset="0.7" stop-color="#361b09"/><stop offset="0.88" stop-color="#160b04"/><stop offset="1"/></linearGradient><linearGradient id="Безымянный_градиент_73" x1="75.74" y1="126.15" x2="75.74" y2="92.45" gradientTransform="matrix(0.98, -0.07, 0.12, 0.99, -14.67, 7.97)" gradientUnits="userSpaceOnUse"><stop offset="0" stop-color="#31c8c5"/><stop offset="0.05" stop-color="#36bcb6"/><stop offset="0.13" stop-color="#439b8e"/><stop offset="0.25" stop-color="#59674e"/><stop offset="0.36" stop-color="#6d3612"/><stop offset="0.59" stop-color="#42210b"/><stop offset="0.7" stop-color="#361b09"/><stop offset="0.88" stop-color="#160b04"/><stop offset="1"/></linearGradient><linearGradient id="Безымянный_градиент_71" x1="68.19" y1="167.96" x2="68.19" y2="133.08" gradientTransform="translate(50.25 -53.37) rotate(21.08)" gradientUnits="userSpaceOnUse"><stop offset="0" stop-color="#31c8c5"/><stop offset="0.05" stop-color="#36bcb6"/><stop offset="0.14" stop-color="#459b8e"/><stop offset="0.26" stop-color="#5c684e"/><stop offset="0.36" stop-color="#713813"/><stop offset="0.55" stop-color="#4c260d"/><stop offset="0.59" stop-color="#42210b"/><stop offset="0.7" stop-color="#361b09"/><stop offset="0.88" stop-color="#160b04"/><stop offset="1"/></linearGradient><radialGradient id="Безымянный_градиент_61" cx="70.99" cy="82.64" r="46.08" gradientTransform="translate(-14.43 -26.59) rotate(-3) scale(1 1.36)" gradientUnits="userSpaceOnUse"><stop offset="0" stop-color="#31c8c5"/><stop offset="0.07" stop-color="#3eaaa0"/><stop offset="0.22" stop-color="#605f43"/><stop offset="0.3" stop-color="#713813"/><stop offset="0.46" stop-color="#4c260d"/><stop offset="0.5" stop-color="#42210b"/><stop offset="0.63" stop-color="#361b09"/><stop offset="0.86" stop-color="#160b04"/><stop offset="1"/></radialGradient><linearGradient id="Безымянный_градиент_177" x1="-9.6" y1="34.94" x2="17.47" y2="32.25" gradientTransform="translate(81.42 -13.74) rotate(23.03)" gradientUnits="userSpaceOnUse"><stop offset="0" stop-color="#31c8c5"/><stop offset="0.04" stop-color="#40bbb8"/><stop offset="0.16" stop-color="#639b9a"/><stop offset="0.25" stop-color="#788787"/><stop offset="0.31" stop-color="gray"/><stop offset="0.41" stop-color="#767676"/><stop offset="0.58" stop-color="#5b5b5b"/><stop offset="0.8" stop-color="#2f2f2f"/><stop offset="1"/></linearGradient></defs><title>враги2 атака</title><g id="Слой_2" data-name="Слой 2"><path class="cls-1" d="M39.31,110.15c1.5-7.38,3.95-7.17,2-14.65-1.25-4.7-5.09-2.12-8.16-.66-5.52,2.61-8.85,9.26-9.56,11.83-1.64,6,.69,9.71,4.44,14.08,2.15,2.49,12,6.16,14.91,5.43C40.58,121.89,37.47,119.21,39.31,110.15Z"/><path class="cls-2" d="M20.28,97.27C-12,80-1.94,24.59,30,14.79c16.53-5.07,29.3-1,44.26,1.2,8.47,1.27,13.18,5.76,2.24,5.76-30.83,0-34.14-.66-39.94,3.12C19.07,36.28,16.72,70.41,33.05,73.56S38.81,107.18,20.28,97.27Z"/><path class="cls-3" d="M22.07,69.62a17.34,17.34,0,0,1-1.39,4.66,11.81,11.81,0,0,1-3,4,9.1,9.1,0,0,1-2.29,1.37,6.27,6.27,0,0,1-2.67.39,7.66,7.66,0,0,1-4.61-2.13l.09-.18a27.58,27.58,0,0,0,4.56.31,8.35,8.35,0,0,0,4-1.06,10.55,10.55,0,0,0,3.09-3.21,18.49,18.49,0,0,0,2.06-4.21Z"/><path class="cls-3" d="M21.07,62.21a16.77,16.77,0,0,1-3.61,3.26,11.49,11.49,0,0,1-4.67,1.85,8.25,8.25,0,0,1-2.67,0,6.11,6.11,0,0,1-2.48-1.06A7.65,7.65,0,0,1,4.81,62L5,61.92a28.1,28.1,0,0,0,3.73,2.64,8.58,8.58,0,0,0,3.95,1.17A10.39,10.39,0,0,0,17,64.6a18.81,18.81,0,0,0,4-2.52Z"/><path class="cls-3" d="M20.58,50.71a15.71,15.71,0,0,1-4.13,2,9.88,9.88,0,0,1-4.76.28A7.66,7.66,0,0,1,9.31,52a5.62,5.62,0,0,1-1.79-1.84,7.35,7.35,0,0,1-.93-4.68l.2,0a32.21,32.21,0,0,0,2.38,3.58,7,7,0,0,0,2.95,2.37,8.59,8.59,0,0,0,4.12.28,17,17,0,0,0,4.24-1.16Z"/><path class="cls-3" d="M24.36,35.8a13.21,13.21,0,0,1-3.62,2.07,7.59,7.59,0,0,1-4.38.37,5.21,5.21,0,0,1-3.63-2.87A6.88,6.88,0,0,1,12.29,31l.2,0c.75,1.25,1.3,2.43,2,3.4a11,11,0,0,0,1,1.34,3.55,3.55,0,0,0,1.33,1,6.45,6.45,0,0,0,3.64.19,14.36,14.36,0,0,0,3.77-1.28Z"/><path class="cls-3" d="M28.55,29.28a5.3,5.3,0,0,1-1.68.12,8.63,8.63,0,0,1-1.68-.25,6.4,6.4,0,0,1-3.13-1.69A5.18,5.18,0,0,1,21,25.84a3,3,0,0,1-.25-1c0-.16,0-.33-.05-.49l.06-.48a4.82,4.82,0,0,1,1.79-3.09l.18.09a13,13,0,0,1,0,1.66,13,13,0,0,0,0,1.43,4.93,4.93,0,0,0,.57,2.44,5.91,5.91,0,0,0,2.24,1.78,8.2,8.2,0,0,0,3,.88Z"/><path class="cls-3" d="M38.11,22.3A9.08,9.08,0,0,1,35,22.22a4.53,4.53,0,0,1-2.88-1.73A3.8,3.8,0,0,1,31.65,17a6.55,6.55,0,0,1,.86-1.42,6.08,6.08,0,0,1,1.27-1l.17.11a6.69,6.69,0,0,1-.17,1.55c-.05.47-.13.92-.2,1.33s-.14.8-.15,1.14l0,.28,0,.25,0,.27a1.73,1.73,0,0,0,.1.24,3.56,3.56,0,0,0,1.82,1.61,9.72,9.72,0,0,0,2.76.83Z"/><ellipse class="cls-4" cx="46.56" cy="99.68" rx="29.15" ry="10.65"/><path class="cls-5" d="M23.86,112.55c7.27-3.1,12.47-1.56,12.72-10.83.14-5.1-7.55-5.86-11.15-6.13C19,95.1,12.59,99.43,10.66,101.4c-4.5,4.6-4.18,9.22-2.85,15.16C8.57,120,15.9,128.41,19,129.28,19,124.16,15,116.32,23.86,112.55Z"/><path class="cls-6" d="M72.26,108.38c-16.15-4.64-17.93-6.31-12.63-11.3,8.26-7.75,22.62,2.61,24.47,4.65,2.52,2.78,4.44,10,3.35,14.69-.74,3.22-3.75,9.55-6.67,10.38C80.47,121.84,81.32,111,72.26,108.38Z"/><path class="cls-7" d="M60.24,110.82c-5.72-5.15-15-13.22-8-16.15,4.6-1.93,13.34-.22,16.17,1.85,5.11,3.74,13.35,13.34,0,24.69-2.58,2.2-11.88,7.19-15,6.67C55.55,123.33,64,114.19,60.24,110.82Z"/><path class="cls-8" d="M27.2,81.24c-2.59,5-4.42,11-2.79,10.58,4.3-1.07,14.64-3.45,22.94,1,17.73,9.42,26.8-4.24,26.32-12.93-.37-6.74-4.62-13.79-18.62-13.58S31.5,72.89,27.2,81.24Z"/><path d="M32.82,72.83a67.14,67.14,0,0,1,7.75-5.25c1.36-.78,2.75-1.53,4.17-2.22s2.9-1.3,4.42-1.86,3.06-1.14,4.7-1.59a12.44,12.44,0,0,1,5.21-.28,11.16,11.16,0,0,1,5.17,2.17,6.82,6.82,0,0,1,2.68,4.79l-.52.32a10.72,10.72,0,0,0-4-1.3,19.78,19.78,0,0,0-3.69,0c-1.26.11-2.56.17-4,.17a25,25,0,0,0-4.28.35c-1.44.25-2.88.59-4.32,1s-2.9.78-4.34,1.23c-2.9.87-5.78,1.91-8.65,3Z"/><path d="M48.5,88.27a13.56,13.56,0,0,1-2.33-4.36,13.94,13.94,0,0,1-.51-2.54,12,12,0,0,1,.11-2.67A9,9,0,0,1,46,77.34,10.39,10.39,0,0,1,46.4,76,9.81,9.81,0,0,1,47,74.73a7,7,0,0,1,.92-1,7.5,7.5,0,0,1,2.29-1.46,7.4,7.4,0,0,1,2.7-.45l.21.35A13.11,13.11,0,0,1,52,74.41c-.31.71-.75,1.24-1,1.85-.16.29-.36.54-.53.81a5.79,5.79,0,0,1-.57.76,5.44,5.44,0,0,0-.58.78c-.09.14-.19.28-.27.42l-.19.46a10.9,10.9,0,0,0-.73,4.09,15.21,15.21,0,0,0,.7,4.48Z"/><path d="M37.67,87a10.21,10.21,0,0,1-1.74-3.6l-.21-1-.11-1a11.26,11.26,0,0,1,.14-2.16A10,10,0,0,1,36,78a8.05,8.05,0,0,1,.28-1.1,6.39,6.39,0,0,1,.47-1,5,5,0,0,1,.74-.85,5.33,5.33,0,0,1,4.18-1.44l.23.33a9.7,9.7,0,0,1-.63,2c-.17.61-.47,1.07-.65,1.56a3.81,3.81,0,0,1-.38.65,3.55,3.55,0,0,1-.46.58,4,4,0,0,0-.5.59,2.73,2.73,0,0,0-.42.66,9.91,9.91,0,0,0-.9,3.16A12.8,12.8,0,0,0,38,86.77Z"/><path class="cls-9" d="M73.71,81.26c0-6.93-4.95-12.51-7-12.51-4.52,0-7.06,6.22-7.06,13.15s3.5,12.54,6.16,11.94C70.18,92.84,73.71,88.19,73.71,81.26Z"/><path d="M68.05,72.29a12.3,12.3,0,0,1,2.08,4.55,15.7,15.7,0,0,1,.39,4.45,15.28,15.28,0,0,1-.91,4.37A12.05,12.05,0,0,1,67,89.94a12.34,12.34,0,0,1-2.1-4.55,15,15,0,0,1-.37-4.46,15.28,15.28,0,0,1,.91-4.37A12.17,12.17,0,0,1,68.05,72.29Z"/><path class="cls-10" d="M58.77,15.24c-1.38,3.25-.46,7.19,4.77,9.65,8.21,3.85,19.89,6.11,21.27,2.86s5.09-11.64-3.26-15.19S60.15,12,58.77,15.24Z"/><path class="cls-11" d="M84,8.31l-.48,2.93c.06.85.69,1.13,1,.47l.74-1.39c.53-1,3-2.68,2,1.11L86,13c-.16.84.31,1.56.79,1.2l1-.74c.61-.46,2.3.58,1.84,1.41l-1.95,1.54c-.36.65-.13,1.67.39,1.69l1.07,0c.65,0,1.64,1.91,1,2.34l-2.73-.33c-.49.34.29,2.1.74,2.49l1,.76c.56.5.71,2.25.06,2.2l-2-1c-.51,0-.36,1.63-.08,2.32l.9,1.21c.36.87.7,2.91.14,2.39L86,29c-.44-.41-.39.36-.32,1.2,0,0,1.27,2.39.59,3.17S84,31.29,84,31.29a.84.84,0,0,0-1.57.28l.26,2.64c-.19,1.06-1.69.12-1.77-1l-.13-1.78c-.06-.85-.69-1.13-1.05-.47l-1.5,2.18c-.44.84-1.41-1-.91-1.63l.34-1.74c.83-.92.35-1.64-.13-1.28L75.94,30c-.61.45-1.35-1.38-.89-2.21l1.56-1.44c.36-.65.13-1.67-.38-1.69l-1.87.6c-.75-.89,0-2.16.64-2.59l1-.71a1.4,1.4,0,0,0,.1-1.84l-2.17,0c-.56-.5.31-2.87,1-2.82l1.72.12c.52,0,.86-.94.57-1.63L75,13.68c-.36-.87,1.87-1.34,2.43-.83l.91.86c.44.41,1-.26.93-1.1l-1.2-2.93C78,8.6,79.15,7.35,79.5,8.24l1.31,3.26c.28.69.93.48,1.09-.35l.33-1.75C82.42,8.34,84,7.23,84,8.31Z"/><ellipse class="cls-12" cx="82.26" cy="21.27" rx="7.7" ry="3.11" transform="translate(54.56 101.6) rotate(-85.47)"/><path d="M83.82,18.37A6,6,0,0,1,86,20.14a2.18,2.18,0,0,1-.27,3.09,6,6,0,0,1-2.49,1.34,6.18,6.18,0,0,1-2.21-1.76,2.19,2.19,0,0,1,.29-3.1A6.1,6.1,0,0,1,83.82,18.37Z"/></g></svg>