<svg xmlns="http://www.w3.org/2000/svg" xmlns:xlink="http://www.w3.org/1999/xlink" viewBox="0 0 95 130"><defs><style>.cls-1,.cls-10,.cls-11,.cls-12,.cls-2,.cls-4,.cls-5,.cls-6,.cls-7,.cls-8,.cls-9{stroke:#000;}.cls-1,.cls-10,.cls-11,.cls-13,.cls-2,.cls-4,.cls-5,.cls-6,.cls-7,.cls-8,.cls-9{stroke-miterlimit:10;}.cls-1{fill:url(#Безымянный_градиент_13);}.cls-2{fill:url(#Безымянный_градиент_11);}.cls-11,.cls-3{fill:#31c8c5;}.cls-4{fill:url(#Безымянный_градиент_10);}.cls-5{fill:url(#Безымянный_градиент_9);}.cls-6{fill:url(#Безымянный_градиент_4);}.cls-7{fill:url(#Безымянный_градиент_6);}.cls-8{fill:url(#Безымянный_градиент_7);}.cls-9{fill:#f9f912;stroke-width:2px;}.cls-10{fill:url(#Безымянный_градиент_2);}.cls-12{fill:#b60000;stroke-miterlimit:10;}.cls-13{stroke:#f9f912;}</style><linearGradient id="Безымянный_градиент_13" x1="76.95" y1="88.46" x2="76.95" y2="121.85" gradientTransform="matrix(0.97, 0, 0, -0.97, -45.19, 211.63)" gradientUnits="userSpaceOnUse"><stop offset="0" stop-color="#31c8c5"/><stop offset="0.04" stop-color="#32bab6"/><stop offset="0.13" stop-color="#36978e"/><stop offset="0.24" stop-color="#3c5d4e"/><stop offset="0.35" stop-color="#42210b"/><stop offset="0.48" stop-color="#2e1708"/><stop offset="0.67" stop-color="#150a03"/><stop offset="0.85" stop-color="#050301"/><stop offset="1"/></linearGradient><linearGradient id="Безымянный_градиент_11" x1="-1.95" y1="139.49" x2="60.23" y2="189.4" gradientTransform="matrix(1, 0, 0, -1, 0, 225.02)" gradientUnits="userSpaceOnUse"><stop offset="0"/><stop offset="0.11" stop-color="#0f0702"/><stop offset="0.31" stop-color="#361b09"/><stop offset="0.36" stop-color="#42210b"/><stop offset="0.47" stop-color="#4c260d"/><stop offset="0.64" stop-color="#631"/><stop offset="0.7" stop-color="#713813"/><stop offset="0.75" stop-color="#703b16"/><stop offset="0.79" stop-color="#6c4421"/><stop offset="0.84" stop-color="#655233"/><stop offset="0.88" stop-color="#5c674d"/><stop offset="0.92" stop-color="#50816e"/><stop offset="0.96" stop-color="#42a195"/><stop offset="1" stop-color="#31c7c4"/><stop offset="1" stop-color="#31c8c5"/></linearGradient><linearGradient id="Безымянный_градиент_10" x1="40.31" y1="115.91" x2="40.31" y2="137.21" gradientTransform="matrix(1, 0, 0, -1, 0, 225.02)" gradientUnits="userSpaceOnUse"><stop offset="0.03" stop-color="#31c8c5"/><stop offset="0.03" stop-color="#30c4c1"/><stop offset="0.05" stop-color="#259794"/><stop offset="0.08" stop-color="#1b6e6c"/><stop offset="0.1" stop-color="#134c4b"/><stop offset="0.12" stop-color="#0c3030"/><stop offset="0.15" stop-color="#071b1a"/><stop offset="0.18" stop-color="#030c0b"/><stop offset="0.21" stop-color="#010303"/><stop offset="0.26"/><stop offset="0.36" stop-color="#060301"/><stop offset="0.49" stop-color="#160b05"/><stop offset="0.63" stop-color="#30180b"/><stop offset="0.78" stop-color="#552b14"/><stop offset="0.94" stop-color="#85421f"/><stop offset="1" stop-color="#984c24"/></linearGradient><linearGradient id="Безымянный_градиент_9" x1="-31.9" y1="117.47" x2="-31.9" y2="150.83" gradientTransform="matrix(1.03, 0.01, -0.01, -1.02, 51, 248.54)" gradientUnits="userSpaceOnUse"><stop offset="0" stop-color="#31c8c5"/><stop offset="0.04" stop-color="#36bcb6"/><stop offset="0.11" stop-color="#459b8e"/><stop offset="0.22" stop-color="#5c684e"/><stop offset="0.3" stop-color="#713813"/><stop offset="0.54" stop-color="#4c260d"/><stop offset="0.59" stop-color="#42210b"/><stop offset="0.7" stop-color="#361b09"/><stop offset="0.88" stop-color="#160b04"/><stop offset="1"/></linearGradient><linearGradient id="Безымянный_градиент_4" x1="86.17" y1="137.88" x2="86.17" y2="171.59" gradientTransform="matrix(0.93, 0.32, 0.26, -0.95, -58.37, 231.27)" gradientUnits="userSpaceOnUse"><stop offset="0" stop-color="#31c8c5"/><stop offset="0.05" stop-color="#36bcb6"/><stop offset="0.13" stop-color="#439b8e"/><stop offset="0.25" stop-color="#59674e"/><stop offset="0.36" stop-color="#6d3612"/><stop offset="0.59" stop-color="#42210b"/><stop offset="0.7" stop-color="#361b09"/><stop offset="0.88" stop-color="#160b04"/><stop offset="1"/></linearGradient><linearGradient id="Безымянный_градиент_6" x1="57.02" y1="96.04" x2="57.02" y2="130.9" gradientTransform="matrix(1, 0, 0, -1, 0, 225.02)" gradientUnits="userSpaceOnUse"><stop offset="0" stop-color="#31c8c5"/><stop offset="0.05" stop-color="#36bcb6"/><stop offset="0.14" stop-color="#459b8e"/><stop offset="0.26" stop-color="#5c684e"/><stop offset="0.36" stop-color="#713813"/><stop offset="0.55" stop-color="#4c260d"/><stop offset="0.59" stop-color="#42210b"/><stop offset="0.7" stop-color="#361b09"/><stop offset="0.88" stop-color="#160b04"/><stop offset="1"/></linearGradient><radialGradient id="Безымянный_градиент_7" cx="39.66" cy="195.99" r="46.08" gradientTransform="matrix(1, -0.09, -0.12, -1.35, 40.53, 349.75)" gradientUnits="userSpaceOnUse"><stop offset="0" stop-color="#31c8c5"/><stop offset="0.07" stop-color="#3eaaa0"/><stop offset="0.22" stop-color="#605f43"/><stop offset="0.3" stop-color="#713813"/><stop offset="0.46" stop-color="#4c260d"/><stop offset="0.5" stop-color="#42210b"/><stop offset="0.63" stop-color="#361b09"/><stop offset="0.86" stop-color="#160b04"/><stop offset="1"/></radialGradient><linearGradient id="Безымянный_градиент_2" x1="58.34" y1="847" x2="85.42" y2="849.68" gradientTransform="matrix(0.7, 0.36, 0.31, -0.81, -251.85, 695.98)" gradientUnits="userSpaceOnUse"><stop offset="0" stop-color="#31c8c5"/><stop offset="0.04" stop-color="#40bbb8"/><stop offset="0.16" stop-color="#639b9a"/><stop offset="0.25" stop-color="#788787"/><stop offset="0.31" stop-color="gray"/><stop offset="0.41" stop-color="#767676"/><stop offset="0.58" stop-color="#5b5b5b"/><stop offset="0.8" stop-color="#2f2f2f"/><stop offset="1"/></linearGradient></defs><title>враги2 атака</title><g id="Слой_19" data-name="Слой 19"><path class="cls-1" d="M33.34,110.19c4.5-6,6.62-4.81,8-12.42.87-4.79-3.69-4.09-7.1-4.07-6.1,0-12,4.62-13.67,6.64-4,4.73-3.52,9.09-2,14.64.88,3.17,8.2,10.66,11.18,11.25C29.5,121.35,27.82,117.61,33.34,110.19Z"/><path class="cls-2" d="M13.26,101.71c-22.7-23.87-15.2-74,17.5-74.75,20.61-.13,25.87,2.29,39.56,2.56,8,1.18,9.63,8.94-.72,9.49-14.22-.27-22.53-3.33-35.76,1.18-14.81,5.05-18,33.13-8.49,39.5C38.42,88.49,30.81,110.91,13.26,101.71Z"/><path class="cls-3" d="M18.89,77.89a15.19,15.19,0,0,1-1.09,4,10,10,0,0,1-2.48,3.41,6.86,6.86,0,0,1-1.89,1.17,5,5,0,0,1-2.2.34A6.3,6.3,0,0,1,7.43,85l.07-.15a22.49,22.49,0,0,0,3.76.26,7,7,0,0,0,3.3-.9,8.8,8.8,0,0,0,2.55-2.74,16.39,16.39,0,0,0,1.7-3.59Z"/><path class="cls-3" d="M17.06,70.08a14.59,14.59,0,0,1-2.81,3,8.35,8.35,0,0,1-3.65,1.72,5.6,5.6,0,0,1-2.08,0,4.55,4.55,0,0,1-1.94-1,7.21,7.21,0,0,1-2.19-3.9l.13-.11a22.43,22.43,0,0,0,2.92,2.45,5.94,5.94,0,0,0,3.12,1.09,7.16,7.16,0,0,0,3.37-1A14.47,14.47,0,0,0,17.05,70Z"/><path class="cls-3" d="M17.44,60.68a12.47,12.47,0,0,1-3.58,1.69,7.48,7.48,0,0,1-4,0,5.9,5.9,0,0,1-1.94-1,5.23,5.23,0,0,1-1.38-1.85A7.68,7.68,0,0,1,6,55H6.2A31.5,31.5,0,0,0,8,58.52a6,6,0,0,0,2.37,2.41,6.43,6.43,0,0,0,3.43.48,13.11,13.11,0,0,0,3.63-.88Z"/><path class="cls-3" d="M19.66,49.71a12.25,12.25,0,0,1-3.52.72,7.26,7.26,0,0,1-3.77-.77A4.48,4.48,0,0,1,10,46.58a5.12,5.12,0,0,1,.63-3.45l.16,0c.35,1.14.54,2.18.9,3.1a8.8,8.8,0,0,0,.54,1.27,3.08,3.08,0,0,0,.88,1.09,6.12,6.12,0,0,0,3,1,13.36,13.36,0,0,0,3.46-.07Z"/><path class="cls-3" d="M25.24,41.65a12.27,12.27,0,0,1-3.68,0,5.15,5.15,0,0,1-3.47-1.87,4.72,4.72,0,0,1-.81-2,4.22,4.22,0,0,1,.3-1.92A6.12,6.12,0,0,1,20,33.14l.16.11c-.12,1.21-.46,2.23-.63,3.2A4,4,0,0,0,19.43,39a4,4,0,0,0,2.36,1.73,13,13,0,0,0,3.39.7Z"/><path class="cls-3" d="M32.83,37.24a8.09,8.09,0,0,1-2.58-.45A4,4,0,0,1,28,35.09,2.82,2.82,0,0,1,28,32.27a4.88,4.88,0,0,1,.88-1A4.67,4.67,0,0,1,30,30.63l.13.1a4.94,4.94,0,0,1-.33,1.18l-.29,1-.24.87-.06.21v.2l-.06.2.06.2a3.07,3.07,0,0,0,1.35,1.48,8.93,8.93,0,0,0,2.23,1Z"/><ellipse class="cls-4" cx="40.31" cy="98.47" rx="27.73" ry="10.65"/><path class="cls-5" d="M19.26,111.62c7.06-3.57,12.35-2.37,12-11.64-.2-5.1-7.93-5.36-11.53-5.4-6.46-.06-12.57,4.67-14.36,6.77-4.19,4.88-3.58,9.47-1.86,15.31,1,3.34,8.84,11.3,12,12C15.14,123.51,10.67,116,19.26,111.62Z"/><path class="cls-6" d="M62.56,108.88C49.48,98.34,48.47,96.15,55.3,93.58c10.64-4,19.84,11.16,20.76,13.74,1.26,3.52.23,10.93-2.61,14.89-1.94,2.68-7.17,7.35-10.17,7C64.92,124.47,69.91,114.8,62.56,108.88Z"/><path class="cls-7" d="M57.23,110.66c-7.19-2.75-18.78-6.89-13.34-12.19,3.6-3.45,12.37-5,15.76-4.08,6.11,1.65,17.25,7.64,8.92,23-1.62,3-8.51,11-11.58,11.6C57.35,124,61.94,112.46,57.23,110.66Z"/><path class="cls-8" d="M20.41,81.38c-2.39,5.09-4,11.16-2.36,10.68,4.24-1.24,14.49-4,23,.09,18.09,8.7,26.62-5.29,25.79-14-.64-6.72-5.16-13.59-19.14-12.83S24.37,72.86,20.41,81.38Z"/><path d="M42,87.56a13.59,13.59,0,0,1-2.5-4.27,12.74,12.74,0,0,1-.6-2.51,10.85,10.85,0,0,1,0-2.67,7,7,0,0,1,.2-1.37,9.34,9.34,0,0,1,.31-1.37,11.37,11.37,0,0,1,.58-1.28,7.86,7.86,0,0,1,.87-1A7.52,7.52,0,0,1,43,71.51,7.27,7.27,0,0,1,45.72,71l.21.34a14,14,0,0,1-1,2.32c-.29.72-.71,1.27-.93,1.89a8.45,8.45,0,0,1-.49.82,5.5,5.5,0,0,1-.54.79,7,7,0,0,0-.54.8l-.27.43-.16.47a11.07,11.07,0,0,0-.58,4.12,15.71,15.71,0,0,0,.89,4.45Z"/><path d="M32.1,86.63a10.48,10.48,0,0,1-1.89-3.53l-.25-1-.15-1a14.78,14.78,0,0,1,.2-3.33,9,9,0,0,1,.24-1.12,6.05,6.05,0,0,1,.44-1,5,5,0,0,1,.69-.88,5.35,5.35,0,0,1,4.12-1.61l.25.32a10,10,0,0,1-.55,2c-.15.61-.42,1.08-.58,1.58a5.38,5.38,0,0,1-.36.67,3.62,3.62,0,0,1-.44.59,4.59,4.59,0,0,0-.48.61,2.68,2.68,0,0,0-.38.68,9.76,9.76,0,0,0-.78,3.19,13.12,13.12,0,0,0,.25,3.59Z"/><path class="cls-9" d="M66.91,79.56c-.27-6.93-5.49-12.3-7.49-12.23-4.5.18-6.8,6.5-6.52,13.41s3.91,12.45,6.51,11.7C63.81,91.27,67.19,86.48,66.91,79.56Z"/><path d="M60.87,70.82a12,12,0,0,1,2.26,4.46A15.47,15.47,0,0,1,63,84.12a12.24,12.24,0,0,1-2.45,4.38A12.18,12.18,0,0,1,58.25,84a15,15,0,0,1-.55-4.43,15.65,15.65,0,0,1,.73-4.4A12.09,12.09,0,0,1,60.87,70.82Z"/><path d="M26.63,72.77a63,63,0,0,1,7.29-5.57c1.29-.83,2.6-1.64,4-2.39s2.78-1.42,4.24-2,3-1.26,4.54-1.78a12.12,12.12,0,0,1,5.12-.47,10.72,10.72,0,0,1,5.15,2,6.7,6.7,0,0,1,2.74,4.64l-.5.33c-3.06-1.44-5.13-1.22-7.59-1-1.2.14-2.46.25-3.81.31a23.06,23.06,0,0,0-4.16.51c-1.38.31-2.78.7-4.16,1.14s-2.8.89-4.18,1.4c-2.79,1-5.56,2.16-8.31,3.38Z"/><path class="cls-10" d="M55.45,30.94C54.37,33.8,55,37.36,59,39.57c6.23,3.53,15.13,5.7,16.25,2.84S79.32,32.16,73,28.89,56.59,28.08,55.45,30.94Z"/><path class="cls-11" d="M74.86,18.85l-.7,3.64c.14,1,1.24,1.34,1.74.5l1.21-1.76c.87-1.26,5-3.5,3.5,1.23l-2.13,2c-.25,1.05.61,1.9,1.42,1.43l1.69-1c1-.6,4,.56,3.26,1.61l-3.2,2c-.59.82-.14,2.06.74,2l1.84-.08c1.14,0,2.94,2.23,1.84,2.81l-4.72-.22c-.81.46.62,2.57,1.4,3l1.76.87c1,.58,1.33,2.72.21,2.7l-3.5-1.09c-.89,0-.56,2,0,2.86l1.59,1.42c.66,1,1.35,3.53.36,2.93l-3.82-1.71c-.77-.47-.67.47-.49,1.5,0,0,2.29,2.85,1.16,3.86S76,47,76,47a1.81,1.81,0,0,0-2-.32,1.18,1.18,0,0,0-.7.78l.6,3.23c-.3,1.32-2.93.27-3.12-1l-.48-2.1c-.14-1-1.24-1.34-1.75-.51L66.1,49.83c-.74,1.06-2.48-1.13-1.67-1.94L65,45.73c1.37-1.19.52-2-.29-1.57L62,46c-1,.6-2.39-1.6-1.64-2.65L63,41.51c.61-.82.16-2.06-.74-2L59,40.32c-1.35-1-.1-2.65,1-3.22l1.69-.94a1.37,1.37,0,0,0,.08-2.27L58,34c-1-.58.41-3.55,1.59-3.54l3,.13a1.33,1.33,0,0,0,.9-2l-3.92-2.52c-.66-1.06,3.18-1.77,4.15-1.19l1.63,1c.78.46,1.71-.39,1.53-1.42l-2.19-3.52c-.23-1.32,1.73-2.93,2.38-1.86L69.46,23c.52.83,1.65.52,1.86-.51l.49-2.17C72.1,19,74.67,17.53,74.86,18.85Z"/><path class="cls-12" d="M62.32,35c.67-6.29,4.1-12.16,11.84-12.48,5.1-.22,8.44,7.53,7.77,13.81s-5.08,9.82-10.19,9.92S61.65,41.26,62.32,35Z"/><path class="cls-13" d="M72.93,29.56c49.51,12.61-3.14,10.93-3.14,10.93S68.33,32.66,72.93,29.56Z"/></g></svg>