<svg xmlns="http://www.w3.org/2000/svg" xmlns:xlink="http://www.w3.org/1999/xlink" viewBox="0 0 95 130"><defs><style>.cls-1,.cls-10,.cls-11,.cls-12,.cls-2,.cls-4,.cls-5,.cls-6,.cls-7,.cls-8,.cls-9{stroke:#000;}.cls-1,.cls-10,.cls-11,.cls-13,.cls-2,.cls-4,.cls-5,.cls-6,.cls-7,.cls-8,.cls-9{stroke-miterlimit:10;}.cls-1{fill:url(#Безымянный_градиент_70);}.cls-2{fill:url(#Безымянный_градиент_11);}.cls-11,.cls-3{fill:#31c8c5;}.cls-4{fill:url(#Безымянный_градиент_23);}.cls-5{fill:url(#Безымянный_градиент_62);}.cls-6{fill:url(#Безымянный_градиент_73);}.cls-7{fill:url(#Безымянный_градиент_71);}.cls-8{fill:url(#Безымянный_градиент_7);}.cls-9{fill:#f9f912;stroke-width:2px;}.cls-10{fill:url(#Безымянный_градиент_2);}.cls-12{fill:#b60000;stroke-miterlimit:10;}.cls-13{stroke:#f9f912;}</style><linearGradient id="Безымянный_градиент_70" x1="37.33" y1="127.04" x2="37.33" y2="93.65" gradientTransform="matrix(0.96, 0.14, -0.15, 0.96, 11.48, 0.65)" gradientUnits="userSpaceOnUse"><stop offset="0" stop-color="#31c8c5"/><stop offset="0.04" stop-color="#32bab6"/><stop offset="0.13" stop-color="#36978e"/><stop offset="0.24" stop-color="#3c5d4e"/><stop offset="0.35" stop-color="#42210b"/><stop offset="0.48" stop-color="#2e1708"/><stop offset="0.67" stop-color="#150a03"/><stop offset="0.85" stop-color="#050301"/><stop offset="1"/></linearGradient><linearGradient id="Безымянный_градиент_11" x1="-0.05" y1="139.9" x2="64.67" y2="191.85" gradientTransform="matrix(1, 0, 0, -1, 0, 225.02)" gradientUnits="userSpaceOnUse"><stop offset="0"/><stop offset="0.11" stop-color="#0f0702"/><stop offset="0.31" stop-color="#361b09"/><stop offset="0.36" stop-color="#42210b"/><stop offset="0.47" stop-color="#4c260d"/><stop offset="0.64" stop-color="#631"/><stop offset="0.7" stop-color="#713813"/><stop offset="0.75" stop-color="#703b16"/><stop offset="0.79" stop-color="#6c4421"/><stop offset="0.84" stop-color="#655233"/><stop offset="0.88" stop-color="#5c674d"/><stop offset="0.92" stop-color="#50816e"/><stop offset="0.96" stop-color="#42a195"/><stop offset="1" stop-color="#31c7c4"/><stop offset="1" stop-color="#31c8c5"/></linearGradient><linearGradient id="Безымянный_градиент_23" x1="43.83" y1="109.36" x2="43.83" y2="88.05" gradientUnits="userSpaceOnUse"><stop offset="0.03" stop-color="#31c8c5"/><stop offset="0.03" stop-color="#30c4c1"/><stop offset="0.05" stop-color="#259794"/><stop offset="0.08" stop-color="#1b6e6c"/><stop offset="0.1" stop-color="#134c4b"/><stop offset="0.12" stop-color="#0c3030"/><stop offset="0.15" stop-color="#071b1a"/><stop offset="0.18" stop-color="#030c0b"/><stop offset="0.21" stop-color="#010303"/><stop offset="0.26"/><stop offset="0.36" stop-color="#060301"/><stop offset="0.49" stop-color="#160b05"/><stop offset="0.63" stop-color="#30180b"/><stop offset="0.78" stop-color="#552b14"/><stop offset="0.94" stop-color="#85421f"/><stop offset="1" stop-color="#984c24"/></linearGradient><linearGradient id="Безымянный_градиент_62" x1="14.8" y1="128.69" x2="14.8" y2="95.33" gradientTransform="matrix(1.01, -0.19, 0.21, 1, -18.66, 2.31)" gradientUnits="userSpaceOnUse"><stop offset="0" stop-color="#31c8c5"/><stop offset="0.04" stop-color="#36bcb6"/><stop offset="0.11" stop-color="#459b8e"/><stop offset="0.22" stop-color="#5c684e"/><stop offset="0.3" stop-color="#713813"/><stop offset="0.54" stop-color="#4c260d"/><stop offset="0.59" stop-color="#42210b"/><stop offset="0.7" stop-color="#361b09"/><stop offset="0.88" stop-color="#160b04"/><stop offset="1"/></linearGradient><linearGradient id="Безымянный_градиент_73" x1="74.88" y1="125.88" x2="74.88" y2="92.17" gradientTransform="matrix(0.88, 0.29, -0.24, 0.91, 26.63, -11.4)" gradientUnits="userSpaceOnUse"><stop offset="0" stop-color="#31c8c5"/><stop offset="0.05" stop-color="#36bcb6"/><stop offset="0.13" stop-color="#439b8e"/><stop offset="0.25" stop-color="#59674e"/><stop offset="0.36" stop-color="#6d3612"/><stop offset="0.59" stop-color="#42210b"/><stop offset="0.7" stop-color="#361b09"/><stop offset="0.88" stop-color="#160b04"/><stop offset="1"/></linearGradient><linearGradient id="Безымянный_градиент_71" x1="54.16" y1="129.24" x2="54.16" y2="94.36" gradientUnits="userSpaceOnUse"><stop offset="0" stop-color="#31c8c5"/><stop offset="0.05" stop-color="#36bcb6"/><stop offset="0.14" stop-color="#459b8e"/><stop offset="0.26" stop-color="#5c684e"/><stop offset="0.36" stop-color="#713813"/><stop offset="0.55" stop-color="#4c260d"/><stop offset="0.59" stop-color="#42210b"/><stop offset="0.7" stop-color="#361b09"/><stop offset="0.88" stop-color="#160b04"/><stop offset="1"/></linearGradient><radialGradient id="Безымянный_градиент_7" cx="43.81" cy="199.4" r="46.08" gradientTransform="matrix(1, -0.05, -0.07, -1.36, 30, 354.76)" gradientUnits="userSpaceOnUse"><stop offset="0" stop-color="#31c8c5"/><stop offset="0.07" stop-color="#3eaaa0"/><stop offset="0.22" stop-color="#605f43"/><stop offset="0.3" stop-color="#713813"/><stop offset="0.46" stop-color="#4c260d"/><stop offset="0.5" stop-color="#42210b"/><stop offset="0.63" stop-color="#361b09"/><stop offset="0.86" stop-color="#160b04"/><stop offset="1"/></radialGradient><linearGradient id="Безымянный_градиент_2" x1="41.74" y1="802.81" x2="68.82" y2="805.49" gradientTransform="matrix(0.71, 0.38, 0.28, -0.93, -196.76, 753.54)" gradientUnits="userSpaceOnUse"><stop offset="0" stop-color="#31c8c5"/><stop offset="0.04" stop-color="#40bbb8"/><stop offset="0.16" stop-color="#639b9a"/><stop offset="0.25" stop-color="#788787"/><stop offset="0.31" stop-color="gray"/><stop offset="0.41" stop-color="#767676"/><stop offset="0.58" stop-color="#5b5b5b"/><stop offset="0.8" stop-color="#2f2f2f"/><stop offset="1"/></linearGradient></defs><title>враги2 атака</title><g id="Слой_7" data-name="Слой 7"><path class="cls-1" d="M34.92,112.87c5.33-5.31,7.25-3.78,9.73-11.11,1.57-4.61-3-4.58-6.42-5.07-6-.87-12.5,2.83-14.51,4.57-4.68,4.08-4.8,8.47-4.09,14.19.41,3.26,6.55,11.75,9.41,12.77C29.48,123.36,28.37,119.4,34.92,112.87Z"/><path class="cls-2" d="M15.91,101.44C-8.91,79.33-4,29.31,38.42,23c19.09-1.77,20.86.4,34.55.69,8,1.27,9.63,9.62-.72,10.21C57.6,32.8,51.6,32.8,36.49,36.19,21.1,39.64,12.53,74.58,28,77.73S33.46,111.35,15.91,101.44Z"/><path class="cls-3" d="M18.55,75.79a18,18,0,0,1-1.1,4.28A10.73,10.73,0,0,1,15,83.74,6.79,6.79,0,0,1,13.08,85a4.63,4.63,0,0,1-2.2.36,6.13,6.13,0,0,1-3.8-2l.07-.17a20.65,20.65,0,0,0,3.76.29,6.51,6.51,0,0,0,3.3-1,9.19,9.19,0,0,0,2.55-2.94,17.71,17.71,0,0,0,1.7-3.88Z"/><path class="cls-3" d="M16.71,67.38a15.18,15.18,0,0,1-2.81,3.27,7.89,7.89,0,0,1-3.65,1.85,4.86,4.86,0,0,1-2.08,0,4.22,4.22,0,0,1-1.93-1.09A8,8,0,0,1,4,67.2l.13-.11a23.13,23.13,0,0,0,2.92,2.63,5.58,5.58,0,0,0,3.12,1.18,6.71,6.71,0,0,0,3.37-1.13,14.21,14.21,0,0,0,3.12-2.52Z"/><path class="cls-3" d="M17.1,57.26a12.14,12.14,0,0,1-3.59,1.81,6.77,6.77,0,0,1-4,0A5.83,5.83,0,0,1,7.56,58a5.5,5.5,0,0,1-1.38-2,8.89,8.89,0,0,1-.49-4.91h.16a36.85,36.85,0,0,0,1.78,3.81A6.28,6.28,0,0,0,10,57.52a6,6,0,0,0,3.44.52,12,12,0,0,0,3.62-.95Z"/><path class="cls-3" d="M20.31,46.52a11.38,11.38,0,0,1-3.51.77A6.79,6.79,0,0,1,13,46.46a4.77,4.77,0,0,1-2.37-3.32,5.81,5.81,0,0,1,.64-3.71l.16,0c.34,1.23.53,2.36.9,3.34a9.46,9.46,0,0,0,.53,1.37,3.41,3.41,0,0,0,.89,1.18,5.87,5.87,0,0,0,3,1.1,12.52,12.52,0,0,0,3.46-.09Z"/><path class="cls-3" d="M27.89,39.91a11.36,11.36,0,0,1-3.68,0,4.71,4.71,0,0,1-4.27-4.14,4.58,4.58,0,0,1,.3-2.07,6.34,6.34,0,0,1,2.39-3l.16.1c-.12,1.31-.46,2.41-.63,3.46a4.83,4.83,0,0,0-.08,2.78A4.07,4.07,0,0,0,24.44,39a12.36,12.36,0,0,0,3.39.77Z"/><path class="cls-3" d="M36.48,34.09a8.12,8.12,0,0,1-2.57-.48,4,4,0,0,1-2.24-1.84,3.22,3.22,0,0,1,0-3A4,4,0,0,1,33.68,27l.13.11a5.39,5.39,0,0,1-.33,1.27l-.28,1.1-.25.94-.05.23v.22l0,.21,0,.22a3.2,3.2,0,0,0,1.36,1.59,8.39,8.39,0,0,0,2.22,1.06Z"/><ellipse class="cls-4" cx="43.83" cy="98.7" rx="29.15" ry="10.65"/><path class="cls-5" d="M22,111.08c6.23-4.87,11.65-4.72,9.5-13.75-1.18-5-8.81-3.71-12.35-3-6.35,1.19-11.42,7-12.78,9.43-3.16,5.61-1.66,10,1.16,15.38,1.61,3.08,10.87,9.37,14.1,9.41C20.3,123.55,14.44,117,22,111.08Z"/><path class="cls-6" d="M66.71,107.57c-12.55-9.86-13.53-12-7.09-14.46,10-3.88,19,10.37,19.88,12.83,1.23,3.34.35,10.38-2.28,14.13-1.79,2.57-6.7,7.07-9.56,6.76C69.15,122.35,73.76,113.1,66.71,107.57Z"/><path class="cls-7" d="M54.34,110.89C47.15,108.14,35.56,104,41,98.7c3.6-3.45,12.37-5,15.76-4.08,6.11,1.65,17.25,7.64,8.92,23-1.62,3-8.51,11-11.58,11.6C54.46,124.24,59.05,112.69,54.34,110.89Z"/><path class="cls-8" d="M24.4,81C21.81,86,20,92,21.62,91.54c4.29-1.07,14.64-3.45,22.93,1C62.28,102,71.36,88.3,70.87,79.61,70.5,72.87,66.25,65.82,52.25,66S28.7,72.61,24.4,81Z"/><path d="M43.7,88a13.51,13.51,0,0,1-2.33-4.36,13,13,0,0,1-.5-2.54,10.37,10.37,0,0,1,.07-2.67,6.94,6.94,0,0,1,.25-1.36,7.94,7.94,0,0,1,.37-1.35,9.26,9.26,0,0,1,.63-1.26,6.63,6.63,0,0,1,.91-1,6.82,6.82,0,0,1,5-1.91l.2.35a15,15,0,0,1-1.1,2.28c-.32.71-.76,1.24-1,1.85-.17.27-.34.54-.53.8a6.13,6.13,0,0,1-.57.77,5.58,5.58,0,0,0-.57.78l-.28.42-.18.46a10.78,10.78,0,0,0-.74,4.09A15.14,15.14,0,0,0,44,87.82Z"/><path d="M33.88,86.67a10.39,10.39,0,0,1-1.75-3.6l-.21-1-.11-1a9.8,9.8,0,0,1,.13-2.23,8,8,0,0,1,.2-1.09,6.94,6.94,0,0,1,.28-1.11,6.13,6.13,0,0,1,.48-1,4.56,4.56,0,0,1,.73-.85,5.33,5.33,0,0,1,4.18-1.44l.23.33a9.89,9.89,0,0,1-.63,2c-.17.61-.46,1.07-.64,1.56a7,7,0,0,1-.39.65,3.66,3.66,0,0,1-.46.58,4,4,0,0,0-.5.59,2.51,2.51,0,0,0-.41.66,9.4,9.4,0,0,0-.9,3.16,12.35,12.35,0,0,0,.1,3.59Z"/><path class="cls-9" d="M70.94,81c0-6.93-5-12.51-7-12.51-4.51,0-7,6.22-7,13.14s3.42,12.59,6,12C67.38,92.56,70.94,87.91,70.94,81Z"/><path d="M65.25,72a12.09,12.09,0,0,1,2.08,4.55,15.51,15.51,0,0,1-.51,8.82,12.27,12.27,0,0,1-2.62,4.28,12.07,12.07,0,0,1-2.09-4.56,15.16,15.16,0,0,1-.38-4.45,15.54,15.54,0,0,1,.91-4.37A12.06,12.06,0,0,1,65.25,72Z"/><path d="M33.64,70.85a48.83,48.83,0,0,1,6.94-4.78c1.23-.7,2.49-1.36,3.79-2S47,63,48.44,62.54a37.71,37.71,0,0,1,4.37-1.24,10.17,10.17,0,0,1,4.83.16,9.94,9.94,0,0,1,4.45,2.6,6.78,6.78,0,0,1,2,4.53l-.51.32a14.66,14.66,0,0,0-6.94-1.54c-1.06,0-2.18,0-3.37-.15a16.79,16.79,0,0,0-3.75,0c-1.27.15-2.56.38-3.85.66s-2.6.59-3.9,1c-2.61.7-5.21,1.58-7.79,2.53Z"/><path class="cls-10" d="M60.38,26.94a8,8,0,0,0,3.86,9.59c6.36,3.73,15.34,5.83,16.34,2.57S84.27,27.39,77.81,24,61.41,23.68,60.38,26.94Z"/><path class="cls-11" d="M79.9,18l-.62,3.1c.1.89,1,1.17,1.38.47l1-1.48c.71-1.07,4.06-2.9,2.76,1.12l-1.72,1.66c-.22.89.45,1.64,1.1,1.25l1.36-.82c.83-.48,3.17.57,2.56,1.46l-2.57,1.67c-.48.69-.15,1.76.55,1.77l1.47,0c.9,0,2.3,2,1.41,2.45l-3.75-.28c-.65.37.45,2.2,1.07,2.6l1.38.78c.78.52,1,2.36.12,2.32l-2.76-1c-.71,0-.47,1.73-.06,2.45l1.24,1.26c.51.91,1,3.05.24,2.51L83,39.7c-.61-.43-.54.38-.41,1.27,0,0,1.77,2.49.85,3.33s-3.11-2.16-3.11-2.16a1.35,1.35,0,0,0-1.59-.31.94.94,0,0,0-.57.65l.42,2.78c-.25,1.12-2.33.17-2.46-1l-.35-1.81c-.09-.89-1-1.17-1.38-.47l-2,2.34c-.6.89-2-1-1.29-1.7l.44-1.84c1.11-1,.45-1.74-.2-1.35L69.21,41c-.82.49-1.87-1.42-1.26-2.31l2.11-1.56c.5-.69.16-1.76-.55-1.77L67,36.07c-1.06-.92,0-2.28.82-2.75l1.36-.77a1.24,1.24,0,0,0,.1-1.95l-3,.06c-.77-.52.39-3,1.32-3l2.35.17c.7,0,1.15-1,.75-1.73l-3.07-2.24c-.51-.92,2.55-1.46,3.32-.93l1.27.88c.61.41,1.37-.3,1.24-1.18l-1.68-3.06c-.16-1.14,1.42-2.49,1.92-1.56l1.85,3.39c.4.72,1.3.48,1.49-.4l.42-1.85C77.71,18.05,79.77,16.84,79.9,18Z"/><path class="cls-12" d="M71.22,30.85c.64-5,4-8.56,8.07-8.54s5.18,5.51,4.53,10.54S81,40.55,77,40.54,70.58,35.89,71.22,30.85Z"/><path class="cls-13" d="M78.68,28.16c26.34,7-1.86,7.37-1.86,7.37A5.4,5.4,0,0,1,78.68,28.16Z"/></g></svg>