<svg xmlns="http://www.w3.org/2000/svg" xmlns:xlink="http://www.w3.org/1999/xlink" viewBox="0 0 95 130"><defs><style>.cls-1,.cls-10,.cls-11,.cls-12,.cls-2,.cls-4,.cls-5,.cls-6,.cls-7,.cls-8,.cls-9{stroke:#000;}.cls-1,.cls-10,.cls-11,.cls-13,.cls-2,.cls-4,.cls-5,.cls-6,.cls-7,.cls-8,.cls-9{stroke-miterlimit:10;}.cls-1{fill:url(#Безымянный_градиент_13);}.cls-2{fill:url(#Безымянный_градиент_11);}.cls-11,.cls-3{fill:#31c8c5;}.cls-4{fill:url(#Безымянный_градиент_10);}.cls-5{fill:url(#Безымянный_градиент_9);}.cls-6{fill:url(#Безымянный_градиент_4);}.cls-7{fill:url(#Безымянный_градиент_6);}.cls-8{fill:url(#Безымянный_градиент_7);}.cls-9{fill:#f9f912;stroke-width:2px;}.cls-10{fill:url(#Безымянный_градиент_2);}.cls-12{fill:#b60000;stroke-miterlimit:10;}.cls-13{stroke:#f9f912;stroke-width:0.75px;}</style><linearGradient id="Безымянный_градиент_13" x1="70.43" y1="87.72" x2="70.43" y2="121.11" gradientTransform="matrix(0.97, 0, 0, -0.97, -39.01, 211.63)" gradientUnits="userSpaceOnUse"><stop offset="0" stop-color="#31c8c5"/><stop offset="0.04" stop-color="#32bab6"/><stop offset="0.13" stop-color="#36978e"/><stop offset="0.24" stop-color="#3c5d4e"/><stop offset="0.35" stop-color="#42210b"/><stop offset="0.48" stop-color="#2e1708"/><stop offset="0.67" stop-color="#150a03"/><stop offset="0.85" stop-color="#050301"/><stop offset="1"/></linearGradient><linearGradient id="Безымянный_градиент_11" x1="0.3" y1="144.19" x2="63" y2="194.51" gradientTransform="matrix(1, 0, 0, -1, 0, 225.02)" gradientUnits="userSpaceOnUse"><stop offset="0"/><stop offset="0.11" stop-color="#0f0702"/><stop offset="0.31" stop-color="#361b09"/><stop offset="0.36" stop-color="#42210b"/><stop offset="0.47" stop-color="#4c260d"/><stop offset="0.64" stop-color="#631"/><stop offset="0.7" stop-color="#713813"/><stop offset="0.75" stop-color="#703b16"/><stop offset="0.79" stop-color="#6c4421"/><stop offset="0.84" stop-color="#655233"/><stop offset="0.88" stop-color="#5c674d"/><stop offset="0.92" stop-color="#50816e"/><stop offset="0.96" stop-color="#42a195"/><stop offset="1" stop-color="#31c7c4"/><stop offset="1" stop-color="#31c8c5"/></linearGradient><linearGradient id="Безымянный_градиент_10" x1="41.56" y1="115.19" x2="41.56" y2="136.49" gradientTransform="matrix(1, 0, 0, -1, 0, 225.02)" gradientUnits="userSpaceOnUse"><stop offset="0.03" stop-color="#31c8c5"/><stop offset="0.03" stop-color="#30c4c1"/><stop offset="0.05" stop-color="#259794"/><stop offset="0.08" stop-color="#1b6e6c"/><stop offset="0.1" stop-color="#134c4b"/><stop offset="0.12" stop-color="#0c3030"/><stop offset="0.15" stop-color="#071b1a"/><stop offset="0.18" stop-color="#030c0b"/><stop offset="0.21" stop-color="#010303"/><stop offset="0.26"/><stop offset="0.36" stop-color="#060301"/><stop offset="0.49" stop-color="#160b05"/><stop offset="0.63" stop-color="#30180b"/><stop offset="0.78" stop-color="#552b14"/><stop offset="0.94" stop-color="#85421f"/><stop offset="1" stop-color="#984c24"/></linearGradient><linearGradient id="Безымянный_градиент_9" x1="-26.09" y1="114.81" x2="-26.09" y2="148.17" gradientTransform="matrix(1.03, 0.01, -0.01, -1.02, 44.83, 246.49)" gradientUnits="userSpaceOnUse"><stop offset="0" stop-color="#31c8c5"/><stop offset="0.04" stop-color="#36bcb6"/><stop offset="0.11" stop-color="#459b8e"/><stop offset="0.22" stop-color="#5c684e"/><stop offset="0.3" stop-color="#713813"/><stop offset="0.54" stop-color="#4c260d"/><stop offset="0.59" stop-color="#42210b"/><stop offset="0.7" stop-color="#361b09"/><stop offset="0.88" stop-color="#160b04"/><stop offset="1"/></linearGradient><linearGradient id="Безымянный_градиент_4" x1="85.27" y1="136.07" x2="85.27" y2="169.78" gradientTransform="matrix(0.98, 0.03, -0.03, -0.99, -12.43, 258.91)" gradientUnits="userSpaceOnUse"><stop offset="0" stop-color="#31c8c5"/><stop offset="0.05" stop-color="#36bcb6"/><stop offset="0.13" stop-color="#439b8e"/><stop offset="0.25" stop-color="#59674e"/><stop offset="0.36" stop-color="#6d3612"/><stop offset="0.59" stop-color="#42210b"/><stop offset="0.7" stop-color="#361b09"/><stop offset="0.88" stop-color="#160b04"/><stop offset="1"/></linearGradient><linearGradient id="Безымянный_градиент_6" x1="56.86" y1="95.32" x2="56.86" y2="130.18" gradientTransform="matrix(1, 0, 0, -1, 0, 225.02)" gradientUnits="userSpaceOnUse"><stop offset="0" stop-color="#31c8c5"/><stop offset="0.05" stop-color="#36bcb6"/><stop offset="0.14" stop-color="#459b8e"/><stop offset="0.26" stop-color="#5c684e"/><stop offset="0.36" stop-color="#713813"/><stop offset="0.55" stop-color="#4c260d"/><stop offset="0.59" stop-color="#42210b"/><stop offset="0.7" stop-color="#361b09"/><stop offset="0.88" stop-color="#160b04"/><stop offset="1"/></linearGradient><radialGradient id="Безымянный_градиент_7" cx="41.74" cy="203.26" r="46.08" gradientTransform="matrix(1, -0.05, -0.07, -1.36, 30.14, 360.17)" gradientUnits="userSpaceOnUse"><stop offset="0" stop-color="#31c8c5"/><stop offset="0.07" stop-color="#3eaaa0"/><stop offset="0.22" stop-color="#605f43"/><stop offset="0.3" stop-color="#713813"/><stop offset="0.46" stop-color="#4c260d"/><stop offset="0.5" stop-color="#42210b"/><stop offset="0.63" stop-color="#361b09"/><stop offset="0.86" stop-color="#160b04"/><stop offset="1"/></radialGradient><linearGradient id="Безымянный_градиент_2" x1="49.53" y1="755.74" x2="76.61" y2="758.42" gradientTransform="matrix(0.88, 0.48, 0.48, -0.88, -344.71, 661.49)" gradientUnits="userSpaceOnUse"><stop offset="0" stop-color="#31c8c5"/><stop offset="0.04" stop-color="#40bbb8"/><stop offset="0.16" stop-color="#639b9a"/><stop offset="0.25" stop-color="#788787"/><stop offset="0.31" stop-color="gray"/><stop offset="0.41" stop-color="#767676"/><stop offset="0.58" stop-color="#5b5b5b"/><stop offset="0.8" stop-color="#2f2f2f"/><stop offset="1"/></linearGradient></defs><title>враги2 атака</title><g id="Слой_8" data-name="Слой 8"><path class="cls-1" d="M33.18,110.9c4.5-6,6.62-4.81,8-12.42.87-4.79-3.69-4.09-7.1-4.07-6.1,0-12,4.62-13.67,6.64-4,4.73-3.52,9.09-2,14.64.88,3.17,8.2,10.66,11.18,11.25C29.34,122.06,27.66,118.32,33.18,110.9Z"/><path class="cls-2" d="M18.6,97.27C-11.95,80-.61,24.87,31.62,18.79c18-4.24,24.43,1.91,38.13,2.2,8,1.27,12.46,9.17,2.11,9.76-14.21-.29-22.45-4.59-35.68.27-14.81,5.44-21,39.39-5.48,42.54S36.15,107.18,18.6,97.27Z"/><path class="cls-3" d="M21.23,71.62A17.76,17.76,0,0,1,20,76.28a11.63,11.63,0,0,1-2.84,4A8.1,8.1,0,0,1,15,81.66a5.63,5.63,0,0,1-2.53.39,7.12,7.12,0,0,1-4.36-2.13l.08-.18a24.94,24.94,0,0,0,4.31.31A7.7,7.7,0,0,0,16.26,79a10.14,10.14,0,0,0,2.93-3.21,18.82,18.82,0,0,0,1.95-4.22Z"/><path class="cls-3" d="M18.4,63.21A16.3,16.3,0,0,1,15,66.48a10.69,10.69,0,0,1-4.43,1.85,7.17,7.17,0,0,1-2.53,0,5.68,5.68,0,0,1-2.35-1.09A7.72,7.72,0,0,1,3,63l.17-.11a25.86,25.86,0,0,0,3.55,2.63,7.67,7.67,0,0,0,3.78,1.18,9.54,9.54,0,0,0,4.1-1.13,17.54,17.54,0,0,0,3.78-2.52Z"/><path class="cls-3" d="M18.78,53.15a14.62,14.62,0,0,1-4,1.74,9,9,0,0,1-4.52,0,7.33,7.33,0,0,1-2.19-1.08,5.44,5.44,0,0,1-1.57-1.95,7.53,7.53,0,0,1-.6-4.79h.18a34.43,34.43,0,0,0,2,3.73,6.89,6.89,0,0,0,2.7,2.55,7.8,7.8,0,0,0,3.88.54A15.35,15.35,0,0,0,18.74,53Z"/><path class="cls-3" d="M22.1,42a12,12,0,0,1-3.85,1,6.88,6.88,0,0,1-4.08-.88,5.23,5.23,0,0,1-2.52-3.77A7.23,7.23,0,0,1,12.42,34l.17.06c.35,1.41.54,2.7.91,3.82a12.15,12.15,0,0,0,.55,1.57A3.77,3.77,0,0,0,15,40.83,5.88,5.88,0,0,0,18.25,42,12.88,12.88,0,0,0,22,41.87Z"/><path class="cls-3" d="M27.58,33.75a10.11,10.11,0,0,1-3.47,0,4.65,4.65,0,0,1-3.26-2,4.47,4.47,0,0,1-.46-4.14,6.39,6.39,0,0,1,2.28-3l.15.11c-.13,1.29-.45,2.38-.62,3.42A4.85,4.85,0,0,0,22.12,31a3.79,3.79,0,0,0,2.21,1.82,11,11,0,0,0,3.19.74Z"/><path class="cls-3" d="M36.18,27.87a8.28,8.28,0,0,1-2.87-.52,4.4,4.4,0,0,1-2.47-2.12,4,4,0,0,1,0-3.58,6.58,6.58,0,0,1,1-1.28,6.25,6.25,0,0,1,1.33-.85l.15.13a7.51,7.51,0,0,1-.39,1.5l-.34,1.31-.29,1.1-.07.27v.26l-.06.25.06.26a3.53,3.53,0,0,0,1.48,1.85,9.06,9.06,0,0,0,2.48,1.21Z"/><ellipse class="cls-4" cx="41.56" cy="99.18" rx="29.15" ry="10.65"/><path class="cls-5" d="M19.1,112.33c7.06-3.57,12.35-2.37,12-11.64-.2-5.1-7.93-5.36-11.53-5.4C13.11,95.23,7,100,5.21,102.06c-4.19,4.88-3.58,9.47-1.86,15.31,1,3.34,8.84,11.3,12,12C15,124.22,10.51,116.67,19.1,112.33Z"/><path class="cls-6" d="M66.16,108.05c-15.61-6.21-17.22-8-11.45-12.48,9-6.91,22.25,4.81,23.89,7,2.24,3,3.44,10.38,1.9,15-1.06,3.13-4.68,9.14-7.66,9.68C73,122.25,74.93,111.54,66.16,108.05Z"/><path class="cls-7" d="M57.07,111.37c-7.19-2.75-18.78-6.89-13.34-12.19,3.6-3.45,12.37-5,15.76-4.08,6.11,1.65,17.25,7.64,8.92,23-1.62,3-8.51,11-11.58,11.6C57.19,124.72,61.78,113.17,57.07,111.37Z"/><path class="cls-8" d="M22.19,81.24c-2.59,5-4.41,11-2.78,10.58,4.29-1.07,14.64-3.45,22.93,1,17.73,9.41,26.81-4.24,26.32-12.93C68.29,73.15,64,66.1,50,66.31S26.49,72.89,22.19,81.24Z"/><path d="M27.81,72.83a51.17,51.17,0,0,1,8-5.11c1.41-.73,2.86-1.39,4.35-2a46.48,46.48,0,0,1,4.57-1.57c1.58-.44,3.17-.91,4.84-1.22a13.67,13.67,0,0,1,5.1,0,15.46,15.46,0,0,1,4.88,1.86,10.77,10.77,0,0,1,3.69,3.69l-.32.51c-1.75,0-3.24-.13-4.68-.15s-2.81,0-4.17.07a40.7,40.7,0,0,1-4.13-.07,24,24,0,0,0-4.32,0,40.8,40.8,0,0,0-4.37.66c-1.47.27-2.94.6-4.4,1a79.37,79.37,0,0,0-8.73,2.84Z"/><path d="M42.49,88.27a13.9,13.9,0,0,1-2.33-4.36,13.75,13.75,0,0,1-.5-2.54,11.35,11.35,0,0,1,.07-2.67A7.76,7.76,0,0,1,40,77.34,10.35,10.35,0,0,1,40.35,76,9.87,9.87,0,0,1,41,74.73a7.21,7.21,0,0,1,.91-1,7.57,7.57,0,0,1,2.29-1.46,7.39,7.39,0,0,1,2.71-.45l.2.35A12.94,12.94,0,0,1,46,74.45c-.32.71-.76,1.24-1,1.85a8.52,8.52,0,0,1-.53.8,4.64,4.64,0,0,1-.57.77,7.06,7.06,0,0,0-.57.78l-.28.42-.18.46a11.18,11.18,0,0,0-.74,4.09,15.82,15.82,0,0,0,.71,4.48Z"/><path d="M32.67,87a10.57,10.57,0,0,1-1.75-3.6l-.21-1-.11-1a11.09,11.09,0,0,1,.13-2.23c.05-.37.12-.73.2-1.09a10,10,0,0,1,.28-1.11,7.07,7.07,0,0,1,.48-1,5.36,5.36,0,0,1,4.91-2.29l.23.33a8.77,8.77,0,0,1-.63,2c-.17.61-.46,1.07-.64,1.56a4.3,4.3,0,0,1-.39.65,2.86,2.86,0,0,1-.46.58,4.72,4.72,0,0,0-.5.59,2.81,2.81,0,0,0-.41.66,9.88,9.88,0,0,0-.9,3.16,13.08,13.08,0,0,0,.1,3.59Z"/><path class="cls-9" d="M68.73,81.26c0-6.93-5-12.51-7-12.51-4.51,0-7,6.22-7,13.14s3.42,12.59,6,12C65.17,92.84,68.73,88.19,68.73,81.26Z"/><path d="M63,72.29a12.08,12.08,0,0,1,2.08,4.55,15.34,15.34,0,0,1-.51,8.82A12,12,0,0,1,62,89.94a12.38,12.38,0,0,1-2.09-4.56,15.51,15.51,0,0,1-.38-4.45,16,16,0,0,1,.91-4.37A12.36,12.36,0,0,1,63,72.29Z"/><path class="cls-10" d="M58.27,21c-1.64,3.1-1.1,7.17,3.88,10.06,7.82,4.61,19.22,8,20.9,4.85s6.16-11.11-1.82-15.43S60,17.85,58.27,21Z"/><path class="cls-11" d="M83.84,14.68l-.9,3.11c0,.92.74,1.3,1.18.62L85.18,17c.75-1,4-2.55,2.35,1.43L85.79,20c-.29.89.23,1.72.85,1.39L88,20.65c.8-.42,2.77.9,2.14,1.75l-2.5,1.44c-.51.66-.33,1.79.29,1.87l1.32.12c.81.08,1.84,2.24,1,2.64l-3.33-.67c-.63.31.15,2.3.65,2.78l1.16.93c.64.61.64,2.52-.15,2.39l-2.36-1.32c-.64-.06-.62,1.72-.34,2.5l1,1.41c.35,1,.56,3.22-.08,2.6l-2.51-1.88c-.5-.5-.53.34-.52,1.25,0,0,1.31,2.73.39,3.5s-2.54-2.53-2.54-2.53a1.13,1.13,0,0,0-1.4-.48.93.93,0,0,0-.58.61l.06,2.88c-.35,1.12-2.1-.07-2.09-1.23l-.11-1.89c0-.92-.73-1.3-1.18-.62l-2.07,2.18c-.64.85-1.64-1.24-1-1.87l.61-1.84c1.1-.9.6-1.73,0-1.39l-2.12,1.37c-.79.41-1.52-1.65-.87-2.49l2.07-1.38c.52-.66.34-1.79-.3-1.87l-2.35.43c-.84-1.05.22-2.33,1-2.72l1.31-.65a1.39,1.39,0,0,0,.31-2l-2.68-.25c-.64-.6.69-3.06,1.52-2.93l2.09.42c.63.06,1.14-.92.87-1.7l-2.51-2.6c-.35-1,2.46-1.23,3.08-.61l1,1c.5.49,1.26-.16,1.24-1.08l-1.16-3.3c0-1.18,1.55-2.39,1.89-1.39l1.28,3.65c.28.78,1.11.63,1.38-.25l.59-1.85C81.87,14.53,83.85,13.5,83.84,14.68Z"/><ellipse class="cls-12" cx="80.06" cy="28.69" rx="8.39" ry="4.92" transform="translate(33.08 99.58) rotate(-76.18)"/><path class="cls-13" d="M82.14,25.6c6.53,1.92,6.41,6.86-1.14,6.14C78.76,31.53,79,26,82.14,25.6Z"/></g></svg>