<?xml version="1.0" encoding="utf-8"?>
<!-- Generator: Adobe Illustrator 24.0.2, SVG Export Plug-In . SVG Version: 6.00 Build 0)  -->
<svg version="1.1" xmlns="http://www.w3.org/2000/svg" xmlns:xlink="http://www.w3.org/1999/xlink" x="0px" y="0px"
	 viewBox="0 0 130 120" style="enable-background:new 0 0 130 120;" xml:space="preserve">
<style type="text/css">
	.st0{fill:url(#SVGID_1_);stroke:#000000;stroke-miterlimit:10;}
	.st1{fill:url(#SVGID_2_);stroke:#000000;stroke-miterlimit:10;}
	.st2{fill:#31C8C5;}
	.st3{fill:url(#SVGID_3_);stroke:#000000;stroke-miterlimit:10;}
	.st4{fill:url(#SVGID_4_);stroke:#000000;stroke-miterlimit:10;}
	.st5{fill:url(#SVGID_5_);stroke:#000000;stroke-miterlimit:10;}
	.st6{fill:url(#SVGID_6_);stroke:#000000;stroke-miterlimit:10;}
	.st7{fill:url(#SVGID_7_);stroke:#000000;stroke-miterlimit:10;}
	.st8{fill:#F9F912;stroke:#000000;stroke-width:2;stroke-miterlimit:10;}
	.st9{fill:url(#SVGID_8_);stroke:#000000;stroke-miterlimit:10;}
	.st10{fill:#31C8C5;stroke:#000000;stroke-miterlimit:10;}
	.st11{fill:#B60000;stroke:#000000;stroke-miterlimit:10;}
	.st12{fill:url(#SVGID_9_);stroke:#000000;stroke-miterlimit:10;}
	.st13{fill:url(#SVGID_10_);stroke:#000000;stroke-miterlimit:10;}
	.st14{fill:url(#SVGID_11_);stroke:#000000;stroke-miterlimit:10;}
	.st15{fill:url(#SVGID_12_);stroke:#000000;stroke-miterlimit:10;}
	.st16{fill:url(#SVGID_13_);stroke:#000000;stroke-miterlimit:10;}
	.st17{fill:url(#SVGID_14_);stroke:#000000;stroke-miterlimit:10;}
	.st18{fill:url(#SVGID_15_);stroke:#000000;stroke-miterlimit:10;}
	.st19{fill:url(#SVGID_16_);stroke:#000000;stroke-miterlimit:10;}
	.st20{fill:url(#SVGID_17_);stroke:#000000;stroke-miterlimit:10;}
	.st21{fill:url(#SVGID_18_);stroke:#000000;stroke-miterlimit:10;}
	.st22{fill:url(#SVGID_19_);stroke:#000000;stroke-miterlimit:10;}
	.st23{fill:url(#SVGID_20_);stroke:#000000;stroke-miterlimit:10;}
	.st24{fill:url(#SVGID_21_);stroke:#000000;stroke-miterlimit:10;}
	.st25{fill:url(#SVGID_22_);stroke:#000000;stroke-miterlimit:10;}
	.st26{fill:url(#SVGID_23_);stroke:#000000;stroke-miterlimit:10;}
	.st27{fill:url(#SVGID_24_);stroke:#000000;stroke-miterlimit:10;}
	.st28{fill:url(#SVGID_25_);stroke:#000000;stroke-miterlimit:10;}
	.st29{fill:url(#SVGID_26_);stroke:#000000;stroke-miterlimit:10;}
	.st30{fill:url(#SVGID_27_);stroke:#000000;stroke-miterlimit:10;}
	.st31{fill:url(#SVGID_28_);stroke:#000000;stroke-miterlimit:10;}
	.st32{fill:url(#SVGID_29_);stroke:#000000;stroke-miterlimit:10;}
	.st33{fill:url(#SVGID_30_);stroke:#000000;stroke-miterlimit:10;}
	.st34{fill:url(#SVGID_31_);stroke:#000000;stroke-miterlimit:10;}
	.st35{fill:url(#SVGID_32_);stroke:#000000;stroke-miterlimit:10;}
	.st36{fill:url(#SVGID_33_);stroke:#000000;stroke-miterlimit:10;}
	.st37{fill:url(#SVGID_34_);stroke:#000000;stroke-miterlimit:10;}
	.st38{fill:url(#SVGID_35_);stroke:#000000;stroke-miterlimit:10;}
	.st39{fill:url(#SVGID_36_);stroke:#000000;stroke-miterlimit:10;}
	.st40{fill:url(#SVGID_37_);stroke:#000000;stroke-miterlimit:10;}
	.st41{fill:url(#SVGID_38_);stroke:#000000;stroke-miterlimit:10;}
	.st42{fill:url(#SVGID_39_);stroke:#000000;stroke-miterlimit:10;}
	.st43{fill:url(#SVGID_40_);stroke:#000000;stroke-miterlimit:10;}
	.st44{fill:url(#SVGID_41_);stroke:#000000;stroke-miterlimit:10;}
	.st45{fill:url(#SVGID_42_);stroke:#000000;stroke-miterlimit:10;}
	.st46{fill:url(#SVGID_43_);stroke:#000000;stroke-miterlimit:10;}
	.st47{fill:url(#SVGID_44_);stroke:#000000;stroke-miterlimit:10;}
	.st48{fill:url(#SVGID_45_);stroke:#000000;stroke-miterlimit:10;}
	.st49{fill:url(#SVGID_46_);stroke:#000000;stroke-miterlimit:10;}
	.st50{fill:url(#SVGID_47_);stroke:#000000;stroke-miterlimit:10;}
	.st51{fill:url(#SVGID_48_);stroke:#000000;stroke-miterlimit:10;}
	.st52{fill:url(#SVGID_49_);stroke:#000000;stroke-miterlimit:10;}
	.st53{fill:url(#SVGID_50_);stroke:#000000;stroke-miterlimit:10;}
	.st54{fill:url(#SVGID_51_);stroke:#000000;stroke-miterlimit:10;}
	.st55{fill:url(#SVGID_52_);stroke:#000000;stroke-miterlimit:10;}
	.st56{fill:url(#SVGID_53_);stroke:#000000;stroke-miterlimit:10;}
	.st57{fill:#B60000;stroke:#000000;stroke-width:2;stroke-miterlimit:10;}
	.st58{fill:#808080;}
	.st59{fill:url(#SVGID_54_);stroke:#31C8C5;stroke-miterlimit:10;}
	.st60{fill:url(#SVGID_55_);stroke:#31C8C5;stroke-miterlimit:10;}
	.st61{fill:url(#SVGID_56_);stroke:#000000;stroke-miterlimit:10;}
	.st62{fill:url(#SVGID_57_);stroke:#000000;stroke-miterlimit:10;}
	.st63{fill:url(#SVGID_58_);stroke:#000000;stroke-miterlimit:10;}
	.st64{fill:url(#SVGID_59_);stroke:#000000;stroke-miterlimit:10;}
	.st65{fill:url(#SVGID_60_);stroke:#000000;stroke-miterlimit:10;}
	.st66{fill:url(#SVGID_61_);stroke:#000000;stroke-miterlimit:10;}
	.st67{fill:url(#SVGID_62_);stroke:#31C8C5;stroke-miterlimit:10;}
	.st68{fill:url(#SVGID_63_);stroke:#31C8C5;stroke-miterlimit:10;}
	.st69{fill:url(#SVGID_64_);stroke:#000000;stroke-miterlimit:10;}
	.st70{fill:url(#SVGID_65_);stroke:#000000;stroke-miterlimit:10;}
	.st71{fill:url(#SVGID_66_);stroke:#000000;stroke-miterlimit:10;}
	.st72{fill:url(#SVGID_67_);stroke:#000000;stroke-miterlimit:10;}
	.st73{fill:url(#SVGID_68_);stroke:#000000;stroke-miterlimit:10;}
	.st74{fill:url(#SVGID_69_);stroke:#000000;stroke-miterlimit:10;}
	.st75{fill:url(#SVGID_70_);stroke:#31C8C5;stroke-miterlimit:10;}
	.st76{fill:url(#SVGID_71_);stroke:#31C8C5;stroke-miterlimit:10;}
	.st77{fill:url(#SVGID_72_);stroke:#000000;stroke-miterlimit:10;}
	.st78{fill:url(#SVGID_73_);stroke:#000000;stroke-miterlimit:10;}
	.st79{fill:url(#SVGID_74_);stroke:#000000;stroke-miterlimit:10;}
	.st80{fill:url(#SVGID_75_);stroke:#000000;stroke-miterlimit:10;}
	.st81{fill:url(#SVGID_76_);stroke:#000000;stroke-miterlimit:10;}
	.st82{fill:url(#SVGID_77_);stroke:#000000;stroke-miterlimit:10;}
	.st83{fill:url(#SVGID_78_);stroke:#31C8C5;stroke-miterlimit:10;}
	.st84{fill:url(#SVGID_79_);stroke:#31C8C5;stroke-miterlimit:10;}
	.st85{fill:url(#SVGID_80_);stroke:#000000;stroke-miterlimit:10;}
	.st86{fill:url(#SVGID_81_);stroke:#000000;stroke-miterlimit:10;}
	.st87{fill:url(#SVGID_82_);stroke:#000000;stroke-miterlimit:10;}
	.st88{fill:url(#SVGID_83_);stroke:#000000;stroke-miterlimit:10;}
	.st89{fill:url(#SVGID_84_);stroke:#000000;stroke-miterlimit:10;}
	.st90{fill:url(#SVGID_85_);stroke:#31C8C5;stroke-miterlimit:10;}
	.st91{fill:url(#SVGID_86_);stroke:#31C8C5;stroke-miterlimit:10;}
	.st92{fill:url(#SVGID_87_);stroke:#000000;stroke-miterlimit:10;}
	.st93{fill:url(#SVGID_88_);stroke:#000000;stroke-miterlimit:10;}
	.st94{fill:url(#SVGID_89_);stroke:#000000;stroke-miterlimit:10;}
	.st95{fill:url(#SVGID_90_);stroke:#000000;stroke-miterlimit:10;}
	.st96{fill:url(#SVGID_91_);stroke:#000000;stroke-miterlimit:10;}
	.st97{fill:url(#SVGID_92_);stroke:#000000;stroke-miterlimit:10;}
	.st98{fill:url(#SVGID_93_);stroke:#000000;stroke-miterlimit:10;}
	.st99{fill:url(#SVGID_94_);stroke:#31C8C5;stroke-miterlimit:10;}
	.st100{fill:url(#SVGID_95_);stroke:#31C8C5;stroke-miterlimit:10;}
	.st101{fill:url(#SVGID_96_);stroke:#000000;stroke-miterlimit:10;}
	.st102{stroke:#31C8C5;stroke-miterlimit:10;}
	.st103{stroke:#000000;stroke-miterlimit:10;}
	.st104{fill:url(#SVGID_97_);stroke:#000000;stroke-miterlimit:10;}
	.st105{fill:url(#SVGID_98_);stroke:#808080;stroke-miterlimit:10;}
	.st106{fill:url(#SVGID_99_);stroke:#000000;stroke-miterlimit:10;}
	.st107{fill:#984C24;stroke:#000000;stroke-miterlimit:10;}
	.st108{fill:url(#SVGID_100_);stroke:#000000;stroke-miterlimit:10;}
	.st109{fill:url(#SVGID_101_);stroke:#000000;stroke-miterlimit:10;}
	.st110{fill:#984C24;}
	.st111{fill:url(#SVGID_102_);stroke:#000000;stroke-miterlimit:10;}
	.st112{fill:url(#SVGID_103_);stroke:#31C8C5;stroke-miterlimit:10;}
	.st113{fill:url(#SVGID_104_);stroke:#000000;stroke-miterlimit:10;}
	.st114{fill:#984C24;stroke:#808080;stroke-miterlimit:10;}
	.st115{fill:url(#SVGID_105_);stroke:#000000;stroke-miterlimit:10;}
	.st116{fill:url(#SVGID_106_);stroke:#000000;stroke-miterlimit:10;}
</style>
<g id="Слой_1">
</g>
<g id="Слой_8">
</g>
<g id="Слой_2">
</g>
<g id="Слой_4">
</g>
<g id="Слой_6">
</g>
<g id="Слой_7">
</g>
<g id="Слой_3">
</g>
<g id="Слой_9">
</g>
<g id="Слой_10">
</g>
<g id="Слой_12">
</g>
<g id="Слой_13">
	<linearGradient id="SVGID_1_" gradientUnits="userSpaceOnUse" x1="61.8956" y1="101.9268" x2="50.4603" y2="71.2376">
		<stop  offset="2.237672e-07" style="stop-color:#000000"/>
		<stop  offset="0.1528" style="stop-color:#0C0C0C"/>
		<stop  offset="0.4308" style="stop-color:#2D2D2D"/>
		<stop  offset="0.7997" style="stop-color:#616161"/>
		<stop  offset="1" style="stop-color:#808080"/>
	</linearGradient>
	<path class="st0" d="M77.12,109.51c0.14-13.68,0.14-26.2-18.99-28.25c-2.16-0.23-12.75,0.77-20.18,2.21
		c3.09,2.61,4.96,5.31,7.53,8.75c29.93-1.87,19.71,20.75,25.72,20.88C74.91,113.17,77.07,113.67,77.12,109.51z"/>
	<linearGradient id="SVGID_2_" gradientUnits="userSpaceOnUse" x1="67.8284" y1="113.4979" x2="67.8284" y2="79.212">
		<stop  offset="0.1434" style="stop-color:#000000"/>
		<stop  offset="0.2375" style="stop-color:#151515"/>
		<stop  offset="0.4309" style="stop-color:#4B4B4B"/>
		<stop  offset="0.6028" style="stop-color:#808080"/>
		<stop  offset="1" style="stop-color:#984C24"/>
	</linearGradient>
	<path class="st1" d="M82.12,116.73c-4.64-1.51,0.01-21.52-14.73-21.6c-23.57-0.12-8.27,23.32-20.23,22.28
		c-3.59-0.89-3.41-14.8-2.91-18.69c0.79-6.16,14.19-13.07,18.02-15.27c1.41-0.82,11.6-7.33,20.46-0.12
		c3.51,2.86,7.94,17.09,8.92,31.15C91.95,118.63,84.45,117.49,82.12,116.73z"/>
	
		<linearGradient id="SVGID_3_" gradientUnits="userSpaceOnUse" x1="103.6077" y1="118.2441" x2="131.8285" y2="146.8666" gradientTransform="matrix(0.9968 0.0797 -0.0797 0.9968 9.7446 -40.5934)">
		<stop  offset="5.587018e-03" style="stop-color:#4D4D4D"/>
		<stop  offset="0.0807" style="stop-color:#4A4A4A"/>
		<stop  offset="0.1417" style="stop-color:#404040"/>
		<stop  offset="0.1978" style="stop-color:#2F2F2F"/>
		<stop  offset="0.2506" style="stop-color:#171717"/>
		<stop  offset="0.2896" style="stop-color:#000000"/>
		<stop  offset="0.3092" style="stop-color:#1B0D06"/>
		<stop  offset="0.3387" style="stop-color:#3C1E0E"/>
		<stop  offset="0.3717" style="stop-color:#592C15"/>
		<stop  offset="0.4082" style="stop-color:#70381B"/>
		<stop  offset="0.45" style="stop-color:#82411F"/>
		<stop  offset="0.5" style="stop-color:#8F4722"/>
		<stop  offset="0.5666" style="stop-color:#964B24"/>
		<stop  offset="0.7179" style="stop-color:#984C24"/>
		<stop  offset="1" style="stop-color:#F9F912"/>
	</linearGradient>
	<path class="st3" d="M89.27,70.59c3.67-28.93,13.72-6.94,16.99,5.4c5.86,22.15,17.9,30.67,20.1,36.12
		C127.6,115.2,91.68,116.69,89.27,70.59z"/>
	
		<linearGradient id="SVGID_4_" gradientUnits="userSpaceOnUse" x1="30.7208" y1="111.4451" x2="30.7208" y2="79.1043" gradientTransform="matrix(0.9424 -0.3346 0.3346 0.9424 -32.1786 16.0611)">
		<stop  offset="0.094" style="stop-color:#000000"/>
		<stop  offset="0.1982" style="stop-color:#151515"/>
		<stop  offset="0.4124" style="stop-color:#4B4B4B"/>
		<stop  offset="0.6028" style="stop-color:#808080"/>
		<stop  offset="1" style="stop-color:#984C24"/>
	</linearGradient>
	<path class="st4" d="M35.47,87.17c-5.53-1.14-17.55-1.74-16.21,17.5c0.27,3.89,3.75,12.19,6.72,12.68
		c8.55,1.65-3.94-25.06,10.57-26.73C42.59,89.92,38.19,87.73,35.47,87.17z"/>
	<g>
		<linearGradient id="SVGID_5_" gradientUnits="userSpaceOnUse" x1="126.4994" y1="69.2669" x2="71.5174" y2="17.1943">
			<stop  offset="0" style="stop-color:#808080"/>
			<stop  offset="0.1647" style="stop-color:#7C7C7C"/>
			<stop  offset="0.3431" style="stop-color:#6F6F6F"/>
			<stop  offset="0.5279" style="stop-color:#595959"/>
			<stop  offset="0.7171" style="stop-color:#3B3B3B"/>
			<stop  offset="0.9079" style="stop-color:#141414"/>
			<stop  offset="0.9944" style="stop-color:#000000"/>
		</linearGradient>
		<path style="fill:url(#SVGID_5_);stroke:#31C8C5;stroke-miterlimit:10;" d="M78.38,34.4c-0.63,5.32,19.95-1.93,22.88,15.54
			c1.97,11.73,3.94,11,10.15,21.39c4.2-12.59,2.27-19.63-0.78-27.83c-6.7-17.99-21-23.39-32.85-22.02
			C73.65,21.96,78.67,31.97,78.38,34.4z"/>
		<path class="st10" d="M104.54,61.32c1.87,5.26,4.55,14.66,6.94,17.11c1.32,0.61,2.45-10.91,2.5-19.05
			C110.09,59.87,107.84,59.29,104.54,61.32z"/>
	</g>
	<g>
		<linearGradient id="SVGID_6_" gradientUnits="userSpaceOnUse" x1="0.6396" y1="51.5841" x2="29.7834" y2="51.5841">
			<stop  offset="2.237672e-07" style="stop-color:#808080"/>
			<stop  offset="0.1718" style="stop-color:#7C7C7C"/>
			<stop  offset="0.3486" style="stop-color:#707070"/>
			<stop  offset="0.5276" style="stop-color:#5B5B5B"/>
			<stop  offset="0.7082" style="stop-color:#3E3E3E"/>
			<stop  offset="0.8883" style="stop-color:#191919"/>
			<stop  offset="0.9944" style="stop-color:#000000"/>
		</linearGradient>
		<path style="fill:url(#SVGID_6_);stroke:#31C8C5;stroke-miterlimit:10;" d="M29.75,36.6c1,1.95-18.85,0.71-18.14,23.4
			c0.31,9.79,2.05,17.95,1.27,21.22c-1.17,2.49-13.66-4.74-12.1-27.96c0.97-14.48,15.59-31.72,27.15-31.77
			C31.18,21.47,24.86,27.12,29.75,36.6z"/>
		<path class="st10" d="M2.44,69.77c0.85,8.9,7.27,16.98,10.65,16.26c2.1-4.52-0.11-12.03-1.14-16.75
			C8.85,67.23,5.68,68.57,2.44,69.77z"/>
	</g>
	<g>
		
			<radialGradient id="SVGID_7_" cx="52.6632" cy="60.8756" r="67.9281" gradientTransform="matrix(0.285 0.9353 -0.7854 0.2279 85.4637 -1.4995)" gradientUnits="userSpaceOnUse">
			<stop  offset="4.475343e-07" style="stop-color:#984C24"/>
			<stop  offset="0.117" style="stop-color:#934A23"/>
			<stop  offset="0.2472" style="stop-color:#864320"/>
			<stop  offset="0.3838" style="stop-color:#70381A"/>
			<stop  offset="0.5248" style="stop-color:#512813"/>
			<stop  offset="0.6677" style="stop-color:#29140A"/>
			<stop  offset="0.7923" style="stop-color:#000000"/>
			<stop  offset="0.865" style="stop-color:#212121"/>
			<stop  offset="0.9483" style="stop-color:#414141"/>
			<stop  offset="0.9944" style="stop-color:#4D4D4D"/>
		</radialGradient>
		<path class="st7" d="M98.01,59.31C85.54,39.43,77.24,28.23,53.27,28.23c-24.67,0-28.68,14.63-31.97,28.3
			c-4.23,17.58,8.88,47.3,34.44,33.51c5.98-3.22,13.42-3.47,19.32,1.88c4.98,4.52,15.86,6.6,25.81,3.66
			C114.46,91.58,99.71,62.01,98.01,59.31z"/>
		<path class="st57" d="M51.19,41.5c-13.88,0.06-25.2,15.31-25.2,18.41c0,3.92,9.33,16.12,23.21,16.06
			c13.88-0.06,30.67-9.81,29.43-13.74C76.56,55.69,65.07,41.44,51.19,41.5z"/>
		<g>
			<path class="st58" d="M67.98,61.75c-2.71,1.4-5.4,2.06-8.09,2.55c-2.69,0.45-5.37,0.62-8.05,0.56c-2.68-0.06-5.35-0.37-8.01-0.94
				c-2.66-0.61-5.32-1.41-7.96-2.95c2.71-1.4,5.41-2.07,8.09-2.56c2.69-0.45,5.37-0.62,8.04-0.55c2.68,0.07,5.35,0.38,8.01,0.95
				C62.69,59.43,65.34,60.23,67.98,61.75z"/>
		</g>
		<g>
			<path class="st10" d="M34.53,70.87c0,0,7.62-9.94,8.4-8.01c0.6,1.47-0.24,8.37-0.62,11.05C42.08,75.52,34.53,70.87,34.53,70.87z"
				/>
			<path class="st10" d="M47.94,41.79c-1.01,1.82,3.18,12.58,5.25,12.39c2.15-0.2,3.42-12.34,3.42-12.34S48.59,40.62,47.94,41.79z"
				/>
			<path class="st10" d="M56.42,42.18c-0.53,1.22-0.53,9.07,1,12.38c0.91,1.96,7.19-8.92,7.19-8.92S56.96,40.96,56.42,42.18z"/>
			<path class="st10" d="M47.01,41.94c1.66,1.25,1.38,12.84,0.78,13.41c-1.55,1.5-8.39-10.34-8.39-10.34S45.95,41.14,47.01,41.94z"
				/>
			<path class="st10" d="M61.68,73.04c0.56-2.58-2.33-10.24-0.47-11.16c1.93-0.95,6.44,9.45,6.44,9.45S61.34,74.61,61.68,73.04z"/>
			<path class="st10" d="M27.05,57.66c0,0,5.21-9.23,11.62-12.37c1.86-0.91,0.48,5.69,0.48,5.69l-3.38-1.27l0.11,4.24l-2.9-1.32
				c0,0-0.52,2.84-0.79,2.93c-0.27,0.1-2.19-1.07-2.19-1.07s0.34,3.24,0.2,3.39C30.05,58.01,27.05,57.66,27.05,57.66z"/>
			<path class="st10" d="M77.19,59.33c0,0-5.97-10.19-12.36-13.39c-1.85-0.93-0.53,5.68-0.53,5.68l3.39-1.24l0.93,3.77l2.54-1.26
				c0,0,0.25,3.88,0.52,3.98c0.27,0.1,2.31-0.34,2.31-0.34s0.62,2.64,0.76,2.79C74.89,59.46,77.19,59.33,77.19,59.33z"/>
			<path class="st10" d="M42.2,74.25c4.24,2.13,12.47,2.19,19.02-0.68c1.9-0.83-2.78-3.51-2.78-3.51l-1.54,2.9l-2.71-2.09
				l-2.05,2.86c0,0-2.31-3.82-2.56-3.68c-0.25,0.14-2.78,3.46-2.78,3.46s-1.4-2.66-1.61-2.64S41.2,73.75,42.2,74.25z"/>
			<path class="st10" d="M68.25,71.33c0,0-0.6-3.56,0-4.32c1.36-1.7,8.49-1.9,8.49-1.9L68.25,71.33z"/>
			<path class="st10" d="M34.53,70.87c0,0,1.66-4.08,0.78-4.47c-1.96-0.86-8.26-3.34-8.26-3.34L34.53,70.87z"/>
		</g>
	</g>
	<g>
		
			<radialGradient id="SVGID_8_" cx="52.0092" cy="20.9715" r="40.0926" gradientTransform="matrix(1 -3.135109e-03 1.182643e-03 0.3772 -0.0195 13.2236)" gradientUnits="userSpaceOnUse">
			<stop  offset="0.2756" style="stop-color:#984C24"/>
			<stop  offset="0.3897" style="stop-color:#864320"/>
			<stop  offset="0.6181" style="stop-color:#582C15"/>
			<stop  offset="0.9369" style="stop-color:#0E0703"/>
			<stop  offset="0.9944" style="stop-color:#000000"/>
		</radialGradient>
		<path class="st9" d="M27.07,29.21C26.35,15.29,39.63,2.18,53.19,2.18s26.72,16.23,26.72,29.79s-14.73,0-28.29,0
			S27.81,43.71,27.07,29.21z"/>
		<g>
			<path class="st8" d="M52.73,3.62c-8.04,0.03-15.58,5.67-15.57,7.04c0.03,2.95,7.27,4.58,15.3,4.55s14.53-2.34,13.81-4.07
				C65.08,8.25,60.77,3.59,52.73,3.62z"/>
			<g>
				<path d="M42.69,9.32c1.56-1.02,3.12-1.55,4.67-1.92c1.56-0.35,3.11-0.51,4.66-0.5c1.55,0.01,3.1,0.19,4.65,0.57
					c1.55,0.4,3.1,0.95,4.64,2.01c-1.56,1.03-3.12,1.55-4.67,1.93c-1.56,0.35-3.11,0.51-4.66,0.49c-1.55-0.02-3.1-0.2-4.65-0.58
					C45.78,10.92,44.23,10.37,42.69,9.32z"/>
			</g>
		</g>
		<g>
			<path class="st8" d="M39.88,18.17c-6.23,1.77-11.13,9.66-10.89,11.18c0.52,3.26,6.4,3.52,12.63,1.75s10.87-5.73,10.02-7.5
				C50.24,20.65,46.11,16.4,39.88,18.17z"/>
			<g>
				<path d="M33.05,26.67c0.99-1.12,2.09-1.86,3.21-2.48c1.13-0.6,2.3-1.06,3.51-1.38c1.2-0.32,2.45-0.51,3.73-0.55
					c1.28-0.02,2.6,0.07,4.02,0.56c-0.99,1.13-2.09,1.86-3.21,2.48c-1.13,0.6-2.3,1.06-3.51,1.37c-1.21,0.32-2.45,0.51-3.73,0.54
					C35.79,27.24,34.47,27.15,33.05,26.67z"/>
			</g>
		</g>
		<g>
			<path class="st8" d="M67.67,17.9c-6.2-1.17-12.71,4.99-12.87,6.75c-0.34,3.81,5.03,7,11.23,8.17c6.2,1.17,11.48-0.84,11.15-3.18
				C76.61,25.73,73.86,19.06,67.67,17.9z"/>
			<g>
				<path d="M59.22,23.75c1.36-0.56,2.65-0.73,3.9-0.78c1.25-0.04,2.48,0.08,3.67,0.33c1.19,0.25,2.36,0.63,3.49,1.17
					c1.13,0.55,2.24,1.22,3.26,2.29c-1.36,0.57-2.65,0.74-3.9,0.79c-1.25,0.04-2.48-0.08-3.67-0.33c-1.19-0.25-2.36-0.64-3.49-1.17
					C61.35,25.48,60.25,24.81,59.22,23.75z"/>
			</g>
		</g>
	</g>
	<g>
		<path class="st58" d="M51.56,58.88c2.88,1.18,4.36,2.33,5.43,3.48c1.04,1.15,1.46,2.28,1.46,3.41c-0.02,1.13-0.48,2.25-1.55,3.36
			c-1.1,1.11-2.63,2.21-5.56,3.29c-2.9-1.18-4.38-2.33-5.45-3.48c-1.04-1.15-1.45-2.28-1.44-3.41c0.04-1.13,0.49-2.25,1.57-3.35
			C47.12,61.06,48.64,59.96,51.56,58.88z"/>
	</g>
</g>
<g id="Слой_14">
</g>
<g id="Слой_5">
</g>
<g id="Слой_11">
</g>
<g id="Слой_15">
</g>
<g id="Слой_16">
</g>
<g id="Слой_17">
</g>
</svg>
