<?xml version="1.0" encoding="utf-8"?>
<!-- Generator: Adobe Illustrator 24.0.2, SVG Export Plug-In . SVG Version: 6.00 Build 0)  -->
<svg version="1.1" id="Layer_1" xmlns="http://www.w3.org/2000/svg" xmlns:xlink="http://www.w3.org/1999/xlink" x="0px" y="0px"
	 width="140px" height="50px" viewBox="0 0 140 50" style="enable-background:new 0 0 140 50;" xml:space="preserve">
<style type="text/css">
	.st0{fill:#202E35;stroke:#000000;stroke-width:0.75;stroke-miterlimit:10;}
	.st1{fill:#147C87;stroke:#000000;stroke-width:0.75;stroke-miterlimit:10;}
	.st2{fill:#147C87;stroke:#000000;stroke-miterlimit:10;}
	.st3{clip-path:url(#SVGID_2_);fill:#FFC400;}
	.st4{fill:#147C87;stroke:#000000;stroke-width:0.5;stroke-miterlimit:10;}
	.st5{clip-path:url(#SVGID_4_);fill:#FFC400;}
	.st6{fill:#334A48;stroke:#000000;stroke-miterlimit:10;}
	.st7{fill:#303030;stroke:#000000;stroke-width:0.5;stroke-miterlimit:10;}
	.st8{clip-path:url(#SVGID_6_);fill:#FFC400;}
</style>
<g id="Layer_2_1_">
	<path class="st0" d="M26.1,20.1c1,2.6,22.3,8.3,22.3,8.3s2.4-4.7,1.3-7.3S30.9,10.6,30.9,10.6S25.1,17.4,26.1,20.1z"/>
	<path class="st1" d="M70.6,32.3l-13.1,2.4c-0.7,0.1-1.3-0.6-1.2-1.3l-0.6-10.3c-0.1-0.8,0.5-1.4,1.2-1.4l13.3,0.8
		c1.9-0.1,3.6,1.5,3.8,3.8l0.1,1.8C74,30.2,72.5,32.1,70.6,32.3z"/>
	<path class="st2" d="M47.3,29.5l7.6,3.3c0.8,0.3,1.6,0.1,1.8-0.6l1.3-9.3c0.2-0.6-0.1-1.4-0.9-1.8l-3.3-1.7
		c-0.8-0.3-1.6-0.1-1.8,0.6l-5.6,7.7C46,28.4,46.5,29.2,47.3,29.5z"/>
	<g>
		<g>
			<g>
				<g>
					<defs>
						<path id="SVGID_1_" d="M47.4,29.5l7.2,2.9c0.7,0.2,1.5,0.2,1.6-0.3l0.8-7c0.2-0.5-0.2-1.1-0.9-1.4L53,22.4
							c-0.7-0.2-1.5-0.2-1.6,0.3l-4.9,5.4C46.2,28.5,46.7,29.1,47.4,29.5z"/>
					</defs>
					<clipPath id="SVGID_2_">
						<use xlink:href="#SVGID_1_"  style="overflow:visible;"/>
					</clipPath>
					<polygon class="st3" points="56.4,33.6 45.6,29.1 47.3,25.2 58.1,29.8 					"/>
				</g>
			</g>
		</g>
	</g>
	<path class="st1" d="M69.6,31.1l1.3-5.6c0-0.5,0.9-0.8,2-0.8l6.6,0.2c1,0.1,2,0.5,2,0.9l1.1,5.7c0,0.5-0.9,0.8-2,0.8l-9.1-0.3
		C70.6,32,69.6,31.5,69.6,31.1z"/>
	<path class="st4" d="M82.6,28.2l3.8-3c0.2-0.1,0.3-0.4,0.1-0.6l-0.4-0.5c0-0.1-0.4-0.2-0.5-0.1L81,25.5c-0.2,0.1-0.3,0.4-0.1,0.6
		l1.1,1.8C82.1,28.3,82.4,28.3,82.6,28.2z"/>
	<path class="st4" d="M70.4,28.4l0.9-3.3c0-0.2,0.3-0.3,0.6-0.3l0.6,0c0.3,0,0.6,0.1,0.6,0.3l0.9,3.3c0,0.2-0.3,0.3-0.6,0.3l-2.4,0
		C70.8,28.8,70.5,28.5,70.4,28.4z"/>
	<path class="st4" d="M82.3,29l-0.9-3.9c0-0.2-0.3-0.3-0.6-0.3l-0.6,0c-0.3,0-0.6,0.2-0.6,0.5l-0.7,3.9c0,0.2,0.3,0.3,0.6,0.3l2.4,0
		C81.9,29.3,82.3,29.1,82.3,29z"/>
	<path class="st4" d="M76,29.7l0.9-4.5c0-0.3,0.3-0.5,0.6-0.5l0.6,0c0.3,0,0.6,0.1,0.6,0.4l1,4.5c0,0.3-0.3,0.5-0.6,0.5l-2.4,0
		C76.2,30,76,29.8,76,29.7z"/>
	<path class="st4" d="M73.2,29.6l0.9-4.5c0-0.3,0.3-0.5,0.6-0.5l0.6,0c0.3,0,0.6,0.1,0.6,0.4l1,4.5c0,0.3-0.3,0.5-0.6,0.5l-2.4,0
		C73.5,29.9,73.2,29.8,73.2,29.6z"/>
</g>
<g id="Layer_1_1_">
	<path class="st0" d="M14.6,10C11.9,11.1,7,34.5,7,34.5s5.4,2.8,8.2,1.5c2.9-1.2,10.3-20.6,10.3-20.6S17.5,8.9,14.6,10z"/>
	<path class="st2" d="M10.3,20.7c0,0,3.7-2,5.3-3s9.3-1,10.5,0c1.2,1,5.2,3,5.2,3s1-11,0-12s-20-1-21,0S10.3,20.7,10.3,20.7z"/>
	<g>
		<g>
			<g>
				<g>
					<defs>
						<path id="SVGID_3_" d="M10,21c0,0,3.7-2,5.3-3c1.7-1,9.3-1,10.5,0c1.2,1,5.2,3,5.2,3s1-11,0-12S11,8,10,9S10,21,10,21z"/>
					</defs>
					<clipPath id="SVGID_4_">
						<use xlink:href="#SVGID_3_"  style="overflow:visible;"/>
					</clipPath>
					<rect x="16.3" y="7.7" class="st5" width="9" height="8"/>
				</g>
			</g>
		</g>
	</g>
	<path class="st6" d="M69.6,43H61c-0.3,0-0.6-0.3-0.6-0.6v-17c0-0.3,0.3-0.6,0.6-0.6h8.6c0.3,0,0.6,0.3,0.6,0.6v17
		C70.2,42.8,70,43,69.6,43z"/>
	<path class="st7" d="M124.6,18.3v0.3h-1.3v-5.4h-1.8v1.1l-1.7,4.4h-8.3v-0.9h-3.4v0.6h-1.7l-13.3-4.4H79.7c0,0-1.7,0.2-1.7,2.2
		s1.6,2.1,1.6,2.1h-7.2v-2.6c0,0-2.3-0.9-3-0.9c0-0.6,0-0.8,0-0.8H55.5v0.8H55v-1.7h-1.3l-0.6,1.4l-7.9,0.6v1.1h-4.8
		c0,0-1.5,0.3-1.5,1.5s0,2.2,0,2.2h-6.3c0,0-0.5-1.5-3.3-1.5s-18.5-0.3-18.5-0.3v12.8c0,0,1,0.8,2.2,0.8s3.5-2.6,4.1-2.6
		s4.9,0,5.5,0s2.8,2.4,4,2.4s4.3-5.6,4.9-6.2c0.6-0.6,6.6-0.4,6.6-0.4v0.4h2.3c0,0,0.4,1.8,0.1,3.1s-1.4,4.6-1.4,6s2.5,2.1,3.8,1.8
		s0.4-2,0.4-2s0.9-5.8,1.5-6.1c0.6-0.4,1.9-0.3,1.9-0.3s0.2,1.8,1.1,2.1s5.1-0.2,5.3-1.1c0.2-0.9,0.2-1.9,0.2-1.9h0.8
		c0,0,0-0.7-0.2-1.2c-0.2-0.4,1.8-0.4,1.8-0.4l5.4,0c0,0,1.1,0.9,4.1,0.9c3,0,4.6-1.2,4.6-1.2h6.6h11.4c0,0,0.7-0.7,0.7-1
		c1,0,12.2,0,12.2,0v4.1h3.1v-4.1h3.4v1.1h1.4v-1.2h0.9l2.1-3.1h8.3v0.6h3.6v-0.6h1.1v0.5h6.7v-3.1H124.6z M25.8,26c0,0-7.6,0-8.4,0
		c-0.8,0-1.9,0-1.9-1.7c0,0,0.6-3,2.5-3.2c1.9-0.2,9.6,0,9.6,0s0.8,0,0.8,1.3S25.8,26,25.8,26z M52.7,28.6c-0.5,0.7-2.9,1.3-4.2,1
		c-1.3-0.3-1.2-2.5-1.2-2.5s0.5,0,1,0c0,1.7,1.1,2.2,1.1,2.2c-0.6-0.8-0.6-2.3-0.6-2.3s3.1-0.5,3.7-0.4S52.7,27.6,52.7,28.6z
		 M90.8,18c0,0-9.5,0-11,0c-1-2.3,0.1-3.2,0.1-3.2h10.8V18z M93.1,18v-3.2L103,18H93.1z"/>
	<path class="st1" d="M32.1,37.2l-15.1,1.6c-0.8,0-1.4-0.7-1.4-1.5l0.2-11c0-0.8,0.6-1.5,1.4-1.5l15.1,2c2.2,0,4,1.9,3.9,4.3l0,1.9
		C36.1,35.3,34.3,37.2,32.1,37.2z"/>
	<path class="st2" d="M8.4,36.7l9,2.7c0.9,0.3,1.8-0.1,2-0.8l0.4-10c0.2-0.7-0.4-1.5-1.3-1.7l-4-1.4c-0.9-0.3-1.8,0.1-2,0.8L7.2,35
		C7,35.7,7.5,36.5,8.4,36.7z"/>
	<g>
		<g>
			<g>
				<g>
					<defs>
						<path id="SVGID_5_" d="M8.5,36.5l8.6,2.3c0.8,0.3,1.7,0,1.9-0.5l0-7.5c0.2-0.5-0.4-1.1-1.3-1.3L14,28.4
							c-0.8-0.3-1.7,0-1.9,0.5l-4.9,6.4C7.2,35.8,7.7,36.4,8.5,36.5z"/>
					</defs>
					<clipPath id="SVGID_6_">
						<use xlink:href="#SVGID_5_"  style="overflow:visible;"/>
					</clipPath>
					<polygon class="st8" points="19.2,39.9 6.5,36.3 8,32.1 20.8,35.7 					"/>
				</g>
			</g>
		</g>
	</g>
	<path class="st4" d="M45.5,31.3l3.8-0.8c0.2,0,0.4-0.2,0.4-0.4l0-0.4c0-0.2-0.2-0.4-0.4-0.4l-3.8-0.4c-0.2,0-0.4,0.2-0.4,0.4
		l0.1,1.7C45.1,31.1,45.3,31.3,45.5,31.3z"/>
	<path class="st4" d="M47.7,29.2l3.8-0.8c0.2,0,0.4-0.2,0.4-0.4l0-0.4c0-0.2-0.2-0.4-0.4-0.4l-3.8-0.4c-0.2,0-0.4,0.2-0.4,0.4
		l0.1,1.7C47.3,29,47.5,29.2,47.7,29.2z"/>
	<path class="st4" d="M38.5,28.4l5.3-1.5c0.3,0,0.5-0.3,0.5-0.5l-0.1-0.5c0-0.3-0.3-0.5-0.6-0.4L38,25.4c-0.3,0-0.5,0.3-0.5,0.5
		l0.3,2.1C37.9,28.2,38.2,28.4,38.5,28.4z"/>
	<path class="st4" d="M45.6,33.3l3.8-0.8c0.2,0,0.4-0.2,0.4-0.4l0-0.4c0-0.2-0.2-0.4-0.4-0.4l-3.8-0.4c-0.2,0-0.4,0.2-0.4,0.4
		l0.1,1.7C45.2,33.1,45.4,33.3,45.6,33.3z"/>
	<path class="st4" d="M44.7,35.3l3.8-0.8c0.2,0,0.4-0.2,0.4-0.4l0-0.4c0-0.2-0.2-0.4-0.4-0.4l-3.8-0.4c-0.2,0-0.4,0.2-0.4,0.4
		l0.1,1.7C44.3,35.1,44.5,35.3,44.7,35.3z"/>
	<path class="st1" d="M36.7,37.7l9.4-1.6c0.8,0,1.5-0.9,1.4-1.9l-0.3-6.1c0-1-0.8-1.8-1.6-1.7l-9.5-0.7c-0.8,0-1.5,0.9-1.4,1.9
		l0.4,8.4C35.2,37,35.9,37.7,36.7,37.7z"/>
</g>
</svg>
