<?xml version="1.0" encoding="utf-8"?>
<!-- Generator: Adobe Illustrator 24.0.2, SVG Export Plug-In . SVG Version: 6.00 Build 0)  -->
<svg version="1.1" id="Layer_1" xmlns="http://www.w3.org/2000/svg" xmlns:xlink="http://www.w3.org/1999/xlink" x="0px" y="0px"
	 width="120px" height="50px" viewBox="0 0 120 50" style="enable-background:new 0 0 120 50;" xml:space="preserve">
<style type="text/css">
	.st0{fill:#202E35;stroke:#000000;stroke-width:0.75;stroke-miterlimit:10;}
	.st1{fill:#147C87;stroke:#000000;stroke-width:0.75;stroke-miterlimit:10;}
	.st2{fill:#147C87;stroke:#000000;stroke-miterlimit:10;}
	.st3{clip-path:url(#SVGID_2_);fill:#FFC400;}
	.st4{fill:#147C87;stroke:#000000;stroke-width:0.5;stroke-miterlimit:10;}
	.st5{fill:#551500;stroke:#000000;stroke-width:0.5;stroke-miterlimit:10;}
	.st6{fill:#363636;stroke:#000000;stroke-width:0.25;stroke-miterlimit:10;}
	.st7{fill:#262626;stroke:#000000;stroke-width:0.5;stroke-miterlimit:10;}
	.st8{fill:#595959;stroke:#000000;stroke-width:0.5;stroke-miterlimit:10;}
	.st9{fill:#363636;stroke:#000000;stroke-width:0.5;stroke-miterlimit:10;}
	.st10{fill:#262626;stroke:#000000;stroke-width:0.25;stroke-miterlimit:10;}
	.st11{clip-path:url(#SVGID_4_);fill:#FFC400;}
	.st12{clip-path:url(#SVGID_6_);fill:#FFC400;}
</style>
<g id="Layer_2_1_">
	<path class="st0" d="M18.9,15.6c-0.4,2.8,15.2,18.3,15.2,18.3s4.4-2.9,4.8-5.7S27.7,9.8,27.7,9.8S19.3,12.8,18.9,15.6z"/>
	<path class="st1" d="M56.3,36.1l-12.9,3.1c-0.7,0.1-1.3-0.5-1.3-1.2l-1.2-10.2c-0.1-0.8,0.4-1.4,1.1-1.5l13.3,0.1
		c1.9-0.2,3.7,1.3,4,3.6l0.2,1.8C59.6,33.9,58.2,35.8,56.3,36.1z"/>
	<path class="st2" d="M32.9,34.7l7.8,2.9c0.8,0.3,1.6,0,1.8-0.7l0.8-9.4c0.2-0.6-0.2-1.4-1-1.7l-3.4-1.5c-0.8-0.3-1.6,0-1.8,0.7
		l-5.2,8C31.6,33.6,32.1,34.4,32.9,34.7z"/>
	<g>
		<g>
			<g>
				<g>
					<defs>
						<path id="SVGID_1_" d="M33,34.6l7.4,2.5c0.7,0.2,1.5,0.1,1.6-0.4l0.4-7c0.2-0.5-0.3-1.1-1-1.3l-3.2-1.2
							c-0.7-0.2-1.5-0.1-1.6,0.4L32,33.3C31.8,33.7,32.3,34.3,33,34.6z"/>
					</defs>
					<clipPath id="SVGID_2_">
						<use xlink:href="#SVGID_1_"  style="overflow:visible;"/>
					</clipPath>
					<polygon class="st3" points="42.2,38.2 31.2,34.3 32.7,30.4 43.7,34.3 					"/>
				</g>
			</g>
		</g>
	</g>
	<path class="st1" d="M55.3,35l1-5.7c0-0.5,0.9-0.9,2-0.9l6.6-0.2c1,0,2,0.4,2,0.8l1.4,5.6c0,0.5-0.9,0.9-2,0.9l-9.1,0.2
		C56.3,35.8,55.3,35.4,55.3,35z"/>
	<path class="st4" d="M68.1,31.4l3.6-3.2c0.2-0.1,0.3-0.4,0.1-0.6l-0.4-0.5c0-0.1-0.4-0.2-0.5-0.1l-4.6,1.8
		c-0.2,0.1-0.3,0.4-0.1,0.6l1.2,1.7C67.6,31.5,67.9,31.5,68.1,31.4z"/>
	<path class="st4" d="M55.9,32.3l0.7-3.3c0-0.2,0.3-0.3,0.6-0.3h0.6c0.3,0,0.6,0.1,0.6,0.3l1.1,3.2c0,0.2-0.3,0.3-0.6,0.3l-2.4,0.1
		C56.3,32.6,56,32.4,55.9,32.3z"/>
	<path class="st4" d="M67.8,32.2l-1.1-3.8c0-0.2-0.3-0.3-0.6-0.3h-0.6c-0.3,0-0.6,0.2-0.6,0.5l-0.5,3.9c0,0.2,0.3,0.3,0.6,0.3
		l2.4-0.1C67.5,32.5,67.8,32.3,67.8,32.2z"/>
	<path class="st4" d="M61.6,33.2l0.6-4.5c0-0.3,0.3-0.5,0.6-0.5h0.6c0.3,0,0.6,0.1,0.6,0.4l1.2,4.4c0,0.3-0.3,0.5-0.6,0.5l-2.4,0.1
		C61.8,33.5,61.6,33.3,61.6,33.2z"/>
	<path class="st4" d="M58.8,33.3l0.6-4.5c0-0.3,0.3-0.5,0.6-0.5h0.6c0.3,0,0.6,0.1,0.6,0.4l1.2,4.4c0,0.3-0.3,0.5-0.6,0.5l-2.4,0.1
		C59.1,33.6,58.8,33.5,58.8,33.3z"/>
</g>
<g id="Layer_2_2_">
	<path class="st5" d="M18.8,27.3c-0.6,0.1-0.7,0.3-0.7,0.9c0,0.5,0.2,0.9,0.3,1.7c0.1,0.8,0.8,2.9,0.8,3.4s0.4,3.7,0.5,4.1
		c0.1,0.5,0.5,0.9,1.1,0.7c0.6-0.3,10.9-5,11.6-5.3c0.7-0.3,7.7-3.5,8.7-3.8c-0.1-0.7-0.9-4.2-0.9-4.2s-4.8,0.8-5.4,0.9
		c-0.7,0.1-1.6-0.5-2.2-0.6C32,24.9,18.8,27.3,18.8,27.3z"/>
	<path class="st6" d="M49.7,28.3c0.1,0.3,0.6,0.6,0.9,0.6c0.1,0.4,0.3,0.8,0.4,1.1s0.9,0.9,1.2,0.9s0.2-0.2,0.2-0.2s0-0.1-0.2-0.1
		s-0.7-0.4-0.9-0.7c-0.1-0.2-0.1-1-0.1-1s0.5-0.4,0.6-0.6C51.4,28.2,49.7,28.3,49.7,28.3z"/>
	<path class="st6" d="M49.3,30.5c0,0,0.5,0.8,0.7,1c0.2,0.2,0.4,0.2,0.6,0.2c0.3,0,3.4-0.1,3.7-0.2c0.3-0.1,0.6-0.1,0.8-0.7
		c0.2,0,0.4,0.1,0.5-0.2c0.2,0,0.5,0,0.8,0c0.3,0,0.5-0.3,0.5-0.5c0-0.2-0.1-1.8-0.1-1.8l-2-0.1c0,0,0,2,0,2.3
		c0,0.3-0.2,0.5-0.6,0.5c-0.4,0-3.5,0.5-3.9,0.1s-0.7-0.9-0.7-0.9L49.3,30.5z"/>
	<path class="st5" d="M43.6,29c0,0.5,0.2,0.8,0.3,1.1c0.1,0.3,0.3,1.1,0,1.8c-0.3,0.7-1.5,3.6-1.7,4.1c-0.2,0.5-0.2,1.2,0.2,1.7
		c0.4,0.5,0.7,0.8,1.2,1c0.5,0.2,1.3,0.2,1.9,0.1c0.6-0.1,0.8-0.3,0.9-0.7c0-0.4,1.8-5.3,2.2-6.2s0.5-1.1,0.9-1.2s0.5-0.3,0.5-0.5
		c0-0.2,0.1-0.7-0.3-0.7C49.2,29.5,43.6,29,43.6,29z"/>
	<path class="st7" d="M84.1,21.2h7.9c0,0,0.6,0.8,0.8,1.2s0.6,1,1.3,1.1c0.6,0.1,0.8,0.3,0.8,0.3l0,0.1h5.7v-0.6l1.3-2.5
		c0,0,0.1-0.2,0.1-0.2c-0.1,0-0.2,0-0.2-0.1c0-0.1,0-0.5,0-0.6c0.1-0.1,0.3-0.3,0.4-0.3c0.2,0,0.8-0.1,1,0c0.2,0.1,0.4,0.2,0.4,0.4
		c0,0.2,0,0.5-0.1,0.6c0,0.2,0.1,3.3,0.1,3.3s0.8,0,1,0s0.4,0.1,0.4,0.6s0,0.8-0.3,0.8s-1.2,0-1.2,0s0,0.3,0,0.5
		c0,0.1-0.2,0.4-0.4,0.4s-19.6,0.1-19.6,0.1v-3.1l1.9,0.1l0.1,0.6l5.5,0l0-0.8l-7,0.1c0,0-0.5-0.5-0.4-0.9S84.1,21.2,84.1,21.2z"/>
	<path class="st8" d="M46,21.1c-0.5,0-0.7,0.1-1.1,0.4c-0.4,0.4-1.9,2.1-2,2.3c-0.2,0.2-0.3,0.4-0.1,0.6c-0.1,0-0.6,0-0.6,0
		l-1.9,0.3l0.9,4.2l2.1-0.5c0,0,0,0.2,0.2,0.2c0,0.2,0,0.5,0,0.5l6,0.5v-1.2c0,0,4.5-0.2,4.9-0.2c0.4,0,0.3,0.3,0.7,0.4
		c0.3,0.1,1.3,0.1,1.6,0c0.2-0.1,0.1-0.2,0.1-0.2s0.1,0.1,0.2,0c0.1-0.1,0.1-0.2,0.4-0.2c0.3,0,15.4-0.8,15.4-0.8s0-5.8,0-6.2
		s-0.1-0.9-0.5-0.9c-0.4,0-5.7,0.6-5.9,0.6c-0.2,0-0.3,0-0.3,0.1C66,21,46,21.1,46,21.1z"/>
	<path class="st5" d="M73.7,20.4c-0.3,0-0.7,0-0.8,0.4c0,0.4-0.2,0.4-0.2,0.4v2.3c0,0-3.4,0-3.7,0s-0.6,0.1-0.6,0.5s0,3.2,0,3.2
		s0.4,0.1,0.6,0.1s0.2,0.3,0.4,0.5c0.2,0.2,1,0.2,1.4,0c0.4-0.2,1.5-0.5,2.3-0.6s3.8,0,4.3-0.1c0.5-0.1,5.6-0.5,6.1-0.5
		c0.5,0,0.7-0.3,0.7-0.7s-0.1-4.5-0.1-4.9c0-0.4-0.3-0.6-0.6-0.6S73.7,20.4,73.7,20.4z"/>
	<path d="M73.2,23.3c0,0,0.7-0.4,1.2-0.4s2-0.1,2.3-0.1c0.3,0,0.5,0.2,1.5,0.2s1.1-0.2,1.4-0.2s3,0.1,3.3,0.2s0.2,0.3,0.2,0.3h-0.8
		c0,0-0.1,0.3-0.4,0.3s-1.6,0-2,0c-0.4,0-0.4-0.2-0.6-0.2c-0.3,0-1.3,0-1.7,0c-0.3,0-0.4,0.4-0.7,0.4c-0.3,0-1.7,0-2,0
		c-0.2,0-0.4-0.3-0.6-0.3C74,23.5,73.2,23.3,73.2,23.3z"/>
	<path class="st9" d="M57.3,27.9c0,0,0.6,3.1,1.2,4.8c0.7,1.7,3.7,6.9,4.9,8.1c1.3,1.1,4.9,4.1,4.9,4.1l3.2-5.1c0,0-2.3-1.4-3.6-2.8
		s-3-4.1-3.5-5.6c-0.5-1.5-1.1-2.8-1.2-3.7C62.4,27.7,57.3,27.9,57.3,27.9z"/>
	<path d="M68.5,41.4c-0.2-0.2-4.2-4.2-5.3-5.9c-1.1-1.8-2.5-5.2-2.9-6.8l0.5-0.1c0.3,1.5,1.7,4.9,2.8,6.7c1.1,1.7,5.2,5.8,5.2,5.8
		L68.5,41.4z"/>
	<path d="M67.6,42.4c-0.2-0.2-4.6-4.6-5.7-6.4c-1.1-1.8-2.6-5.4-3-7l0.5-0.1c0.3,1.5,1.8,5.1,2.9,6.8c1.1,1.7,5.5,6.3,5.6,6.3
		L67.6,42.4z"/>
	<path d="M69.3,40.6c-0.2-0.2-3.6-3.5-4.7-5.3c-1.1-1.8-2.5-5.2-2.9-6.8l0.5-0.1c0.3,1.5,1.7,4.9,2.8,6.7c1.1,1.7,4.6,5.2,4.6,5.2
		L69.3,40.6z"/>
	<path class="st10" d="M57.6,27h9c0.3,0,0.5-0.2,0.5-0.5v-0.7c0-0.3-0.2-0.5-0.5-0.5h-9c-0.3,0-0.5,0.2-0.5,0.5v0.7
		C57.2,26.7,57.4,27,57.6,27z"/>
</g>
<g id="Layer_1_1_">
	<path class="st0" d="M14.2,10.6C11.6,12,9.5,35.8,9.5,35.8s5.7,2.1,8.3,0.5c2.7-1.5,7.8-21.7,7.8-21.7S16.9,9.1,14.2,10.6z"/>
	<path class="st1" d="M34,38.5l-15.2,0.9c-0.8,0-1.4-0.8-1.3-1.6l0.7-11c0-0.8,0.7-1.5,1.5-1.4l15,2.7c2.2,0.1,3.9,2.1,3.7,4.5
		l-0.1,1.9C38.1,36.8,36.2,38.6,34,38.5z"/>
	<path class="st2" d="M10.4,36.9l8.9,3.1c0.9,0.3,1.8,0,2-0.7l0.9-10c0.2-0.7-0.3-1.5-1.2-1.8l-3.9-1.6c-0.9-0.3-1.8,0-2,0.7
		l-5.9,8.5C9,35.8,9.5,36.6,10.4,36.9z"/>
	<path class="st2" d="M10.3,20.7c0,0,3.7-2,5.3-3s9.3-1,10.5,0c1.2,1,5.2,3,5.2,3s1-11,0-12s-20-1-21,0S10.3,20.7,10.3,20.7z"/>
	<g>
		<g>
			<g>
				<g>
					<defs>
						<path id="SVGID_3_" d="M10,21c0,0,3.7-2,5.3-3c1.7-1,9.3-1,10.5,0c1.2,1,5.2,3,5.2,3s1-11,0-12S11,8,10,9S10,21,10,21z"/>
					</defs>
					<clipPath id="SVGID_4_">
						<use xlink:href="#SVGID_3_"  style="overflow:visible;"/>
					</clipPath>
					<rect x="16.3" y="7.7" class="st11" width="9" height="8"/>
				</g>
			</g>
		</g>
	</g>
	<g>
		<g>
			<g>
				<g>
					<defs>
						<path id="SVGID_5_" d="M10.5,36.7l8.5,2.7c0.8,0.3,1.7,0.1,1.9-0.4l0.4-7.5c0.2-0.5-0.3-1.1-1.2-1.4l-3.7-1.3
							c-0.8-0.3-1.7-0.1-1.9,0.4l-5.2,6.2C9.2,35.9,9.7,36.5,10.5,36.7z"/>
					</defs>
					<clipPath id="SVGID_6_">
						<use xlink:href="#SVGID_5_"  style="overflow:visible;"/>
					</clipPath>
					<polygon class="st12" points="21,40.6 8.5,36.4 10.2,32.3 22.8,36.5 					"/>
				</g>
			</g>
		</g>
	</g>
	<path class="st4" d="M47.7,33.2l3.8-0.6c0.2,0,0.4-0.2,0.4-0.4v-0.4c0-0.2-0.2-0.4-0.4-0.4l-3.8-0.6c-0.2,0-0.4,0.2-0.4,0.4v1.7
		C47.3,33,47.5,33.2,47.7,33.2z"/>
	<path class="st4" d="M50,31.2l3.8-0.6c0.2,0,0.4-0.2,0.4-0.4v-0.4c0-0.2-0.2-0.4-0.4-0.4L50,28.8c-0.2,0-0.4,0.2-0.4,0.4v1.7
		C49.6,31,49.8,31.2,50,31.2z"/>
	<path class="st4" d="M40.8,30l5.4-1.2c0.3,0,0.5-0.3,0.5-0.5l-0.1-0.5c0-0.3-0.3-0.5-0.6-0.4L40.5,27c-0.3,0-0.5,0.3-0.5,0.5
		l0.2,2.1C40.2,29.8,40.5,30,40.8,30z"/>
	<path class="st4" d="M47.7,35.2l3.8-0.6c0.2,0,0.4-0.2,0.4-0.4v-0.4c0-0.2-0.2-0.4-0.4-0.4l-3.8-0.6c-0.2,0-0.4,0.2-0.4,0.4v1.7
		C47.3,35,47.5,35.2,47.7,35.2z"/>
	<path class="st4" d="M46.7,37.2l3.8-0.6c0.2,0,0.4-0.2,0.4-0.4v-0.4c0-0.2-0.2-0.4-0.4-0.4l-3.8-0.6c-0.2,0-0.4,0.2-0.4,0.4v1.7
		C46.3,37,46.5,37.2,46.7,37.2z"/>
	<path class="st1" d="M38.6,39.2l9.5-1.1c0.8,0,1.5-0.8,1.5-1.8v-6.1c0-1-0.7-1.8-1.5-1.8l-9.5-1.2c-0.8,0-1.5,0.8-1.5,1.8v8.4
		C37.1,38.4,37.8,39.2,38.6,39.2z"/>
</g>
</svg>
