<?xml version="1.0" encoding="utf-8"?>
<!-- Generator: Adobe Illustrator 24.0.2, SVG Export Plug-In . SVG Version: 6.00 Build 0)  -->
<svg version="1.1" id="Layer_1" xmlns="http://www.w3.org/2000/svg" xmlns:xlink="http://www.w3.org/1999/xlink" x="0px" y="0px"
	 width="90px" height="50px" viewBox="0 0 90 50" style="enable-background:new 0 0 90 50;" xml:space="preserve">
<style type="text/css">
	.st0{fill:#202E35;stroke:#000000;stroke-width:0.75;stroke-miterlimit:10;}
	.st1{fill:#147C87;stroke:#000000;stroke-width:0.75;stroke-miterlimit:10;}
	.st2{fill:#147C87;stroke:#000000;stroke-miterlimit:10;}
	.st3{clip-path:url(#SVGID_2_);fill:#FFC400;}
	.st4{fill:#147C87;stroke:#000000;stroke-width:0.5;stroke-miterlimit:10;}
	.st5{clip-path:url(#SVGID_4_);fill:#FFC400;}
	.st6{clip-path:url(#SVGID_6_);fill:#FFC400;}
	.st7{fill:#525252;stroke:#000000;stroke-width:0.5;stroke-miterlimit:10;}
	.st8{fill:#333333;stroke:#000000;stroke-width:0.25;stroke-miterlimit:10;}
	.st9{fill:#333333;stroke:#000000;stroke-width:0.5;stroke-miterlimit:10;}
	.st10{fill:#A1FF0A;stroke:#000000;stroke-width:0.25;stroke-miterlimit:10;}
</style>
<g id="Layer_2_1_">
	<path class="st0" d="M18.9,15.6c-0.4,2.8,15.2,18.3,15.2,18.3s4.4-2.9,4.8-5.7S27.7,9.8,27.7,9.8S19.3,12.8,18.9,15.6z"/>
	<path class="st1" d="M55.1,39.3l-13.3-0.1c-0.7-0.1-1.1-0.8-1-1.5l1.3-10.2c0.1-0.8,0.7-1.3,1.4-1.2l12.9,3.3
		c1.9,0.3,3.3,2.2,3,4.4l-0.2,1.8C58.8,38,57,39.5,55.1,39.3z"/>
	<path class="st2" d="M32.9,34.7l7.8,2.9c0.8,0.3,1.6,0,1.8-0.7l0.8-9.4c0.2-0.6-0.2-1.4-1-1.7l-3.4-1.5c-0.8-0.3-1.6,0-1.8,0.7
		l-5.2,8C31.6,33.6,32.1,34.4,32.9,34.7z"/>
	<g>
		<g>
			<g>
				<defs>
					<path id="SVGID_1_" d="M33,34.6l7.4,2.5c0.7,0.2,1.5,0.1,1.6-0.4l0.4-7c0.2-0.5-0.3-1.1-1-1.3l-3.2-1.2
						c-0.7-0.2-1.5-0.1-1.6,0.4L32,33.3C31.8,33.7,32.3,34.3,33,34.6z"/>
				</defs>
				<clipPath id="SVGID_2_">
					<use xlink:href="#SVGID_1_"  style="overflow:visible;"/>
				</clipPath>
				<polygon class="st3" points="42.2,38.2 31.2,34.3 32.7,30.4 43.7,34.3 				"/>
			</g>
		</g>
	</g>
	<path class="st1" d="M57.5,39.9l8.3-1c0.7,0,1.3-0.8,1.3-1.7v-5.7c0-0.9-0.6-1.7-1.3-1.7l-8.3-1.1c-0.7,0-1.3,0.8-1.3,1.7v7.8
		C56.2,39.1,56.8,39.9,57.5,39.9z"/>
	<path class="st4" d="M68.5,34.2l-2.9-0.6c-0.2,0-0.3-0.2-0.3-0.4v-0.4c0-0.2,0.1-0.4,0.3-0.4l2.9-0.6c0.2,0,0.3,0.2,0.3,0.4v1.6
		C68.7,34.1,68.6,34.2,68.5,34.2z"/>
	<path class="st4" d="M68.1,30l-2.5,0.6c-0.1,0-0.2,0.2-0.2,0.4v0.4c0,0.2,0.1,0.4,0.3,0.4l2.5,0.5c0.1,0,0.2-0.2,0.2-0.4v-1.6
		C68.3,30.2,68.2,30,68.1,30z"/>
	<path class="st4" d="M59.8,30.4l4.7,1.2c0.2,0.1,0.5,0,0.6-0.2l0.2-0.5c0.1-0.2,0-0.5-0.2-0.6L61,27.7c-0.2-0.1-0.5,0-0.6,0.2
		l-0.8,1.8C59.5,30,59.6,30.3,59.8,30.4z"/>
	<path class="st4" d="M68.5,36.1l-2.9-0.6c-0.2,0-0.3-0.2-0.3-0.4v-0.4c0-0.2,0.1-0.4,0.3-0.4l2.9-0.6c0.2,0,0.3,0.2,0.3,0.4v1.6
		C68.7,35.9,68.6,36.1,68.5,36.1z"/>
	<path class="st4" d="M67.7,38l-2.1-0.6c-0.1,0-0.2-0.2-0.2-0.4v-0.4c0-0.2,0.1-0.4,0.2-0.4l2.1-0.6c0.1,0,0.2,0.2,0.2,0.4v1.6
		C67.9,37.8,67.8,38,67.7,38z"/>
</g>
<g id="Layer_1_1_">
	<path class="st0" d="M13.2,14C11.9,16.7,24,37.3,24,37.3s5.8-1.6,7.1-4.4s-6.3-22.2-6.3-22.2S14.5,11.2,13.2,14z"/>
	<path class="st1" d="M49.3,39.9l-15.1,1.8c-0.8,0-1.4-0.7-1.4-1.5v-11c0-0.8,0.6-1.5,1.4-1.5l15.1,1.8c2.2,0,4,1.9,4,4.3v1.9
		C53.3,38,51.5,39.9,49.3,39.9z"/>
	<path class="st2" d="M23.1,38.4l8.9,3.1c0.9,0.3,1.8,0,2-0.7l0.9-10c0.2-0.7-0.3-1.5-1.2-1.8l-3.9-1.6c-0.9-0.3-1.8,0-2,0.7
		l-5.9,8.5C21.7,37.3,22.2,38.1,23.1,38.4z"/>
	<path class="st2" d="M10.3,20.7c0,0,3.7-2,5.3-3s9.3-1,10.5,0c1.2,1,5.2,3,5.2,3s1-11,0-12s-20-1-21,0S10.3,20.7,10.3,20.7z"/>
	<g>
		<g>
			<g>
				<defs>
					<path id="SVGID_3_" d="M10,21c0,0,3.7-2,5.3-3c1.7-1,9.3-1,10.5,0c1.2,1,5.2,3,5.2,3s1-11,0-12S11,8,10,9S10,21,10,21z"/>
				</defs>
				<clipPath id="SVGID_4_">
					<use xlink:href="#SVGID_3_"  style="overflow:visible;"/>
				</clipPath>
				<rect x="16.3" y="7.7" class="st5" width="9" height="8"/>
			</g>
		</g>
	</g>
	<g>
		<g>
			<g>
				<defs>
					<path id="SVGID_5_" d="M23.2,38.2l8.5,2.7c0.8,0.3,1.7,0.1,1.9-0.4L34,33c0.2-0.5-0.3-1.1-1.2-1.4l-3.7-1.3
						c-0.8-0.3-1.7-0.1-1.9,0.4L22,36.9C21.9,37.4,22.4,38,23.2,38.2z"/>
				</defs>
				<clipPath id="SVGID_6_">
					<use xlink:href="#SVGID_5_"  style="overflow:visible;"/>
				</clipPath>
				<polygon class="st6" points="33.7,42.1 21.2,37.9 22.9,33.8 35.5,38 				"/>
			</g>
		</g>
	</g>
	<path class="st4" d="M53.8,31.4l5-2.3c0.3-0.1,0.4-0.4,0.4-0.6L59,28c-0.1-0.3-0.4-0.4-0.7-0.3l-5.4,0.8c-0.3,0.1-0.4,0.4-0.4,0.6
		l0.6,2C53.2,31.3,53.5,31.5,53.8,31.4z"/>
	<rect x="58.2" y="38.2" class="st7" width="3.9" height="9.5"/>
	<path class="st8" d="M68.3,28.4l-4.6,0c0.1,0.1,0.3,0.3,0.4,0.7c0,0,0,1,0.4,1.8c0.3,0.8,0.5,1.1,0.7,1.1c0.2-0.1-0.2-0.8-0.2-1.2
		c0-0.4,0.3-1.8,0.9-1.8s0.7,0.8,1.1,0.8c0.4,0.1,0.8,0,0.9-0.2c0,0.6-0.1,2.1-0.6,2.5c-0.5,0.4-1.2,0.5-2.1,0.4
		c-0.9-0.1-2,0-2.3-0.5c-0.1-0.6-0.1-3.4-0.1-3.4s0.1-0.2,0.3-0.3l-8,0l0.1,1.1c0,0,2,1.2,1.8,2.8c-0.1,1.6-1.8,5.6-1.4,6.8
		c0.1,0.3,0.4,0.4,0.6,0.4s6.1,0,6.1,0v-7.2c0,0,0.8,0.6,1.2,0.7c0.4,0,3.2,0.3,3.8-0.1c0.6-0.4,0.8-1.8,1-2.7
		C68.5,29.3,68.3,28.4,68.3,28.4z"/>
	<path class="st7" d="M47.9,20.1c-1,0.3-0.5,9.5-0.5,9.5s-0.5,0.6-0.5,1.1c0,0.5,0.1,0.8,0.6,1s2.7,0.2,2.7,0.2v-2.6
		c0,0,0.4-0.1,0.4-0.9c0-0.8-0.4-1.1-1.2-1.2s-1-0.3-1-1c-0.1-0.7-0.4-4.8,0.2-5c0.6-0.3,5.9,0.7,7,0.7s2.8,0.2,2.8-0.4
		s-3.1-0.7-4.7-0.9C52,20.5,49.9,19.5,47.9,20.1z"/>
	<path class="st9" d="M75.6,29.7c-0.2,0.2-0.6-0.3-0.6-0.3s-23.7-0.5-24.3-0.5s-0.8-0.3-0.8-0.3s0-5.5,0-6.1s1.1-0.8,1.1-0.8h2
		l0.4,0.4h9c0,0,0-0.5,0-0.8c0-0.4,0.4-0.3,0.4-0.3s1.2,0,1.4,0c0.4,0.2,0.3,1.2,0.3,1.2h8.4v-0.5c0,0,0.8-1,1.5-1
		c0.7,0,0.8,0.6,0.8,0.6s0,2.1,0,2.4c0.4,0,0.4,0.2,0.4,0.4c0.5,0,0.6,0.7,0.6,0.7h4.4v1.6c0,0-3.7,0-4.4,0
		c-0.1,0.9-0.4,0.6-0.6,0.7s-0.3,1.6-0.2,2L75.6,29.7z"/>
	<path class="st10" d="M62.9,25.7h-4.1c-0.2,0-0.3-0.1-0.3-0.3V23c0-0.2,0.1-0.3,0.3-0.3h4.1c0.2,0,0.3,0.1,0.3,0.3v2.4
		C63.2,25.6,63.1,25.7,62.9,25.7z"/>
	<path class="st4" d="M62.2,34.7l3.8-0.6c0.2,0,0.4-0.2,0.4-0.4v-0.4c0-0.2-0.2-0.4-0.4-0.4l-3.8-0.6c-0.2,0-0.4,0.2-0.4,0.4v1.7
		C61.8,34.5,62,34.7,62.2,34.7z"/>
	<path class="st4" d="M62.2,32.7l3.8-0.6c0.2,0,0.4-0.2,0.4-0.4v-0.4c0-0.2-0.2-0.4-0.4-0.4l-3.8-0.6c-0.2,0-0.4,0.2-0.4,0.4v1.7
		C61.8,32.5,62,32.7,62.2,32.7z"/>
	<path class="st4" d="M62.2,36.7l3.8-0.6c0.2,0,0.4-0.2,0.4-0.4v-0.4c0-0.2-0.2-0.4-0.4-0.4l-3.8-0.6c-0.2,0-0.4,0.2-0.4,0.4v1.7
		C61.8,36.5,62,36.7,62.2,36.7z"/>
	<path class="st4" d="M61.2,38.7l3.8-0.6c0.2,0,0.4-0.2,0.4-0.4v-0.4c0-0.2-0.2-0.4-0.4-0.4l-3.8-0.6c-0.2,0-0.4,0.2-0.4,0.4v1.7
		C60.8,38.5,61,38.7,61.2,38.7z"/>
	<path class="st1" d="M51.3,40.7l9.5-1.1c0.8,0,1.5-0.8,1.5-1.8v-6.1c0-1-0.7-1.8-1.5-1.8l-9.5-1.2c-0.8,0-1.5,0.8-1.5,1.8v8.4
		C49.8,39.9,50.5,40.7,51.3,40.7z"/>
</g>
</svg>
