<?xml version="1.0" encoding="utf-8"?>
<!-- Generator: Adobe Illustrator 24.0.2, SVG Export Plug-In . SVG Version: 6.00 Build 0)  -->
<svg version="1.1" id="Layer_1" xmlns="http://www.w3.org/2000/svg" xmlns:xlink="http://www.w3.org/1999/xlink" x="0px" y="0px"
	 width="120px" height="50px" viewBox="0 0 120 50" style="enable-background:new 0 0 120 50;" xml:space="preserve">
<style type="text/css">
	.st0{fill:#202E35;stroke:#000000;stroke-width:0.75;stroke-miterlimit:10;}
	.st1{fill:#147C87;stroke:#000000;stroke-width:0.75;stroke-miterlimit:10;}
	.st2{fill:#147C87;stroke:#000000;stroke-miterlimit:10;}
	.st3{clip-path:url(#SVGID_2_);fill:#FFC400;}
	.st4{fill:#147C87;stroke:#000000;stroke-width:0.5;stroke-miterlimit:10;}
	.st5{clip-path:url(#SVGID_4_);fill:#FFC400;}
	.st6{clip-path:url(#SVGID_6_);fill:#FFC400;}
	.st7{fill:#2E2E2E;stroke:#000000;stroke-width:0.25;stroke-miterlimit:10;}
	.st8{fill:#7D7D7D;stroke:#000000;stroke-width:0.25;stroke-miterlimit:10;}
	.st9{fill:#DBDBDB;stroke:#000000;stroke-width:0.25;stroke-miterlimit:10;}
	.st10{fill:#DBDBDB;stroke:#000000;stroke-width:0.1;stroke-miterlimit:10;}
	.st11{fill:#FF0000;stroke:#000000;stroke-width:0.25;stroke-miterlimit:10;}
</style>
<g id="Layer_2_1_">
	<path class="st0" d="M19.2,16.1c-0.1,2.8,17,16.7,17,16.7s4.1-3.3,4.2-6.2c0.1-2.8-13-17.2-13-17.2S19.3,13.3,19.2,16.1z"/>
	<path class="st1" d="M63.1,35.8l-13,2.5c-0.7,0.1-1.3-0.6-1.2-1.3l-0.7-10.2c-0.1-0.8,0.5-1.4,1.2-1.4l13.3,0.8
		c1.9-0.1,3.6,1.5,3.8,3.8l0.1,1.8C66.5,33.8,65,35.6,63.1,35.8z"/>
	<path class="st2" d="M39.1,35.4l7.6,3.3c0.8,0.3,1.6,0.1,1.8-0.6l1.3-9.3c0.2-0.6-0.1-1.4-0.9-1.7l-3.3-1.7
		c-0.8-0.3-1.6-0.1-1.8,0.6l-5.6,7.7C37.9,34.2,38.4,35.1,39.1,35.4z"/>
	<g>
		<g>
			<g>
				<g>
					<g>
						<defs>
							<path id="SVGID_1_" d="M39.2,35.3l7.3,2.9c0.7,0.2,1.5,0.2,1.6-0.3l0.7-7c0.2-0.5-0.2-1.1-0.9-1.3l-3.1-1.4
								c-0.7-0.2-1.5-0.2-1.6,0.3L38.3,34C38.1,34.3,38.6,35,39.2,35.3z"/>
						</defs>
						<clipPath id="SVGID_2_">
							<use xlink:href="#SVGID_1_"  style="overflow:visible;"/>
						</clipPath>
						<polygon class="st3" points="48.3,39.3 37.5,34.9 39.1,31.1 49.9,35.5 						"/>
					</g>
				</g>
			</g>
		</g>
	</g>
	<path class="st1" d="M62.2,34.7l1.3-5.6c0-0.5,0.9-0.9,2-0.8l6.6,0.1c1,0,2,0.5,2,0.9l1.1,5.7c0,0.5-0.9,0.9-2,0.8L64,35.5
		C63.1,35.5,62.2,35.1,62.2,34.7z"/>
	<path class="st4" d="M75.1,31.7l3.8-3c0.2-0.1,0.3-0.4,0.1-0.6l-0.4-0.5c0-0.1-0.4-0.2-0.5-0.1L73.5,29c-0.2,0.1-0.3,0.4-0.1,0.6
		l1.1,1.8C74.6,31.8,74.9,31.8,75.1,31.7z"/>
	<path class="st4" d="M62.9,32l0.9-3.3c0-0.2,0.3-0.3,0.6-0.3l0.6,0c0.3,0,0.6,0.1,0.6,0.3l0.9,3.3c0,0.2-0.3,0.3-0.6,0.3l-2.4,0
		C63.3,32.3,63,32.1,62.9,32z"/>
	<path class="st4" d="M74.8,32.5l-0.9-3.8c0-0.2-0.3-0.3-0.6-0.3l-0.6,0c-0.3,0-0.6,0.2-0.6,0.5l-0.7,3.9c0,0.2,0.3,0.3,0.6,0.3
		l2.4,0C74.5,32.8,74.8,32.6,74.8,32.5z"/>
	<path class="st4" d="M68.6,33.2l0.8-4.5c0-0.3,0.3-0.5,0.6-0.5l0.6,0c0.3,0,0.6,0.1,0.6,0.4l1,4.5c0,0.3-0.3,0.5-0.6,0.5l-2.4,0
		C68.7,33.5,68.5,33.3,68.6,33.2z"/>
	<path class="st4" d="M65.7,33.2l0.8-4.5c0-0.3,0.3-0.5,0.6-0.5l0.6,0c0.3,0,0.6,0.1,0.6,0.4l1,4.5c0,0.3-0.3,0.5-0.6,0.5l-2.4,0
		C66,33.5,65.7,33.4,65.7,33.2z"/>
</g>
<g id="Layer_1_1_">
	<path class="st0" d="M14.5,10.2C11.8,11.3,7,34.7,7,34.7s5.4,2.7,8.2,1.4c2.9-1.2,10.2-20.7,10.2-20.7S17.4,9,14.5,10.2z"/>
	<path class="st1" d="M31.7,38.8l-15.2,1c-0.8,0-1.4-0.8-1.3-1.6l0.7-11c0-0.8,0.7-1.5,1.5-1.4l15,2.6c2.2,0.1,3.9,2.1,3.7,4.5
		L36,34.8C35.8,37.1,33.9,38.9,31.7,38.8z"/>
	<path class="st2" d="M7.6,35.7l8.4,4.3c0.8,0.4,1.8,0.3,2.1-0.4l2.3-9.8c0.3-0.7-0.1-1.5-0.9-2l-3.6-2.1c-0.8-0.4-1.8-0.3-2.1,0.4
		l-7,7.6C6.4,34.4,6.8,35.3,7.6,35.7z"/>
	<path class="st2" d="M10.3,20.7c0,0,3.7-2,5.3-3s9.3-1,10.5,0c1.2,1,5.2,3,5.2,3s1-11,0-12s-20-1-21,0S10.3,20.7,10.3,20.7z"/>
	<g>
		<g>
			<g>
				<g>
					<g>
						<defs>
							<path id="SVGID_3_" d="M10,21c0,0,3.7-2,5.3-3c1.7-1,9.3-1,10.5,0c1.2,1,5.2,3,5.2,3s1-11,0-12S11,8,10,9S10,21,10,21z"/>
						</defs>
						<clipPath id="SVGID_4_">
							<use xlink:href="#SVGID_3_"  style="overflow:visible;"/>
						</clipPath>
						<rect x="16.3" y="7.7" class="st5" width="9" height="8"/>
					</g>
				</g>
			</g>
		</g>
	</g>
	<g>
		<g>
			<g>
				<g>
					<g>
						<defs>
							<path id="SVGID_5_" d="M7.7,35.6l8,3.9c0.7,0.4,1.7,0.3,1.9-0.1l1.5-7.4c0.3-0.5-0.1-1.1-1-1.6l-3.5-1.8
								c-0.7-0.4-1.7-0.3-1.9,0.1l-6,5.4C6.6,34.6,7,35.2,7.7,35.6z"/>
						</defs>
						<clipPath id="SVGID_6_">
							<use xlink:href="#SVGID_5_"  style="overflow:visible;"/>
						</clipPath>
						<polygon class="st6" points="17.6,40.9 5.8,35 8.1,31.2 19.9,37.1 						"/>
					</g>
				</g>
			</g>
		</g>
	</g>
	<path class="st4" d="M36.2,30.2l5.4-1.2c0.3,0,0.5-0.3,0.5-0.5L42,28c0-0.3-0.3-0.5-0.6-0.4l-5.5-0.4c-0.3,0-0.5,0.3-0.5,0.5
		l0.2,2.1C35.6,30,35.9,30.2,36.2,30.2z"/>
	<g id="Layer_2_2_">
		<path class="st7" d="M13,20.4l0,5l1.4,7.5c0,0,1.7,0,2,0c0.3,0,0.4-0.1,0.4-0.5c0-0.4-1-6.3-1.1-6.7c-0.1-0.4,0.1-1.1,0.9-1.1
			s1.1,0,1.6,0c0.5,0,0.9,0.3,1,0.7s0.2,1,0.9,1s6.8,0,6.8,0l0.4,0.7c0,0,1.9-0.2,2.4-0.3c0.5-0.1,0.6-0.2,0.8-0.7
			c0.1-0.6,0.5-1.6,0.5-1.6l0-0.8l0.5,0c0,0,0.1,0.2,0.5,0.2c0.4,0,0.9,0,0.9,0s0.4,0.3,0.4,0.4s0,5.3,0,5.3l2.9,0l0-6.7l1.5-1.4
			l0-1.4L13,20.4z"/>
		<path class="st8" d="M36.3,29.2l14.2,0c0,0,0.1,0.5,0.3,0.7c0.2,0.2,1.6,1.3,1.7,1.8c0.1,0.5,0.3,1,0.4,1.2
			c0.1,0.3,0.2,0.5,0.7,0.4s9-2.8,9.5-3c0.5-0.2,0.8-0.3,0.8-1.1c0-0.8,0-8.9,0-8.9l-24.6,0.1l-1.4,1.1l-1.5,1.4L36.3,29.2z"/>
		<path class="st9" d="M42.1,14.8l0,2.7l0.4,1.5c0,0-0.3,0.2-0.6,0.2c-0.3,0-1.3,0.1-1.3,0.1l0,1l22.3-0.1l0-0.8l-0.2-0.2l-0.7,0
			l-0.3,0.2l-0.3,0l-0.2-0.2l-0.6,0l-0.1,0.2l-0.1,0l-0.2-0.2l-0.5,0l-0.1,0.2l-0.4,0L59,19.2l-0.5,0l-0.1,0.2l-0.3,0l-0.2-0.2
			l-0.4,0l-0.1,0.2l-0.5,0l-0.2-0.2l-0.4,0l-0.2,0.2l-0.3,0l-0.2-0.2l-0.5,0l-0.1,0.2l-0.3,0l-0.2-0.3l-0.4,0l-0.2,0.3l-0.4,0
			l-0.1-0.3l-0.5,0l-0.1,0.3l-0.3,0l-0.2-0.2l-0.4,0l-0.2,0.3l-0.3,0l-0.2-0.2l-0.4,0l-0.2,0.3l-0.4,0l-0.2-0.3l-0.4,0l-0.2,0.3
			l-0.3,0l-0.2-0.3l-0.4,0l-0.2,0.3l-0.5,0l-0.2-0.3l-0.4,0l-0.2,0.3l-0.4,0l-0.1-0.3l-0.4,0l-0.1,0.3l-0.7,0c0,0,0-0.5,0-0.8
			S45.6,18,45.1,18c-0.4,0-0.9-0.3-1.2-0.3c-0.3,0-1-2.8-1-2.8L42.1,14.8z"/>
		<path class="st7" d="M37.2,29.2c0,0,0,0.2,0,0.6c0,0.4,0.3,0.7,0.6,1c0.4,0.3,0.6,0.6,0.4,1.3c-0.3,0.7-1.5,2.8-1.8,3.7
			c-0.3,0.9-0.6,2.9-0.5,3.7c0.1,0.7,0.7,0.7,1.2,0.7c0.5,0.1,2.3,0.1,2.8,0c0.6-0.1,1.3-0.4,1.3-0.4l0-1.4c0,0-0.1-0.6,0.2-0.9
			s0.3-0.5,0.3-0.8c0-0.3,0-1,0-1s0.4-0.3,0.6-0.7s0.1-1.4,0.1-1.4s0.3-0.1,0.5-0.5c0.3-0.4,0.2-0.9,0.1-1.2
			c-0.1-0.3,0.3-0.3,0.6-0.4c0.3-0.1,0.4-0.3,0.4-0.8c0-0.5,0-1.5,0-1.5L37.2,29.2z"/>
		<path class="st7" d="M45,29.2c0,0,0,1.1,0,1.4c0,0.3,0.3,0.9,0.4,1c0.1,0.1,0.3,0,0.3-0.1c0-0.2-0.3-0.4-0.3-0.9s0.8-1.3,1-1.3
			C46.7,29.2,45,29.2,45,29.2z"/>
		<path class="st10" d="M43.4,31.6c0,0,0.1,0.1,0.2,0.3c0.2,0.2,0.2,0.4,0.8,0.4c0.6,0,4.6-0.3,5.1-0.3c0.4,0,1.1-0.2,1.1-0.8
			c0-0.6,0-1.8,0-1.8l-0.1-0.3l-0.3,0c0,0,0,1.8,0,2.1c0,0.3-0.3,0.4-0.8,0.5c-0.5,0.1-4.7,0.4-5.1,0.3c-0.4-0.1-0.4,0-0.5-0.3
			c-0.1-0.2-0.2-0.3-0.2-0.3L43.4,31.6z"/>
		<path class="st7" d="M54.2,33.2c0,0,0.2,0.7,0.3,1c0.1,0.3,0.2,0.5,0.4,0.4c0.1,0.3,1,3.3,2.2,5.7c1.1,2.4,3.2,5.6,3.2,5.6l0,0.7
			c0,0,0.1,0.4,0.3,0.6c0.1,0.2,0.2,0.3,0.5,0.2c0.3-0.1,7.2-4.2,7.4-4.3c0.3-0.1,0.2-0.5,0-0.8c-0.2-0.3-0.1-0.3-0.3-0.4
			c-0.1-0.2-0.3,0.1-0.6-0.4c-0.3-0.5-1.5-2.2-2.4-4.4c-0.9-2.2-1.8-4.7-1.9-5.1c0.3-0.2,0.2-0.3,0.1-0.4c-0.1-0.1-0.2-1.1-0.2-1.1
			L54.2,33.2z"/>
		<path class="st7" d="M63.8,20.3l0-0.4c0,0,19.2,0,19.8,0c0.6,0,2.3,0.4,2.3,0.4l0,6.7c0,0-1.1,1-1.2,1.1c-0.1,0.1-1.1,0-1.1,0
			s0,0.4,0,0.6c0,0.2-0.1,0.3-0.3,0.3c-0.2,0-0.5,0-0.7,0c-0.2,0-0.2-0.3-0.2-0.3l-0.4,0L82,29l-0.4,0l-0.2-0.3l-0.3,0L80.9,29
			l-0.5,0l-0.1-0.3l-0.3,0L79.8,29l-0.5,0l-0.1-0.3l-0.2,0L78.7,29l-0.6,0L78,28.7l-0.3,0L77.6,29l-0.5,0L77,28.7l-0.4,0L76.5,29
			L76,29l-0.1-0.3l-0.3,0L75.4,29l-0.6,0l-0.1-0.3l-0.3,0L74.3,29l-0.5,0l-0.1-0.3l-0.4,0L73.2,29l-0.5,0l-0.1-0.3l-0.4,0L72.1,29
			l-0.5,0l-0.1-0.3l-0.4,0L71,29l-0.5,0l-0.1-0.3l-0.4,0L69.9,29l-0.4,0l-0.1-0.3l-0.4,0L68.8,29c0,0-1.3,0-1.5,0s-0.4-0.1-0.4-0.3
			s0-0.5,0-0.5l-0.4,0c0,0-1.2,0.6-1.6,0.6c-0.5,0-1,0-1,0L63.8,20.3z"/>
		<path class="st9" d="M63.8,19.9l-0.2,0l0-0.5c0,0,0-0.3,0.4-0.3c0.3,0,1.4,0,1.7,0c0.3,0,0.4,0.1,0.4,0.2s0.4,0.1,0.4,0.1l0.1-0.3
			l0.5,0l0.1,0.3l0.4,0l0.1-0.3l0.5,0l0.2,0.3l0.3,0l0.2-0.3l0.5,0l0.2,0.3l0.3,0l0.2-0.3l0.5,0l0.1,0.3l0.4,0l0.2-0.3l0.4,0
			l0.1,0.3l0.3,0l0.1-0.3l0.5,0l0.1,0.3l0.4,0l0.2-0.3l0.5,0l0.1,0.3l0.3,0l0.1-0.3l0.5,0l0.2,0.3l0.3,0l0.1-0.3l0.5,0l0.1,0.3
			l0.4,0c0,0,0-0.1,0-0.2c0-0.1,0.4-0.4,0.5-0.6c0.1-0.2-0.1-0.3-0.1-0.5s0-3.6,0-3.6s0.7,0,0.8,0c0.2,0,0.6,0.3,0.6,0.4
			c0,0.2,0,2.3,0,2.3s0.9,0,1.4,0.6s0.5,1.1,0.5,1.1s0.7,0,1,0s0.4,0.2,0.4,0.4c0,0.2,0,0.4,0,0.4L63.8,19.9z"/>
		<g>
			<path class="st11" d="M68.9,25.7l-0.8,1.5c-0.1,0.1,0,0.3,0.1,0.4h0c0.1,0.1,0.3,0,0.4-0.1l0.8-1.5c0.1-0.1,0-0.3-0.1-0.4
				C69.2,25.5,69,25.6,68.9,25.7z"/>
			<path class="st11" d="M70.7,25.7l-0.8,1.5c-0.1,0.1,0,0.3,0.1,0.4c0.1,0.1,0.3,0,0.4-0.1l0.8-1.5c0.1-0.1,0-0.3-0.1-0.4
				C71,25.5,70.8,25.6,70.7,25.7z"/>
			<path class="st11" d="M72.7,25.7l-0.8,1.5c-0.1,0.1,0,0.3,0.1,0.4c0.1,0.1,0.3,0,0.4-0.1l0.8-1.5c0.1-0.1,0-0.3-0.1-0.4
				C72.9,25.5,72.7,25.6,72.7,25.7z"/>
			<path class="st11" d="M74.5,25.7l-0.8,1.5c-0.1,0.1,0,0.3,0.1,0.4c0.1,0.1,0.3,0,0.4-0.1l0.8-1.5c0.1-0.1,0-0.3-0.1-0.4
				C74.8,25.5,74.6,25.6,74.5,25.7z"/>
			<path class="st11" d="M76.5,25.7l-0.8,1.5c-0.1,0.1,0,0.3,0.1,0.4c0.1,0.1,0.3,0,0.4-0.1L77,26c0.1-0.1,0-0.3-0.1-0.4
				C76.8,25.5,76.6,25.6,76.5,25.7z"/>
			<path class="st11" d="M78.4,25.7l-0.8,1.5c-0.1,0.1,0,0.3,0.1,0.4c0.1,0.1,0.3,0,0.4-0.1l0.8-1.5c0.1-0.1,0-0.3-0.1-0.4
				C78.6,25.5,78.4,25.6,78.4,25.7z"/>
			<path class="st11" d="M80.3,25.7l-0.8,1.5c-0.1,0.1,0,0.3,0.1,0.4c0.1,0.1,0.3,0,0.4-0.1l0.8-1.5c0.1-0.1,0-0.3-0.1-0.4
				S80.4,25.6,80.3,25.7z"/>
			<path class="st11" d="M82.3,25.7l-0.8,1.5c-0.1,0.1,0,0.3,0.1,0.4c0.1,0.1,0.3,0,0.4-0.1l0.8-1.5c0.1-0.1,0-0.3-0.1-0.4
				C82.5,25.5,82.3,25.6,82.3,25.7z"/>
			<path class="st11" d="M84.6,25.6c-0.1-0.1-0.3,0-0.4,0.1l-0.8,1.5c-0.1,0.1,0,0.3,0.1,0.4c0.1,0.1,0.3,0,0.4-0.1l0.8-1.5
				C84.8,25.8,84.7,25.7,84.6,25.6z"/>
		</g>
		
			<rect x="86" y="20.9" transform="matrix(1 -2.415030e-03 2.415030e-03 1 -5.285854e-02 0.2098)" class="st8" width="1.7" height="2.2"/>
		
			<rect x="86" y="24.3" transform="matrix(1 -2.415030e-03 2.415030e-03 1 -6.146324e-02 0.2104)" class="st8" width="2.1" height="2.6"/>
	</g>
	<path class="st4" d="M43.1,33.4l3.8-0.6c0.2,0,0.4-0.2,0.4-0.4l0-0.4c0-0.2-0.2-0.4-0.4-0.4L43.1,31c-0.2,0-0.4,0.2-0.4,0.4l0,1.7
		C42.7,33.2,42.9,33.4,43.1,33.4z"/>
	<path class="st4" d="M45.4,31.4l3.8-0.6c0.2,0,0.4-0.2,0.4-0.4l0-0.4c0-0.2-0.2-0.4-0.4-0.4L45.4,29c-0.2,0-0.4,0.2-0.4,0.4l0,1.7
		C45,31.2,45.2,31.4,45.4,31.4z"/>
	<path class="st4" d="M43.1,35.4l3.8-0.6c0.2,0,0.4-0.2,0.4-0.4l0-0.4c0-0.2-0.2-0.4-0.4-0.4L43.1,33c-0.2,0-0.4,0.2-0.4,0.4l0,1.7
		C42.7,35.2,42.9,35.4,43.1,35.4z"/>
	<path class="st4" d="M42.1,37.4l3.8-0.6c0.2,0,0.4-0.2,0.4-0.4l0-0.4c0-0.2-0.2-0.4-0.4-0.4L42.1,35c-0.2,0-0.4,0.2-0.4,0.4l0,1.7
		C41.7,37.2,41.9,37.4,42.1,37.4z"/>
	<path class="st1" d="M34,39.4l9.5-1.1c0.8,0,1.5-0.8,1.5-1.8l0-6.1c0-1-0.7-1.8-1.5-1.8L34,27.4c-0.8,0-1.5,0.8-1.5,1.8l0,8.4
		C32.5,38.6,33.2,39.4,34,39.4z"/>
</g>
</svg>
