<svg id="Слой_3" data-name="Слой 3" xmlns="http://www.w3.org/2000/svg" xmlns:xlink="http://www.w3.org/1999/xlink" viewBox="0 0 110 70"><defs><style>.cls-1,.cls-2,.cls-3,.cls-4,.cls-5{stroke:#000;}.cls-1,.cls-2,.cls-3,.cls-4,.cls-5,.cls-6,.cls-8{stroke-miterlimit:10;}.cls-1,.cls-6{stroke-width:0.25px;}.cls-2{fill:url(#Новый_образец_градиентной_залив);}.cls-3{fill:gray;}.cls-4,.cls-6{fill:#31c8c5;}.cls-5{fill:#f9f912;}.cls-6,.cls-8{stroke:#31c8c5;}.cls-7{fill:url(#Безымянный_градиент_58);}</style><linearGradient id="Новый_образец_градиентной_залив" x1="42.89" y1="59.59" x2="42.89" y2="1.09" gradientUnits="userSpaceOnUse"><stop offset="0"/><stop offset="0.1" stop-color="#1d0e05"/><stop offset="0.2" stop-color="#311908"/><stop offset="0.29" stop-color="#3e1f0a"/><stop offset="0.38" stop-color="#42210b"/><stop offset="0.5" stop-color="#5a2d0f"/><stop offset="0.6" stop-color="#713813"/><stop offset="0.67" stop-color="#5d2e10"/><stop offset="0.74" stop-color="#4e270d"/><stop offset="0.78" stop-color="#542a0f"/><stop offset="0.82" stop-color="#653314"/><stop offset="0.87" stop-color="#82411d"/><stop offset="0.91" stop-color="#984c24"/></linearGradient><linearGradient id="Безымянный_градиент_58" x1="74.18" y1="35.89" x2="91.61" y2="31.71" gradientTransform="matrix(1, 0, 0, 1, 0.2, -0.06)" gradientUnits="userSpaceOnUse"><stop offset="0"/><stop offset="0.03" stop-color="#151515"/><stop offset="0.08" stop-color="#363636"/><stop offset="0.14" stop-color="#515151"/><stop offset="0.2" stop-color="#666"/><stop offset="0.26" stop-color="#757575"/><stop offset="0.34" stop-color="#7d7d7d"/><stop offset="0.46" stop-color="gray"/><stop offset="0.48" stop-color="#7c7c7c"/><stop offset="0.72" stop-color="#3a3a3a"/><stop offset="0.9" stop-color="#101010"/><stop offset="0.99"/></linearGradient></defs><title>атака 1</title><path class="cls-1" d="M69.75,67.61l1-5.51c0-.14,0-.27.06-.41.66-4.13,1.08-6-.55-7.82l-3.46-.74c-.31.07-6.78-3.25-3.75,4.13,1.22,3,4.6,11.58,4.6,11.58C67.71,69.49,69.53,70.47,69.75,67.61Z"/><path class="cls-1" d="M39.08,68.39l2.4-5c.05-.12.12-.24.17-.37,1.72-3.8,1.92-7.66,1.53-7.67l-4-.18c-.31,0-3.55,1.36-3.59,1.66L36.71,69C36.62,69.66,38.81,69,39.08,68.39Z"/><path class="cls-1" d="M14,68.92l2.41-7.57c0-.16.1-.32.14-.48,1.47-4.85,1.4-9.59,1-9.57l-4,.25c-.32,0-.76,1-2.83,2.1L12,68.84C11.93,69.65,13.72,69.7,14,68.92Z"/><path class="cls-2" d="M80.69,54.47c-5.31-1-2.71,4.79-10.82,2.83-3.62-.86-5.91,0-12.8,1.89-6.69,1.83-8.3-3.95-17.72-.94-5.9,1.89-10.44,1.69-13.78,0-5.35-2.71-8.26-1.81-12.79-1.89-1.84,0-6.5-1-9.17-4.67-1-1.41-3.39-8.49-2.78-16,.59-7.15,2.95-9.27,4.47-11.47a35.56,35.56,0,0,0,4.75-9.47c2.2-5.67,3.53-9.94,7.38-11.91C21.22,1.59,23.36.5,23.6,9.73c1,7,7.62,6.81,8.23,6.79,1.53-.05,2.26-5.42,2.94-6.94C37.86,2.84,42,1.61,44.64,2,48.28,4.4,44,6.22,48.49,15.31c1.48,3,10.12,1.83,9.08-3.88,2.83-9.84,14.57-15,13.84-4.79-.46,6.39,1,7.94,4,10.58,2.79,1.56,5.62,4.45,6.3,6.09,1.16,2.8,5.9,10.39,1.6,14.79-2.75,2.82-1,4.81.37,6.93C86,48.7,84.74,55.24,80.69,54.47Z"/><path class="cls-3" d="M21,1.9s-3.67-2-9,8.16c-1.13,2.15-1.54,6-.7,4.91,1.77-2.23,3,1.07,4-2.29.28-.92,0-2.48,1.87-4.55A66.38,66.38,0,0,0,21,1.9Z"/><path class="cls-3" d="M42.52,1.79c-1.08.05-4.22.17-7.59,8.11-.6,1.44-1.55,5.39.5,3.25.82-.85,3.63,0,3.63,0,.27-.92.8-4.66,3-7.11.46-.51,1-3.14,2.13-3.41C46.1,2.23,43.92,1.73,42.52,1.79Z"/><path class="cls-3" d="M68.4,1.3S62.23.92,58.33,9.92c-.61,1.42.52,5.25,2.11,2.74.71-1.12,3.84.49,3.84.49.87-3.4.24-5.22.66-6.58C65.63,4.35,68.4,1.3,68.4,1.3Z"/><path class="cls-4" d="M23.56,7.61c-.27,3.08-1.35,8.32-3.1,8.16s-5.87-4.47-2.68-8.66c2-2.6,2.61-5.63,3.65-5.3C23.13,2.36,23.83,4.54,23.56,7.61Z"/><path class="cls-5" d="M19.7,8.76c.76-2.06.81-3.84,1.33-4.1.73-.36,1.39-1.38.79,4-.26,2.3-1,4.4-1.52,4.35S19,10.61,19.7,8.76Z"/><path class="cls-4" d="M47.21,7.79c-.26,3-1.27,8.06-2.88,7.92s-5.66-1.68-3-7.93c1.35-3.18,3-5.93,4-5.61C46.84,2.69,47.47,4.8,47.21,7.79Z"/><path class="cls-5" d="M43.77,8.09c.63-2.13.83-4,1.43-4s.93,1.73.75,4a10.78,10.78,0,0,1-1.46,4.15C43.53,14.55,42.48,12.47,43.77,8.09Z"/><path class="cls-4" d="M71.63,6.83c-.26,3.12-1.5,7.92-3.22,7.78s-4.73,1.12-4-5.95c.32-3.29,4.11-8,5.13-7.69C71.18,1.5,71.88,3.71,71.63,6.83Z"/><path class="cls-5" d="M67.59,7c.74-2.19.43-3.9,1.73-3.92.72,0,1.11,1.91.92,4.25a7.58,7.58,0,0,1-1.61,4.23C67.36,13.33,65.82,12.26,67.59,7Z"/><ellipse class="cls-6" cx="12.81" cy="21.15" rx="0.78" ry="1.5" transform="translate(-8.9 32.99) rotate(-87.39)"/><ellipse class="cls-6" cx="34.59" cy="19.97" rx="0.85" ry="1.1" transform="translate(6.72 48.59) rotate(-75.76)"/><ellipse class="cls-6" cx="20.61" cy="25.66" rx="0.85" ry="1.1" transform="translate(-9.33 39.32) rotate(-75.76)"/><ellipse class="cls-6" cx="34.44" cy="28.47" rx="1.38" ry="0.71"/><ellipse class="cls-6" cx="46.44" cy="28.47" rx="1.38" ry="0.71"/><ellipse class="cls-6" cx="48.88" cy="21.8" rx="1.36" ry="0.7" transform="translate(-4.44 17.15) rotate(-19.05)"/><ellipse class="cls-6" cx="60.75" cy="26.86" rx="0.78" ry="1.5" transform="translate(23.13 81.61) rotate(-79.36)"/><ellipse class="cls-6" cx="67.72" cy="20.15" rx="0.78" ry="1.5" transform="translate(35.42 82.99) rotate(-79.36)"/><ellipse class="cls-6" cx="74.36" cy="47.96" rx="0.7" ry="1.36" transform="translate(8.18 106.68) rotate(-74.41)"/><ellipse class="cls-6" cx="57.96" cy="52.66" rx="0.7" ry="1.16" transform="translate(-4.49 99.9) rotate(-79.36)"/><ellipse class="cls-6" cx="34.4" cy="54.65" rx="1.5" ry="0.78" transform="translate(-9.48 7.28) rotate(-10.62)"/><ellipse class="cls-6" cx="9.46" cy="53.2" rx="0.78" ry="1.5" transform="translate(-44.45 56.88) rotate(-83.82)"/><ellipse class="cls-6" cx="4.39" cy="43.98" rx="0.72" ry="1.12" transform="translate(-39.81 43.61) rotate(-83.82)"/><ellipse class="cls-6" cx="42.75" cy="47.43" rx="1.1" ry="0.85" transform="translate(-10.04 11.51) rotate(-13.74)"/><path class="cls-7" d="M84.9,50.57c-3.74,2.5-9.09-2.8-10.53-15.88-.35-3.17-1-15.55,0-16.21,2.5-1.71,10.26,2.16,12.87,11.24C89.92,39.06,87.93,48.55,84.9,50.57Z"/><path d="M84.93,50.61a3.39,3.39,0,0,1-2.37.59,4.8,4.8,0,0,1-2.28-1,11.92,11.92,0,0,1-3.12-3.86,28.07,28.07,0,0,1-2.94-9.47c-.12-.82-.21-1.64-.3-2.47s-.08-1.65-.11-2.47L73.73,27l0-2.46c0-.82,0-1.64,0-2.47s0-1.64.1-2.48q0-.32.09-.63a1.12,1.12,0,0,1,.35-.71,2.74,2.74,0,0,1,1.28-.45,8.06,8.06,0,0,1,4.85,1.47,15.41,15.41,0,0,1,3.76,3.35,18.26,18.26,0,0,1,2.65,4.29,24,24,0,0,1,1.48,4.8,27.37,27.37,0,0,1,.63,5,28.44,28.44,0,0,1-.22,5,24.2,24.2,0,0,1-1.12,4.83,14.4,14.4,0,0,1-1,2.27A5.43,5.43,0,0,1,84.93,50.61Zm-.05-.08A7.74,7.74,0,0,0,87.3,46.4a22.43,22.43,0,0,0,.77-4.82A39.42,39.42,0,0,0,88,36.72a42.92,42.92,0,0,0-.73-4.79,21,21,0,0,0-3.89-8.69A16.07,16.07,0,0,0,79.9,20a7.94,7.94,0,0,0-4.34-1.58,2.25,2.25,0,0,0-1,.3.92.92,0,0,0-.16.39,5,5,0,0,0-.12.58,19.42,19.42,0,0,0-.2,2.43c-.06,1.63,0,3.28.06,4.91.18,3.28.5,6.55,1,9.76a38.13,38.13,0,0,0,2.57,9.35A11.37,11.37,0,0,0,80.42,50a4.51,4.51,0,0,0,2.15,1A3.34,3.34,0,0,0,84.88,50.53Z"/><path class="cls-4" d="M95.23,29.84S89,31.44,87.1,32.07c-7.13,2.41-10.34-1.22-14.23.52a3.54,3.54,0,0,0-.49,5.34C75.7,42,87.27,36.52,89,35.14,91.34,33.29,101.87,29.49,95.23,29.84Z"/><path class="cls-8" d="M99,32.47c-2,1.7-3,3-6.24,6.8-2,2.32-6.12,3.93-10.51,4.11-2.52.11-8.22,3.15-3.11,7.31,3.52,2.88,8.66-1.1,12.63-5.55C96.53,39.83,101.44,30.43,99,32.47Z"/><path class="cls-8" d="M98.75,25.75c1.42,2.58-6-2.25-11.79-3.64-2.94-.71-3.33,1.1-8.13.92-3.7-.13-4.92-2.37-5.31-5.28-.57-4.21,7.31-2.22,12.91,0C93.08,20.44,95.23,19.37,98.75,25.75Z"/><path class="cls-8" d="M71.26,21.79c-.94,2.95-7.74,18.79-1.67,24.69S54.52,45.11,61,33.29,71.78,20.17,71.26,21.79Z"/><path class="cls-8" d="M43.6,21.87c-2.84,4.48-7.14,20.72-2.31,26.63s-12.55-1.26-6.63-13.24S45.76,18.47,43.6,21.87Z"/><path class="cls-8" d="M57.82,20.4c1.29,2.34-6,18.93-2.69,24.71s-9.78,5.45-8.71-4.44S57.82,20.4,57.82,20.4Z"/><path class="cls-8" d="M32.42,21c-2,2-8.24,18.41-4.14,24.51s-9.67,1.37-6.09-13.21C24,25,33.42,19.93,32.42,21Z"/><path class="cls-8" d="M19.69,20.87c-.51,1-9.29,11.43-1.2,28.83C20,53,4.7,44,8.19,31.2,10.16,24,21.46,17.44,19.69,20.87Z"/><path class="cls-1" d="M17.57,68.49c-.51-1-.32-6.9-.76-8.9-1.22-5.5,2.78-6.5,3.76-6.86l4,.41c2.91.73-1.49,6.65-2.11,9.41a45.67,45.67,0,0,1-2.69,6.27C19.62,69.26,18.18,69.65,17.57,68.49Z"/><path class="cls-1" d="M50.71,68.92l1.34-12.59a2.93,2.93,0,0,0-2.69-1.68l-4.79.06c-2.4.94.22,6.19,1.07,7.25,1.52,1.9,1.65,6.25,3.43,7.06C50,69.43,50.66,69.39,50.71,68.92Z"/><path class="cls-1" d="M75.6,69l-.27-14.43c0-.27-1.06-3.24-2.76-3.12l-3,1.22c-2.27,1.22-.89,3,2.58,10.88l0,.07L74,68.84C74.21,69.33,75.61,69.56,75.6,69Z"/></svg>