<svg xmlns="http://www.w3.org/2000/svg" xmlns:xlink="http://www.w3.org/1999/xlink" viewBox="0 0 110 70"><defs><style>.cls-1,.cls-2,.cls-3,.cls-4,.cls-5{stroke:#000;}.cls-1,.cls-2,.cls-3,.cls-4,.cls-5,.cls-6,.cls-7{stroke-miterlimit:10;}.cls-1,.cls-6{stroke-width:0.25px;}.cls-2{fill:url(#Новый_образец_градиентной_залив);}.cls-3{fill:gray;}.cls-4,.cls-6{fill:#31c8c5;}.cls-5{fill:#962d24;}.cls-6,.cls-7{stroke:#31c8c5;}.cls-8{fill:url(#Безымянный_градиент_58);}</style><linearGradient id="Новый_образец_градиентной_залив" x1="42.89" y1="59.38" x2="42.89" y2="0.87" gradientUnits="userSpaceOnUse"><stop offset="0"/><stop offset="0.1" stop-color="#1d0e05"/><stop offset="0.2" stop-color="#311908"/><stop offset="0.29" stop-color="#3e1f0a"/><stop offset="0.38" stop-color="#42210b"/><stop offset="0.5" stop-color="#5a2d0f"/><stop offset="0.6" stop-color="#713813"/><stop offset="0.67" stop-color="#5d2e10"/><stop offset="0.74" stop-color="#4e270d"/><stop offset="0.78" stop-color="#542a0f"/><stop offset="0.82" stop-color="#653314"/><stop offset="0.87" stop-color="#82411d"/><stop offset="0.91" stop-color="#984c24"/></linearGradient><linearGradient id="Безымянный_градиент_58" x1="74.39" y1="35.34" x2="91.93" y2="31.13" gradientTransform="matrix(1, 0, 0, 1, -0.14, 0.04)" gradientUnits="userSpaceOnUse"><stop offset="0"/><stop offset="0.03" stop-color="#151515"/><stop offset="0.08" stop-color="#363636"/><stop offset="0.14" stop-color="#515151"/><stop offset="0.2" stop-color="#666"/><stop offset="0.26" stop-color="#757575"/><stop offset="0.34" stop-color="#7d7d7d"/><stop offset="0.46" stop-color="gray"/><stop offset="0.48" stop-color="#7c7c7c"/><stop offset="0.72" stop-color="#3a3a3a"/><stop offset="0.9" stop-color="#101010"/><stop offset="0.99"/></linearGradient></defs><title>атака 1</title><g id="Слой_19" data-name="Слой 19"><path class="cls-1" d="M69.72,67.28l1-5.51c0-.13,0-.27.07-.41.65-4.13,1.07-6-.56-7.82l-3.46-.74c-.3.07-6.77-3.25-3.74,4.13,1.21,3,4.59,11.58,4.59,11.58C67.69,69.16,69.5,70.15,69.72,67.28Z"/><path class="cls-1" d="M39.06,68.06l2.4-5a3.17,3.17,0,0,1,.17-.38c1.72-3.8,1.92-7.65,1.52-7.67l-4-.18c-.32,0-3.55,1.36-3.59,1.66l1.09,12.23C36.6,69.33,38.79,68.67,39.06,68.06Z"/><path class="cls-1" d="M13.32,68.59l2.93-7.39c.05-.16.12-.31.18-.47,1.8-4.74,2.07-9.47,1.67-9.47l-4,0c-.31,0-.82.89-3,1.9l.2,15.24C11.25,69.17,13,69.35,13.32,68.59Z"/><path class="cls-2" d="M80.7,54.26c-5.32-1-2.72,4.78-10.83,2.83-3.61-.87-5.91,0-12.8,1.89-6.69,1.83-8.29-4-17.71-.95-5.91,1.89-10.45,1.69-13.78,0-5.36-2.71-8.27-1.8-12.8-1.89-1.84,0-6.5-1-9.17-4.67-1-1.41-3.39-8.48-2.78-16C1.42,28.36,3.78,26.24,5.3,24a35.22,35.22,0,0,0,4.75-9.46c2.2-5.68,3.53-9.95,7.39-11.91,3.79-1.3,5.92-2.39,6.16,6.85,1,7,7.62,6.8,8.23,6.78,1.53,0,2.26-5.41,2.94-6.93,3.09-6.75,7.19-8,9.87-7.63C48.28,4.19,44,6,48.49,15.09c1.48,3,10.12,1.83,9.08-3.87,2.83-9.85,14.57-15,13.84-4.79-.46,6.38,1,7.94,4,10.57,2.79,1.57,5.62,4.45,6.3,6.09,1.16,2.8,5.9,10.39,1.6,14.79-2.75,2.82-1,4.82.37,6.93C86,48.48,84.74,55,80.7,54.26Z"/><path class="cls-3" d="M21,1.68s-3.67-2-9,8.16c-1.13,2.15-1.55,6-.71,4.92,1.78-2.24,3,1.06,4-2.29.28-.92,0-2.49,1.87-4.56A65.11,65.11,0,0,0,21,1.68Z"/><path class="cls-3" d="M42.52,1.57c-1.08.05-4.22.18-7.59,8.12-.6,1.43-1.55,5.38.51,3.24.81-.85,3.63.05,3.63.05.26-.92.79-4.66,3-7.11.47-.51,1-3.14,2.13-3.41C46.1,2,43.92,1.52,42.52,1.57Z"/><path class="cls-3" d="M68.4,1.09S62.23.7,58.34,9.7c-.62,1.43.51,5.25,2.1,2.74.71-1.12,3.84.5,3.84.5.88-3.4.24-5.22.66-6.59C65.63,4.13,68.4,1.09,68.4,1.09Z"/><path class="cls-4" d="M23.56,7.4c-.27,3.08-1.35,8.31-3.09,8.16s-5.88-4.48-2.69-8.67c2-2.6,2.61-5.63,3.65-5.3C23.13,2.14,23.83,4.32,23.56,7.4Z"/><path class="cls-5" d="M19.71,8.54c.75-2.06.8-3.84,1.32-4.1.73-.36,1.39-1.38.79,4-.26,2.3-1,4.4-1.52,4.36S19,10.39,19.71,8.54Z"/><path class="cls-4" d="M47.21,7.57c-.26,3-1.27,8.06-2.87,7.92s-5.67-1.68-3-7.93c1.35-3.17,3-5.92,4-5.6C46.84,2.48,47.48,4.59,47.21,7.57Z"/><path class="cls-5" d="M43.77,7.87c.63-2.12.84-4,1.43-4s.94,1.72.75,4A10.55,10.55,0,0,1,44.49,12C43.53,14.34,42.48,12.26,43.77,7.87Z"/><path class="cls-4" d="M71.63,6.61c-.25,3.12-1.5,7.92-3.22,7.78s-4.73,1.13-4-5.94c.33-3.3,4.11-8,5.13-7.7C71.18,1.29,71.88,3.49,71.63,6.61Z"/><path class="cls-5" d="M67.59,6.83c.74-2.2.44-3.91,1.73-3.93.72,0,1.11,1.91.93,4.25a7.49,7.49,0,0,1-1.62,4.23C67.36,13.12,65.83,12,67.59,6.83Z"/><ellipse class="cls-6" cx="12.81" cy="20.93" rx="0.78" ry="1.5" transform="translate(-8.68 32.78) rotate(-87.39)"/><ellipse class="cls-6" cx="34.59" cy="19.76" rx="0.85" ry="1.1" transform="translate(6.93 48.43) rotate(-75.76)"/><ellipse class="cls-6" cx="20.61" cy="25.44" rx="0.85" ry="1.1" transform="translate(-9.12 39.16) rotate(-75.76)"/><ellipse class="cls-6" cx="34.44" cy="28.25" rx="1.38" ry="0.71"/><ellipse class="cls-6" cx="46.44" cy="28.25" rx="1.38" ry="0.71"/><ellipse class="cls-6" cx="48.89" cy="21.58" rx="1.36" ry="0.7" transform="translate(-4.37 17.14) rotate(-19.05)"/><ellipse class="cls-6" cx="60.75" cy="26.65" rx="0.78" ry="1.5" transform="translate(23.35 81.44) rotate(-79.36)"/><ellipse class="cls-6" cx="67.72" cy="19.93" rx="0.78" ry="1.5" transform="translate(35.63 82.81) rotate(-79.36)"/><ellipse class="cls-6" cx="74.36" cy="47.74" rx="0.7" ry="1.36" transform="translate(8.39 106.53) rotate(-74.41)"/><ellipse class="cls-6" cx="57.96" cy="52.44" rx="0.7" ry="1.16" transform="translate(-4.28 99.72) rotate(-79.36)"/><ellipse class="cls-6" cx="34.4" cy="54.43" rx="1.5" ry="0.78" transform="translate(-9.44 7.27) rotate(-10.62)"/><ellipse class="cls-6" cx="9.46" cy="52.99" rx="0.78" ry="1.5" transform="translate(-44.24 56.68) rotate(-83.82)"/><ellipse class="cls-6" cx="4.39" cy="43.76" rx="0.72" ry="1.12" transform="translate(-39.59 43.42) rotate(-83.82)"/><ellipse class="cls-6" cx="42.75" cy="47.21" rx="1.1" ry="0.85" transform="translate(-9.99 11.5) rotate(-13.74)"/><path class="cls-1" d="M17.55,68.16c-.51-1-.32-6.9-.76-8.9-1.22-5.5,2.77-6.5,3.75-6.86l4,.41c2.91.73-1.48,6.65-2.1,9.41a46.38,46.38,0,0,1-2.69,6.27C19.59,68.93,18.16,69.32,17.55,68.16Z"/><path class="cls-1" d="M50.69,68.59,52,56a3,3,0,0,0-2.7-1.67l-4.79.05c-2.39.94.23,6.19,1.07,7.25,1.52,1.9,1.65,6.26,3.43,7.06C49.94,69.1,50.63,69.06,50.69,68.59Z"/><path class="cls-1" d="M76.63,68.28,74.52,54c0-.27-1.46-3.08-3.13-2.75l-2.79,1.6c-2.1,1.49-.5,3.11,3.94,10.46a.16.16,0,0,1,0,.07l2.48,4.93C75.29,68.77,76.71,68.82,76.63,68.28Z"/><path class="cls-7" d="M71.26,21.58c-.94,2.94-7.74,18.78-1.67,24.69S54.53,44.89,61,33.07,71.78,20,71.26,21.58Z"/><path class="cls-7" d="M43.61,21.65c-2.85,4.49-7.15,20.72-2.32,26.63S28.75,47,34.66,35,45.76,18.25,43.61,21.65Z"/><path class="cls-7" d="M57.82,20.18c1.29,2.35-6,18.93-2.68,24.71s-9.79,5.45-8.72-4.43S57.82,20.18,57.82,20.18Z"/><path class="cls-7" d="M32.42,20.73c-2,2-8.24,18.41-4.14,24.52S18.62,46.61,22.19,32C24,24.74,33.42,19.71,32.42,20.73Z"/><path class="cls-7" d="M19.69,20.66c-.51,1-9.29,11.43-1.19,28.83C20,52.76,4.7,43.78,8.19,31,10.17,23.74,21.46,17.22,19.69,20.66Z"/><path class="cls-8" d="M84.83,50.79c-3.75,2.61-9.1-2.92-10.54-16.56-.35-3.31-1-16.22,0-16.9,2.49-1.79,10.25,2.25,12.87,11.72C89.84,38.78,87.86,48.68,84.83,50.79Z"/><path d="M84.86,50.83a3.34,3.34,0,0,1-2.45.6,4.82,4.82,0,0,1-2.31-1.1A12.93,12.93,0,0,1,77,46.24a30.19,30.19,0,0,1-2.88-9.82c-.11-.85-.21-1.69-.29-2.55s-.08-1.7-.1-2.55l-.09-5.09,0-2.55c0-.85,0-1.7,0-2.55s0-1.7.1-2.56A3.1,3.1,0,0,1,74,17.21a2.39,2.39,0,0,1,1.34-.57,8,8,0,0,1,5,1.58,16.08,16.08,0,0,1,3.78,3.58,19.65,19.65,0,0,1,2.63,4.49,28.19,28.19,0,0,1,1.44,5,29.43,29.43,0,0,1,.59,5.11,29.41,29.41,0,0,1-.23,5.14,25,25,0,0,1-1.11,5,14.41,14.41,0,0,1-1,2.36A5.77,5.77,0,0,1,84.86,50.83Zm-.06-.08a8.16,8.16,0,0,0,2.43-4.32,24.68,24.68,0,0,0,.76-5,40,40,0,0,0-.07-5,46.09,46.09,0,0,0-.71-5,22.33,22.33,0,0,0-3.84-9.07,16,16,0,0,0-3.48-3.48,7.71,7.71,0,0,0-4.45-1.68,2.63,2.63,0,0,0-.56.1,2.72,2.72,0,0,0-.25.11l-.19.1a3.42,3.42,0,0,0-.29,1.09C74,19.45,74,20.3,74,21.14c-.06,1.69,0,3.38.06,5.08.18,3.38.5,6.76,1,10.08A42.05,42.05,0,0,0,77.51,46a12.31,12.31,0,0,0,2.74,4.15,4.48,4.48,0,0,0,2.18,1.15A3.24,3.24,0,0,0,84.8,50.75Z"/><path class="cls-4" d="M106.11,24.11s-8.88,2.88-11.51,4c-10,4.19-15.16-1.25-20.59,1.71-1.15.62-3.37,4.5,0,8.32,5.34,6.09,21.43-3.12,23.78-5.38C100.91,29.72,115.69,23.15,106.11,24.11Z"/><path class="cls-7" d="M103.11,58.2c-2.32-1.26-3.85-1.69-8.67-3.35-2.91-1-5.88-4.34-7.57-8.46-1-2.37-5.85-6.65-8.08-.17-1.54,4.47,4,7.85,9.69,9.93C95.19,58.63,105.89,59.71,103.11,58.2Z"/><path class="cls-7" d="M96.82,8.33C99.71,9.17,91,11.07,86,14.27c-2.55,1.63-1.47,3.24-4.91,6.6-2.65,2.6-5.15,1.86-7.58,0-3.51-2.65,3.4-7,8.91-9.39C89,8.59,89.66,6.24,96.82,8.33Z"/></g></svg>