<svg xmlns="http://www.w3.org/2000/svg" xmlns:xlink="http://www.w3.org/1999/xlink" viewBox="0 0 110 70"><defs><style>.cls-1,.cls-2,.cls-3,.cls-4,.cls-5{stroke:#000;}.cls-1,.cls-2,.cls-3,.cls-4,.cls-5,.cls-6,.cls-7{stroke-miterlimit:10;}.cls-1,.cls-6{stroke-width:0.25px;}.cls-2{fill:url(#Новый_образец_градиентной_залив);}.cls-3{fill:gray;}.cls-4,.cls-6{fill:#31c8c5;}.cls-5{fill:#af6420;}.cls-6,.cls-7{stroke:#31c8c5;}.cls-8{fill:url(#Безымянный_градиент_58);}</style><linearGradient id="Новый_образец_градиентной_залив" x1="42.81" y1="59.56" x2="42.81" y2="1.06" gradientUnits="userSpaceOnUse"><stop offset="0"/><stop offset="0.1" stop-color="#1d0e05"/><stop offset="0.2" stop-color="#311908"/><stop offset="0.29" stop-color="#3e1f0a"/><stop offset="0.38" stop-color="#42210b"/><stop offset="0.5" stop-color="#5a2d0f"/><stop offset="0.6" stop-color="#713813"/><stop offset="0.67" stop-color="#5d2e10"/><stop offset="0.74" stop-color="#4e270d"/><stop offset="0.78" stop-color="#542a0f"/><stop offset="0.82" stop-color="#653314"/><stop offset="0.87" stop-color="#82411d"/><stop offset="0.91" stop-color="#984c24"/></linearGradient><linearGradient id="Безымянный_градиент_58" x1="74.39" y1="35.8" x2="91.93" y2="31.6" gradientTransform="matrix(1, 0, 0, 1, -0.05, 0.02)" gradientUnits="userSpaceOnUse"><stop offset="0"/><stop offset="0.03" stop-color="#151515"/><stop offset="0.08" stop-color="#363636"/><stop offset="0.14" stop-color="#515151"/><stop offset="0.2" stop-color="#666"/><stop offset="0.26" stop-color="#757575"/><stop offset="0.34" stop-color="#7d7d7d"/><stop offset="0.46" stop-color="gray"/><stop offset="0.48" stop-color="#7c7c7c"/><stop offset="0.72" stop-color="#3a3a3a"/><stop offset="0.9" stop-color="#101010"/><stop offset="0.99"/></linearGradient></defs><title>атака 1</title><g id="Слой_18" data-name="Слой 18"><path class="cls-1" d="M71.4,67.29l-.25-5.59c0-.14,0-.28,0-.41-.27-4.18-.26-6.07-2.26-7.51l-3.53,0c-.29.14-7.32-1.69-2.76,4.86,1.83,2.62,7,10.29,7,10.29C69.82,69.57,71.81,70.13,71.4,67.29Z"/><path class="cls-1" d="M38.49,68.74l3-4.69.22-.35c2.2-3.55,2.89-7.35,2.5-7.41l-3.91-.69c-.31-.06-3.69.89-3.77,1.18l-.5,12.27C35.89,69.68,38.15,69.31,38.49,68.74Z"/><path class="cls-1" d="M10.32,68.46l5.53-5.71c.1-.13.23-.25.34-.37,3.47-3.69,5.52-8,5.15-8.12l-3.67-1.54c-.29-.13-1.1.51-3.46.62L8.59,67.51C8.19,68.21,9.77,69.06,10.32,68.46Z"/><path class="cls-2" d="M80.61,54.44c-5.32-1-2.72,4.79-10.83,2.84-3.61-.87-5.91,0-12.8,1.89-6.69,1.83-8.29-4-17.71-1-5.91,1.89-10.45,1.69-13.78,0-5.36-2.71-8.27-1.81-12.8-1.89-1.84,0-6.5-1-9.16-4.67-1-1.41-3.39-8.49-2.79-16,.59-7.15,3-9.27,4.48-11.47A35.94,35.94,0,0,0,10,14.77c2.19-5.68,3.53-9.95,7.38-11.91,3.79-1.3,5.92-2.39,6.16,6.85,1,7,5.14,5.44,5.75,5.42,1.54-.05,4.74-4.05,5.42-5.57,3.09-6.75,7.19-8,9.87-7.64,3.64,2.45.46,3.59,4.94,12.67,1.47,3,9,2.52,8-3.18,2.83-9.85,14.57-15,13.84-4.79-.46,6.38,1,7.93,4,10.57,2.79,1.57,5.62,4.45,6.3,6.09,1.16,2.8,5.91,10.39,1.6,14.79-2.75,2.82-1,4.82.37,6.93C85.93,48.67,84.65,55.21,80.61,54.44Z"/><path class="cls-3" d="M20.88,1.87s-3.68-2-9,8.16c-1.13,2.15-1.55,6-.71,4.92,1.78-2.24,3,1.06,4-2.29.28-.92,0-2.49,1.87-4.56A65.58,65.58,0,0,0,20.88,1.87Z"/><path class="cls-3" d="M42.43,1.76c-1.08.05-4.22.17-7.58,8.12-.61,1.43-1.56,5.38.5,3.24.81-.85,3.63.05,3.63.05.26-.92.79-4.66,3-7.11.47-.51,1-3.14,2.14-3.41C46,2.2,43.83,1.7,42.43,1.76Z"/><path class="cls-3" d="M68.31,1.28S62.14.89,58.25,9.89c-.62,1.43.51,5.25,2.1,2.74.71-1.12,3.84.5,3.84.5.88-3.4.24-5.22.66-6.59C65.54,4.32,68.31,1.28,68.31,1.28Z"/><path class="cls-4" d="M23.47,7.59c-.27,3.08-1.35,8.31-3.09,8.16s-5.88-4.48-2.69-8.67c2-2.6,2.61-5.63,3.65-5.3C23,2.33,23.74,4.51,23.47,7.59Z"/><path class="cls-5" d="M19.62,8.73c.75-2.06.8-3.84,1.32-4.1.73-.36,1.4-1.38.79,4-.26,2.3-1,4.4-1.52,4.36S18.94,10.58,19.62,8.73Z"/><path class="cls-4" d="M47.13,7.76c-.27,3-1.28,8.06-2.88,7.92s-5.66-1.68-3-7.93c1.35-3.17,3-5.92,4-5.6C46.75,2.67,47.39,4.78,47.13,7.76Z"/><path class="cls-5" d="M43.68,8.06c.63-2.12.84-4,1.43-4s.94,1.72.75,4a10.55,10.55,0,0,1-1.46,4.15C43.44,14.53,42.39,12.45,43.68,8.06Z"/><path class="cls-4" d="M71.54,6.8c-.25,3.12-1.5,7.92-3.22,7.78s-4.73,1.13-4-5.94c.33-3.3,4.11-8,5.13-7.7C71.09,1.48,71.79,3.68,71.54,6.8Z"/><path class="cls-5" d="M67.5,7c.74-2.2.44-3.91,1.73-3.93.72,0,1.11,1.91.93,4.25a7.49,7.49,0,0,1-1.62,4.23C67.28,13.3,65.74,12.23,67.5,7Z"/><ellipse class="cls-6" cx="12.72" cy="21.12" rx="0.78" ry="1.5" transform="translate(-8.96 32.87) rotate(-87.39)"/><ellipse class="cls-6" cx="34.5" cy="19.95" rx="0.85" ry="1.1" transform="translate(6.68 48.49) rotate(-75.76)"/><ellipse class="cls-6" cx="20.52" cy="25.63" rx="0.85" ry="1.1" transform="translate(-9.37 39.22) rotate(-75.76)"/><ellipse class="cls-6" cx="34.35" cy="28.44" rx="1.38" ry="0.71"/><ellipse class="cls-6" cx="46.35" cy="28.44" rx="1.38" ry="0.71"/><ellipse class="cls-6" cx="48.8" cy="21.77" rx="1.36" ry="0.7" transform="translate(-4.43 17.12) rotate(-19.05)"/><ellipse class="cls-6" cx="60.66" cy="26.84" rx="0.78" ry="1.5" transform="translate(23.09 81.5) rotate(-79.36)"/><ellipse class="cls-6" cx="67.63" cy="20.12" rx="0.78" ry="1.5" transform="translate(35.37 82.88) rotate(-79.36)"/><ellipse class="cls-6" cx="74.27" cy="47.93" rx="0.7" ry="1.36" transform="translate(8.14 106.58) rotate(-74.41)"/><ellipse class="cls-6" cx="57.87" cy="52.63" rx="0.7" ry="1.16" transform="translate(-4.54 99.79) rotate(-79.36)"/><ellipse class="cls-6" cx="34.31" cy="54.62" rx="1.5" ry="0.78" transform="translate(-9.48 7.26) rotate(-10.62)"/><ellipse class="cls-6" cx="9.37" cy="53.18" rx="0.78" ry="1.5" transform="translate(-44.5 56.77) rotate(-83.82)"/><ellipse class="cls-6" cx="4.3" cy="43.95" rx="0.72" ry="1.12" transform="translate(-39.86 43.5) rotate(-83.82)"/><ellipse class="cls-6" cx="42.66" cy="47.4" rx="1.1" ry="0.85" transform="translate(-10.04 11.49) rotate(-13.74)"/><path class="cls-1" d="M16.34,68c-.3-1.06,1.11-6.82,1.08-8.87-.06-5.63,4-5.79,5.08-5.94l3.8,1.21c2.69,1.31-2.82,6.2-4,8.78a45.08,45.08,0,0,1-3.92,5.58C18.19,69.16,16.7,69.25,16.34,68Z"/><path class="cls-1" d="M51.94,68.84,51.43,56.2a2.91,2.91,0,0,0-2.91-1.27l-4.73.75c-2.23,1.28,1.12,6.09,2.11,7,1.78,1.66,2.54,6,4.42,6.49C51.27,69.46,52,69.32,51.94,68.84Z"/><path class="cls-1" d="M78.48,68l-5-13.53c-.09-.26-2.07-2.71-3.63-2l-2.4,2.15c-1.74,1.89.17,3.15,6,9.41a.12.12,0,0,1,0,0L77,68.37C77.27,68.77,78.67,68.52,78.48,68Z"/><path class="cls-7" d="M71.17,22.76c-.94,2.95-7.74,18.79-1.67,24.7s-15.06-1.38-8.58-13.2S71.69,21.14,71.17,22.76Z"/><path class="cls-7" d="M43.52,22.84c-2.85,4.48-7.15,20.72-2.32,26.63s-12.54-1.26-6.63-13.24S45.67,19.44,43.52,22.84Z"/><path class="cls-7" d="M57.74,21.37c1.28,2.35-6,18.93-2.69,24.71s-9.79,5.45-8.71-4.43S57.74,21.37,57.74,21.37Z"/><path class="cls-7" d="M32.33,21.92c-2,2-8.24,18.41-4.14,24.52S18.53,47.8,22.1,33.22C23.89,25.93,33.33,20.9,32.33,21.92Z"/><path class="cls-7" d="M19.6,21.85c-.51,1-9.29,11.43-1.19,28.82C19.93,54,4.61,45,8.1,32.17,10.08,24.93,21.38,18.41,19.6,21.85Z"/><path class="cls-8" d="M84.91,51.23c-3.74,2.6-9.09-2.93-10.53-16.57-.35-3.3-1-16.21,0-16.89C76.87,16,84.63,20,87.24,29.49,89.93,39.22,87.94,49.12,84.91,51.23Z"/><path d="M84.94,51.27a3.34,3.34,0,0,1-2.45.6,4.79,4.79,0,0,1-2.3-1.1,12.9,12.9,0,0,1-3.09-4.09,30,30,0,0,1-2.88-9.82c-.12-.85-.21-1.69-.29-2.55s-.08-1.7-.11-2.55l-.08-5.1,0-2.54c0-.85,0-1.7,0-2.55s0-1.7.09-2.56a3.25,3.25,0,0,1,.33-1.36,2.39,2.39,0,0,1,1.34-.57,8,8,0,0,1,5,1.58,15.73,15.73,0,0,1,3.79,3.58,19.4,19.4,0,0,1,2.62,4.49,26.59,26.59,0,0,1,1.44,5,31.83,31.83,0,0,1,.37,10.24,25.82,25.82,0,0,1-1.11,5,15.22,15.22,0,0,1-1,2.35A5.63,5.63,0,0,1,84.94,51.27Zm-.06-.08a8.13,8.13,0,0,0,2.43-4.32,23.34,23.34,0,0,0,.76-5,40.18,40.18,0,0,0-.07-5,46.26,46.26,0,0,0-.71-5,22.35,22.35,0,0,0-3.83-9.08A16.18,16.18,0,0,0,80,19.35a7.6,7.6,0,0,0-4.45-1.68,2.54,2.54,0,0,0-.55.1l-.26.1-.19.11a3.13,3.13,0,0,0-.28,1.08,21.21,21.21,0,0,0-.19,2.52c-.06,1.69,0,3.38.06,5.07.17,3.38.5,6.77,1,10.08a42.29,42.29,0,0,0,2.52,9.71,12.55,12.55,0,0,0,2.74,4.16,4.53,4.53,0,0,0,2.18,1.15A3.23,3.23,0,0,0,84.88,51.19Z"/><path class="cls-4" d="M103.59,25.15S95.41,27.55,93,28.5c-9.32,3.61-13.49-1.73-18.58.87-1.08.55-3.38,4.15-.67,7.9,4.31,6,19.44-2.19,21.72-4.25C98.49,30.27,112.25,24.58,103.59,25.15Z"/><path class="cls-7" d="M103.85,51.61c-2.6-.64-4.21-.67-9.36-1.08-3.11-.24-6.89-2.73-9.61-6.31-1.56-2-7.45-5-8,1.85-.35,4.72,6,6.61,12.06,7.21C96.2,54,107,52.38,103.85,51.61Z"/><path class="cls-7" d="M98.61,14.69c2.6,1.52-6.29,1.25-11.93,3.14-2.87,1-2.22,2.78-6.37,5.21-3.2,1.87-5.44.55-7.35-1.82-2.76-3.43,5-5.92,10.92-6.95C91,13,92.18,10.93,98.61,14.69Z"/></g></svg>