<svg xmlns="http://www.w3.org/2000/svg" xmlns:xlink="http://www.w3.org/1999/xlink" viewBox="0 0 110 70"><defs><style>.cls-1,.cls-2,.cls-3,.cls-4,.cls-5{stroke:#000;}.cls-1,.cls-2,.cls-3,.cls-4,.cls-5,.cls-6,.cls-7{stroke-miterlimit:10;}.cls-1,.cls-6{stroke-width:0.25px;}.cls-2{fill:url(#Новый_образец_градиентной_залив);}.cls-3{fill:gray;}.cls-4,.cls-6{fill:#31c8c5;}.cls-5{fill:#f78614;}.cls-6,.cls-7{stroke:#31c8c5;}.cls-8{fill:url(#Безымянный_градиент_58);}</style><linearGradient id="Новый_образец_градиентной_залив" x1="42.8" y1="59.5" x2="42.8" y2="0.99" gradientUnits="userSpaceOnUse"><stop offset="0"/><stop offset="0.1" stop-color="#1d0e05"/><stop offset="0.2" stop-color="#311908"/><stop offset="0.29" stop-color="#3e1f0a"/><stop offset="0.38" stop-color="#42210b"/><stop offset="0.5" stop-color="#5a2d0f"/><stop offset="0.6" stop-color="#713813"/><stop offset="0.67" stop-color="#5d2e10"/><stop offset="0.74" stop-color="#4e270d"/><stop offset="0.78" stop-color="#542a0f"/><stop offset="0.82" stop-color="#653314"/><stop offset="0.87" stop-color="#82411d"/><stop offset="0.91" stop-color="#984c24"/></linearGradient><linearGradient id="Безымянный_градиент_58" x1="74.52" y1="36.61" x2="92.06" y2="32.4" gradientTransform="matrix(1, 0, 0, 1, 0.03, -0.01)" gradientUnits="userSpaceOnUse"><stop offset="0"/><stop offset="0.03" stop-color="#151515"/><stop offset="0.08" stop-color="#363636"/><stop offset="0.14" stop-color="#515151"/><stop offset="0.2" stop-color="#666"/><stop offset="0.26" stop-color="#757575"/><stop offset="0.34" stop-color="#7d7d7d"/><stop offset="0.46" stop-color="gray"/><stop offset="0.48" stop-color="#7c7c7c"/><stop offset="0.72" stop-color="#3a3a3a"/><stop offset="0.9" stop-color="#101010"/><stop offset="0.99"/></linearGradient></defs><title>атака 1</title><g id="Слой_17" data-name="Слой 17"><path class="cls-1" d="M71.39,67.23l-.25-5.6c0-.13,0-.27,0-.41-.27-4.17-.26-6.07-2.26-7.51l-3.53,0c-.29.13-7.32-1.69-2.75,4.85,1.82,2.62,7,10.3,7,10.3C69.81,69.5,71.8,70.07,71.39,67.23Z"/><path class="cls-1" d="M38.48,68.68l3-4.7c.07-.12.15-.23.22-.34,2.2-3.55,2.89-7.35,2.5-7.42l-3.91-.69c-.31-.05-3.69.89-3.77,1.18L36.05,69C35.88,69.62,38.14,69.25,38.48,68.68Z"/><path class="cls-1" d="M8.55,67.3l6.73-4.24c.13-.1.28-.18.42-.27C20,60,23,56.36,22.64,56.13l-3.19-2.37c-.26-.19-1.19.24-3.52-.23L7.1,66C6.54,66.54,7.88,67.74,8.55,67.3Z"/><path class="cls-2" d="M80.6,54.38c-5.32-1-2.72,4.79-10.83,2.83-3.61-.87-5.91,0-12.8,1.89-6.69,1.83-8.29-4-17.71-1-5.91,1.89-10.45,1.69-13.78,0-5.36-2.71-8.27-1.8-12.8-1.88-1.84,0-6.5-1-9.16-4.67-1-1.41-3.39-8.49-2.78-16,.58-7.16,2.94-9.28,4.47-11.47A36.08,36.08,0,0,0,10,14.7C12.15,9,13.49,4.76,17.34,2.79,21.13,1.5,23.26.41,23.5,9.64c1,7,7.62,6.81,8.23,6.79C33.26,16.38,34,11,34.67,9.49c3.1-6.75,7.19-8,9.87-7.63,3.65,2.45-.62,4.27,3.85,13.35,1.48,3,10.12,1.84,9.08-3.87C60.3,1.49,72-3.63,71.31,6.55c-.46,6.39,1,7.94,4,10.57,2.79,1.57,5.62,4.45,6.3,6.1C82.74,26,87.49,33.6,83.18,38c-2.75,2.83-1,4.82.37,6.94C85.92,48.6,84.64,55.14,80.6,54.38Z"/><path class="cls-3" d="M20.87,1.8s-3.68-2-9,8.16c-1.13,2.16-1.55,6-.7,4.92,1.77-2.24,3,1.07,4-2.29.28-.92,0-2.49,1.88-4.55A68.52,68.52,0,0,0,20.87,1.8Z"/><path class="cls-3" d="M42.42,1.7c-1.08,0-4.22.17-7.58,8.11-.61,1.43-1.56,5.39.5,3.25.81-.85,3.63,0,3.63,0,.26-.93.79-4.66,3-7.12.47-.51,1-3.14,2.14-3.41C46,2.13,43.82,1.64,42.42,1.7Z"/><path class="cls-3" d="M68.3,1.21S62.13.82,58.24,9.82c-.62,1.43.51,5.25,2.1,2.75.71-1.13,3.84.49,3.84.49.88-3.4.24-5.22.66-6.58C65.53,4.26,68.3,1.21,68.3,1.21Z"/><path class="cls-4" d="M23.46,7.52c-.27,3.08-1.35,8.31-3.09,8.16S14.49,11.21,17.68,7c2-2.6,2.62-5.64,3.65-5.3C23,2.26,23.73,4.44,23.46,7.52Z"/><path class="cls-5" d="M19.61,8.66c.75-2,.8-3.83,1.32-4.09.73-.37,1.4-1.39.79,4-.26,2.31-1,4.41-1.52,4.36S18.93,10.51,19.61,8.66Z"/><path class="cls-4" d="M47.12,7.7c-.27,3-1.28,8.06-2.88,7.92s-5.66-1.68-3-7.94c1.34-3.17,3-5.92,3.95-5.6C46.74,2.6,47.38,4.71,47.12,7.7Z"/><path class="cls-5" d="M43.67,8c.63-2.12.84-4,1.43-4s.94,1.72.75,4a10.55,10.55,0,0,1-1.46,4.15C43.43,14.46,42.38,12.38,43.67,8Z"/><path class="cls-4" d="M71.53,6.73c-.25,3.13-1.5,7.92-3.22,7.79s-4.73,1.12-4-5.95c.33-3.29,4.11-8,5.13-7.7C71.08,1.41,71.78,3.61,71.53,6.73Z"/><path class="cls-5" d="M67.49,7c.74-2.2.44-3.91,1.73-3.92.72,0,1.11,1.9.93,4.25a7.5,7.5,0,0,1-1.61,4.22C67.27,13.24,65.73,12.17,67.49,7Z"/><ellipse class="cls-6" cx="12.72" cy="21.06" rx="0.78" ry="1.5" transform="translate(-8.9 32.8) rotate(-87.39)"/><ellipse class="cls-6" cx="34.49" cy="19.88" rx="0.85" ry="1.1" transform="translate(6.74 48.43) rotate(-75.76)"/><ellipse class="cls-6" cx="20.51" cy="25.57" rx="0.85" ry="1.1" transform="translate(-9.31 39.16) rotate(-75.76)"/><ellipse class="cls-6" cx="34.34" cy="28.37" rx="1.38" ry="0.71"/><ellipse class="cls-6" cx="46.34" cy="28.37" rx="1.38" ry="0.71"/><ellipse class="cls-6" cx="48.79" cy="21.7" rx="1.36" ry="0.7" transform="translate(-4.41 17.11) rotate(-19.05)"/><ellipse class="cls-6" cx="60.65" cy="26.77" rx="0.78" ry="1.5" transform="translate(23.14 81.44) rotate(-79.36)"/><ellipse class="cls-6" cx="67.63" cy="20.06" rx="0.78" ry="1.5" transform="translate(35.43 82.82) rotate(-79.36)"/><ellipse class="cls-6" cx="74.26" cy="47.86" rx="0.7" ry="1.36" transform="translate(8.2 106.52) rotate(-74.41)"/><ellipse class="cls-6" cx="57.86" cy="52.56" rx="0.7" ry="1.16" transform="translate(-4.48 99.73) rotate(-79.36)"/><ellipse class="cls-6" cx="34.3" cy="54.56" rx="1.5" ry="0.78" transform="matrix(0.98, -0.18, 0.18, 0.98, -9.47, 7.26)"/><ellipse class="cls-6" cx="9.36" cy="53.11" rx="0.78" ry="1.5" transform="translate(-44.45 56.7) rotate(-83.82)"/><ellipse class="cls-6" cx="4.29" cy="43.89" rx="0.72" ry="1.12" transform="translate(-39.8 43.43) rotate(-83.82)"/><ellipse class="cls-6" cx="42.65" cy="47.33" rx="1.1" ry="0.85" transform="translate(-10.02 11.48) rotate(-13.74)"/><path class="cls-1" d="M16.33,67.92c-.3-1.06,1.11-6.82,1.08-8.86-.06-5.64,4.05-5.8,5.08-6l3.8,1.22c2.69,1.31-2.82,6.2-4,8.77a45.39,45.39,0,0,1-3.92,5.59C18.18,69.1,16.69,69.19,16.33,67.92Z"/><path class="cls-1" d="M51.93,68.78l-.51-12.65a2.91,2.91,0,0,0-2.91-1.26l-4.73.75c-2.23,1.28,1.12,6.08,2.11,7,1.78,1.66,2.54,5.95,4.42,6.49C51.26,69.39,51.94,69.25,51.93,68.78Z"/><path class="cls-1" d="M80,66.54l-8-12c-.15-.23-2.64-2.16-4-1.15L66.11,56c-1.26,2.24.88,3,8,7.77l.06,0,4.35,3.4C79,67.56,80.27,67,80,66.54Z"/><path class="cls-7" d="M71.16,21.7c-.94,2.94-7.73,18.78-1.67,24.69S54.43,45,60.91,33.19,71.68,20.07,71.16,21.7Z"/><path class="cls-7" d="M43.51,21.77c-2.85,4.49-7.15,20.72-2.32,26.63s-12.54-1.26-6.63-13.23S45.66,18.37,43.51,21.77Z"/><path class="cls-7" d="M57.73,20.31C59,22.65,51.73,39.23,55,45s-9.79,5.44-8.71-4.44S57.73,20.31,57.73,20.31Z"/><path class="cls-7" d="M32.32,20.86c-2,2-8.24,18.4-4.14,24.51s-9.66,1.36-6.09-13.22C23.88,24.86,33.32,19.84,32.32,20.86Z"/><path class="cls-7" d="M19.59,20.78c-.51,1-9.29,11.43-1.19,28.83C19.92,52.88,4.6,43.9,8.09,31.1,10.07,23.86,21.37,17.35,19.59,20.78Z"/><path class="cls-8" d="M85.13,52c-3.75,2.6-9.1-2.93-10.54-16.57-.34-3.3-1-16.21,0-16.9,2.5-1.78,10.26,2.25,12.87,11.73C90.15,40,88.16,49.9,85.13,52Z"/><path d="M85.16,52.05a3.34,3.34,0,0,1-2.45.6,4.74,4.74,0,0,1-2.3-1.1,13.08,13.08,0,0,1-3.1-4.09,30.51,30.51,0,0,1-2.88-9.82c-.11-.85-.21-1.7-.28-2.55s-.09-1.7-.11-2.55L74,27.44l0-2.54c0-.85,0-1.7,0-2.55s0-1.7.09-2.56a3.1,3.1,0,0,1,.33-1.36,2.39,2.39,0,0,1,1.34-.57,8,8,0,0,1,5,1.58A15.89,15.89,0,0,1,84.45,23a19.82,19.82,0,0,1,2.62,4.49,27.7,27.7,0,0,1,1.44,5,31.83,31.83,0,0,1,.37,10.24,26.58,26.58,0,0,1-1.11,5,15.22,15.22,0,0,1-1,2.35A5.84,5.84,0,0,1,85.16,52.05ZM85.1,52a8.13,8.13,0,0,0,2.43-4.32,24.68,24.68,0,0,0,.76-5,40.18,40.18,0,0,0-.07-5,45.91,45.91,0,0,0-.71-5,22.35,22.35,0,0,0-3.83-9.08,16.4,16.4,0,0,0-3.49-3.47,7.68,7.68,0,0,0-4.45-1.69,2.64,2.64,0,0,0-.56.11l-.25.1-.19.11a3.13,3.13,0,0,0-.28,1.08,21.05,21.05,0,0,0-.19,2.52c-.07,1.69,0,3.38,0,5.07.18,3.38.5,6.77,1,10.08a42.05,42.05,0,0,0,2.52,9.71,12.35,12.35,0,0,0,2.74,4.16,4.51,4.51,0,0,0,2.18,1.14A3.18,3.18,0,0,0,85.1,52Z"/><path class="cls-4" d="M100.76,27s-7.4,2.22-9.61,3.1c-8.43,3.32-12.18-1.56-16.79.83-1,.51-3.06,3.81-.62,7.24,3.88,5.46,17.58-2,19.64-3.93C96.14,31.68,108.59,26.44,100.76,27Z"/><path class="cls-7" d="M104.08,43.8c-2.64.47-4.12,1.1-9,2.81-2.94,1-7.4.3-11.34-1.87-2.26-1.24-8.83-1.53-6.52,4.92,1.59,4.45,8.16,3.6,14,1.7C98.05,49.09,107.23,43.24,104.08,43.8Z"/><path class="cls-7" d="M98.83,15.47c2.6,1.52-6.3,1.25-11.93,3.14-2.87,1-2.22,2.78-6.37,5.21-3.2,1.87-5.45.55-7.36-1.83-2.75-3.42,5-5.91,10.93-6.94C91.17,13.82,92.4,11.71,98.83,15.47Z"/></g></svg>