<svg xmlns="http://www.w3.org/2000/svg" xmlns:xlink="http://www.w3.org/1999/xlink" viewBox="0 0 110 70"><defs><style>.cls-1,.cls-2,.cls-3,.cls-4,.cls-5{stroke:#000;}.cls-1,.cls-2,.cls-3,.cls-4,.cls-5,.cls-6,.cls-7{stroke-miterlimit:10;}.cls-1,.cls-6{stroke-width:0.25px;}.cls-2{fill:url(#Новый_образец_градиентной_залив);}.cls-3{fill:gray;}.cls-4,.cls-6{fill:#31c8c5;}.cls-5{fill:#f4b516;}.cls-6,.cls-7{stroke:#31c8c5;}.cls-8{fill:url(#Безымянный_градиент_58);}</style><linearGradient id="Новый_образец_градиентной_залив" x1="42.86" y1="59.5" x2="42.86" y2="0.99" gradientUnits="userSpaceOnUse"><stop offset="0"/><stop offset="0.1" stop-color="#1d0e05"/><stop offset="0.2" stop-color="#311908"/><stop offset="0.29" stop-color="#3e1f0a"/><stop offset="0.38" stop-color="#42210b"/><stop offset="0.5" stop-color="#5a2d0f"/><stop offset="0.6" stop-color="#713813"/><stop offset="0.67" stop-color="#5d2e10"/><stop offset="0.74" stop-color="#4e270d"/><stop offset="0.78" stop-color="#542a0f"/><stop offset="0.82" stop-color="#653314"/><stop offset="0.87" stop-color="#82411d"/><stop offset="0.91" stop-color="#984c24"/></linearGradient><linearGradient id="Безымянный_градиент_58" x1="74.14" y1="35.54" x2="91.56" y2="31.36" gradientTransform="matrix(1, 0, 0, 1, 0.12, -0.03)" gradientUnits="userSpaceOnUse"><stop offset="0"/><stop offset="0.03" stop-color="#151515"/><stop offset="0.08" stop-color="#363636"/><stop offset="0.14" stop-color="#515151"/><stop offset="0.2" stop-color="#666"/><stop offset="0.26" stop-color="#757575"/><stop offset="0.34" stop-color="#7d7d7d"/><stop offset="0.46" stop-color="gray"/><stop offset="0.48" stop-color="#7c7c7c"/><stop offset="0.72" stop-color="#3a3a3a"/><stop offset="0.9" stop-color="#101010"/><stop offset="0.99"/></linearGradient></defs><title>атака 1</title><g id="Слой_16" data-name="Слой 16"><path class="cls-1" d="M69.68,67.65l1-5.51c0-.14,0-.27.07-.41.65-4.13,1.07-6-.56-7.82l-3.46-.74c-.31.07-6.78-3.25-3.74,4.13,1.21,3,4.59,11.58,4.59,11.58C67.65,69.53,69.46,70.52,69.68,67.65Z"/><path class="cls-1" d="M39,68.43l2.4-5c.05-.13.12-.25.18-.38,1.72-3.8,1.91-7.65,1.52-7.67l-4-.18a13.12,13.12,0,0,0-3.59,1.66l1.09,12.23C36.55,69.7,38.74,69,39,68.43Z"/><path class="cls-1" d="M9.83,68.06l5.67-5.58a3.85,3.85,0,0,1,.35-.35c3.56-3.61,5.71-7.84,5.35-8L17.57,52.5c-.29-.13-1.11.49-3.48.54l-6,14C7.7,67.75,9.27,68.64,9.83,68.06Z"/><path class="cls-2" d="M80.66,54.38c-5.31-1-2.71,4.79-10.82,2.83-3.62-.87-5.91,0-12.8,1.89-6.69,1.83-8.3-4-17.72-1-5.9,1.89-10.44,1.69-13.78,0-5.35-2.71-8.26-1.8-12.79-1.88-1.85,0-6.51-1-9.17-4.67-1-1.41-3.39-8.49-2.78-16,.59-7.16,3-9.28,4.47-11.47A35.71,35.71,0,0,0,10,14.7C12.22,9,13.55,4.76,17.4,2.79,21.19,1.5,23.32.41,23.56,9.64c1,7,4.52,6.37,5.13,6.35,1.53-.05,5.37-5,6.05-6.5,3.09-6.75,7.19-8,9.87-7.63,3.64,2.45,1.23,4.68,5.71,13.76,1.47,3,8.26,1.43,7.22-4.28,2.83-9.85,14.57-15,13.84-4.79-.46,6.39,1,7.94,4,10.57,2.79,1.57,5.62,4.45,6.3,6.1C82.81,26,87.55,33.6,83.25,38c-2.75,2.83-1,4.82.37,6.94C86,48.6,84.71,55.14,80.66,54.38Z"/><path class="cls-3" d="M20.93,1.8s-3.67-2-9,8.16c-1.13,2.16-1.54,6-.7,4.92,1.77-2.24,3,1.07,4-2.29.28-.92-.05-2.49,1.87-4.55A66.31,66.31,0,0,0,20.93,1.8Z"/><path class="cls-3" d="M42.49,1.7c-1.08,0-4.23.17-7.59,8.11-.6,1.43-1.55,5.39.5,3.25.82-.85,3.63,0,3.63,0,.27-.93.8-4.66,3-7.12.46-.51,1-3.14,2.13-3.41C46.07,2.13,43.89,1.64,42.49,1.7Z"/><path class="cls-3" d="M68.37,1.21S62.2.82,58.3,9.82c-.61,1.43.52,5.25,2.11,2.75.71-1.13,3.84.49,3.84.49.87-3.4.24-5.22.66-6.58C65.59,4.26,68.37,1.21,68.37,1.21Z"/><path class="cls-4" d="M23.53,7.52c-.27,3.08-1.35,8.31-3.1,8.16S14.56,11.21,17.75,7c2-2.6,2.61-5.64,3.65-5.3C23.1,2.26,23.8,4.44,23.53,7.52Z"/><path class="cls-5" d="M19.67,8.66c.76-2,.81-3.83,1.33-4.09.73-.37,1.39-1.39.79,4-.26,2.31-1,4.41-1.52,4.36S19,10.51,19.67,8.66Z"/><path class="cls-4" d="M47.18,7.7c-.26,3-1.27,8.06-2.88,7.92s-5.66-1.68-3-7.94c1.35-3.17,3-5.92,4-5.6C46.81,2.6,47.44,4.71,47.18,7.7Z"/><path class="cls-5" d="M43.74,8c.63-2.12.83-4,1.43-4s.93,1.72.75,4a10.72,10.72,0,0,1-1.46,4.15C43.5,14.46,42.45,12.38,43.74,8Z"/><path class="cls-4" d="M71.59,6.73c-.25,3.13-1.49,7.92-3.21,7.79s-4.73,1.12-4-5.95c.32-3.29,4.11-8,5.13-7.7C71.15,1.41,71.85,3.61,71.59,6.73Z"/><path class="cls-5" d="M67.56,7C68.3,4.75,68,3,69.28,3c.73,0,1.12,1.9.93,4.25A7.5,7.5,0,0,1,68.6,11.5C67.33,13.24,65.79,12.17,67.56,7Z"/><ellipse class="cls-6" cx="12.78" cy="21.06" rx="0.78" ry="1.5" transform="translate(-8.83 32.87) rotate(-87.39)"/><ellipse class="cls-6" cx="34.56" cy="19.88" rx="0.85" ry="1.1" transform="translate(6.79 48.49) rotate(-75.76)"/><ellipse class="cls-6" cx="20.58" cy="25.57" rx="0.85" ry="1.1" transform="translate(-9.26 39.22) rotate(-75.76)"/><ellipse class="cls-6" cx="34.4" cy="28.37" rx="1.38" ry="0.71"/><ellipse class="cls-6" cx="46.4" cy="28.37" rx="1.38" ry="0.71"/><ellipse class="cls-6" cx="48.85" cy="21.7" rx="1.36" ry="0.7" transform="translate(-4.41 17.14) rotate(-19.05)"/><ellipse class="cls-6" cx="60.72" cy="26.77" rx="0.78" ry="1.5" transform="matrix(0.18, -0.98, 0.98, 0.18, 23.2, 81.5)"/><ellipse class="cls-6" cx="67.69" cy="20.06" rx="0.78" ry="1.5" transform="matrix(0.18, -0.98, 0.98, 0.18, 35.48, 82.88)"/><ellipse class="cls-6" cx="74.33" cy="47.86" rx="0.7" ry="1.36" transform="translate(8.25 106.59) rotate(-74.41)"/><ellipse class="cls-6" cx="57.93" cy="52.56" rx="0.7" ry="1.16" transform="translate(-4.42 99.79) rotate(-79.36)"/><ellipse class="cls-6" cx="34.36" cy="54.56" rx="1.5" ry="0.78" transform="translate(-9.47 7.27) rotate(-10.62)"/><ellipse class="cls-6" cx="9.43" cy="53.11" rx="0.78" ry="1.5" transform="translate(-44.39 56.76) rotate(-83.82)"/><ellipse class="cls-6" cx="4.36" cy="43.89" rx="0.72" ry="1.12" transform="translate(-39.74 43.5) rotate(-83.82)"/><ellipse class="cls-6" cx="42.72" cy="47.33" rx="1.1" ry="0.85" transform="translate(-10.02 11.5) rotate(-13.74)"/><path class="cls-7" d="M71.23,22.7c-1,2.94-7.74,18.78-1.67,24.69S54.49,46,61,34.19,71.75,21.07,71.23,22.7Z"/><path class="cls-7" d="M43.57,22.77c-2.84,4.49-7.14,20.72-2.31,26.63s-12.55-1.26-6.63-13.23S45.73,19.37,43.57,22.77Z"/><path class="cls-7" d="M57.79,21.31c1.29,2.34-6,18.92-2.69,24.71s-9.78,5.44-8.71-4.44S57.79,21.31,57.79,21.31Z"/><path class="cls-7" d="M32.39,21.86c-2,2-8.24,18.4-4.14,24.51s-9.67,1.36-6.09-13.22C23.94,25.86,33.39,20.84,32.39,21.86Z"/><path class="cls-7" d="M19.66,21.78c-.51,1-9.29,11.43-1.2,28.83C20,53.88,4.67,44.9,8.16,32.1,10.13,24.86,21.43,18.35,19.66,21.78Z"/><path class="cls-1" d="M17.5,68.53c-.51-1-.31-6.9-.76-8.9-1.22-5.5,2.78-6.5,3.76-6.86l4,.41c2.91.73-1.49,6.65-2.11,9.41a45.38,45.38,0,0,1-2.68,6.27C19.55,69.3,18.11,69.69,17.5,68.53Z"/><path class="cls-1" d="M50.65,69,52,56.37a2.91,2.91,0,0,0-2.69-1.67l-4.79,0c-2.39.94.23,6.19,1.07,7.25,1.52,1.9,1.65,6.26,3.43,7.06C49.9,69.47,50.59,69.43,50.65,69Z"/><path class="cls-1" d="M77.63,68.09l-4-13.88c-.08-.26-1.86-2.86-3.47-2.3l-2.56,2c-1.87,1.76-.07,3.15,5.31,9.84l0,.07,3.11,4.56C76.36,68.75,77.77,68.61,77.63,68.09Z"/><path class="cls-8" d="M84.78,50.24c-3.75,2.5-9.1-2.8-10.54-15.88-.35-3.17-1-15.55,0-16.21,2.49-1.71,10.25,2.16,12.87,11.24C89.79,38.73,87.8,48.22,84.78,50.24Z"/><path d="M84.8,50.28a3.38,3.38,0,0,1-2.37.59,4.73,4.73,0,0,1-2.27-1A12.08,12.08,0,0,1,77,46a28.07,28.07,0,0,1-2.94-9.47c-.12-.82-.21-1.64-.29-2.47s-.09-1.65-.11-2.47l-.09-4.94,0-2.46c0-.82,0-1.65,0-2.47s0-1.65.1-2.48q0-.32.09-.63a1.17,1.17,0,0,1,.35-.71,2.78,2.78,0,0,1,1.28-.45A8.06,8.06,0,0,1,80.23,19,15.41,15.41,0,0,1,84,22.3a18.63,18.63,0,0,1,2.66,4.29,24.11,24.11,0,0,1,1.48,4.79,29.61,29.61,0,0,1,.4,9.93,24.2,24.2,0,0,1-1.12,4.83,13.54,13.54,0,0,1-1,2.27A5.43,5.43,0,0,1,84.8,50.28Zm0-.08a7.68,7.68,0,0,0,2.42-4.13,22.43,22.43,0,0,0,.77-4.82,37.55,37.55,0,0,0-.08-4.86,40.72,40.72,0,0,0-.73-4.79,20.83,20.83,0,0,0-3.89-8.69,15.84,15.84,0,0,0-3.47-3.27,7.94,7.94,0,0,0-4.34-1.58,2.29,2.29,0,0,0-1,.3,1.09,1.09,0,0,0-.16.39,5,5,0,0,0-.12.58,21.52,21.52,0,0,0-.2,2.43c-.06,1.63,0,3.28.06,4.91.18,3.28.5,6.55,1,9.76a38.13,38.13,0,0,0,2.57,9.35,11.37,11.37,0,0,0,2.77,3.93,4.51,4.51,0,0,0,2.15,1A3.32,3.32,0,0,0,84.75,50.2Z"/><path class="cls-4" d="M97.57,28.94s-6.9,1.7-8.95,2.37c-7.86,2.56-11.41-1.36-15.7.5a3.74,3.74,0,0,0-.51,5.74c3.68,4.38,16.41-1.45,18.32-2.93C93.29,32.64,104.88,28.6,97.57,28.94Z"/><path class="cls-7" d="M102.87,37.34c-2.19,1.46-3.28,2.59-7,6-2.23,2.08-6.53,3.2-10.92,2.87-2.51-.19-8.52,2.16-3.93,6.89,3.16,3.27,8.73-.08,13.19-4.05C99.52,44.36,105.49,35.6,102.87,37.34Z"/><path class="cls-7" d="M98.79,25.52c1.53,2.52-6.1-2-11.93-3.14-3-.59-3.29,1.24-8.09,1.26-3.7,0-5-2.16-5.53-5.06-.75-4.17,7.22-2.52,12.9-.51C92.9,20.46,95,19.29,98.79,25.52Z"/></g></svg>