<?xml version="1.0" encoding="utf-8"?>
<!-- Generator: Adobe Illustrator 24.0.2, SVG Export Plug-In . SVG Version: 6.00 Build 0)  -->
<svg version="1.1" id="Layer_1" xmlns="http://www.w3.org/2000/svg" xmlns:xlink="http://www.w3.org/1999/xlink" x="0px" y="0px"
	 width="100px" height="100px" viewBox="0 0 100 100" style="enable-background:new 0 0 100 100;" xml:space="preserve">
<style type="text/css">
	.st0{fill-rule:evenodd;clip-rule:evenodd;fill:#4D4D4D;stroke:#000000;stroke-miterlimit:10;}
	.st1{fill-rule:evenodd;clip-rule:evenodd;fill:#688761;stroke:#000000;stroke-width:0.75;stroke-miterlimit:10;}
	.st2{fill-rule:evenodd;clip-rule:evenodd;fill:url(#SVGID_1_);}
	.st3{fill-rule:evenodd;clip-rule:evenodd;fill:#FFE100;stroke:#000000;stroke-width:0.5;stroke-miterlimit:10;}
	.st4{fill-rule:evenodd;clip-rule:evenodd;fill:none;stroke:#FF7C4D;stroke-miterlimit:10;}
	.st5{clip-path:url(#SVGID_3_);}
	.st6{fill:#1A2917;}
	.st7{fill-rule:evenodd;clip-rule:evenodd;fill:#FC0000;}
	.st8{fill-rule:evenodd;clip-rule:evenodd;fill:#4D4D4D;stroke:#000000;stroke-width:0.75;stroke-miterlimit:10;}
	.st9{fill-rule:evenodd;clip-rule:evenodd;fill:#CCCCCC;stroke:#000000;stroke-width:0.75;stroke-miterlimit:10;}
	.st10{fill-rule:evenodd;clip-rule:evenodd;fill:#999999;stroke:#000000;stroke-width:0.75;stroke-miterlimit:10;}
	.st11{fill-rule:evenodd;clip-rule:evenodd;fill:#666666;stroke:#000000;stroke-width:0.75;stroke-miterlimit:10;}
	.st12{fill-rule:evenodd;clip-rule:evenodd;}
</style>
<path class="st0" d="M67.4,60.5h3.2c1.1,0,1.9-0.9,1.9-1.9V43.4c0-1.1-0.9-1.9-1.9-1.9h-3.2c-1.1,0-1.9,0.9-1.9,1.9v15.2
	C65.5,59.6,66.4,60.5,67.4,60.5z"/>
<path class="st1" d="M64.4,67.4H34.6c-2.3,0-4.1-1.8-4.1-4.1V37.7c0-2.3,1.8-4.1,4.1-4.1h29.9c2.3,0,4.1,1.8,4.1,4.1v25.7
	C68.5,65.6,66.7,67.4,64.4,67.4z"/>
<radialGradient id="SVGID_1_" cx="49.75" cy="50.5" r="11.25" gradientUnits="userSpaceOnUse">
	<stop  offset="2.237672e-07" style="stop-color:#FFE100"/>
	<stop  offset="1" style="stop-color:#E5FF00;stop-opacity:0"/>
</radialGradient>
<circle class="st2" cx="49.8" cy="50.5" r="11.3"/>
<circle class="st3" cx="49.5" cy="50.5" r="9"/>
<g>
	<defs>
		<path id="SVGID_2_" d="M65.9,67H35.1c-2.3,0-4.1-1.8-4.1-4.1V38.1c0-2.3,1.8-4.1,4.1-4.1h30.9c2.3,0,4.1,1.8,4.1,4.1v24.9
			C70,65.2,68.2,67,65.9,67z"/>
	</defs>
	<clipPath id="SVGID_3_">
		<use xlink:href="#SVGID_2_"  style="overflow:visible;"/>
	</clipPath>
	<g class="st5">
		<polygon class="st6" points="31.4,33.6 30.6,34.4 37.5,41.2 37.5,67.4 38.5,67.4 38.5,40.8 		"/>
		<polygon class="st6" points="27.4,36.6 34,43.2 34,69 37,69 37,42 29.6,34.5 		"/>
	</g>
</g>
<polygon class="st7" points="54,66 57,66 58.2,62 55,62 "/>
<polygon class="st7" points="58,66 61,66 62.2,62 59,62 "/>
<polygon class="st7" points="62,66 65,66 66.2,62 63,62 "/>
<path class="st8" d="M92.4,60.5L92.4,60.5c1.1,0,1.9-0.9,1.9-1.9V43.4c0-1.1-0.9-1.9-1.9-1.9l0,0c-1.1,0-1.9,0.9-1.9,1.9v15.2
	C90.5,59.6,91.4,60.5,92.4,60.5z"/>
<rect x="72.5" y="47.5" class="st9" width="18" height="7"/>
<rect x="72.5" y="43.5" class="st10" width="18" height="4"/>
<rect x="72.5" y="54.5" class="st11" width="18" height="4"/>
<rect x="94" y="48" class="st12" width="4" height="6"/>
<rect x="94" y="44" class="st12" width="3" height="3"/>
<rect x="94" y="55" class="st12" width="2" height="3"/>
</svg>
