<?xml version="1.0" encoding="utf-8"?>
<!-- Generator: Adobe Illustrator 24.0.2, SVG Export Plug-In . SVG Version: 6.00 Build 0)  -->
<svg version="1.1" id="Layer_1" xmlns="http://www.w3.org/2000/svg" xmlns:xlink="http://www.w3.org/1999/xlink" x="0px" y="0px"
	 width="50px" height="50px" viewBox="0 0 50 50" style="enable-background:new 0 0 50 50;" xml:space="preserve">
<style type="text/css">
	.st0{fill:#006837;}
	.st1{fill:#FF0000;}
	.st2{fill:#FF766A;}
	.st3{fill:#F7931E;}
</style>
<g>
	<path class="st0" d="M7.3,33.8v-7.1c0-1.9,1.5-3.4,3.4-3.4h28.7c1.9,0,3.4,1.5,3.4,3.4v7.1H7.3z"/>
	<path d="M39.4,23.5c1.7,0,3.1,1.4,3.1,3.1v6.9h-35v-6.9c0-1.7,1.4-3.1,3.1-3.1H39.4 M39.4,23H10.6c-2,0-3.6,1.6-3.6,3.6V34h36v-7.4
		C43,24.6,41.4,23,39.4,23L39.4,23z"/>
</g>
<g>
	<path class="st0" d="M13.8,25.8c-0.8,0-1.5-0.7-1.5-1.5v-3h25.5v3c0,0.8-0.7,1.5-1.5,1.5H13.8z"/>
	<path d="M37.5,21.5v2.7c0,0.7-0.6,1.3-1.3,1.3H13.8c-0.7,0-1.3-0.6-1.3-1.3v-2.7H37.5 M38,21H12v3.2c0,1,0.8,1.8,1.8,1.8h22.4
		c1,0,1.8-0.8,1.8-1.8V21L38,21z"/>
</g>
<g>
	<path class="st1" d="M20,21h9v-2.8c0-0.7-0.5-1.2-1.2-1.2h-6.6c-0.7,0-1.2,0.5-1.2,1.2V21z"/>
</g>
<rect x="27" y="18" class="st2" width="1" height="3"/>
<rect x="35" y="32" class="st3" width="1" height="1"/>
<rect x="37" y="32" class="st3" width="1" height="1"/>
<rect x="39" y="32" class="st3" width="1" height="1"/>
</svg>
