<svg id="Слой_1" data-name="Слой 1" xmlns="http://www.w3.org/2000/svg" xmlns:xlink="http://www.w3.org/1999/xlink" viewBox="0 0 100 70"><defs><style>.cls-1{stroke-linejoin:round;fill:url(#Безымянный_градиент_64);stroke:url(#Безымянный_градиент_92);}.cls-2{opacity:0.5;fill:url(#Безымянный_градиент_113);}</style><radialGradient id="Безымянный_градиент_64" cx="49.89" cy="36.23" fy="82.4636493633472" r="47.58" gradientTransform="matrix(0.99, 0.01, 0, 0.7, 0.82, 10.23)" gradientUnits="userSpaceOnUse"><stop offset="0" stop-color="#98312b"/><stop offset="0.03" stop-color="#9a352a"/><stop offset="0.07" stop-color="#a04229"/><stop offset="0.11" stop-color="#ab5826"/><stop offset="0.15" stop-color="#ba7622"/><stop offset="0.19" stop-color="#cc9d1e"/><stop offset="0.23" stop-color="#e3cc18"/><stop offset="0.26" stop-color="#f9f912"/><stop offset="0.28" stop-color="#f4e511"/><stop offset="0.3" stop-color="#e6b10d"/><stop offset="0.34" stop-color="#cf5d07"/><stop offset="0.38" stop-color="#b60000"/><stop offset="0.42" stop-color="#bf2002"/><stop offset="0.51" stop-color="#d36c08"/><stop offset="0.59" stop-color="#e3a90c"/><stop offset="0.66" stop-color="#efd40f"/><stop offset="0.72" stop-color="#f6ef11"/><stop offset="0.75" stop-color="#f9f912"/><stop offset="1" stop-color="#fff" stop-opacity="0.1"/></radialGradient><linearGradient id="Безымянный_градиент_92" x1="50.23" y1="68.6" x2="50.23" y2="3.34" gradientUnits="userSpaceOnUse"><stop offset="0" stop-color="#b60000" stop-opacity="0.2"/><stop offset="0.05" stop-color="#b20904" stop-opacity="0.3"/><stop offset="0.15" stop-color="#a92110" stop-opacity="0.55"/><stop offset="0.29" stop-color="#9a4822" stop-opacity="0.96"/><stop offset="0.3" stop-color="#984c24"/><stop offset="0.35" stop-color="#a35f22"/><stop offset="0.45" stop-color="#be901d"/><stop offset="0.58" stop-color="#eadf15"/><stop offset="0.62" stop-color="#f9f912"/><stop offset="0.77" stop-color="#f9f712" stop-opacity="0.99"/><stop offset="0.82" stop-color="#f8f012" stop-opacity="0.97"/><stop offset="0.85" stop-color="#f8e512" stop-opacity="0.93"/><stop offset="0.88" stop-color="#f7d411" stop-opacity="0.86"/><stop offset="0.91" stop-color="#f5be11" stop-opacity="0.79"/><stop offset="0.93" stop-color="#f3a210" stop-opacity="0.69"/><stop offset="0.95" stop-color="#f18210" stop-opacity="0.57"/><stop offset="0.97" stop-color="#ef5c0f" stop-opacity="0.43"/><stop offset="0.98" stop-color="#ec320e" stop-opacity="0.28"/><stop offset="1" stop-color="#e9050d" stop-opacity="0.12"/><stop offset="1" stop-color="#e9000d" stop-opacity="0.1"/></linearGradient><radialGradient id="Безымянный_градиент_113" cx="45.08" cy="54.57" fy="95.40256904084535" r="49.6" gradientTransform="matrix(1, 0, 0, 0.73, 5.05, -3.35)" gradientUnits="userSpaceOnUse"><stop offset="0" stop-color="#98312b" stop-opacity="0.5"/><stop offset="0.02" stop-color="#9a352b" stop-opacity="0.51"/><stop offset="0.05" stop-color="#9f4029" stop-opacity="0.54"/><stop offset="0.08" stop-color="#a95427" stop-opacity="0.59"/><stop offset="0.11" stop-color="#b66f23" stop-opacity="0.65"/><stop offset="0.13" stop-color="#c7911f" stop-opacity="0.74"/><stop offset="0.16" stop-color="#dbbc1a" stop-opacity="0.85"/><stop offset="0.19" stop-color="#f3ed14" stop-opacity="0.97"/><stop offset="0.2" stop-color="#f9f912"/><stop offset="0.25" stop-color="#ebc30e" stop-opacity="0.89"/><stop offset="0.32" stop-color="#d87f09" stop-opacity="0.75"/><stop offset="0.39" stop-color="#c94805" stop-opacity="0.64"/><stop offset="0.45" stop-color="#bf2102" stop-opacity="0.57"/><stop offset="0.49" stop-color="#b80901" stop-opacity="0.52"/><stop offset="0.52" stop-color="#b60000" stop-opacity="0.5"/><stop offset="0.55" stop-color="#b90a01" stop-opacity="0.52"/><stop offset="0.6" stop-color="#c02503" stop-opacity="0.57"/><stop offset="0.67" stop-color="#cc5006" stop-opacity="0.66"/><stop offset="0.75" stop-color="#dc8d0a" stop-opacity="0.78"/><stop offset="0.84" stop-color="#f0d910" stop-opacity="0.94"/><stop offset="0.87" stop-color="#f9f912"/><stop offset="0.88" stop-color="#f9f918" stop-opacity="0.98"/><stop offset="0.9" stop-color="#fafa27" stop-opacity="0.91"/><stop offset="0.92" stop-color="#fafa41" stop-opacity="0.8"/><stop offset="0.94" stop-color="#fbfb66" stop-opacity="0.65"/><stop offset="0.96" stop-color="#fcfc95" stop-opacity="0.45"/><stop offset="0.98" stop-color="#fefecd" stop-opacity="0.21"/><stop offset="1" stop-color="#fff" stop-opacity="0"/></radialGradient></defs><title>пламя 100-70</title><path class="cls-1" d="M10.45,56l11.4-1.19a1.56,1.56,0,0,0,.86-2.72L3.85,35.77A.13.13,0,0,1,4,35.55l22,7.74a1.91,1.91,0,0,0,2.36-2.61L18,18.63a.19.19,0,0,1,.31-.22L35.87,37.54a1,1,0,0,0,1.8-.7V4a.13.13,0,0,1,.25,0l9.54,31a.61.61,0,0,0,1.16,0L56.38,6.23a.11.11,0,0,1,.22,0v26.9a.77.77,0,0,0,1.37.48l11.74-14.7a.44.44,0,0,1,.75.46l-9,19.89a.84.84,0,0,0,1.35,1L87.91,16.37a.24.24,0,0,1,.36.31L69.42,44a.92.92,0,0,0,1.1,1.38l14.73-6a.21.21,0,0,1,.2.37c-4.84,3.25-17.25,11.47-17,12.38.38,1.17,18.89-6,27.71-9a.35.35,0,0,1,.26.65l-20.66,12a1,1,0,0,0,.57,1.9l11.41-.62a.5.5,0,0,1,.21,1L49,67.86a5.34,5.34,0,0,1-3.44-.09L10.42,56.23A.1.1,0,0,1,10.45,56Z"/><path class="cls-2" d="M-.21,32.45C-.91,12.07,7-5,50.23-4.48,96.3-4,100.62,12.05,100.67,32.45,100.73,59.28,85.87,70.8,50.23,70,19.89,69.32,1,68.1-.21,32.45Z"/></svg>