<?xml version="1.0" encoding="utf-8"?>
<!-- Generator: Adobe Illustrator 24.0.2, SVG Export Plug-In . SVG Version: 6.00 Build 0)  -->
<svg version="1.1" id="Layer_1" xmlns="http://www.w3.org/2000/svg" xmlns:xlink="http://www.w3.org/1999/xlink" x="0px" y="0px"
	 width="250px" height="250px" viewBox="0 0 250 250" style="enable-background:new 0 0 250 250;" xml:space="preserve">
<style type="text/css">
	.st0{fill:#4D4D4D;stroke:#000000;stroke-miterlimit:10;}
	.st1{clip-path:url(#SVGID_2_);}
	.st2{fill:#FFFF00;}
	.st3{fill:url(#SVGID_3_);stroke:#000000;stroke-miterlimit:10;}
	.st4{fill:#C1272D;stroke:#000000;stroke-miterlimit:10;}
</style>
<rect x="106" y="67" class="st0" width="37" height="152.8"/>
<g>
	<defs>
		<rect id="SVGID_1_" x="106" y="67" width="37" height="152.8"/>
	</defs>
	<clipPath id="SVGID_2_">
		<use xlink:href="#SVGID_1_"  style="overflow:visible;"/>
	</clipPath>
	<g class="st1">
		<rect x="105.5" y="190.5" class="st2" width="38" height="12"/>
		<rect x="106" y="206" class="st2" width="38" height="4"/>
	</g>
</g>
<linearGradient id="SVGID_3_" gradientUnits="userSpaceOnUse" x1="124" y1="221.9681" x2="124" y2="233.4191">
	<stop  offset="0" style="stop-color:#CCCCCC"/>
	<stop  offset="0.2" style="stop-color:#7E7E7E"/>
	<stop  offset="0.35" style="stop-color:#B3B3B3"/>
	<stop  offset="0.5" style="stop-color:#808080"/>
	<stop  offset="0.65" style="stop-color:#B3B3B3"/>
	<stop  offset="0.8" style="stop-color:#808080"/>
	<stop  offset="1" style="stop-color:#B3B3B3"/>
</linearGradient>
<polygon class="st3" points="143,234.5 105,234.5 109,220.5 139,220.5 "/>
<path class="st4" d="M120.3,19L106,67h37l-14.3-48C127.4,14.9,121.6,14.9,120.3,19z"/>
<g>
	<path class="st2" d="M140,86.1c0,8.5-6.8,15.2-15.4,15.2c-8.3,0-15.1-6.9-15.1-15.3c0-8.4,6.9-15.1,15.4-15.1
		C133.2,70.9,140,77.7,140,86.1z M124.8,100.7c8.1,0,14.7-6.6,14.7-14.7c0-8.1-6.6-14.6-14.8-14.6c-8,0-14.5,6.7-14.5,14.7
		C110.1,94.2,116.7,100.8,124.8,100.7z"/>
	<path class="st2" d="M131.6,75.1c-1.7,2.6-3.3,5.2-4.9,7.6c-0.7-0.1-1.3-0.4-1.9-0.4c-0.6,0-1.2,0.2-1.9,0.4
		c-1.6-2.5-3.2-5-4.9-7.6C121.7,72.4,127.3,72.2,131.6,75.1z"/>
	<path class="st2" d="M128.3,85.9c3.1-0.1,6.1-0.3,9.2-0.4c0.5,4.9-2.4,9.9-6.8,11.8c-1.4-2.7-2.8-5.4-4.2-8.2
		C127.6,88.4,128.3,87.4,128.3,85.9z"/>
	<path class="st2" d="M121.3,85.9c0,1.4,0.6,2.5,1.9,3.2c-1.4,2.7-2.8,5.5-4.2,8.2c-4.2-1.8-7.3-6.7-6.9-11.8
		C115.1,85.7,118.2,85.8,121.3,85.9z"/>
	<path class="st2" d="M124.8,84c1.1,0,2.1,0.9,2.1,2.1c0,1.2-0.9,2.1-2.1,2.1c-1.1,0-2.1-0.9-2.1-2.1C122.7,84.9,123.6,84,124.8,84z
		"/>
</g>
</svg>
