<svg xmlns="http://www.w3.org/2000/svg" xmlns:xlink="http://www.w3.org/1999/xlink" viewBox="0 0 130 100"><defs><style>.cls-1,.cls-11,.cls-12,.cls-13,.cls-14,.cls-15,.cls-16,.cls-17,.cls-18,.cls-2,.cls-3,.cls-4,.cls-5,.cls-6,.cls-7,.cls-8{stroke:#000;}.cls-1,.cls-10,.cls-11,.cls-12,.cls-13,.cls-14,.cls-15,.cls-16,.cls-17,.cls-18,.cls-2,.cls-3,.cls-4,.cls-5,.cls-6,.cls-7,.cls-8,.cls-9{stroke-miterlimit:10;}.cls-1{fill:url(#Безымянный_градиент_18);}.cls-2{fill:url(#Безымянный_градиент_18-2);}.cls-3{fill:url(#Безымянный_градиент_19);}.cls-4{fill:url(#Безымянный_градиент_19-2);}.cls-5{fill:url(#Безымянный_градиент_170);}.cls-6{fill:url(#Безымянный_градиент_20);}.cls-7{fill:#31c8c5;}.cls-8{fill:#984c24;}.cls-9{stroke:#f9f912;}.cls-10{stroke:#31c8c5;}.cls-11{fill:url(#Безымянный_градиент_20-2);}.cls-12{fill:url(#Безымянный_градиент_25);}.cls-13{fill:url(#Безымянный_градиент_25-2);}.cls-14{fill:url(#Безымянный_градиент_25-3);}.cls-15{fill:url(#Безымянный_градиент_25-4);}.cls-16{fill:url(#Безымянный_градиент_25-5);}.cls-17{fill:url(#Безымянный_градиент_18-3);}.cls-18{fill:url(#Безымянный_градиент_18-4);}</style><linearGradient id="Безымянный_градиент_18" x1="34.87" y1="54.68" x2="63.83" y2="54.68" gradientTransform="translate(8.4 8.12) rotate(7.45)" gradientUnits="userSpaceOnUse"><stop offset="0" stop-color="#984c24"/><stop offset="0.18" stop-color="#944a23"/><stop offset="0.34" stop-color="#894521"/><stop offset="0.49" stop-color="#773b1c"/><stop offset="0.64" stop-color="#5d2e16"/><stop offset="0.79" stop-color="#3b1e0e"/><stop offset="0.94" stop-color="#120904"/><stop offset="0.99"/></linearGradient><linearGradient id="Безымянный_градиент_18-2" x1="25.67" y1="128.35" x2="34.79" y2="128.35" gradientTransform="translate(-41.16 -24.62) rotate(-25)" xlink:href="#Безымянный_градиент_18"/><linearGradient id="Безымянный_градиент_19" x1="-16.62" y1="193.69" x2="-22" y2="166.41" gradientTransform="matrix(0.77, 0.24, -0.3, 0.9, 126.53, -137.05)" gradientUnits="userSpaceOnUse"><stop offset="0" stop-color="#984c24"/><stop offset="0.37" stop-color="#964b24"/><stop offset="0.52" stop-color="#8f4722"/><stop offset="0.63" stop-color="#83411f"/><stop offset="0.73" stop-color="#71381b"/><stop offset="0.81" stop-color="#5a2d15"/><stop offset="0.88" stop-color="#3e1f0f"/><stop offset="0.95" stop-color="#1d0f07"/><stop offset="0.99"/></linearGradient><linearGradient id="Безымянный_градиент_19-2" x1="76.64" y1="131.27" x2="70.75" y2="101.42" gradientTransform="matrix(0.96, 0.22, -0.27, 1.11, 27.32, -124.75)" xlink:href="#Безымянный_градиент_19"/><linearGradient id="Безымянный_градиент_170" x1="10.3" y1="27.46" x2="124.25" y2="67.63" gradientUnits="userSpaceOnUse"><stop offset="0"/><stop offset="0.03" stop-color="#060606"/><stop offset="0.08" stop-color="#171717"/><stop offset="0.13" stop-color="#333"/><stop offset="0.19" stop-color="#595959"/><stop offset="0.24" stop-color="gray"/><stop offset="0.42" stop-color="#323232"/><stop offset="0.54"/><stop offset="0.73" stop-color="#5b5b5b"/><stop offset="0.8" stop-color="gray"/><stop offset="0.87" stop-color="#585858"/><stop offset="0.99"/></linearGradient><linearGradient id="Безымянный_градиент_20" x1="98.47" y1="86.52" x2="98.47" y2="62.99" gradientUnits="userSpaceOnUse"><stop offset="0" stop-color="#984c24"/><stop offset="0.31" stop-color="#964b23"/><stop offset="0.46" stop-color="#8e4722"/><stop offset="0.59" stop-color="#81401e"/><stop offset="0.69" stop-color="#6e371a"/><stop offset="0.79" stop-color="#552a14"/><stop offset="0.88" stop-color="#371b0d"/><stop offset="0.96" stop-color="#130a05"/><stop offset="0.99"/></linearGradient><linearGradient id="Безымянный_градиент_20-2" x1="114.55" y1="127.3" x2="114.55" y2="88.91" gradientTransform="translate(-10.21 -14.58) rotate(-6.75)" xlink:href="#Безымянный_градиент_20"/><linearGradient id="Безымянный_градиент_25" x1="6.42" y1="46.17" x2="35.46" y2="46.17" gradientUnits="userSpaceOnUse"><stop offset="0" stop-color="#984c24"/><stop offset="0.15" stop-color="#944a23"/><stop offset="0.31" stop-color="#874320"/><stop offset="0.48" stop-color="#71391b"/><stop offset="0.65" stop-color="#532914"/><stop offset="0.83" stop-color="#2d160b"/><stop offset="0.99"/></linearGradient><linearGradient id="Безымянный_градиент_25-2" x1="3.92" y1="76.69" x2="3.92" y2="67.58" gradientTransform="translate(-6.22 -29.72) rotate(-7.59)" xlink:href="#Безымянный_градиент_25"/><linearGradient id="Безымянный_градиент_25-3" x1="18.49" y1="75.4" x2="18.49" y2="62.26" gradientTransform="translate(-6.22 -29.72) rotate(-7.59)" xlink:href="#Безымянный_градиент_25"/><linearGradient id="Безымянный_градиент_25-4" x1="11.11" y1="76.11" x2="11.11" y2="63.93" gradientTransform="translate(-6.22 -29.72) rotate(-7.59)" xlink:href="#Безымянный_градиент_25"/><linearGradient id="Безымянный_градиент_25-5" x1="24.98" y1="72.62" x2="24.98" y2="62.37" gradientTransform="translate(-6.22 -29.72) rotate(-7.59)" xlink:href="#Безымянный_градиент_25"/><linearGradient id="Безымянный_градиент_18-3" x1="25.14" y1="60.79" x2="53.31" y2="60.79" gradientTransform="translate(5.29 5.66) rotate(4.56)" xlink:href="#Безымянный_градиент_18"/><linearGradient id="Безымянный_градиент_18-4" x1="9.35" y1="54.78" x2="19.18" y2="54.78" gradientTransform="translate(19.27 23.51) rotate(15.28)" xlink:href="#Безымянный_градиент_18"/></defs><title>атака 2</title><g id="Слой_7" data-name="Слой 7"><path class="cls-1" d="M62.92,69.53s-22.07-7.44-26.56-6.26a15.5,15.5,0,0,1,1.34,5.28c10-1,25.95,7.86,26.44,5.53A6.14,6.14,0,0,0,62.92,69.53Z"/><path class="cls-2" d="M35,64.17c-.45,2.9,1.69,14.18,6.71,27.81,1.15,3.12,1.57,4,3.12,4,3,.17-2.88-7.86.17-7.8,1.71,0-6.72-22.38-6.56-22.31.09-1.83-.18-4.27-2.16-4.28A18.23,18.23,0,0,0,35,64.17Z"/><path class="cls-3" d="M30.7,7.53s-7-5.09,12.43.55c19,5.51,38.93,19.27,40.11,22.39,2.43,6.36-.86,6.16-4,3.58-4.63-3.78-7.6-9-6.32-6.45s-1.31,3.53-6.61-2.79c-4.16-5-6.83-7.17-6.11-4.37.83,3.28-5.28-1.74-8-5.8-2.1-3.14-9.24,1.49-13-4.27C36.28,5.91,32,10.76,30.7,7.53Z"/><path class="cls-4" d="M34,5.57S25,.17,49.11,5c23.62,4.72,49.2,22.16,51,25.77,3.63,7.37-.37,7.46-4.46,4.69-6-4.08-11.39-15-10.94-11.35s1,5.8-6.05-1.24c-5.57-5.53-7.94-8.44-6.77-5.16,1.37,3.84-6.32-1.09-10-5.68-2.89-3.54-12,2.62-17.21-3.89C40.59,3.08,35.9,9.3,34,5.57Z"/><path class="cls-5" d="M118.12,83c1.25-21-1.77-32.73-13.88-36.47S87.49,45.47,83,43.3c-4.88-2.37-5.9-6-13.24-4.51-8.11,1.6-8.46,2.06-11.28-.75-8.82-8.83-8.51-4-14.09-7.78-5.31-3.62-.8-3.62-5.17-10.38-6-10.06,4.94-6.95,7.19-8.31C51.84,8.28,45,.05,40.75,2.35c-7.51,4.1-6.46,1.16-8.54-.29C27.21-1.45,19.26,5,21.68,7.5c6.07,6.41-13-.18-7.54,12.34,1.85,4.22,8.27.66,10.12-.83s3.61-4.37,3.94-1.66c.27,2.31-3.6,4.77,3.28,13.87.23.3,3.32,12.58,5.86,17.3,1.69,3.15,4.37,4.32,7,8.69,3.14,5.14,2.32,13.7,5.28,19.42,3.57,6.87,12.54.25,14.66,3.32,2.62,3.78,3.8,5.34,13.15,7.06,4.44.82,6.81.45,13.78,2.67,11.76,3.76,22.75,6.17,31.67,3,6-2.1,2.54-2.62-.84-4.4C120,87.23,118,85.67,118.12,83Z"/><path class="cls-6" d="M109.65,65.18s-1.77-.91-1.29-2.1C106.15,61.57,95.72,81,94.53,80c-.84-.71-1.62-4.14-2.23-8.51-.54-3.81-5,1.79-5,1.79a11.59,11.59,0,0,0,1.08,4.84C89,79.26,90,76.36,90.06,77c0,.25,3.66,10.41,5.8,9.46C102.3,83.62,109.59,65.24,109.65,65.18Z"/><path class="cls-7" d="M58.7,42.67c-1.39,2.84-1.82,9.5-1.26,18.52.48,7.64,4.92,15.23,6.2,18,1.63,3.5,0-11.22-.18-11.71C60.62,57.91,58.06,50,61,45.35,65.53,37.92,59.58,40.87,58.7,42.67Z"/><path class="cls-7" d="M42.34,29.37c-2.64,1.6-3,12.78-2,17.85a25.7,25.7,0,0,0,4,10c1.77,2.59.06-10.89-.52-14.34-.88-5.35-1.17-5.82,1-9.19C47.16,30,43.39,28.73,42.34,29.37Z"/><path class="cls-7" d="M81.08,43.68c-3.24,2.5-6.07,10.4-5.92,18.76.16,8.94,3,20.93,4.8,24.13,2.35,4.08.48-15.09.27-15.66-4.08-11.14-2.52-14.7,1.59-19.73C86.6,45.35,84.94,40.71,81.08,43.68Z"/><path class="cls-7" d="M29.12,28s-1.91-7.12,2.41-9.7,6.53-3.71,6.62-6.41S37.66,1.65,35.75,4c-.64.79,1.71,6.84-1.92,9.72s-5.2,2.81-6.27,5.14C26.23,21.73,29.12,28,29.12,28Z"/><path class="cls-8" d="M45.46,11.63c1.17-.39,1.66-3.12.68-5.48C45.09,3.63,43.49,1,41,1.78A4.76,4.76,0,0,0,39.74,9.3C41.82,11.75,43.13,12.41,45.46,11.63Z"/><path class="cls-9" d="M44.13,5.56c.77,1.53,1.49,3.78-.18,4.16-.75.17-1.89-.69-2.66-2.21s-.81-3-.11-3.3A2.4,2.4,0,0,1,44.13,5.56Z"/><path class="cls-8" d="M31.91,12.88c-2.74,1.14-6.57-.74-7.62-3.8S23.1,3.18,25,2.53s4.3-2.66,7.29,2.59C33.89,7.92,35.22,11.5,31.91,12.88Z"/><path class="cls-9" d="M30.14,6.91C29,5.26,28.5,3.8,27.6,4c-1.65.28-1.36,2.23-.86,4.16S28.45,10.85,29.4,11C31.34,11.19,31.72,9.22,30.14,6.91Z"/><path class="cls-8" d="M15.71,12.1c1.51,0,5.15,1.57,5.31,3.68.17,2.34.92,4.69-2.24,5-1.49.17-4.27-.59-5.09-4.48C13.26,14.31,14.2,12.09,15.71,12.1Z"/><path class="cls-9" d="M18.8,15.26c1,1.06.94,3.07.46,3.56C18.09,20,16.75,18.45,16,17.25s-.69-2.57-.13-2.95S17.85,14.21,18.8,15.26Z"/><path class="cls-10" d="M38.36,42.57C38.63,35.1,37,28.37,34,26.94c-3.83-1.8-2.95,7.66-1.35,14.93a10.14,10.14,0,0,1,0,3c1.75-.29,3.5-.26,5.46-.48C38.07,44,38.35,42.93,38.36,42.57Z"/><path class="cls-11" d="M121.28,90.35C113.45,92.61,109.55,63,109.44,63c-1.83-.7-5.64-4.5-4.86,2,.33,5.69,7.94,31.21,17,32.91,1.7.32,6.68-1.64,6.68-1.64S126.54,88.84,121.28,90.35Z"/><path class="cls-12" d="M14.53,47c-1.73.2-12.25-1.69-6.32,3.24,5,4.19,10,3.89,13.2,3.54,21.35-2.35,12-15.44,12-15.44S28.59,45.34,14.53,47Z"/><path class="cls-10" d="M31,39.87c.68,7.9-19.64,10.77-22.51,9.85-3.38-1.09,4.79,7.16,10.08,6.47a32.33,32.33,0,0,0,14.11-5.43c7.52-5.63,6-7.54,4.71-11.75C35.55,39.7,31.32,34.79,31,39.87Z"/><path class="cls-13" d="M3,39.42c-.71,8.85,2.09,8.11,5.26,3.09s2.77-6,2.77-6S3.3,36.07,3,39.42Z"/><path class="cls-14" d="M25.44,29.49C19.89,35.83,24,47.9,18.18,40.32s.74-10.27.74-10.27S26.63,28.13,25.44,29.49Z"/><path class="cls-15" d="M17.43,32.46c-1.77,6-2.95,17.65-6.7,8.81-2.57-6.05.58-8.26.58-8.26S18,30.66,17.43,32.46Z"/><path class="cls-16" d="M28.35,38.44C29.53,31.91,35.73,27,26.28,29c-5.63,1.17-2.7,7.12-2.7,7.12S28,40.54,28.35,38.44Z"/><path class="cls-10" d="M31.94,26.6c-2.56.83-.55-4.75-10.42-1.67C9.69,28.63,4.26,35.72,1.73,39.49,0,42.06,10.19,40.54,14,37.84c6.58-4.67,17-3.66,18.71-5.66C33.57,31.18,33.13,26.21,31.94,26.6Z"/><path class="cls-17" d="M51.91,68.77s-21.75-4.59-26.17-3.2c.75,1.07.4,1.5.56,2.81,9.92-1.44,26.7,7.24,27.07,4.88A6.2,6.2,0,0,0,51.91,68.77Z"/><path class="cls-18" d="M24.26,65.41c-2.28,1.93-8.2,11.87-13.49,25.4-1.21,3.11-1.45,4-.33,5,2.18,2,3.06-7.79,5.35-5.84,1.28,1.1,9.84-21.27,9.92-21.11,1.29-1.34,2.72-3.37,1.22-4.62A18.63,18.63,0,0,0,24.26,65.41Z"/></g></svg>