<svg xmlns="http://www.w3.org/2000/svg" xmlns:xlink="http://www.w3.org/1999/xlink" viewBox="0 0 130 100"><defs><style>.cls-1,.cls-11,.cls-12,.cls-13,.cls-14,.cls-15,.cls-16,.cls-17,.cls-18,.cls-2,.cls-3,.cls-4,.cls-5,.cls-6,.cls-7,.cls-8{stroke:#000;}.cls-1,.cls-10,.cls-11,.cls-12,.cls-13,.cls-14,.cls-15,.cls-16,.cls-17,.cls-18,.cls-2,.cls-3,.cls-4,.cls-5,.cls-6,.cls-7,.cls-8,.cls-9{stroke-miterlimit:10;}.cls-1{fill:url(#Безымянный_градиент_18);}.cls-2{fill:url(#Безымянный_градиент_18-2);}.cls-3{fill:url(#Безымянный_градиент_19);}.cls-4{fill:url(#Безымянный_градиент_19-2);}.cls-5{fill:url(#Безымянный_градиент_170);}.cls-6{fill:url(#Безымянный_градиент_20);}.cls-7{fill:#31c8c5;}.cls-8{fill:#984c24;}.cls-9{fill:#3a0303;stroke:#f9f912;}.cls-10{stroke:#31c8c5;}.cls-11{fill:url(#Безымянный_градиент_20-2);}.cls-12{fill:url(#Безымянный_градиент_18-3);}.cls-13{fill:url(#Безымянный_градиент_18-4);}.cls-14{fill:url(#Безымянный_градиент_25);}.cls-15{fill:url(#Безымянный_градиент_25-2);}.cls-16{fill:url(#Безымянный_градиент_25-3);}.cls-17{fill:url(#Безымянный_градиент_25-4);}.cls-18{fill:url(#Безымянный_градиент_25-5);}</style><linearGradient id="Безымянный_градиент_18" x1="36.65" y1="36.81" x2="65.61" y2="36.81" gradientTransform="translate(7.27 25.61) rotate(7.45)" gradientUnits="userSpaceOnUse"><stop offset="0" stop-color="#984c24"/><stop offset="0.18" stop-color="#944a23"/><stop offset="0.34" stop-color="#894521"/><stop offset="0.49" stop-color="#773b1c"/><stop offset="0.64" stop-color="#5d2e16"/><stop offset="0.79" stop-color="#3b1e0e"/><stop offset="0.94" stop-color="#120904"/><stop offset="0.99"/></linearGradient><linearGradient id="Безымянный_градиент_18-2" x1="13.83" y1="185.94" x2="22.95" y2="185.94" gradientTransform="translate(-30.58 -93.48) rotate(-17.02)" xlink:href="#Безымянный_градиент_18"/><linearGradient id="Безымянный_градиент_19" x1="20.98" y1="178.52" x2="15.57" y2="151.07" gradientTransform="matrix(0.8, 0.12, -0.16, 0.94, 72.17, -135.21)" gradientUnits="userSpaceOnUse"><stop offset="0" stop-color="#984c24"/><stop offset="0.37" stop-color="#964b24"/><stop offset="0.52" stop-color="#8f4722"/><stop offset="0.63" stop-color="#83411f"/><stop offset="0.73" stop-color="#71381b"/><stop offset="0.81" stop-color="#5a2d15"/><stop offset="0.88" stop-color="#3e1f0f"/><stop offset="0.95" stop-color="#1d0f07"/><stop offset="0.99"/></linearGradient><linearGradient id="Безымянный_градиент_19-2" x1="83" y1="112.35" x2="77.08" y2="82.3" gradientTransform="matrix(0.98, 0.13, -0.17, 1.13, 9.54, -101.79)" xlink:href="#Безымянный_градиент_19"/><linearGradient id="Безымянный_градиент_170" x1="11.44" y1="27.43" x2="126.99" y2="68.16" gradientUnits="userSpaceOnUse"><stop offset="0"/><stop offset="0.03" stop-color="#060606"/><stop offset="0.08" stop-color="#171717"/><stop offset="0.13" stop-color="#333"/><stop offset="0.19" stop-color="#595959"/><stop offset="0.24" stop-color="gray"/><stop offset="0.42" stop-color="#323232"/><stop offset="0.54"/><stop offset="0.73" stop-color="#5b5b5b"/><stop offset="0.8" stop-color="gray"/><stop offset="0.87" stop-color="#585858"/><stop offset="0.99"/></linearGradient><linearGradient id="Безымянный_градиент_20" x1="101.79" y1="86.62" x2="101.79" y2="63.08" gradientUnits="userSpaceOnUse"><stop offset="0" stop-color="#984c24"/><stop offset="0.31" stop-color="#964b23"/><stop offset="0.46" stop-color="#8e4722"/><stop offset="0.59" stop-color="#81401e"/><stop offset="0.69" stop-color="#6e371a"/><stop offset="0.79" stop-color="#552a14"/><stop offset="0.88" stop-color="#371b0d"/><stop offset="0.96" stop-color="#130a05"/><stop offset="0.99"/></linearGradient><linearGradient id="Безымянный_градиент_20-2" x1="119.26" y1="115.76" x2="119.26" y2="77.35" gradientTransform="matrix(0.98, -0.03, 0.03, 1, -0.57, -13.92)" xlink:href="#Безымянный_градиент_20"/><linearGradient id="Безымянный_градиент_18-3" x1="27.65" y1="49.82" x2="55.82" y2="49.82" gradientTransform="translate(4.86 16.39) rotate(4.56)" xlink:href="#Безымянный_градиент_18"/><linearGradient id="Безымянный_градиент_18-4" x1="10.14" y1="17.14" x2="19.98" y2="17.14" gradientTransform="translate(12.11 59.97) rotate(8.33)" xlink:href="#Безымянный_градиент_18"/><linearGradient id="Безымянный_градиент_25" x1="8.96" y1="30.79" x2="41.27" y2="30.79" gradientTransform="translate(-7.1 20.24) rotate(-5.63)" gradientUnits="userSpaceOnUse"><stop offset="0" stop-color="#984c24"/><stop offset="0.15" stop-color="#944a23"/><stop offset="0.31" stop-color="#874320"/><stop offset="0.48" stop-color="#71391b"/><stop offset="0.65" stop-color="#532914"/><stop offset="0.83" stop-color="#2d160b"/><stop offset="0.99"/></linearGradient><linearGradient id="Безымянный_градиент_25-2" x1="7.16" y1="62.95" x2="7.16" y2="53.6" gradientTransform="translate(-2.25 -19.2) rotate(-2.21)" xlink:href="#Безымянный_градиент_25"/><linearGradient id="Безымянный_градиент_25-3" x1="23.29" y1="61.69" x2="23.29" y2="48.17" gradientTransform="translate(-2.25 -19.2) rotate(-2.21)" xlink:href="#Безымянный_градиент_25"/><linearGradient id="Безымянный_градиент_25-4" x1="15.11" y1="62.38" x2="15.11" y2="49.87" gradientTransform="translate(-2.25 -19.2) rotate(-2.21)" xlink:href="#Безымянный_градиент_25"/><linearGradient id="Безымянный_градиент_25-5" x1="30.48" y1="58.84" x2="30.48" y2="48.31" gradientTransform="translate(-2.25 -19.2) rotate(-2.21)" xlink:href="#Безымянный_градиент_25"/></defs><title>атака 2</title><g id="Слой_12" data-name="Слой 12"><path class="cls-1" d="M65.86,69.53s-22.07-7.44-26.55-6.26a15.74,15.74,0,0,1,1.34,5.28c10-1,25.94,7.86,26.44,5.53A6.17,6.17,0,0,0,65.86,69.53Z"/><path class="cls-2" d="M38,63.55c-.85,2.81-.3,14.27,2.78,28.47.7,3.25,1,4.14,2.53,4.44,2.95.59-1.76-8.18,1.25-7.69,1.69.27-3.55-23.11-3.4-23,.34-1.8.42-4.25-1.54-4.54A17.51,17.51,0,0,0,38,63.55Z"/><path class="cls-3" d="M32.29,12.91s-8-3.91,12.8-1.46c20.36,2.41,43,12.81,44.69,15.7,3.53,5.9.13,6.22-3.51,4.18-5.35-3-9.25-7.68-7.53-5.36s-.75,3.7-7.21-1.7c-5.07-4.24-8.16-6-7-3.34,1.4,3.11-5.67-.87-9.13-4.45-2.66-2.76-9.19,2.95-14-2.13C37.73,10.41,34.12,15.89,32.29,12.91Z"/><path class="cls-4" d="M36.23,6.73S26.41,2.17,51.74,4.78c24.79,2.56,52.78,17.62,55,21,4.43,7,.32,7.46-4.16,5.07C96,27.39,89.39,17,90.19,20.59s1.63,5.68-6.35-.69c-6.27-5-9-7.68-7.46-4.52,1.77,3.7-6.62-.52-10.9-4.75-3.31-3.27-12.15,3.7-18.1-2.32C42.77,3.65,38.52,10.28,36.23,6.73Z"/><path class="cls-5" d="M121,83.08c1.29-21-1.85-30.35-13.25-36.48-10.61-5.71-17.18-1-21.79-3.21-5-2.38-9-6.19-13.59-4.52-7.93,2.93-9,2.34-11.57-.75-7.62-9.13-8.74-4-14.46-7.78C40.84,26.72,45.47,26.72,41,20c-6.2-10.07,5.07-7,7.38-8.31C53.94,8.36,46.9.12,42.55,2.43c-7.71,4.09-6.63,1.16-8.76-.29C28.66-1.38,20.49,5,23,7.58,29.21,14,9.62,7.4,15.24,19.92c1.9,4.22,8.49.66,10.39-.83s3.7-4.37,4-1.66C30,19.74,26,22.2,33,31.31c.24.3,3.41,12.58,6,17.3,1.74,3.15,4.48,4.32,7.22,8.68,3.22,5.15,2.37,13.71,5.42,19.43,3.66,6.87,12.64.41,15,3.32,5.93,7.2,4.11,5.35,13.5,7.07,4.55.83,5.67,3.42,12.83,6.28,8.82,3.52,23.65,2.56,32.81-.56,6.14-2.1,2.6-2.63-.86-4.41C122.88,87.33,120.79,85.77,121,83.08Z"/><path class="cls-6" d="M113.26,65.27s-1.81-.91-1.33-2.1c-2.26-1.51-13,17.92-14.18,16.92-.87-.7-1.66-4.14-2.3-8.51-.55-3.81-5.14,1.79-5.14,1.79a11.29,11.29,0,0,0,1.11,4.84c.68,1.14,1.67-1.75,1.73-1.12,0,.26,3.76,10.41,6,9.47C105.72,83.71,113.2,65.33,113.26,65.27Z"/><path class="cls-7" d="M61,42.75c-1.43,2.85-1.88,9.5-1.3,18.53.49,7.64,5.05,15.23,6.37,18,1.67,3.5,0-11.21-.19-11.7C63,58,60.32,50.13,63.28,45.44,68,38,61.88,41,61,42.75Z"/><path class="cls-7" d="M44.19,29.45c-2.71,1.6-3.1,12.78-2,17.86a25.28,25.28,0,0,0,4.12,10c1.81,2.6,0-10.88-.53-14.34-.91-5.35-1.21-5.81,1-9.19C49.13,30.1,45.26,28.81,44.19,29.45Z"/><path class="cls-7" d="M83.94,43.77c-3.33,2.5-6.23,10.4-6.07,18.76.16,9,3,20.93,4.92,24.14,2.41,4.08.5-15.09.28-15.66-4.19-11.15-2.59-14.72,1.64-19.74C89.61,45.44,87.91,40.8,83.94,43.77Z"/><path class="cls-7" d="M30.62,28.1s-2-7.12,2.47-9.71S39.8,14.68,39.88,12,39.38,1.73,37.42,4c-.66.79,1.75,6.84-2,9.72S30.12,16.57,29,18.9C27.65,21.81,30.62,28.1,30.62,28.1Z"/><path class="cls-8" d="M47.38,11.71c1.21-.39,1.71-3.12.7-5.48C47,3.7,45.37,1.12,42.79,1.86a4.69,4.69,0,0,0-1.28,7.52C43.65,11.83,45,12.49,47.38,11.71Z"/><path class="cls-9" d="M46,5.64c.79,1.53,1.53,3.78-.19,4.16-.77.17-1.94-.69-2.72-2.21s-.84-3-.11-3.31A2.49,2.49,0,0,1,46,5.64Z"/><path class="cls-8" d="M33.48,13c-2.81,1.14-6.75-.74-7.82-3.8s-1.22-5.9.73-6.56,4.42-2.66,7.48,2.6C35.51,8,36.88,11.58,33.48,13Z"/><path class="cls-9" d="M31.66,7C30.51,5.34,30,3.88,29.06,4c-1.7.28-1.4,2.23-.89,4.16A3.46,3.46,0,0,0,30.9,11C32.9,11.27,33.29,9.3,31.66,7Z"/><path class="cls-8" d="M16.85,12.18c1.55,0,5.29,1.57,5.45,3.68.17,2.34.95,4.69-2.29,5.05-1.54.17-4.39-.59-5.23-4.48C14.34,14.39,15.31,12.17,16.85,12.18Z"/><path class="cls-9" d="M20,15.34c1,1.06,1,3.08.46,3.56-1.2,1.18-2.57-.37-3.29-1.57s-.71-2.57-.14-2.95S19.05,14.29,20,15.34Z"/><path class="cls-10" d="M40.1,42.66c.28-7.48-1.35-14.21-4.47-15.64-3.94-1.79-3,7.66-1.39,14.93a10.21,10.21,0,0,1,0,3c1.8-.29,3.59-.26,5.61-.48C39.81,44.12,40.09,43,40.1,42.66Z"/><path class="cls-11" d="M122.8,90.87c-8.1,1.53-9.35-28.28-9.45-28.34-1.78-.86-5.29-5-5.09,1.55-.18,5.7,5.17,31.82,14.14,34.33,1.69.48,6.89-1,6.89-1S128.25,89.84,122.8,90.87Z"/><path class="cls-12" d="M54.85,68.77s-21.75-4.59-26.17-3.2c.75,1.07.4,1.5.57,2.81,9.92-1.44,26.69,7.24,27.06,4.88A6.2,6.2,0,0,0,54.85,68.77Z"/><path class="cls-13" d="M28.38,63.83c-2,2.2-6.7,12.78-10.31,26.85-.83,3.23-1,4.15.28,5,2.41,1.74,2.1-8.1,4.6-6.44,1.4.93,7.2-22.31,7.3-22.16,1.11-1.49,2.29-3.68.65-4.74A20.81,20.81,0,0,0,28.38,63.83Z"/><path class="cls-14" d="M13.91,49.89c-1.9.38-13.77-.49-6.66,4,6.05,3.78,11.47,3,15,2.29,23.41-4.55,11.65-17,11.65-17S29.31,46.76,13.91,49.89Z"/><path class="cls-10" d="M31.33,40.91c1.63,8-20.59,13-23.87,12.35-3.87-.77,6.09,6.85,11.87,5.61a37.14,37.14,0,0,0,15.06-7c7.72-6.52,5.82-8.32,3.94-12.5C36.4,40.28,31.19,35.68,31.33,40.91Z"/><path class="cls-15" d="M2.76,36.47c-1.71,9,1.45,8.51,5.48,3.68s3.68-5.93,3.68-5.93S3.4,33.07,2.76,36.47Z"/><path class="cls-16" d="M28.52,28.47c-6.79,6-3.53,18.71-9.14,10.39s1.89-10.45,1.89-10.45S30,27.2,28.52,28.47Z"/><path class="cls-17" d="M19.37,30.74c-2.58,5.94-5.09,17.79-8.32,8.38-2.2-6.45,1.5-8.41,1.5-8.41S20.14,29,19.37,30.74Z"/><path class="cls-18" d="M30.8,37.92c2-6.57,9.33-11-1.3-9.92-6.34.65-3.72,7-3.72,7S30.16,40,30.8,37.92Z"/><path class="cls-10" d="M36,26.14c-2.91.61-.11-4.92-11.32-2.71-13.45,2.64-20.17,9.38-23.36,13-2.18,2.46,9.23,1.9,13.71-.5,7.75-4.15,19.12-2.11,21.24-4C37.32,31,37.35,25.86,36,26.14Z"/></g></svg>