<svg xmlns="http://www.w3.org/2000/svg" xmlns:xlink="http://www.w3.org/1999/xlink" viewBox="0 0 130 100"><defs><style>.cls-1,.cls-11,.cls-12,.cls-13,.cls-14,.cls-15,.cls-16,.cls-17,.cls-18,.cls-2,.cls-3,.cls-4,.cls-5,.cls-6,.cls-7,.cls-8{stroke:#000;}.cls-1,.cls-10,.cls-11,.cls-12,.cls-13,.cls-14,.cls-15,.cls-16,.cls-17,.cls-18,.cls-2,.cls-3,.cls-4,.cls-5,.cls-6,.cls-7,.cls-8,.cls-9{stroke-miterlimit:10;}.cls-1{fill:url(#Безымянный_градиент_18);}.cls-2{fill:url(#Безымянный_градиент_18-2);}.cls-3{fill:url(#Безымянный_градиент_19);}.cls-4{fill:url(#Безымянный_градиент_19-2);}.cls-5{fill:url(#Безымянный_градиент_170);}.cls-6{fill:url(#Безымянный_градиент_20);}.cls-7{fill:#31c8c5;}.cls-8{fill:#984c24;}.cls-9{fill:#511003;stroke:#f9f912;}.cls-10{stroke:#31c8c5;}.cls-11{fill:url(#Безымянный_градиент_20-2);}.cls-12{fill:url(#Безымянный_градиент_18-3);}.cls-13{fill:url(#Безымянный_градиент_18-4);}.cls-14{fill:url(#Безымянный_градиент_25);}.cls-15{fill:url(#Безымянный_градиент_25-2);}.cls-16{fill:url(#Безымянный_градиент_25-3);}.cls-17{fill:url(#Безымянный_градиент_25-4);}.cls-18{fill:url(#Безымянный_градиент_25-5);}</style><linearGradient id="Безымянный_градиент_18" x1="35.74" y1="13.6" x2="63.76" y2="13.6" gradientTransform="translate(9.75 44.44) rotate(12.81)" gradientUnits="userSpaceOnUse"><stop offset="0" stop-color="#984c24"/><stop offset="0.18" stop-color="#944a23"/><stop offset="0.34" stop-color="#894521"/><stop offset="0.49" stop-color="#773b1c"/><stop offset="0.64" stop-color="#5d2e16"/><stop offset="0.79" stop-color="#3b1e0e"/><stop offset="0.94" stop-color="#120904"/><stop offset="0.99"/></linearGradient><linearGradient id="Безымянный_градиент_18-2" x1="35.09" y1="108.78" x2="44.35" y2="108.78" gradientTransform="translate(-11.5 -25.01) rotate(-7.04)" xlink:href="#Безымянный_градиент_18"/><linearGradient id="Безымянный_градиент_19" x1="51.66" y1="157.59" x2="46.29" y2="130.38" gradientTransform="matrix(0.81, 0.08, -0.11, 0.94, 39.66, -120.38)" gradientUnits="userSpaceOnUse"><stop offset="0" stop-color="#984c24"/><stop offset="0.37" stop-color="#964b24"/><stop offset="0.52" stop-color="#8f4722"/><stop offset="0.63" stop-color="#83411f"/><stop offset="0.73" stop-color="#71381b"/><stop offset="0.81" stop-color="#5a2d15"/><stop offset="0.88" stop-color="#3e1f0f"/><stop offset="0.95" stop-color="#1d0f07"/><stop offset="0.99"/></linearGradient><linearGradient id="Безымянный_градиент_19-2" x1="85.93" y1="105.1" x2="80.05" y2="75.32" gradientTransform="matrix(0.98, 0.08, -0.12, 1.13, 1.76, -92.95)" xlink:href="#Безымянный_градиент_19"/><linearGradient id="Безымянный_градиент_170" x1="14.71" y1="28.43" x2="127.01" y2="68.01" gradientUnits="userSpaceOnUse"><stop offset="0"/><stop offset="0.03" stop-color="#060606"/><stop offset="0.08" stop-color="#171717"/><stop offset="0.13" stop-color="#333"/><stop offset="0.19" stop-color="#595959"/><stop offset="0.24" stop-color="gray"/><stop offset="0.42" stop-color="#323232"/><stop offset="0.54"/><stop offset="0.73" stop-color="#5b5b5b"/><stop offset="0.8" stop-color="gray"/><stop offset="0.87" stop-color="#585858"/><stop offset="0.99"/></linearGradient><linearGradient id="Безымянный_градиент_20" x1="102.44" y1="86.61" x2="102.44" y2="63.08" gradientUnits="userSpaceOnUse"><stop offset="0" stop-color="#984c24"/><stop offset="0.31" stop-color="#964b23"/><stop offset="0.46" stop-color="#8e4722"/><stop offset="0.59" stop-color="#81401e"/><stop offset="0.69" stop-color="#6e371a"/><stop offset="0.79" stop-color="#552a14"/><stop offset="0.88" stop-color="#371b0d"/><stop offset="0.96" stop-color="#130a05"/><stop offset="0.99"/></linearGradient><linearGradient id="Безымянный_градиент_20-2" x1="118.12" y1="80.34" x2="118.12" y2="41.95" gradientTransform="translate(5.56 9.61) rotate(4.28)" xlink:href="#Безымянный_градиент_20"/><linearGradient id="Безымянный_градиент_18-3" x1="24.97" y1="7.15" x2="52.2" y2="7.15" gradientTransform="translate(10.57 51.85) rotate(14.25)" xlink:href="#Безымянный_градиент_18"/><linearGradient id="Безымянный_градиент_18-4" x1="24.94" y1="107.76" x2="34.21" y2="107.76" gradientTransform="translate(-11 -24.91) rotate(-6.7)" xlink:href="#Безымянный_градиент_18"/><linearGradient id="Безымянный_градиент_25" x1="-1.6" y1="98.92" x2="33.53" y2="98.92" gradientTransform="translate(-2.1 -45.28) rotate(-4.94)" gradientUnits="userSpaceOnUse"><stop offset="0" stop-color="#984c24"/><stop offset="0.15" stop-color="#944a23"/><stop offset="0.31" stop-color="#874320"/><stop offset="0.48" stop-color="#71391b"/><stop offset="0.65" stop-color="#532914"/><stop offset="0.83" stop-color="#2d160b"/><stop offset="0.99"/></linearGradient><linearGradient id="Безымянный_градиент_25-2" x1="7.3" y1="23.81" x2="7.3" y2="14.06" gradientTransform="translate(1.91 17.74) rotate(4.48)" xlink:href="#Безымянный_градиент_25"/><linearGradient id="Безымянный_градиент_25-3" x1="25.1" y1="22.24" x2="25.1" y2="8.18" gradientTransform="translate(1.91 17.74) rotate(4.48)" xlink:href="#Безымянный_градиент_25"/><linearGradient id="Безымянный_градиент_25-4" x1="16.09" y1="23.08" x2="16.09" y2="10.06" gradientTransform="translate(1.91 17.74) rotate(4.48)" xlink:href="#Безымянный_градиент_25"/><linearGradient id="Безымянный_градиент_25-5" x1="32.99" y1="19.19" x2="32.99" y2="8.25" gradientTransform="translate(1.91 17.74) rotate(4.48)" xlink:href="#Безымянный_градиент_25"/></defs><title>атака 2</title><g id="Слой_13" data-name="Слой 13"><path class="cls-1" d="M67.36,70.67s-20.53-9.4-25-8.64a16.19,16.19,0,0,1,.79,5.39c9.7,0,24.23,10.17,24.92,7.89A6.3,6.3,0,0,0,67.36,70.67Z"/><path class="cls-2" d="M40.74,62.4c-1.3,2.63-2.82,14-2.41,28.45.09,3.31.23,4.23,1.62,4.78,2.72,1.06-.22-8.33,2.56-7.37,1.56.55.72-23.29.85-23.17.65-1.71,1.15-4.11-.66-4.72A20.59,20.59,0,0,0,40.74,62.4Z"/><path class="cls-3" d="M35,12.18s-7.83-3.56,12.17-2c19.58,1.51,41.67,10.9,43.45,13.71,3.64,5.73.41,6.21-3.17,4.33-5.25-2.76-9.2-7.26-7.44-5s-.55,3.73-7-1.38c-5-4-8.08-5.63-6.82-3,1.48,3-5.47-.62-8.93-4-2.67-2.64-8.66,3.35-13.47-1.51C40.05,9.45,36.84,15.08,35,12.18Z"/><path class="cls-4" d="M38.69,6.33s-9.6-4.12,14.74-2.64C77.25,5.13,104.72,18.92,107,22.25c4.56,6.81.64,7.44-3.74,5.25C96.75,24.29,90,14.21,90.93,17.75s1.82,5.6-6.1-.4c-6.23-4.72-8.94-7.27-7.35-4.18,1.86,3.62-6.35-.22-10.64-4.25C63.53,5.8,55.39,13.15,49.43,7.41,44.81,3,41,9.77,38.69,6.33Z"/><path class="cls-5" d="M120.91,83.07C123.27,52.6,118.63,50,109,46c-11-4.62-17.42-.41-21.87-2.58-4.84-2.38-4.37-8-13.12-4.51-7.61,3-9.56,2.88-11.17-.76-4.84-10.93-8.44-4-14-7.77-5.25-3.62-.79-3.62-5.12-10.38-6-10.07,4.9-6.95,7.12-8.31,5.39-3.3-1.41-11.53-5.6-9.22-7.45,4.09-6.41,1.16-8.46-.29C31.83-1.37,24,5,26.35,7.59c6,6.41-12.9-.18-7.47,12.34,1.83,4.22,8.19.66,10-.83s3.57-4.37,3.9-1.66c.27,2.31-3.56,4.77,3.25,13.87.23.3,3.29,12.58,5.81,17.3,1.67,3.15,4.32,4.31,7,8.68,3.11,5.15,2.3,13.71,5.24,19.42,3.54,6.88,13.28-.19,14.52,3.32,3.08,8.8,5.65,7.71,13,7.07C86.08,86.71,86,91.81,93.39,94c7.77,2.27,23.43,2,32.26-1.15,5.93-2.1,2.52-2.62-.83-4.41C122.77,87.32,120.7,85.75,120.91,83.07Z"/><path class="cls-6" d="M113.52,65.27s-1.75-.91-1.28-2.11c-2.19-1.5-12.53,17.92-13.7,16.93-.84-.71-1.61-4.15-2.22-8.51-.53-3.81-5,1.79-5,1.79a11.68,11.68,0,0,0,1.07,4.84c.66,1.13,1.61-1.76,1.67-1.13,0,.26,3.63,10.41,5.75,9.47C106.23,83.71,113.46,65.33,113.52,65.27Z"/><path class="cls-7" d="M63,42.75c-1.38,2.85-1.82,9.5-1.25,18.53.47,7.64,4.87,15.23,6.14,18,1.62,3.5,0-11.21-.18-11.7C64.94,58,62.4,50.13,65.26,45.44,69.8,38,63.91,41,63,42.75Z"/><path class="cls-7" d="M46.82,29.45c-2.61,1.6-3,12.78-2,17.86a25.91,25.91,0,0,0,4,10c1.76,2.6.06-10.88-.51-14.33-.88-5.36-1.16-5.82,1-9.2C51.6,30.11,47.86,28.82,46.82,29.45Z"/><path class="cls-7" d="M85.21,43.77c-3.21,2.5-6,10.4-5.87,18.76.16,8.94,2.93,20.93,4.75,24.13,2.33,4.08.49-15.09.28-15.66C80.32,59.86,81.86,56.29,86,51.27,90.68,45.44,89,40.8,85.21,43.77Z"/><path class="cls-7" d="M33.73,28.1s-1.9-7.12,2.38-9.71,6.47-3.7,6.56-6.41S42.18,1.74,40.3,4.05c-.65.79,1.68,6.84-1.91,9.71s-5.15,2.81-6.21,5.14C30.86,21.82,33.73,28.1,33.73,28.1Z"/><path class="cls-8" d="M49.91,11.72c1.16-.39,1.65-3.12.68-5.48-1-2.53-2.63-5.11-5.12-4.37a4.77,4.77,0,0,0-1.23,7.51C46.31,11.84,47.61,12.5,49.91,11.72Z"/><path class="cls-9" d="M48.6,5.65c.75,1.52,1.47,3.78-.19,4.16-.74.17-1.87-.69-2.63-2.21s-.8-3-.11-3.31A2.39,2.39,0,0,1,48.6,5.65Z"/><path class="cls-8" d="M36.49,13c-2.72,1.15-6.52-.73-7.56-3.79s-1.17-5.9.71-6.56S33.9,0,36.87,5.21C38.45,8,39.77,11.58,36.49,13Z"/><path class="cls-9" d="M34.73,7c-1.11-1.65-1.62-3.11-2.51-3-1.64.28-1.35,2.23-.86,4.16s1.7,2.73,2.64,2.85C35.93,11.28,36.3,9.31,34.73,7Z"/><path class="cls-8" d="M20.44,12.19c1.49,0,5.1,1.57,5.25,3.68.17,2.34.92,4.69-2.21,5.05-1.48.17-4.24-.59-5.05-4.49C18,14.39,18.94,12.17,20.44,12.19Z"/><path class="cls-9" d="M23.5,15.35c.94,1,.92,3.07.45,3.56-1.16,1.18-2.49-.37-3.19-1.57s-.68-2.57-.12-3S22.55,14.3,23.5,15.35Z"/><path class="cls-10" d="M42.88,42.66c.27-7.48-1.31-14.21-4.32-15.63-3.8-1.8-2.93,7.66-1.34,14.93a10.5,10.5,0,0,1,0,3c1.74-.29,3.47-.26,5.41-.48C42.6,44.12,42.87,43,42.88,42.66Z"/><path class="cls-11" d="M121.61,91.2c-8.12.71-6.29-29.06-6.38-29.12-1.67-1-4.69-5.5-5.16,1-.76,5.64,1.82,32.16,10.37,35.55,1.61.64,6.87-.33,6.87-.33S127.06,90.72,121.61,91.2Z"/><path class="cls-12" d="M58.07,69.68s-20-8.06-24.39-7.41c.53,1.18.13,1.55.07,2.86,9.69.2,24.2,11.47,25,9.21A6.31,6.31,0,0,0,58.07,69.68Z"/><path class="cls-13" d="M30.52,63c-1.32,2.62-2.9,14-2.58,28.43.07,3.32.2,4.24,1.59,4.79,2.71,1.08-.17-8.33,2.6-7.34,1.56.55.87-23.29,1-23.17.66-1.71,1.18-4.11-.63-4.72A19.53,19.53,0,0,0,30.52,63Z"/><path class="cls-14" d="M14.67,53.22c-2.07.36-15-.76-7.28,4,6.57,4,12.49,3.31,16.36,2.66,25.54-4.27,12.8-17.4,12.8-17.4S31.48,50.27,14.67,53.22Z"/><path class="cls-10" d="M33.71,44.26C35.44,52.59,11.2,57.34,7.62,56.6c-4.21-.88,6.61,7.2,12.92,6s12.68-4,16.44-7c8.45-6.6,6.31-7.31,6-12.58C40.91,44,33.58,38.83,33.71,44.26Z"/><path class="cls-15" d="M3.21,34.32c-3.11,9.06.41,8.91,5.47,4.39S13.52,33,13.52,33,4.38,30.9,3.21,34.32Z"/><path class="cls-16" d="M32.42,29C24.2,34.34,26,47.82,21,38.63s3.5-10.53,3.5-10.53S34.19,27.83,32.42,29Z"/><path class="cls-17" d="M22.13,30.28C18.5,36.1,14.12,48,11.9,38c-1.52-6.88,2.79-8.48,2.79-8.48S23.22,28.53,22.13,30.28Z"/><path class="cls-18" d="M33.61,38.94c3.07-6.53,11.7-10.29,0-10.34-7,0-5,6.81-5,6.81S32.62,41,33.61,38.94Z"/><path class="cls-10" d="M40.9,27.41c-3.26.3.56-5.07-12-4.05-15,1.21-23.31,7.39-27.29,10.74-2.71,2.29,9.82,3,15,1,9-3.4,21.15,0,23.73-1.73C41.68,32.55,42.42,27.27,40.9,27.41Z"/></g></svg>