<svg xmlns="http://www.w3.org/2000/svg" xmlns:xlink="http://www.w3.org/1999/xlink" viewBox="0 0 130 100"><defs><style>.cls-1,.cls-11,.cls-12,.cls-13,.cls-14,.cls-15,.cls-16,.cls-17,.cls-18,.cls-2,.cls-3,.cls-4,.cls-5,.cls-6,.cls-7,.cls-8{stroke:#000;}.cls-1,.cls-10,.cls-11,.cls-12,.cls-13,.cls-14,.cls-15,.cls-16,.cls-17,.cls-18,.cls-2,.cls-3,.cls-4,.cls-5,.cls-6,.cls-7,.cls-8,.cls-9{stroke-miterlimit:10;}.cls-1{fill:url(#Безымянный_градиент_19);}.cls-2{fill:url(#Безымянный_градиент_19-2);}.cls-3{fill:url(#Безымянный_градиент_18);}.cls-4{fill:url(#Безымянный_градиент_18-2);}.cls-5{fill:url(#Безымянный_градиент_170);}.cls-6{fill:url(#Безымянный_градиент_20);}.cls-7{fill:#31c8c5;}.cls-8{fill:#984c24;}.cls-9{fill:#b60000;stroke:#f9f912;}.cls-10{stroke:#31c8c5;}.cls-11{fill:url(#Безымянный_градиент_18-3);}.cls-12{fill:url(#Безымянный_градиент_18-4);}.cls-13{fill:url(#Безымянный_градиент_20-2);}.cls-14{fill:url(#Безымянный_градиент_25);}.cls-15{fill:url(#Безымянный_градиент_25-2);}.cls-16{fill:url(#Безымянный_градиент_25-3);}.cls-17{fill:url(#Безымянный_градиент_25-4);}.cls-18{fill:url(#Безымянный_градиент_25-5);}</style><linearGradient id="Безымянный_градиент_19" x1="103.26" y1="98.91" x2="98.09" y2="72.71" gradientTransform="matrix(0.81, -0.03, 0.01, 0.95, -12.89, -64.86)" gradientUnits="userSpaceOnUse"><stop offset="0" stop-color="#984c24"/><stop offset="0.37" stop-color="#964b24"/><stop offset="0.52" stop-color="#8f4722"/><stop offset="0.63" stop-color="#83411f"/><stop offset="0.73" stop-color="#71381b"/><stop offset="0.81" stop-color="#5a2d15"/><stop offset="0.88" stop-color="#3e1f0f"/><stop offset="0.95" stop-color="#1d0f07"/><stop offset="0.99"/></linearGradient><linearGradient id="Безымянный_градиент_19-2" x1="85.59" y1="92.34" x2="80" y2="63.97" gradientTransform="matrix(0.98, -0.12, 0.11, 1.13, -11.42, -68.83)" xlink:href="#Безымянный_градиент_19"/><linearGradient id="Безымянный_градиент_18" x1="37.73" y1="-48.26" x2="65.75" y2="-48.26" gradientTransform="translate(3.03 104.32) rotate(12.81)" gradientUnits="userSpaceOnUse"><stop offset="0" stop-color="#984c24"/><stop offset="0.18" stop-color="#944a23"/><stop offset="0.34" stop-color="#894521"/><stop offset="0.49" stop-color="#773b1c"/><stop offset="0.64" stop-color="#5d2e16"/><stop offset="0.79" stop-color="#3b1e0e"/><stop offset="0.94" stop-color="#120904"/><stop offset="0.99"/></linearGradient><linearGradient id="Безымянный_градиент_18-2" x1="41.92" y1="142.98" x2="51.18" y2="142.98" gradientTransform="translate(-13.54 -58.11) rotate(-7.04)" xlink:href="#Безымянный_градиент_18"/><linearGradient id="Безымянный_градиент_170" x1="24.09" y1="30.49" x2="128.25" y2="67.21" gradientUnits="userSpaceOnUse"><stop offset="0"/><stop offset="0.03" stop-color="#060606"/><stop offset="0.08" stop-color="#171717"/><stop offset="0.13" stop-color="#333"/><stop offset="0.19" stop-color="#595959"/><stop offset="0.24" stop-color="gray"/><stop offset="0.42" stop-color="#323232"/><stop offset="0.54"/><stop offset="0.73" stop-color="#5b5b5b"/><stop offset="0.8" stop-color="gray"/><stop offset="0.87" stop-color="#585858"/><stop offset="0.99"/></linearGradient><linearGradient id="Безымянный_градиент_20" x1="108.39" y1="86.59" x2="108.39" y2="63.02" gradientUnits="userSpaceOnUse"><stop offset="0" stop-color="#984c24"/><stop offset="0.31" stop-color="#964b23"/><stop offset="0.46" stop-color="#8e4722"/><stop offset="0.59" stop-color="#81401e"/><stop offset="0.69" stop-color="#6e371a"/><stop offset="0.79" stop-color="#552a14"/><stop offset="0.88" stop-color="#371b0d"/><stop offset="0.96" stop-color="#130a05"/><stop offset="0.99"/></linearGradient><linearGradient id="Безымянный_градиент_18-3" x1="25.32" y1="-61.51" x2="52.56" y2="-61.51" gradientTransform="translate(2.26 118.31) rotate(14.25)" xlink:href="#Безымянный_градиент_18"/><linearGradient id="Безымянный_градиент_18-4" x1="31.97" y1="140.29" x2="41.24" y2="140.29" gradientTransform="translate(-12.85 -56.4) rotate(-6.7)" xlink:href="#Безымянный_градиент_18"/><linearGradient id="Безымянный_градиент_20-2" x1="108.28" y1="22.07" x2="108.28" y2="-16.4" gradientTransform="translate(18.1 42.76) rotate(17.76)" xlink:href="#Безымянный_градиент_20"/><linearGradient id="Безымянный_градиент_25" x1="-25.16" y1="169.2" x2="17.86" y2="169.2" gradientTransform="translate(-43.22 -97.91) rotate(-26.59)" gradientUnits="userSpaceOnUse"><stop offset="0" stop-color="#984c24"/><stop offset="0.15" stop-color="#944a23"/><stop offset="0.31" stop-color="#874320"/><stop offset="0.48" stop-color="#71391b"/><stop offset="0.65" stop-color="#532914"/><stop offset="0.83" stop-color="#2d160b"/><stop offset="0.99"/></linearGradient><linearGradient id="Безымянный_градиент_25-2" x1="-7.3" y1="-46.5" x2="-7.3" y2="-57.51" gradientTransform="translate(-2.53 80.64) rotate(20.37)" xlink:href="#Безымянный_градиент_25"/><linearGradient id="Безымянный_градиент_25-3" x1="13.96" y1="-49.88" x2="13.96" y2="-65.52" gradientTransform="translate(-2.53 80.64) rotate(20.37)" xlink:href="#Безымянный_градиент_25"/><linearGradient id="Безымянный_градиент_25-4" x1="3.32" y1="-48.18" x2="3.32" y2="-62.63" gradientTransform="translate(-2.53 80.64) rotate(20.37)" xlink:href="#Безымянный_градиент_25"/><linearGradient id="Безымянный_градиент_25-5" x1="23.1" y1="-53.92" x2="23.1" y2="-65.91" gradientTransform="translate(-2.53 80.64) rotate(20.37)" xlink:href="#Безымянный_градиент_25"/></defs><title>атака 2</title><g id="Слой_15" data-name="Слой 15"><path class="cls-1" d="M43,10.43S35.29,7.94,54.06,6.8c18.39-1.12,40.06,5.26,42.06,7.81,4.09,5.21,1.14,6.11-2.41,4.73-5.22-2-9.44-6-7.53-4s-.06,3.78-6.65-.44c-5.18-3.31-8.2-4.5-6.71-2.09,1.75,2.82-5.15.11-8.79-2.82-2.81-2.27-7.64,4.48-12.71.29C47.4,7,45.11,13.06,43,10.43Z"/><path class="cls-2" d="M45.3,7.47s-9.58-2.1,13.05-5.58C80.5-1.52,108.29,6.46,111,9.27c5.45,5.77,2,7.18-2.46,5.92C102,13.34,93.89,4.82,95.41,8.11s2.71,5.13-5.68.84c-6.59-3.38-9.56-5.33-7.53-2.62,2.39,3.17-5.87,1.07-10.56-2-3.62-2.39-9.73,6.47-16.27,2C50.3,2.92,48.1,10.37,45.3,7.47Z"/><path class="cls-3" d="M76.29,70.67s-20.53-9.4-25-8.63a16.39,16.39,0,0,1,.79,5.38c9.69,0,24.22,10.17,24.92,7.89A6.33,6.33,0,0,0,76.29,70.67Z"/><path class="cls-4" d="M49.67,62.41c-1.3,2.62-2.81,14-2.4,28.44.09,3.32.22,4.24,1.62,4.78,2.71,1.06-.23-8.33,2.55-7.36,1.57.54.73-23.29.86-23.17.64-1.71,1.15-4.12-.67-4.72A18.59,18.59,0,0,0,49.67,62.41Z"/><path class="cls-5" d="M121.65,83.05c10.17-24.78.63-31.76-12.9-36.54C98,42.73,94.11,48.28,94,43.29c-.11-6.39-4-8.89-12.3-4.52C74.82,42.38,71,42,71.25,38c.58-9.52-7.91-4-13.09-7.78-4.93-3.63-.74-3.63-4.8-10.4C47.74,9.74,58,12.87,60,11.5c5-3.3-1.32-11.55-5.25-9.23-7,4.1-6,1.16-7.93-.3-4.65-3.52-12,2.9-9.79,5.45,5.64,6.43-12.1-3.18-7,9.36,1.72,4.23,7.68.66,9.4-.83s3.35-1.37,3.65,1.34c.26,2.31-3.33,4.78,3.06,13.9.21.3,3.08,12.6,5.44,17.33,1.57,3.16,4.06,4.32,6.53,8.7,2.91,5.15,3.16,13.29,4.91,19.45,4.2,14.84,14.3-.33,13.61,3.33-2,10.8,7,9.36,12.22,7.08,3.88-1.7-2.36,5.65,4.11,7.88,10.92,3.77,24.82,1,33.11-2.15,5.55-2.1,2.36-2.63-.78-4.41C123.4,87.3,120.63,85.51,121.65,83.05Z"/><path class="cls-6" d="M118.78,65.21s-1.64-.91-1.2-2.11c-2-1.51-11.74,17.95-12.84,16.95-.79-.71-1.51-4.15-2.08-8.52-.5-3.82-4.65,1.79-4.65,1.79a12.43,12.43,0,0,0,1,4.85c.62,1.14,1.51-1.76,1.57-1.12,0,.25,3.4,10.42,5.39,9.48C112,83.68,118.72,65.27,118.78,65.21Z"/><path class="cls-7" d="M71.45,42.65c-1.29,2.86-1.69,9.52-1.17,18.56.45,7.66,4.57,15.26,5.76,18,1.52,3.51,0-11.23-.17-11.72-2.63-9.57-5-17.46-2.33-22.16C77.8,37.89,72.27,40.85,71.45,42.65Z"/><path class="cls-7" d="M56.25,29.33c-2.45,1.6-2.8,12.8-1.84,17.88a27,27,0,0,0,3.73,10c1.64,2.6,0-10.91-.48-14.36-.82-5.37-1.09-5.83.91-9.21C60.73,30,57.23,28.69,56.25,29.33Z"/><path class="cls-7" d="M92.24,43.67c-3,2.5-5.64,10.42-5.5,18.79.15,9,2.74,21,4.46,24.18,2.18,4.09.45-15.12.25-15.69-3.79-11.16-2.34-14.73,1.48-19.77C97.37,45.34,95.83,40.7,92.24,43.67Z"/><path class="cls-7" d="M44,28s-1.78-7.13,2.23-9.72,6.07-3.71,6.15-6.42S51.9,1.57,50.13,3.88c-.6.79,1.59,6.85-1.79,9.73s-4.82,2.81-5.81,5.15C41.29,21.68,44,28,44,28Z"/><path class="cls-8" d="M59.15,11.57c1.09-.4,1.54-3.13.63-5.5C58.81,3.54,57.32,1,55,1.7c-1.36.43-3.92,4-1.15,7.52C55.77,11.68,57,12.34,59.15,11.57Z"/><path class="cls-9" d="M57.92,5.48c.71,1.53,1.38,3.79-.17,4.17-.7.17-1.76-.69-2.47-2.22s-.75-3-.1-3.31A2.18,2.18,0,0,1,57.92,5.48Z"/><path class="cls-8" d="M46.56,12.81C44,14,40.46,12.07,39.48,9s-1.1-5.92.67-6.57,4-2.66,6.77,2.6C48.4,7.85,49.64,11.43,46.56,12.81Z"/><path class="cls-9" d="M44.92,6.83c-1.05-1.65-1.53-3.11-2.36-3C41,4.15,41.3,6.1,41.76,8s1.59,2.73,2.47,2.85C46,11.12,46.39,9.15,44.92,6.83Z"/><path class="cls-8" d="M31.52,10c1.39,0,4.78,1.57,4.93,3.69.15,2.34.85,4.7-2.08,5-1.39.17-4-.59-4.73-4.49C29.24,12.24,30.12,10,31.52,10Z"/><path class="cls-9" d="M34.39,13.2c.88,1.05.87,3.07.42,3.56-1.09,1.18-2.33-.37-3-1.57s-.64-2.58-.11-3S33.5,12.14,34.39,13.2Z"/><path class="cls-10" d="M52.56,42.56c.25-7.49-1.23-14.23-4.05-15.66-3.57-1.8-2.75,7.67-1.26,15a11,11,0,0,1,0,3c1.63-.29,3.25-.26,5.08-.48C52.29,44,52.55,42.92,52.56,42.56Z"/><path class="cls-11" d="M67,69.69s-19.94-8.07-24.39-7.42c.54,1.18.13,1.55.07,2.86,9.69.2,24.21,11.48,25,9.22A6.32,6.32,0,0,0,67,69.69Z"/><path class="cls-12" d="M39.45,63c-1.32,2.61-2.9,14-2.58,28.43.08,3.32.2,4.23,1.6,4.79,2.7,1.08-.18-8.33,2.6-7.35,1.56.56.86-23.29,1-23.17.65-1.7,1.18-4.1-.64-4.72A18.64,18.64,0,0,0,39.45,63Z"/><path class="cls-13" d="M120.32,90.66c-7.49-1.2.61-29.78.54-29.86-1.29-1.4-3-6.45-4.89-.2-1.9,5.33-5.31,31.76,1.68,37.06,1.31,1,6.28,1.28,6.28,1.28S125.35,91.47,120.32,90.66Z"/><path class="cls-14" d="M19.25,56.33c-2.42.86-19.58,3.32-6.89,5.34a43,43,0,0,0,22.45-2.05c30-10.45,5.86-18.35,5.86-18.35S38.91,49.34,19.25,56.33Z"/><path class="cls-10" d="M40.35,43.93c7.2,6.7-23,16.86-28,17.17-5.89.37,9.75,6.44,17.08,3.76S46.79,56,49.85,52.61c2.52-2.8,3.14-3.22,2.44-11.46C50.14,42.47,36.79,37.5,40.35,43.93Z"/><path class="cls-15" d="M4.57,25.29c-6.95,8.25-2.86,9,4.64,5.73s7.68-4.46,7.68-4.46S7.19,22.18,4.57,25.29Z"/><path class="cls-16" d="M40.11,27.21C28.66,30.5,25.69,44.36,23.41,34s8-9.61,8-9.61S42.56,26.5,40.11,27.21Z"/><path class="cls-17" d="M27.8,26C21.45,30.85,12,41.6,13.18,31.07c.83-7.21,6.38-7.73,6.38-7.73S29.71,24.49,27.8,26Z"/><path class="cls-18" d="M37.74,37.41c6-5.74,17.29-7.33,3.82-10.3-8-1.76-8.33,5.53-8.33,5.53S35.83,39.26,37.74,37.41Z"/><path class="cls-10" d="M50.42,27.75c-3.85-.51,2.54-4.9-12.24-7C20.47,18.24,8.66,22.34,2.84,24.69c-4,1.6,10.15,5.39,16.88,4.73,11.64-1.14,24.3,5.2,27.9,4.15C49.4,33.05,52.22,28,50.42,27.75Z"/></g></svg>