<svg xmlns="http://www.w3.org/2000/svg" xmlns:xlink="http://www.w3.org/1999/xlink" viewBox="0 0 130 100"><defs><style>.cls-1,.cls-12,.cls-13,.cls-14,.cls-15,.cls-16,.cls-17,.cls-18,.cls-19,.cls-2,.cls-3,.cls-4,.cls-5,.cls-6,.cls-7,.cls-8{stroke:#000;}.cls-1,.cls-10,.cls-11,.cls-12,.cls-13,.cls-14,.cls-15,.cls-16,.cls-17,.cls-18,.cls-19,.cls-2,.cls-3,.cls-4,.cls-5,.cls-6,.cls-7,.cls-8,.cls-9{stroke-miterlimit:10;}.cls-1{fill:url(#Безымянный_градиент_19);}.cls-2{fill:url(#Безымянный_градиент_19-2);}.cls-3{fill:url(#Безымянный_градиент_18);}.cls-4{fill:url(#Безымянный_градиент_18-2);}.cls-5{fill:url(#Безымянный_градиент_170);}.cls-6{fill:url(#Безымянный_градиент_20);}.cls-7{fill:#31c8c5;}.cls-8{fill:#984c24;}.cls-9{fill:#931406;}.cls-10,.cls-9{stroke:#f9f912;}.cls-10{fill:#770404;}.cls-11{stroke:#31c8c5;}.cls-12{fill:url(#Безымянный_градиент_18-3);}.cls-13{fill:url(#Безымянный_градиент_18-4);}.cls-14{fill:url(#Безымянный_градиент_20-2);}.cls-15{fill:url(#Безымянный_градиент_25);}.cls-16{fill:url(#Безымянный_градиент_25-2);}.cls-17{fill:url(#Безымянный_градиент_25-3);}.cls-18{fill:url(#Безымянный_градиент_25-4);}.cls-19{fill:url(#Безымянный_градиент_25-5);}</style><linearGradient id="Безымянный_градиент_19" x1="64.41" y1="79.42" x2="59.09" y2="52.45" gradientTransform="matrix(0.81, 0.03, -0.05, 0.95, 17.27, -47.19)" gradientUnits="userSpaceOnUse"><stop offset="0" stop-color="#984c24"/><stop offset="0.37" stop-color="#964b24"/><stop offset="0.52" stop-color="#8f4722"/><stop offset="0.63" stop-color="#83411f"/><stop offset="0.73" stop-color="#71381b"/><stop offset="0.81" stop-color="#5a2d15"/><stop offset="0.88" stop-color="#3e1f0f"/><stop offset="0.95" stop-color="#1d0f07"/><stop offset="0.99"/></linearGradient><linearGradient id="Безымянный_градиент_19-2" x1="80.26" y1="59.99" x2="74.46" y2="30.54" gradientTransform="matrix(0.99, -0.02, 0, 1.14, -3.65, -36.54)" xlink:href="#Безымянный_градиент_19"/><linearGradient id="Безымянный_градиент_18" x1="40.66" y1="0.48" x2="69.62" y2="0.48" gradientTransform="translate(4.99 60.6) rotate(7.45)" gradientUnits="userSpaceOnUse"><stop offset="0" stop-color="#984c24"/><stop offset="0.18" stop-color="#944a23"/><stop offset="0.34" stop-color="#894521"/><stop offset="0.49" stop-color="#773b1c"/><stop offset="0.64" stop-color="#5d2e16"/><stop offset="0.79" stop-color="#3b1e0e"/><stop offset="0.94" stop-color="#120904"/><stop offset="0.99"/></linearGradient><linearGradient id="Безымянный_градиент_18-2" x1="8.28" y1="266.34" x2="17.41" y2="266.34" gradientTransform="translate(-42.4 -172.5) rotate(-17.02)" xlink:href="#Безымянный_градиент_18"/><linearGradient id="Безымянный_градиент_170" x1="16.67" y1="29.55" x2="127.3" y2="68.54" gradientUnits="userSpaceOnUse"><stop offset="0"/><stop offset="0.03" stop-color="#060606"/><stop offset="0.08" stop-color="#171717"/><stop offset="0.13" stop-color="#333"/><stop offset="0.19" stop-color="#595959"/><stop offset="0.24" stop-color="gray"/><stop offset="0.42" stop-color="#323232"/><stop offset="0.54"/><stop offset="0.73" stop-color="#5b5b5b"/><stop offset="0.8" stop-color="gray"/><stop offset="0.87" stop-color="#585858"/><stop offset="0.99"/></linearGradient><linearGradient id="Безымянный_градиент_20" x1="104.24" y1="86.67" x2="104.24" y2="63.14" gradientUnits="userSpaceOnUse"><stop offset="0" stop-color="#984c24"/><stop offset="0.31" stop-color="#964b23"/><stop offset="0.46" stop-color="#8e4722"/><stop offset="0.59" stop-color="#81401e"/><stop offset="0.69" stop-color="#6e371a"/><stop offset="0.79" stop-color="#552a14"/><stop offset="0.88" stop-color="#371b0d"/><stop offset="0.96" stop-color="#130a05"/><stop offset="0.99"/></linearGradient><linearGradient id="Безымянный_градиент_18-3" x1="33.14" y1="27.34" x2="61.31" y2="27.34" gradientTransform="translate(4.01 37.85) rotate(4.56)" xlink:href="#Безымянный_градиент_18"/><linearGradient id="Безымянный_градиент_18-4" x1="13.56" y1="-23.42" x2="23.4" y2="-23.42" gradientTransform="translate(9.27 99.09) rotate(8.33)" xlink:href="#Безымянный_градиент_18"/><linearGradient id="Безымянный_градиент_20-2" x1="121.27" y1="102.81" x2="121.27" y2="64.39" gradientTransform="matrix(0.99, 0.15, -0.15, 0.99, 10.37, -22.26)" xlink:href="#Безымянный_градиент_20"/><linearGradient id="Безымянный_градиент_25" x1="3.69" y1="65.18" x2="42.73" y2="65.18" gradientTransform="matrix(0.98, -0.21, 0.21, 0.98, -12.82, -7)" gradientUnits="userSpaceOnUse"><stop offset="0" stop-color="#984c24"/><stop offset="0.15" stop-color="#944a23"/><stop offset="0.31" stop-color="#874320"/><stop offset="0.48" stop-color="#71391b"/><stop offset="0.65" stop-color="#532914"/><stop offset="0.83" stop-color="#2d160b"/><stop offset="0.99"/></linearGradient><linearGradient id="Безымянный_градиент_25-2" x1="8.82" y1="29.96" x2="8.82" y2="19.61" gradientTransform="matrix(0.97, 0.23, -0.23, 0.97, 4.86, 5.73)" xlink:href="#Безымянный_градиент_25"/><linearGradient id="Безымянный_градиент_25-3" x1="28.32" y1="27.67" x2="28.32" y2="12.82" gradientTransform="matrix(0.97, 0.23, -0.23, 0.97, 4.86, 5.73)" xlink:href="#Безымянный_градиент_25"/><linearGradient id="Безымянный_градиент_25-4" x1="18.5" y1="28.86" x2="18.5" y2="15.11" gradientTransform="matrix(0.97, 0.23, -0.23, 0.97, 4.86, 5.73)" xlink:href="#Безымянный_градиент_25"/><linearGradient id="Безымянный_градиент_25-5" x1="36.85" y1="24.19" x2="36.85" y2="12.71" gradientTransform="matrix(0.97, 0.23, -0.23, 0.97, 4.86, 5.73)" xlink:href="#Безымянный_градиент_25"/></defs><title>атака 2</title><g id="Слой_14" data-name="Слой 14"><path class="cls-1" d="M36,11.64S28.11,8.59,47.81,8.86c19.28.27,41.5,8.25,43.42,10.94,3.92,5.49.78,6.17-2.84,4.52-5.32-2.42-9.46-6.67-7.6-4.54s-.32,3.75-6.92-.94c-5.19-3.69-8.26-5.1-6.87-2.59,1.63,2.94-5.39-.28-9-3.47-2.78-2.46-8.28,3.89-13.29-.66C40.82,8.6,38,14.42,36,11.64Z"/><path class="cls-2" d="M38.37,7.23S28.58,4.15,52.5,3.05C75.92,2,104.15,12.79,106.66,15.86c5.15,6.29,1.39,7.33-3.12,5.62-6.63-2.51-14.25-11.82-13-8.4s2.34,5.38-6,.25C78,9.29,75.09,7,77,9.94c2.18,3.4-6.23.45-10.83-3.11C62.58,4.09,55.38,12.26,49,7.18,44,3.24,41,10.41,38.37,7.23Z"/><path class="cls-3" d="M72.27,69S50.2,61.58,45.72,62.75A16.1,16.1,0,0,1,47.06,68c10-1,25.94,7.86,26.44,5.52A6.19,6.19,0,0,0,72.27,69Z"/><path class="cls-4" d="M44.44,63c-.85,2.81-.3,14.28,2.78,28.47.7,3.26,1,4.14,2.53,4.44,3,.59-1.76-8.18,1.25-7.69,1.69.27-3.55-23.1-3.4-23,.34-1.79.42-4.25-1.54-4.54A17.51,17.51,0,0,0,44.44,63Z"/><path class="cls-5" d="M121.37,83.13c3.9-21.08,5.23-29-13.51-36.47-11-4.4-17.64,1.66-18.67-3.21-.72-3.41-4.75-8-12.89-4.52-7.41,3.21-10.53,3.21-11-.75-1.25-11.37-8.29-4-13.71-7.77-5.17-3.63-.78-3.63-5-10.38-5.88-10.07,4.8-7,7-8.31C58.87,8.42,52.19.19,48.07,2.5c-7.31,4.09-6.29,1.16-8.3-.29C34.9-1.31,27.16,5.09,29.51,7.65c5.91,6.41-12.67-3.19-7.33,9.34,1.8,4.21,8,.65,9.85-.83s3.51-1.37,3.83,1.34c.27,2.3-3.5,4.77,3.19,13.87.23.3,3.23,12.58,5.7,17.3C46.4,51.82,49,53,51.6,57.35c3,5.14,3,13.37,5.14,19.42C60.45,87.29,71,76.36,71,80.09c0,8.8,7.34,9.35,12.8,7.07,4.07-1.7,3.43,6.41,7.24,7.9,7.64,3,26.31.94,35-2.19,5.82-2.09,2.47-2.62-.82-4.4C123.2,87.38,120.88,85.77,121.37,83.13Z"/><path class="cls-6" d="M115.12,65.33s-1.71-.91-1.25-2.11c-2.15-1.5-12.3,17.92-13.46,16.93-.82-.71-1.57-4.15-2.17-8.51-.53-3.81-4.88,1.79-4.88,1.79a11.72,11.72,0,0,0,1.06,4.83c.64,1.14,1.57-1.75,1.64-1.12,0,.26,3.56,10.41,5.64,9.47C108,83.76,115.07,65.39,115.12,65.33Z"/><path class="cls-7" d="M65.54,42.81c-1.35,2.85-1.77,9.5-1.22,18.53.46,7.64,4.79,15.23,6,18,1.59,3.5,0-11.21-.18-11.7-2.76-9.55-5.25-17.42-2.44-22.11C72.19,38.06,66.4,41,65.54,42.81Z"/><path class="cls-7" d="M49.62,29.51c-2.57,1.6-2.93,12.78-1.93,17.86a26.08,26.08,0,0,0,3.91,10c1.72,2.6,0-10.88-.51-14.34-.86-5.35-1.14-5.81.95-9.19C54.31,30.17,50.64,28.88,49.62,29.51Z"/><path class="cls-7" d="M87.32,43.83c-3.15,2.5-5.91,10.4-5.76,18.76.16,8.94,2.87,20.92,4.67,24.13,2.28,4.08.47-15.09.27-15.66-4-11.14-2.46-14.71,1.55-19.73C92.7,45.5,91.08,40.86,87.32,43.83Z"/><path class="cls-7" d="M36.76,28.16S34.9,21,39.1,18.45s6.36-3.7,6.44-6.41S45.06,1.8,43.21,4.11c-.63.78,1.66,6.83-1.88,9.71s-5,2.81-6.09,5.14C33.94,21.87,36.76,28.16,36.76,28.16Z"/><path class="cls-8" d="M52.66,11.78c1.14-.39,1.61-3.12.66-5.48-1-2.53-2.58-5.11-5-4.37-1.41.43-4.1,4-1.2,7.51C49.12,11.9,50.39,12.56,52.66,11.78Z"/><path class="cls-9" d="M51.37,5.71c.74,1.52,1.44,3.78-.19,4.16-.73.17-1.84-.69-2.58-2.21s-.79-3-.11-3.31A2.33,2.33,0,0,1,51.37,5.71Z"/><path class="cls-8" d="M39.47,13c-2.67,1.15-6.4-.73-7.42-3.79s-1.15-5.91.7-6.56S36.93,0,39.84,5.27C41.4,8.07,42.69,11.64,39.47,13Z"/><path class="cls-10" d="M37.75,7.05c-1.1-1.64-1.6-3.1-2.47-2.95-1.61.28-1.32,2.23-.84,4.16S36.1,11,37,11.1C38.92,11.34,39.29,9.37,37.75,7.05Z"/><path class="cls-8" d="M23.7,10.25c1.47,0,5,1.57,5.17,3.68.16,2.33.9,4.69-2.17,5.05-1.46.16-4.16-.6-5-4.49C21.32,12.45,22.24,10.23,23.7,10.25Z"/><path class="cls-9" d="M26.71,13.41c.93,1.05.91,3.07.45,3.55C26,18.15,24.71,16.6,24,15.4s-.68-2.58-.13-3S25.78,12.35,26.71,13.41Z"/><path class="cls-11" d="M45.75,42.72c.26-7.48-1.28-14.21-4.24-15.63-3.74-1.8-2.88,7.65-1.32,14.92a11,11,0,0,1,0,3c1.71-.29,3.4-.26,5.32-.48C45.47,44.18,45.74,43.08,45.75,42.72Z"/><path class="cls-12" d="M61.26,68.26s-21.75-4.6-26.17-3.21c.75,1.08.4,1.51.57,2.81,9.92-1.44,26.69,7.24,27.06,4.88A6.16,6.16,0,0,0,61.26,68.26Z"/><path class="cls-13" d="M34.79,63.32c-2,2.19-6.7,12.77-10.31,26.84-.83,3.23-1,4.15.28,5,2.41,1.73,2.1-8.11,4.6-6.45,1.4.94,7.2-22.31,7.3-22.16,1.11-1.48,2.29-3.67.65-4.73A19.56,19.56,0,0,0,34.79,63.32Z"/><path class="cls-14" d="M119.58,90.58c-7.93.1-4-29.45-4-29.52-1.54-1.16-4.14-5.84-5.08.64-1.16,5.57-.61,32.2,7.44,36.24,1.51.76,6.69.18,6.69.18S124.91,90.52,119.58,90.58Z"/><path class="cls-15" d="M15.1,53.83c-2.25.59-16.88.82-7.48,4.86,8,3.43,14.5,2.05,18.72,1,27.81-7.12,11.41-19.24,11.41-19.24S33.38,49,15.1,53.83Z"/><path class="cls-11" d="M36,42.7c3.3,8.37-24.07,15.73-28.19,15.35-4.85-.45,8.56,6.69,15.41,4.81S36.71,57.39,40.42,54c8.34-7.68,6-9.34,5-13.49C43.23,41.62,34.93,37.14,36,42.7Z"/><path class="cls-16" d="M3.37,28.3c-5.1,8.8-1.28,9.14,5.05,5.25s6.31-5.12,6.31-5.12S5.29,25,3.37,28.3Z"/><path class="cls-17" d="M35.9,27C26,31.26,25.32,45.24,21.73,35.19S27.55,25,27.55,25,38,26,35.9,27Z"/><path class="cls-18" d="M24.54,26.84c-5,5.42-12.06,16.93-12.51,6.39C11.72,26,16.68,25,16.68,25S26.06,25.2,24.54,26.84Z"/><path class="cls-19" d="M35.24,37.27c4.58-6.23,14.62-8.85,2-10.55-7.55-1-6.75,6.24-6.75,6.24S33.77,39.27,35.24,37.27Z"/><path class="cls-11" d="M45.33,26.54c-3.56-.15,1.59-5.09-12.12-5.81C16.76,19.86,6.65,25,1.71,27.86c-3.37,1.95,10,4.41,16,3.14,10.39-2.2,22.81,2.93,25.92,1.56C45.19,31.88,47,26.61,45.33,26.54Z"/></g></svg>