<?xml version="1.0" encoding="utf-8"?>
<!-- Generator: Adobe Illustrator 24.0.2, SVG Export Plug-In . SVG Version: 6.00 Build 0)  -->
<svg version="1.1" id="Layer_1" xmlns="http://www.w3.org/2000/svg" xmlns:xlink="http://www.w3.org/1999/xlink" x="0px" y="0px"
	 width="90px" height="150px" viewBox="0 0 90 150" style="enable-background:new 0 0 90 150;" xml:space="preserve">
<style type="text/css">
	.st0{opacity:0;fill:#FFFFFF;}
	.st1{fill:#202E35;stroke:#000000;stroke-width:0.75;stroke-miterlimit:10;}
	.st2{fill:#147C87;stroke:#000000;stroke-miterlimit:10;}
	.st3{clip-path:url(#SVGID_2_);fill:#FFC400;}
	.st4{clip-path:url(#SVGID_4_);fill:#FFC400;}
	.st5{clip-path:url(#SVGID_6_);fill:#FFC400;}
	.st6{fill:#0AFFCE;stroke:#000000;stroke-width:0.5;stroke-miterlimit:10;}
	.st7{fill:none;stroke:#000000;stroke-width:0.25;stroke-miterlimit:10;}
	.st8{fill:#147C87;stroke:#000000;stroke-width:0.75;stroke-miterlimit:10;}
</style>
<rect class="st0" width="90" height="150"/>
<g id="back_x5F_leg">
	<path class="st1" d="M17.9,86.6c1.8,2.4,20.7,8,24,5.3c3.3-2.7,4.3-5.6,2.1-7S24.2,76,21.8,76.5C19.1,77.1,16.4,84.6,17.9,86.6z"/>
	<path class="st2" d="M48.6,118.7l-6.8,0.4c-0.8,0-1.4-0.6-1.6-1.3l-2.6-20.3c0-0.8,0.6-1.4,1.3-1.6l10-0.5c0.8,0,1.4,0.6,1.6,1.3
		l-0.7,20.5C50,118,49.4,118.8,48.6,118.7z"/>
	<path class="st2" d="M39.6,98l9.5-0.2c0.9-0.1,1.6-0.9,1.5-1.8l-0.9-8.6c-0.1-0.9-0.9-1.6-1.8-1.5l-9.1,4.2
		c-0.9,0.1-1.6,0.9-1.5,1.8l0.4,4.6C37.8,97.4,38.6,97.9,39.6,98z"/>
	<g>
		<g>
			<g>
				<g>
					<g>
						<defs>
							<path id="SVGID_1_" d="M39.7,97.7l9-0.1c0.9-0.1,1.5-0.9,1.5-1.7l-0.8-8.2c-0.1-0.9-0.9-1.5-1.7-1.4l-8.6,3.9
								c-0.9,0.1-1.5,0.9-1.5,1.7l0.4,4.4C38.2,97.2,38.8,97.7,39.7,97.7z"/>
						</defs>
						<clipPath id="SVGID_2_">
							<use xlink:href="#SVGID_1_"  style="overflow:visible;"/>
						</clipPath>
						<polygon class="st3" points="46.3,99.5 50.6,98.5 49,83.4 43.4,83.9 						"/>
					</g>
				</g>
			</g>
		</g>
	</g>
	<path class="st2" d="M41.2,118.2c-1.1,0.9-2.5,4.6-1.6,5.8c0.9,1.2,16.3,3,18.2,2.2c2-0.8-2.1-6.2-5.1-6.5
		C49.9,119.3,41.2,118.2,41.2,118.2z"/>
</g>
<g id="body">
	<path class="st1" d="M26.6,31.5c-0.2,1-3.1,5.5-3.1,5.5s6.7,2.3,8.8,1.6c1.3-1.8,1.3-4.6,1.3-4.6L26.6,31.5z"/>
	<path class="st1" d="M17.5,63.5c0,3.3-1,13.7-1,13.7s9,2.1,12,1c0,0,2-8.3,2-10.4S17.5,63.5,17.5,63.5z"/>
	<path class="st2" d="M18.9,37.8C16,40,14.5,60.1,17,63.8s13.2,6.9,14.2,5.8s6.6-15,5.4-23.4C35.4,37.8,24.7,33.4,18.9,37.8z"/>
	<path class="st2" d="M16.6,75c1.9,0,10.5,1.2,12.4,3.5c0,1.8-1,8.8-3.8,11.6c-2.5,2.5-6.8,1.1-8.6,0C10.6,86.4,14.7,76.2,16.6,75z"
		/>
</g>
<g id="leg">
	<path class="st1" d="M14.5,84.3C13.8,87.7,23.1,109,28,110c4.8,1,8.2-0.3,7.8-3.5c-0.4-3.1-7.2-24.7-9.4-26.4
		C23.9,78,15.1,81.3,14.5,84.3z"/>
	<path class="st2" d="M20.6,141.8l-7.9-3c-0.9-0.4-1.4-1.3-1-2.3l7.2-24.5c0.4-0.9,1.3-1.4,2.3-1l11.6,4.4c0.9,0.4,1.4,1.3,1,2.3
		l-10.9,23.1C22.5,141.6,21.4,142.2,20.6,141.8z"/>
	<path class="st2" d="M21.6,112.6l11.2,3.8c1.2,0.3,2.3-0.4,2.6-1.6l2.5-10.5c0.3-1.2-0.4-2.3-1.6-2.6l-12.3,1
		c-1.2-0.3-2.3,0.4-2.6,1.6l-1.4,5.6C19.8,111.3,20.5,112.4,21.6,112.6z"/>
	<g>
		<g>
			<g>
				<g>
					<g>
						<defs>
							<path id="SVGID_3_" d="M22,112.5l10.6,3.6c1.1,0.3,2.2-0.3,2.4-1.4l2.4-9.9c0.3-1.1-0.5-2.1-1.4-2.4l-11.8,0.9
								c-1.1-0.3-2.2,0.3-2.4,1.4l-1.3,5.3C20.3,111.1,21,112.2,22,112.5z"/>
						</defs>
						<clipPath id="SVGID_4_">
							<use xlink:href="#SVGID_3_"  style="overflow:visible;"/>
						</clipPath>
						<polygon class="st4" points="28.9,117.4 34.4,118 38.8,99.6 32,97.8 						"/>
					</g>
				</g>
			</g>
		</g>
	</g>
	<path class="st2" d="M11.5,138.5c-1.2,1.2-2.4,6.1-1.2,7.3s20.5,1.2,22.9,0s-3.6-7.3-7.2-7.3S11.5,138.5,11.5,138.5z"/>
</g>
<g id="head">
	<path class="st2" d="M22.2,6c-6.4,4.4-5.1,22.5-2.4,25.8c3.7,3.4,21.6,5,25.9,2.4c4.4-3.6,6-21.5,2.4-25.8
		C44.5,3.5,31.8-0.7,22.2,6z"/>
	<g>
		<g>
			<g>
				<g>
					<g>
						<defs>
							<path id="SVGID_5_" d="M22.9,6.7C16.7,10.8,18,27.9,20.7,31c3.6,3.1,20.9,4.8,25.1,2.3C49.9,30,51.5,13.2,48,9.1
								C44.5,4.5,32.3,0.5,22.9,6.7z"/>
						</defs>
						<clipPath id="SVGID_6_">
							<use xlink:href="#SVGID_5_"  style="overflow:visible;"/>
						</clipPath>
						<polygon class="st5" points="23.5,34.6 20.5,34.3 23.4,3.5 41.9,5.2 44.5,12 41.7,13.1 39.8,8 26.1,6.7 						"/>
					</g>
				</g>
			</g>
		</g>
	</g>
	<path class="st6" d="M32.2,26.9c0,0,16.4,7.6,17.4-3.1c1-10.2,0.1-11.3,0.1-11.3l-5.8-2.6l-14-1.3L32.2,26.9z"/>
	<polyline class="st7" points="41.1,28.7 39.6,12.5 30.3,11.6 	"/>
	<path class="st8" d="M49.6,24.1L44.3,27l-11-1c0,0,0.5-5-3.5-5.4s-4.4,4.6-4.4,4.6s-0.4,4,1.5,5.2s20,7.5,21.5,6
		C50,35,49.6,24.1,49.6,24.1z"/>
	<g>
		<g>
			<path d="M44.1,30.8c-0.1,1-0.1,1.9-0.2,2.9c0,0.2,0.2,0.4,0.4,0.4s0.4-0.2,0.4-0.4c0-1,0.1-1.9,0.2-2.9c0-0.2-0.2-0.4-0.4-0.4
				C44.2,30.4,44.1,30.6,44.1,30.8L44.1,30.8z"/>
		</g>
	</g>
	<g>
		<g>
			<path d="M46.1,30.8c-0.1,1-0.1,1.9-0.2,2.9c0,0.2,0.2,0.4,0.4,0.4s0.4-0.2,0.4-0.4c0-1,0.1-1.9,0.2-2.9c0-0.2-0.2-0.4-0.4-0.4
				C46.2,30.4,46.1,30.6,46.1,30.8L46.1,30.8z"/>
		</g>
	</g>
</g>
</svg>
