<?xml version="1.0" encoding="utf-8"?>
<!-- Generator: Adobe Illustrator 24.0.2, SVG Export Plug-In . SVG Version: 6.00 Build 0)  -->
<svg version="1.1" id="Layer_1" xmlns="http://www.w3.org/2000/svg" xmlns:xlink="http://www.w3.org/1999/xlink" x="0px" y="0px"
	 width="90px" height="150px" viewBox="0 0 90 150" style="enable-background:new 0 0 90 150;" xml:space="preserve">
<style type="text/css">
	.st0{fill:#FFFFFF;fill-opacity:0;}
	.st1{fill:#202E35;stroke:#000000;stroke-width:0.75;stroke-miterlimit:10;}
	.st2{fill:#147C87;stroke:#000000;stroke-miterlimit:10;}
	.st3{clip-path:url(#SVGID_2_);fill:#FFC400;}
	.st4{clip-path:url(#SVGID_4_);fill:#FFC400;}
	.st5{clip-path:url(#SVGID_6_);fill:#FFC400;}
	.st6{fill:#0AFFCE;stroke:#000000;stroke-width:0.5;stroke-miterlimit:10;}
	.st7{fill:none;stroke:#000000;stroke-width:0.25;stroke-miterlimit:10;}
	.st8{fill:#147C87;stroke:#000000;stroke-width:0.75;stroke-miterlimit:10;}
</style>
<rect class="st0" width="90" height="150"/>
<g id="back_x5F_leg">
	<path class="st1" d="M14.5,83.4c-0.3,2.9,9.7,20,13.9,20.3s6.9-1.1,6.3-3.6s-8.4-20-10.5-21.3C21.9,77.3,14.8,80.9,14.5,83.4z"/>
	<path class="st2" d="M16.3,130.5l-5.4-4.1c-0.6-0.5-0.7-1.4-0.3-2l10.9-17.3c0.5-0.6,1.4-0.7,2-0.3l8,6c0.6,0.5,0.7,1.4,0.3,2
		l-13.6,15.3C17.8,130.8,16.9,131,16.3,130.5z"/>
	<path class="st2" d="M23,109.6l8.7,3.8c0.9,0.3,1.8-0.2,2.1-1l2.8-8.1c0.3-0.9-0.2-1.8-1-2.1h-10c-0.9-0.3-1.8,0.2-2.1,1l-1.5,4.3
		C21.6,108.4,22.1,109.3,23,109.6z"/>
	<g>
		<g>
			<g>
				<g>
					<g>
						<defs>
							<path id="SVGID_1_" d="M23.3,109.4l8.2,3.7c0.9,0.3,1.7-0.2,2.1-0.9l2.7-7.8c0.3-0.9-0.2-1.7-1-2l-9.4-0.1
								c-0.9-0.3-1.7,0.2-2.1,0.9l-1.5,4.1C22.1,108.3,22.4,109.1,23.3,109.4z"/>
						</defs>
						<clipPath id="SVGID_2_">
							<use xlink:href="#SVGID_1_"  style="overflow:visible;"/>
						</clipPath>
						<polygon class="st3" points="28.4,113.9 32.8,114.7 37.7,100.3 32.4,98.5 						"/>
					</g>
				</g>
			</g>
		</g>
	</g>
	<path class="st2" d="M9.9,124.6c-1.3,0.2-4.5,2.7-4.3,4.1c0.2,1.4,12.5,10.9,14.6,11.2s1.3-6.4-1-8.2S9.9,124.6,9.9,124.6z"/>
</g>
<g id="body">
	<path class="st1" d="M26.6,31.5c-0.2,1-3.1,5.5-3.1,5.5s6.7,2.3,8.8,1.6c1.3-1.8,1.3-4.6,1.3-4.6L26.6,31.5z"/>
	<path class="st1" d="M17.5,63.5c0,3.3-1,13.7-1,13.7s9,2.1,12,1c0,0,2-8.3,2-10.4S17.5,63.5,17.5,63.5z"/>
	<path class="st2" d="M18.9,37.8C16,40,14.5,60.1,17,63.8s13.2,6.9,14.2,5.8s6.6-15,5.4-23.4C35.4,37.8,24.7,33.4,18.9,37.8z"/>
	<path class="st2" d="M16.6,75c1.9,0,10.5,1.2,12.4,3.5c0,1.8-1,8.8-3.8,11.6c-2.5,2.5-6.8,1.1-8.6,0C10.6,86.4,14.7,76.2,16.6,75z"
		/>
</g>
<g id="leg">
	<path class="st1" d="M15.8,85.6c0.3,3.5,15.1,21.4,20.1,21.1s7.8-2.6,6.6-5.5S28.8,79.4,26.2,78.4C23.2,76.9,15.6,82.5,15.8,85.6z"
		/>
	<path class="st2" d="M36.3,142.2l-8.1-2.4c-1-0.3-1.5-1.2-1.2-2.2l5.1-25c0.3-1,1.2-1.5,2.2-1.2l11.9,3.5c1,0.3,1.5,1.2,1.2,2.2
		l-9,23.9C38.2,141.9,37.2,142.5,36.3,142.2z"/>
	<path class="st2" d="M33.1,114.2l11.8,0.8c1.2-0.1,2.1-1,2.1-2.2L46.8,102c-0.1-1.2-1-2.1-2.2-2.1L32.9,104c-1.2,0.1-2.1,1-2.1,2.2
		L31,112C31,113.3,32,114.2,33.1,114.2z"/>
	<g>
		<g>
			<g>
				<g>
					<g>
						<defs>
							<path id="SVGID_3_" d="M33.5,113.9l11.2,0.7c1.1,0,2-0.9,2-2l-0.2-10.2c0-1.1-1-1.9-2-2l-11.1,3.9c-1.1,0-2,0.9-2,2v5.4
								C31.4,113,32.4,113.9,33.5,113.9z"/>
						</defs>
						<clipPath id="SVGID_4_">
							<use xlink:href="#SVGID_3_"  style="overflow:visible;"/>
						</clipPath>
						<polygon class="st4" points="41.3,117 46.8,116.1 46.5,97.1 39.4,97.2 						"/>
					</g>
				</g>
			</g>
		</g>
	</g>
	<path class="st2" d="M27,138.5c-1.2,1.2-2.4,6.1-1.2,7.3c1.2,1.2,20.5,1.2,22.9,0s-3.6-7.3-7.2-7.3S27,138.5,27,138.5z"/>
</g>
<g id="head">
	<path class="st2" d="M22.2,6c-6.4,4.4-5.1,22.5-2.4,25.8c3.7,3.4,21.6,5,25.9,2.4c4.4-3.6,6-21.5,2.4-25.8
		C44.5,3.5,31.8-0.7,22.2,6z"/>
	<g>
		<g>
			<g>
				<g>
					<g>
						<defs>
							<path id="SVGID_5_" d="M22.9,6.7C16.7,10.8,18,27.9,20.7,31c3.6,3.1,20.9,4.8,25.1,2.3C49.9,30,51.5,13.2,48,9.1
								C44.5,4.5,32.3,0.5,22.9,6.7z"/>
						</defs>
						<clipPath id="SVGID_6_">
							<use xlink:href="#SVGID_5_"  style="overflow:visible;"/>
						</clipPath>
						<polygon class="st5" points="23.5,34.6 20.5,34.3 23.4,3.5 41.9,5.2 44.5,12 41.7,13.1 39.8,8 26.1,6.7 						"/>
					</g>
				</g>
			</g>
		</g>
	</g>
	<path class="st6" d="M32.2,26.9c0,0,16.4,7.6,17.4-3.1c1-10.2,0.1-11.3,0.1-11.3l-5.8-2.6l-14-1.3L32.2,26.9z"/>
	<polyline class="st7" points="41.1,28.7 39.6,12.5 30.3,11.6 	"/>
	<path class="st8" d="M49.6,24.1L44.3,27l-11-1c0,0,0.5-5-3.5-5.4s-4.4,4.6-4.4,4.6s-0.4,4,1.5,5.2s20,7.5,21.5,6
		C50,35,49.6,24.1,49.6,24.1z"/>
	<g>
		<g>
			<path d="M44.1,30.8c-0.1,1-0.1,1.9-0.2,2.9c0,0.2,0.2,0.4,0.4,0.4s0.4-0.2,0.4-0.4c0-1,0.1-1.9,0.2-2.9c0-0.2-0.2-0.4-0.4-0.4
				C44.2,30.4,44.1,30.6,44.1,30.8L44.1,30.8z"/>
		</g>
	</g>
	<g>
		<g>
			<path d="M46.1,30.8c-0.1,1-0.1,1.9-0.2,2.9c0,0.2,0.2,0.4,0.4,0.4s0.4-0.2,0.4-0.4c0-1,0.1-1.9,0.2-2.9c0-0.2-0.2-0.4-0.4-0.4
				C46.2,30.4,46.1,30.6,46.1,30.8L46.1,30.8z"/>
		</g>
	</g>
</g>
</svg>
