<?xml version="1.0" encoding="utf-8"?>
<!-- Generator: Adobe Illustrator 24.0.2, SVG Export Plug-In . SVG Version: 6.00 Build 0)  -->
<svg version="1.1" id="Layer_1" xmlns="http://www.w3.org/2000/svg" xmlns:xlink="http://www.w3.org/1999/xlink" x="0px" y="0px"
	 width="90px" height="150px" viewBox="0 0 90 150" style="enable-background:new 0 0 90 150;" xml:space="preserve">
<style type="text/css">
	.st0{opacity:0;fill:#FFFFFF;}
	.st1{fill:#202E35;stroke:#000000;stroke-width:0.75;stroke-miterlimit:10;}
	.st2{fill:#147C87;stroke:#000000;stroke-miterlimit:10;}
	.st3{clip-path:url(#SVGID_2_);fill:#FFC400;}
	.st4{clip-path:url(#SVGID_4_);fill:#FFC400;}
	.st5{clip-path:url(#SVGID_6_);fill:#FFC400;}
	.st6{fill:#0AFFCE;stroke:#000000;stroke-width:0.5;stroke-miterlimit:10;}
	.st7{fill:none;stroke:#000000;stroke-width:0.25;stroke-miterlimit:10;}
	.st8{fill:#147C87;stroke:#000000;stroke-width:0.75;stroke-miterlimit:10;}
</style>
<rect class="st0" width="90" height="150"/>
<g id="back_x5F_leg">
	<path class="st1" d="M18.7,86.7c0.3,3,13.8,17.5,17.9,16.8c4.2-0.6,6.5-2.6,5.4-4.9C40.8,96.3,29.5,81,27.1,80.1
		C24.6,79.2,18.4,84.3,18.7,86.7z"/>
	<path class="st2" d="M44.8,131.5l-6.8,0.3c-0.8,0-1.4-0.6-1.5-1.3l-2.6-20.3c0-0.8,0.6-1.4,1.3-1.5l10-0.5c0.8,0,1.4,0.6,1.5,1.3
		L46,130C46.2,130.8,45.6,131.5,44.8,131.5z"/>
	<path class="st2" d="M35.9,110.7l9.5-0.2c0.9-0.1,1.6-0.9,1.5-1.8l-0.8-8.6c-0.1-0.9-0.9-1.6-1.8-1.5l-9.1,4.1
		c-0.9,0.1-1.6,0.9-1.5,1.8l0.4,4.6C34.1,110.1,34.8,110.7,35.9,110.7z"/>
	<g>
		<g>
			<g>
				<g>
					<defs>
						<path id="SVGID_1_" d="M36,110.4l9-0.1c0.9-0.1,1.5-0.9,1.5-1.7l-0.8-8.2c-0.1-0.9-0.9-1.5-1.7-1.4l-8.6,3.9
							c-0.9,0.1-1.5,0.9-1.5,1.7l0.4,4.4C34.4,109.9,35.1,110.5,36,110.4z"/>
					</defs>
					<clipPath id="SVGID_2_">
						<use xlink:href="#SVGID_1_"  style="overflow:visible;"/>
					</clipPath>
					<polygon class="st3" points="42.5,112.3 46.8,111.2 45.3,96.1 39.7,96.6 					"/>
				</g>
			</g>
		</g>
	</g>
	<path class="st2" d="M36.9,131.9c-0.9,1-1.9,4.9-0.8,5.9c1,1,16.5,0.8,18.4-0.2s-3-5.9-5.9-5.8C45.7,131.8,36.9,131.9,36.9,131.9z"
		/>
</g>
<g id="body">
	<path class="st1" d="M26.6,31.5c-0.2,1-3.1,5.5-3.1,5.5s6.7,2.3,8.8,1.6c1.3-1.8,1.3-4.6,1.3-4.6L26.6,31.5z"/>
	<path class="st1" d="M17.5,63.5c0,3.3-1,13.7-1,13.7s9,2.1,12,1c0,0,2-8.3,2-10.4S17.5,63.5,17.5,63.5z"/>
	<path class="st2" d="M18.9,37.8C16,40,14.5,60.1,17,63.8s13.2,6.9,14.2,5.8s6.6-15,5.4-23.4C35.4,37.8,24.7,33.4,18.9,37.8z"/>
	<path class="st2" d="M16.6,75c1.9,0,10.5,1.2,12.4,3.5c0,1.8-1,8.8-3.8,11.6c-2.5,2.5-6.8,1.1-8.6,0C10.6,86.4,14.7,76.2,16.6,75z"
		/>
</g>
<g id="leg">
	<path class="st1" d="M14,83.2c-1.3,3.3,4,25.9,8.6,27.8s8.1,1.1,8.3-2s-2.6-25.6-4.5-27.7C24.5,78.7,15.2,80.4,14,83.2z"/>
	<path class="st2" d="M14.1,142.5L6.4,139c-0.9-0.4-1.3-1.4-0.9-2.3l8.6-24c0.4-0.9,1.4-1.3,2.3-0.9l11.3,5.1
		c0.9,0.4,1.3,1.4,0.9,2.3l-12.3,22.4C16,142.5,14.9,142.9,14.1,142.5z"/>
	<path class="st2" d="M16.9,113.5l10.9,4.5c1.2,0.3,2.3-0.2,2.6-1.4l3.2-10.3c0.3-1.2-0.2-2.3-1.4-2.6L19.8,104
		c-1.2-0.3-2.3,0.2-2.6,1.4l-1.7,5.5C15.2,112,15.8,113.2,16.9,113.5z"/>
	<g>
		<g>
			<g>
				<g>
					<defs>
						<path id="SVGID_3_" d="M17.3,113.3l10.4,4.2c1,0.4,2.2-0.2,2.5-1.3l3-9.7c0.4-1-0.3-2.1-1.3-2.5l-11.8,0.2
							c-1-0.4-2.2,0.2-2.5,1.3l-1.7,5.2C15.6,111.9,16.3,113,17.3,113.3z"/>
					</defs>
					<clipPath id="SVGID_4_">
						<use xlink:href="#SVGID_3_"  style="overflow:visible;"/>
					</clipPath>
					<polygon class="st4" points="23.8,118.7 29.3,119.6 34.9,101.5 28.2,99.3 					"/>
				</g>
			</g>
		</g>
	</g>
	<path class="st2" d="M4.2,138.5c-1.2,1.2-2.4,6.1-1.2,7.3s20.5,1.2,22.9,0s-3.6-7.3-7.2-7.3S4.2,138.5,4.2,138.5z"/>
</g>
<g id="head">
	<path class="st2" d="M22.2,6c-6.4,4.4-5.1,22.5-2.4,25.8c3.7,3.4,21.6,5,25.9,2.4c4.4-3.6,6-21.5,2.4-25.8
		C44.5,3.5,31.8-0.7,22.2,6z"/>
	<g>
		<g>
			<g>
				<g>
					<defs>
						<path id="SVGID_5_" d="M22.9,6.7C16.7,10.8,18,27.9,20.7,31c3.6,3.1,20.9,4.8,25.1,2.3C49.9,30,51.5,13.2,48,9.1
							C44.5,4.5,32.3,0.5,22.9,6.7z"/>
					</defs>
					<clipPath id="SVGID_6_">
						<use xlink:href="#SVGID_5_"  style="overflow:visible;"/>
					</clipPath>
					<polygon class="st5" points="23.5,34.6 20.5,34.3 23.4,3.5 41.9,5.2 44.5,12 41.7,13.1 39.8,8 26.1,6.7 					"/>
				</g>
			</g>
		</g>
	</g>
	<path class="st6" d="M32.2,26.9c0,0,16.4,7.6,17.4-3.1c1-10.2,0.1-11.3,0.1-11.3l-5.8-2.6l-14-1.3L32.2,26.9z"/>
	<polyline class="st7" points="41.1,28.7 39.6,12.5 30.3,11.6 	"/>
	<path class="st8" d="M49.6,24.1L44.3,27l-11-1c0,0,0.5-5-3.5-5.4s-4.4,4.6-4.4,4.6s-0.4,4,1.5,5.2s20,7.5,21.5,6
		C50,35,49.6,24.1,49.6,24.1z"/>
	<g>
		<g>
			<path d="M44.1,30.8c-0.1,1-0.1,1.9-0.2,2.9c0,0.2,0.2,0.4,0.4,0.4s0.4-0.2,0.4-0.4c0-1,0.1-1.9,0.2-2.9c0-0.2-0.2-0.4-0.4-0.4
				C44.2,30.4,44.1,30.6,44.1,30.8L44.1,30.8z"/>
		</g>
	</g>
	<g>
		<g>
			<path d="M46.1,30.8c-0.1,1-0.1,1.9-0.2,2.9c0,0.2,0.2,0.4,0.4,0.4s0.4-0.2,0.4-0.4c0-1,0.1-1.9,0.2-2.9c0-0.2-0.2-0.4-0.4-0.4
				C46.2,30.4,46.1,30.6,46.1,30.8L46.1,30.8z"/>
		</g>
	</g>
</g>
</svg>
