<?xml version="1.0" encoding="utf-8"?>
<!-- Generator: Adobe Illustrator 24.0.2, SVG Export Plug-In . SVG Version: 6.00 Build 0)  -->
<svg version="1.1" id="Layer_1" xmlns="http://www.w3.org/2000/svg" xmlns:xlink="http://www.w3.org/1999/xlink" x="0px" y="0px"
	 width="90px" height="150px" viewBox="0 0 90 150" style="enable-background:new 0 0 90 150;" xml:space="preserve">
<style type="text/css">
	.st0{fill:#FFFFFF;fill-opacity:0;}
	.st1{fill:#202E35;stroke:#000000;stroke-width:0.75;stroke-miterlimit:10;}
	.st2{fill:#147C87;stroke:#000000;stroke-miterlimit:10;}
	.st3{clip-path:url(#SVGID_2_);fill:#FFC400;}
	.st4{clip-path:url(#SVGID_4_);fill:#FFC400;}
	.st5{clip-path:url(#SVGID_6_);fill:#FFC400;}
	.st6{fill:#0AFFCE;stroke:#000000;stroke-width:0.5;stroke-miterlimit:10;}
	.st7{fill:none;stroke:#000000;stroke-width:0.25;stroke-miterlimit:10;}
	.st8{fill:#147C87;stroke:#000000;stroke-width:0.75;stroke-miterlimit:10;}
</style>
<rect class="st0" width="90" height="150"/>
<g id="back_x5F_leg">
	<path class="st1" d="M16.5,85.4c1.1,2.7,17.8,13.3,21.7,11.7s5.6-4.1,3.9-6.1C40.4,89,25.4,77.1,23,76.9
		C20.3,76.6,15.6,83.1,16.5,85.4z"/>
	<path class="st2" d="M39.8,126.5l-6.7-1.1c-0.7-0.2-1.3-0.9-1.2-1.6l1.8-20.3c0.2-0.7,0.9-1.3,1.6-1.2l9.9,1.7
		c0.7,0.2,1.3,0.9,1.2,1.6l-5,19.8C41.3,126.1,40.5,126.6,39.8,126.5z"/>
	<path class="st2" d="M36.2,104.9l9.4-0.6c0.9-0.2,1.5-1,1.4-1.9l-1.3-8.5c-0.2-0.9-1-1.5-1.9-1.4l-8.9,4.6c-0.9,0.2-1.5,1-1.4,1.9
		l0.6,4.6C34.3,104.4,35.2,104.9,36.2,104.9z"/>
	<g>
		<g>
			<g>
				<g>
					<g>
						<g>
							<defs>
								<path id="SVGID_1_" d="M36.3,104.5l9-0.5c0.9-0.2,1.4-1,1.4-1.8l-1.2-8.1c-0.2-0.9-1-1.4-1.8-1.3l-8.4,4.3
									c-0.9,0.2-1.4,1-1.4,1.8l0.6,4.4C34.7,104.1,35.4,104.7,36.3,104.5z"/>
							</defs>
							<clipPath id="SVGID_2_">
								<use xlink:href="#SVGID_1_"  style="overflow:visible;"/>
							</clipPath>
							<polygon class="st3" points="42.9,106.2 47.1,104.9 44.9,89.8 39.4,90.7 							"/>
						</g>
					</g>
				</g>
			</g>
		</g>
	</g>
	<path class="st2" d="M32.7,122c-1.3,0.4-4,3.4-3.7,4.7c0.4,1.4,13.9,8.9,16.1,8.9c2.1,0,0.3-6.6-2.2-8S32.7,122,32.7,122z"/>
</g>
<g id="body">
	<path class="st1" d="M26.6,31.5c-0.2,1-3.1,5.5-3.1,5.5s6.7,2.3,8.8,1.6c1.3-1.8,1.3-4.6,1.3-4.6L26.6,31.5z"/>
	<path class="st1" d="M17.5,63.5c0,3.3-1,13.7-1,13.7s9,2.1,12,1c0,0,2-8.3,2-10.4S17.5,63.5,17.5,63.5z"/>
	<path class="st2" d="M18.9,37.8C16,40,14.5,60.1,17,63.8s13.2,6.9,14.2,5.8s6.6-15,5.4-23.4C35.4,37.8,24.7,33.4,18.9,37.8z"/>
	<path class="st2" d="M16.6,75c1.9,0,10.5,1.2,12.4,3.5c0,1.8-1,8.8-3.8,11.6c-2.5,2.5-6.8,1.1-8.6,0C10.6,86.4,14.7,76.2,16.6,75z"
		/>
</g>
<g id="leg">
	<path class="st1" d="M14.9,84.7c-0.4,3.5,10.9,23.8,15.8,24.3c4.9,0.6,8.1-1.1,7.4-4.2c-0.7-3-9.5-23.9-11.8-25.4
		C23.7,77.6,15.2,81.7,14.9,84.7z"/>
	<path class="st2" d="M34.8,141.7l-8.4-0.5c-1-0.1-1.7-0.8-1.6-1.9l-0.5-25.5c0.1-1,0.8-1.7,1.9-1.6l12.4,0.7c1,0.1,1.7,0.8,1.6,1.9
		L36.7,140C36.6,140.9,35.7,141.8,34.8,141.7z"/>
	<path class="st2" d="M27,113.6l11.8,0.2c1.2-0.1,2.1-1.1,2-2.3L40,100.7c-0.1-1.2-1.1-2.1-2.3-2l-11.4,4.7c-1.2,0.1-2.1,1.1-2,2.3
		l0.4,5.8C24.8,112.9,25.8,113.7,27,113.6z"/>
	<g>
		<g>
			<g>
				<g>
					<g>
						<g>
							<defs>
								<path id="SVGID_3_" d="M27.3,113.3l11.2,0.2c1.1,0,2-1,1.9-2.1l-0.7-10.2c0-1.1-1.1-1.9-2.1-1.9l-11,4.4c-1.1,0-2,1-1.9,2.1
									l0.4,5.4C25.3,112.5,26.3,113.4,27.3,113.3z"/>
							</defs>
							<clipPath id="SVGID_4_">
								<use xlink:href="#SVGID_3_"  style="overflow:visible;"/>
							</clipPath>
							<polygon class="st4" points="35.4,115.9 40.8,114.8 39.4,96 32.4,96.3 							"/>
						</g>
					</g>
				</g>
			</g>
		</g>
	</g>
	<path class="st2" d="M24.4,138.5c-1.2,1.2-2.4,6.1-1.2,7.3c1.2,1.2,20.5,1.2,22.9,0s-3.6-7.3-7.2-7.3
		C35.3,138.5,24.4,138.5,24.4,138.5z"/>
</g>
<g id="head">
	<path class="st2" d="M22.2,6c-6.4,4.4-5.1,22.5-2.4,25.8c3.7,3.4,21.6,5,25.9,2.4c4.4-3.6,6-21.5,2.4-25.8
		C44.5,3.5,31.8-0.7,22.2,6z"/>
	<g>
		<g>
			<g>
				<g>
					<g>
						<g>
							<defs>
								<path id="SVGID_5_" d="M22.9,6.7C16.7,10.8,18,27.9,20.7,31c3.6,3.1,20.9,4.8,25.1,2.3C49.9,30,51.5,13.2,48,9.1
									C44.5,4.5,32.3,0.5,22.9,6.7z"/>
							</defs>
							<clipPath id="SVGID_6_">
								<use xlink:href="#SVGID_5_"  style="overflow:visible;"/>
							</clipPath>
							<polygon class="st5" points="23.5,34.6 20.5,34.3 23.4,3.5 41.9,5.2 44.5,12 41.7,13.1 39.8,8 26.1,6.7 							"/>
						</g>
					</g>
				</g>
			</g>
		</g>
	</g>
	<path class="st6" d="M32.2,26.9c0,0,16.4,7.6,17.4-3.1c1-10.2,0.1-11.3,0.1-11.3l-5.8-2.6l-14-1.3L32.2,26.9z"/>
	<polyline class="st7" points="41.1,28.7 39.6,12.5 30.3,11.6 	"/>
	<path class="st8" d="M49.6,24.1L44.3,27l-11-1c0,0,0.5-5-3.5-5.4s-4.4,4.6-4.4,4.6s-0.4,4,1.5,5.2s20,7.5,21.5,6
		C50,35,49.6,24.1,49.6,24.1z"/>
	<g>
		<g>
			<path d="M44.1,30.8c-0.1,1-0.1,1.9-0.2,2.9c0,0.2,0.2,0.4,0.4,0.4s0.4-0.2,0.4-0.4c0-1,0.1-1.9,0.2-2.9c0-0.2-0.2-0.4-0.4-0.4
				C44.2,30.4,44.1,30.6,44.1,30.8L44.1,30.8z"/>
		</g>
	</g>
	<g>
		<g>
			<path d="M46.1,30.8c-0.1,1-0.1,1.9-0.2,2.9c0,0.2,0.2,0.4,0.4,0.4s0.4-0.2,0.4-0.4c0-1,0.1-1.9,0.2-2.9c0-0.2-0.2-0.4-0.4-0.4
				C46.2,30.4,46.1,30.6,46.1,30.8L46.1,30.8z"/>
		</g>
	</g>
</g>
</svg>
