<?xml version="1.0" encoding="utf-8"?>
<!-- Generator: Adobe Illustrator 24.0.2, SVG Export Plug-In . SVG Version: 6.00 Build 0)  -->
<svg version="1.1" id="Layer_1" xmlns="http://www.w3.org/2000/svg" xmlns:xlink="http://www.w3.org/1999/xlink" x="0px" y="0px"
	 width="90px" height="150px" viewBox="0 0 90 150" style="enable-background:new 0 0 90 150;" xml:space="preserve">
<style type="text/css">
	.st0{opacity:0;fill:#FFFFFF;}
	.st1{fill:#202E35;stroke:#000000;stroke-width:0.75;stroke-miterlimit:10;}
	.st2{fill:#147C87;stroke:#000000;stroke-miterlimit:10;}
	.st3{clip-path:url(#SVGID_2_);fill:#FFC400;}
	.st4{clip-path:url(#SVGID_4_);fill:#FFC400;}
	.st5{clip-path:url(#SVGID_6_);fill:#FFC400;}
	.st6{fill:#0AFFCE;stroke:#000000;stroke-width:0.5;stroke-miterlimit:10;}
	.st7{fill:none;stroke:#000000;stroke-width:0.25;stroke-miterlimit:10;}
	.st8{fill:#147C87;stroke:#000000;stroke-width:0.75;stroke-miterlimit:10;}
</style>
<rect class="st0" width="90" height="150"/>
<g id="back_x5F_leg">
	<path class="st1" d="M16.1,82.8c-1,2.8,4.7,21.7,8.7,22.9c4,1.3,7,0.6,7-2s-3.5-21.3-5.2-23.1C24.7,78.6,17,80.4,16.1,82.8z"/>
	<path class="st2" d="M22.4,134.2l-6.5-2.1c-0.8-0.3-1.1-1-1-1.7l4.5-20c0.3-0.8,1-1.1,1.7-1l9.6,3c0.8,0.3,1.1,1,1,1.7l-7.7,19
		C24,134,23.2,134.5,22.4,134.2z"/>
	<path class="st2" d="M21.2,111.6l9,3.1c0.9,0.2,1.8-0.3,2-1.2l2.2-8.3c0.2-0.9-0.3-1.8-1.2-2l-10,0.7c-0.9-0.2-1.8,0.3-2,1.2
		l-1.2,4.5C19.7,110.4,20.2,111.2,21.2,111.6z"/>
	<g>
		<g>
			<g>
				<g>
					<g>
						<defs>
							<path id="SVGID_1_" d="M21.4,111.4l8.5,3c0.9,0.2,1.7-0.3,2-1.1l2.1-8c0.2-0.9-0.3-1.7-1.1-1.9l-9.4,0.7
								c-0.9-0.2-1.7,0.3-2,1.1l-1.1,4.3C20.1,110.3,20.5,111.1,21.4,111.4z"/>
						</defs>
						<clipPath id="SVGID_2_">
							<use xlink:href="#SVGID_1_"  style="overflow:visible;"/>
						</clipPath>
						<polygon class="st3" points="26.9,115.4 31.3,115.8 35.1,101.1 29.6,99.7 						"/>
					</g>
				</g>
			</g>
		</g>
	</g>
	<path class="st2" d="M12.9,131.9c-0.9,1-1.9,4.9-0.8,5.9c1,1,16.5,0.8,18.4-0.2s-3-5.9-5.9-5.8C21.7,131.8,12.9,131.9,12.9,131.9z"
		/>
</g>
<g id="body">
	<path class="st1" d="M26.6,31.5c-0.2,1-3.1,5.5-3.1,5.5s6.7,2.3,8.8,1.6c1.3-1.8,1.3-4.6,1.3-4.6L26.6,31.5z"/>
	<path class="st1" d="M17.5,63.5c0,3.3-1,13.7-1,13.7s9,2.1,12,1c0,0,2-8.3,2-10.4S17.5,63.5,17.5,63.5z"/>
	<path class="st2" d="M18.9,37.8C16,40,14.5,60.1,17,63.8s13.2,6.9,14.2,5.8s6.6-15,5.4-23.4C35.4,37.8,24.7,33.4,18.9,37.8z"/>
	<path class="st2" d="M16.6,75c1.9,0,10.5,1.2,12.4,3.5c0,1.8-1,8.8-3.8,11.6c-2.5,2.5-6.8,1.1-8.6,0C10.6,86.4,14.7,76.2,16.6,75z"
		/>
</g>
<g id="leg">
	<path class="st1" d="M19,87.2c2.2,2.8,24.4,9.6,28.3,6.7s5.1-6.4,2.5-8.2C47.3,83.9,26.5,75,23.6,75.6C20.4,75.9,17.2,84.7,19,87.2
		z"/>
	<path class="st2" d="M50.3,129h-8.5c-1,0-1.8-0.8-1.7-1.7l-1.9-25.4c0-1,0.8-1.8,1.7-1.7h12.4c1,0,1.8,0.8,1.7,1.7l-2.1,25.4
		C52.1,128.2,51.2,129,50.3,129z"/>
	<path class="st2" d="M41.1,101.3l11.8-0.3c1.2-0.2,2.1-1.1,1.8-2.3L53.5,88c-0.2-1.2-1.1-2.1-2.3-1.8L40,91.5
		c-1.2,0.2-2.1,1.1-1.8,2.3l0.7,5.7C39,100.7,40,101.6,41.1,101.3z"/>
	<g>
		<g>
			<g>
				<g>
					<g>
						<defs>
							<path id="SVGID_3_" d="M41.5,101.1l11.2-0.4c1.1,0,2-1.1,1.7-2.2l-1.2-10.1c0-1.1-1.1-1.8-2.2-1.7l-10.7,5
								c-1.1,0-2,1.1-1.7,2.2l0.5,5.4C39.3,100.4,40.4,101.1,41.5,101.1z"/>
						</defs>
						<clipPath id="SVGID_4_">
							<use xlink:href="#SVGID_3_"  style="overflow:visible;"/>
						</clipPath>
						<polygon class="st4" points="49.6,103.3 54.9,101.9 52.7,83.1 45.8,83.8 						"/>
					</g>
				</g>
			</g>
		</g>
	</g>
	<path class="st2" d="M40.2,128.1c-1.4,1-3.1,5.8-2,7.1c1,1.4,20.2,3.5,22.8,2.5s-2.8-7.7-6.4-8C51,129.4,40.2,128.1,40.2,128.1z"/>
</g>
<g id="head">
	<path class="st2" d="M22.2,6c-6.4,4.4-5.1,22.5-2.4,25.8c3.7,3.4,21.6,5,25.9,2.4c4.4-3.6,6-21.5,2.4-25.8
		C44.5,3.5,31.8-0.7,22.2,6z"/>
	<g>
		<g>
			<g>
				<g>
					<g>
						<defs>
							<path id="SVGID_5_" d="M22.9,6.7C16.7,10.8,18,27.9,20.7,31c3.6,3.1,20.9,4.8,25.1,2.3C49.9,30,51.5,13.2,48,9.1
								C44.5,4.5,32.3,0.5,22.9,6.7z"/>
						</defs>
						<clipPath id="SVGID_6_">
							<use xlink:href="#SVGID_5_"  style="overflow:visible;"/>
						</clipPath>
						<polygon class="st5" points="23.5,34.6 20.5,34.3 23.4,3.5 41.9,5.2 44.5,12 41.7,13.1 39.8,8 26.1,6.7 						"/>
					</g>
				</g>
			</g>
		</g>
	</g>
	<path class="st6" d="M32.2,26.9c0,0,16.4,7.6,17.4-3.1c1-10.2,0.1-11.3,0.1-11.3l-5.8-2.6l-14-1.3L32.2,26.9z"/>
	<polyline class="st7" points="41.1,28.7 39.6,12.5 30.3,11.6 	"/>
	<path class="st8" d="M49.6,24.1L44.3,27l-11-1c0,0,0.5-5-3.5-5.4s-4.4,4.6-4.4,4.6s-0.4,4,1.5,5.2s20,7.5,21.5,6
		C50,35,49.6,24.1,49.6,24.1z"/>
	<g>
		<g>
			<path d="M44.1,30.8c-0.1,1-0.1,1.9-0.2,2.9c0,0.2,0.2,0.4,0.4,0.4s0.4-0.2,0.4-0.4c0-1,0.1-1.9,0.2-2.9c0-0.2-0.2-0.4-0.4-0.4
				C44.2,30.4,44.1,30.6,44.1,30.8L44.1,30.8z"/>
		</g>
	</g>
	<g>
		<g>
			<path d="M46.1,30.8c-0.1,1-0.1,1.9-0.2,2.9c0,0.2,0.2,0.4,0.4,0.4s0.4-0.2,0.4-0.4c0-1,0.1-1.9,0.2-2.9c0-0.2-0.2-0.4-0.4-0.4
				C46.2,30.4,46.1,30.6,46.1,30.8L46.1,30.8z"/>
		</g>
	</g>
</g>
</svg>
