<?xml version="1.0" encoding="utf-8"?>
<!-- Generator: Adobe Illustrator 24.0.2, SVG Export Plug-In . SVG Version: 6.00 Build 0)  -->
<svg version="1.1" id="Layer_1" xmlns="http://www.w3.org/2000/svg" xmlns:xlink="http://www.w3.org/1999/xlink" x="0px" y="0px"
	 width="90px" height="150px" viewBox="0 0 90 150" style="enable-background:new 0 0 90 150;" xml:space="preserve">
<style type="text/css">
	.st0{fill:#202E35;stroke:#000000;stroke-width:0.75;stroke-miterlimit:10;}
	.st1{fill:#147C87;stroke:#000000;stroke-miterlimit:10;}
	.st2{clip-path:url(#SVGID_2_);fill:#FFC400;}
	.st3{clip-path:url(#SVGID_4_);fill:#FFC400;}
	.st4{clip-path:url(#SVGID_6_);fill:#FFC400;}
	.st5{fill:#0AFFCE;stroke:#000000;stroke-width:0.5;stroke-miterlimit:10;}
	.st6{fill:none;stroke:#000000;stroke-width:0.25;stroke-miterlimit:10;}
	.st7{fill:#147C87;stroke:#000000;stroke-width:0.75;stroke-miterlimit:10;}
	.st8{opacity:0;fill:#FFFFFF;}
</style>
<g id="back_x5F_leg">
	<path class="st0" d="M18.3,86.5c0,3,12,18.7,16.2,18.4c4.2-0.2,6.8-1.9,5.8-4.4c-0.9-2.4-10.7-18.8-13-19.8
		C24.9,79.5,18.3,84,18.3,86.5z"/>
	<path class="st1" d="M34.3,133.1l-6.6-1.7c-0.8-0.2-1.2-1-1.1-1.7l3.4-20.2c0.2-0.8,1-1.2,1.7-1.1l9.7,2.4c0.8,0.2,1.2,1,1.1,1.7
		L35.9,132C35.9,132.9,35.1,133.3,34.3,133.1z"/>
	<path class="st1" d="M31.8,110.6l9.1,2.6c0.9,0.2,1.8-0.4,2-1.3l1.7-8.5c0.2-0.9-0.4-1.8-1.3-2l-9.9,1.3c-0.9-0.2-1.8,0.4-2,1.3
		l-1,4.5C30.3,109.5,30.8,110.3,31.8,110.6z"/>
	<g>
		<g>
			<g>
				<g>
					<defs>
						<path id="SVGID_1_" d="M32,110.4l8.6,2.5c0.9,0.2,1.7-0.4,1.9-1.2l1.6-8.1c0.2-0.9-0.4-1.7-1.2-1.8l-9.4,1.2
							c-0.9-0.2-1.7,0.4-1.9,1.2l-0.9,4.3C30.6,109.4,31.1,110.2,32,110.4z"/>
					</defs>
					<clipPath id="SVGID_2_">
						<use xlink:href="#SVGID_1_"  style="overflow:visible;"/>
					</clipPath>
					<polygon class="st2" points="37.7,114.1 42.1,114.3 45.1,99.4 39.6,98.2 					"/>
				</g>
			</g>
		</g>
	</g>
	<path class="st1" d="M25.9,131.9c-0.9,1-1.9,4.9-0.8,5.9c1,1,16.5,0.8,18.4-0.2s-3-5.9-5.9-5.8C34.7,131.8,25.9,131.9,25.9,131.9z"
		/>
</g>
<g id="body">
	<path class="st0" d="M26.6,31.5c-0.2,1-3.1,5.5-3.1,5.5s6.7,2.3,8.8,1.6c1.3-1.8,1.3-4.6,1.3-4.6L26.6,31.5z"/>
	<path class="st0" d="M17.5,63.5c0,3.3-1,13.7-1,13.7s9,2.1,12,1c0,0,2-8.3,2-10.4S17.5,63.5,17.5,63.5z"/>
	<path class="st1" d="M18.9,37.8C16,40,14.5,60.1,17,63.8s13.2,6.9,14.2,5.8s6.6-15,5.4-23.4C35.4,37.8,24.7,33.4,18.9,37.8z"/>
	<path class="st1" d="M16.6,75c1.9,0,10.5,1.2,12.4,3.5c0,1.8-1,8.8-3.8,11.6c-2.5,2.5-6.8,1.1-8.6,0C10.6,86.4,14.7,76.2,16.6,75z"
		/>
</g>
<g id="leg">
	<path class="st0" d="M15.2,84.9C15,88.5,27,108.3,32,108.7s8-1.4,7.3-4.5c-0.8-3-10.4-23.6-12.8-25C23.8,77.4,15.5,81.9,15.2,84.9z
		"/>
	<path class="st1" d="M25.1,140.6l-8-2.7c-0.9-0.3-1.4-1.3-1.1-2.2l6.1-24.7c0.3-0.9,1.3-1.4,2.2-1.1l11.8,3.9
		c0.9,0.3,1.4,1.3,1.1,2.2l-10,23.5C27,140.4,26,140.9,25.1,140.6z"/>
	<path class="st1" d="M25,111.4l11.3,3.4c1.2,0.2,2.3-0.4,2.4-1.7l2.1-10.6c0.2-1.2-0.4-2.3-1.7-2.4l-12.3,1.6
		c-1.2-0.2-2.3,0.4-2.4,1.7l-1.1,5.6C23.1,110.1,23.9,111.2,25,111.4z"/>
	<g>
		<g>
			<g>
				<g>
					<defs>
						<path id="SVGID_3_" d="M25.4,111.2l10.8,3.1c1,0.3,2.2-0.4,2.4-1.5l2-10c0.3-1-0.5-2.1-1.5-2.4l-11.7,1.4
							c-1-0.3-2.2,0.4-2.4,1.5l-1.2,5.3C23.5,110,24.3,111,25.4,111.2z"/>
					</defs>
					<clipPath id="SVGID_4_">
						<use xlink:href="#SVGID_3_"  style="overflow:visible;"/>
					</clipPath>
					<polygon class="st3" points="32.4,115.9 37.9,116.2 41.7,97.7 34.8,96.2 					"/>
				</g>
			</g>
		</g>
	</g>
	<path class="st1" d="M15.7,136.6c-1.4,1-3.3,5.7-2.3,7c1,1.4,20.1,4.2,22.6,3.4c2.6-0.8-2.5-7.8-6-8.3S15.7,136.6,15.7,136.6z"/>
</g>
<g id="head">
	<path class="st1" d="M22.2,6c-6.4,4.4-5.1,22.5-2.4,25.8c3.7,3.4,21.6,5,25.9,2.4c4.4-3.6,6-21.5,2.4-25.8
		C44.5,3.5,31.8-0.7,22.2,6z"/>
	<g>
		<g>
			<g>
				<g>
					<defs>
						<path id="SVGID_5_" d="M22.9,6.7C16.7,10.8,18,27.9,20.7,31c3.6,3.1,20.9,4.8,25.1,2.3C49.9,30,51.5,13.2,48,9.1
							C44.5,4.5,32.3,0.5,22.9,6.7z"/>
					</defs>
					<clipPath id="SVGID_6_">
						<use xlink:href="#SVGID_5_"  style="overflow:visible;"/>
					</clipPath>
					<polygon class="st4" points="23.5,34.6 20.5,34.3 23.4,3.5 41.9,5.2 44.5,12 41.7,13.1 39.8,8 26.1,6.7 					"/>
				</g>
			</g>
		</g>
	</g>
	<path class="st5" d="M32.2,26.9c0,0,16.4,7.6,17.4-3.1c1-10.2,0.1-11.3,0.1-11.3l-5.8-2.6l-14-1.3L32.2,26.9z"/>
	<polyline class="st6" points="41.1,28.7 39.6,12.5 30.3,11.6 	"/>
	<path class="st7" d="M49.6,24.1L44.3,27l-11-1c0,0,0.5-5-3.5-5.4s-4.4,4.6-4.4,4.6s-0.4,4,1.5,5.2s20,7.5,21.5,6
		C50,35,49.6,24.1,49.6,24.1z"/>
	<g>
		<g>
			<path d="M44.1,30.8c-0.1,1-0.1,1.9-0.2,2.9c0,0.2,0.2,0.4,0.4,0.4s0.4-0.2,0.4-0.4c0-1,0.1-1.9,0.2-2.9c0-0.2-0.2-0.4-0.4-0.4
				C44.2,30.4,44.1,30.6,44.1,30.8L44.1,30.8z"/>
		</g>
	</g>
	<g>
		<g>
			<path d="M46.1,30.8c-0.1,1-0.1,1.9-0.2,2.9c0,0.2,0.2,0.4,0.4,0.4s0.4-0.2,0.4-0.4c0-1,0.1-1.9,0.2-2.9c0-0.2-0.2-0.4-0.4-0.4
				C46.2,30.4,46.1,30.6,46.1,30.8L46.1,30.8z"/>
		</g>
	</g>
</g>
<rect class="st8" width="90" height="150"/>
</svg>
