<?xml version="1.0" standalone="no"?>
<!DOCTYPE svg PUBLIC "-//W3C//DTD SVG 20010904//EN"
 "http://www.w3.org/TR/2001/REC-SVG-20010904/DTD/svg10.dtd">
<svg version="1.0" xmlns="http://www.w3.org/2000/svg"
 width="1000.000000pt" height="1000.000000pt" viewBox="0 0 1000.000000 1000.000000"
 preserveAspectRatio="xMidYMid meet">

<g transform="translate(0.000000,1000.000000) scale(0.100000,-0.100000)"
fill="#000000" stroke="none">
<path d="M5921 8390 c2 -54 4 -60 23 -59 12 0 15 3 9 6 -8 3 -13 25 -13 59 0
31 -4 54 -11 54 -6 0 -9 -23 -8 -60z"/>
<path d="M5977 8322 c6 -4 19 -21 27 -37 9 -17 16 -23 16 -15 0 21 -28 60 -43
60 -9 0 -9 -2 0 -8z"/>
<path d="M5855 8300 c-10 -11 -16 -22 -14 -24 2 -2 12 7 22 20 22 29 17 32 -8
4z"/>
<path d="M6023 8205 c0 -27 2 -38 4 -22 2 15 2 37 0 50 -2 12 -4 0 -4 -28z"/>
<path d="M5655 8188 c-4 -9 -4 -22 0 -28 4 -6 -7 -23 -24 -39 -18 -17 -31 -39
-31 -53 0 -21 1 -21 16 7 8 16 21 33 27 37 23 15 56 8 71 -14 13 -18 16 -19
16 -6 0 20 -26 48 -45 48 -8 0 -12 6 -9 14 3 8 1 23 -4 33 -10 17 -11 17 -17
1z"/>
<path d="M6020 8044 c-4 -61 -10 -87 -24 -102 -26 -30 -68 -36 -108 -17 -31
14 -32 14 -10 -1 22 -16 22 -17 22 -311 l0 -294 -29 20 c-16 11 -61 36 -100
55 l-72 34 -2 181 c-1 133 1 182 10 185 21 8 34 83 30 174 l-3 87 -2 -95 c-3
-134 -40 -192 -94 -143 -16 14 -18 15 -18 0 0 -9 5 -19 10 -22 10 -6 15 -345
5 -345 -2 0 -28 6 -57 14 -94 24 -224 29 -328 12 -275 -44 -470 -168 -563
-356 l-32 -65 -3 -195 -3 -195 -42 -38 c-51 -46 -127 -84 -184 -93 l-43 -7
-100 104 c-55 57 -100 107 -100 112 0 5 -38 49 -85 96 -82 84 -85 89 -85 133
0 89 -54 157 -137 174 -31 6 -32 8 -35 61 l-3 55 -37 4 -38 3 0 -59 c0 -57 -1
-59 -29 -65 -17 -3 -49 -23 -73 -44 l-43 -38 -4 -84 -3 -84 -50 -54 c-85 -94
-84 -90 -93 -402 -6 -230 -4 -281 8 -310 13 -32 55 -76 94 -98 11 -6 17 -25
18 -62 6 -147 6 -146 16 -120 6 14 7 55 3 93 l-7 68 39 -17 c31 -14 69 -17
189 -17 91 0 168 5 195 13 57 16 151 78 167 111 9 17 13 80 13 203 0 97 2 177
5 177 3 0 21 -6 39 -14 18 -7 53 -17 77 -21 24 -4 55 -17 69 -29 82 -74 193
-135 243 -136 l28 0 -2 -333 -1 -334 -25 5 c-42 8 -68 -51 -43 -98 7 -13 7
-27 -1 -44 -18 -39 -3 -92 31 -113 17 -9 30 -24 30 -32 0 -28 -108 -157 -191
-227 -78 -67 -203 -154 -219 -154 -4 0 -10 51 -13 113 -5 120 -22 183 -61 232
-27 33 -44 30 -26 -5 13 -25 -2 -72 -46 -141 -14 -23 -23 -47 -20 -55 3 -8 -3
-23 -13 -33 -11 -11 -21 -27 -23 -37 -3 -19 -53 -52 -81 -53 -10 -1 -30 -7
-45 -15 -16 -8 -67 -15 -127 -17 -99 -3 -154 -14 -166 -32 -8 -12 -85 58 -114
103 -55 87 -53 154 7 238 37 53 30 66 -11 21 -53 -58 -61 -100 -54 -285 l6
-164 -51 0 c-41 0 -53 -4 -62 -20 -8 -15 -9 -203 -4 -660 l7 -640 -30 0 -30 0
-9 213 c-5 116 -8 470 -7 786 2 484 4 576 17 590 8 9 34 63 59 121 109 257
129 390 77 506 -23 52 -117 154 -210 227 -36 28 -81 68 -101 89 -42 45 -55 46
-100 13 -19 -14 -54 -37 -78 -52 -91 -58 -169 -123 -248 -207 -46 -48 -83 -94
-83 -102 0 -8 5 -23 12 -33 9 -15 1 -38 -51 -140 -55 -108 -69 -153 -40 -135
5 3 8 0 7 -8 -5 -21 11 -13 124 61 95 63 110 69 142 64 29 -5 39 -1 57 18 l20
24 -8 -300 c-13 -487 -11 -622 10 -677 21 -55 67 -98 104 -98 l25 0 -6 -372
c-4 -205 -9 -389 -12 -409 l-5 -36 -54 56 c-53 55 -54 55 -74 37 -12 -11 -23
-17 -24 -15 -2 2 -34 47 -72 99 -71 99 -85 114 -96 102 -15 -16 -109 -203
-109 -217 0 -17 -16 -20 -25 -6 -6 11 -94 38 -170 52 -57 10 -95 1 -95 -24 0
-7 36 -76 79 -155 91 -164 91 -142 3 -277 -49 -75 -62 -105 -44 -105 4 0 25
31 47 68 l39 67 8 -40 c4 -22 7 -89 8 -150 0 -60 4 -116 9 -124 6 -10 3 -27
-9 -50 -10 -20 -35 -90 -56 -156 l-39 -120 -3 243 c-1 156 -6 241 -12 237 -16
-10 -13 -477 3 -499 13 -17 36 -18 338 -18 178 0 335 0 349 1 53 3 53 -1 51
281 -1 144 -6 273 -12 287 -5 14 -8 27 -7 29 2 2 77 7 166 11 l162 8 0 -332
c0 -184 4 -334 9 -337 8 -6 329 -6 1908 -3 l702 2 3 -50 3 -50 550 -3 c303 -1
560 0 572 3 l22 5 1 293 c0 160 3 314 7 341 l6 48 36 -6 c20 -3 91 -6 158 -6
l122 0 -16 -38 c-14 -32 -15 -73 -10 -301 4 -168 10 -268 17 -275 14 -14 397
-21 559 -11 161 10 151 -7 151 264 0 230 -5 285 -24 274 -7 -4 -6 -1 1 8 10
13 5 31 -28 100 -22 46 -45 86 -50 87 -21 8 -6 56 41 128 49 75 58 94 43 94
-10 0 -153 -218 -195 -298 -25 -48 -40 -64 -62 -70 -16 -4 -31 -13 -33 -19 -6
-17 69 4 84 23 15 20 19 9 21 -50 1 -27 4 -59 7 -70 6 -20 5 -20 -8 -3 -10 12
-29 17 -64 17 -27 0 -97 3 -156 6 l-105 7 -6 41 c-3 23 -2 55 3 71 5 17 10 24
10 18 1 -7 6 -13 12 -13 15 0 2 35 -41 110 -21 36 -73 135 -117 221 l-79 156
46 -4 c90 -8 175 -25 196 -38 11 -7 35 -36 52 -63 45 -69 114 -241 106 -265
-9 -28 6 -188 17 -181 15 9 10 165 -6 229 -18 69 -63 169 -107 237 l-30 48 63
100 63 99 20 -32 c11 -18 40 -63 64 -100 l43 -68 -63 -72 c-71 -80 -84 -97
-70 -97 5 0 55 49 110 109 55 60 103 106 107 103 3 -4 3 2 -1 11 -6 16 -10 15
-40 -14 -19 -18 -34 -28 -34 -22 0 14 -116 189 -132 199 -7 4 -17 -1 -24 -12
-19 -27 -47 -61 -40 -48 3 6 6 229 6 496 l1 486 39 15 c24 9 44 26 54 45 22
43 35 146 37 292 1 69 4 177 8 240 l6 115 38 -67 c41 -73 55 -87 67 -68 6 9 9
9 12 -1 3 -8 9 -11 13 -7 4 4 1 78 -5 166 -13 157 -13 159 9 188 l21 30 -20
59 c-27 79 -77 177 -134 261 -25 38 -46 77 -46 87 0 26 -24 68 -54 96 -44 41
-72 33 -172 -52 -286 -243 -370 -368 -344 -511 13 -70 84 -206 136 -263 l44
-47 0 -108 0 -109 -40 -59 c-57 -84 -143 -174 -230 -240 -72 -55 -185 -130
-195 -130 -3 0 -5 8 -5 19 0 10 37 56 83 102 65 65 94 104 129 174 70 136 82
192 82 380 1 172 -15 258 -68 363 -19 39 -22 58 -18 112 5 74 -18 213 -49 295
-23 63 -82 156 -131 207 -30 32 -39 54 -61 147 -38 161 -80 261 -134 321 -43
48 -45 53 -39 94 11 73 -3 144 -36 182 -76 87 -288 88 -392 2 -52 -42 -66 -81
-66 -178 0 -80 0 -81 -37 -113 -20 -18 -56 -58 -80 -91 l-43 -58 -1 63 c0 35
-4 129 -8 209 -6 135 -9 150 -39 211 -17 36 -48 85 -69 110 l-38 44 3 317 c3
303 4 317 22 323 27 9 42 67 38 145 l-3 65 -5 -81z m-1150 -765 c0 -17 -92
-100 -108 -97 -8 2 8 24 38 56 51 51 70 63 70 41z m101 -26 c-8 -15 -10 -15
-11 -2 0 17 10 32 18 25 2 -3 -1 -13 -7 -23z m99 -138 c7 -8 8 -15 2 -15 -5 0
-15 7 -22 15 -7 8 -8 15 -2 15 5 0 15 -7 22 -15z m-196 -63 c3 -5 -8 -18 -24
-30 -36 -27 -55 -8 -20 20 24 20 36 22 44 10z m1494 -67 c-3 -3 -17 0 -31 6
-25 11 -25 13 -9 37 l16 25 15 -32 c8 -17 12 -33 9 -36z m-2670 -18 c5 -26
-27 -79 -44 -73 -9 3 -18 6 -20 6 -2 0 -4 25 -4 55 l0 54 33 -14 c17 -7 33
-20 35 -28z m1051 14 c11 -20 31 -101 25 -101 -2 0 -19 21 -39 46 -32 44 -34
48 -17 60 22 17 20 17 31 -5z m1621 -62 c0 -10 -5 -63 -11 -118 l-12 -100 -23
17 c-22 16 -23 23 -24 145 l0 128 35 -27 c19 -14 35 -35 35 -45z m-1624 -49
l32 -35 7 -190 c8 -231 14 -336 21 -354 3 -8 15 7 29 36 35 69 59 89 88 75 12
-6 47 -13 77 -17 30 -3 96 -19 145 -35 129 -41 261 -56 350 -40 87 15 231 23
195 11 -24 -9 -24 -9 6 -10 17 -1 51 6 74 14 l42 15 -3 -421 c-3 -325 -7 -423
-16 -426 -18 -7 -16 -23 2 -23 16 0 19 -28 9 -68 -4 -14 -12 -21 -20 -18 -8 3
-14 -1 -14 -8 0 -8 5 -16 11 -18 9 -3 9 -10 0 -26 -15 -28 -4 -50 14 -26 11
16 13 14 17 -14 4 -28 2 -31 -14 -26 -30 9 -20 -17 11 -29 l28 -10 7 -166 c5
-91 8 -289 7 -440 0 -233 -3 -276 -16 -291 -9 -9 -13 -24 -10 -32 3 -8 -4 -23
-17 -34 l-23 -19 18 21 c30 36 19 35 -30 -2 -125 -95 -285 -142 -446 -130
-110 8 -141 24 -317 162 -26 21 -23 15 15 -25 54 -57 105 -90 193 -128 32 -13
46 -22 32 -20 -35 7 -123 46 -195 86 -103 58 -154 81 -177 81 -13 0 -34 1 -47
1 -13 0 -24 -1 -25 -3 -16 -36 -35 -63 -49 -72 -16 -9 -25 -4 -58 33 -40 44
-40 44 -32 105 4 34 7 266 8 517 l0 457 65 -33 c67 -34 132 -58 188 -70 51
-11 38 11 -18 30 -27 9 -50 20 -50 25 0 5 -17 18 -38 30 -48 27 -53 55 -8 44
40 -10 156 -14 156 -6 -1 4 -41 27 -90 51 -80 40 -90 48 -90 72 0 25 3 27 33
24 17 -1 56 -10 85 -18 78 -24 62 2 -19 31 -35 13 -98 39 -139 58 l-75 35 2
667 c1 367 2 672 3 677 0 6 9 -1 18 -15 9 -14 31 -41 48 -60z m324 31 c0 -12
-29 -35 -36 -28 -11 10 5 37 21 37 8 0 15 -4 15 -9z m-1416 -64 c-3 -12 -12
-29 -19 -37 -7 -8 -25 -37 -40 -63 l-28 -49 2 -269 2 -269 -21 0 c-13 0 -24
-8 -27 -19 -4 -17 -8 -18 -24 -8 -17 11 -18 26 -12 297 7 321 5 314 88 407 40
46 49 51 66 42 15 -7 18 -16 13 -32z m1666 6 c0 -14 -19 -38 -25 -32 -8 8 5
39 16 39 5 0 9 -3 9 -7z m960 -85 c0 -25 -7 -38 -30 -53 -50 -34 -160 -268
-160 -342 0 -47 -5 -51 -37 -28 l-22 15 20 71 c24 86 67 175 122 249 37 51 97
120 104 120 2 0 3 -15 3 -32z m31 -65 c13 -16 12 -17 -3 -4 -10 7 -18 15 -18
17 0 8 8 3 21 -13z m-2144 -105 c-3 -7 -5 -2 -5 12 0 14 2 19 5 13 2 -7 2 -19
0 -25z m64 -14 l24 -26 -27 13 c-16 7 -28 18 -28 26 0 18 3 17 31 -13z m-54
-41 c-3 -10 -5 -4 -5 12 0 17 2 24 5 18 2 -7 2 -21 0 -30z m-417 -240 c0 -198
0 -203 -21 -203 -25 0 -123 45 -138 64 -8 10 -10 68 -5 202 l7 189 78 -25 79
-25 0 -202z m886 70 c-10 -10 -63 9 -110 38 l-49 31 49 25 c27 13 63 38 79 54
l30 29 3 -86 c2 -48 1 -89 -2 -91z m-263 137 c16 0 26 -4 22 -10 -7 -11 -92
-2 -115 12 -10 6 -2 7 25 4 22 -3 53 -6 68 -6z m1723 -250 c6 -22 16 -272 15
-355 -2 -80 -38 -143 -75 -129 -13 5 -15 44 -13 278 l2 273 32 -21 c18 -12 35
-32 39 -46z m930 -145 c31 -66 45 -115 58 -193 l6 -33 -64 53 -65 53 0 115 c0
132 4 133 65 5z m-1199 -32 c-2 -21 -4 -6 -4 32 0 39 2 55 4 38 2 -18 2 -50 0
-70z m1273 30 c0 -7 -2 -13 -5 -13 -6 0 -35 56 -35 67 1 13 40 -41 40 -54z
m540 -33 c0 -5 -5 -10 -11 -10 -5 0 -7 5 -4 10 3 6 8 10 11 10 2 0 4 -4 4 -10z
m-552 -35 c-3 -3 -9 2 -12 12 -6 14 -5 15 5 6 7 -7 10 -15 7 -18z m546 -67
c-5 -53 -13 -81 -30 -103 -12 -16 -50 -75 -83 -130 l-61 -99 0 76 c0 42 -4 80
-10 83 -7 4 -10 -50 -10 -155 0 -115 -3 -159 -11 -154 -6 3 -24 34 -40 68 -61
129 -32 200 165 404 44 45 81 82 83 82 2 0 0 -33 -3 -72z m-1637 -55 c-2 -16
-4 -3 -4 27 0 30 2 43 4 28 2 -16 2 -40 0 -55z m-2763 -241 c1 -58 -1 -96 -6
-88 -17 31 -108 261 -108 274 0 7 25 -8 56 -35 l55 -49 3 -102z m-301 176
c-64 -87 -168 -208 -179 -208 -26 0 -25 22 2 58 54 71 147 162 167 162 14 0
17 -4 10 -12z m377 -40 c47 -49 70 -91 57 -104 -3 -3 -12 7 -21 23 -8 16 -36
53 -61 81 -61 68 -42 67 25 0z m4320 -97 l0 -150 -85 -3 -85 -3 0 31 c0 17 7
37 14 44 8 6 46 61 83 121 37 60 69 109 70 109 2 0 3 -67 3 -149z m-234 101
c-18 -16 -18 -16 -6 6 6 13 14 21 18 18 3 -4 -2 -14 -12 -24z m-335 -95 c76
-115 110 -283 90 -443 -19 -142 -56 -239 -132 -339 -22 -29 -40 -60 -41 -71 0
-10 -4 25 -8 78 -5 82 -10 103 -34 138 -15 23 -43 51 -62 62 l-34 20 0 257 0
257 28 16 c58 35 92 76 92 109 l0 33 31 -30 c17 -16 48 -55 70 -87z m65 38
c27 -47 56 -115 49 -115 -2 0 -17 24 -31 53 -15 28 -40 72 -57 97 -25 37 -26
41 -8 25 13 -11 34 -38 47 -60z m-4086 -97 c1 -251 -2 -866 -5 -938 -1 -41 -4
-335 -6 -652 -3 -547 -4 -578 -21 -578 -13 0 -18 8 -18 28 0 16 3 32 7 35 4 4
8 497 10 1095 2 598 6 1097 9 1110 2 12 9 22 14 22 6 0 10 -49 10 -122z m135
-8 c25 -63 51 -119 56 -124 5 -6 9 -27 9 -48 l0 -38 -60 0 -60 0 0 167 c0 91
2 164 4 162 2 -2 25 -56 51 -119z m122 34 c23 -51 25 -65 20 -148 -3 -58 -14
-118 -30 -166 l-25 -75 -1 223 c-1 122 1 222 5 222 3 0 17 -25 31 -56z m-312
-1122 c-3 -3 -13 2 -22 11 -14 14 -18 49 -24 214 -4 109 -3 281 1 383 5 102 9
254 10 338 0 128 3 159 18 184 16 28 17 7 20 -548 1 -317 0 -580 -3 -582z
m3136 1123 c24 -13 45 -29 45 -35 1 -5 2 -63 3 -127 1 -84 4 -114 12 -106 7 7
10 52 7 126 -3 106 -2 114 14 106 32 -17 184 -48 258 -52 120 -7 242 13 341
57 14 6 17 -22 23 -271 3 -153 9 -308 13 -345 l6 -67 -49 -30 c-69 -44 -147
-71 -239 -82 -44 -6 -100 -14 -125 -19 -38 -7 -59 -4 -134 21 -104 35 -214 90
-246 124 -26 28 -19 48 43 112 40 42 46 73 7 38 -20 -18 -20 -18 -20 84 0 88
3 106 21 130 23 31 20 79 -6 101 -13 11 -13 15 0 33 22 31 19 84 -5 99 -16 10
-20 24 -20 70 0 32 2 58 4 58 2 0 24 -11 47 -25z m159 -25 c12 -8 12 -10 -5
-10 -11 0 -27 5 -35 10 -12 8 -12 10 5 10 11 0 27 -5 35 -10z m1487 -414 c-3
-240 -8 -329 -18 -351 -13 -28 -14 -21 -17 85 -2 63 0 224 3 357 6 211 9 241
23 236 13 -6 14 -45 9 -327z m-138 84 l-1 -205 -40 85 c-56 118 -128 292 -128
310 0 12 16 15 85 15 l85 0 -1 -205z m-4702 78 c-3 -7 -5 -2 -5 12 0 14 2 19
5 13 2 -7 2 -19 0 -25z m4582 -83 c24 -55 60 -133 82 -173 23 -45 39 -87 39
-108 l0 -34 -80 0 c-47 0 -80 -4 -80 -10 0 -6 33 -10 80 -10 l80 0 0 -60 c0
-46 -6 -69 -23 -98 -13 -20 -33 -57 -45 -82 -11 -25 -41 -90 -67 -145 l-47
-100 6 139 c3 77 6 285 6 464 0 179 2 323 4 321 2 -2 22 -49 45 -104z m-4269
62 c0 -13 -4 -27 -8 -32 -5 -6 -22 -46 -37 -90 -16 -44 -43 -114 -62 -155
l-32 -75 5 165 c7 225 2 210 74 210 56 0 60 -2 60 -23z m-8 -299 l-5 -208 -63
0 -64 0 0 58 c0 46 7 71 34 122 19 36 49 104 67 152 18 49 33 87 34 85 1 -1 0
-95 -3 -209z m1412 -138 l-6 -85 -145 -2 -145 -1 -32 -31 c-22 -22 -42 -31
-64 -31 -30 0 -32 3 -32 33 0 30 3 34 43 44 66 19 156 84 269 196 l103 102 8
-70 c4 -38 4 -108 1 -155z m1413 188 c-3 -8 -6 -5 -6 6 -1 11 2 17 5 13 3 -3
4 -12 1 -19z m-3170 -95 c-2 -16 -4 -5 -4 22 0 28 2 40 4 28 2 -13 2 -35 0
-50z m655 -124 c26 -26 48 -50 48 -53 0 -4 -13 -19 -28 -34 -25 -25 -28 -33
-27 -92 3 -136 17 -236 41 -297 28 -72 32 -112 10 -93 -12 9 -18 7 -33 -9 -9
-12 -24 -21 -31 -21 -9 0 -12 -7 -9 -20 5 -20 -7 -28 -17 -11 -7 11 -23 294
-30 541 -5 175 -5 184 11 160 9 -14 39 -46 65 -71z m-665 -52 c-2 -23 -3 -1
-3 48 0 50 1 68 3 42 2 -26 2 -67 0 -90z m4267 83 c-15 -28 -34 -56 -43 -63
-13 -10 -12 -7 2 13 9 14 26 42 37 63 11 20 23 37 26 37 3 0 -7 -23 -22 -50z
m-933 -85 c46 -19 74 -35 62 -35 -12 0 -35 -8 -53 -17 -24 -14 -30 -23 -27
-41 3 -13 1 -40 -4 -60 -5 -20 -11 -66 -14 -102 -3 -36 -9 -80 -14 -97 -8 -27
-6 -35 7 -43 9 -5 12 -10 7 -10 -6 0 -36 16 -66 35 l-56 35 -6 142 c-4 79 -7
176 -7 215 l0 73 43 -31 c24 -17 81 -46 128 -64z m1220 -270 c-6 -178 -11
-443 -11 -587 0 -308 -3 -336 -36 -344 -13 -3 -24 -9 -24 -11 0 -9 101 -207
111 -218 5 -5 9 -13 9 -17 0 -4 -83 -8 -185 -8 l-185 0 -1 93 c-1 50 -1 121 0
157 l2 65 -75 78 -75 77 -70 0 -71 0 0 278 0 278 57 28 c68 33 102 64 103 91
0 13 14 26 39 38 110 50 313 210 382 301 19 24 36 40 37 35 2 -5 -1 -155 -7
-334z m-4201 43 c0 -116 -2 -209 -4 -207 -10 9 -126 378 -126 398 0 19 5 21
65 21 l65 0 0 -212z m4398 -223 c-2 -2 -42 -6 -90 -10 l-88 -7 0 30 c0 23 138
340 168 387 4 5 8 -82 10 -194 1 -112 1 -205 0 -206z m-4761 318 c-2 -16 -4
-5 -4 22 0 28 2 40 4 28 2 -13 2 -35 0 -50z m577 25 c3 -24 8 -139 12 -256 l6
-214 31 -28 c49 -44 128 -89 204 -115 52 -19 89 -25 158 -25 147 0 257 42 335
127 l40 43 0 212 0 213 82 -3 83 -4 -69 -62 -69 -62 7 -69 c4 -38 4 -156 0
-261 l-7 -191 -408 -9 -409 -9 0 329 0 328 -36 49 -36 49 36 0 c34 0 35 -2 40
-42z m3775 28 c-13 -13 -82 -56 -85 -54 -3 4 76 58 85 58 2 0 2 -2 0 -4z
m-4000 -399 c6 -6 11 -35 11 -64 l0 -53 -49 0 c-27 0 -56 -3 -65 -6 -14 -6
-16 18 -15 227 l0 234 54 -164 c29 -90 58 -168 64 -174z m1130 -833 l-77 -115
4 78 c2 43 7 301 10 574 l6 495 57 47 56 47 11 -506 11 -506 -78 -114z m-142
1079 c-3 -10 -5 -4 -5 12 0 17 2 24 5 18 2 -7 2 -21 0 -30z m2778 -33 c3 -5 1
-10 -4 -10 -6 0 -11 5 -11 10 0 6 2 10 4 10 3 0 8 -4 11 -10z m-735 -162 c10
-6 7 -7 -10 -2 -14 3 -32 11 -40 16 -10 6 -7 7 10 2 14 -3 32 -11 40 -16z m70
-18 c20 -6 21 -8 5 -8 -11 0 -29 3 -40 8 -25 11 1 11 35 0z m1300 -317 l-1
-288 -84 260 c-47 143 -85 270 -85 282 0 21 5 22 78 26 42 1 80 4 85 5 4 1 7
-127 7 -285z m-1010 30 l-5 -248 -62 -3 -63 -3 0 154 c0 85 -3 195 -6 245 l-7
91 64 4 c35 2 69 4 74 5 7 1 8 -83 5 -245z m-423 222 c9 -25 -4 -29 -17 -6 -7
15 -7 21 0 21 6 0 13 -7 17 -15z m533 -55 c0 -5 -11 -10 -25 -10 -14 0 -25 5
-25 10 0 6 11 10 25 10 14 0 25 -4 25 -10z m-369 -10 c5 0 9 -5 9 -11 0 -15
-43 -7 -48 10 -3 10 0 12 12 8 10 -4 22 -7 27 -7z m1258 -488 c7 -2 11 -37 11
-84 0 -67 2 -79 15 -74 8 3 15 1 15 -4 0 -12 8 -13 -75 5 -39 8 -87 15 -109
15 -35 0 -38 2 -32 23 3 12 6 153 7 312 l1 290 78 -240 c44 -132 84 -241 89
-243z m-4379 421 c-1 -16 -27 -126 -59 -247 l-58 -218 -6 152 c-4 84 -7 193
-7 241 l0 88 53 4 c28 2 58 4 65 5 7 1 12 -9 12 -25z m3481 -23 c5 0 9 -4 9
-10 0 -5 -11 -10 -25 -10 -16 0 -25 6 -25 16 0 11 5 14 16 10 9 -3 20 -6 25
-6z m-361 -60 c0 -13 -7 -13 -31 1 -11 5 -17 14 -14 20 7 11 45 -7 45 -21z
m-1007 -27 c-13 -2 -35 -2 -50 0 -16 2 -5 4 22 4 28 0 40 -2 28 -4z m90 0 c-7
-2 -21 -2 -30 0 -10 3 -4 5 12 5 17 0 24 -2 18 -5z m527 -18 c-7 -8 -17 -15
-23 -15 -6 0 -2 7 9 15 25 19 30 19 14 0z m-2718 -457 l3 -137 -70 -3 c-38 -2
-70 -3 -70 -3 -1 0 2 43 6 95 4 68 21 153 60 299 l54 204 7 -159 c4 -87 8
-221 10 -296z m3486 404 c3 -10 -4 -13 -24 -10 -15 2 -29 9 -32 16 -3 10 4 13
24 10 15 -2 29 -9 32 -16z m-393 -5 c10 -8 14 -16 9 -19 -14 -9 -56 11 -49 22
8 13 18 13 40 -3z m-2081 -297 c-1 -165 -5 -309 -9 -320 -6 -19 -15 -20 -308
-20 -166 0 -346 -3 -399 -7 l-98 -6 0 316 0 317 98 1 c188 3 717 15 718 17 0
1 -1 -133 -2 -298z m1536 240 c-14 -11 -29 -20 -35 -20 -5 0 4 9 20 20 38 25
48 25 15 0z m-1333 -97 c-3 -10 -5 -2 -5 17 0 19 2 27 5 18 2 -10 2 -26 0 -35z
m1153 22 c-46 -18 -64 -17 -25 0 17 8 37 14 45 14 8 0 -1 -7 -20 -14z m-224
-18 l91 -2 -30 -18 c-16 -10 -36 -16 -44 -13 -8 3 -12 2 -9 -3 3 -5 -24 -8
-59 -8 -37 0 -65 5 -65 11 0 6 -4 6 -11 -1 -8 -8 -22 -6 -50 9 -22 11 -42 25
-46 31 -3 5 -2 7 3 4 6 -3 16 -2 23 2 7 5 34 4 59 -1 26 -5 88 -10 138 -11z
m1344 13 c0 -5 -11 -10 -25 -10 -14 0 -25 5 -25 10 0 6 11 10 25 10 14 0 25
-4 25 -10z m-4010 -85 c34 -47 68 -91 75 -99 12 -12 12 -18 -6 -41 -33 -42
-17 -39 26 5 22 22 42 40 46 40 3 0 34 -32 69 -71 l63 -70 -28 -52 c-15 -29
-54 -88 -85 -132 -32 -44 -72 -102 -89 -130 -17 -27 -43 -55 -59 -61 l-27 -12
32 -1 c26 -1 35 5 53 37 14 22 25 32 27 24 8 -22 -8 -121 -20 -129 -6 -4 -76
-7 -156 -8 -108 0 -148 3 -158 13 -9 9 -13 41 -13 100 l0 87 21 -34 c11 -18
23 -31 26 -28 3 3 -16 46 -43 94 -26 48 -83 153 -125 233 l-78 145 32 3 c36 4
124 -13 178 -35 43 -17 117 -114 159 -209 25 -54 50 -89 50 -68 0 13 -101 198
-126 230 l-23 32 54 101 c30 55 55 105 55 111 0 19 9 10 70 -75z m3616 75 c18
-7 24 -14 17 -21 -12 -12 -65 9 -57 22 7 11 7 11 40 -1z m-947 -66 c14 -13
-20 -19 -58 -11 -32 6 -40 11 -30 18 12 8 77 2 88 -7z m700 -266 c7 -149 13
-275 14 -278 1 -4 -27 -42 -63 -84 l-65 -77 -6 108 c-4 59 -7 198 -8 308 l-1
200 52 47 c29 26 55 48 59 48 3 0 11 -122 18 -272z m626 231 c4 -6 5 -12 2
-15 -7 -7 -37 7 -37 17 0 13 27 11 35 -2z m-1425 -19 c0 -13 -20 -13 -40 0
-12 8 -9 10 13 10 15 0 27 -4 27 -10z m1055 -11 c4 -6 5 -13 2 -16 -8 -7 -47
7 -47 18 0 13 37 11 45 -2z m-1475 -19 c0 -5 -4 -10 -10 -10 -5 0 -10 5 -10
10 0 6 5 10 10 10 6 0 10 -4 10 -10z m2833 -15 c-3 -9 -8 -14 -10 -11 -3 3 -2
9 2 15 9 16 15 13 8 -4z m-1966 -31 c-3 -3 -12 -4 -19 -1 -8 3 -5 6 6 6 11 1
17 -2 13 -5z m-500 -10 c-3 -3 -12 -4 -19 -1 -8 3 -5 6 6 6 11 1 17 -2 13 -5z
m1478 -14 c3 -5 -3 -10 -14 -10 -12 0 -21 5 -21 10 0 6 6 10 14 10 8 0 18 -4
21 -10z m-2102 -7 c-7 -2 -19 -2 -25 0 -7 3 -2 5 12 5 14 0 19 -2 13 -5z m227
-27 c-88 -14 -192 -64 -209 -102 -6 -13 -15 -24 -21 -24 -5 0 -10 -11 -10 -25
0 -18 7 -28 24 -35 26 -9 35 -26 29 -51 -4 -13 -30 -17 -171 -22 -157 -6 -212
-3 -212 12 0 3 37 60 83 126 71 104 85 120 107 117 14 -1 81 2 150 6 69 5 166
9 215 9 l90 1 -75 -12z m1510 -18 c0 -5 -6 -8 -14 -8 -16 0 -38 24 -30 33 7 7
44 -14 44 -25z m369 -67 c9 -6 10 -10 2 -16 -15 -8 -41 1 -41 15 0 12 20 13
39 1z m-369 -33 c0 -17 -45 -3 -48 15 -3 15 0 16 22 6 14 -7 26 -16 26 -21z
m364 -64 c9 -3 16 -10 16 -16 0 -14 -43 -5 -48 10 -4 13 7 15 32 6z m-358 -19
c18 -15 18 -15 -5 -13 -14 2 -26 9 -29 16 -5 17 10 15 34 -3z m611 -47 c-3 -7
-5 -2 -5 12 0 14 2 19 5 13 2 -7 2 -19 0 -25z m-4524 -93 c-2 -33 0 -88 5
-122 9 -53 8 -66 -7 -97 l-18 -35 -7 37 c-8 51 -8 307 1 316 16 16 31 -41 26
-99z m2177 42 c-9 -7 -15 -24 -13 -41 1 -17 -7 -41 -18 -57 -16 -23 -18 -33
-9 -49 6 -11 8 -20 4 -20 -15 0 19 -29 39 -33 19 -3 17 -5 -9 -12 -43 -10 -76
-55 -59 -78 8 -11 11 -34 8 -61 -5 -37 -2 -46 16 -55 18 -10 21 -20 19 -79 -1
-67 10 -101 44 -135 9 -10 20 -17 24 -17 4 0 15 -6 23 -14 23 -20 142 -48 256
-60 87 -10 48 -11 -287 -11 l-388 0 0 367 0 368 183 0 c145 -1 179 -3 167 -13z
m-380 -62 l0 -35 -400 0 -400 0 0 34 0 35 400 1 400 1 0 -36z m3319 -7 c16
-33 21 -67 23 -151 2 -59 0 -107 -3 -107 -3 0 -12 -12 -20 -27 l-14 -26 -7 44
c-7 49 -11 309 -4 309 3 0 14 -19 25 -42z m-1366 25 c-7 -2 -21 -2 -30 0 -10
3 -4 5 12 5 17 0 24 -2 18 -5z m1317 -225 l12 -166 -40 -124 c-22 -67 -42
-132 -44 -143 -4 -19 -16 220 -20 381 -1 65 2 79 38 147 21 42 39 75 40 74 1
-1 7 -77 14 -169z m-243 126 c-3 -3 -12 -4 -19 -1 -8 3 -5 6 6 6 11 1 17 -2
13 -5z m-3415 -39 l388 0 0 -27 c0 -14 3 -33 6 -42 5 -14 -37 -16 -400 -18
l-406 -3 0 54 c0 41 3 51 13 44 6 -4 186 -8 399 -8z m-1205 -61 c-3 -3 -12 -4
-19 -1 -8 3 -5 6 6 6 11 1 17 -2 13 -5z m5091 -81 c-16 -2 -40 -2 -55 0 -16 2
-3 4 27 4 30 0 43 -2 28 -4z m-3491 -27 c1 -1 -1 -20 -4 -44 l-6 -42 -398 0
-399 0 0 49 0 49 403 -5 c221 -3 403 -6 404 -7z m-3 -192 c3 -9 6 -25 6 -37 0
-21 -3 -22 -77 -17 -43 3 -225 4 -405 3 l-328 -1 0 34 0 34 399 0 c354 0 400
-2 405 -16z m-1907 -120 c-3 -3 -12 -4 -19 -1 -8 3 -5 6 6 6 11 1 17 -2 13 -5z
m1913 -11 c0 -5 -3 -18 -6 -30 l-6 -23 -399 0 c-423 0 -410 -1 -393 44 5 14
51 16 405 16 219 0 399 -3 399 -7z m-830 -43 c0 -5 -15 -9 -32 -9 l-33 1 30 8
c17 4 31 8 33 9 1 0 2 -3 2 -9z m1875 0 c-16 -4 -50 -8 -75 -8 -37 0 -40 2
-20 8 14 4 48 8 75 8 43 0 46 -1 20 -8z"/>
<path d="M4954 6366 c-3 -8 -4 -25 -1 -38 l4 -23 8 23 c5 15 15 22 34 22 l26
1 -25 14 c-32 18 -39 18 -46 1z"/>
<path d="M5811 5173 c0 -27 4 -68 8 -93 7 -39 9 -32 10 48 1 55 -3 92 -9 92
-5 0 -10 -21 -9 -47z"/>
<path d="M4953 4690 c0 -36 2 -50 4 -32 2 17 2 47 0 65 -2 17 -4 3 -4 -33z"/>
<path d="M3630 6440 c0 -8 60 -30 83 -30 19 0 3 19 -24 29 -39 14 -59 14 -59
1z"/>
<path d="M3640 6351 c0 -9 53 -31 76 -31 28 0 13 19 -23 29 -47 13 -53 13 -53
2z"/>
<path d="M3649 6270 c23 -20 71 -28 71 -12 0 8 -67 32 -86 32 -5 -1 2 -10 15
-20z"/>
<path d="M3630 6212 c0 -13 24 -22 58 -22 17 0 23 3 16 10 -14 14 -74 24 -74
12z"/>
<path d="M6732 5580 c0 -19 2 -27 5 -17 2 9 2 25 0 35 -3 9 -5 1 -5 -18z"/>
<path d="M6322 5565 c0 -16 2 -22 5 -12 2 9 2 23 0 30 -3 6 -5 -1 -5 -18z"/>
<path d="M6611 5563 c1 -10 5 -29 9 -43 7 -21 8 -19 9 18 1 23 -3 42 -9 42 -5
0 -10 -8 -9 -17z"/>
<path d="M2702 3567 c-42 -43 -50 -57 -33 -57 12 0 86 89 79 95 -2 3 -23 -15
-46 -38z"/>
<path d="M2690 3226 c0 -14 5 -26 10 -26 6 0 10 9 10 19 0 11 -4 23 -10 26 -6
4 -10 -5 -10 -19z"/>
<path d="M5601 7974 c0 -11 3 -14 6 -6 3 7 2 16 -1 19 -3 4 -6 -2 -5 -13z"/>
<path d="M3790 7515 c0 -19 5 -35 10 -35 6 0 10 16 10 35 0 19 -4 35 -10 35
-5 0 -10 -16 -10 -35z"/>
<path d="M4060 5908 c0 -46 5 -90 10 -98 7 -10 10 16 10 83 0 58 -4 97 -10 97
-6 0 -10 -34 -10 -82z"/>
<path d="M3622 5124 c10 -10 20 -16 22 -13 3 3 -5 11 -17 18 -21 13 -21 12 -5
-5z"/>
<path d="M4022 5112 c-18 -15 -32 -31 -32 -35 0 -13 61 26 71 46 14 25 -1 21
-39 -11z"/>
<path d="M8020 3639 c0 -20 93 -134 98 -120 4 11 -55 98 -83 121 -12 10 -15
10 -15 -1z"/>
<path d="M7670 3132 c0 -11 45 -32 67 -32 22 0 14 6 -30 25 -20 8 -37 11 -37
7z"/>
</g>
</svg>
