<svg xmlns="http://www.w3.org/2000/svg" xmlns:xlink="http://www.w3.org/1999/xlink" viewBox="0 0 160 160"><defs><style>.cls-1,.cls-10,.cls-11,.cls-12,.cls-13,.cls-15,.cls-16,.cls-17,.cls-18,.cls-19,.cls-2,.cls-3,.cls-4,.cls-5,.cls-6,.cls-7,.cls-8,.cls-9{stroke:#000;stroke-miterlimit:10;}.cls-1{fill:url(#Безымянный_градиент_59);}.cls-2{fill:url(#Безымянный_градиент_56);}.cls-3{fill:url(#Безымянный_градиент_18);}.cls-4{fill:url(#Безымянный_градиент_58);}.cls-5{fill:url(#Безымянный_градиент_55);}.cls-6{fill:url(#Безымянный_градиент_18-2);}.cls-7{fill:url(#Безымянный_градиент_24);}.cls-8{fill:url(#Безымянный_градиент_53);}.cls-9{fill:url(#Безымянный_градиент_53-2);}.cls-10{fill:url(#Безымянный_градиент_127);}.cls-11{fill:url(#Безымянный_градиент_53-3);}.cls-12{fill:url(#Безымянный_градиент_8);}.cls-13{fill:#f9f912;}.cls-13,.cls-17{stroke-width:2px;}.cls-14{fill:gray;}.cls-15{fill:url(#Безымянный_градиент_49);}.cls-16{fill:url(#Безымянный_градиент_49-2);}.cls-17{fill:#b60000;}.cls-18{fill:#31c8c5;}.cls-19{fill:url(#Безымянный_градиент_24-2);}</style><linearGradient id="Безымянный_градиент_59" x1="79.21" y1="140.61" x2="111.85" y2="130.92" gradientTransform="translate(10.25 -30.36) rotate(3.47)" gradientUnits="userSpaceOnUse"><stop offset="0" stop-color="gray"/><stop offset="0.14" stop-color="#777"/><stop offset="0.37" stop-color="#5e5e5e"/><stop offset="0.67" stop-color="#353535"/><stop offset="0.99"/></linearGradient><linearGradient id="Безымянный_градиент_56" x1="90.87" y1="202.36" x2="90.87" y2="190.94" gradientTransform="translate(0.56 -40.55) rotate(-1.39)" gradientUnits="userSpaceOnUse"><stop offset="0"/><stop offset="0.03" stop-color="#040e0e"/><stop offset="0.16" stop-color="#0f3f3e"/><stop offset="0.3" stop-color="#1a6968"/><stop offset="0.43" stop-color="#228b89"/><stop offset="0.57" stop-color="#29a6a4"/><stop offset="0.71" stop-color="#2db9b6"/><stop offset="0.85" stop-color="#30c4c1"/><stop offset="1" stop-color="#31c8c5"/></linearGradient><radialGradient id="Безымянный_градиент_18" cx="89.3" cy="168.23" r="8.47" gradientTransform="translate(0.56 -40.55) rotate(-1.39)" gradientUnits="userSpaceOnUse"><stop offset="0"/><stop offset="0.18" stop-color="#311508"/><stop offset="0.37" stop-color="#5d280e"/><stop offset="0.55" stop-color="#803714"/><stop offset="0.72" stop-color="#994218"/><stop offset="0.87" stop-color="#a8491a"/><stop offset="1" stop-color="#ad4b1b"/></radialGradient><linearGradient id="Безымянный_градиент_58" x1="24.07" y1="18.07" x2="72.69" y2="18.07" gradientTransform="translate(2.04 98.66) rotate(-6.01)" gradientUnits="userSpaceOnUse"><stop offset="0" stop-color="gray"/><stop offset="0.15" stop-color="#757575"/><stop offset="0.4" stop-color="#585858"/><stop offset="0.74" stop-color="#282828"/><stop offset="0.99"/></linearGradient><linearGradient id="Безымянный_градиент_55" x1="42.15" y1="62.81" x2="42.15" y2="51.22" gradientTransform="translate(2.04 98.66) rotate(-6.01)" xlink:href="#Безымянный_градиент_56"/><radialGradient id="Безымянный_градиент_18-2" cx="90.83" cy="49.29" r="6.86" gradientTransform="matrix(1.15, -0.05, 0.18, 1.02, -60.71, 76.73)" xlink:href="#Безымянный_градиент_18"/><linearGradient id="Безымянный_градиент_24" x1="-314.64" y1="91.05" x2="-279.14" y2="127.05" gradientTransform="matrix(-0.95, -0.47, 1.15, -0.88, -377.37, 64.02)" gradientUnits="userSpaceOnUse"><stop offset="0" stop-color="#984c24"/><stop offset="0.04" stop-color="#80401e"/><stop offset="0.14" stop-color="#532914"/><stop offset="0.22" stop-color="#2f170b"/><stop offset="0.31" stop-color="#150b05"/><stop offset="0.38" stop-color="#050301"/><stop offset="0.44"/><stop offset="0.79" stop-color="#343434"/><stop offset="0.99" stop-color="#4d4d4d"/></linearGradient><linearGradient id="Безымянный_градиент_53" x1="122.04" y1="60.04" x2="122.09" y2="60.01" gradientUnits="userSpaceOnUse"><stop offset="0"/><stop offset="0.08" stop-color="#071b1a"/><stop offset="0.25" stop-color="#134f4e"/><stop offset="0.42" stop-color="#1e7a79"/><stop offset="0.58" stop-color="#269c9a"/><stop offset="0.74" stop-color="#2cb4b2"/><stop offset="0.88" stop-color="#30c3c0"/><stop offset="1" stop-color="#31c8c5"/></linearGradient><linearGradient id="Безымянный_градиент_53-2" x1="122.62" y1="114.26" x2="135.46" y2="107.91" gradientTransform="matrix(1, -0.04, 0.04, 1.04, -1.38, -33.18)" xlink:href="#Безымянный_градиент_53"/><radialGradient id="Безымянный_градиент_127" cx="124.88" cy="116.95" r="45.06" gradientTransform="matrix(1, -0.04, 0.04, 1.04, -1.38, -33.18)" gradientUnits="userSpaceOnUse"><stop offset="0.28" stop-color="#984c24"/><stop offset="0.39" stop-color="#864320"/><stop offset="0.62" stop-color="#582c15"/><stop offset="0.94" stop-color="#0e0703"/><stop offset="0.99"/></radialGradient><linearGradient id="Безымянный_градиент_53-3" x1="88.75" y1="6.05" x2="105.67" y2="-2.32" gradientTransform="matrix(1, -0.04, 0.04, 1, -1.56, 17.6)" xlink:href="#Безымянный_градиент_53"/><radialGradient id="Безымянный_градиент_8" cx="70.25" cy="29.75" r="39.45" gradientTransform="matrix(1, -0.04, 0.04, 1, -1.56, 17.6)" xlink:href="#Безымянный_градиент_127"/><linearGradient id="Безымянный_градиент_49" x1="77.62" y1="41.25" x2="106.39" y2="41.25" gradientTransform="matrix(0.96, -0.02, 0.05, 0.97, -22.26, -27.44)" gradientUnits="userSpaceOnUse"><stop offset="0" stop-color="#31c8c5"/><stop offset="0.2" stop-color="#29a6a3"/><stop offset="0.62" stop-color="#14504f"/><stop offset="1"/></linearGradient><linearGradient id="Безымянный_градиент_49-2" x1="55.5" y1="26.06" x2="84.26" y2="26.06" gradientTransform="matrix(0.98, 0.04, 0.12, 1, 6.14, -18.28)" xlink:href="#Безымянный_градиент_49"/><linearGradient id="Безымянный_градиент_24-2" x1="-368.97" y1="103.28" x2="-325.11" y2="122.4" gradientTransform="matrix(-0.97, -0.41, 1.1, -0.94, -375.52, 69.97)" xlink:href="#Безымянный_градиент_24"/></defs><title>босс1 анимация атаки</title><g id="Слой_1" data-name="Слой 1"><path class="cls-1" d="M73.2,76.17s10.39,26.89,8.1,48.68c-1.77,16.81-9.13,26.29-.37,30.73,12.53,6.35,35.46,0,33.71-8.57-2.37-11.59-2.1-21.3-7.78-36.53-7.13-19.14-3.3-49.44-12.93-46S73.2,76.17,73.2,76.17Z"/><path class="cls-2" d="M113.75,150.24c-5.24,8.11-21.68,11.55-34.51,3.83-2.83-1.71.84-5.14,2.9-4.63,1.25.31,4.62,4.42,4.62,4.42s2.84-6.18,4.5-6c1.39.12,4,6,4,6a10,10,0,0,1,3.69-6c1.74-1.21,6.18,4.06,6.18,4.06s.45-4,3.7-5.07C111.22,146,115,148.28,113.75,150.24Z"/><path class="cls-3" d="M87.58,126.24c.47,5.8,4.11,9.48,5.25,9.39,1.44-.11,7.94-3.72,7.47-9.52s-6.08-11.34-7.48-10.71C90.48,116.44,87.11,120.44,87.58,126.24Z"/><path class="cls-4" d="M72.42,72.86s-10,21.27-3.65,41.05c2.28,7.06,1.45,18.46.89,30.23-.7,14.66-34.25,14.48-37.8,4.94s9-20.48,11.44-36.55c2.12-14.21,8.62-48,17.63-45.82S72.42,72.86,72.42,72.86Z"/><path class="cls-5" d="M32,149.49c6.09,7.5,25.68,8.18,35,.73,2.58-2.07-1.66-5.66-3.65-4.93-1.21.44-4.12,4.9-4.12,4.9s-3.49-5.84-5.12-5.52c-1.37.27-3.34,6.38-3.34,6.38a10,10,0,0,0-4.31-5.58c-1.87-1-5.71,4.69-5.71,4.69s-.88-3.93-4.23-4.64C34,145,30.49,147.68,32,149.49Z"/><path class="cls-6" d="M58.92,124.58c-1.9,5.5-6.9,8-8.17,7.53-1.61-.55-8.12-6.07-6.22-11.57s9.58-9.16,11-8.12A11.08,11.08,0,0,1,58.92,124.58Z"/><path class="cls-7" d="M26.4,124.26c-34.73,25-16.86,3.89-7-8.67,5.86-7.5,20.85-47.44,22.34-54.7,2.52-12.22,13.5-4.72,12.59-.25C52.16,71,55.33,90.52,26.4,124.26Z"/><path class="cls-8" d="M122,60l.16.06C122.05,60,122,60,122,60Z"/><path class="cls-9" d="M145.82,124c-2.38-1.85-8.52-11.12-8.52-11.12s9.08,4.88,8.87,2.5c-.25-2.82-5.35-8.3-10.65-13.28-3.36-3.14,7.23,3.94,5.84-.45-2.32-7.3-16.68-22.44-15.94-23.73,1.41-2.45,6.15,3.54,6.43,1.62.83-5.63-7-18.77-8.24-19.88l-.17,0c0-.06.08,0,.17,0a20.1,20.1,0,0,1,7.49,4.66c2.92,2.79-.35-9.32-6.43-17.41-8.16-10.87,2-3.53,1.65-5.88-1-6.15-14.93-15.56-16-17.59a20.64,20.64,0,0,0-5.72-1.82c3.85,5.57,5.85,13.2,8.62,26.92,3,14.74,3.47,28.91,6.36,33.2s5.85,13.85,11,39c3,14.61,16.52,19.94,16.52,19.94s7.32-3.75,6.91-11.94C153.9,125.71,148.33,125.9,145.82,124Z"/><path class="cls-10" d="M106.83,22.3s11.28,16.45,12.73,35.18c1.2,15.4-1.53,19.34,7.29,28.82s1.78,24.42,11.1,34.52c7.59,8.22,26.71,15.12-2.32,25-6.75,2.3-14.54-1.92-16.11-14.35C115,95.81,112.72,113.9,108,85.24A227,227,0,0,1,106.83,22.3Z"/><path class="cls-11" d="M119.89,25.85c-5.71-9.46-19.6-13.06-19.6-13.06s-1.44-.62,9-1c5.29-.22-18.47-5.86-24.1-6.06-1.38.21-1.92.27-.93,0a4.08,4.08,0,0,1,.93,0c2.41-.37,7.37-1.18,11.09-1.61,8.89-1-23.69-7.89-31.3,6.93,0,0-1.62,7.52.3,7.42s11-7.88,11-7.88l6.41,2s10.82,1.72,12.83,2.14c2.69.56,10,7.59,10.31,8,1.89.15,1.57.27,3.49,1C109,23.24,121,27.68,119.89,25.85Z"/><path class="cls-12" d="M40.25,50.75C38.73,13.56,59.18,7.38,75.1,6.73c19.81-.81,39.33,16.8,36.81,41.09C109.7,69.14,98.39,91,78.58,91.77,42,93.23,41.21,74.23,40.25,50.75Z"/><path class="cls-13" d="M72.1,36.23c0,8.49-5.13,16.5-6.77,16.49-3.52,0-8.8-7.47-8.77-16s6.49-15.69,8.56-14.95C68.57,23.06,72.13,27.74,72.1,36.23Z"/><path d="M64.3,46.84A13.5,13.5,0,0,1,61.5,42,16.17,16.17,0,0,1,60.7,37a15.87,15.87,0,0,1,.69-4.93,13.27,13.27,0,0,1,2.7-4.94,13.24,13.24,0,0,1,2.81,4.89A15.8,15.8,0,0,1,67.69,37a16.09,16.09,0,0,1-.7,4.92A13.56,13.56,0,0,1,64.3,46.84Z"/><path class="cls-13" d="M42.25,43.84c-2.73-6.48,0-14.3,1.27-14.72C46.29,28.23,50.3,33.54,53,40s2.78,12.41.91,12.37A13.6,13.6,0,0,1,42.25,43.84Z"/><path d="M44.16,34a11.76,11.76,0,0,1,3.42,3,15.74,15.74,0,0,1,2.13,3.52,14.91,14.91,0,0,1,1.14,3.94,11.27,11.27,0,0,1-.17,4.52A11.64,11.64,0,0,1,47.25,46a15.34,15.34,0,0,1-2.12-3.52,15.77,15.77,0,0,1-1.14-4A11.65,11.65,0,0,1,44.16,34Z"/><path class="cls-13" d="M89,43.74c3.06-6.31.85-14.28-.39-14.77-2.69-1-7.45,1-10.51,7.3s-3,15.28-1.13,15.35A13.48,13.48,0,0,0,89,43.74Z"/><path d="M86.79,32.92a11.74,11.74,0,0,1-.07,4.52,15.85,15.85,0,0,1-1.35,3.87,15.31,15.31,0,0,1-2.3,3.4,11.62,11.62,0,0,1-3.59,2.75,11.74,11.74,0,0,1,.07-4.52,15.46,15.46,0,0,1,1.36-3.87,15.29,15.29,0,0,1,2.31-3.39A11.7,11.7,0,0,1,86.79,32.92Z"/><path class="cls-14" d="M105,28.71a15.75,15.75,0,0,0-1.91-4.17,9.89,9.89,0,0,0-3.49-3.25,7.75,7.75,0,0,0-2.42-.8,5.67,5.67,0,0,0-2.55.28,7.23,7.23,0,0,0-3.74,3.06L91,24a34.3,34.3,0,0,1,4.12-1.24A7.08,7.08,0,0,1,99,22.8a8.65,8.65,0,0,1,3.35,2.41,16.45,16.45,0,0,1,2.53,3.6Z"/><path class="cls-15" d="M59.4,16.49c-7.26,8.78-9.19-24,22.83-10.73C82.23,5.76,69.6,4.16,59.4,16.49Z"/><path class="cls-16" d="M68.86,16.4c-6.81,8.52-11-25.26,22.54-9.46A24.43,24.43,0,0,0,68.86,16.4Z"/><path class="cls-14" d="M107.55,38.69a15.33,15.33,0,0,0-1.9-4.18,10,10,0,0,0-3.49-3.25,7.72,7.72,0,0,0-2.43-.8,5.61,5.61,0,0,0-2.54.29,7.23,7.23,0,0,0-3.74,3.06l.14.12a31.46,31.46,0,0,1,4.12-1.24,7,7,0,0,1,3.82.08,8.68,8.68,0,0,1,3.36,2.41,17,17,0,0,1,2.52,3.6Z"/><path class="cls-14" d="M110.62,49.47a15.66,15.66,0,0,0-1.91-4.18A10,10,0,0,0,105.22,42a7.72,7.72,0,0,0-2.43-.8,5.63,5.63,0,0,0-2.54.29,7.23,7.23,0,0,0-3.74,3.06l.15.12a33,33,0,0,1,4.11-1.25,7.12,7.12,0,0,1,3.83.09A8.72,8.72,0,0,1,108,46a17.42,17.42,0,0,1,2.53,3.6Z"/><path class="cls-14" d="M43,68.55A15.11,15.11,0,0,1,44.46,64a9.47,9.47,0,0,1,3.27-3.61,7.27,7.27,0,0,1,2.45-1,5.81,5.81,0,0,1,2.71.17,8.45,8.45,0,0,1,4.31,3.06l-.14.13a37.09,37.09,0,0,0-4.48-1.11,7.36,7.36,0,0,0-4,.28,8.28,8.28,0,0,0-3.23,2.72,16.59,16.59,0,0,0-2.22,3.94Z"/><path class="cls-14" d="M43.92,73.58a15.67,15.67,0,0,1,1.56-4.31,10,10,0,0,1,3.21-3.53,7.54,7.54,0,0,1,2.36-1,5.54,5.54,0,0,1,2.56.07,7.22,7.22,0,0,1,4,2.74l-.13.14a33.54,33.54,0,0,0-4.21-.9,7,7,0,0,0-3.8.39,8.77,8.77,0,0,0-3.15,2.68,17,17,0,0,0-2.22,3.79Z"/><path class="cls-14" d="M88.39,61.79A17.45,17.45,0,0,0,83,59.18a13.44,13.44,0,0,0-5.83-.42,7.63,7.63,0,0,0-1.42.3,6.41,6.41,0,0,0-1.36.46c-.45.19-.9.35-1.34.53s-.86.42-1.31.62c-.22.1-.45.18-.67.29l-.63.36c-.44.23-.87.48-1.33.7-.85.51-1.7,1.07-2.67,1.54l-.14-.14a17.41,17.41,0,0,1,2-2.52c.38-.36.8-.7,1.21-1l.63-.51c.22-.15.46-.28.69-.43q.7-.4,1.44-.78c.51-.19,1-.34,1.56-.5a8.81,8.81,0,0,1,1.61-.31A9.77,9.77,0,0,1,77,57.16a14.6,14.6,0,0,1,6.3,1.08,16.58,16.58,0,0,1,5.24,3.41Z"/><path class="cls-14" d="M87.91,67.31a17,17,0,0,0-4.79-3,14.27,14.27,0,0,0-5.35-1.14,8.79,8.79,0,0,0-1.36.06,7.35,7.35,0,0,0-1.33.19c-.45.09-.88.18-1.33.24s-.87.23-1.31.32l-.67.13-.65.2c-.45.12-.89.26-1.35.37-.89.27-1.77.61-2.76.82l-.11-.17a15,15,0,0,1,2.27-1.93,13.29,13.29,0,0,1,2.7-1.33c.48-.16,1-.32,1.46-.45s1-.12,1.52-.17a8.57,8.57,0,0,1,1.52,0,9.63,9.63,0,0,1,1.52.11,15.69,15.69,0,0,1,5.67,1.84,16.36,16.36,0,0,1,4.5,3.72Z"/><path class="cls-17" d="M66.09,90.77c-11.7-1-19.23-7-19.09-8.85.17-2.34,7.24-12.8,18.93-11.85S89,80.34,87.75,82.6C85.72,86.36,77.78,91.72,66.09,90.77Z"/><path class="cls-18" d="M51.24,86.17c6.47,5.52,23.6,7.19,29.85,2.27,1.73-1.36-4.83-2.92-5.09-2.88-1,.15-2.78,3-2.78,3s-4-4.11-5.32-3.94c-1.07.13-2.78,4-2.78,4s-1.19-3.44-2.26-4.35-5.86,3-5.86,3-.33-2.43-2-3.15C54.76,83.87,49.68,84.84,51.24,86.17Z"/><path class="cls-18" d="M56.77,72.43c8.31-7.19,22,2.47,22,2.47S74.36,79,73.14,78.54c-1-.37-2.3-5.41-2.3-5.41s-3,3.74-4.23,4.4-4-4.8-4-4.8-1,4.33-2.72,4.69C59.6,77.48,56.19,72.94,56.77,72.43Z"/><path class="cls-18" d="M51.36,74.09s-6.16,4.82-5.13,16.6c1.06,12,6,12.14,6,12.14s-1.62-9.23-1.73-13.39,5-13.08,5-13.08S57.42,69.52,51.36,74.09Z"/><path class="cls-18" d="M84.34,78.61S91,86.28,83.79,96s-9.63,9.53-9.63,9.53a133.69,133.69,0,0,0,6-12.1c1.45-3.9-.45-14-.45-14S79,73.56,84.34,78.61Z"/><path class="cls-19" d="M80.92,131.6c-33.33,26.81-16.62,4.8-7.5-8.27,5.45-7.8,18.25-48.5,19.35-55.83,1.86-12.33,13.23-5.44,12.56-.93C103.77,77,108,96.36,80.92,131.6Z"/></g></svg>