<svg xmlns="http://www.w3.org/2000/svg" xmlns:xlink="http://www.w3.org/1999/xlink" viewBox="0 0 160 160"><defs><style>.cls-1,.cls-10,.cls-11,.cls-12,.cls-14,.cls-15,.cls-16,.cls-17,.cls-18,.cls-2,.cls-3,.cls-4,.cls-5,.cls-6,.cls-7,.cls-8,.cls-9{stroke:#000;}.cls-1,.cls-10,.cls-11,.cls-12,.cls-14,.cls-16,.cls-17,.cls-18,.cls-2,.cls-3,.cls-4,.cls-5,.cls-6,.cls-7,.cls-8,.cls-9{stroke-miterlimit:10;}.cls-1{fill:url(#Безымянный_градиент_53);}.cls-2{fill:url(#Безымянный_градиент_127);}.cls-3{fill:url(#Безымянный_градиент_58);}.cls-4{fill:url(#Безымянный_градиент_55);}.cls-5{fill:url(#Безымянный_градиент_18);}.cls-6{fill:url(#Безымянный_градиент_59);}.cls-7{fill:url(#Безымянный_градиент_56);}.cls-8{fill:url(#Безымянный_градиент_18-2);}.cls-9{fill:url(#Безымянный_градиент_24);}.cls-10{fill:url(#Безымянный_градиент_53-2);}.cls-11{fill:url(#Безымянный_градиент_8);}.cls-12{fill:#af3e00;}.cls-12,.cls-16{stroke-width:2px;}.cls-13{fill:gray;}.cls-14{fill:url(#Безымянный_градиент_49);}.cls-15{stroke-linejoin:round;fill:url(#Безымянный_градиент_49-2);}.cls-16{fill:#b60000;}.cls-17{fill:#31c8c5;}.cls-18{fill:url(#Безымянный_градиент_24-2);}</style><linearGradient id="Безымянный_градиент_53" x1="133.66" y1="186.31" x2="147.1" y2="179.67" gradientTransform="matrix(0.99, 0.11, -0.11, 1.02, 25.79, -117.56)" gradientUnits="userSpaceOnUse"><stop offset="0"/><stop offset="0.08" stop-color="#071b1a"/><stop offset="0.25" stop-color="#134f4e"/><stop offset="0.42" stop-color="#1e7a79"/><stop offset="0.58" stop-color="#269c9a"/><stop offset="0.74" stop-color="#2cb4b2"/><stop offset="0.88" stop-color="#30c3c0"/><stop offset="1" stop-color="#31c8c5"/></linearGradient><radialGradient id="Безымянный_градиент_127" cx="135.32" cy="189.3" r="45.06" gradientTransform="matrix(0.99, 0.11, -0.11, 1.02, 25.79, -117.56)" gradientUnits="userSpaceOnUse"><stop offset="0.28" stop-color="#984c24"/><stop offset="0.39" stop-color="#864320"/><stop offset="0.62" stop-color="#582c15"/><stop offset="0.94" stop-color="#0e0703"/><stop offset="0.99"/></radialGradient><linearGradient id="Безымянный_градиент_58" x1="23.31" y1="-16.47" x2="71.94" y2="-16.47" gradientTransform="translate(28.77 134.28) rotate(-8.67)" gradientUnits="userSpaceOnUse"><stop offset="0" stop-color="gray"/><stop offset="0.15" stop-color="#757575"/><stop offset="0.4" stop-color="#585858"/><stop offset="0.74" stop-color="#282828"/><stop offset="0.99"/></linearGradient><linearGradient id="Безымянный_градиент_55" x1="41.39" y1="28.28" x2="41.39" y2="16.68" gradientTransform="translate(28.77 134.28) rotate(-8.67)" gradientUnits="userSpaceOnUse"><stop offset="0"/><stop offset="0.03" stop-color="#040e0e"/><stop offset="0.16" stop-color="#0f3f3e"/><stop offset="0.3" stop-color="#1a6968"/><stop offset="0.43" stop-color="#228b89"/><stop offset="0.57" stop-color="#29a6a4"/><stop offset="0.71" stop-color="#2db9b6"/><stop offset="0.85" stop-color="#30c4c1"/><stop offset="1" stop-color="#31c8c5"/></linearGradient><radialGradient id="Безымянный_градиент_18" cx="45.4" cy="-6.34" r="6.86" gradientTransform="translate(28.77 134.28) rotate(-8.67)" gradientUnits="userSpaceOnUse"><stop offset="0"/><stop offset="0.18" stop-color="#311508"/><stop offset="0.37" stop-color="#5d280e"/><stop offset="0.55" stop-color="#803714"/><stop offset="0.72" stop-color="#994218"/><stop offset="0.87" stop-color="#a8491a"/><stop offset="1" stop-color="#ad4b1b"/></radialGradient><linearGradient id="Безымянный_градиент_59" x1="96.15" y1="178.47" x2="128.53" y2="168.86" gradientTransform="translate(34.55 -79.42) rotate(10.17)" gradientUnits="userSpaceOnUse"><stop offset="0" stop-color="gray"/><stop offset="0.14" stop-color="#777"/><stop offset="0.37" stop-color="#5e5e5e"/><stop offset="0.67" stop-color="#353535"/><stop offset="0.99"/></linearGradient><linearGradient id="Безымянный_градиент_56" x1="102.67" y1="285.5" x2="102.67" y2="274.08" gradientTransform="translate(32.09 -134.66) rotate(5.31)" xlink:href="#Безымянный_градиент_55"/><radialGradient id="Безымянный_градиент_18-2" cx="99.22" cy="251.49" r="8.47" gradientTransform="matrix(1.19, 0.1, -0.1, 1, 18.65, -135.11)" xlink:href="#Безымянный_градиент_18"/><linearGradient id="Безымянный_градиент_24" x1="-1292.31" y1="204.14" x2="-1256.81" y2="240.14" gradientTransform="matrix(-0.62, -0.85, 1.43, -0.24, -1072.35, -936.44)" gradientUnits="userSpaceOnUse"><stop offset="0" stop-color="#984c24"/><stop offset="0.04" stop-color="#80401e"/><stop offset="0.14" stop-color="#532914"/><stop offset="0.22" stop-color="#2f170b"/><stop offset="0.31" stop-color="#150b05"/><stop offset="0.38" stop-color="#050301"/><stop offset="0.44"/><stop offset="0.79" stop-color="#343434"/><stop offset="0.99" stop-color="#4d4d4d"/></linearGradient><linearGradient id="Безымянный_градиент_53-2" x1="108.09" y1="24.33" x2="126.07" y2="15.44" gradientTransform="translate(2.63 -9.85) rotate(3.23)" xlink:href="#Безымянный_градиент_53"/><radialGradient id="Безымянный_градиент_8" cx="89.24" cy="50.01" r="39.45" gradientTransform="translate(2.63 -9.85) rotate(3.23)" xlink:href="#Безымянный_градиент_127"/><linearGradient id="Безымянный_градиент_49" x1="136.74" y1="133.84" x2="165.51" y2="133.84" gradientTransform="matrix(0.9, 0.41, -0.42, 0.89, 8.81, -170.6)" gradientUnits="userSpaceOnUse"><stop offset="0" stop-color="#31c8c5"/><stop offset="0.2" stop-color="#29a6a3"/><stop offset="0.62" stop-color="#14504f"/><stop offset="1"/></linearGradient><linearGradient id="Безымянный_градиент_49-2" x1="98.61" y1="30.96" x2="127.37" y2="30.96" gradientTransform="matrix(1.09, 0.28, -0.24, 1.11, -16.2, -55.36)" xlink:href="#Безымянный_градиент_49"/><linearGradient id="Безымянный_градиент_24-2" x1="-1387.52" y1="173.22" x2="-1343.65" y2="192.35" gradientTransform="matrix(-0.7, -0.79, 1.4, -0.38, -1126.99, -904.45)" xlink:href="#Безымянный_градиент_24"/></defs><title>босс1 анимация атаки</title><g id="Слой_6" data-name="Слой 6"><path class="cls-1" d="M151.12,130.81c-2.1-2.14-6.84-12-6.84-12s8.29,6,8.42,3.71c.15-2.77-4.1-8.83-8.64-14.42-2.87-3.54,6.59,4.87,5.85.4-1.24-7.41-13.28-24.18-12.36-25.32,1.75-2.18,5.57,4.32,6.12,2.49,1.63-5.34-4.24-19.22-5.3-20.48l-.15-.07s.08,0,.15.07a20.31,20.31,0,0,1,6.75,5.61c2.49,3.13,1-9.1-3.86-17.82-6.52-11.73,3-6.64,3-9-.13-6.11-13-13.75-13.79-15.87a20.89,20.89,0,0,0-5.4-2.6c3,6,3.89,13.66,4.66,27.37.82,14.73-.71,28.55,1.53,33.13s3.8,14.29,5.32,39.44c.89,14.61,13.49,21.73,13.49,21.73s7.78-2.57,8.54-10.58C158.85,133.69,153.31,133.06,151.12,130.81Z"/><path class="cls-2" d="M127.13,26.55s8.8,17.6,7.55,36c-1,15.12-4.3,18.54,3.07,29s-1.74,23.95,6,35.09c6.32,9.08,24.25,18.54-5.89,23.91-7,1.25-14.11-4-13.87-16.26.67-35.23-4.21-18-4.8-46.51A218.25,218.25,0,0,1,127.13,26.55Z"/><path class="cls-3" d="M91.93,71.21s-9,21.72-1.75,41.18c2.61,6.94,2.31,18.37,2.29,30.16,0,14.67-33.54,16-37.53,6.68s8.08-20.88,9.74-37c1.46-14.29,6.39-48.37,15.49-46.58S91.93,71.21,91.93,71.21Z"/><path class="cls-4" d="M55.05,149.63c6.43,7.21,26,7,35-.89,2.48-2.18-1.92-5.57-3.88-4.75-1.19.5-3.89,5.08-3.89,5.08s-3.76-5.67-5.37-5.28c-1.35.34-3,6.54-3,6.54a10,10,0,0,0-4.56-5.39c-1.91-.93-5.48,5-5.48,5s-1.07-3.89-4.45-4.44C56.91,145.05,53.5,147.9,55.05,149.63Z"/><path class="cls-5" d="M78.7,122.87c-1.65,5.58-6,8.43-7.07,8.11-1.38-.4-7-5.27-5.35-10.85s8.28-9.85,9.52-8.95C77.87,112.68,80.35,117.29,78.7,122.87Z"/><path class="cls-6" d="M99.3,80.49s2.56,21.05-2.26,42.42c-3.72,16.49-12.13,25.05-4,30.48,11.7,7.77,35.21,4.16,34.47-4.57-1-11.79-2.56-21-3.46-37.2-2-35.49-1.21-51.57-8.73-45.36C107.48,72.77,99.3,80.49,99.3,80.49Z"/><path class="cls-7" d="M126.31,151.91c-6.16,7.45-22.88,9-34.72-.22-2.62-2,1.43-5,3.41-4.26,1.21.45,4.08,4.94,4.08,4.94s3.54-5.81,5.17-5.48c1.37.28,3.28,6.42,3.28,6.42a10,10,0,0,1,4.36-5.55c1.87-1,5.66,4.75,5.66,4.75s.92-3.93,4.28-4.61C124.28,147.4,127.79,150.12,126.31,151.91Z"/><path class="cls-8" d="M103.12,125c-.21,5.81,3.62,9.91,5,10,1.73.07,9.94-2.72,10.15-8.53s-5.73-12-7.48-11.56A11.11,11.11,0,0,0,103.12,125Z"/><path class="cls-9" d="M25.35,111.43c-42.35,6-16.74-4.39-2.21-10.94,8.68-3.92,40.52-32.31,45.22-38,7.91-9.65,14.15,2.1,11.26,5.63C72.94,76.24,66.65,95,25.35,111.43Z"/><path class="cls-10" d="M141.81,27.36c-2.27-6.55-19.53-10.81-19.53-10.81s0-2.33,9-3.4c5.25-.63-17.76-4.39-23.35-5.14-1.39.08-1.94.09-.93,0a3.94,3.94,0,0,1,.93,0c2.43-.13,9.21-2.36,13-2.42,9-.16-24.56-8.25-33.58,5.76,0,0-2.34,7.32-.42,7.42S98.52,12,98.52,12l6.19,2.58s10.6,2.75,12.57,3.37c2.62.82,9.23,8.53,9.48,9,1.86.34,1.54.43,3.37,1.36C129.94,27.8,142.5,29.37,141.81,27.36Z"/><path class="cls-11" d="M58.84,48.5c2.1-37.16,23-41.33,39-40.43,19.8,1.12,37.51,20.55,32.64,44.47-4.27,21-17.65,41.65-37.44,40.51C56.44,90.94,57.51,72,58.84,48.5Z"/><path class="cls-12" d="M91.87,39.14C91,47.59,85.16,55.07,83.53,54.9c-3.5-.37-8-8.3-7.18-16.74s8-15,10-14C89.63,25.69,92.72,30.7,91.87,39.14Z"/><path d="M83.07,48.94a13.5,13.5,0,0,1-2.3-5.14,16.07,16.07,0,0,1-.33-5A15.78,15.78,0,0,1,81.61,34a13.47,13.47,0,0,1,3.17-4.66,13.41,13.41,0,0,1,2.32,5.14,15.8,15.8,0,0,1,.31,5,16.11,16.11,0,0,1-1.18,4.83A13.35,13.35,0,0,1,83.07,48.94Z"/><path class="cls-12" d="M61.27,40C60.23,33,64.79,26.11,66.14,26c2.91-.18,5.48,6,6.52,12.91s-.38,12.71-2.18,12.21A13.6,13.6,0,0,1,61.27,40Z"/><path d="M64.37,31.19a11.74,11.74,0,0,1,3.13,3.27,15.57,15.57,0,0,1,1.77,3.71,15.05,15.05,0,0,1,.76,4,11.71,11.71,0,0,1-.61,4.48,11.6,11.6,0,0,1-3.13-3.27,15.22,15.22,0,0,1-1.77-3.71,15.87,15.87,0,0,1-.75-4A11.89,11.89,0,0,1,64.37,31.19Z"/><path class="cls-12" d="M108.31,43.91c3.3-6.19,1.39-14.24.16-14.77C105.83,28,101,29.85,97.7,36S94.16,51.2,96,51.34A13.47,13.47,0,0,0,108.31,43.91Z"/><path d="M106.52,33a11.69,11.69,0,0,1-.25,4.51,15.25,15.25,0,0,1-1.49,3.82,15.44,15.44,0,0,1-2.42,3.31,11.62,11.62,0,0,1-3.69,2.61,11.5,11.5,0,0,1,.24-4.51,15.27,15.27,0,0,1,1.5-3.82,15.68,15.68,0,0,1,2.43-3.3A11.75,11.75,0,0,1,106.52,33Z"/><path class="cls-13" d="M125.48,31.86A15.5,15.5,0,0,0,124,27.52,9.78,9.78,0,0,0,120.83,24a7.4,7.4,0,0,0-2.33-1,5.67,5.67,0,0,0-2.56,0,7.17,7.17,0,0,0-4,2.68l.13.13a35.76,35.76,0,0,1,4.22-.83,7.06,7.06,0,0,1,3.8.46,8.54,8.54,0,0,1,3.1,2.72,17,17,0,0,1,2.16,3.83Z"/><path class="cls-14" d="M77.05,12.59c-11,4.65,3.25-25.72,26.39.56C103.44,13.15,92.54,6.05,77.05,12.59Z"/><path class="cls-15" d="M87.35,15c-10.91,7.57-2.87-30,29-4.78C116.37,10.18,102.66,4.32,87.35,15Z"/><path class="cls-13" d="M127.09,42a15.46,15.46,0,0,0-1.5-4.33,9.79,9.79,0,0,0-3.15-3.58,7.77,7.77,0,0,0-2.34-1,5.68,5.68,0,0,0-2.56,0,7.24,7.24,0,0,0-4,2.69l.14.13a31.65,31.65,0,0,1,4.21-.83,7,7,0,0,1,3.8.45,8.66,8.66,0,0,1,3.1,2.73,16.59,16.59,0,0,1,2.17,3.82Z"/><path class="cls-13" d="M129.09,53.06a15.61,15.61,0,0,0-1.49-4.34,9.87,9.87,0,0,0-3.16-3.57,7.77,7.77,0,0,0-2.34-1,5.54,5.54,0,0,0-2.56,0,7.26,7.26,0,0,0-4,2.68l.14.14a33.36,33.36,0,0,1,4.21-.84,7.05,7.05,0,0,1,3.8.46,8.55,8.55,0,0,1,3.1,2.72,16.66,16.66,0,0,1,2.17,3.83Z"/><path class="cls-13" d="M59.79,63.47a15.45,15.45,0,0,1,1.93-4.35,9.39,9.39,0,0,1,3.6-3.28,7.41,7.41,0,0,1,2.54-.72,5.93,5.93,0,0,1,2.68.43,8.32,8.32,0,0,1,4,3.46l-.15.12A35.68,35.68,0,0,0,70,57.59a7.3,7.3,0,0,0-4-.11,8.21,8.21,0,0,0-3.48,2.4,16,16,0,0,0-2.59,3.7Z"/><path class="cls-13" d="M60.75,71.54A15.36,15.36,0,0,1,62,67.14a9.83,9.83,0,0,1,3-3.72,7.67,7.67,0,0,1,2.29-1.14,5.54,5.54,0,0,1,2.56-.09A7.26,7.26,0,0,1,74,64.68l-.13.14a33.76,33.76,0,0,0-4.25-.63,7.08,7.08,0,0,0-3.77.63,8.59,8.59,0,0,0-3,2.87,16.82,16.82,0,0,0-2,3.92Z"/><path class="cls-13" d="M105.65,61.16A17.32,17.32,0,0,0,100.51,58a13.4,13.4,0,0,0-5.77-1,7.64,7.64,0,0,0-1.43.16,6.28,6.28,0,0,0-1.41.33l-1.38.39c-.45.18-.9.34-1.36.49l-.7.22-.67.31c-.45.18-.9.39-1.38.56-.9.43-1.8.9-2.81,1.27l-.13-.15a18.37,18.37,0,0,1,2.19-2.31c.43-.33.87-.62,1.31-.94l.68-.44c.24-.13.49-.24.73-.36.5-.22,1-.44,1.51-.63s1.07-.25,1.6-.35a8.17,8.17,0,0,1,1.63-.15,8.87,8.87,0,0,1,1.63,0,14.57,14.57,0,0,1,6.17,1.68A16.55,16.55,0,0,1,105.8,61Z"/><path class="cls-13" d="M104.09,68.57A16.38,16.38,0,0,0,100,64.75a14.11,14.11,0,0,0-5-2.17,7.77,7.77,0,0,0-1.34-.21,6.79,6.79,0,0,0-1.35-.07c-.45,0-.9,0-1.34,0s-.9,0-1.35.06h-.69l-.68.08c-.46,0-.91.08-1.39.09-.93.1-1.86.25-2.87.27l-.07-.19a15.32,15.32,0,0,1,2.6-1.45,13.9,13.9,0,0,1,2.91-.78c.51-.06,1-.12,1.52-.15s1,.08,1.52.13a9.72,9.72,0,0,1,1.5.3,9.35,9.35,0,0,1,1.46.42,15.3,15.3,0,0,1,5.2,2.91,16.18,16.18,0,0,1,3.69,4.52Z"/><path class="cls-16" d="M79.43,91.74C70.07,90.57,64.31,82.5,64.52,80c.25-3.16,6.44-17.36,15.8-16.19s18,13.6,16.93,16.67C95.43,85.58,88.78,92.9,79.43,91.74Z"/><path class="cls-17" d="M65.65,83.82c3.82,6.64,16.93,9.19,23,3.71C90.33,86,85.53,84,85.32,84c-.8.14-2.89,3.36-2.89,3.36s-2.23-4.91-3.28-4.77c-.88.13-3.1,4.49-3.1,4.49s-.14-4-.78-5.12-5.3,3.2-5.3,3.2.3-2.82-.82-3.72C69,81.29,64.74,82.23,65.65,83.82Z"/><path class="cls-17" d="M69.05,68.83s-6.51,4.94-6.87,17c-.37,12.28,4.41,12.37,4.41,12.37s-.51-9.42-.13-13.66,6.31-13.36,6.31-13.36S75.44,64.15,69.05,68.83Z"/><path class="cls-17" d="M72.75,66.05c7.46-7,21,5.73,21,5.73s-4,5.81-5.16,5.12c-1-.58-2.29-8-2.29-8s-2.71,5.38-3.86,6.29S78.62,68,78.62,68s-.8,6.31-2.42,6.76C75.92,74.85,72.07,66.69,72.75,66.05Z"/><path class="cls-17" d="M95.86,77.3A22.27,22.27,0,0,1,85.6,95.78c-10.78,7-12.46,5.7-12.46,5.7s8-6.69,11.26-10.21S92,76,92,76,94.79,69.3,95.86,77.3Z"/><path class="cls-18" d="M70.52,123.59c-41.58,10-17.09-2.76-3.26-10.69,8.26-4.73,37.21-36.07,41.34-42.23,6.94-10.36,14.28.73,11.74,4.52C114.49,84,110,103.27,70.52,123.59Z"/></g></svg>