<svg xmlns="http://www.w3.org/2000/svg" xmlns:xlink="http://www.w3.org/1999/xlink" viewBox="0 0 160 160"><defs><style>.cls-1,.cls-10,.cls-11,.cls-12,.cls-13,.cls-15,.cls-16,.cls-17,.cls-18,.cls-19,.cls-2,.cls-3,.cls-4,.cls-5,.cls-6,.cls-7,.cls-8,.cls-9{stroke:#000;}.cls-1,.cls-10,.cls-11,.cls-12,.cls-13,.cls-15,.cls-17,.cls-18,.cls-19,.cls-2,.cls-3,.cls-4,.cls-5,.cls-6,.cls-7,.cls-8,.cls-9{stroke-miterlimit:10;}.cls-1{fill:url(#Безымянный_градиент_59);}.cls-2{fill:url(#Безымянный_градиент_56);}.cls-3{fill:url(#Безымянный_градиент_18);}.cls-4{fill:url(#Безымянный_градиент_58);}.cls-5{fill:url(#Безымянный_градиент_55);}.cls-6{fill:url(#Безымянный_градиент_18-2);}.cls-7{fill:url(#Безымянный_градиент_24);}.cls-8{fill:url(#Безымянный_градиент_53);}.cls-9{fill:url(#Безымянный_градиент_53-2);}.cls-10{fill:url(#Безымянный_градиент_127);}.cls-11{fill:url(#Безымянный_градиент_53-3);}.cls-12{fill:url(#Безымянный_градиент_8);}.cls-13{fill:#f7cb14;}.cls-13,.cls-17{stroke-width:2px;}.cls-14{fill:gray;}.cls-15{fill:url(#Безымянный_градиент_49);}.cls-16{stroke-linejoin:round;fill:url(#Безымянный_градиент_49-2);}.cls-17{fill:#b60000;}.cls-18{fill:#31c8c5;}.cls-19{fill:url(#Безымянный_градиент_24-2);}</style><linearGradient id="Безымянный_градиент_59" x1="85.23" y1="128.67" x2="117.86" y2="118.98" gradientTransform="translate(19.83 -25.68) rotate(7.69)" gradientUnits="userSpaceOnUse"><stop offset="0" stop-color="gray"/><stop offset="0.14" stop-color="#777"/><stop offset="0.37" stop-color="#5e5e5e"/><stop offset="0.67" stop-color="#353535"/><stop offset="0.99"/></linearGradient><linearGradient id="Безымянный_градиент_56" x1="97.25" y1="205.61" x2="97.25" y2="194.2" gradientTransform="translate(12.26 -51.15) rotate(2.82)" gradientUnits="userSpaceOnUse"><stop offset="0"/><stop offset="0.03" stop-color="#040e0e"/><stop offset="0.16" stop-color="#0f3f3e"/><stop offset="0.3" stop-color="#1a6968"/><stop offset="0.43" stop-color="#228b89"/><stop offset="0.57" stop-color="#29a6a4"/><stop offset="0.71" stop-color="#2db9b6"/><stop offset="0.85" stop-color="#30c4c1"/><stop offset="1" stop-color="#31c8c5"/></linearGradient><radialGradient id="Безымянный_градиент_18" cx="95.68" cy="171.49" r="8.47" gradientTransform="translate(12.26 -51.15) rotate(2.82)" gradientUnits="userSpaceOnUse"><stop offset="0"/><stop offset="0.18" stop-color="#311508"/><stop offset="0.37" stop-color="#5d280e"/><stop offset="0.55" stop-color="#803714"/><stop offset="0.72" stop-color="#994218"/><stop offset="0.87" stop-color="#a8491a"/><stop offset="1" stop-color="#ad4b1b"/></radialGradient><linearGradient id="Безымянный_градиент_58" x1="31.53" y1="37.46" x2="80.15" y2="37.46" gradientTransform="translate(1.09 80.57) rotate(-6.01)" gradientUnits="userSpaceOnUse"><stop offset="0" stop-color="gray"/><stop offset="0.15" stop-color="#757575"/><stop offset="0.4" stop-color="#585858"/><stop offset="0.74" stop-color="#282828"/><stop offset="0.99"/></linearGradient><linearGradient id="Безымянный_градиент_55" x1="49.61" y1="82.21" x2="49.61" y2="70.62" gradientTransform="translate(1.09 80.57) rotate(-6.01)" xlink:href="#Безымянный_градиент_56"/><radialGradient id="Безымянный_градиент_18-2" cx="75.06" cy="57.71" r="6.86" gradientTransform="matrix(1.15, -0.05, 0.18, 1.02, -35.64, 67.74)" xlink:href="#Безымянный_градиент_18"/><linearGradient id="Безымянный_градиент_24" x1="-597.38" y1="154.71" x2="-561.88" y2="190.71" gradientTransform="matrix(-0.85, -0.63, 1.29, -0.66, -681.59, -147.87)" gradientUnits="userSpaceOnUse"><stop offset="0" stop-color="#984c24"/><stop offset="0.04" stop-color="#80401e"/><stop offset="0.14" stop-color="#532914"/><stop offset="0.22" stop-color="#2f170b"/><stop offset="0.31" stop-color="#150b05"/><stop offset="0.38" stop-color="#050301"/><stop offset="0.44"/><stop offset="0.79" stop-color="#343434"/><stop offset="0.99" stop-color="#4d4d4d"/></linearGradient><linearGradient id="Безымянный_градиент_53" x1="128.54" y1="60.46" x2="128.59" y2="60.43" gradientUnits="userSpaceOnUse"><stop offset="0"/><stop offset="0.08" stop-color="#071b1a"/><stop offset="0.25" stop-color="#134f4e"/><stop offset="0.42" stop-color="#1e7a79"/><stop offset="0.58" stop-color="#269c9a"/><stop offset="0.74" stop-color="#2cb4b2"/><stop offset="0.88" stop-color="#30c3c0"/><stop offset="1" stop-color="#31c8c5"/></linearGradient><linearGradient id="Безымянный_градиент_53-2" x1="127" y1="122.54" x2="139.85" y2="116.19" gradientTransform="matrix(1, 0.01, -0.01, 1.04, 3.87, -44.86)" xlink:href="#Безымянный_градиент_53"/><radialGradient id="Безымянный_градиент_127" cx="129.27" cy="125.22" r="45.06" gradientTransform="matrix(1, 0.01, -0.01, 1.04, 3.87, -44.86)" gradientUnits="userSpaceOnUse"><stop offset="0.28" stop-color="#984c24"/><stop offset="0.39" stop-color="#864320"/><stop offset="0.62" stop-color="#582c15"/><stop offset="0.94" stop-color="#0e0703"/><stop offset="0.99"/></radialGradient><linearGradient id="Безымянный_градиент_53-3" x1="95.08" y1="13.78" x2="112.01" y2="5.42" gradientTransform="matrix(1, -0.04, 0.04, 1, -1.7, 10.55)" xlink:href="#Безымянный_градиент_53"/><radialGradient id="Безымянный_градиент_8" cx="76.58" cy="37.49" r="39.45" gradientTransform="matrix(1, -0.04, 0.04, 1, -1.7, 10.55)" xlink:href="#Безымянный_градиент_127"/><linearGradient id="Безымянный_градиент_49" x1="89.68" y1="45.09" x2="118.44" y2="45.09" gradientTransform="matrix(0.96, 0.11, -0.08, 0.96, -22.07, -45)" gradientUnits="userSpaceOnUse"><stop offset="0" stop-color="#31c8c5"/><stop offset="0.2" stop-color="#29a6a3"/><stop offset="0.62" stop-color="#14504f"/><stop offset="1"/></linearGradient><linearGradient id="Безымянный_градиент_49-2" x1="66.61" y1="17.23" x2="95.38" y2="17.23" gradientTransform="matrix(0.97, 0.12, 0.04, 1, 4.63, -17.43)" xlink:href="#Безымянный_градиент_49"/><linearGradient id="Безымянный_градиент_24-2" x1="-661.84" y1="156.34" x2="-617.98" y2="175.46" gradientTransform="matrix(-0.91, -0.54, 1.22, -0.78, -694.48, -108.36)" xlink:href="#Безымянный_градиент_24"/></defs><title>босс1 анимация атаки</title><g id="Слой_7" data-name="Слой 7"><path class="cls-1" d="M82.34,74.15s8.39,27.59,4.5,49.15c-3,16.63-11,25.55-2.63,30.62,12,7.25,35.36,2.63,34.25-6.07-1.51-11.73-.53-21.4-5.07-37-5.71-19.62.34-49.55-9.52-46.82S82.34,74.15,82.34,74.15Z"/><path class="cls-2" d="M117.34,151c-5.83,7.71-22.48,9.93-34.7,1.29-2.7-1.91,1.21-5.07,3.23-4.41,1.22.4,4.28,4.76,4.28,4.76s3.29-6,4.93-5.69c1.38.22,3.56,6.26,3.56,6.26a10,10,0,0,1,4.11-5.73c1.83-1.08,5.86,4.5,5.86,4.5s.76-4,4.07-4.79C115.12,146.59,118.74,149.15,117.34,151Z"/><path class="cls-3" d="M93,125.15c0,5.82,3.4,9.76,4.55,9.75,1.44,0,8.19-3.13,8.14-9S100.46,114.2,99,114.72C96.61,115.59,93,119.33,93,125.15Z"/><path class="cls-4" d="M80.92,73.28s-10,21.27-3.65,41.05c2.28,7.06,1.45,18.45.89,30.23-.7,14.66-34.25,14.48-37.8,4.94S49.39,129,51.8,113c2.12-14.21,8.62-48,17.63-45.82S80.92,73.28,80.92,73.28Z"/><path class="cls-5" d="M40.45,149.91c6.09,7.5,25.68,8.18,35,.72,2.58-2.06-1.66-5.65-3.65-4.92-1.21.44-4.12,4.9-4.12,4.9s-3.49-5.84-5.12-5.52c-1.37.27-3.34,6.38-3.34,6.38a10,10,0,0,0-4.31-5.59c-1.87-1-5.71,4.7-5.71,4.7s-.88-3.93-4.23-4.64C42.52,145.42,39,148.1,40.45,149.91Z"/><path class="cls-6" d="M67.42,125c-1.9,5.5-6.9,8-8.17,7.53C57.64,132,51.13,126.46,53,121s9.58-9.16,11-8.12A11.07,11.07,0,0,1,67.42,125Z"/><path class="cls-7" d="M26.5,119.48c-38.63,18.34-17.28.81-5.38-9.79,7.11-6.33,29-42.95,31.77-49.82,4.67-11.57,14.13-2.23,12.43,2C61.39,71.66,61,91.47,26.5,119.48Z"/><path class="cls-8" d="M128.48,60.43l.16,0C128.55,60.4,128.49,60.38,128.48,60.43Z"/><path class="cls-9" d="M148.59,127c-2.3-2-8-11.47-8-11.47s8.87,5.27,8.76,2.88c-.13-2.83-5-8.53-10.08-13.72-3.22-3.29,7.06,4.24,5.85-.21-2-7.39-15.71-23.12-14.91-24.38,1.51-2.39,6,3.8,6.35,1.89,1.07-5.59-6.2-19-7.39-20.22l-.16,0c0-.06.07,0,.16,0a20.22,20.22,0,0,1,7.29,5c2.8,2.91,0-9.33-5.68-17.67-7.7-11.2,2.18-3.43,1.89-5.8-.76-6.19-14.26-16.18-15.23-18.25A20.44,20.44,0,0,0,111.76,23c3.61,5.73,5.29,13.44,7.46,27.26,2.34,14.86,2.25,29,5,33.45s5.26,14.09,9.37,39.43c2.4,14.72,15.66,20.62,15.66,20.62s7.47-3.43,7.41-11.63C156.58,129.13,151,129.08,148.59,127Z"/><path class="cls-10" d="M114,23.82s10.56,16.92,11.22,35.69c.54,15.44-2.36,19.25,6,29.1s.75,24.48,9.63,35c7.23,8.54,26,16.24-3.38,24.87-6.84,2-14.44-2.53-15.48-15-3-35.8-6-17.83-9.58-46.66A226.79,226.79,0,0,1,114,23.82Z"/><path class="cls-11" d="M126.39,26.27c-5.71-9.46-19.6-13.06-19.6-13.06s-1.44-.62,9-1c5.29-.22-18.47-5.87-24.1-6.06-1.38.21-1.92.27-.93,0a3.57,3.57,0,0,1,.93,0C94.07,5.74,99,4.93,102.75,4.5c8.89-1-23.69-7.89-31.3,6.93,0,0-1.62,7.52.3,7.42S82.7,11,82.7,11l6.41,2s10.82,1.71,12.83,2.14c2.69.56,10,7.59,10.31,8,1.89.15,1.57.27,3.49,1C115.51,23.66,127.49,28.1,126.39,26.27Z"/><path class="cls-12" d="M46.75,51.16C45.23,14,65.68,7.8,81.6,7.15c19.81-.81,39.33,16.8,36.81,41.09-2.21,21.32-13.52,43.17-33.33,43.95C48.49,93.64,47.71,74.65,46.75,51.16Z"/><path class="cls-13" d="M78.6,36.65c0,8.49-5.13,16.5-6.77,16.49-3.52,0-8.8-7.48-8.77-16s6.49-15.69,8.56-14.94C75.07,23.48,78.63,28.16,78.6,36.65Z"/><path d="M70.8,47.26A13.5,13.5,0,0,1,68,42.37a16.17,16.17,0,0,1-.8-4.91,15.87,15.87,0,0,1,.69-4.93,13.27,13.27,0,0,1,2.7-4.94,13.28,13.28,0,0,1,2.81,4.88,15.9,15.9,0,0,1,.79,4.91,16.15,16.15,0,0,1-.7,4.93A13.64,13.64,0,0,1,70.8,47.26Z"/><path class="cls-13" d="M48.75,44.26C46,37.78,48.73,30,50,29.54c2.77-.89,6.78,4.42,9.51,10.89s2.78,12.42.91,12.38A13.6,13.6,0,0,1,48.75,44.26Z"/><path d="M50.66,34.4a11.76,11.76,0,0,1,3.42,3,15.74,15.74,0,0,1,2.13,3.52,14.91,14.91,0,0,1,1.14,3.94,11.27,11.27,0,0,1-.17,4.52,11.64,11.64,0,0,1-3.43-2.94,15.34,15.34,0,0,1-2.12-3.52,15.9,15.9,0,0,1-1.14-3.95A11.65,11.65,0,0,1,50.66,34.4Z"/><path class="cls-13" d="M95.49,44.16c3.06-6.32.85-14.28-.39-14.77-2.69-1-7.45,1-10.51,7.3S81.62,52,83.46,52A13.48,13.48,0,0,0,95.49,44.16Z"/><path d="M93.29,33.34a11.68,11.68,0,0,1-.07,4.51,15.78,15.78,0,0,1-1.35,3.88,15.31,15.31,0,0,1-2.3,3.4A11.78,11.78,0,0,1,86,47.88a11.74,11.74,0,0,1,.07-4.52,15.32,15.32,0,0,1,1.36-3.87,15.59,15.59,0,0,1,2.31-3.4A11.84,11.84,0,0,1,93.29,33.34Z"/><path class="cls-14" d="M111.47,28.13A15.75,15.75,0,0,0,109.56,24a9.89,9.89,0,0,0-3.49-3.25,7.75,7.75,0,0,0-2.42-.8,5.67,5.67,0,0,0-2.55.28,7.23,7.23,0,0,0-3.74,3.06l.15.12a34.3,34.3,0,0,1,4.12-1.24,7.08,7.08,0,0,1,3.82.09,8.55,8.55,0,0,1,3.35,2.41,16.63,16.63,0,0,1,2.53,3.59Z"/><path class="cls-15" d="M64,14.81c-8.41,7.69-5.79-25,24.08-7.47C88.06,7.34,75.78,4,64,14.81Z"/><path class="cls-16" d="M74.83,14.65c-7.47,8-8.94-26.06,23.22-7.62A24.43,24.43,0,0,0,74.83,14.65Z"/><path class="cls-14" d="M114.05,38.11a15.33,15.33,0,0,0-1.9-4.18,9.89,9.89,0,0,0-3.49-3.25,7.72,7.72,0,0,0-2.43-.8,5.61,5.61,0,0,0-2.54.28A7.32,7.32,0,0,0,100,33.22l.14.13a33.12,33.12,0,0,1,4.12-1.25,7.08,7.08,0,0,1,3.82.09,8.68,8.68,0,0,1,3.36,2.41,16.75,16.75,0,0,1,2.52,3.6Z"/><path class="cls-14" d="M117.12,48.89a15.66,15.66,0,0,0-1.91-4.18,9.89,9.89,0,0,0-3.49-3.25,7.72,7.72,0,0,0-2.43-.8,5.63,5.63,0,0,0-2.54.28A7.28,7.28,0,0,0,103,44l.15.12a34.7,34.7,0,0,1,4.11-1.24,7.12,7.12,0,0,1,3.83.09,8.72,8.72,0,0,1,3.35,2.41A17.16,17.16,0,0,1,117,49Z"/><path class="cls-14" d="M49.47,67A15.11,15.11,0,0,1,51,62.45a9.5,9.5,0,0,1,3.27-3.62,7.46,7.46,0,0,1,2.45-1,5.81,5.81,0,0,1,2.71.17,8.43,8.43,0,0,1,4.31,3.05l-.14.14a35.3,35.3,0,0,0-4.48-1.11,7.36,7.36,0,0,0-4,.28,8.28,8.28,0,0,0-3.23,2.72,16.59,16.59,0,0,0-2.22,3.94Z"/><path class="cls-14" d="M50.42,72A15.85,15.85,0,0,1,52,67.68a10,10,0,0,1,3.21-3.52,7.81,7.81,0,0,1,2.36-1,5.68,5.68,0,0,1,2.56.08,7.22,7.22,0,0,1,4,2.74l-.13.14a33.57,33.57,0,0,0-4.21-.91,7.15,7.15,0,0,0-3.8.4,8.67,8.67,0,0,0-3.15,2.68,16.74,16.74,0,0,0-2.22,3.79Z"/><path class="cls-14" d="M94.89,61.21a17.45,17.45,0,0,0-5.43-2.61,13.6,13.6,0,0,0-5.83-.43,8.56,8.56,0,0,0-1.42.31,6.41,6.41,0,0,0-1.36.46c-.45.19-.9.35-1.34.53s-.86.42-1.31.62c-.22.1-.45.18-.67.29l-.63.36c-.44.23-.87.48-1.33.7-.85.51-1.7,1.07-2.67,1.54l-.14-.14a17.41,17.41,0,0,1,2-2.52c.38-.36.8-.7,1.21-1l.63-.51c.22-.15.46-.29.69-.43q.7-.4,1.44-.78c.51-.19,1-.34,1.56-.5a8.81,8.81,0,0,1,1.61-.31,9.77,9.77,0,0,1,1.62-.16,14.6,14.6,0,0,1,6.3,1.08A16.58,16.58,0,0,1,95,61.07Z"/><path class="cls-14" d="M94.41,67.73a17,17,0,0,0-4.79-3,14.08,14.08,0,0,0-5.35-1.14,7.7,7.7,0,0,0-1.36.06,6.56,6.56,0,0,0-1.33.19c-.45.09-.88.18-1.33.24s-.87.22-1.31.32l-.67.13-.65.2c-.45.12-.89.26-1.35.36-.89.28-1.77.62-2.76.83l-.11-.17a15,15,0,0,1,2.27-1.93,13.86,13.86,0,0,1,2.7-1.34c.48-.15,1-.31,1.46-.44s1-.13,1.52-.17a9.64,9.64,0,0,1,1.52,0,11,11,0,0,1,1.52.12,15.5,15.5,0,0,1,5.67,1.84,16.18,16.18,0,0,1,4.5,3.72Z"/><path class="cls-17" d="M72.65,91.46c-11-1-18-7.6-17.87-9.62C55,79.3,61.56,67.93,72.5,69S94.06,80.12,92.92,82.58C91,86.67,83.59,92.5,72.65,91.46Z"/><path class="cls-18" d="M58.75,86.46c6,6,22.08,7.82,27.93,2.47,1.62-1.48-4.51-3.18-4.76-3.13C81,86,79.32,89,79.32,89s-3.78-4.47-5-4.29c-1,.15-2.6,4.3-2.6,4.3s-1.11-3.74-2.12-4.73-5.48,3.2-5.48,3.2-.31-2.63-1.83-3.42C62.05,84,57.3,85,58.75,86.46Z"/><path class="cls-18" d="M63.93,71.53c7.77-7.81,20.56,2.68,20.56,2.68s-4.1,4.43-5.24,4c-1-.4-2.16-5.87-2.16-5.87s-2.79,4.07-4,4.78-3.74-5.21-3.74-5.21-.91,4.7-2.54,5.09C66.57,77,63.38,72.08,63.93,71.53Z"/><path class="cls-18" d="M58.86,73.33s-5.76,5.24-4.79,18c1,13.08,5.62,13.2,5.62,13.2s-1.52-10-1.62-14.56S62.71,75.8,62.71,75.8,64.53,68.37,58.86,73.33Z"/><path class="cls-18" d="M89.72,78.24s6.23,8.34-.51,18.87-9,10.36-9,10.36,4.24-8.92,5.6-13.15-.41-15.2-.41-15.2S84.69,72.76,89.72,78.24Z"/><path class="cls-19" d="M79.18,131.62c-36.65,22.06-17.12,2.51-6.32-9.21,6.45-7,24.64-45.59,26.72-52.7,3.5-12,13.84-3.61,12.56.77C109.19,80.61,110.76,100.36,79.18,131.62Z"/></g></svg>