<svg xmlns="http://www.w3.org/2000/svg" xmlns:xlink="http://www.w3.org/1999/xlink" viewBox="0 0 160 160"><defs><style>.cls-1,.cls-10,.cls-11,.cls-12,.cls-14,.cls-15,.cls-16,.cls-17,.cls-2,.cls-3,.cls-4,.cls-5,.cls-6,.cls-7,.cls-8,.cls-9{stroke:#000;}.cls-1,.cls-10,.cls-11,.cls-12,.cls-14,.cls-16,.cls-17,.cls-2,.cls-3,.cls-4,.cls-5,.cls-6,.cls-7,.cls-8,.cls-9{stroke-miterlimit:10;}.cls-1{fill:url(#Безымянный_градиент_53);}.cls-2{fill:url(#Безымянный_градиент_127);}.cls-3{fill:url(#Безымянный_градиент_58);}.cls-4{fill:url(#Безымянный_градиент_55);}.cls-5{fill:url(#Безымянный_градиент_18);}.cls-6{fill:url(#Безымянный_градиент_59);}.cls-7{fill:url(#Безымянный_градиент_56);}.cls-8{fill:url(#Безымянный_градиент_18-2);}.cls-9{fill:url(#Безымянный_градиент_24);}.cls-10{fill:url(#Безымянный_градиент_53-2);}.cls-11{fill:url(#Безымянный_градиент_8);}.cls-12{fill:#b60000;stroke-width:2px;}.cls-13{fill:gray;}.cls-14{fill:url(#Безымянный_градиент_49);}.cls-15{stroke-linejoin:round;fill:url(#Безымянный_градиент_49-2);}.cls-16{fill:#31c8c5;}.cls-17{fill:url(#Безымянный_градиент_24-2);}</style><linearGradient id="Безымянный_градиент_53" x1="134.18" y1="165.99" x2="148.15" y2="159.07" gradientTransform="matrix(0.99, 0.12, -0.12, 1.01, 26.37, -97.98)" gradientUnits="userSpaceOnUse"><stop offset="0"/><stop offset="0.08" stop-color="#071b1a"/><stop offset="0.25" stop-color="#134f4e"/><stop offset="0.42" stop-color="#1e7a79"/><stop offset="0.58" stop-color="#269c9a"/><stop offset="0.74" stop-color="#2cb4b2"/><stop offset="0.88" stop-color="#30c3c0"/><stop offset="1" stop-color="#31c8c5"/></linearGradient><radialGradient id="Безымянный_градиент_127" cx="135.3" cy="169.24" r="45.06" gradientTransform="matrix(0.99, 0.12, -0.12, 1.01, 26.37, -97.98)" gradientUnits="userSpaceOnUse"><stop offset="0.28" stop-color="#984c24"/><stop offset="0.39" stop-color="#864320"/><stop offset="0.62" stop-color="#582c15"/><stop offset="0.94" stop-color="#0e0703"/><stop offset="0.99"/></radialGradient><linearGradient id="Безымянный_градиент_58" x1="26.29" y1="22.88" x2="74.91" y2="22.88" gradientTransform="translate(26.16 100.41) rotate(-12.6)" gradientUnits="userSpaceOnUse"><stop offset="0" stop-color="gray"/><stop offset="0.15" stop-color="#757575"/><stop offset="0.4" stop-color="#585858"/><stop offset="0.74" stop-color="#282828"/><stop offset="0.99"/></linearGradient><linearGradient id="Безымянный_градиент_55" x1="44.37" y1="67.63" x2="44.37" y2="56.03" gradientTransform="translate(26.16 100.41) rotate(-12.6)" gradientUnits="userSpaceOnUse"><stop offset="0"/><stop offset="0.03" stop-color="#040e0e"/><stop offset="0.16" stop-color="#0f3f3e"/><stop offset="0.3" stop-color="#1a6968"/><stop offset="0.43" stop-color="#228b89"/><stop offset="0.57" stop-color="#29a6a4"/><stop offset="0.71" stop-color="#2db9b6"/><stop offset="0.85" stop-color="#30c4c1"/><stop offset="1" stop-color="#31c8c5"/></linearGradient><radialGradient id="Безымянный_градиент_18" cx="48.38" cy="33.01" r="6.86" gradientTransform="translate(26.16 100.41) rotate(-12.6)" gradientUnits="userSpaceOnUse"><stop offset="0"/><stop offset="0.18" stop-color="#311508"/><stop offset="0.37" stop-color="#5d280e"/><stop offset="0.55" stop-color="#803714"/><stop offset="0.72" stop-color="#994218"/><stop offset="0.87" stop-color="#a8491a"/><stop offset="1" stop-color="#ad4b1b"/></radialGradient><linearGradient id="Безымянный_градиент_59" x1="95.7" y1="147.63" x2="128.07" y2="138.02" gradientTransform="translate(31.83 -48.81) rotate(10.17)" gradientUnits="userSpaceOnUse"><stop offset="0" stop-color="gray"/><stop offset="0.14" stop-color="#777"/><stop offset="0.37" stop-color="#5e5e5e"/><stop offset="0.67" stop-color="#353535"/><stop offset="0.99"/></linearGradient><linearGradient id="Безымянный_градиент_56" x1="104.21" y1="269.44" x2="104.21" y2="258.02" gradientTransform="translate(31.35 -118.63) rotate(5.31)" xlink:href="#Безымянный_градиент_55"/><radialGradient id="Безымянный_градиент_18-2" cx="71.94" cy="237.14" r="8.47" gradientTransform="matrix(1.19, 0.1, -0.1, 1, 51.96, -117.94)" xlink:href="#Безымянный_градиент_18"/><linearGradient id="Безымянный_градиент_24" x1="-1474.05" y1="321.91" x2="-1438.55" y2="357.92" gradientTransform="matrix(-0.51, -0.92, 1.44, -0.07, -1200.03, -1225.6)" gradientUnits="userSpaceOnUse"><stop offset="0" stop-color="#984c24"/><stop offset="0.04" stop-color="#80401e"/><stop offset="0.14" stop-color="#532914"/><stop offset="0.22" stop-color="#2f170b"/><stop offset="0.31" stop-color="#150b05"/><stop offset="0.38" stop-color="#050301"/><stop offset="0.44"/><stop offset="0.79" stop-color="#343434"/><stop offset="0.99" stop-color="#4d4d4d"/></linearGradient><linearGradient id="Безымянный_градиент_53-2" x1="111.73" y1="13.96" x2="130.92" y2="4.47" gradientTransform="translate(2.36 -0.07) rotate(3.23)" xlink:href="#Безымянный_градиент_53"/><radialGradient id="Безымянный_градиент_8" cx="91.24" cy="40.28" r="39.45" gradientTransform="translate(2.36 -0.07) rotate(3.23)" xlink:href="#Безымянный_градиент_127"/><linearGradient id="Безымянный_градиент_49" x1="122.06" y1="60.37" x2="150.83" y2="60.37" gradientTransform="matrix(0.9, 0.41, -0.42, 0.89, -7.81, -99.69)" gradientUnits="userSpaceOnUse"><stop offset="0" stop-color="#31c8c5"/><stop offset="0.2" stop-color="#29a6a3"/><stop offset="0.62" stop-color="#14504f"/><stop offset="1"/></linearGradient><linearGradient id="Безымянный_градиент_49-2" x1="79.42" y1="-1.13" x2="108.69" y2="-1.13" gradientTransform="matrix(1.09, 0.28, -0.24, 1.11, -0.2, -15.51)" xlink:href="#Безымянный_градиент_49"/><linearGradient id="Безымянный_градиент_24-2" x1="-1568.87" y1="288.38" x2="-1525.01" y2="307.5" gradientTransform="matrix(-0.54, -0.91, 1.44, -0.11, -1184.63, -1270.3)" xlink:href="#Безымянный_градиент_24"/></defs><title>босс1 анимация атаки</title><g id="Слой_3" data-name="Слой 3"><path class="cls-1" d="M152,131.08C150,128.92,145.3,119,145.3,119s8.25,6.12,8.4,3.78c.17-2.77-4-8.87-8.52-14.5-2.84-3.56,6.55,4.93,5.84.46-1.18-7.43-13.08-24.3-12.15-25.43,1.77-2.16,5.53,4.37,6.11,2.55,1.67-5.33-4.08-19.26-5.14-20.53l-.15-.07c0-.05.08,0,.15.07a20.3,20.3,0,0,1,6.7,5.67c2.47,3.15,1.07-9.09-3.71-17.85-6.42-11.79,4.93-5.65,4.9-8-.08-6.11-14.78-14.83-15.53-16.95a20.77,20.77,0,0,0-5.37-2.65c3,6,3.78,13.7,4.43,27.41.7,14.73-.95,28.54,1.26,33.14s3.68,14.32,5,39.48c.76,14.62,13.3,21.85,13.3,21.85s7.8-2.51,8.63-10.51C159.76,134,154.22,133.35,152,131.08Z"/><path class="cls-2" d="M128.92,26.62s8.65,17.67,7.25,36c-1.15,15.11-4.45,18.51,2.83,29s-1.94,23.94,5.74,35.14c6.25,9.13,24.1,18.75-6.09,23.87-7,1.19-14.07-4.09-13.73-16.38,1-35.22-4.06-18-4.41-46.54A218.17,218.17,0,0,1,128.92,26.62Z"/><path class="cls-3" d="M96.33,70.92s-7.53,22.28,1.08,41.2c3.08,6.75,3.56,18.16,4.35,29.93,1,14.64-32.36,18.31-37,9.24S71.4,129.9,72,113.67C72.44,99.31,75,65,84.22,66.13S96.33,70.92,96.33,70.92Z"/><path class="cls-4" d="M64.92,151.68c6.9,6.76,26.45,5.19,34.85-3.29,2.33-2.35-2.3-5.42-4.19-4.47-1.16.58-3.54,5.34-3.54,5.34s-4.13-5.4-5.71-4.9c-1.33.42-2.59,6.72-2.59,6.72A10,10,0,0,0,78.82,146c-2-.8-5.13,5.32-5.13,5.32s-1.33-3.81-4.74-4.13C66.46,147,63.26,150.06,64.92,151.68Z"/><path class="cls-5" d="M86.67,123.36c-1.26,5.68-5.37,8.82-6.49,8.58-1.41-.31-7.35-4.78-6.08-10.46s7.58-10.4,8.88-9.58C85.15,113.25,87.94,117.68,86.67,123.36Z"/><path class="cls-6" d="M101.57,80.66s2.56,21.06-2.26,42.43c-3.72,16.49-12.13,25-4,30.48,11.7,7.77,35.21,4.16,34.47-4.58-1-11.78-2.55-21-3.46-37.19-2-35.49-1.21-51.57-8.73-45.37C109.75,73,101.57,80.66,101.57,80.66Z"/><path class="cls-7" d="M128.58,152.09c-6.15,7.45-22.88,8.94-34.72-.22-2.62-2,1.43-5,3.42-4.26,1.2.45,4.07,4.93,4.07,4.93s3.54-5.8,5.17-5.47c1.37.28,3.28,6.41,3.28,6.41a10,10,0,0,1,4.36-5.54c1.88-1,5.66,4.75,5.66,4.75s.92-3.93,4.28-4.61C126.56,147.58,130.06,150.3,128.58,152.09Z"/><path class="cls-8" d="M105.39,125.21c-.21,5.81,3.63,9.91,5,10,1.73.07,9.94-2.72,10.15-8.54s-5.72-12-7.47-11.55A11.1,11.1,0,0,0,105.39,125.21Z"/><path class="cls-9" d="M23.66,109.11c-42.76.7-16.07-6.41-.84-11.13C31.91,95.16,67,70.89,72.36,65.78c9-8.6,13.78,3.83,10.48,7C75.21,80,66.66,97.9,23.66,109.11Z"/><path class="cls-10" d="M148,27.6c-6.82-8.69-23.47-11.87-23.47-11.87s3.21-3.4,11-5.75c5.07-1.52-19.81-2-25.4-2.79-1.39.08-1.94.09-.93,0a3.94,3.94,0,0,1,.93,0c2.43-.13,8.66-2.85,12.4-2.92,9-.15-24-7.75-33,6.26,0,0-2.34,7.32-.42,7.41s11.67-6.78,11.67-6.78L107,13.74s10.59,2.75,12.56,3.37c2.62.82,9.23,8.53,9.48,9,1.87.34,1.54.43,3.37,1.36C132.21,27,148.75,28.54,148,27.6Z"/><path class="cls-11" d="M61.11,48.67c2.1-37.15,23-41.32,39-40.42,19.8,1.12,37.52,20.54,32.65,44.47-4.28,21-17.65,41.65-37.45,40.51C58.71,91.12,59.78,72.14,61.11,48.67Z"/><path class="cls-12" d="M94.14,39.32c-.85,8.45-6.71,15.92-8.33,15.76-3.5-.37-8-8.3-7.18-16.75s8-15,10-14C91.9,25.87,95,30.87,94.14,39.32Z"/><path d="M85.35,49.12A13.38,13.38,0,0,1,83,44a16.38,16.38,0,0,1-.33-5,16.09,16.09,0,0,1,1.18-4.84,13.3,13.3,0,0,1,3.16-4.66,13.41,13.41,0,0,1,2.32,5.14,16.06,16.06,0,0,1,.32,5,16.4,16.4,0,0,1-1.18,4.84A13.72,13.72,0,0,1,85.35,49.12Z"/><path class="cls-12" d="M63.54,40.15c-1-6.95,3.52-13.86,4.87-13.94,2.91-.18,5.48,6,6.52,12.9s-.38,12.72-2.18,12.22A13.6,13.6,0,0,1,63.54,40.15Z"/><path d="M66.65,31.37a11.84,11.84,0,0,1,3.12,3.27,15.94,15.94,0,0,1,1.78,3.7,15.52,15.52,0,0,1,.75,4,11.57,11.57,0,0,1-.61,4.49,11.74,11.74,0,0,1-3.13-3.27,15.39,15.39,0,0,1-1.77-3.71,15.86,15.86,0,0,1-.74-4A11.48,11.48,0,0,1,66.65,31.37Z"/><path class="cls-12" d="M110.58,44.09c3.3-6.19,1.39-14.24.16-14.77-2.64-1.14-7.47.71-10.77,6.9s-3.54,15.16-1.7,15.3A13.49,13.49,0,0,0,110.58,44.09Z"/><path d="M108.79,33.2a11.89,11.89,0,0,1-.24,4.51,16,16,0,0,1-1.49,3.82,15.49,15.49,0,0,1-2.43,3.31,11.51,11.51,0,0,1-3.69,2.61,11.68,11.68,0,0,1,.24-4.51,15.66,15.66,0,0,1,1.5-3.82,15.43,15.43,0,0,1,2.43-3.3A11.87,11.87,0,0,1,108.79,33.2Z"/><path class="cls-13" d="M127.76,33a15.73,15.73,0,0,0-1.5-4.34,10,10,0,0,0-3.15-3.58,7.77,7.77,0,0,0-2.34-1,5.54,5.54,0,0,0-2.56,0,7.17,7.17,0,0,0-4,2.68l.13.13a32.11,32.11,0,0,1,4.22-.83,7.16,7.16,0,0,1,3.8.45,8.66,8.66,0,0,1,3.1,2.73,17,17,0,0,1,2.17,3.82Z"/><path class="cls-14" d="M78.32,11.76c-11,4.66,3.25-25.71,26.4.57C104.72,12.33,93.81,5.23,78.32,11.76Z"/><path class="cls-15" d="M89.62,14.12c-10.92,7.56-1.25-28.73,30.31-6C119.93,8.14,104.94,3.5,89.62,14.12Z"/><path class="cls-13" d="M129.36,43.21a15.61,15.61,0,0,0-1.49-4.34,10,10,0,0,0-3.16-3.57,7.77,7.77,0,0,0-2.34-1,5.54,5.54,0,0,0-2.56,0,7.31,7.31,0,0,0-4,2.68l.14.14a33.16,33.16,0,0,1,4.22-.84,7,7,0,0,1,3.79.46,8.49,8.49,0,0,1,3.1,2.73,16.59,16.59,0,0,1,2.17,3.82Z"/><path class="cls-13" d="M131.36,54.24a15.5,15.5,0,0,0-1.49-4.34,9.87,9.87,0,0,0-3.16-3.57,7.35,7.35,0,0,0-2.34-1,5.68,5.68,0,0,0-2.56,0,7.18,7.18,0,0,0-4,2.68l.13.14a33.51,33.51,0,0,1,4.22-.84,7,7,0,0,1,3.79.46,8.57,8.57,0,0,1,3.11,2.72,17,17,0,0,1,2.16,3.83Z"/><path class="cls-13" d="M62.06,63.65A15.45,15.45,0,0,1,64,59.3,9.47,9.47,0,0,1,67.59,56a7.66,7.66,0,0,1,2.54-.73,6.06,6.06,0,0,1,2.68.44,8.39,8.39,0,0,1,4,3.46l-.15.12a36.44,36.44,0,0,0-4.36-1.54,7.3,7.3,0,0,0-4-.11,8.34,8.34,0,0,0-3.48,2.39,16.9,16.9,0,0,0-2.59,3.71Z"/><path class="cls-13" d="M63,70.72a15.52,15.52,0,0,1,1.29-4.41,9.89,9.89,0,0,1,3-3.71,7.67,7.67,0,0,1,2.29-1.14,5.54,5.54,0,0,1,2.56-.09,7.23,7.23,0,0,1,4.14,2.49l-.13.14a33.78,33.78,0,0,0-4.25-.64,7,7,0,0,0-3.77.64,8.5,8.5,0,0,0-3,2.87,16.82,16.82,0,0,0-2,3.92Z"/><path class="cls-13" d="M107.93,61.34a17.4,17.4,0,0,0-5.15-3.13,13.53,13.53,0,0,0-5.76-1,8.58,8.58,0,0,0-1.44.17,6.85,6.85,0,0,0-1.41.32c-.46.15-.92.27-1.38.4s-.9.34-1.36.49l-.7.22-.66.31c-.46.18-.91.39-1.39.56-.9.43-1.8.9-2.81,1.27l-.13-.15a17.14,17.14,0,0,1,2.2-2.31c.42-.33.87-.63,1.31-.94l.67-.44c.24-.13.49-.24.73-.36.5-.22,1-.44,1.51-.64s1.07-.24,1.6-.34a8.21,8.21,0,0,1,1.64-.15,8.87,8.87,0,0,1,1.63,0,14.86,14.86,0,0,1,6.16,1.68,16.65,16.65,0,0,1,4.89,3.91Z"/><path class="cls-13" d="M106.75,67.91a17,17,0,0,0-4.43-3.46,14.18,14.18,0,0,0-5.2-1.72,14.06,14.06,0,0,0-2.7,0c-.45,0-.9.08-1.34.09s-.89.13-1.34.18l-.68,0-.68.13c-.45.07-.9.16-1.37.21-.92.18-1.83.42-2.84.52l-.09-.18A15.3,15.3,0,0,1,88.55,62a13.5,13.5,0,0,1,2.83-1c.5-.1,1-.2,1.5-.28s1,0,1.53,0a8.73,8.73,0,0,1,1.52.17,9.56,9.56,0,0,1,1.49.29,15.45,15.45,0,0,1,5.43,2.45,16,16,0,0,1,4.06,4.19Z"/><path class="cls-12" d="M81.72,91.81C73.1,90.63,67.79,82.47,68,79.94c.23-3.19,5.94-17.54,14.57-16.36s16.6,13.75,15.6,16.85C96.48,85.59,90.35,93,81.72,91.81Z"/><path class="cls-16" d="M69,83.81c3.52,6.71,15.6,9.29,21.2,3.75C91.78,86,87.35,84,87.15,84c-.73.14-2.65,3.39-2.65,3.39s-2.06-5-3-4.81c-.81.12-2.86,4.53-2.86,4.53s-.13-4.07-.72-5.18S73,85.16,73,85.16s.27-2.85-.75-3.76C72.08,81.25,68.18,82.2,69,83.81Z"/><path class="cls-16" d="M72.16,68.66s-6,5-6.34,17.14c-.34,12.41,4.07,12.5,4.07,12.5s-.47-9.52-.12-13.81S75.59,71,75.59,71,78.05,63.92,72.16,68.66Z"/><path class="cls-16" d="M75.57,65.85C82.45,58.76,95,71.64,95,71.64s-3.69,5.87-4.75,5.17c-.89-.59-2.12-8.09-2.12-8.09s-2.49,5.43-3.55,6.35S81,67.83,81,67.83s-.73,6.37-2.23,6.83C78.49,74.74,74.94,66.49,75.57,65.85Z"/><path class="cls-16" d="M96.87,77.22s.48,11.57-9.46,18.68-11.48,5.76-11.48,5.76,7.36-6.77,10.37-10.32,7-15.47,7-15.47S95.89,69.13,96.87,77.22Z"/><path class="cls-17" d="M62.62,115.77c-42.72,2-16.26-5.91-1.19-11.11,9-3.1,43.31-28.44,48.52-33.72,8.76-8.88,13.89,3.4,10.69,6.65C113.24,85.1,105.25,103.23,62.62,115.77Z"/></g></svg>