<svg xmlns="http://www.w3.org/2000/svg" xmlns:xlink="http://www.w3.org/1999/xlink" viewBox="0 0 160 160"><defs><style>.cls-1,.cls-10,.cls-11,.cls-12,.cls-14,.cls-15,.cls-16,.cls-17,.cls-18,.cls-2,.cls-3,.cls-4,.cls-5,.cls-6,.cls-7,.cls-8,.cls-9{stroke:#000;}.cls-1,.cls-10,.cls-11,.cls-12,.cls-14,.cls-16,.cls-17,.cls-18,.cls-2,.cls-3,.cls-4,.cls-5,.cls-6,.cls-7,.cls-8,.cls-9{stroke-miterlimit:10;}.cls-1{fill:url(#Безымянный_градиент_53);}.cls-2{fill:url(#Безымянный_градиент_127);}.cls-3{fill:url(#Безымянный_градиент_58);}.cls-4{fill:url(#Безымянный_градиент_55);}.cls-5{fill:url(#Безымянный_градиент_18);}.cls-6{fill:url(#Безымянный_градиент_59);}.cls-7{fill:url(#Безымянный_градиент_56);}.cls-8{fill:url(#Безымянный_градиент_18-2);}.cls-9{fill:url(#Безымянный_градиент_24);}.cls-10{fill:url(#Безымянный_градиент_53-2);}.cls-11{fill:url(#Безымянный_градиент_8);}.cls-12{fill:#af6800;}.cls-12,.cls-16{stroke-width:2px;}.cls-13{fill:gray;}.cls-14{fill:url(#Безымянный_градиент_49);}.cls-15{stroke-linejoin:round;fill:url(#Безымянный_градиент_49-2);}.cls-16{fill:#b60000;}.cls-17{fill:#31c8c5;}.cls-18{fill:url(#Безымянный_градиент_24-2);}</style><linearGradient id="Безымянный_градиент_53" x1="132.71" y1="205.95" x2="146.23" y2="199.27" gradientTransform="matrix(1, 0.04, -0.04, 1.02, 10.67, -130.36)" gradientUnits="userSpaceOnUse"><stop offset="0"/><stop offset="0.08" stop-color="#071b1a"/><stop offset="0.25" stop-color="#134f4e"/><stop offset="0.42" stop-color="#1e7a79"/><stop offset="0.58" stop-color="#269c9a"/><stop offset="0.74" stop-color="#2cb4b2"/><stop offset="0.88" stop-color="#30c3c0"/><stop offset="1" stop-color="#31c8c5"/></linearGradient><radialGradient id="Безымянный_градиент_127" cx="134.29" cy="208.97" r="45.06" gradientTransform="matrix(1, 0.04, -0.04, 1.02, 10.67, -130.36)" gradientUnits="userSpaceOnUse"><stop offset="0.28" stop-color="#984c24"/><stop offset="0.39" stop-color="#864320"/><stop offset="0.62" stop-color="#582c15"/><stop offset="0.94" stop-color="#0e0703"/><stop offset="0.99"/></radialGradient><linearGradient id="Безымянный_градиент_58" x1="21.2" y1="-29.42" x2="69.82" y2="-29.42" gradientTransform="translate(28.56 146.03) rotate(-5.88)" gradientUnits="userSpaceOnUse"><stop offset="0" stop-color="gray"/><stop offset="0.15" stop-color="#757575"/><stop offset="0.4" stop-color="#585858"/><stop offset="0.74" stop-color="#282828"/><stop offset="0.99"/></linearGradient><linearGradient id="Безымянный_градиент_55" x1="39.28" y1="15.33" x2="39.28" y2="3.73" gradientTransform="translate(28.56 146.03) rotate(-5.88)" gradientUnits="userSpaceOnUse"><stop offset="0"/><stop offset="0.03" stop-color="#040e0e"/><stop offset="0.16" stop-color="#0f3f3e"/><stop offset="0.3" stop-color="#1a6968"/><stop offset="0.43" stop-color="#228b89"/><stop offset="0.57" stop-color="#29a6a4"/><stop offset="0.71" stop-color="#2db9b6"/><stop offset="0.85" stop-color="#30c4c1"/><stop offset="1" stop-color="#31c8c5"/></linearGradient><radialGradient id="Безымянный_градиент_18" cx="43.29" cy="-19.29" r="6.86" gradientTransform="translate(28.56 146.03) rotate(-5.88)" gradientUnits="userSpaceOnUse"><stop offset="0"/><stop offset="0.18" stop-color="#311508"/><stop offset="0.37" stop-color="#5d280e"/><stop offset="0.55" stop-color="#803714"/><stop offset="0.72" stop-color="#994218"/><stop offset="0.87" stop-color="#a8491a"/><stop offset="1" stop-color="#ad4b1b"/></radialGradient><linearGradient id="Безымянный_градиент_59" x1="95.13" y1="210.48" x2="127.51" y2="200.86" gradientTransform="translate(26.41 -106.73) rotate(7.33)" gradientUnits="userSpaceOnUse"><stop offset="0" stop-color="gray"/><stop offset="0.14" stop-color="#777"/><stop offset="0.37" stop-color="#5e5e5e"/><stop offset="0.67" stop-color="#353535"/><stop offset="0.99"/></linearGradient><linearGradient id="Безымянный_градиент_56" x1="99.57" y1="302.46" x2="99.57" y2="291.04" gradientTransform="translate(19.95 -146.97) rotate(2.47)" xlink:href="#Безымянный_градиент_55"/><radialGradient id="Безымянный_градиент_18-2" cx="125.5" cy="266.71" r="8.47" gradientTransform="matrix(1.2, 0.04, -0.05, 1, -27.92, -146.2)" xlink:href="#Безымянный_градиент_18"/><linearGradient id="Безымянный_градиент_24" x1="-1098.91" y1="86.87" x2="-1063.41" y2="122.88" gradientTransform="matrix(-0.7, -0.79, 1.39, -0.38, -870.23, -709.54)" gradientUnits="userSpaceOnUse"><stop offset="0" stop-color="#984c24"/><stop offset="0.04" stop-color="#80401e"/><stop offset="0.14" stop-color="#532914"/><stop offset="0.22" stop-color="#2f170b"/><stop offset="0.31" stop-color="#150b05"/><stop offset="0.38" stop-color="#050301"/><stop offset="0.44"/><stop offset="0.79" stop-color="#343434"/><stop offset="0.99" stop-color="#4d4d4d"/></linearGradient><linearGradient id="Безымянный_градиент_53-2" x1="104.5" y1="35.83" x2="122.04" y2="27.16" gradientTransform="translate(0.97 -16.85) rotate(1.55)" xlink:href="#Безымянный_градиент_53"/><radialGradient id="Безымянный_градиент_8" cx="85.63" cy="60.23" r="39.45" gradientTransform="translate(-1.79 -12.81) rotate(-0.88)" xlink:href="#Безымянный_градиент_127"/><linearGradient id="Безымянный_градиент_49" x1="149.54" y1="207.55" x2="178.31" y2="207.55" gradientTransform="matrix(0.96, 0.24, -0.26, 0.96, -19.14, -226.6)" gradientUnits="userSpaceOnUse"><stop offset="0" stop-color="#31c8c5"/><stop offset="0.2" stop-color="#29a6a3"/><stop offset="0.62" stop-color="#14504f"/><stop offset="1"/></linearGradient><linearGradient id="Безымянный_градиент_49-2" x1="117.16" y1="64.48" x2="145.92" y2="64.48" gradientTransform="matrix(1.12, 0.13, -0.09, 1.13, -46.59, -77.23)" xlink:href="#Безымянный_градиент_49"/><linearGradient id="Безымянный_градиент_24-2" x1="-1183.22" y1="63.03" x2="-1139.36" y2="82.15" gradientTransform="matrix(-0.83, -0.65, 1.3, -0.63, -976.84, -595)" xlink:href="#Безымянный_градиент_24"/></defs><title>босс1 анимация атаки</title><g id="Слой_4" data-name="Слой 4"><path class="cls-1" d="M151.87,128.34c-2.25-2-7.7-11.49-7.7-11.49s8.71,5.43,8.67,3.09c0-2.78-4.73-8.51-9.65-13.77-3.12-3.32,6.92,4.39,5.86,0-1.78-7.31-15-23.16-14.17-24.37,1.59-2.3,5.87,3.91,6.3,2,1.23-5.45-5.62-18.87-6.77-20.05l-.16,0c0-.06.07,0,.16,0a20.53,20.53,0,0,1,7.13,5.11c2.71,2.94.33-9.14-5.14-17.49-7.35-11.23,2.46-4.56,2.58-6.9.5-10.62-14.27-15-15.18-17.1a20.93,20.93,0,0,0-5.57-2.21c3.43,5.73,4.87,13.35,6.62,27,1.89,14.63,1.36,28.53,3.93,32.94s4.82,14,8.17,39c1.94,14.5,15,20.7,15,20.7s7.57-3.14,7.75-11.17C159.79,130.65,154.22,130.43,151.87,128.34Z"/><path class="cls-2" d="M120.4,26.09s10,16.91,10.13,35.33c.07,15.15-2.94,18.8,5.16,28.72s0,24,8.55,34.56c7,8.6,25.54,16.74-4.14,24.28-6.89,1.75-14.35-2.94-15-15.22-1.87-35.18-5.5-17.66-8.15-46A218.36,218.36,0,0,1,120.4,26.09Z"/><path class="cls-3" d="M91.29,73.45s-10.09,21.25-3.75,41c2.26,7.06,1.41,18.46.82,30.23-.74,14.66-34.28,14.4-37.81,4.85s9.08-20.46,11.52-36.52c2.16-14.2,8.74-48,17.75-45.78S91.29,73.45,91.29,73.45Z"/><path class="cls-4" d="M50.64,150c6.07,7.51,25.66,8.24,35,.81,2.58-2.06-1.65-5.66-3.65-4.94-1.21.44-4.13,4.89-4.13,4.89s-3.47-5.84-5.1-5.53c-1.37.27-3.36,6.38-3.36,6.38a10,10,0,0,0-4.29-5.6c-1.87-1-5.72,4.69-5.72,4.69s-.88-3.94-4.22-4.66C52.72,145.49,49.18,148.17,50.64,150Z"/><path class="cls-5" d="M75.56,124.39c-1.92,5.5-6.37,8.14-7.45,7.77-1.37-.47-6.74-5.61-4.82-11.1s8.74-9.44,9.94-8.48C75.23,114.18,77.48,118.9,75.56,124.39Z"/><path class="cls-6" d="M93.91,81.38s3.61,20.91-.15,42.49c-2.9,16.65-10.87,25.62-2.44,30.64,12.08,7.18,35.38,2.41,34.21-6.28-1.58-11.73-3.59-20.82-5.3-37-3.73-35.34-3.77-51.45-11-44.88C101.7,73.27,93.91,81.38,93.91,81.38Z"/><path class="cls-7" d="M124.43,151.38c-5.78,7.75-22.41,10.07-34.69,1.51-2.71-1.9,1.18-5.08,3.2-4.43,1.23.39,4.32,4.73,4.32,4.73s3.25-6,4.89-5.73c1.38.22,3.6,6.25,3.6,6.25a10,10,0,0,1,4.07-5.76c1.83-1.09,5.9,4.46,5.9,4.46s.72-4,4-4.81C122.19,147,125.82,149.52,124.43,151.38Z"/><path class="cls-8" d="M99.94,125.68c.07,5.82,4.11,9.73,5.48,9.71,1.72,0,9.79-3.2,9.71-9s-6.31-11.71-8-11.17A11.09,11.09,0,0,0,99.94,125.68Z"/><path class="cls-9" d="M24.77,119c-41.58,10-17.08-2.75-3.26-10.68,8.26-4.74,37.2-36.09,41.32-42.25,6.94-10.37,14.28.72,11.75,4.52C68.73,79.4,64.29,98.7,24.77,119Z"/><path class="cls-10" d="M137.09,28.82C132,19,117.49,16.3,117.49,16.3s.74-1.14,9.57-2.22c5.25-.65-18.58-5.31-24.19-5.89-1.38.11-1.93.14-.92,0a3.22,3.22,0,0,1,.92,0c2.43-.21,7.44-.68,11.18-.85C123,6.92,91-2.14,82.35,12.13c0,0-2.12,7.39-.2,7.42s11.46-7.12,11.46-7.12l6.26,2.39s10.67,2.45,12.66,3c2.64.75,9.48,8.26,9.74,8.67,1.88.29,1.55.38,3.41,1.26C125.48,27.32,138.06,30.72,137.09,28.82Z"/><path class="cls-11" d="M55,51.62C54.44,14.42,75,8.75,91,8.51c19.82-.31,38.89,17.8,35.75,42C124,71.78,112.1,93.33,92.27,93.62,55.66,94.13,55.37,75.13,55,51.62Z"/><path class="cls-12" d="M87.76,38.77c-.61,8.47-6.24,16.12-7.87,16-3.51-.26-8.28-8.06-7.67-16.53S79.76,23,81.77,23.92C85.13,25.39,88.36,30.31,87.76,38.77Z"/><path d="M79.25,48.83a13.36,13.36,0,0,1-2.45-5.07,16.58,16.58,0,0,1,.55-9.82,13.34,13.34,0,0,1,3-4.75,13.13,13.13,0,0,1,2.47,5.07,16.44,16.44,0,0,1-.58,9.81A13.29,13.29,0,0,1,79.25,48.83Z"/><path class="cls-12" d="M57.2,40.51c-1.25-6.92,3.11-14,4.45-14.09,2.91-.26,5.66,5.8,6.9,12.71s0,12.72-1.82,12.28A13.59,13.59,0,0,1,57.2,40.51Z"/><path d="M60,31.64a11.72,11.72,0,0,1,3.22,3.17,16,16,0,0,1,1.88,3.65,15.43,15.43,0,0,1,.88,4,11.79,11.79,0,0,1-.48,4.5,11.72,11.72,0,0,1-3.22-3.17,15.12,15.12,0,0,1-1.88-3.66,15.33,15.33,0,0,1-.87-4A11.74,11.74,0,0,1,60,31.64Z"/><path class="cls-12" d="M104.33,43.06c3.11-6.29,1-14.27-.27-14.77-2.68-1.07-7.46.93-10.57,7.21S90.4,50.76,92.24,50.84A13.47,13.47,0,0,0,104.33,43.06Z"/><path d="M102.22,32.22a11.9,11.9,0,0,1-.11,4.52,15.43,15.43,0,0,1-1.38,3.86A15,15,0,0,1,98.4,44a11.61,11.61,0,0,1-3.6,2.72,11.65,11.65,0,0,1,.1-4.51,15.76,15.76,0,0,1,1.38-3.87A16.29,16.29,0,0,1,98.62,35,11.78,11.78,0,0,1,102.22,32.22Z"/><path class="cls-13" d="M121.14,30.5a15.36,15.36,0,0,0-1.62-4.29,9.79,9.79,0,0,0-3.26-3.48,7.53,7.53,0,0,0-2.37-1,5.5,5.5,0,0,0-2.55.11,7.17,7.17,0,0,0-3.94,2.8l.14.13a33,33,0,0,1,4.19-1,7.08,7.08,0,0,1,3.81.34,8.64,8.64,0,0,1,3.18,2.64A17.09,17.09,0,0,1,121,30.58Z"/><path class="cls-14" d="M73.79,15.1c-10,6.54-1.36-25.88,26.08-4.13C99.87,11,87.88,5.92,73.79,15.1Z"/><path class="cls-15" d="M83.29,18.8c-9.79,9-6.89-29.35,28.1-8.64C111.39,10.16,97,6.2,83.29,18.8Z"/><path class="cls-13" d="M123,40.63a15.43,15.43,0,0,0-1.62-4.3,9.77,9.77,0,0,0-3.26-3.47,7.6,7.6,0,0,0-2.36-1,5.68,5.68,0,0,0-2.56.11,7.22,7.22,0,0,0-3.94,2.8l.14.13a33.85,33.85,0,0,1,4.19-1,7.07,7.07,0,0,1,3.81.35A8.54,8.54,0,0,1,120.62,37a16.78,16.78,0,0,1,2.28,3.76Z"/><path class="cls-13" d="M125.37,51.59a15.36,15.36,0,0,0-1.62-4.29,9.89,9.89,0,0,0-3.26-3.48,7.53,7.53,0,0,0-2.37-1,5.41,5.41,0,0,0-2.56.11,7.22,7.22,0,0,0-3.93,2.79l.14.13a31.37,31.37,0,0,1,4.19-1,7,7,0,0,1,3.8.34A8.75,8.75,0,0,1,123,47.91a17,17,0,0,1,2.27,3.76Z"/><path class="cls-13" d="M56.41,64a15.61,15.61,0,0,1,1.79-4.41,9.48,9.48,0,0,1,3.51-3.38,7.6,7.6,0,0,1,2.51-.8,6.11,6.11,0,0,1,2.7.35A8.41,8.41,0,0,1,71,59.14l-.15.13a34.63,34.63,0,0,0-4.4-1.41,7.29,7.29,0,0,0-4,0A8.21,8.21,0,0,0,59,60.36a16.46,16.46,0,0,0-2.48,3.78Z"/><path class="cls-13" d="M57.61,72.07a15.63,15.63,0,0,1,1.15-4.44,9.89,9.89,0,0,1,2.88-3.8,7.65,7.65,0,0,1,2.25-1.21,5.65,5.65,0,0,1,2.55-.16,7.19,7.19,0,0,1,4.21,2.37l-.12.14a34.07,34.07,0,0,0-4.27-.51,7.08,7.08,0,0,0-3.75.75,8.56,8.56,0,0,0-2.88,3,16.82,16.82,0,0,0-1.87,4Z"/><path class="cls-13" d="M102.18,60.38a17.36,17.36,0,0,0-5.23-3,13.57,13.57,0,0,0-5.79-.82,10,10,0,0,0-1.44.21,6.8,6.8,0,0,0-1.39.37c-.45.16-.91.29-1.37.43s-.89.37-1.34.54c-.23.08-.47.14-.69.24l-.66.32c-.45.2-.9.42-1.37.6-.89.46-1.77,1-2.77,1.36L80,60.5a17,17,0,0,1,2.12-2.38c.41-.34.85-.64,1.28-1l.66-.46c.24-.14.48-.25.72-.38.49-.24,1-.47,1.49-.68s1.06-.28,1.59-.4a8.86,8.86,0,0,1,1.63-.2A11.14,11.14,0,0,1,91.12,55a14.79,14.79,0,0,1,6.21,1.5,16.91,16.91,0,0,1,5,3.76Z"/><path class="cls-13" d="M100.56,70.43a16.67,16.67,0,0,0-4-4,14.1,14.1,0,0,0-5-2.33,7.27,7.27,0,0,0-1.33-.25A6.68,6.68,0,0,0,89,63.76c-.45,0-.9,0-1.34-.07s-.9,0-1.36,0l-.68,0-.68,0c-.46,0-.92.05-1.39.05-.93.07-1.87.19-2.88.17l-.07-.19a15.86,15.86,0,0,1,2.66-1.36,13.72,13.72,0,0,1,2.93-.68c.5-.05,1-.09,1.52-.1s1,.11,1.52.18a9.63,9.63,0,0,1,1.48.35,10.19,10.19,0,0,1,1.45.46,15.53,15.53,0,0,1,5.1,3.09,16.05,16.05,0,0,1,3.53,4.64Z"/><path class="cls-16" d="M78.84,92.9C68.57,91.72,62.2,84,62.4,81.56c.26-3,7-16.56,17.23-15.38S99.48,79.33,98.3,82.26C96.35,87.13,89.1,94.09,78.84,92.9Z"/><path class="cls-17" d="M66,85.62c4.08,6.64,18.11,9.19,24.6,3.71,1.8-1.52-3.34-3.57-3.57-3.53-.85.14-3.08,3.36-3.08,3.36s-2.39-4.91-3.51-4.77c-.94.12-3.33,4.49-3.33,4.49s-.15-4-.83-5.13S70.61,87,70.61,87s.32-2.82-.87-3.72C69.54,83.08,65,84,66,85.62Z"/><path class="cls-17" d="M68,70.44s-7,5.15-7.28,17.75c-.35,12.88,4.77,13,4.77,13s-.58-9.88-.2-14.32,6.7-14,6.7-14S74.83,65.55,68,70.44Z"/><path class="cls-17" d="M72.5,68C81.3,62.63,94,74.06,94,74.06S89,78.62,87.87,78c-1-.55-1.38-6.79-1.38-6.79s-3.56,4.28-4.9,5S78.44,70,78.44,70,76.78,75.14,75,75.42C74.7,75.46,71.7,68.45,72.5,68Z"/><path class="cls-17" d="M96.66,78.48s3.15,11-6.47,20.5-11.66,8.59-11.66,8.59,6.78-8.46,9.39-12.69,4.43-16.75,4.43-16.75S93.73,71,96.66,78.48Z"/><path class="cls-18" d="M76.82,130.74c-39,17.55-17.3.46-5.18-9.9,7.24-6.18,29.87-42.35,32.78-49.16,4.9-11.48,14.17-1.94,12.38,2.26C112.67,83.64,111.89,103.43,76.82,130.74Z"/></g></svg>