<svg xmlns="http://www.w3.org/2000/svg" xmlns:xlink="http://www.w3.org/1999/xlink" viewBox="0 0 125 100"><defs><style>.cls-1,.cls-3,.cls-4,.cls-5,.cls-6,.cls-7,.cls-8{stroke:#000;stroke-miterlimit:10;}.cls-1{fill:url(#Безымянный_градиент_126);}.cls-2{fill:#f9f912;}.cls-3{fill:#31c8c5;}.cls-4{fill:url(#Безымянный_градиент_225);}.cls-5{fill:#984c24;}.cls-6{fill:url(#Безымянный_градиент_221);}.cls-7,.cls-8{stroke-width:0.5px;}.cls-7{fill:url(#Безымянный_градиент_10);}.cls-8{fill:url(#Безымянный_градиент_60);}</style><linearGradient id="Безымянный_градиент_126" x1="52.85" y1="81.66" x2="52.85" y2="55.79" gradientUnits="userSpaceOnUse"><stop offset="0" stop-color="gray"/><stop offset="0.23" stop-color="#7e8282"/><stop offset="0.33" stop-color="#788"/><stop offset="0.4" stop-color="#6b9393"/><stop offset="0.45" stop-color="#59a3a2"/><stop offset="0.5" stop-color="#43b8b5"/><stop offset="0.53" stop-color="#31c8c5"/><stop offset="0.56" stop-color="#45b6b4"/><stop offset="0.6" stop-color="#5ba2a1"/><stop offset="0.64" stop-color="#6c9392"/><stop offset="0.7" stop-color="#788"/><stop offset="0.78" stop-color="#7e8282"/><stop offset="1" stop-color="gray"/></linearGradient><radialGradient id="Безымянный_градиент_225" cx="82.15" cy="25.54" fx="55.91186347240833" r="26.32" gradientUnits="userSpaceOnUse"><stop offset="0.02" stop-color="#31c8c5"/><stop offset="0.17" stop-color="#54a8a7"/><stop offset="0.34" stop-color="#748b8b"/><stop offset="0.43" stop-color="gray"/><stop offset="0.58" stop-color="#7d7d7d"/><stop offset="0.68" stop-color="#747474"/><stop offset="0.76" stop-color="#656565"/><stop offset="0.83" stop-color="#505050"/><stop offset="0.9" stop-color="#353535"/><stop offset="0.97" stop-color="#141414"/><stop offset="1"/></radialGradient><radialGradient id="Безымянный_градиент_221" cx="35.55" cy="26.53" fx="50.457930331182034" fy="49.87835506444573" r="29.67" gradientUnits="userSpaceOnUse"><stop offset="0" stop-color="#31c8c5"/><stop offset="0.29" stop-color="#699594"/><stop offset="0.42" stop-color="gray"/><stop offset="0.57" stop-color="#7d7d7d"/><stop offset="0.67" stop-color="#747474"/><stop offset="0.76" stop-color="#656565"/><stop offset="0.83" stop-color="#505050"/><stop offset="0.9" stop-color="#353535"/><stop offset="0.97" stop-color="#141414"/><stop offset="1"/></radialGradient><linearGradient id="Безымянный_градиент_10" x1="53.52" y1="64.11" x2="53.52" y2="31.42" gradientUnits="userSpaceOnUse"><stop offset="0"/><stop offset="0.06" stop-color="#1d0e05"/><stop offset="0.11" stop-color="#311908"/><stop offset="0.16" stop-color="#3e1f0a"/><stop offset="0.21" stop-color="#42210b"/><stop offset="0.43" stop-color="#5a2d0f"/><stop offset="0.61" stop-color="#713813"/><stop offset="0.82" stop-color="#89441d"/><stop offset="1" stop-color="#984c24"/></linearGradient><linearGradient id="Безымянный_градиент_60" x1="51.53" y1="98.96" x2="51.53" y2="74.14" gradientUnits="userSpaceOnUse"><stop offset="0"/><stop offset="0.12" stop-color="#160b04"/><stop offset="0.3" stop-color="#361b09"/><stop offset="0.41" stop-color="#42210b"/><stop offset="0.5" stop-color="#4c260d"/><stop offset="0.85" stop-color="#713813"/><stop offset="0.93" stop-color="#89441d"/><stop offset="1" stop-color="#984c24"/></linearGradient></defs><title>атака 2</title><g id="Слой_4" data-name="Слой 4"><path class="cls-1" d="M78.18,81.66H28.74c-5.62,0-11.14-1.53-15-5.23C9,71.84,16.82,67.93,15.68,66c-2.92-5,5.95-10.2,13.06-10.2H78.18c7.12,0,14,4.36,12.5,10.2-.94,3.7,4.32,6,2.39,8.74C89.94,79.26,84,81.66,78.18,81.66Z"/><path d="M23.25,75.7a1.27,1.27,0,0,1-1.12.06,2.66,2.66,0,0,1-.87-.56,3.81,3.81,0,0,1-.93-1.53c-.4-1.08.57-2.22.45-3.18A3.87,3.87,0,0,0,20.35,69l-.16-.37a2.83,2.83,0,0,1-.08-.4,7.54,7.54,0,0,1-.06-.82,9.55,9.55,0,0,1,.57-3.23,11.47,11.47,0,0,1,3.62-5.14,13.1,13.1,0,0,1,5.44-2.77l.15.26c-1.23,1.6-2.46,3-3.55,4.48a42.87,42.87,0,0,0-2.93,4.33,11.53,11.53,0,0,0-.93,2.34A7.47,7.47,0,0,1,22,69a2.87,2.87,0,0,0-.32,1.43c0,1,1.18,1.75,1.26,2.54a6.76,6.76,0,0,1,.13,1.16,2.8,2.8,0,0,0,.16,1.26Z"/><path d="M79,56.3a10.31,10.31,0,0,1,3.39,1.46,11.74,11.74,0,0,1,2.75,2.37,15.41,15.41,0,0,1,1.75,3.28c.5,1.13,1.11,2.14,1.61,3.34a6,6,0,0,1,.39,4,9.62,9.62,0,0,1-1.83,3.54,10.72,10.72,0,0,1-2.93,2.37,10.62,10.62,0,0,1-3.5,1.3l-.17-.24a26.52,26.52,0,0,1,2.08-2.93c.71-.89,1.38-1.76,2-2.56a14.72,14.72,0,0,0,1.8-2.42A5.59,5.59,0,0,0,87.34,67a4.71,4.71,0,0,0-1.39-3c-.81-.81-1.84-1.4-2.68-2.13a25.51,25.51,0,0,1-4.4-5.39Z"/><path d="M45.52,79.05a9.12,9.12,0,0,1-2.42-1.66,4.58,4.58,0,0,1-1.53-2.47,13.07,13.07,0,0,1-.21-1.62c0-.52-.13-1-.21-1.49a17.39,17.39,0,0,1-.61-3,10.63,10.63,0,0,1,.38-3,9.28,9.28,0,0,1,5.85-6.55l.19.23-2.11,5c-.32.79-.69,1.55-1.05,2.32s-.64,1.56-1,2.36c-.17.41-.31.8-.47,1.24a3.68,3.68,0,0,0-.28,1.32A2.23,2.23,0,0,0,42.43,73a3.74,3.74,0,0,0,1,.91,5,5,0,0,1,1.7,2.07,5.77,5.77,0,0,1,.69,3Z"/><path d="M57.87,55.74a19.63,19.63,0,0,1,3.67,1.76,9.13,9.13,0,0,1,3,3,23.74,23.74,0,0,1,1.42,4c.19.66.44,1.29.65,1.94a10.78,10.78,0,0,1,.65,2.06,9,9,0,0,1-.18,4.37,13.13,13.13,0,0,1-1.68,3.94,13.46,13.46,0,0,1-2.89,3.14,8.46,8.46,0,0,1-1.88,1.13,4.43,4.43,0,0,1-1.12.34,1.45,1.45,0,0,1-1.21-.27l.14-.26c.53-.07.91-.59,1.3-1s.72-1,1.06-1.51c.66-1,1.28-2.12,1.87-3.19s1.22-2.11,1.71-3.21a21.06,21.06,0,0,0,1.19-3.4,6.12,6.12,0,0,0-.5-3.69A9.65,9.65,0,0,0,62.55,62c-.89-.83-1.65-1.76-2.53-2.7-.43-.47-.86-1-1.28-1.51a6.61,6.61,0,0,1-1.1-1.84Z"/><path class="cls-2" d="M31.44,64.65c2.6,0,6.42.16,6.46,2.13s-3.52,3.63-6.12,3.59-6.25-1.07-6.29-3S28.85,64.6,31.44,64.65Z"/><path d="M31.45,64.5a9.32,9.32,0,0,0,1.87-.18c.63-.12,1.28-.3,2-.38a4.22,4.22,0,0,1,2.22.29,3,3,0,0,1,1.17,1,2.48,2.48,0,0,1,.45,1.7,3,3,0,0,1-1.5,2.17,10.88,10.88,0,0,1-1.89.87A26.54,26.54,0,0,1,32,71.14a9.21,9.21,0,0,1-4.08,0,7.21,7.21,0,0,1-2.1-.81,4.29,4.29,0,0,1-1.07-.85,3.24,3.24,0,0,1-.78-1.52,3,3,0,0,1,.19-1.82,3.24,3.24,0,0,1,1-1.29,3.82,3.82,0,0,1,2.3-.74C28.93,64.1,30.2,64.5,31.45,64.5Zm0,.3a5.28,5.28,0,0,0-3.33,1.36,5.61,5.61,0,0,0-1,.94c-.16.26,0,.17,0,.19a1.11,1.11,0,0,0,.38.46,5.5,5.5,0,0,0,1.26.73c.49.22,1,.4,1.55.6a14.4,14.4,0,0,0,1.66.51A4.71,4.71,0,0,0,35.32,69a3.33,3.33,0,0,0,1.18-1.18c.26-.45.29-.9.16-1s-.09,0-.1,0-.11-.1-.27-.2-.79-.47-1.31-.75A7.3,7.3,0,0,0,31.44,64.8Z"/><path class="cls-2" d="M53.9,71.23c2.14-.22,6.16-.53,6.21-2.51S56.59,65.1,54,65.14s-6.26,1.06-6.3,3S51.43,71.49,53.9,71.23Z"/><path d="M53.88,71.08a5.79,5.79,0,0,0,1.82-.45,12.21,12.21,0,0,0,1.64-.91c.5-.33,1-.62,1.22-.84l.21-.17s.08,0,.13-.1a1.44,1.44,0,0,0-.31-1.15,3.67,3.67,0,0,0-1.28-1.12A4.73,4.73,0,0,0,53.9,66a23.6,23.6,0,0,0-3.21,1.16,4.57,4.57,0,0,0-1.15.75,1.16,1.16,0,0,0-.23.3s0,0,0,0,0,.14.23.45a10.47,10.47,0,0,0,1.06,1.08A4.52,4.52,0,0,0,53.88,71.08Zm0,.3a28.13,28.13,0,0,1-4,.27,4.41,4.41,0,0,1-2.19-.7,3.85,3.85,0,0,1-1-1,3.07,3.07,0,0,1-.57-1.68,3,3,0,0,1,.48-1.74,3.7,3.7,0,0,1,1-1.08,6.42,6.42,0,0,1,2.14-1,9,9,0,0,1,4.11-.17,23,23,0,0,1,3.84,1.17,14.42,14.42,0,0,1,1.89.82,3.26,3.26,0,0,1,1.68,1.92,2.42,2.42,0,0,1-.13,1.72,2.91,2.91,0,0,1-1.06,1.17,3.9,3.9,0,0,1-2.23.55,16.11,16.11,0,0,1-2-.24A8.09,8.09,0,0,0,53.91,71.38Z"/><path class="cls-2" d="M77.66,65.28c3.44.71,6.17.45,6.21,2.43s-3.52,3.62-6.12,3.58-6.25-1.06-6.3-3S74.67,64.66,77.66,65.28Z"/><path d="M77.69,65.13a5.63,5.63,0,0,0,1.88.07c.64-.08,1.29-.25,2-.31a3.62,3.62,0,0,1,2.31.41A2.51,2.51,0,0,1,85,66.63a2.63,2.63,0,0,1,0,1.64,3.29,3.29,0,0,1-1.71,1.89,15.24,15.24,0,0,1-1.9.81,21.21,21.21,0,0,1-3.86,1.17,9,9,0,0,1-4.14-.21,6.45,6.45,0,0,1-2.15-1,3.65,3.65,0,0,1-1-1.16A3.13,3.13,0,0,1,69.86,68a3.66,3.66,0,0,1,1.52-2.57,4.47,4.47,0,0,1,2.24-.79A15.94,15.94,0,0,1,77.69,65.13Zm-.06.29c-2.5-.58-4.81,2.54-4.57,2.78,0,0,0,0,0,0a1,1,0,0,0,.19.27,4.25,4.25,0,0,0,1.13.77,25,25,0,0,0,3.21,1.17A4.77,4.77,0,0,0,81,70.12,3.56,3.56,0,0,0,82.33,69a1.47,1.47,0,0,0,.34-1.17c0-.08-.1-.23-.14-.2s0,0-.09,0-.72-.41-1.25-.71S80,66.26,79.45,66A8.71,8.71,0,0,0,77.63,65.42Z"/><path d="M81.41,68.2a6.31,6.31,0,0,1-2,.79,9.09,9.09,0,0,1-3.93,0,6.18,6.18,0,0,1-2-.78,6.21,6.21,0,0,1,2-.79,8.73,8.73,0,0,1,2-.22,9.26,9.26,0,0,1,2,.21A6.47,6.47,0,0,1,81.41,68.2Z"/><path d="M58.46,68.19a6.21,6.21,0,0,1-2,.79,9,9,0,0,1-3.92,0,6,6,0,0,1-2-.78,6.21,6.21,0,0,1,2-.79,8.79,8.79,0,0,1,2-.22,9.42,9.42,0,0,1,2,.21A6.52,6.52,0,0,1,58.46,68.19Z"/><path d="M35.37,67.5a6.52,6.52,0,0,1-2,.78,8.89,8.89,0,0,1-3.93,0,6.21,6.21,0,0,1-2-.79,6.21,6.21,0,0,1,2-.79,9.33,9.33,0,0,1,2-.21,8.71,8.71,0,0,1,2,.21A6.23,6.23,0,0,1,35.37,67.5Z"/><path d="M16.2,66a22,22,0,0,1,.35,3.17c.1,3.43-2.88.63-2.88.63Z"/><path class="cls-3" d="M91.5,13.49s7.72,2.56,10.92,8.3,5.52,11.86,3.61,10c-2.08-2-4-7.31-4-7.31s-8.09-7.91-11.13-8.82C82.78,13.24,91.5,13.49,91.5,13.49Z"/><path class="cls-4" d="M100.1,21.88c-2.23.56-6.83-1.86-10.31-3.63-2.05-1.05-4.3-5.92-5.33-6.86-4.24-3.9-10.14,0-11.31,4.58s1,10.61.09,15.22c-.95,4.9,1.93,6.3,1.93,6.3,0,5.5-16.13,5.76-16.13,3,0,0,1.07-9.46,2.29-15,.8-3.64-1.64-11,3.44-15.79,2.18-2,5.14-9.14,19.6-8C90.17,2.14,97.6,8,97.61,8,104.58,14.34,107.88,19.89,100.1,21.88Z"/><path class="cls-5" d="M99.63,17s7.21,3.77,9.45,9.94,3.56,12.59,2,10.47c-1.73-2.31-2.77-7.86-2.77-7.86S101.55,20.4,98.7,19C91.06,15.32,99.63,17,99.63,17Z"/><path class="cls-3" d="M17.22,15s-6.85,4.4-8.52,10.75-2.42,12.86-1,10.6c1.52-2.46,2.06-8.08,2.06-8.08s5.88-9.67,8.6-11.3C25.61,12.59,17.22,15,17.22,15Z"/><path class="cls-6" d="M13.88,23.88c2.22.56,2.6-5.47,8.84-5.86,2.3-.14,5-6,6-6.91C33,7.21,40.65,11.37,41.83,16s-1,10.61-.1,15.22a9.91,9.91,0,0,1-1.9,8.11c0,5.5,16.11,4,16.11,1.2,0,0-1.08-9.46-2.29-15-.8-3.64,1.64-11-3.45-15.79-2.18-2-12.41-9.09-19.59-8-5.75.88-14.5,6-14.51,6C10.64,14.34,6.09,21.89,13.88,23.88Z"/><path class="cls-5" d="M11.08,19.82S4.24,24.21,2.56,30.57s-2.42,12.85-1,10.59c1.52-2.45,2.05-8.07,2.05-8.07s5.88-9.67,8.6-11.3C19.47,17.42,11.08,19.82,11.08,19.82Z"/><path class="cls-7" d="M81.27,33.93c-12,2.18-11.09,5.28-15.42,4.82C49.17,37,48.93,44,40.19,38.07c-2.93-2-8.91-11.92-19.61-3-6,5-9,7.64-10.68,16.1-4.13,20.22,6.64,12,16.83,6.59,4.77-2.52,9.31,3.84,14.93-.15,0,0,3.07,4.51,8,3.25,6.24-1.58,8.69-5.14,8.69-5.14s2.23,4.15,9.81,4.13c3.35,0,8-5.93,12.28-2.68,14.78,11.26,16.14-3.72,17.41-12.49C99.29,34.77,92.33,31.92,81.27,33.93Z"/><path d="M27.55,57.31a14.66,14.66,0,0,0,2.2-4.47,12.12,12.12,0,0,0,.47-4.72A5.08,5.08,0,0,0,30,47a5,5,0,0,0-.34-1.1,9.72,9.72,0,0,1-.35-1.08,10,10,0,0,1-.38-1.09,7.7,7.7,0,0,0-.34-1.13c-.13-.38-.25-.77-.35-1.18a15.52,15.52,0,0,1-.72-2.56l.24-.19A10.23,10.23,0,0,1,30,40.28c.32.34.61.7.9,1.07l.43.56c.12.2.22.42.33.63,1,1.64,1,3.71.92,5.56,0,.47-.07.94-.15,1.4l-.29,1.37-.47,1.3c-.18.43-.39.83-.58,1.24a13.8,13.8,0,0,1-3.37,4.12Z"/><path d="M92.26,53.42a33.68,33.68,0,0,0,1.41-6,20,20,0,0,0,.06-5.93,7.68,7.68,0,0,0-.93-2.56,12.46,12.46,0,0,0-1.44-2,17.26,17.26,0,0,0-4.65-3.39l0-.3a7.79,7.79,0,0,1,3.4,0,8.38,8.38,0,0,1,1.7.54,9.53,9.53,0,0,1,1.56,1,6.82,6.82,0,0,1,2.12,3,12.35,12.35,0,0,1,.59,3.5,19,19,0,0,1-1,6.5,29.27,29.27,0,0,1-2.6,5.82Z"/><path d="M79.58,57A28.79,28.79,0,0,1,77,52.8a20.16,20.16,0,0,1-1.7-4.73,14.94,14.94,0,0,1-.4-2.66,5.61,5.61,0,0,1,.63-2.82,5,5,0,0,1,2.11-2.14A4.46,4.46,0,0,1,80.39,40l.09.29A13.1,13.1,0,0,0,79,42.07a6,6,0,0,0-.71,1.7c-.14.57-.27,1.17-.42,1.84a8.21,8.21,0,0,0-.19,2.13,24.27,24.27,0,0,0,.74,4.54,38,38,0,0,0,1.41,4.56Z"/><path d="M12.63,60.05a49.58,49.58,0,0,1-.27-8.79,38.05,38.05,0,0,1,1.53-8.78,29.59,29.59,0,0,1,1.65-4.29,12.47,12.47,0,0,1,2.82-3.78,12.21,12.21,0,0,1,4.06-2.47A10.46,10.46,0,0,1,27,31.4l.05.3a27.18,27.18,0,0,0-3.67,2.11,17.64,17.64,0,0,0-2.88,2.7,30.55,30.55,0,0,0-2.39,3.17,21.22,21.22,0,0,0-2,3.61,41.86,41.86,0,0,0-2.3,8.15A57.27,57.27,0,0,0,12.93,60Z"/><path d="M58.24,55.66a33.37,33.37,0,0,0,2-3.49,21.46,21.46,0,0,0,1.5-3.58,6.63,6.63,0,0,0,.27-1.78c0-.57.06-1.08.1-1.59a7.58,7.58,0,0,0-.48-3.49l.19-.23A4.12,4.12,0,0,1,65.14,45,5,5,0,0,1,65,47.42a13.85,13.85,0,0,1-1,2.09A17.13,17.13,0,0,1,61.52,53a23.41,23.41,0,0,1-3.06,2.84Z"/><path d="M41.58,57.52a10.8,10.8,0,0,0,2.38-3,8.75,8.75,0,0,0,1.09-3.39,3.54,3.54,0,0,0,0-.86,4,4,0,0,0-.11-.85,6,6,0,0,1-.1-.84,6,6,0,0,1-.08-.85c0-.59-.09-1.18,0-1.84a9.66,9.66,0,0,1,.08-2.11l.26-.14a6.75,6.75,0,0,1,1.65,1.54c.21.31.39.63.57,1a4.28,4.28,0,0,1,.42,1c.55,1.44.09,3.07-.33,4.48-.13.35-.24.71-.39,1.05l-.51,1-.62.9c-.23.29-.47.55-.71.82a10.48,10.48,0,0,1-3.43,2.36Z"/><path class="cls-8" d="M85,98.05c-6.9-.38-10.91,1.22-17.46,0S55.65,99,49.42,99c-5.07,0-10.06-1.86-16.1-.68-4.5.89-6.95-1.2-10.24-.78C8,99.44,7.27,97.82,4.67,90.41c-1.8-5.12-1.88-21.78,22.94-13.5,3.07,1,9.59-2.29,13.91-.09,4.63,2.35,3.25,2.2,14.47.51,3.3-.5,3.52-.16,9.35.42,3.78.38,11,.83,15.2-.84C102.3,68.19,99.69,82.41,98,87.64,96.24,93.06,91.37,98.4,85,98.05Z"/><path d="M27.77,95.65a23.19,23.19,0,0,0,2-5,29.13,29.13,0,0,0,1.08-5.18,10.48,10.48,0,0,0,0-2.51c-.1-.8-.2-1.53-.35-2.21a5.37,5.37,0,0,0-.77-1.94A8.57,8.57,0,0,0,27.84,77l.07-.29a4.49,4.49,0,0,1,3.09.52,5.34,5.34,0,0,1,2.25,2.56,6.61,6.61,0,0,1,.48,3.18,18.13,18.13,0,0,1-.56,2.95,24.54,24.54,0,0,1-2.05,5.32,27.92,27.92,0,0,1-1.41,2.43A11.11,11.11,0,0,1,28,95.87Z"/><path d="M93.77,94.31a25.09,25.09,0,0,0,1.93-5.37,33.76,33.76,0,0,0,1-5.54,12.54,12.54,0,0,0-.1-2.68c-.11-.86-.23-1.66-.39-2.41a6.29,6.29,0,0,0-.83-2.11,8.19,8.19,0,0,0-1.9-1.93l.06-.29a4.63,4.63,0,0,1,3.24.64A5.79,5.79,0,0,1,99,77.34a7.26,7.26,0,0,1,.52,3.31,23.47,23.47,0,0,1-.5,3.11,26.72,26.72,0,0,1-2,5.69c-.43.89-.89,1.77-1.39,2.63A12.62,12.62,0,0,1,94,94.51Z"/><path d="M81.22,96A29.89,29.89,0,0,1,78.69,91a22,22,0,0,1-1.37-5.63,20.39,20.39,0,0,1-.09-3,7.08,7.08,0,0,1,.9-3,6.62,6.62,0,0,1,5-3.47l.14.26c-.57.84-1.09,1.55-1.5,2.28a14.81,14.81,0,0,0-1,2.19c-.25.73-.46,1.48-.69,2.26a10.55,10.55,0,0,0-.44,2.49,25.31,25.31,0,0,0,.42,5.3,34.57,34.57,0,0,0,1.35,5.32Z"/><path d="M8.93,93.83a7.59,7.59,0,0,1-2.5-1.49A9.84,9.84,0,0,1,4.53,90a5.45,5.45,0,0,1-1.15-2.79,4.4,4.4,0,0,1,1-3h.3a5.69,5.69,0,0,1,1,1.26,6.92,6.92,0,0,1,.62,1.16,3.58,3.58,0,0,1,.28,1.16,6.26,6.26,0,0,0,.13,1.23,13.27,13.27,0,0,0,.87,2.34,8.55,8.55,0,0,0,1.47,2.15Z"/><path d="M18.51,90.2c-1.22-1-2.33-2.15-3.45-3.29A36.73,36.73,0,0,1,12,83.24c-.95-1.3-2.14-2.56-2.49-4.4a4.78,4.78,0,0,1,.23-3A2.41,2.41,0,0,1,11,74.6a2.66,2.66,0,0,1,.76-.14,3.78,3.78,0,0,1,.7.12l.05.3-.44.41c-.1.17-.23.27-.27.42a1.09,1.09,0,0,0,0,.68A9.75,9.75,0,0,0,12.33,78c.27.59.54,1.23.79,1.92A16.28,16.28,0,0,0,14,82c.7,1.35,1.47,2.7,2.27,4s1.64,2.66,2.48,4Z"/><path d="M64.7,94.8a27.47,27.47,0,0,0,1.78-4.93A15.29,15.29,0,0,0,67,85a6.06,6.06,0,0,0-.6-2.17,17.56,17.56,0,0,0-1-1.79A20.44,20.44,0,0,0,62,77.4l.09-.28a6.33,6.33,0,0,1,2.92.31,6.53,6.53,0,0,1,2.64,1.62,6,6,0,0,1,1.56,2.81,11.15,11.15,0,0,1,.17,3.08,14.92,14.92,0,0,1-1.52,5.45A23.15,23.15,0,0,1,65,95Z"/><path d="M42.13,94.31a35,35,0,0,0,2.07-4,23.07,23.07,0,0,0,1.37-4.14,17.09,17.09,0,0,0,.07-3.89,10.33,10.33,0,0,0-.24-1.84,20.62,20.62,0,0,0-.75-2.12l.19-.23a4.93,4.93,0,0,1,3.75,3.63,5.58,5.58,0,0,1,.08,2.72,17.74,17.74,0,0,1-.8,2.43A18.88,18.88,0,0,1,45.49,91a25.39,25.39,0,0,1-3.13,3.49Z"/></g></svg>