<svg xmlns="http://www.w3.org/2000/svg" xmlns:xlink="http://www.w3.org/1999/xlink" viewBox="0 0 125 100"><defs><style>.cls-1,.cls-3,.cls-4,.cls-5,.cls-6,.cls-7,.cls-8{stroke:#000;stroke-miterlimit:10;}.cls-1{fill:url(#Безымянный_градиент_126);}.cls-2{fill:#b60000;}.cls-3,.cls-8{stroke-width:0.5px;}.cls-3{fill:url(#Безымянный_градиент_60);}.cls-4{fill:#31c8c5;}.cls-5{fill:url(#Безымянный_градиент_6);}.cls-6{fill:#984c24;}.cls-7{fill:url(#Безымянный_градиент_221);}.cls-8{fill:url(#Безымянный_градиент_10);}</style><linearGradient id="Безымянный_градиент_126" x1="48.86" y1="88.26" x2="48.86" y2="62.39" gradientUnits="userSpaceOnUse"><stop offset="0" stop-color="gray"/><stop offset="0.23" stop-color="#7e8282"/><stop offset="0.33" stop-color="#788"/><stop offset="0.4" stop-color="#6b9393"/><stop offset="0.45" stop-color="#59a3a2"/><stop offset="0.5" stop-color="#43b8b5"/><stop offset="0.53" stop-color="#31c8c5"/><stop offset="0.56" stop-color="#45b6b4"/><stop offset="0.6" stop-color="#5ba2a1"/><stop offset="0.64" stop-color="#6c9392"/><stop offset="0.7" stop-color="#788"/><stop offset="0.78" stop-color="#7e8282"/><stop offset="1" stop-color="gray"/></linearGradient><linearGradient id="Безымянный_градиент_60" x1="48.54" y1="99.24" x2="48.54" y2="76.75" gradientUnits="userSpaceOnUse"><stop offset="0"/><stop offset="0.12" stop-color="#160b04"/><stop offset="0.3" stop-color="#361b09"/><stop offset="0.41" stop-color="#42210b"/><stop offset="0.5" stop-color="#4c260d"/><stop offset="0.85" stop-color="#713813"/><stop offset="0.93" stop-color="#89441d"/><stop offset="1" stop-color="#984c24"/></linearGradient><radialGradient id="Безымянный_градиент_6" cx="74.88" cy="22.64" fx="38.58838116971373" fy="29.11410651524073" r="36.86" gradientTransform="matrix(0.67, -0.7, 0.38, 0.43, 14.46, 64.8)" gradientUnits="userSpaceOnUse"><stop offset="0.09" stop-color="#31c8c5"/><stop offset="0.15" stop-color="#4dafad"/><stop offset="0.2" stop-color="#639a99"/><stop offset="0.27" stop-color="#738b8b"/><stop offset="0.34" stop-color="#7d8383"/><stop offset="0.43" stop-color="gray"/><stop offset="0.64" stop-color="#7e7e7e"/><stop offset="0.73" stop-color="#777"/><stop offset="0.8" stop-color="#6a6a6a"/><stop offset="0.86" stop-color="#585858"/><stop offset="0.91" stop-color="#414141"/><stop offset="0.96" stop-color="#242424"/><stop offset="1" stop-color="#030303"/><stop offset="1"/></radialGradient><radialGradient id="Безымянный_градиент_221" cx="63.76" cy="27.95" fx="85.27355904821538" fy="51.101432787181025" r="33.85" gradientTransform="matrix(-0.91, 0, 0, 1.07, 111.36, -2.01)" gradientUnits="userSpaceOnUse"><stop offset="0" stop-color="#31c8c5"/><stop offset="0.29" stop-color="#699594"/><stop offset="0.42" stop-color="gray"/><stop offset="0.57" stop-color="#7d7d7d"/><stop offset="0.67" stop-color="#747474"/><stop offset="0.76" stop-color="#656565"/><stop offset="0.83" stop-color="#505050"/><stop offset="0.9" stop-color="#353535"/><stop offset="0.97" stop-color="#141414"/><stop offset="1"/></radialGradient><linearGradient id="Безымянный_градиент_10" x1="50.52" y1="72.9" x2="50.52" y2="42.46" gradientUnits="userSpaceOnUse"><stop offset="0"/><stop offset="0.06" stop-color="#1d0e05"/><stop offset="0.11" stop-color="#311908"/><stop offset="0.16" stop-color="#3e1f0a"/><stop offset="0.21" stop-color="#42210b"/><stop offset="0.43" stop-color="#5a2d0f"/><stop offset="0.61" stop-color="#713813"/><stop offset="0.82" stop-color="#89441d"/><stop offset="1" stop-color="#984c24"/></linearGradient></defs><title>атака 2</title><g id="Слой_8" data-name="Слой 8"><path class="cls-1" d="M74.19,88.26H24.75c-5.62,0-11.14-1.53-15-5.23-4.76-4.59,3.06-8.5,1.92-10.44-2.93-5,5.94-10.2,13.06-10.2H74.19c7.12,0,14,4.36,12.5,10.2-.94,3.71,4.32,6,2.39,8.74C86,85.86,80,88.26,74.19,88.26Z"/><path d="M19.26,82.69a1.22,1.22,0,0,1-1.13.06,2.61,2.61,0,0,1-.87-.56,3.64,3.64,0,0,1-.92-1.52c-.4-1.09.57-2.23.45-3.18A4,4,0,0,0,16.36,76l-.17-.37c0-.12,0-.26-.07-.4a5.55,5.55,0,0,1-.06-.82,9.54,9.54,0,0,1,.57-3.22,11.44,11.44,0,0,1,3.62-5.15,13.22,13.22,0,0,1,5.44-2.77l.15.26c-1.23,1.6-2.46,3-3.55,4.49a41.67,41.67,0,0,0-2.93,4.32,11.85,11.85,0,0,0-.93,2.35A7.67,7.67,0,0,1,18,76a2.89,2.89,0,0,0-.32,1.43c0,1,1.18,1.76,1.26,2.54a6.87,6.87,0,0,1,.13,1.17,2.76,2.76,0,0,0,.16,1.25Z"/><path d="M75.05,63.3a10.51,10.51,0,0,1,3.39,1.45,12,12,0,0,1,2.75,2.37,15.25,15.25,0,0,1,1.75,3.29c.5,1.12,1.11,2.13,1.6,3.33a6,6,0,0,1,.4,4.06,9.62,9.62,0,0,1-1.83,3.54,10.87,10.87,0,0,1-2.93,2.37,10.62,10.62,0,0,1-3.5,1.3l-.17-.25a28.56,28.56,0,0,1,2.08-2.93c.71-.89,1.38-1.75,2-2.56a14.87,14.87,0,0,0,1.8-2.42A5.56,5.56,0,0,0,83.35,74a4.69,4.69,0,0,0-1.39-3c-.81-.82-1.85-1.4-2.68-2.14a25.26,25.26,0,0,1-4.4-5.39Z"/><path d="M41.52,86a8.48,8.48,0,0,1-2.41-1.66,4.55,4.55,0,0,1-1.53-2.46,13.58,13.58,0,0,1-.21-1.62c0-.53-.13-1-.21-1.49a17.79,17.79,0,0,1-.61-3,11.06,11.06,0,0,1,.37-3,9.39,9.39,0,0,1,5.86-6.55l.19.23-2.11,5c-.32.8-.69,1.55-1,2.32s-.64,1.57-1,2.37c-.17.4-.31.8-.48,1.24a3.62,3.62,0,0,0-.27,1.32A2.25,2.25,0,0,0,38.44,80a3.7,3.7,0,0,0,1,.9,5.15,5.15,0,0,1,1.7,2.07,5.9,5.9,0,0,1,.69,3Z"/><path d="M53.88,62.74a19.31,19.31,0,0,1,3.67,1.76,9,9,0,0,1,3,3,23.44,23.44,0,0,1,1.42,4c.18.66.44,1.28.65,1.94a11.29,11.29,0,0,1,.65,2.06,8.92,8.92,0,0,1-.18,4.36,12.6,12.6,0,0,1-4.57,7.08,8.89,8.89,0,0,1-1.88,1.14,4.54,4.54,0,0,1-1.12.33,1.48,1.48,0,0,1-1.21-.26l.14-.27c.53-.07.9-.59,1.29-1s.73-1,1.07-1.51c.66-1,1.28-2.12,1.86-3.19s1.23-2.1,1.72-3.21a19.8,19.8,0,0,0,1.18-3.4,6,6,0,0,0-.49-3.68A9.53,9.53,0,0,0,58.56,69c-.89-.84-1.65-1.76-2.53-2.7-.43-.48-.86-1-1.28-1.52a6.56,6.56,0,0,1-1.1-1.83Z"/><path class="cls-2" d="M27.45,69.78c2.6,0,6.42.21,6.46,2.83s-3.52,4.81-6.12,4.75-6.25-1.41-6.29-4S24.85,69.73,27.45,69.78Z"/><path d="M27.45,69.63a11.89,11.89,0,0,0,2-.15,12.51,12.51,0,0,1,2.19-.26,3.67,3.67,0,0,1,2.45.84,3,3,0,0,1,.9,1.35,3.1,3.1,0,0,1,.08,1.53,4.13,4.13,0,0,1-1.29,2.23A11.78,11.78,0,0,1,32,76.47a13.27,13.27,0,0,1-4,1.68,8.22,8.22,0,0,1-4.49-.38,6.49,6.49,0,0,1-2.16-1.29,4.27,4.27,0,0,1-1.43-2.61,4,4,0,0,1,.83-3,3.79,3.79,0,0,1,2.33-1.33A24.93,24.93,0,0,1,27.45,69.63Zm0,.3A4.84,4.84,0,0,0,24,71.5a4.16,4.16,0,0,0-.79,1.12,1.44,1.44,0,0,0-.09.82,1.74,1.74,0,0,0,.4.87,4.46,4.46,0,0,0,1.15.94A13.09,13.09,0,0,0,28,76.57a4.37,4.37,0,0,0,3.48-.9,3.1,3.1,0,0,0,1.25-2.9,1.65,1.65,0,0,0-.39-.74,5.52,5.52,0,0,0-1.12-.89,9.13,9.13,0,0,0-1.77-.88A6.31,6.31,0,0,0,27.45,69.93Z"/><path class="cls-2" d="M49.91,78.21c2.13-.3,6.16-.73,6.2-3.47s-3.52-5-6.11-5S43.74,71.25,43.7,74,47.44,78.57,49.91,78.21Z"/><path d="M49.89,78.07a6.48,6.48,0,0,0,2-.58,8.27,8.27,0,0,0,1.68-1.1,5.85,5.85,0,0,0,1-1,1.93,1.93,0,0,0,.38-.94,3.39,3.39,0,0,0-1.45-3,4.23,4.23,0,0,0-3.58-.74,12.21,12.21,0,0,0-3.29,1.46,3.76,3.76,0,0,0-1,1,2,2,0,0,0-.28,1,3.94,3.94,0,0,0,1.16,2.38A4.06,4.06,0,0,0,49.89,78.07Zm0,.29a12.05,12.05,0,0,1-4.49-.16,4.63,4.63,0,0,1-2.21-1.33,4.4,4.4,0,0,1-1.13-2.76,4.29,4.29,0,0,1,1-2.89,6.29,6.29,0,0,1,2.12-1.6,8,8,0,0,1,4.6-.69A11.33,11.33,0,0,1,54,70.61a13,13,0,0,1,1.83,1.32,4.51,4.51,0,0,1,1.41,2.15,3.44,3.44,0,0,1,.09,1.48A3.09,3.09,0,0,1,56.67,77a3.62,3.62,0,0,1-2.36,1.27,11,11,0,0,1-2.29,0A10.35,10.35,0,0,0,49.93,78.36Z"/><path class="cls-2" d="M73.67,70c3.43,1,6.17.63,6.21,3.37s-3.52,5-6.12,5-6.26-1.47-6.3-4.21S70.68,69.11,73.67,70Z"/><path d="M73.71,69.82a6.15,6.15,0,0,0,2.06.21A22,22,0,0,1,78,69.89a3.37,3.37,0,0,1,1.27.25,2.93,2.93,0,0,1,1.3,1,3,3,0,0,1,.57,1.55A3.77,3.77,0,0,1,81,74.08a4.66,4.66,0,0,1-1.44,2.12,14.58,14.58,0,0,1-1.85,1.31,10.82,10.82,0,0,1-4.21,1.64,7.92,7.92,0,0,1-4.62-.77,6,6,0,0,1-2.11-1.69,4.21,4.21,0,0,1-.86-3A4.81,4.81,0,0,1,67,71.08a4.56,4.56,0,0,1,2.2-1.41A8.24,8.24,0,0,1,73.71,69.82Zm-.08.29a3,3,0,0,0-1.95.13,3.81,3.81,0,0,0-1.49,1.14,4.4,4.4,0,0,0-1.11,2.55,1.7,1.7,0,0,0,.24,1,3.28,3.28,0,0,0,1,1,12.69,12.69,0,0,0,3.28,1.5,4.27,4.27,0,0,0,3.61-.67,3.14,3.14,0,0,0,1.37-3.68,1.66,1.66,0,0,0-.18-.36,2.76,2.76,0,0,0-1-.82,18.16,18.16,0,0,0-1.82-1A10.45,10.45,0,0,0,73.63,70.11Z"/><path d="M77.42,74.2a6.52,6.52,0,0,1-2,.78,9.3,9.3,0,0,1-3.93,0,6.21,6.21,0,0,1-2-.79,6.12,6.12,0,0,1,2-.79,9.25,9.25,0,0,1,3.92,0A6,6,0,0,1,77.42,74.2Z"/><path d="M54.47,74.19a6.56,6.56,0,0,1-2,.79,10.15,10.15,0,0,1-2,.22,9.42,9.42,0,0,1-2-.21,6.31,6.31,0,0,1-2-.79,6.21,6.21,0,0,1,2-.79,9.33,9.33,0,0,1,2-.21,8.65,8.65,0,0,1,2,.21A6.23,6.23,0,0,1,54.47,74.19Z"/><path d="M31.37,73.49a6.12,6.12,0,0,1-2,.79,8.66,8.66,0,0,1-2,.22,8.77,8.77,0,0,1-2-.21,6.18,6.18,0,0,1-2-.78,6.12,6.12,0,0,1,2-.79,8.66,8.66,0,0,1,2-.22,9.33,9.33,0,0,1,2,.21A6.32,6.32,0,0,1,31.37,73.49Z"/><path d="M11.71,73a4.92,4.92,0,0,1,.35,3.18c-.44,1.56-2.87.62-2.87.62Z"/><path class="cls-3" d="M82,98.41c-6.9-.34-10.91,1.11-17.46,0s-11.92.85-18.15.83c-5.08,0-10.06-1.69-16.1-.61-4.5.8-6.95-1.1-10.24-.72C5,99.67,4.28,98.2,1.68,91.49-.12,86.85-.21,71.75,24.62,79.25c3.07.93,9.59-2.07,13.91-.08,4.63,2.13,3.25,2,14.47.46,3.3-.45,3.52-.14,9.35.39,3.78.34,11,.75,15.2-.77C99.31,71.34,96.7,84.24,95,89,93.25,93.89,88.38,98.73,82,98.41Z"/><path d="M24.79,96.23a20.73,20.73,0,0,0,2-4.58,24.24,24.24,0,0,0,1.08-4.75,8.22,8.22,0,0,0-.06-2.28,17.17,17.17,0,0,0-.38-1.92A4.84,4.84,0,0,0,26.6,81a11.41,11.41,0,0,0-1.75-1.69l.07-.29a4.48,4.48,0,0,1,2.91.27,4.86,4.86,0,0,1,2.33,2.24,5.6,5.6,0,0,1,.58,3,15,15,0,0,1-.55,2.78,20.82,20.82,0,0,1-2.07,4.91c-.44.76-.91,1.49-1.41,2.2a10.48,10.48,0,0,1-1.73,2Z"/><path d="M90.78,95a19.53,19.53,0,0,0,2-4.78,21.8,21.8,0,0,0,.9-5,9.48,9.48,0,0,0-.22-2.35c-.16-.74-.32-1.42-.52-2.08A7.79,7.79,0,0,0,92,78.9a18.45,18.45,0,0,0-1.57-2l.12-.27a5.65,5.65,0,0,1,5.07,3,6.3,6.3,0,0,1,.73,3A17,17,0,0,1,96,85.58a19.85,19.85,0,0,1-1.88,5.21c-.43.8-.9,1.58-1.4,2.33A11.11,11.11,0,0,1,91,95.22Z"/><path d="M78.23,96.57A24.54,24.54,0,0,1,75.7,92a18,18,0,0,1-1.37-5.21,15.19,15.19,0,0,1-.06-2.87,6.4,6.4,0,0,1,1-2.83,6.19,6.19,0,0,1,4.92-2.88l.14.27c-.55.78-1.06,1.42-1.46,2.08a13.5,13.5,0,0,0-1,2c-.24.65-.47,1.29-.7,2a8,8,0,0,0-.46,2.22,20.56,20.56,0,0,0,.4,4.84,31.33,31.33,0,0,0,1.36,4.88Z"/><path d="M5.92,94.58a9,9,0,0,1-2.27-1.71,10.59,10.59,0,0,1-1.76-2.32A5.4,5.4,0,0,1,.77,87.83a4.26,4.26,0,0,1,1-2.94h.3a6.35,6.35,0,0,1,1,1.23,7.56,7.56,0,0,1,.62,1.14A3.28,3.28,0,0,1,4,88.41a7.23,7.23,0,0,0,.13,1.23A16.65,16.65,0,0,0,4.89,92a11.45,11.45,0,0,0,1.22,2.32Z"/><path d="M15.52,91.32c-1.19-.9-2.3-1.89-3.41-2.9A35.8,35.8,0,0,1,9,85.14c-.95-1.18-2.15-2.3-2.53-4a5.23,5.23,0,0,1-.15-1.4,3.25,3.25,0,0,1,.42-1.6,2.28,2.28,0,0,1,1.32-1A3,3,0,0,1,8.79,77a3.25,3.25,0,0,1,.65.15l.05.29c-.16.15-.29.29-.43.4a3.48,3.48,0,0,0-.27.39.76.76,0,0,0-.06.61,9.83,9.83,0,0,0,.59,1.31c.27.52.54,1.1.8,1.74a14.68,14.68,0,0,0,.87,1.9c.7,1.24,1.47,2.47,2.27,3.69s1.64,2.43,2.48,3.65Z"/><path d="M61.72,95.45a23.58,23.58,0,0,0,1.79-4.53A12.29,12.29,0,0,0,64,86.41a4.56,4.56,0,0,0-.65-1.89,13.11,13.11,0,0,0-1-1.55A28.19,28.19,0,0,0,59,79.71l.09-.29a6.62,6.62,0,0,1,5.32,1.44,5.21,5.21,0,0,1,1.68,2.55,9.11,9.11,0,0,1,.29,3,12.39,12.39,0,0,1-1.52,5.12A20.08,20.08,0,0,1,62,95.63Z"/><path d="M39.14,95a29.49,29.49,0,0,0,2-3.67,18.93,18.93,0,0,0,1.39-3.77,6.86,6.86,0,0,0,.15-1.84l-.08-1.62a7.83,7.83,0,0,0-.24-1.64c-.17-.58-.43-1.2-.74-2l.17-.24a4.05,4.05,0,0,1,2.29,1,4.92,4.92,0,0,1,1.55,4.82,14.93,14.93,0,0,1-.83,2.28,16.52,16.52,0,0,1-2.39,3.8,22.47,22.47,0,0,1-3.1,3.07Z"/><path class="cls-4" d="M102,10.26s8.1-.69,13.31,3.32,9.75,8.71,7.26,7.78a62.52,62.52,0,0,1-8-4.49s-9.08-4.73-12.23-4.37C93.89,13.48,102,10.26,102,10.26Z"/><path class="cls-5" d="M108.78,9.56c-.58,5.2-4.39,7.17-10.29,5-3.35-1.21-8.4-2.74-9.37-2.58-6.44,1-12.44,6.67-15.35,8.45-6.31,3.86-7.57,10.67-8.4,15.31-.9,4.92.79,11.35.79,11.35,0,5.53-15,5.8-15,3,0,0,1.82-14.58,3.12-20.13,2-8.74,6.22-12,11-16.79,1.34-1.37,7-10.49,20.72-11.68,5.46-.47,7.3-.43,10.44.22C102.4,3.28,109.22,5.61,108.78,9.56Z"/><path class="cls-6" d="M102.73,7.1s7.72-1.27,13.39,2.05,10.78,7.41,8.19,6.8a41.14,41.14,0,0,1-7.33-3.1S106.17,9,103.09,9.72C94.86,11.75,102.73,7.1,102.73,7.1Z"/><path class="cls-4" d="M84.75,14.92s3.63-1.12,9.87,2.46,11.87,7.92,9,7.18a87.11,87.11,0,0,1-9-3.31s-5.57-3.11-9-3.91C75.06,14.84,81.13,16.62,84.75,14.92Z"/><path class="cls-7" d="M84.82,16.24c-2,.57-3.92,2.14-10.72.63-6.09-1.36-3.95-1.32-4.88-2.27C65.37,10.7,52.77,15.86,50.5,20c-2.63,4.8-1.09,10.61-1.91,15.22-.87,4.9.73,13.11.73,13.11,0,5.5-16.84,4.13-16.84,1.38,0,0,2.34-14.46,3.44-20,.72-3.64,2.37-11.19,7-16,2-2.05,9.26-7.09,15.72-8.28a58.43,58.43,0,0,1,19.27,0C86.28,5.43,91.88,14.25,84.82,16.24Z"/><path class="cls-6" d="M81.7,11.94s8.81-1.63,15.17,1.76,12.11,7.54,9.22,6.9a45.61,45.61,0,0,1-8.23-3.37s-12-3.83-15.46-3.1C73.29,16.07,81.7,11.94,81.7,11.94Z"/><path class="cls-8" d="M78.28,43.35C71.87,45,67.11,49,62.86,48.07c-15.4-3.37-16.13,0-25.66-.67-6.71-.5-7-5.53-19.61-2.89C10,46.1,8.63,52,6.91,60.27,2.78,80.07,13.55,72,23.74,66.72c4.77-2.46,9.31,3.76,14.93-.15,0,0,3.07,4.42,8,3.19,6.24-1.55,8.69-5,8.69-5s2.23,4.07,9.8,4c3.35,0,8-5.81,12.29-2.63,14.78,11,16.14-3.64,17.41-12.22C96.3,44.18,89.18,40.62,78.28,43.35Z"/><path d="M24.56,66.24a14.4,14.4,0,0,0,2.19-4.38,11.4,11.4,0,0,0,.48-4.61,9.59,9.59,0,0,0-.55-2.19c-.14-.35-.25-.7-.36-1.05s-.26-.71-.37-1.07a6.38,6.38,0,0,0-.35-1.1c-.12-.38-.24-.76-.34-1.16a15,15,0,0,1-.72-2.52l.24-.19A9.62,9.62,0,0,1,27,49.54c.32.33.61.68.9,1l.42.55c.13.2.23.41.34.61,1,1.61,1,3.66.93,5.48-.05.47-.07.93-.15,1.39L29.18,60l-.47,1.29c-.18.41-.39.81-.58,1.21a13.38,13.38,0,0,1-3.37,4Z"/><path d="M89.28,62.42a29.56,29.56,0,0,0,2.31-6,13.86,13.86,0,0,0,.42-6A5.74,5.74,0,0,0,90.88,48,14,14,0,0,0,89,46.11a11.44,11.44,0,0,0-1.16-.83c-.39-.3-.85-.5-1.28-.79s-.93-.49-1.4-.76-1-.49-1.49-.81l.05-.3a11.23,11.23,0,0,1,1.73-.23,12.83,12.83,0,0,1,1.75.09,10,10,0,0,1,3.47,1.14A7.06,7.06,0,0,1,93.4,46.4a9.16,9.16,0,0,1,1,3.69A14.3,14.3,0,0,1,93,56.9a25.83,25.83,0,0,1-3.48,5.68Z"/><path d="M76.59,65.93A27.78,27.78,0,0,1,74,61.84a19.49,19.49,0,0,1-1.71-4.66,15.44,15.44,0,0,1-.39-2.62,5.4,5.4,0,0,1,.65-2.79,4.89,4.89,0,0,1,2.12-2.08,4.42,4.42,0,0,1,2.7-.41l.09.29A15.15,15.15,0,0,0,76,51.33,5.66,5.66,0,0,0,75.32,53c-.15.55-.28,1.13-.43,1.78a7.43,7.43,0,0,0-.19,2.08,23.56,23.56,0,0,0,.73,4.46,39.22,39.22,0,0,0,1.42,4.47Z"/><path d="M9.64,68.93a40.35,40.35,0,0,1-.87-8.15,27.88,27.88,0,0,1,1.16-8.3,18.67,18.67,0,0,1,1.74-4,10.1,10.1,0,0,1,3.12-3.29A10.45,10.45,0,0,1,23.32,44v.3a34.07,34.07,0,0,0-3.72,1.39,14.21,14.21,0,0,0-3,1.94,19.61,19.61,0,0,0-2.44,2.54,13,13,0,0,0-1.93,3.17,28.75,28.75,0,0,0-1.92,7.56,45.58,45.58,0,0,0-.33,8Z"/><path d="M55.25,64.62a33.16,33.16,0,0,0,2-3.42,20.32,20.32,0,0,0,1.49-3.5A6.39,6.39,0,0,0,59.06,56c0-.55.06-1.05.1-1.54A7.33,7.33,0,0,0,58.68,51l.19-.23a4,4,0,0,1,3.28,3.38A4.75,4.75,0,0,1,62,56.58a13.49,13.49,0,0,1-1,2.06,16.26,16.26,0,0,1-2.48,3.43,23.4,23.4,0,0,1-3,2.76Z"/><path d="M38.59,66.44a10,10,0,0,0,3.46-6.24,3,3,0,0,0,0-.84,3.92,3.92,0,0,0-.1-.83,5.57,5.57,0,0,1-.1-.82,5.69,5.69,0,0,1-.08-.83c0-.57-.09-1.15,0-1.8A10,10,0,0,1,41.83,53l.26-.14A5.86,5.86,0,0,1,44.3,55.3l.26.49c.06.17.11.35.17.53.55,1.42.09,3-.34,4.43-.13.34-.24.7-.4,1l-.51,1-.63.88-.7.8a10.53,10.53,0,0,1-3.41,2.28Z"/></g></svg>