<svg xmlns="http://www.w3.org/2000/svg" xmlns:xlink="http://www.w3.org/1999/xlink" viewBox="0 0 125 100"><defs><style>.cls-1,.cls-3,.cls-4,.cls-5,.cls-6,.cls-7,.cls-8{stroke:#000;stroke-miterlimit:10;}.cls-1{fill:url(#Безымянный_градиент_126);}.cls-2{fill:#b24000;}.cls-3{fill:#31c8c5;}.cls-4{fill:url(#Безымянный_градиент_64);}.cls-5{fill:#984c24;}.cls-6{fill:url(#Безымянный_градиент_221);}.cls-7,.cls-8{stroke-width:0.5px;}.cls-7{fill:url(#Безымянный_градиент_60);}.cls-8{fill:url(#Безымянный_градиент_10);}</style><linearGradient id="Безымянный_градиент_126" x1="48.79" y1="86.47" x2="48.79" y2="59.44" gradientUnits="userSpaceOnUse"><stop offset="0" stop-color="gray"/><stop offset="0.23" stop-color="#7e8282"/><stop offset="0.33" stop-color="#788"/><stop offset="0.4" stop-color="#6b9393"/><stop offset="0.45" stop-color="#59a3a2"/><stop offset="0.5" stop-color="#43b8b5"/><stop offset="0.53" stop-color="#31c8c5"/><stop offset="0.56" stop-color="#45b6b4"/><stop offset="0.6" stop-color="#5ba2a1"/><stop offset="0.64" stop-color="#6c9392"/><stop offset="0.7" stop-color="#788"/><stop offset="0.78" stop-color="#7e8282"/><stop offset="1" stop-color="gray"/></linearGradient><radialGradient id="Безымянный_градиент_64" cx="58.87" cy="28.22" fx="31.499249329618387" r="27.46" gradientTransform="translate(7.49 -5.42) scale(1.1 1.11)" gradientUnits="userSpaceOnUse"><stop offset="0" stop-color="#31c8c5"/><stop offset="0.07" stop-color="#4dafad"/><stop offset="0.14" stop-color="#639a99"/><stop offset="0.22" stop-color="#738b8b"/><stop offset="0.31" stop-color="#7d8383"/><stop offset="0.43" stop-color="gray"/><stop offset="0.63" stop-color="#7e7e7e"/><stop offset="0.71" stop-color="#777"/><stop offset="0.78" stop-color="#6a6a6a"/><stop offset="0.83" stop-color="#585858"/><stop offset="0.88" stop-color="#414141"/><stop offset="0.92" stop-color="#242424"/><stop offset="0.96" stop-color="#030303"/><stop offset="0.97"/></radialGradient><radialGradient id="Безымянный_градиент_221" cx="340.66" cy="27.09" fx="360.99148619081586" fy="48.961189886820996" r="31.98" gradientTransform="matrix(-0.91, 0, 0, 1.07, 359.27, -1.95)" gradientUnits="userSpaceOnUse"><stop offset="0" stop-color="#31c8c5"/><stop offset="0.29" stop-color="#699594"/><stop offset="0.42" stop-color="gray"/><stop offset="0.57" stop-color="#7d7d7d"/><stop offset="0.67" stop-color="#747474"/><stop offset="0.76" stop-color="#656565"/><stop offset="0.83" stop-color="#505050"/><stop offset="0.9" stop-color="#353535"/><stop offset="0.97" stop-color="#141414"/><stop offset="1"/></radialGradient><linearGradient id="Безымянный_градиент_60" x1="48.47" y1="99.37" x2="48.47" y2="75.56" gradientUnits="userSpaceOnUse"><stop offset="0"/><stop offset="0.12" stop-color="#160b04"/><stop offset="0.3" stop-color="#361b09"/><stop offset="0.41" stop-color="#42210b"/><stop offset="0.5" stop-color="#4c260d"/><stop offset="0.85" stop-color="#713813"/><stop offset="0.93" stop-color="#89441d"/><stop offset="1" stop-color="#984c24"/></linearGradient><linearGradient id="Безымянный_градиент_10" x1="50.45" y1="70.49" x2="50.45" y2="39.49" gradientUnits="userSpaceOnUse"><stop offset="0"/><stop offset="0.06" stop-color="#1d0e05"/><stop offset="0.11" stop-color="#311908"/><stop offset="0.16" stop-color="#3e1f0a"/><stop offset="0.21" stop-color="#42210b"/><stop offset="0.43" stop-color="#5a2d0f"/><stop offset="0.61" stop-color="#713813"/><stop offset="0.82" stop-color="#89441d"/><stop offset="1" stop-color="#984c24"/></linearGradient></defs><title>атака 2</title><g id="Слой_11" data-name="Слой 11"><path class="cls-1" d="M74.12,86.47H24.68c-5.62,0-11.15-1.59-15-5.46-4.75-4.79,3.07-8.88,1.93-10.91-2.93-5.2,5.94-10.66,13.06-10.66H74.12c7.11,0,14,4.56,12.5,10.66C85.68,74,90.93,76.32,89,79.23,85.88,84,79.9,86.47,74.12,86.47Z"/><path d="M19.19,81.65a1.32,1.32,0,0,1-1.16,0,3,3,0,0,1-.86-.6,3.89,3.89,0,0,1-.91-1.57c-.41-1.11.56-2.27.45-3.26s-.83-2-.72-3.13a10,10,0,0,1,.52-3.31,11.89,11.89,0,0,1,3.59-5.39,13.47,13.47,0,0,1,5.51-3l.16.25c-1.25,1.66-2.49,3.15-3.58,4.69a42.58,42.58,0,0,0-2.93,4.55,13.49,13.49,0,0,0-.92,2.46,8,8,0,0,1-.42,1.36,2.92,2.92,0,0,0-.3,1.48c0,1,1.18,1.82,1.26,2.65A8.73,8.73,0,0,1,19,80.06a3,3,0,0,0,.15,1.29Z"/><path d="M75,61.4A10.89,10.89,0,0,1,78.41,63a12.39,12.39,0,0,1,2.76,2.5,15.77,15.77,0,0,1,1.73,3.4c.49,1.16,1.09,2.22,1.58,3.45a6.48,6.48,0,0,1,.41,4.13,9.91,9.91,0,0,1-1.8,3.65,12,12,0,0,1-6.48,3.95l-.18-.25a32.08,32.08,0,0,1,2.09-3l2-2.67a15.53,15.53,0,0,0,1.79-2.55,6.24,6.24,0,0,0,.91-3,5,5,0,0,0-1.36-3.08c-.81-.87-1.85-1.5-2.69-2.28a27.06,27.06,0,0,1-4.42-5.61Z"/><path d="M41.45,85.15A9.52,9.52,0,0,1,39,83.36a4.83,4.83,0,0,1-1.54-2.58,12.21,12.21,0,0,1-.19-1.67,14.84,14.84,0,0,0-.21-1.53,20,20,0,0,1-.61-3.08,11.64,11.64,0,0,1,.36-3.12A9.35,9.35,0,0,1,38,68.49a9.14,9.14,0,0,1,4.7-4l.2.22c-.8,1.91-1.47,3.54-2.12,5.21-.32.83-.69,1.62-1.05,2.43s-.63,1.65-1,2.48A9,9,0,0,0,38,77.49a2.42,2.42,0,0,0,.34,1.29,4,4,0,0,0,1,1A5.59,5.59,0,0,1,41,81.94,6.13,6.13,0,0,1,41.71,85Z"/><path d="M53.8,60.81a21.22,21.22,0,0,1,3.73,1.92,9.57,9.57,0,0,1,3,3.15A24.83,24.83,0,0,1,61.89,70c.19.68.44,1.33.65,2a12.2,12.2,0,0,1,.64,2.12A9.5,9.5,0,0,1,63,78.61,13.33,13.33,0,0,1,58.49,86a8.72,8.72,0,0,1-1.9,1.23,4.42,4.42,0,0,1-1.13.38,1.45,1.45,0,0,1-1.25-.24l.14-.27c.55-.06.93-.61,1.32-1.08a18.92,18.92,0,0,0,1.06-1.58c.67-1.1,1.29-2.21,1.87-3.33s1.21-2.21,1.7-3.36a22.7,22.7,0,0,0,1.17-3.55A6.6,6.6,0,0,0,61,70.35a10.3,10.3,0,0,0-2.5-3c-.9-.88-1.66-1.86-2.54-2.84-.44-.5-.87-1-1.29-1.58a6.71,6.71,0,0,1-1.1-1.9Z"/><path class="cls-2" d="M27.38,68.91c2.59,0,6.41.18,6.46,2.46s-3.52,4.18-6.12,4.13-6.26-1.22-6.3-3.5S24.78,68.86,27.38,68.91Z"/><path d="M27.38,68.76a9.35,9.35,0,0,0,1.95-.17,16.28,16.28,0,0,1,2.07-.33,3.9,3.9,0,0,1,2.35.53A3,3,0,0,1,34.82,70a2.68,2.68,0,0,1,.23,1.62,3.45,3.45,0,0,1-1.39,2.18,10.58,10.58,0,0,1-1.86,1.09,18.14,18.14,0,0,1-3.89,1.43,8.73,8.73,0,0,1-4.27-.19,6.82,6.82,0,0,1-2.15-1,3.87,3.87,0,0,1-1.63-2.51,3.48,3.48,0,0,1,1-3,3.82,3.82,0,0,1,2.34-1C24.76,68.38,26.09,68.76,27.38,68.76Zm0,.3A5.05,5.05,0,0,0,24,70.51a4.36,4.36,0,0,0-.88,1A.7.7,0,0,0,23,72a1.33,1.33,0,0,0,.39.65,4.83,4.83,0,0,0,1.21.83,17.34,17.34,0,0,0,3.25,1.2,4.54,4.54,0,0,0,3.42-.7,3.35,3.35,0,0,0,1.13-1.31,1.69,1.69,0,0,0,.17-1.25c-.13-.3-.13-.21-.37-.46A8.61,8.61,0,0,0,31,70.18a9.57,9.57,0,0,0-1.74-.81A5.91,5.91,0,0,0,27.37,69.06Z"/><path class="cls-2" d="M49.83,76.25C52,76,56,75.61,56,73.22s-3.52-4.36-6.12-4.32-6.25,1.28-6.29,3.67S47.36,76.55,49.83,76.25Z"/><path d="M49.81,76.1a6.09,6.09,0,0,0,1.91-.52,10,10,0,0,0,1.66-1,7.54,7.54,0,0,0,1.1-.94c.18-.24.27-.22.37-.63a2.25,2.25,0,0,0-.29-1.39,3.47,3.47,0,0,0-1.23-1.3,4.43,4.43,0,0,0-3.5-.56,15.43,15.43,0,0,0-3.25,1.32A3.87,3.87,0,0,0,45.5,72a1.14,1.14,0,0,0-.26.67c-.12.29.38,1.12,1.22,2A4.23,4.23,0,0,0,49.81,76.1Zm0,.29a16,16,0,0,1-4.28.06,4.52,4.52,0,0,1-2.23-1A3.88,3.88,0,0,1,42,72.68a3.79,3.79,0,0,1,1.22-2.87A6,6,0,0,1,45.4,68.5a8.34,8.34,0,0,1,4.37-.44,14.41,14.41,0,0,1,4,1.44,11.62,11.62,0,0,1,1.87,1.09,3.9,3.9,0,0,1,1.52,2,2.93,2.93,0,0,1,0,1.56,3,3,0,0,1-.85,1.38A3.74,3.74,0,0,1,54,76.5a11.74,11.74,0,0,1-2.16-.12A9.53,9.53,0,0,0,49.85,76.39Z"/><path class="cls-2" d="M73.6,68.69c3.43.94,6.16.6,6.2,3.24s-3.52,4.83-6.11,4.78-6.26-1.42-6.3-4.06S70.6,67.86,73.6,68.69Z"/><path d="M73.64,68.54a6,6,0,0,0,2,.2,21.17,21.17,0,0,1,2.19-.17,3.77,3.77,0,0,1,1.24.2,3,3,0,0,1,1.31.9,2.9,2.9,0,0,1,.64,1.55,3.62,3.62,0,0,1-.15,1.43,4.34,4.34,0,0,1-1.47,2.09A12.36,12.36,0,0,1,77.57,76a11.55,11.55,0,0,1-4.16,1.58,8,8,0,0,1-4.56-.69,6,6,0,0,1-2.13-1.61,4.08,4.08,0,0,1-.92-2.94,4.67,4.67,0,0,1,1.14-2.66,4.54,4.54,0,0,1,2.21-1.34A8.94,8.94,0,0,1,73.64,68.54Zm-.08.29a3.41,3.41,0,0,0-3.43,1.25A4.14,4.14,0,0,0,69,72.51a1.52,1.52,0,0,0,.24.88,3.43,3.43,0,0,0,1,1,13.06,13.06,0,0,0,3.27,1.45,4.29,4.29,0,0,0,3.58-.62,3.29,3.29,0,0,0,1.54-2.94,3.51,3.51,0,0,0-.15-.6,1,1,0,0,0-.17-.31,3.18,3.18,0,0,0-1-.8c-.54-.33-1.18-.7-1.81-1A11.2,11.2,0,0,0,73.56,68.83Z"/><path d="M77.34,72.76a6.21,6.21,0,0,1-2,.79,8.73,8.73,0,0,1-2,.22,9.33,9.33,0,0,1-2-.21,6.47,6.47,0,0,1-2-.78,6.31,6.31,0,0,1,2-.79,8.81,8.81,0,0,1,2-.22,9.4,9.4,0,0,1,2,.21A6.42,6.42,0,0,1,77.34,72.76Z"/><path d="M54.39,72.77a6.12,6.12,0,0,1-2,.79,8.66,8.66,0,0,1-2,.22,9.33,9.33,0,0,1-2-.21,6.18,6.18,0,0,1-2-.78,6.12,6.12,0,0,1,2-.79,8.66,8.66,0,0,1,2-.22,9.33,9.33,0,0,1,2,.21A6.18,6.18,0,0,1,54.39,72.77Z"/><path d="M31.3,72a6.21,6.21,0,0,1-2,.79,9,9,0,0,1-3.92,0,6,6,0,0,1-2-.78,6.31,6.31,0,0,1,2-.79,8.79,8.79,0,0,1,2-.22,9.42,9.42,0,0,1,2,.21A6.42,6.42,0,0,1,31.3,72Z"/><path d="M11.63,71.51A5.38,5.38,0,0,1,12,74.83c-.44,1.63-2.88.65-2.88.65Z"/><path class="cls-3" d="M99.1,14.25s3.32-3.31,9.8.72,12.61,9.18,9.88,8.61c-3-.62-8.72-4.23-8.72-4.23a73.75,73.75,0,0,0-9.55-2.48C89.38,15.48,99.1,14.25,99.1,14.25Z"/><path class="cls-4" d="M100.51,16.87c-3.43,1.77-5.86,1.54-11.31.15-2.46-.63-1.54-2.33-10.06-3.39-1.4-.17-12.39,4-13.32,7.65-1.32,5.18.28,10.38.11,16.85-.14,5.53,2.12,7,2.12,7,0,6.1-17.78,6.39-17.78,3.35,0,0,1.18-10.49,2.52-16.65.88-4,.9-13.61,3.79-17.49A24.58,24.58,0,0,1,67.45,5.77c5.88-2.45,16.83-1.34,16.84-1.33C98,5.49,108.4,12.81,100.51,16.87Z"/><path class="cls-5" d="M98.73,10.22c1.78.36,7.9-1.19,13.57,2.13s10.78,7.41,8.19,6.8c-2.8-.67-7.54-3.73-7.54-3.73s-10.59-3.26-13.67-2.5C91,15,96.17,9.69,98.73,10.22Z"/><path class="cls-3" d="M74.54,19.46s2.67,2.71,2.35,9.9-1.57,14.17-2.24,11.29c-.72-3.13-.14-10.22-.14-10.22s-.86-5.68-1.71-9.06C70.16,10.81,71.36,17,74.54,19.46Z"/><path class="cls-6" d="M77.37,25c-2,.57-13,3.12-14.1-4.29-.77-5.15-3.87-3.56-6.25-5.5-4.24-3.45-4.45.26-6.71,4.4-2.63,4.81-1.1,10.61-1.91,15.22-.87,4.9.72,13.11.72,13.11,0,5.5-16.83,4.13-16.83,1.38,0,0,2.33-14.46,3.44-20,.72-3.65-.48-11.06,4-16,1.47-1.61,5.18-7.54,8.54-8.72a23.88,23.88,0,0,1,17.28.56C74.71,8,84.43,23,77.37,25Z"/><path class="cls-5" d="M74.59,17.71a14.53,14.53,0,0,1,6.34,9.94c1,6.79,1,13.54-.17,11C79.48,35.79,77.42,27,77.42,27s-2.49-4.54-4.19-7.5C72.05,17.41,74.59,17.71,74.59,17.71Z"/><path class="cls-7" d="M82,98.2c-6.9-.37-5.07,2.82-17.46,0-6.53-1.49-12,.12-18.15.87-7.76.94-10.05-1.77-16.09-.64-4.51.83-7-1.15-10.25-.75C4.89,99.51,4.21,98,1.6,91-.2,86.12-.28,70.34,24.54,78.18c3.07,1,9.59-2.17,13.92-.09,4.63,2.23,3.25,2.08,14.47.48,3.29-.46,3.51-.14,9.34.41,3.79.35,11,.78,15.21-.8,21.75-8.26,19.15,5.21,17.45,10.16C93.18,93.47,88.31,98.53,82,98.2Z"/><path d="M24.71,95.92a21.75,21.75,0,0,0,2-4.77,26.57,26.57,0,0,0,1.08-4.93,9.41,9.41,0,0,0-.05-2.38c-.11-.75-.22-1.43-.37-2a5.09,5.09,0,0,0-.78-1.8,10.5,10.5,0,0,0-1.77-1.76l.06-.29a4.53,4.53,0,0,1,3,.38,5.08,5.08,0,0,1,2.29,2.38,6.1,6.1,0,0,1,.54,3.1,17,17,0,0,1-.56,2.86,22.45,22.45,0,0,1-2.06,5.08c-.44.79-.91,1.56-1.41,2.3a10.68,10.68,0,0,1-1.73,2.1Z"/><path d="M90.71,94.65a17.39,17.39,0,0,0,1.57-4.86,25.89,25.89,0,0,0,.52-5,12.5,12.5,0,0,0-.3-2.39c0-.39-.18-.75-.25-1.12l-.09-.56L92,80.18a15.39,15.39,0,0,0-1.68-4.52l.17-.24a6.2,6.2,0,0,1,4.35,3.81l.29.71c.06.24.1.48.16.72a6.65,6.65,0,0,1,.13,1.47A26.29,26.29,0,0,1,95.2,85a22.07,22.07,0,0,1-1.49,5.26,23.59,23.59,0,0,1-1.19,2.42,9.2,9.2,0,0,1-1.59,2.2Z"/><path d="M78.16,96.27a26.39,26.39,0,0,1-2.53-4.79,19.32,19.32,0,0,1-1.37-5.39,16.86,16.86,0,0,1-.08-2.94,6.57,6.57,0,0,1,.94-2.92,6.38,6.38,0,0,1,5-3.14l.14.27c-.55.8-1.07,1.47-1.47,2.16a14.45,14.45,0,0,0-1,2c-.25.68-.46,1.38-.69,2.11A8.52,8.52,0,0,0,76.66,86a21.76,21.76,0,0,0,.41,5,31.92,31.92,0,0,0,1.35,5.07Z"/><path d="M5.84,94.19a9.85,9.85,0,0,1-2.29-1.84A11.73,11.73,0,0,1,1.8,89.92,5.8,5.8,0,0,1,.69,87.09a4.49,4.49,0,0,1,1-3H2a6.08,6.08,0,0,1,1,1.28,8.7,8.7,0,0,1,.63,1.2,4.16,4.16,0,0,1,.27,1.22A6.85,6.85,0,0,0,4,89a16.29,16.29,0,0,0,.78,2.49A12.29,12.29,0,0,0,6,94Z"/><path d="M15.45,90.77c-1.21-1-2.32-2-3.43-3.06a36.54,36.54,0,0,1-3.11-3.45C8,83,6.77,81.84,6.4,80.06a4.43,4.43,0,0,1,.25-3A2.34,2.34,0,0,1,8,75.92a3.18,3.18,0,0,1,.74-.09,4.67,4.67,0,0,1,.67.13l0,.3c-.15.15-.29.29-.43.41a2.17,2.17,0,0,0-.27.4.86.86,0,0,0-.05.64,9.26,9.26,0,0,0,.59,1.42c.28.56.55,1.17.8,1.82a15,15,0,0,0,.87,2c.7,1.28,1.47,2.56,2.27,3.83s1.63,2.53,2.47,3.8Z"/><path d="M61.64,95.11a24.63,24.63,0,0,0,1.78-4.7,13.25,13.25,0,0,0,.52-4.69,5.25,5.25,0,0,0-.62-2,14.26,14.26,0,0,0-1-1.65A24,24,0,0,0,59,78.65l.08-.28A6.71,6.71,0,0,1,64.48,80a5.41,5.41,0,0,1,1.63,2.67,9.59,9.59,0,0,1,.23,3,13.08,13.08,0,0,1-1.52,5.26,21.33,21.33,0,0,1-2.93,4.34Z"/><path d="M39.07,94.65a32.16,32.16,0,0,0,2-3.83,20.48,20.48,0,0,0,1.38-3.93A7.14,7.14,0,0,0,42.65,85l-.08-1.72a9.06,9.06,0,0,0-.23-1.72,19,19,0,0,0-.75-2l.18-.24a4.18,4.18,0,0,1,2.31,1.09,5.05,5.05,0,0,1,1.43,2.3,5.2,5.2,0,0,1,.09,2.65,16.09,16.09,0,0,1-.81,2.34,17,17,0,0,1-2.39,4,23.36,23.36,0,0,1-3.11,3.25Z"/><path class="cls-8" d="M78.2,40.1C66.2,42.3,67,45.91,62.79,45c-15.4-3.46-16.14,0-25.66-.68-6.72-.52-7-5.69-19.61-3C9.93,42.93,8.56,49,6.83,57.5c-4.12,20.36,6.65,12,16.83,6.63C28.43,61.6,33,68,38.59,64c0,0,3.07,4.53,8,3.27,6.25-1.59,8.69-5.18,8.69-5.18s2.24,4.18,9.81,4.17c3.35,0,8-6,12.28-2.7C92.15,74.88,93.52,59.8,94.79,51,96.23,41,89.27,38.08,78.2,40.1Z"/><path d="M24.48,63.64a14.7,14.7,0,0,0,2.2-4.5,12.22,12.22,0,0,0,.48-4.74,9.35,9.35,0,0,0-.56-2.26c-.14-.36-.25-.73-.35-1.09a10.93,10.93,0,0,1-.37-1.1,7.87,7.87,0,0,0-.35-1.14c-.13-.38-.25-.77-.35-1.19a16.42,16.42,0,0,1-.71-2.57l.23-.19A9.84,9.84,0,0,1,27,46.51c.32.34.61.7.9,1.07l.42.57c.12.21.23.42.34.63,1,1.65,1,3.73.92,5.59,0,.47-.07.94-.15,1.41l-.3,1.37-.46,1.31c-.18.43-.39.84-.58,1.25a14,14,0,0,1-3.38,4.15Z"/><path d="M89.21,59.71a34,34,0,0,0,2.37-6.27,16.23,16.23,0,0,0,.62-6.31,6.09,6.09,0,0,0-1-2.6,9.23,9.23,0,0,0-1.85-1.9,28.88,28.88,0,0,0-5.66-3l0-.3A13.59,13.59,0,0,1,85.45,39a12.43,12.43,0,0,1,1.83,0,9.61,9.61,0,0,1,3.66,1.08,6.63,6.63,0,0,1,2.8,3,9.46,9.46,0,0,1,.85,3.87,16.42,16.42,0,0,1-1.59,7,30.57,30.57,0,0,1-3.54,5.94Z"/><path d="M76.51,63.32A30,30,0,0,1,74,59.1a20.08,20.08,0,0,1-1.7-4.76,15.91,15.91,0,0,1-.4-2.66,5.78,5.78,0,0,1,.62-2.84,5,5,0,0,1,2.11-2.15,4.4,4.4,0,0,1,2.75-.48l.09.28A12.32,12.32,0,0,0,76,48.3,5.55,5.55,0,0,0,75.24,50c-.15.58-.28,1.19-.42,1.86A8,8,0,0,0,74.63,54a25.54,25.54,0,0,0,.73,4.57,40.24,40.24,0,0,0,1.41,4.58Z"/><path d="M9.56,66.41a39.43,39.43,0,0,1-.47-8.06,28.75,28.75,0,0,1,1.47-8.09,21.34,21.34,0,0,1,1.7-3.91A11.43,11.43,0,0,1,15.1,43a11,11,0,0,1,8.12-2.29l.05.3A38.38,38.38,0,0,0,19.86,43a18.48,18.48,0,0,0-2.78,2.3A35.66,35.66,0,0,0,14.74,48a15.68,15.68,0,0,0-2,3.17,31.14,31.14,0,0,0-2.21,7.37,44.6,44.6,0,0,0-.72,7.85Z"/><path d="M55.17,62a32.73,32.73,0,0,0,2-3.51,21.59,21.59,0,0,0,1.49-3.6,6.72,6.72,0,0,0,.27-1.8c0-.57.06-1.09.11-1.59A7.71,7.71,0,0,0,58.6,48l.19-.23a4.16,4.16,0,0,1,3.29,3.48,4.88,4.88,0,0,1-.19,2.47,15.56,15.56,0,0,1-1,2.1,17.34,17.34,0,0,1-2.47,3.54,24.45,24.45,0,0,1-3.07,2.87Z"/><path d="M38.52,63.86a11.42,11.42,0,0,0,2.38-3A8.75,8.75,0,0,0,42,57.42a6.27,6.27,0,0,0-.1-1.73,8,8,0,0,1-.1-.84A6.11,6.11,0,0,1,41.7,54c0-.59-.09-1.18,0-1.85A10.4,10.4,0,0,1,41.75,50l.27-.13a6.38,6.38,0,0,1,1.64,1.55,10.11,10.11,0,0,1,.57,1,4.28,4.28,0,0,1,.42,1c.55,1.45.1,3.08-.32,4.5-.13.36-.24.72-.39,1.06l-.51,1-.62.91c-.23.29-.47.56-.71.83a10.57,10.57,0,0,1-3.43,2.39Z"/></g></svg>