<svg xmlns="http://www.w3.org/2000/svg" xmlns:xlink="http://www.w3.org/1999/xlink" viewBox="0 0 125 100"><defs><style>.cls-1,.cls-2,.cls-3,.cls-4,.cls-5,.cls-7,.cls-8,.cls-9{stroke:#000;stroke-miterlimit:10;}.cls-1{fill:url(#Безымянный_градиент_221);}.cls-2{fill:#31c8c5;}.cls-3{fill:url(#Безымянный_градиент_12);}.cls-4{fill:#984c24;}.cls-5{fill:url(#Безымянный_градиент_126);}.cls-6{fill:#f76614;}.cls-7{fill:url(#Безымянный_градиент_64);}.cls-8,.cls-9{stroke-width:0.5px;}.cls-8{fill:url(#Безымянный_градиент_10);}.cls-9{fill:url(#Безымянный_градиент_60);}</style><radialGradient id="Безымянный_градиент_221" cx="38.86" cy="29.23" fx="49.306816210821594" fy="45.58791353516628" r="20.78" gradientUnits="userSpaceOnUse"><stop offset="0" stop-color="#31c8c5"/><stop offset="0.29" stop-color="#699594"/><stop offset="0.42" stop-color="gray"/><stop offset="0.57" stop-color="#7d7d7d"/><stop offset="0.67" stop-color="#747474"/><stop offset="0.76" stop-color="#656565"/><stop offset="0.83" stop-color="#505050"/><stop offset="0.9" stop-color="#353535"/><stop offset="0.97" stop-color="#141414"/><stop offset="1"/></radialGradient><radialGradient id="Безымянный_градиент_12" cx="42.58" cy="18.95" fx="55.866470737951275" fy="26.29085521006781" r="20.19" gradientTransform="matrix(0, -0.78, 0.64, -0.17, 29.53, 49.68)" gradientUnits="userSpaceOnUse"><stop offset="0"/><stop offset="0.15" stop-color="#050505"/><stop offset="0.34" stop-color="#141414"/><stop offset="0.54" stop-color="#2c2c2c"/><stop offset="0.75" stop-color="#4e4e4e"/><stop offset="0.97" stop-color="#797979"/><stop offset="1" stop-color="gray"/></radialGradient><linearGradient id="Безымянный_градиент_126" x1="51.33" y1="84.81" x2="51.33" y2="59.15" gradientUnits="userSpaceOnUse"><stop offset="0" stop-color="gray"/><stop offset="0.23" stop-color="#7e8282"/><stop offset="0.33" stop-color="#788"/><stop offset="0.4" stop-color="#6b9393"/><stop offset="0.45" stop-color="#59a3a2"/><stop offset="0.5" stop-color="#43b8b5"/><stop offset="0.53" stop-color="#31c8c5"/><stop offset="0.56" stop-color="#45b6b4"/><stop offset="0.6" stop-color="#5ba2a1"/><stop offset="0.64" stop-color="#6c9392"/><stop offset="0.7" stop-color="#788"/><stop offset="0.78" stop-color="#7e8282"/><stop offset="1" stop-color="gray"/></linearGradient><radialGradient id="Безымянный_градиент_64" cx="71.65" cy="24.31" fx="45.13227338334649" r="26.6" gradientTransform="translate(-5.82) scale(1.1 1)" gradientUnits="userSpaceOnUse"><stop offset="0" stop-color="#31c8c5"/><stop offset="0.07" stop-color="#4dafad"/><stop offset="0.14" stop-color="#639a99"/><stop offset="0.22" stop-color="#738b8b"/><stop offset="0.31" stop-color="#7d8383"/><stop offset="0.43" stop-color="gray"/><stop offset="0.63" stop-color="#7e7e7e"/><stop offset="0.71" stop-color="#777"/><stop offset="0.78" stop-color="#6a6a6a"/><stop offset="0.83" stop-color="#585858"/><stop offset="0.88" stop-color="#414141"/><stop offset="0.92" stop-color="#242424"/><stop offset="0.96" stop-color="#030303"/><stop offset="0.97"/></radialGradient><linearGradient id="Безымянный_градиент_10" x1="52" y1="68.13" x2="52" y2="37.87" gradientUnits="userSpaceOnUse"><stop offset="0"/><stop offset="0.06" stop-color="#1d0e05"/><stop offset="0.11" stop-color="#311908"/><stop offset="0.16" stop-color="#3e1f0a"/><stop offset="0.21" stop-color="#42210b"/><stop offset="0.43" stop-color="#5a2d0f"/><stop offset="0.61" stop-color="#713813"/><stop offset="0.82" stop-color="#89441d"/><stop offset="1" stop-color="#984c24"/></linearGradient><linearGradient id="Безымянный_градиент_60" x1="50.01" y1="98.81" x2="50.01" y2="74.53" gradientUnits="userSpaceOnUse"><stop offset="0"/><stop offset="0.12" stop-color="#160b04"/><stop offset="0.3" stop-color="#361b09"/><stop offset="0.41" stop-color="#42210b"/><stop offset="0.5" stop-color="#4c260d"/><stop offset="0.85" stop-color="#713813"/><stop offset="0.93" stop-color="#89441d"/><stop offset="1" stop-color="#984c24"/></linearGradient></defs><title>атака 2</title><g id="Слой_9" data-name="Слой 9"><path class="cls-1" d="M49.06,28.26c.95-5.93,3.26-9.45,2.27-16.36-.52-3.68,1.82-9-8.44-9.7-8.56,0,1.84,7.77.48,10.19.34.43-.94,3.21-1.13,6.37-.29,4.82-2.83,9-5.1,15.22a30.7,30.7,0,0,0-1.9,8.11c0,5.5,16.11,3.94,16.11,1.19C51.35,43.28,48.16,33.88,49.06,28.26Z"/><path class="cls-2" d="M40.09,35.77s-3-7.56-.69-13.7,3.93-6.91,3.75-4.25C43,20.7,41.93,26.51,42,29.46c0,1.37,0,2.64.19,5.36C42.54,41.46,40.09,35.77,40.09,35.77Z"/><path class="cls-3" d="M34.54,7.07c-.78,5.45.87,7.85.7,9.09-.7,5.11-2.56,9.4,5.31,8.85,4.44-.31,1.24-2.74,4.62-5.11C48,18,49,12.56,49.41,11.41c.65-1.61-.86-6.49-2.64-7.25C38.68.73,34.85,4.87,34.54,7.07Z"/><path class="cls-4" d="M38.2,20.76C36.46,24.05,38,25.29,37.46,31c-.53,5.32,1.31,11.69,2,9.49.7-2.38.62-7.88.62-7.88s-.81-6.77.1-10.41C42,15,38.52,20.15,38.2,20.76Z"/></g><g id="Слой_10" data-name="Слой 10"><path class="cls-5" d="M76.66,84.81H27.22c-5.62,0-11.14-1.51-15-5.19-4.76-4.55,3.06-8.43,1.92-10.35-2.92-4.94,5.95-10.12,13.06-10.12H76.66c7.12,0,14,4.33,12.5,10.12-.94,3.67,4.32,5.9,2.39,8.67C88.42,82.43,82.44,84.81,76.66,84.81Z"/><path d="M21.73,78.9a1.27,1.27,0,0,1-1.12.07,2.61,2.61,0,0,1-.87-.56,3.74,3.74,0,0,1-.93-1.51c-.4-1.08.58-2.22.45-3.17a3.82,3.82,0,0,0-.43-1.45l-.17-.37c0-.13,0-.27-.07-.4a7.54,7.54,0,0,1-.06-.82,9.21,9.21,0,0,1,.58-3.21,11.31,11.31,0,0,1,3.63-5.1,12.93,12.93,0,0,1,5.42-2.72l.15.25c-1.23,1.6-2.46,3-3.54,4.46a42.47,42.47,0,0,0-2.94,4.28A12.63,12.63,0,0,0,20.9,71a7.39,7.39,0,0,1-.42,1.29,2.83,2.83,0,0,0-.32,1.42c0,1,1.17,1.74,1.26,2.52a6.64,6.64,0,0,1,.13,1.15,2.77,2.77,0,0,0,.16,1.25Z"/><path d="M77.52,59.66a10.26,10.26,0,0,1,3.39,1.43,11.81,11.81,0,0,1,2.74,2.35A15,15,0,0,1,85.4,66.7c.51,1.12,1.12,2.12,1.61,3.31a5.92,5.92,0,0,1,.4,4,9.66,9.66,0,0,1-1.84,3.51,10.61,10.61,0,0,1-2.93,2.35,10.75,10.75,0,0,1-3.49,1.28L79,81A26.21,26.21,0,0,1,81.06,78c.71-.89,1.38-1.74,2-2.54a14.74,14.74,0,0,0,1.8-2.4,5.45,5.45,0,0,0,.92-2.79,4.62,4.62,0,0,0-1.39-2.94c-.81-.81-1.85-1.39-2.68-2.12a24.94,24.94,0,0,1-4.4-5.34Z"/><path d="M44,82.22a8.84,8.84,0,0,1-2.41-1.63,4.52,4.52,0,0,1-1.53-2.45,11.51,11.51,0,0,1-.22-1.61,13.52,13.52,0,0,0-.21-1.48,17.47,17.47,0,0,1-.61-3,10.6,10.6,0,0,1,.38-3,9.27,9.27,0,0,1,5.85-6.48l.19.23-2.11,5c-.32.78-.69,1.53-1,2.29s-.64,1.55-1,2.35c-.17.4-.31.79-.47,1.23A3.58,3.58,0,0,0,40.57,75a2.2,2.2,0,0,0,.34,1.23,3.66,3.66,0,0,0,1,.89,5,5,0,0,1,1.7,2.05,5.8,5.8,0,0,1,.69,2.95Z"/><path d="M56.35,59.1A19.76,19.76,0,0,1,60,60.84a9,9,0,0,1,3,2.94,22.71,22.71,0,0,1,1.42,4c.19.66.45,1.28.66,1.93a11.43,11.43,0,0,1,.65,2,8.88,8.88,0,0,1-.18,4.35A13,13,0,0,1,63.85,80,13.14,13.14,0,0,1,61,83.12a8.42,8.42,0,0,1-1.88,1.12,4.93,4.93,0,0,1-1.11.33,1.47,1.47,0,0,1-1.21-.27L56.9,84c.53-.08.9-.59,1.29-1a17.61,17.61,0,0,0,1.06-1.5c.67-1,1.29-2.1,1.87-3.16s1.23-2.09,1.72-3.18A20.73,20.73,0,0,0,64,71.79a5.94,5.94,0,0,0-.5-3.66A9.71,9.71,0,0,0,61,65.3c-.9-.82-1.66-1.74-2.53-2.67-.43-.47-.86-1-1.28-1.5a6.56,6.56,0,0,1-1.1-1.83Z"/><path class="cls-6" d="M29.92,67.33c2.6,0,6.42.19,6.46,2.51s-3.52,4.25-6.12,4.2S24,72.8,24,70.48,27.33,67.29,29.92,67.33Z"/><path d="M29.93,67.18A9.28,9.28,0,0,0,31.88,67,15,15,0,0,1,34,66.7a3.81,3.81,0,0,1,2.36.56,3,3,0,0,1,1.06,1.2,2.79,2.79,0,0,1,.21,1.61,3.54,3.54,0,0,1-1.38,2.19,10.14,10.14,0,0,1-1.86,1.11,17.09,17.09,0,0,1-3.9,1.46,8.72,8.72,0,0,1-4.3-.2A7,7,0,0,1,24,73.56,3.87,3.87,0,0,1,22.41,71a3.49,3.49,0,0,1,1-3,3.82,3.82,0,0,1,2.34-1.06C27.3,66.81,28.63,67.19,29.93,67.18Zm0,.3A5.05,5.05,0,0,0,26.53,69a4.86,4.86,0,0,0-.88,1,.79.79,0,0,0-.06.55,1.34,1.34,0,0,0,.39.68,5,5,0,0,0,1.2.84,16.78,16.78,0,0,0,3.26,1.21,4.55,4.55,0,0,0,3.43-.72A3.46,3.46,0,0,0,35,71.21a1.78,1.78,0,0,0,.16-1.27c-.12-.32-.14-.24-.37-.5a8.67,8.67,0,0,0-1.22-.82,9.19,9.19,0,0,0-1.73-.82A6.27,6.27,0,0,0,29.92,67.48Z"/><path class="cls-6" d="M52.38,75.06c2.14-.26,6.16-.62,6.21-2.94s-3.52-4.25-6.12-4.2-6.26,1.24-6.3,3.56S49.91,75.36,52.38,75.06Z"/><path d="M52.36,74.91a6.22,6.22,0,0,0,1.89-.5,10.74,10.74,0,0,0,1.66-1A9.66,9.66,0,0,0,57,72.49c.19-.25.26-.19.36-.58a2.09,2.09,0,0,0-.29-1.35,3.43,3.43,0,0,0-1.24-1.27,4.47,4.47,0,0,0-3.49-.53,17.24,17.24,0,0,0-3.24,1.29,4.07,4.07,0,0,0-1.09.87,1.1,1.1,0,0,0-.26.61c-.12.23.39,1.06,1.23,1.92A4.3,4.3,0,0,0,52.36,74.91Zm0,.3a17.52,17.52,0,0,1-4.25.09,4.56,4.56,0,0,1-2.22-1,3.64,3.64,0,0,1-.11-5.59A6.37,6.37,0,0,1,48,67.46a8.52,8.52,0,0,1,4.34-.38,14.7,14.7,0,0,1,4,1.39,11.82,11.82,0,0,1,1.88,1,3.7,3.7,0,0,1,1.53,2,2.82,2.82,0,0,1,0,1.58,2.89,2.89,0,0,1-.89,1.35,3.62,3.62,0,0,1-2.32.86,13.45,13.45,0,0,1-2.14-.13A8.2,8.2,0,0,0,52.4,75.21Z"/><path class="cls-6" d="M76.14,68.08c3.44.83,6.17.53,6.21,2.85s-3.52,4.25-6.12,4.2-6.25-1.24-6.3-3.56S73.15,67.35,76.14,68.08Z"/><path d="M76.18,67.93a5.77,5.77,0,0,0,1.95.13c.68-.06,1.36-.21,2.08-.24a3.41,3.41,0,0,1,2.47.74,2.68,2.68,0,0,1,.87,1.51,3.16,3.16,0,0,1-.08,1.5,3.87,3.87,0,0,1-1.58,2,13.54,13.54,0,0,1-1.88,1A14.9,14.9,0,0,1,76,76a8.51,8.51,0,0,1-4.36-.45,6.16,6.16,0,0,1-2.17-1.33,3.91,3.91,0,0,1-.87-1.29,3.68,3.68,0,0,1-.25-1.66,4.09,4.09,0,0,1,1.3-2.62,4.41,4.41,0,0,1,2.25-1.08A11,11,0,0,1,76.18,67.93Zm-.07.29a3.61,3.61,0,0,0-3.38,1.16,3.5,3.5,0,0,0-1.19,2.09,1,1,0,0,0,.23.61,3.56,3.56,0,0,0,1,.87,15.88,15.88,0,0,0,3.24,1.31,4.46,4.46,0,0,0,3.51-.46,3.68,3.68,0,0,0,1.27-1.27,2.18,2.18,0,0,0,.32-1.37,1.62,1.62,0,0,0-.16-.44.49.49,0,0,0-.12-.15,5,5,0,0,0-1.11-.76c-.55-.31-1.16-.66-1.78-1A10.17,10.17,0,0,0,76.11,68.22Z"/><path d="M79.89,71.46a6.31,6.31,0,0,1-2,.79,9.09,9.09,0,0,1-3.93,0,6,6,0,0,1-2-.78,6.21,6.21,0,0,1,2-.79,8.73,8.73,0,0,1,2-.22,9.26,9.26,0,0,1,2,.21A6.47,6.47,0,0,1,79.89,71.46Z"/><path d="M56.94,71.45a6.21,6.21,0,0,1-2,.79,8.73,8.73,0,0,1-2,.22,8.12,8.12,0,0,1-2-.21,6,6,0,0,1-2-.78,6.21,6.21,0,0,1,2-.79,8.89,8.89,0,0,1,3.93,0A6.24,6.24,0,0,1,56.94,71.45Z"/><path d="M33.85,70.76a6.31,6.31,0,0,1-2,.79,8.81,8.81,0,0,1-2,.22,8.23,8.23,0,0,1-2-.21,6,6,0,0,1-2-.78A6.21,6.21,0,0,1,28,70a8.73,8.73,0,0,1,2-.22,9.33,9.33,0,0,1,2,.21A6.47,6.47,0,0,1,33.85,70.76Z"/><path d="M14.68,69.27A21.47,21.47,0,0,1,15,72.42c.1,3.39-2.88.61-2.88.61Z"/><path class="cls-2" d="M97.38,16.53s4.12-2,9.2,3.21,9.5,11.27,7,10.05c-2.67-1.32-6.75-5.65-6.75-5.65s-5.71-5.43-8.87-5C89.54,20.39,97.38,16.53,97.38,16.53Z"/><path class="cls-7" d="M101.26,17.68c-1.66,1.74-5.46,2.37-10.09,1.54s-8.93-5.14-10.43-5.51c-4.78-1.19-12.39,2.69-13.31,6-1.33,4.68,1.1,10.61.11,15.22-1.06,4.9,2.11,6.29,2.11,6.29,0,5.5-17.78,5.77-17.78,3,0,0,1.18-9.47,2.53-15,.88-3.64-1.81-11,3.79-15.79A30.15,30.15,0,0,1,69.05,6.61c5.89-2.21,16.83-1.2,16.84-1.19C96.13,7.49,107,11.59,101.26,17.68Z"/><path class="cls-4" d="M94.55,12.69s8-1.36,13.49,3.5,10.29,10.66,7.75,9.6c-2.76-1.15-6.87-6.25-6.87-6.25s-10.79-4.63-13.92-4C86.65,17.3,94.55,12.69,94.55,12.69Z"/><path class="cls-8" d="M79.75,38.58c-12,2.13-11.09,5.17-15.42,4.71-16.68-1.74-15.81,1.18-25.66-.66-3.45-.65-10.13-8.16-19.61-2.9-6.78,3.77-9,7.48-10.68,15.77C4.25,75.29,15,67.2,25.21,61.94c4.77-2.46,9.31,3.77,14.93-.14,0,0,3.07,4.41,8,3.19,6.24-1.56,8.69-5,8.69-5s2.23,4.06,9.81,4c3.35,0,8-5.81,12.28-2.63,14.78,11,16.14-3.64,17.41-12.23C97.77,39.4,90.81,36.61,79.75,38.58Z"/><path d="M26,61.46a14.24,14.24,0,0,0,2.19-4.37,11.4,11.4,0,0,0,.48-4.61,4.81,4.81,0,0,0-.21-1.12,4.59,4.59,0,0,0-.34-1.07,10.11,10.11,0,0,1-.35-1.06,7.82,7.82,0,0,1-.37-1.06,7.51,7.51,0,0,0-.35-1.11c-.13-.37-.25-.75-.35-1.16A13.8,13.8,0,0,1,26,43.39l.23-.19a9.33,9.33,0,0,1,2.26,1.57c.32.33.61.68.9,1l.43.55c.12.2.22.4.34.61,1,1.61,1,3.66.92,5.48-.05.46-.07.93-.15,1.38l-.3,1.35-.46,1.28c-.18.42-.39.82-.59,1.22a13.31,13.31,0,0,1-3.37,4Z"/><path d="M90.74,57.66a33.43,33.43,0,0,0,1.42-5.93,19,19,0,0,0,0-5.82,7,7,0,0,0-.94-2.49,12.82,12.82,0,0,0-1.45-2,18.15,18.15,0,0,0-4.62-3.31l0-.29a7.52,7.52,0,0,1,3.34-.08,7.27,7.27,0,0,1,3.25,1.45,6.65,6.65,0,0,1,2.15,3,12.13,12.13,0,0,1,.62,3.45,18.18,18.18,0,0,1-1,6.42A28.77,28.77,0,0,1,91,57.79Z"/><path d="M78.06,61.16a27.88,27.88,0,0,1-2.56-4.1,19.41,19.41,0,0,1-1.71-4.65,15.41,15.41,0,0,1-.39-2.63A5.42,5.42,0,0,1,74.05,47a4.87,4.87,0,0,1,2.12-2.07,4.42,4.42,0,0,1,2.7-.41l.09.29a13.65,13.65,0,0,0-1.46,1.76,6,6,0,0,0-.71,1.65c-.15.56-.28,1.14-.42,1.78a7.14,7.14,0,0,0-.2,2.09,24.28,24.28,0,0,0,.73,4.45A38,38,0,0,0,78.32,61Z"/><path d="M9.52,66.39a47.2,47.2,0,0,1-.26-8.66,36.12,36.12,0,0,1,1.56-8.65c.91-2.79,2.06-5.81,4.51-7.89a12.42,12.42,0,0,1,4-2.38,10.62,10.62,0,0,1,4.52-.47l.05.3a29.53,29.53,0,0,0-3.63,2.06,17.53,17.53,0,0,0-2.87,2.62,29.23,29.23,0,0,0-2.39,3.07,19.56,19.56,0,0,0-2,3.53,39.42,39.42,0,0,0-2.32,8,54.08,54.08,0,0,0-.93,8.45Z"/><path d="M56.72,59.84a31.34,31.34,0,0,0,2-3.41,21.94,21.94,0,0,0,1.5-3.5,6.42,6.42,0,0,0,.27-1.75c0-.56.06-1,.1-1.54a7.32,7.32,0,0,0-.48-3.42l.19-.23a4,4,0,0,1,3.28,3.38,4.76,4.76,0,0,1-.19,2.44,13.37,13.37,0,0,1-1,2A16.32,16.32,0,0,1,60,57.3a22.77,22.77,0,0,1-3,2.76Z"/><path d="M40.06,61.67a10,10,0,0,0,3.46-6.24,3,3,0,0,0,0-.84,3.31,3.31,0,0,0-.1-.83,5.92,5.92,0,0,1-.1-.82,5.69,5.69,0,0,1-.08-.83c0-.58-.09-1.16,0-1.8a10.11,10.11,0,0,1,.08-2.09l.26-.13a6,6,0,0,1,1.64,1.49,9.14,9.14,0,0,1,.58.94L46,51c.07.17.11.35.17.53.55,1.42.09,3-.34,4.42-.13.35-.24.71-.4,1L45,58l-.62.88-.71.8a10.24,10.24,0,0,1-3.41,2.27Z"/><path class="cls-9" d="M83.51,97.92c-6.9-.38-10.91,1.19-17.46,0s-11.92.92-18.15.9c-5.07,0-10.06-1.82-16.1-.66-4.5.86-6.95-1.18-10.24-.77-15.12,1.9-15.81.31-18.41-6.94-1.8-5-1.88-21.3,22.94-13.2,3.07,1,9.59-2.24,13.91-.09,4.63,2.3,3.25,2.15,14.47.5,3.3-.49,3.52-.15,9.35.41,3.78.37,11,.82,15.2-.82,21.76-8.54,19.15,5.38,17.46,10.5C94.72,93,89.85,98.26,83.51,97.92Z"/><path d="M26.26,95.57a22.86,22.86,0,0,0,1.95-4.91,28.09,28.09,0,0,0,1.08-5.08,9.59,9.59,0,0,0-.05-2.46c-.1-.77-.21-1.49-.35-2.14a5.3,5.3,0,0,0-.78-1.88,9.19,9.19,0,0,0-1.79-1.81l.07-.29a4.53,4.53,0,0,1,3.05.46A5.23,5.23,0,0,1,31.71,80a6.36,6.36,0,0,1,.5,3.15A17.84,17.84,0,0,1,31.65,86a23.53,23.53,0,0,1-2,5.22c-.44.82-.91,1.61-1.41,2.38a11.13,11.13,0,0,1-1.73,2.18Z"/><path d="M92.25,94.26A24.08,24.08,0,0,0,94.18,89a31.34,31.34,0,0,0,1-5.43,12,12,0,0,0-.1-2.62c-.12-.84-.23-1.62-.4-2.34a5.89,5.89,0,0,0-.84-2A8.57,8.57,0,0,0,92,74.66l.06-.3a4.66,4.66,0,0,1,3.2.59,5.6,5.6,0,0,1,2.29,2.64A7,7,0,0,1,98,80.86a22.87,22.87,0,0,1-.49,3.07,26.36,26.36,0,0,1-2,5.58c-.43.88-.89,1.74-1.39,2.57a12,12,0,0,1-1.72,2.38Z"/><path d="M79.7,95.92a28.13,28.13,0,0,1-2.53-5,21,21,0,0,1-1.37-5.53,18.61,18.61,0,0,1-.08-3,6.93,6.93,0,0,1,.91-3,6.52,6.52,0,0,1,5-3.33l.14.26c-.57.83-1.08,1.52-1.49,2.23a14.77,14.77,0,0,0-1,2.14c-.26.71-.46,1.43-.69,2.2a9.6,9.6,0,0,0-.45,2.42,23.56,23.56,0,0,0,.42,5.19A33.1,33.1,0,0,0,80,95.78Z"/><path d="M7.41,93.79a7.11,7.11,0,0,1-2.48-1.43A9.42,9.42,0,0,1,3,90.11a5.44,5.44,0,0,1-1.16-2.74,4.3,4.3,0,0,1,1-2.93h.3a5.59,5.59,0,0,1,1,1.23,7.1,7.1,0,0,1,.62,1.13,3.53,3.53,0,0,1,.28,1.14,5.32,5.32,0,0,0,.14,1.2,12.08,12.08,0,0,0,.87,2.29,8.31,8.31,0,0,0,1.46,2.11Z"/><path d="M17,90.25c-1.21-1-2.32-2.09-3.44-3.2a39.5,39.5,0,0,1-3.11-3.58c-.95-1.28-2.14-2.5-2.5-4.32a4.63,4.63,0,0,1,.24-3A2.36,2.36,0,0,1,9.47,75a3,3,0,0,1,.76-.12,3.56,3.56,0,0,1,.68.13l.05.29-.44.42a2.22,2.22,0,0,0-.27.41,1,1,0,0,0-.05.66,10.16,10.16,0,0,0,.6,1.51c.28.58.55,1.21.8,1.89a15,15,0,0,0,.86,2c.7,1.32,1.47,2.64,2.27,3.95s1.64,2.61,2.48,3.91Z"/><path d="M63.18,94.73A25.8,25.8,0,0,0,65,89.9a14.26,14.26,0,0,0,.53-4.83,5.9,5.9,0,0,0-.61-2.1,15.92,15.92,0,0,0-1-1.74,21.21,21.21,0,0,0-3.34-3.51l.09-.28a6.42,6.42,0,0,1,2.88.26,6.48,6.48,0,0,1,2.63,1.56A5.65,5.65,0,0,1,67.69,82a10.55,10.55,0,0,1,.2,3,14.16,14.16,0,0,1-1.52,5.37,22.22,22.22,0,0,1-2.94,4.48Z"/><path d="M40.61,94.26a31.71,31.71,0,0,0,2.06-4,21.3,21.3,0,0,0,1.38-4,16.24,16.24,0,0,0,.07-3.79,8.91,8.91,0,0,0-.24-1.79,20.68,20.68,0,0,0-.74-2.08l.18-.24a4.81,4.81,0,0,1,3.74,3.53,5.36,5.36,0,0,1,.09,2.69,17.33,17.33,0,0,1-.81,2.4A18.24,18.24,0,0,1,44,91.07a24.51,24.51,0,0,1-3.12,3.39Z"/></g></svg>