<svg xmlns="http://www.w3.org/2000/svg" xmlns:xlink="http://www.w3.org/1999/xlink" viewBox="0 0 125 100"><defs><style>.cls-1{fill:#31c8c5;}.cls-1,.cls-2,.cls-3,.cls-4,.cls-6,.cls-7,.cls-8{stroke:#000;stroke-miterlimit:10;}.cls-2{fill:url(#Безымянный_градиент_221);}.cls-3{fill:#984c24;}.cls-4{fill:url(#Безымянный_градиент_126);}.cls-5{fill:#f79014;}.cls-6{fill:url(#Безымянный_градиент_225);}.cls-7,.cls-8{stroke-width:0.5px;}.cls-7{fill:url(#Безымянный_градиент_10);}.cls-8{fill:url(#Безымянный_градиент_60);}</style><radialGradient id="Безымянный_градиент_221" cx="39.86" cy="27.43" fx="52.3313933390306" fy="46.963808903080555" r="24.82" gradientUnits="userSpaceOnUse"><stop offset="0" stop-color="#31c8c5"/><stop offset="0.29" stop-color="#699594"/><stop offset="0.42" stop-color="gray"/><stop offset="0.57" stop-color="#7d7d7d"/><stop offset="0.67" stop-color="#747474"/><stop offset="0.76" stop-color="#656565"/><stop offset="0.83" stop-color="#505050"/><stop offset="0.9" stop-color="#353535"/><stop offset="0.97" stop-color="#141414"/><stop offset="1"/></radialGradient><linearGradient id="Безымянный_градиент_126" x1="52.08" y1="82.67" x2="52.08" y2="57.01" gradientUnits="userSpaceOnUse"><stop offset="0" stop-color="gray"/><stop offset="0.23" stop-color="#7e8282"/><stop offset="0.33" stop-color="#788"/><stop offset="0.4" stop-color="#6b9393"/><stop offset="0.45" stop-color="#59a3a2"/><stop offset="0.5" stop-color="#43b8b5"/><stop offset="0.53" stop-color="#31c8c5"/><stop offset="0.56" stop-color="#45b6b4"/><stop offset="0.6" stop-color="#5ba2a1"/><stop offset="0.64" stop-color="#6c9392"/><stop offset="0.7" stop-color="#788"/><stop offset="0.78" stop-color="#7e8282"/><stop offset="1" stop-color="gray"/></linearGradient><radialGradient id="Безымянный_градиент_225" cx="81.27" cy="27.14" fx="53.73050679681456" r="27.62" gradientUnits="userSpaceOnUse"><stop offset="0.02" stop-color="#31c8c5"/><stop offset="0.17" stop-color="#54a8a7"/><stop offset="0.34" stop-color="#748b8b"/><stop offset="0.43" stop-color="gray"/><stop offset="0.58" stop-color="#7d7d7d"/><stop offset="0.68" stop-color="#747474"/><stop offset="0.76" stop-color="#656565"/><stop offset="0.83" stop-color="#505050"/><stop offset="0.9" stop-color="#353535"/><stop offset="0.97" stop-color="#141414"/><stop offset="1"/></radialGradient><linearGradient id="Безымянный_градиент_10" x1="52.75" y1="66.26" x2="52.75" y2="35.36" gradientUnits="userSpaceOnUse"><stop offset="0"/><stop offset="0.06" stop-color="#1d0e05"/><stop offset="0.11" stop-color="#311908"/><stop offset="0.16" stop-color="#3e1f0a"/><stop offset="0.21" stop-color="#42210b"/><stop offset="0.43" stop-color="#5a2d0f"/><stop offset="0.61" stop-color="#713813"/><stop offset="0.82" stop-color="#89441d"/><stop offset="1" stop-color="#984c24"/></linearGradient><linearGradient id="Безымянный_градиент_60" x1="50.76" y1="99.48" x2="50.76" y2="74.22" gradientUnits="userSpaceOnUse"><stop offset="0"/><stop offset="0.12" stop-color="#160b04"/><stop offset="0.3" stop-color="#361b09"/><stop offset="0.41" stop-color="#42210b"/><stop offset="0.5" stop-color="#4c260d"/><stop offset="0.85" stop-color="#713813"/><stop offset="0.93" stop-color="#89441d"/><stop offset="1" stop-color="#984c24"/></linearGradient></defs><title>атака 2</title><g id="Слой_4" data-name="Слой 4"><path class="cls-1" d="M30.14,17s-5.15,4.07-6,9.33S23.48,35,24.44,33a43.2,43.2,0,0,0,2.09-6.76s2.6-6.25,4.66-7.77C36.68,14.41,30.14,17,30.14,17Z"/><path class="cls-2" d="M26.25,23.37c5.38,1.26,7-4.25,9.35-6,3.26-2.43,3.26-3.57,3.84-4.84,1.85-4.07,3.05-.72,2.76,4.08a98.31,98.31,0,0,1-2.59,15.93c-1.41,5.63-1.9,8.12-1.9,8.12,0,5.5,16.11,3.94,16.11,1.19a92.39,92.39,0,0,1-2.3-15c-.12-3.72,1.55-10,.56-17-1.16-8.11-7.24-7.82-14.5-8-9-.28-13.16,11.67-13.16,11.68C21.87,20.08,20.38,22,26.25,23.37Z"/><path class="cls-3" d="M27.78,16.05a35.55,35.55,0,0,0-6.46,9.72c-2.4,5.46-2.26,11.47-1.11,9.39A53.16,53.16,0,0,0,23,28s2.93-6,4.77-8.14C29.14,18.29,27.78,16.05,27.78,16.05Z"/></g><g id="Слой_9" data-name="Слой 9"><path class="cls-4" d="M77.41,82.67H28c-5.62,0-11.14-1.52-15-5.19-4.76-4.55,3.06-8.43,1.92-10.36C12,62.19,20.86,57,28,57H77.41c7.12,0,14,4.32,12.5,10.11C89,70.8,94.23,73,92.3,75.79,89.17,80.29,83.19,82.67,77.41,82.67Z"/><path d="M22.48,76.76a1.27,1.27,0,0,1-1.12.07,2.77,2.77,0,0,1-.87-.56,3.71,3.71,0,0,1-.93-1.52c-.4-1.08.58-2.21.45-3.16a3.87,3.87,0,0,0-.43-1.46l-.17-.36c0-.13,0-.27-.07-.4a5.76,5.76,0,0,1-.06-.82,9.21,9.21,0,0,1,.58-3.21,11.31,11.31,0,0,1,3.63-5.1,13.07,13.07,0,0,1,5.42-2.73l.15.26c-1.23,1.59-2.46,3-3.54,4.45a42.58,42.58,0,0,0-2.94,4.29,12.35,12.35,0,0,0-.93,2.32,7.59,7.59,0,0,1-.42,1.28,2.83,2.83,0,0,0-.32,1.42c0,1,1.17,1.75,1.26,2.53a6.54,6.54,0,0,1,.13,1.15,2.77,2.77,0,0,0,.16,1.25Z"/><path d="M78.27,57.52A10.2,10.2,0,0,1,81.65,59a11.85,11.85,0,0,1,2.75,2.34,15.34,15.34,0,0,1,1.75,3.27c.51,1.11,1.12,2.12,1.61,3.31a6,6,0,0,1,.4,4,9.66,9.66,0,0,1-1.84,3.51,11.47,11.47,0,0,1-6.42,3.62l-.17-.24a26.21,26.21,0,0,1,2.08-2.91c.71-.89,1.38-1.75,2-2.54a15.18,15.18,0,0,0,1.8-2.4,5.49,5.49,0,0,0,.92-2.8,4.69,4.69,0,0,0-1.39-2.94c-.81-.81-1.85-1.38-2.68-2.11a24.76,24.76,0,0,1-4.4-5.35Z"/><path d="M44.74,80.08a8.73,8.73,0,0,1-2.4-1.64A4.5,4.5,0,0,1,40.81,76a11.45,11.45,0,0,1-.22-1.62c0-.51-.13-1-.21-1.47a17.67,17.67,0,0,1-.61-3,10.6,10.6,0,0,1,.38-3A9.27,9.27,0,0,1,46,60.43l.19.23-2.11,5c-.32.79-.69,1.54-1,2.3s-.64,1.55-1,2.34c-.17.4-.31.8-.48,1.23a3.66,3.66,0,0,0-.27,1.32A2.19,2.19,0,0,0,41.66,74a3.7,3.7,0,0,0,1,.9,5,5,0,0,1,1.7,2,5.8,5.8,0,0,1,.69,3Z"/><path d="M57.1,57a19.72,19.72,0,0,1,3.66,1.73,9,9,0,0,1,3,3,22.71,22.71,0,0,1,1.42,4c.19.65.45,1.28.66,1.93a11.18,11.18,0,0,1,.65,2A8.88,8.88,0,0,1,66.29,74a12.54,12.54,0,0,1-4.58,7,8.82,8.82,0,0,1-1.88,1.12,4.45,4.45,0,0,1-1.11.32,1.47,1.47,0,0,1-1.21-.26l.14-.27c.53-.07.9-.59,1.29-1s.73-1,1.06-1.5c.67-1,1.29-2.1,1.87-3.16S63.1,74.11,63.59,73a20.84,20.84,0,0,0,1.19-3.38,6,6,0,0,0-.5-3.66,9.67,9.67,0,0,0-2.5-2.82c-.9-.82-1.66-1.74-2.53-2.67A19.31,19.31,0,0,1,58,59a6.56,6.56,0,0,1-1.1-1.83Z"/><path class="cls-5" d="M30.67,65.44c2.6,0,6.42.18,6.46,2.35s-3.52,4-6.12,3.93-6.25-1.16-6.29-3.34S28.07,65.4,30.67,65.44Z"/><path d="M30.67,65.29a9,9,0,0,0,1.92-.17,20.62,20.62,0,0,1,2-.35,4,4,0,0,1,2.31.45,2.8,2.8,0,0,1,1.12,1.1,2.62,2.62,0,0,1,.3,1.64,3.28,3.28,0,0,1-1.43,2.18,10.84,10.84,0,0,1-1.88,1,19.77,19.77,0,0,1-3.84,1.35A9,9,0,0,1,27,72.38a7,7,0,0,1-2.13-.95A3.79,3.79,0,0,1,23.16,69a3.32,3.32,0,0,1,1.08-3.06A3.8,3.8,0,0,1,26.57,65C28.1,64.91,29.4,65.3,30.67,65.29Zm0,.3A5.2,5.2,0,0,0,27.3,67a5,5,0,0,0-.91,1c-.14.25-.05.27-.06.4a1.27,1.27,0,0,0,.39.58,5,5,0,0,0,1.22.79c.49.24,1,.44,1.56.64a11.28,11.28,0,0,0,1.68.53,4.64,4.64,0,0,0,3.41-.64A3.44,3.44,0,0,0,35.73,69a1.47,1.47,0,0,0,.17-1.17c0-.13-.1-.15-.14-.17s-.09-.1-.23-.21a11.16,11.16,0,0,0-1.26-.79,10.49,10.49,0,0,0-1.73-.79A6,6,0,0,0,30.67,65.59Z"/><path class="cls-5" d="M53.13,72.67c2.13-.24,6.16-.58,6.21-2.75s-3.52-4-6.12-3.93-6.26,1.16-6.3,3.33S50.66,73,53.13,72.67Z"/><path d="M53.11,72.52A6.08,6.08,0,0,0,55,72a10.19,10.19,0,0,0,1.65-1,11.26,11.26,0,0,0,1.16-.88c.12-.11.17-.18.21-.21s.1-.08.15-.24a1.8,1.8,0,0,0-.3-1.26,3.57,3.57,0,0,0-1.26-1.21,4.58,4.58,0,0,0-3.46-.45,18.75,18.75,0,0,0-3.22,1.23,4,4,0,0,0-1.12.82c-.23.3-.24.4-.25.48s0,.27.24.61a9.59,9.59,0,0,0,1,1.14A4.35,4.35,0,0,0,53.11,72.52Zm0,.3A20.65,20.65,0,0,1,49,73a4.49,4.49,0,0,1-2.22-.86,4.07,4.07,0,0,1-1-1.08,3.32,3.32,0,0,1-.49-1.63,3.55,3.55,0,0,1,1.36-2.85,6.39,6.39,0,0,1,2.15-1.13,8.69,8.69,0,0,1,4.25-.29A17,17,0,0,1,57,66.44a13.93,13.93,0,0,1,1.88,1,3.47,3.47,0,0,1,1.6,2,2.65,2.65,0,0,1,0,1.64,2.84,2.84,0,0,1-1,1.28,3.85,3.85,0,0,1-2.29.72,13.9,13.9,0,0,1-2.09-.18A8.5,8.5,0,0,0,53.14,72.82Z"/><path class="cls-5" d="M76.89,66.14c3.44.77,6.17.49,6.21,2.67s-3.52,4-6.12,3.93-6.26-1.17-6.3-3.34S73.9,65.46,76.89,66.14Z"/><path d="M76.92,66a5.65,5.65,0,0,0,1.93.1c.65-.07,1.32-.23,2-.27a3.51,3.51,0,0,1,2.4.59,2.58,2.58,0,0,1,1,1.45,2.9,2.9,0,0,1,0,1.55,3.63,3.63,0,0,1-1.63,2,15.3,15.3,0,0,1-1.9,1,17.09,17.09,0,0,1-4,1.28,8.52,8.52,0,0,1-4.26-.34,6.12,6.12,0,0,1-2.17-1.2,3.77,3.77,0,0,1-.93-1.24,3.34,3.34,0,0,1-.3-1.7,3.89,3.89,0,0,1,1.39-2.61,4.42,4.42,0,0,1,2.25-1A12.42,12.42,0,0,1,76.92,66Zm-.06.29a3.76,3.76,0,0,0-3.35,1.12c-.82.8-1.3,1.62-1.22,1.92,0,.14,0,.18.22.48a3.85,3.85,0,0,0,1.08.83,19.4,19.4,0,0,0,3.23,1.25,4.56,4.56,0,0,0,3.47-.41,3.61,3.61,0,0,0,1.29-1.19A2,2,0,0,0,81.91,69a1.28,1.28,0,0,0-.16-.35s0,0-.1-.09a7,7,0,0,0-1.17-.74c-.55-.3-1.16-.64-1.76-.92A9.87,9.87,0,0,0,76.86,66.28Z"/><path d="M80.64,69.32a6.31,6.31,0,0,1-2,.79,8.81,8.81,0,0,1-2,.22,9.4,9.4,0,0,1-2-.21,6.18,6.18,0,0,1-2-.78,6.21,6.21,0,0,1,2-.79,8.73,8.73,0,0,1,2-.22,9.33,9.33,0,0,1,2,.21A6.47,6.47,0,0,1,80.64,69.32Z"/><path d="M57.69,69.31a6.21,6.21,0,0,1-2,.79,9.09,9.09,0,0,1-3.93,0,6.27,6.27,0,0,1-2-.78,6.21,6.21,0,0,1,2-.79,8.73,8.73,0,0,1,2-.22,9.26,9.26,0,0,1,2,.21A6.47,6.47,0,0,1,57.69,69.31Z"/><path d="M34.6,68.62a6.31,6.31,0,0,1-2,.79,9.09,9.09,0,0,1-3.93,0,6.18,6.18,0,0,1-2-.78,6.12,6.12,0,0,1,2-.79,8.73,8.73,0,0,1,2-.22,9.33,9.33,0,0,1,2,.21A6.47,6.47,0,0,1,34.6,68.62Z"/><path d="M15.43,67.12a21.7,21.7,0,0,1,.35,3.15c.1,3.4-2.88.62-2.88.62Z"/><path class="cls-1" d="M96.39,15.46s7.86,2.09,11.39,7.63S114,34.59,112,32.86c-2.2-1.87-4.43-7.06-4.43-7.06S99,18.39,95.92,17.67C87.67,15.74,96.39,15.46,96.39,15.46Z"/><path class="cls-6" d="M100.46,20.47c-2.22.57-6,0-9.91-1.25-2.19-.73-7.69-5.29-8.72-6.24-4.24-3.9-10.15,0-11.32,4.59s1,10.61.1,15.22c-1,4.89,1.93,6.29,1.93,6.29,0,5.5-16.14,5.76-16.14,3,0,0,1.08-9.46,2.29-15,.8-3.65-1.64-11,3.45-15.8,2.18-2,5.14-9.13,19.59-8,5.8.46,16.58,4.89,16.59,4.9C106.34,13.42,108.25,18.48,100.46,20.47Z"/><path class="cls-3" d="M100.05,14.6s8.07,1.05,12.29,6.08,7.68,10.59,5.44,9.15c-2.42-1.57-5.3-6.43-5.3-6.43s-9.45-6.23-12.6-6.55C91.44,16,100.05,14.6,100.05,14.6Z"/><path class="cls-7" d="M80.5,36.32c-12,2.16-11.09,5.24-15.42,4.78-16.68-1.77-13,2.22-25.66-.68-3.43-.78-9.09-8.8-19.61-2.93-6.81,3.8-9,7.58-10.68,16C5,73.52,15.77,65.32,26,60c4.77-2.49,9.31,3.82,14.93-.14,0,0,3.07,4.47,8,3.23C55.13,61.5,57.58,58,57.58,58s2.23,4.12,9.81,4.1c3.35,0,8-5.88,12.28-2.66C94.45,70.58,95.81,55.72,97.08,47,98.52,37.16,91.56,34.33,80.5,36.32Z"/><path d="M26.78,59.51A14.6,14.6,0,0,0,29,55.07a11.69,11.69,0,0,0,.48-4.67,4.89,4.89,0,0,0-.21-1.13,5.29,5.29,0,0,0-.34-1.09c-.14-.35-.25-.71-.36-1.07s-.26-.71-.37-1.08a7.58,7.58,0,0,0-.34-1.12c-.13-.38-.25-.77-.35-1.18a15,15,0,0,1-.72-2.54L27,41a9.57,9.57,0,0,1,2.26,1.61,13.34,13.34,0,0,1,.91,1.06l.42.56c.12.19.23.41.34.61,1,1.63,1,3.69.92,5.53-.05.47-.07.94-.15,1.4l-.3,1.36-.46,1.29c-.18.42-.39.83-.58,1.24A13.73,13.73,0,0,1,27,59.72Z"/><path d="M91.5,55.63a24.64,24.64,0,0,0,2.16-5.88,12.77,12.77,0,0,0,.14-5.85,6.24,6.24,0,0,0-1.2-2.4,19.25,19.25,0,0,0-1.8-2,49.1,49.1,0,0,0-4.88-3.68l.07-.29a10.15,10.15,0,0,1,6.66,1.61,7.71,7.71,0,0,1,2.48,2.74,10.18,10.18,0,0,1,1,3.54,13.4,13.4,0,0,1-1.07,6.73,22.7,22.7,0,0,1-3.34,5.6Z"/><path d="M78.81,59.19A27.86,27.86,0,0,1,76.25,55a20,20,0,0,1-1.71-4.7,15.68,15.68,0,0,1-.39-2.64,5.52,5.52,0,0,1,.64-2.82,5,5,0,0,1,2.11-2.11,4.42,4.42,0,0,1,2.72-.44l.09.29a12.78,12.78,0,0,0-1.46,1.78,5.65,5.65,0,0,0-.71,1.68c-.15.57-.28,1.16-.43,1.82A7.65,7.65,0,0,0,76.92,50a24.09,24.09,0,0,0,.74,4.51A37.43,37.43,0,0,0,79.07,59Z"/><path d="M11.86,62.22a43.22,43.22,0,0,1-.24-8.44,32.88,32.88,0,0,1,1.61-8.43c.92-2.72,2.16-5.64,4.59-7.62a12.46,12.46,0,0,1,4-2.21,10.53,10.53,0,0,1,4.41-.4l.05.29a34,34,0,0,0-3.56,2,18.57,18.57,0,0,0-2.86,2.5,31.25,31.25,0,0,0-2.39,2.92,17.54,17.54,0,0,0-2,3.38A36.46,36.46,0,0,0,13.1,54a50.1,50.1,0,0,0-.94,8.22Z"/><path d="M57.47,57.87a32,32,0,0,0,2-3.46A22,22,0,0,0,61,50.86a6.5,6.5,0,0,0,.27-1.77c0-.56.06-1.07.1-1.56a7.5,7.5,0,0,0-.48-3.47l.19-.23a4.1,4.1,0,0,1,3.28,3.43,4.8,4.8,0,0,1-.19,2.45,14.75,14.75,0,0,1-1,2.08,16.85,16.85,0,0,1-2.48,3.48,23.23,23.23,0,0,1-3.06,2.81Z"/><path d="M40.81,59.72a11.36,11.36,0,0,0,2.38-3,8.67,8.67,0,0,0,1.09-3.36,3.54,3.54,0,0,0,0-.86,4,4,0,0,0-.1-.84,5.87,5.87,0,0,1-.1-.83A6,6,0,0,1,44,50c0-.59-.09-1.17,0-1.83a9.55,9.55,0,0,1,.08-2.1l.26-.14A6.32,6.32,0,0,1,46,47.48a8.31,8.31,0,0,1,.58,1l.25.5c.06.17.11.35.17.53.55,1.44.09,3.06-.33,4.46-.13.35-.24.71-.4,1l-.5,1-.63.89c-.23.28-.47.55-.71.81A10.35,10.35,0,0,1,41,60Z"/><path class="cls-8" d="M84.26,97.93c-6.9-.38-7.55,3.68-17.46,0-6.29-2.34-11.92.93-18.15.91-5.08,0-10.19-2.4-16.1-.68C26.25,100,25.6,97,22.31,97.39c-15.12,1.92-15.81.31-18.41-7C2.1,85.28,2,68.76,26.84,77c3.07,1,9.59-2.28,13.91-.1,4.63,2.34,3.25,2.18,14.47.51,3.3-.49,3.52-.15,9.35.42,3.78.37,11,.83,15.2-.83,21.76-8.66,19.15,5.45,17.46,10.64C95.47,93,90.6,98.28,84.26,97.93Z"/><path d="M27,95.55a22.86,22.86,0,0,0,2-5A28.71,28.71,0,0,0,30,85.44,10.31,10.31,0,0,0,30,83c-.1-.79-.2-1.52-.35-2.19a5.61,5.61,0,0,0-.77-1.91A8.79,8.79,0,0,0,27.07,77l.07-.3a4.58,4.58,0,0,1,3.08.5,5.3,5.3,0,0,1,2.25,2.54A6.43,6.43,0,0,1,33,82.93a17.88,17.88,0,0,1-.56,2.93,24.29,24.29,0,0,1-2,5.29c-.44.82-.9,1.62-1.41,2.41a11.22,11.22,0,0,1-1.73,2.21Z"/><path d="M93,94.22A23,23,0,0,0,95.06,89a24.75,24.75,0,0,0,1-5.36,10.34,10.34,0,0,0-.24-2.57c-.17-.81-.34-1.57-.56-2.31a9.48,9.48,0,0,0-.93-2.2,21.76,21.76,0,0,0-1.62-2.26l.14-.26A6.35,6.35,0,0,1,98,77.63a7.15,7.15,0,0,1,.75,3.2A18.51,18.51,0,0,1,98.39,84a21.71,21.71,0,0,1-1.93,5.62A26.44,26.44,0,0,1,95,92.11a13.18,13.18,0,0,1-1.78,2.31Z"/><path d="M80.45,95.91a28.44,28.44,0,0,1-2.53-5,21.68,21.68,0,0,1-1.37-5.59,20.21,20.21,0,0,1-.09-3,7.06,7.06,0,0,1,.91-3,6.6,6.6,0,0,1,5-3.42l.14.27c-.57.83-1.09,1.53-1.5,2.25a15.18,15.18,0,0,0-1,2.18c-.25.72-.46,1.46-.69,2.23A10.47,10.47,0,0,0,79,85.23a24.88,24.88,0,0,0,.42,5.26,34.38,34.38,0,0,0,1.35,5.28Z"/><path d="M8.16,93.74a7.37,7.37,0,0,1-2.5-1.46A10,10,0,0,1,3.76,90a5.44,5.44,0,0,1-1.15-2.77,4.32,4.32,0,0,1,1-3H4a5.63,5.63,0,0,1,1,1.24,7.25,7.25,0,0,1,.62,1.15,3.58,3.58,0,0,1,.28,1.16A6.24,6.24,0,0,0,6,89a12.7,12.7,0,0,0,.87,2.31A8.5,8.5,0,0,0,8.3,93.48Z"/><path d="M17.74,90.15c-1.22-1-2.33-2.13-3.45-3.25a40.3,40.3,0,0,1-3.11-3.64C10.23,82,9,80.72,8.69,78.89a4.72,4.72,0,0,1,.24-3,2.39,2.39,0,0,1,1.28-1.19,3,3,0,0,1,.76-.13,5,5,0,0,1,.69.12l.05.3-.44.42a2.22,2.22,0,0,0-.27.41,1.06,1.06,0,0,0-.05.67,10.46,10.46,0,0,0,.6,1.56,20.36,20.36,0,0,1,.8,1.91A17.3,17.3,0,0,0,13.21,82c.7,1.34,1.47,2.68,2.27,4s1.64,2.65,2.48,4Z"/><path d="M63.93,94.71a27.18,27.18,0,0,0,1.78-4.9,15.11,15.11,0,0,0,.53-4.89,6.12,6.12,0,0,0-.6-2.13,17.21,17.21,0,0,0-1-1.78,20.63,20.63,0,0,0-3.35-3.56l.09-.28a6.37,6.37,0,0,1,2.9.29,6.48,6.48,0,0,1,2.64,1.6,5.85,5.85,0,0,1,1.57,2.79,11,11,0,0,1,.18,3.06,14.52,14.52,0,0,1-1.52,5.42,22.65,22.65,0,0,1-2.94,4.54Z"/><path d="M41.36,94.22a32.19,32.19,0,0,0,2.06-4A22.17,22.17,0,0,0,44.8,86.1a16.74,16.74,0,0,0,.07-3.85,10,10,0,0,0-.24-1.81,19,19,0,0,0-.75-2.11l.19-.24a4.91,4.91,0,0,1,3.75,3.6,5.5,5.5,0,0,1,.08,2.7,17.17,17.17,0,0,1-.81,2.42A18,18,0,0,1,44.72,91a25.72,25.72,0,0,1-3.13,3.45Z"/></g></svg>